<svg width="467" height="364" viewBox="0 0 467 364" fill="none" xmlns="http://www.w3.org/2000/svg">
<path d="M452 221.824C452 270.479 441.239 300.101 417.505 318.658C392.647 338.095 350.134 348.325 279 348.325C207.438 348.325 139.782 344.031 90.3971 327.961C65.818 319.964 46.948 309.412 34.332 296.087C22.0692 283.135 15 266.842 15 245.325C15 234.654 17.0886 227.894 19.8667 223.297C22.6111 218.755 26.7909 215.057 33.2129 211.791C39.8439 208.42 48.3342 205.775 59.0841 203.214C65.5309 201.679 72.0673 200.326 79.1402 198.863C84.1923 197.818 89.5182 196.716 95.2808 195.45C121.962 189.589 153.133 181.178 184.255 162.563C215.547 143.845 246.113 115.231 272.47 69.8593C296.696 28.1577 318.526 15.7513 334.973 15.0351C351.881 14.2988 370.573 25.4849 389.25 48.7013C407.514 71.4042 423.316 102.729 434.55 134.884C445.804 167.096 452 198.775 452 221.824Z" stroke="#84BE9C" stroke-width="30"/>
<path d="M457 221.824C457 271.106 446.102 302.645 420.585 322.597C394.318 343.135 350.309 353.325 279 353.325C207.406 353.325 139.052 349.051 88.85 332.716C63.8247 324.573 44.0984 313.675 30.7013 299.525C17.5395 285.624 10 268.092 10 245.325C10 234 12.2205 226.283 15.5873 220.711C18.9315 215.176 23.9192 210.908 30.9466 207.335C38.1134 203.69 47.0646 200.938 57.9256 198.351C64.4108 196.806 71.095 195.422 78.2521 193.94C83.3031 192.895 88.5896 191.8 94.208 190.566C120.714 184.743 151.26 176.472 181.688 158.272C212.23 140.003 242.2 112.012 268.147 67.3477C292.672 25.13 315.736 10.868 334.755 10.0398C354.082 9.19827 374.142 21.9452 393.146 45.5672C411.874 68.8469 427.914 100.729 439.271 133.235C450.64 165.778 457 198.036 457 221.824Z" stroke="#E99440" stroke-width="20"/>
<path d="M462 221.824C462 271.732 450.966 305.189 423.664 326.536C395.988 348.176 350.484 358.325 279 358.325C207.373 358.325 138.321 354.071 87.3029 337.47C61.8314 329.182 41.2488 317.937 27.0705 302.962C13.0098 288.112 5 269.342 5 245.325C5 233.345 7.35244 224.671 11.3078 218.125C15.2519 211.598 21.0475 206.759 28.6804 202.878C36.3829 198.961 45.795 196.1 56.767 193.487C63.291 191.933 70.1256 190.517 77.3663 189.017C82.4144 187.972 87.6599 186.885 93.1353 185.683C119.466 179.898 149.388 171.766 179.121 153.981C208.912 136.162 238.288 108.793 263.823 64.8361C288.649 22.1022 312.946 5.98476 334.538 5.04458C356.283 4.09769 377.712 18.4054 397.042 42.4331C416.234 66.2895 432.512 98.7296 443.991 131.585C455.476 164.46 462 197.297 462 221.824Z" stroke="#A54C5B" stroke-width="10"/>
</svg>
