<svg width="472" height="648" viewBox="0 0 472 648" fill="none" xmlns="http://www.w3.org/2000/svg">
<path d="M258.111 210.43C248.521 219.75 238.331 228.46 231.421 240.27C226.941 247.92 226.391 256.36 225.041 264.68C223.621 273.42 224.561 282.26 224.191 291.05C223.321 311.89 220.421 332.4 215.171 352.63C212.061 364.63 209.061 376.59 203.021 387.54C198.751 395.29 194.621 403.17 187.441 408.74C185.191 410.49 182.581 411.77 180.141 413.26C179.451 415.41 180.991 416.18 182.421 417.11C192.311 423.55 201.211 430.93 205.961 442.19C206.441 441.86 206.911 441.54 207.391 441.21C206.951 439.43 206.071 437.91 205.151 436.31C202.931 432.47 199.671 429.48 197.251 425.81C194.421 421.53 195.051 417.62 199.521 415.15C204.981 412.12 210.151 408.64 214.501 404.18C221.451 397.06 226.411 388.43 231.361 379.94C238.701 367.33 245.771 354.56 254.491 342.83C259.801 335.7 265.961 329.25 271.841 322.58C279.271 314.15 287.461 306.95 298.601 303.89C300.631 299.51 304.961 301 308.231 300.47C328.351 297.2 347.661 290.92 367.151 285.29C376.021 282.72 384.831 279.74 393.961 278.42C397.921 277.85 402.291 275.92 406.371 278.86C407.751 279.85 408.911 280.72 408.881 282.54C411.101 284.13 413.781 284.45 416.301 285.22C427.981 288.79 437.081 295.72 443.471 306.16C443.931 305.68 444.391 305.19 444.851 304.71C442.351 298.95 438.261 294.62 433.201 290.98C427.091 286.58 421.301 282 422.561 272.92C422.951 270.15 420.901 267.61 418.401 265.58C412.431 260.73 405.431 260.62 398.591 261.4C385.081 262.94 371.631 265.05 358.221 267.28C345.281 269.43 332.531 272.54 319.591 274.75C306.891 276.92 294.291 279.07 281.281 278.28C271.041 277.66 261.201 275.8 251.961 271.48C246.081 268.73 240.581 265.14 238.251 258.53C235.231 250 241.051 238.92 249.991 233.88C261.461 227.41 271.531 229.92 280.861 238.27C283.041 240.22 284.261 240.18 286.391 238.58C291.561 234.72 296.941 231.38 303.721 230.87C305.881 230.71 308.291 230.26 310.281 228.94C306.961 228.79 303.621 229.19 300.561 230.19C293.361 232.53 286.761 232.09 280.511 227.62C278.931 226.49 277.081 225.75 275.451 224.67C269.211 220.5 262.501 216.88 258.111 210.43Z" fill="#30251F"/>
<path d="M310.3 228.93C308.32 230.24 305.91 230.7 303.74 230.86C296.96 231.36 291.57 234.71 286.41 238.57C284.27 240.17 283.06 240.22 280.88 238.26C271.54 229.91 261.48 227.4 250.01 233.87C241.07 238.92 235.26 249.99 238.27 258.52C240.61 265.13 246.1 268.72 251.98 271.47C261.22 275.79 271.06 277.64 281.3 278.27C294.32 279.06 306.92 276.91 319.61 274.74C332.55 272.53 345.31 269.42 358.24 267.27C371.66 265.04 385.11 262.94 398.61 261.39C405.45 260.61 412.45 260.72 418.42 265.57C420.92 267.6 422.97 270.14 422.58 272.91C421.32 281.98 427.11 286.57 433.22 290.97C438.29 294.62 442.38 298.95 444.87 304.7C452.31 298.7 458.62 291.72 464.11 283.86C474.99 268.28 467.54 257.68 453.16 250.88C440.26 244.77 426.48 241.39 412.6 238.68C397.56 235.74 382.41 233.38 367.24 231.16C354.22 229.26 341.02 229.09 327.92 227.97C326.46 227.99 325 228 323.54 228.02C320.16 228.04 316.78 228.06 313.41 228.07C313.12 227.92 312.82 227.76 312.53 227.61C312.03 227.57 311.54 227.52 311.04 227.48C311.06 228.1 310.87 228.62 310.3 228.93ZM361.45 242.88C363.91 241.77 365.68 241.96 367.29 242.2C374.38 243.23 381.62 243.29 388.58 245.11C398.04 247.58 407.9 247.28 417.39 249.53C423.79 251.05 429.87 254.06 436.45 254.47C444.63 254.98 451.53 257.84 457.66 263.17C461.51 266.52 463.07 270.77 461.56 275.44C460.08 280.03 455.18 283.9 450.69 284.04C447.18 284.15 445.94 282.28 447.71 279.17C448.72 277.4 450.34 275.98 451.52 274.29C453.73 271.12 453.33 268.66 450.14 266.51C441.55 260.7 432.71 255.63 422.34 253.23C407.14 249.71 391.77 247.58 376.32 245.73C371.59 245.16 366.74 244.85 361.45 242.88ZM357.62 242.05C355.56 243.07 353.51 242.85 351.37 242.49C340.57 240.72 329.78 241.25 318.96 242.51C310.8 243.46 303.24 246.65 295.27 248.28C292.6 248.83 289.46 249.39 288.65 246.54C287.94 244.04 290.97 242.67 293.16 241.57C293.37 241.46 293.63 241.43 293.86 241.36C302.35 239.14 311 237.64 319.72 237.06C332.61 236.2 345.03 239.7 357.62 242.05ZM301.27 269.3C303.84 267.13 303.84 267.01 307.05 267.14C317 267.56 326.69 266.33 336.3 263.62C341.52 262.15 346.74 260.11 352.36 260.52C353.35 260.59 354.82 260.01 354.96 261.69C355.08 263.07 353.8 263.54 352.79 263.83C344.73 266.17 336.6 268.23 328.15 268.6C323.9 268.79 319.66 268.58 315.38 269.16C310.76 269.79 305.98 269.3 301.27 269.3ZM257.82 246.16C261.51 242.38 267.34 241.81 270.81 244.44C271.41 244.89 272.07 245.32 271.75 246.19C271.52 246.8 271 247.13 270.3 247.02C266.18 246.38 262.08 245.47 257.82 246.16ZM421.37 261.52C425.79 261.01 427.34 262.92 428.15 265.51C428.92 267.97 429.47 270.57 426.77 273.08C426.34 268.59 426.08 264.53 421.37 261.52Z" fill="#3D3028"/>
<path d="M323.55 228.03C325.01 228.01 326.47 228 327.93 227.98C328.13 221.4 331.32 215.63 333.02 209.46C334.7 203.37 337.35 197.61 340.13 191.94C340.66 190.85 341.35 189.81 341.19 188.51C341.68 185.16 342.19 181.82 342.64 178.46C343.24 173.99 344.45 169.77 348.37 167.08C351.97 164.61 356.04 163.03 360.29 161.96C361.03 160.86 361.67 159.67 362.53 158.66C370.85 148.88 372.84 138.15 367.87 126.12C366.91 123.79 364.48 122.17 364.71 119.33L364.73 119.35C363.63 119.38 362.91 118.84 362.5 117.84C361.52 116.75 360.51 115.7 359.58 114.57C355.99 110.23 353.95 105.33 354.39 99.58C351.34 97.42 348.23 95.37 344.87 93.72C343.94 95.38 345.47 96.43 346.02 97.61C348.1 102.14 350.83 106.36 352.49 111.11C353.94 115.26 353.06 118.22 349.94 119.41C346.25 121.15 342.09 120.4 338.72 117.21C332.37 111.19 328.6 103.65 325.71 95.48C322.44 86.22 319.95 76.5 312.35 69.43C311.97 69.07 311.95 68.32 311.76 67.75C311.3 67.76 310.84 67.77 310.38 67.79C310.27 68.74 310.74 69.42 311.37 70.05C315.49 74.19 317.36 79.33 318.52 84.95C319.29 88.67 319.51 92.43 320.09 96.14C321.39 104.58 319.44 111.97 314.98 119.12C311.62 124.5 306.21 127.9 302.68 133.11C299.86 137.27 298.57 141.28 300.52 146.1C302.76 151.65 304.83 157.26 307.08 162.81C309.71 169.3 312.45 175.75 315.15 182.21C309.32 179.74 306.8 174.41 303.11 169.09C302.49 180.42 297.96 189.31 291.48 197.29C287.42 202.3 287.8 207.56 293.23 211.07C300.3 215.64 307.4 220.2 315.28 223.36C318.21 224.55 321.11 225.92 323.55 228.03ZM327.39 203.79C328.76 206.68 326.37 208.47 326.4 210.74C326.46 215.54 322.82 218.08 318.09 216.91C316.79 216.59 315.52 216.15 314.28 215.64C308.61 213.3 303.12 210.68 299.25 205.64C298.55 204.73 297.42 203.66 298.43 202.42C299.34 201.3 300.62 201.64 301.78 202.24C303.19 202.97 304.72 203.53 305.97 204.47C309.51 207.15 313.5 208.86 317.69 210.14C320.26 210.92 322.7 211.11 324.25 208.11C325 206.66 326.16 205.45 327.39 203.79ZM365.43 138.02C366.53 143.02 362.4 147.14 360.94 152.07C359.96 155.39 357.26 156.75 354.8 158.44C353.89 159.07 352.51 159.6 351.83 158.48C350.97 157.05 352.61 156.73 353.48 156.22C355.45 155.05 357.93 154.38 358.91 152.12C362.06 144.83 363.22 137.51 359.12 130.06C357.62 127.33 355.54 124.71 355.88 121.27C355.97 120.35 355.59 119.2 356.86 118.78C358.02 118.4 358.69 119.13 359.21 120.03C362.35 125.41 365.82 130.66 365.43 138.02ZM316.55 151.18C321.57 152.93 326.48 152.31 331.37 150.92C332.59 150.57 334.23 149.51 334.86 151.32C335.45 153 333.72 153.84 332.46 154.49C328.97 156.26 320.81 155.72 316.55 151.18ZM336.31 181.42C337.39 181.89 337.47 182.72 337.23 183.98C336.35 188.54 334.56 192.73 332.41 196.8C332.03 197.53 331.69 198.13 330.82 197.76C330.17 197.49 330.12 196.78 330.25 196.19C330.41 195.49 330.6 194.73 331.02 194.17C333.59 190.7 335.35 186.96 335.36 182.54C335.36 182.06 335.49 181.56 336.31 181.42ZM337.7 129.42C338.8 133.02 338.17 135.6 336.6 138.04C336.27 138.55 335.84 139.13 335.18 138.79C334.87 138.63 334.57 137.93 334.67 137.61C335.53 135.07 335.62 132.24 337.7 129.42ZM322.92 145.01C324.91 143.73 326.78 143.48 328.73 143.66C329.19 143.7 329.82 143.74 329.8 144.36C329.78 144.75 329.48 145.32 329.14 145.49C327.13 146.49 325.11 146.94 322.92 145.01Z" fill="#F6A879"/>
<path d="M210.331 66.51C206.621 68.79 202.341 69.27 198.231 70.07C189.671 71.72 183.341 76 179.461 83.99C175.431 92.3 171.061 100.45 166.801 108.65C166.031 110.14 157.941 128.55 157.591 129.55C155.011 136.98 151.481 143.83 145.981 149.58C142.781 152.93 138.551 154.6 134.671 156.83C130.251 159.38 125.031 161.48 122.881 166.22C119.341 174.02 114.821 180.63 107.791 185.72C104.811 187.87 105.601 189.35 110.381 192.13C110.901 191.49 111.621 191.37 112.371 191.42C118.041 191.76 122.731 189.47 127.281 186.33C134.061 181.65 139.641 175.7 145.531 170.03C152.921 162.91 158.521 154.52 164.041 146C174.271 130.22 183.731 113.92 195.331 99.07C198.581 94.91 202.101 90.78 207.631 88.99C214.211 86.85 220.961 85.88 227.751 85.68C239.231 85.35 250.711 84.42 262.211 84.79C263.311 84.83 264.421 84.79 265.511 84.65C280.031 82.75 293.521 84.77 304.751 95.08C306.831 96.99 307.551 96.18 308.141 94.05C309.771 88.13 308.101 82.51 306.741 76.81C305.741 72.65 302.231 69.47 302.281 64.95C302.291 64.26 302.301 63.58 302.311 62.89C301.111 62.34 299.941 61.71 298.701 61.25C289.191 57.76 279.211 56.9 269.221 56.1C263.871 55.95 258.551 56.2 253.261 57.06C251.241 57.45 250.931 57.5 249.771 57.72C237.421 60.04 225.391 61.59 213.251 64.75C212.191 65.02 211.201 67.74 210.331 66.51ZM194.291 79.84C194.461 76.44 196.801 75.01 199.361 74.24C205.301 72.46 211.271 70.69 217.331 69.44C230.171 66.8 243.121 64.69 256.041 62.45C267.501 60.46 278.731 59.77 290.001 62.85C293.561 63.82 296.931 65.42 298.861 68.83C299.561 70.06 300.001 71.89 298.511 72.75C297.211 73.5 296.341 72.04 295.731 71.01C294.071 68.24 291.201 67.26 288.441 66.47C284.131 65.24 279.781 64.27 275.191 64.16C261.721 63.85 248.361 64.95 235.311 68.06C221.601 71.32 207.241 72.55 194.291 79.84ZM172.581 111.71C171.071 117.32 168.551 121.65 166.101 125.94C159.391 137.7 154.511 150.74 142.241 158.61C136.441 162.34 130.351 165.97 126.471 172.14C126.571 167.75 129.911 163.93 134.621 161.22C142.351 156.77 149.661 151.98 153.971 143.5C157.791 135.98 161.481 128.38 165.491 120.95C167.211 117.76 168.661 114.33 172.581 111.71ZM173.931 108.55C173.961 103.39 179.831 93.27 182.271 89.84C182.681 89.27 183.311 88.43 184.021 88.87C185.211 89.62 184.321 90.67 183.861 91.4C180.901 96.04 178.841 101.15 176.241 105.98C175.691 107.01 175.391 108.31 173.931 108.55Z" fill="#E8C294"/>
<path d="M77.391 552.24C78.101 549.49 80.761 548.5 82.591 546.91C96.591 534.84 110.751 522.94 124.901 511.04C139.711 498.58 154.571 486.2 169.371 473.73C178.681 465.89 187.911 457.96 197.171 450.07C197.211 448.33 197.091 446.63 196.281 445.04C194.561 443.89 192.791 442.8 191.121 441.57C188.911 439.95 186.491 438.65 183.781 438.46C176.921 437.98 170.121 438.45 163.491 440.47C145.631 445.92 133.221 457.97 124.381 473.81C117.931 485.36 111.581 496.92 102.621 506.72C93.691 516.49 82.421 523.22 70.951 529.52C60.071 535.49 52.331 543.9 48.701 555.88C49.651 555.9 50.611 555.91 51.561 555.93C52.111 555.01 52.951 555.37 53.731 555.45C57.891 553.22 62.511 552.64 67.041 552.48C70.471 552.35 73.921 550.46 77.391 552.24ZM81.611 538.89C81.241 538.52 80.881 538.14 80.511 537.77C81.901 536.64 83.281 535.48 84.691 534.38C94.801 526.52 103.771 517.35 113.531 509.1C118.561 504.85 122.471 499.45 127.181 494.95C140.561 482.15 154.461 469.89 169.861 459.51C173.701 456.92 177.381 454.07 181.591 452.07C182.501 451.64 183.591 451.23 184.281 452.15C185.031 453.16 184.161 453.99 183.411 454.62C179.501 457.9 175.581 461.18 171.631 464.42C163.261 471.29 154.921 478.21 146.471 484.97C140.951 489.39 136.151 494.59 130.541 498.94C125.201 503.08 119.191 506.13 114.541 511.48C107.531 519.55 97.901 524.93 90.431 532.71C87.981 535.24 85.011 537.53 81.611 538.89Z" fill="#E8C294"/>
<path d="M354.391 99.6C353.951 105.35 355.991 110.24 359.581 114.59C360.511 115.72 361.531 116.77 362.501 117.86C363.551 117.91 364.311 118.39 364.731 119.37L364.711 119.35C365.761 119.84 366.331 120.76 366.981 121.66C373.151 130.3 374.591 140.08 373.251 150.25C372.731 154.15 373.351 157.76 374.011 161.41C375.911 171.86 381.991 180.4 387.201 189.31C388.901 192.21 390.751 194.82 394.561 195.11C399.081 195.45 403.141 194.5 407.121 192.16C411.711 189.46 416.141 186.34 421.361 184.82L421.321 184.84C421.591 184.12 422.171 184.03 422.821 184.08L422.781 184.1C423.121 183.84 423.461 183.58 423.801 183.33C424.811 183.37 425.311 182.59 425.891 182C434.941 172.73 444.801 164.22 452.941 154.11C458.981 146.6 463.791 138.21 467.621 129.32C469.021 126.07 470.651 122.86 471.521 119.47C473.251 112.67 469.441 106.44 467.551 100.5C465.631 94.47 462.171 94.82 456.451 98.39C450.551 102.08 446.081 107.31 441.501 112.36C438.351 115.83 437.751 120.5 437.531 125.03C437.331 129.06 437.371 133.11 437.521 137.15C437.661 140.99 437.351 144.67 435.251 148.01C436.601 148.23 437.501 147.53 438.501 146.72C441.401 144.37 442.811 141.23 443.811 137.77C444.071 136.89 443.851 135.07 445.421 135.44C446.731 135.75 446.341 137.2 446.041 138.27C443.711 146.68 439.261 153.6 431.721 158.26C427.771 160.7 424.101 163.46 420.711 166.63C418.831 168.39 416.721 169.91 414.581 171.65C413.901 169.89 415.001 169.35 415.661 168.85C421.431 164.48 426.051 158.9 431.221 153.9C432.931 152.24 434.661 150.47 435.261 148C429.691 151.48 424.751 155.81 419.531 159.75C412.821 164.82 405.841 169.44 398.331 173.31C394.761 175.15 392.801 174.23 390.841 171.11C382.291 157.45 375.821 142.97 372.841 127.06C372.461 125.03 372.021 123 371.781 120.96C370.741 112.07 365.451 106.24 358.151 101.83C356.911 101.05 355.651 100.34 354.391 99.6ZM442.551 125.77C443.651 117.51 446.131 110.23 452.011 104.52C454.321 102.28 457.091 100.7 460.361 100.29C461.541 100.14 463.051 99.91 463.571 101.34C464.041 102.62 462.791 103.23 461.891 103.84C453.011 109.86 447.571 117.89 446.941 128.88C446.851 130.45 446.791 133.29 445.381 133.33C443.161 133.39 443.601 130.7 443.251 129C443.011 127.83 442.741 126.65 442.551 125.77ZM366.141 116.49C364.351 113.47 362.751 110.68 360.271 108.58C360.001 108.35 360.041 107.74 359.941 107.31C360.391 107.22 360.861 106.99 361.281 107.06C364.551 107.6 367.171 112.35 366.141 116.49ZM411.241 173.43C409.841 177.05 407.011 178.46 402.341 178.8C405.151 175.59 408.581 175.14 411.241 173.43Z" fill="#E8C294"/>
<path d="M302.291 62.89C302.281 63.58 302.271 64.26 302.261 64.95C303.961 64.94 304.391 66.42 305.111 67.49C312.841 78.85 315.551 91.54 314.631 105.05C314.401 108.44 313.021 112.01 309.991 113.83C304.631 117.05 298.521 117.37 292.611 115.92C286.511 114.42 281.321 112.56 277.641 107.07C277.211 106.42 275.701 104.85 275.221 104.77C274.961 104.73 275.091 105.68 275.031 106.16C275.191 113.93 278.111 121.1 279.881 128.52C285.491 152.01 283.111 174.43 270.991 195.55C269.781 197.66 268.281 199.6 266.921 201.62C274.391 211.02 284.421 216.85 295.181 221.52C300.361 223.77 305.751 225.53 311.051 227.51C311.551 227.55 312.041 227.6 312.541 227.64C312.831 227.79 313.131 227.95 313.421 228.11C316.801 228.09 320.181 228.07 323.551 228.06C321.111 225.95 318.201 224.58 315.271 223.4C307.381 220.24 300.291 215.68 293.221 211.11C287.791 207.6 287.411 202.34 291.471 197.33C297.951 189.34 302.481 180.46 303.101 169.13C306.781 174.45 309.311 179.78 315.141 182.25C312.451 175.79 309.701 169.34 307.071 162.85C304.821 157.31 302.761 151.69 300.511 146.14C298.561 141.32 299.851 137.31 302.671 133.15C306.201 127.95 311.611 124.55 314.971 119.16C319.431 112.01 321.391 104.62 320.081 96.18C319.511 92.47 319.281 88.72 318.511 84.99C317.351 79.37 315.481 74.22 311.361 70.09C310.731 69.46 310.261 68.77 310.371 67.83L310.381 67.94C307.681 66.25 305.321 64.04 302.291 62.89Z" fill="#C78157"/>
<path d="M275.221 104.75C276.411 105.65 277.21 106.4 277.64 107.05C281.32 112.54 286.511 114.41 292.611 115.9C298.521 117.35 304.631 117.03 309.991 113.81C313.021 111.99 314.401 108.43 314.631 105.03C315.541 91.52 312.841 78.83 305.111 67.47C304.391 66.41 303.96 64.93 302.26 64.93C302.21 69.45 305.721 72.63 306.721 76.79C308.091 82.49 309.76 88.11 308.12 94.03C307.53 96.16 306.81 96.97 304.73 95.06C293.5 84.75 280.01 82.73 265.49 84.63C264.4 84.77 263.291 84.81 262.191 84.77C250.691 84.39 239.211 85.33 227.731 85.66C220.941 85.85 214.18 86.83 207.61 88.97C202.08 90.76 198.57 94.89 195.31 99.05C183.71 113.89 174.25 130.2 164.02 145.98C158.5 154.5 152.901 162.89 145.511 170.01C139.631 175.68 134.051 181.63 127.261 186.31C122.721 189.44 118.021 191.73 112.351 191.4C111.601 191.36 110.88 191.47 110.36 192.11C118.54 196.01 126.501 194.83 133.311 188.67C139.541 183.03 145.93 177.58 152.49 172.31C156.89 168.78 159.561 163.7 162.821 159.17C167.641 152.47 173.28 146.31 177.33 139.13C177.93 138.06 185.54 127.33 186.96 125.25C192.09 116.08 198.22 107.65 205.64 100.17C207.52 98.27 209.671 96.89 212.261 96.64C216.501 96.23 220.76 96.15 225.02 95.93C232 95.89 238.981 95.84 245.951 95.83C246.871 95.83 247.931 95.93 248.851 95.78C256.381 94.51 263.71 94.79 271.33 95.27C272.91 95.37 273.261 96.56 273.721 97.98C274.621 100.68 275.011 104.6 275.221 104.75Z" fill="#C49967"/>
<path d="M298.621 303.9C287.481 306.95 279.291 314.15 271.861 322.59C265.981 329.26 259.821 335.71 254.511 342.84C245.781 354.56 238.721 367.33 231.381 379.95C226.431 388.45 221.471 397.07 214.521 404.19C210.161 408.65 205.001 412.13 199.541 415.16C195.071 417.64 194.441 421.55 197.271 425.82C199.691 429.48 202.951 432.47 205.171 436.32C206.091 437.92 206.971 439.44 207.411 441.22C219.241 433.74 228.061 423.52 235.411 411.67C246.191 394.29 259.131 378.33 269.561 360.71C279.181 344.46 287.411 327.49 295.511 310.45C296.541 308.26 297.581 306.08 298.621 303.9ZM272.911 344.27C272.531 345.48 272.351 346.74 271.771 347.78C269.131 352.46 267.111 357.44 264.691 362.2C258.391 374.6 250.051 385.77 242.511 397.42C240.081 401.17 237.381 404.86 233.871 407.77C233.061 408.44 232.011 409.3 230.891 408.71C229.661 408.06 230.681 407.02 230.791 406.12C231.711 399.13 236.211 393.9 240.121 388.62C247.671 378.43 254.121 367.59 260.771 356.83C263.691 352.1 266.341 347.08 270.561 343.26C271.091 342.78 271.651 342.01 272.401 342.59C272.781 342.88 272.761 343.69 272.911 344.27ZM210.641 426.21C210.771 425.31 211.361 425.2 211.991 425.19C215.211 425.14 217.301 423.16 219.331 421C220.911 419.32 222.581 417.71 224.231 416.1C224.731 415.61 225.321 414.8 226.051 415.32C226.841 415.89 226.661 416.91 226.171 417.64C223.231 422.06 219.731 425.87 214.611 427.79C212.851 428.43 211.611 427.49 210.641 426.21Z" fill="#3D3028"/>
<path d="M355.11 400.18C357.65 398.02 358.74 394.85 360.39 392.13C365.71 383.32 372.42 375.63 379.11 367.93C385.83 360.19 392.75 352.56 400.48 345.85C411.9 335.95 422.07 324.71 433.8 315.16C435.2 314.02 436.64 312.83 437.48 311.14C436.65 309.23 434.57 308.76 433.22 307.46C432.16 307.63 431.3 307.09 430.47 306.6C423.48 302.45 415.98 301.08 407.99 302.42C402.78 303.3 397.63 304.47 393.68 308.33C383.94 317.84 376.96 329.23 371.15 341.45C367.05 350.07 362.93 358.7 358.27 367.02C353.95 374.74 347.54 380.83 341.03 386.79C336.12 391.28 337.4 395.5 343.82 397.49C346.13 398.21 348.73 397.78 350.84 399.26C352.33 399.32 353.56 400.47 355.11 400.18ZM412.89 326.49C408.98 331.72 403.75 335.54 399.12 339.97C392.88 345.95 385.51 350.88 381.15 358.61C375.2 369.15 366.22 377.22 358.79 386.56C358.22 387.27 357.48 388.85 356.25 387.8C355.42 387.09 355.85 385.73 356.32 384.7C356.52 384.25 356.75 383.82 356.99 383.39C361.59 375.27 367.42 367.97 373.92 361.42C383.1 352.17 391.25 341.8 402.2 334.4C405.87 331.9 408.68 328.29 412.89 326.49ZM403.27 310.09C408.12 306.53 417.47 304.86 422.2 306.81C424.61 307.8 427.44 308.85 427.84 311.92C428.21 314.78 425.63 316.31 424.04 318.2C423.57 318.76 422.54 319.46 421.78 318.85C420.9 318.13 421.27 317.07 421.89 316.22C422.82 314.94 423.83 313.72 424.7 312.41C425.48 311.24 425.68 310.31 423.83 309.74C418.34 308.05 412.91 307.69 407.39 309.59C406.2 310.01 404.99 310.94 403.27 310.09ZM393.79 318.11C394.84 315.97 396.03 313.98 399.33 313.38C397.46 315.63 396.11 317.39 393.79 318.11ZM414.09 325.74C414.37 323.9 415.42 323.71 416.73 323.34C416.4 324.87 415.73 325.54 414.09 325.74Z" fill="#E8C294"/>
<path d="M48.7011 555.89C52.3311 543.9 60.0711 535.5 70.9511 529.53C82.4211 523.24 93.6911 516.5 102.621 506.73C111.581 496.93 117.941 485.37 124.381 473.82C133.221 457.99 145.631 445.94 163.491 440.48C170.121 438.45 176.921 437.99 183.781 438.47C186.481 438.66 188.901 439.96 191.121 441.58C192.791 442.8 194.561 443.9 196.281 445.05C196.661 443.6 195.921 442.45 195.281 441.28C190.121 431.74 182.441 424.94 172.641 420.43C171.141 419.74 169.241 419.44 169.231 417.18C159.761 419.66 151.801 424.89 144.101 430.71C134.781 437.76 129.261 447.68 123.631 457.49C117.211 468.65 112.231 480.67 104.491 491.05C94.0011 505.12 81.7511 517.37 66.5511 526.48C62.9911 528.61 58.9311 528.93 55.2111 530.38C55.1711 531.03 54.8911 531.5 54.3011 531.83C49.6911 534.48 47.1111 538.86 44.3811 543.19C41.7811 547.31 41.1911 551.21 44.2511 555.27L44.2111 555.26C45.7211 555.46 47.2111 555.67 48.7011 555.89Z" fill="#C49967"/>
<path d="M360.34 72.34C364.48 70.89 366.9 67.39 366.88 62.14C366.86 57.41 366.48 52.67 366.17 47.94C366.02 45.71 366.46 44.11 368.69 42.87C371.4 41.36 371.56 38.37 368.95 36.7C362.3 32.46 358.35 26.34 355.01 19.38C352.64 14.44 348.59 10.61 343.35 8.37C342.15 8.66 340.95 8.96 339.74 9.25C339.53 9.58 339.28 9.69 338.96 9.39C338.23 9.41 337.5 9.42 336.76 9.44C335.74 10.17 334.76 10.02 333.82 9.28999C333.35 9.29999 332.89 9.32 332.42 9.33C327.84 15.11 327.21 20.78 332.25 26.8C333.83 28.69 333.87 31.47 331.81 33.52C329.67 35.64 327.07 35.4 324.73 34.08C322.29 32.72 320.05 30.99 317.79 29.32C315.36 27.51 314.5 29.07 314.01 31.08C313.68 32.41 314.12 33.72 314.73 34.97C316.34 38.26 319.45 39.84 322.36 41.53C324.77 42.93 326.15 44.56 326.59 47.44C327.17 51.21 328.89 54.58 331.69 57.37C338.85 64.5 347.57 68.57 357.27 70.8C358.49 71.07 359.76 70.95 360.34 72.34ZM362.95 37.96C354.63 32.25 354.06 33.44 347.41 18.55C346.96 17.53 345.57 16.2 346.94 15.34C348.41 14.42 349.32 16.02 349.98 17.15C352.34 21.26 354.73 25.36 356.9 29.58C358.5 32.69 361.11 35.03 362.95 37.96ZM338.42 56.56C335.64 56.12 333.9 54.33 332.71 52.12C332.08 50.94 331.19 49.53 332.07 48C332.43 47.37 332.73 46.61 333.65 46.78C334.37 46.91 334.58 47.53 334.55 48.16C334.33 51.63 336.27 54.07 338.42 56.56ZM361.69 52C360.88 48.16 360.77 44.37 362.21 40.68C362.46 40.04 362.8 39.21 363.78 39.67C364.39 39.96 364.71 40.59 364.41 41.19C362.7 44.6 362.74 48.39 361.69 52ZM350.58 63.37C345.8 62.36 342.31 60.28 341.56 58.19C345.69 59.53 348.23 60.94 350.58 63.37Z" fill="#E8C294"/>
<path d="M339.761 491.32C342.331 488.38 342.571 484.73 342.631 481.12C342.771 472.02 341.531 462.95 341.951 453.84C341.451 453.83 340.951 453.81 340.451 453.8C339.181 454.44 337.971 455.25 336.631 455.68C334.231 456.45 333.981 457.78 335.201 459.73C336.171 459.73 337.131 459.72 338.101 459.74C338.991 459.75 339.861 459.96 340.151 460.9C340.471 461.95 339.541 462.34 338.891 462.85C339.191 465 338.061 465.65 336.121 465.65C333.451 465.64 331.781 464.36 330.931 461.89C328.381 458.69 331.291 453.39 326.311 450.71C328.181 450.87 329.021 450.04 329.451 448.73C329.481 446.5 329.511 444.26 329.541 442.03C328.711 440 328.771 438.19 330.811 436.86C330.581 436.15 329.801 435.43 330.851 434.74C331.701 431.47 330.461 428.04 332.431 424.69C333.931 422.15 334.071 418.49 335.191 415.9C336.261 413.44 338.081 410.85 339.341 408.2C340.511 405.77 341.231 403.51 336.961 403.69C335.291 403.76 333.741 402.69 332.331 401.72C332.141 403.4 333.271 404.37 334.281 405.44C335.691 406.92 335.651 408.41 334.231 409.95C334.161 407.93 333.201 406.92 331.521 405.94C327.731 403.7 326.311 400.03 326.471 395.7C326.511 394.61 326.431 393.27 327.891 393.15C329.171 393.05 329.261 394.23 329.431 395.21C329.511 395.67 329.781 396.09 329.961 396.53C330.031 393.09 330.101 389.65 330.171 386.22C328.191 387.02 327.601 389.09 326.311 390.52C317.971 399.72 313.441 410.33 315.531 422.94C317.111 432.5 315.441 441.84 314.181 451.21C313.331 457.51 312.371 463.86 313.731 470.08C315.431 477.87 318.381 484.92 325.401 490C328.911 492.54 331.821 493.09 335.551 491.91C336.941 491.47 338.241 490.56 339.761 491.32ZM326.771 484.7C328.981 484.7 330.801 484.7 332.611 484.7C334.671 484.7 335.541 483.69 335.141 481.68C334.311 477.55 334.551 473.11 331.611 469.6C331.221 469.13 330.811 468.51 331.531 468.07C331.851 467.87 332.481 467.98 332.891 468.15C338.531 470.57 341.731 479.84 338.661 485.14C337.351 487.4 335.251 488.64 332.541 488.37C330.301 488.14 327.841 488.18 326.771 484.7ZM328.751 424.6C327.991 421.87 330.711 412.85 332.291 411.82C332.561 411.64 333.131 411.48 333.241 411.59C333.521 411.91 333.891 412.5 333.761 412.78C332.081 416.55 331.221 420.7 328.751 424.6ZM329.681 466.34C324.651 463.83 323.061 458.94 325.251 453.92C326.381 458.09 327.511 461.98 329.681 466.34ZM318.541 475.88C318.471 475.38 318.511 474.86 319.091 474.75C319.381 474.69 319.901 474.85 320.011 475.08C321.041 477.03 323.161 478.39 323.171 480.86C323.171 481.02 322.521 481.41 322.341 481.32C320.221 480.28 319.531 478.16 318.621 476.22C318.571 476.12 318.571 475.99 318.541 475.88Z" fill="#B96C3D"/>
<path d="M44.2702 555.26C41.2102 551.2 41.8002 547.3 44.4002 543.18C47.1302 538.85 49.7202 534.47 54.3202 531.82C54.9102 531.48 55.1902 531.02 55.2302 530.37C44.8002 529.13 36.5302 534.38 28.1302 539.31C24.8502 541.24 22.1402 544.37 17.8802 544.3C14.6802 549.92 13.8202 555.91 15.5502 562.12C16.7502 566.42 16.9202 570.92 16.7902 575.16C16.5102 584.41 15.7502 593.65 16.3102 602.92C16.9402 613.29 17.5702 623.68 26.6402 630.95L26.6302 630.94C27.4102 630.97 27.9302 631.42 28.3402 632.04L28.4402 632.11C28.8202 632.46 29.2002 632.8 29.5902 633.15C42.2402 640.03 55.8602 641.51 69.9502 640.42C68.7902 639.38 67.3702 639.8 66.0902 639.84C60.2202 640.04 54.4502 639.26 48.6802 638.34C40.5802 637.06 33.5402 633.76 28.4202 627.27C24.5602 622.39 24.7802 622.22 30.3102 619.91C30.3702 618.49 31.5002 618.05 32.5302 617.89C35.1502 617.49 37.7902 617.18 40.4302 617.03C46.0002 616.7 51.5302 617.12 56.9802 618.38C56.6902 617.65 56.9702 616.68 56.0702 616.21C49.8202 615.36 43.5802 614.51 37.3302 613.71C31.1202 612.91 27.6802 607.4 27.3102 600.24C26.8902 592.04 27.8502 583.9 28.2302 575.74C28.5702 568.36 31.1402 561.4 36.1502 555.68C39.4002 551.97 39.4702 552.04 43.2202 555.06C43.4502 555.27 43.9102 555.2 44.2702 555.26Z" fill="#944D23"/>
<path d="M350.85 399.26C348.74 397.78 346.14 398.21 343.83 397.49C337.41 395.5 336.13 391.28 341.04 386.79C347.56 380.83 353.96 374.74 358.28 367.02C362.94 358.7 367.06 350.07 371.16 341.45C376.97 329.23 383.95 317.84 393.69 308.33C397.64 304.47 402.79 303.3 408 302.42C415.99 301.07 423.49 302.45 430.48 306.6C431.3 307.09 432.17 307.64 433.23 307.46C432.4 304.73 429.69 303.85 427.88 302.12C421.59 296.14 414.38 291.83 405.61 290.43C404.19 290.2 402.32 290.31 401.43 288.57C388.84 294.55 380.05 304.3 373.51 316.4C367.09 328.28 361.34 340.5 355.51 352.67C350.49 363.16 343.63 372.16 334.55 379.44C332.54 384.76 330.66 390.04 331.59 395.96C332.22 399.99 335 402.43 339 401.8C339.95 401.65 340.94 401.72 341.91 401.69C344.7 400.2 348.1 400.9 350.85 399.26Z" fill="#C49967"/>
<path d="M425.061 182.86C419.841 184.38 411.721 188.47 407.131 191.16C403.151 193.5 399.091 195.45 394.571 195.11C390.761 194.82 388.911 192.21 387.211 189.31C381.991 180.39 375.921 171.85 374.021 161.41C373.361 157.76 372.741 154.15 373.261 150.25C374.611 140.07 373.161 130.3 366.991 121.66C366.341 120.76 365.771 119.84 364.721 119.35C364.491 122.19 366.921 123.81 367.881 126.14C372.851 138.17 370.861 148.9 362.541 158.68C361.681 159.69 361.041 160.88 360.301 161.98C357.741 164.75 355.541 167.8 353.521 170.98C359.571 182.65 365.481 194.39 371.721 205.96C374.801 211.67 381.991 213.44 388.551 210.58C396.671 207.04 403.601 201.64 410.361 196.06C413.831 193.19 417.041 190 420.311 186.89C420.841 186.38 424.051 183.71 425.061 182.86Z" fill="#C49967"/>
<path d="M179.27 136.29C178.39 137.47 177.79 138.17 177.35 139.15C199.36 150.25 221.55 141.47 234.69 120.75C239.66 112.92 245.13 104.18 249.16 95.76C248.55 95.86 246.9 95.86 245.98 95.86C239 95.87 232.02 95.92 225.05 95.96C222.53 97.05 220.79 98.96 219.09 101.08C213.51 108.07 208.32 115.51 200.34 120.11C196.18 122.51 192.19 125.52 186.98 125.27C185.56 127.34 183.53 130.44 181.58 132.99C183.28 133.07 186.57 131.96 188.29 131.53C197.37 129.25 204.23 123.56 210.66 117.17C211.52 116.32 212.06 114.85 213.85 115.08C210.79 121.96 206.1 127.34 200.29 131.61C194.13 136.12 186.88 137.75 179.27 136.29Z" fill="#472D0F"/>
<path d="M208.02 67.69C209.8 67.61 212.19 67.02 213.23 66.75C225.37 63.59 237.4 60.03 249.75 57.72C250.91 57.5 252.23 57.26 253.24 57.06C252.68 56.71 252.24 56.26 252.6 55.58C255.37 50.34 257.23 44.56 261.78 40.36C266.68 35.83 271.58 31.28 271.28 23.73C271.12 19.77 274.97 16.83 274.27 12.69C257.37 14.67 242.63 20.89 231.14 33.97C223.72 42.42 218.35 52.08 213.27 61.98C212.45 63.57 209.52 66.9 208.02 67.69ZM220.61 59.84C219.73 58.48 220.22 57.84 220.47 57.17C225.84 42.54 235.36 31.31 248.54 23.16C250.27 22.09 252.35 21.54 254.33 20.95C255.21 20.69 256.53 20.64 256.84 21.81C257.12 22.87 255.9 23.13 255.17 23.41C251.27 24.91 247.77 27.18 244.28 29.38C237.37 33.74 233.01 40.43 228.81 47.18C226.2 51.37 223.86 55.73 220.61 59.84ZM232.29 47.74C232.63 44.03 234.81 41.48 236.85 38.87C238.18 37.17 239.43 35.33 241.51 34.43C241.89 34.26 242.49 34.25 242.85 34.44C243.4 34.73 243.18 35.3 242.85 35.67C239.35 39.7 235.82 43.72 232.29 47.74ZM224.65 61.32C224.67 57.58 228.17 51.68 231.4 50.46C228.6 54.12 227.65 58.03 224.65 61.32Z" fill="#583711"/>
<path d="M26.641 630.96C17.571 623.69 16.941 613.3 16.311 602.93C15.751 593.66 16.511 584.42 16.791 575.17C16.921 570.93 16.751 566.43 15.551 562.13C13.811 555.92 14.671 549.93 17.881 544.31C5.331 540.02 -3.119 557.5 1.281 567.85C2.381 570.43 3.22101 573.13 4.48101 575.62C6.02101 578.68 4.70101 581.71 4.35101 584.56C2.90101 596.36 3.79103 607.88 7.12103 619.24C8.21103 622.97 9.70103 626.59 10.811 630.31C13.641 639.73 21.511 641.88 29.711 643.51C39.271 645.41 49.011 645.62 58.681 646.5C61.581 646.76 64.441 647.36 67.401 647.24C73.621 647 75.301 645.29 75.081 639C74.581 639.22 74.081 639.43 73.581 639.65C73.921 642.2 73.641 644.43 70.411 644.65C68.751 644.76 67.081 644.58 65.411 644.54C53.851 644.22 42.421 642.69 31.091 640.49C26.251 639.55 21.201 637.96 18.771 633.4C13.821 624.11 10.471 614.19 9.75097 603.56C9.63097 601.73 9.07099 598.61 11.151 598.53C13.351 598.44 13.391 601.59 13.321 603.55C13.131 608.88 14.201 614.06 15.791 618.99C17.511 624.37 19.871 629.83 26.641 630.96Z" fill="#D6D5D4"/>
<path d="M360.341 72.34C359.761 70.94 358.481 71.07 357.281 70.79C347.591 68.56 338.861 64.49 331.701 57.36C328.891 54.57 327.171 51.2 326.601 47.43C326.161 44.54 324.781 42.92 322.371 41.52C319.461 39.83 316.341 38.25 314.741 34.96C314.131 33.71 313.691 32.4 314.021 31.07C314.511 29.06 315.361 27.51 317.801 29.31C320.051 30.98 322.301 32.71 324.741 34.07C327.091 35.38 329.681 35.63 331.821 33.51C333.891 31.46 333.841 28.68 332.261 26.79C327.221 20.77 327.851 15.1 332.431 9.32C331.951 9.24 331.451 9.21 330.991 9.06C327.761 8.02 324.991 8.48999 322.961 11.43C320.841 14.51 320.861 17.4 323.281 20.46C324.881 22.5 326.801 24.2 328.451 26.15C330.071 28.07 330.211 30.38 328.171 31.97C326.111 33.57 324.441 32.71 323.401 30.27C322.891 29.08 321.961 27.95 320.961 27.09C319.021 25.41 317.001 23.77 314.071 24.89C311.131 26.01 309.971 28.13 310.211 31.16C312.071 37.02 315.451 41.53 321.481 43.62C323.031 44.16 323.721 44.98 322.811 46.6C322.261 47.57 322.261 48.69 322.031 49.74C320.891 54.85 319.471 59.76 315.381 63.61C314.131 64.79 311.721 65.36 311.761 67.77C311.951 68.34 311.971 69.09 312.351 69.45C319.961 76.52 322.451 86.24 325.711 95.5C328.591 103.66 332.361 111.21 338.721 117.23C342.091 120.42 346.251 121.17 349.941 119.43C344.861 117.78 340.871 114.6 338.071 110.16C332.471 101.26 328.641 91.43 323.731 82.16C322.651 80.13 321.891 77.91 321.201 75.7C319.641 70.79 322.211 67.89 327.281 68.5C333.031 69.19 337.841 72.07 343.271 73.84C344.471 74.23 346.481 73.67 347.091 75.17C347.561 75.11 349.021 74.67 349.291 74.98C353.101 74.65 356.801 73.81 360.341 72.34Z" fill="#C49967"/>
<path d="M311.761 67.78C311.721 65.36 314.131 64.79 315.381 63.62C319.471 59.76 320.891 54.86 322.031 49.75C322.261 48.69 322.261 47.58 322.811 46.61C323.721 45 323.031 44.17 321.481 43.63C315.451 41.54 312.081 37.04 310.211 31.17C307.611 30.21 304.971 29.36 302.431 28.28C296.391 25.7 294.791 23.13 295.721 17.54C295.961 16.12 296.551 14.75 296.271 13.26C294.751 13.46 294.531 15.12 293.431 15.79C293.851 18.55 291.951 20.61 291.141 22.98C289.041 29.15 290.131 35.51 289.561 41.76C289.781 43.74 290.801 45.36 291.921 46.91C296.581 53.33 302.801 58.27 308.221 63.97C309.301 65.11 310.611 66.08 310.381 67.92L310.371 67.81C310.831 67.8 311.291 67.79 311.761 67.78Z" fill="#472D0F"/>
<path d="M44.2705 555.26C43.9105 555.21 43.4505 555.28 43.2105 555.08C39.4605 552.06 39.4005 551.99 36.1405 555.7C31.1305 561.42 28.5606 568.38 28.2206 575.76C27.8406 583.91 26.8805 592.06 27.3005 600.26C27.6705 607.41 31.1206 612.93 37.3206 613.73C43.5706 614.53 49.8205 615.39 56.0605 616.23C55.1005 611.37 54.1005 606.51 53.7505 601.56C53.5205 601.33 53.2906 601.09 53.0706 600.86L53.0605 600.85C50.4805 601.6 47.9106 602.17 45.3506 600.73C44.5506 600.28 43.3205 600.12 43.7105 601.44C44.4205 603.83 44.4205 606.96 47.9905 607.35C48.0805 606.47 46.6505 605.42 47.8605 604.83C49.0605 604.24 50.4905 605.04 51.4905 605.75C52.7705 606.67 51.0506 607.27 50.8806 608.09C50.4706 610.56 47.9306 611.34 45.3506 609.67C42.4206 607.78 41.1006 604.9 40.6906 601.53C40.2706 599.22 41.5306 596.29 38.2906 595.01C36.7206 596.14 38.6906 598.68 36.4106 599.67C35.1506 597.76 35.0405 595.75 35.8105 593.8C36.3205 592.5 37.5106 593.7 38.3806 593.52C39.2906 593.5 41.1205 594.36 40.4905 592.44C38.9305 587.65 43.3905 583.15 40.8905 578.4C40.5305 577.71 41.5205 577.62 41.9005 577.24C44.3205 574.81 44.4306 571.42 42.2206 569.88C39.3906 574.28 38.4705 579.39 37.1205 584.57C35.6905 583.34 36.0605 582.01 36.2405 580.96C37.4905 573.59 40.7305 566.9 43.5505 560.06C43.8105 559.44 44.1605 558.99 44.9005 559.19C45.6305 559.39 45.6206 560.05 45.7206 560.65C46.2406 563.65 44.8006 566.08 43.5106 568.57C45.2906 569.75 45.3005 568.22 45.8105 567.18C46.5105 565.75 46.5305 563.77 48.6205 563.34L48.6405 563.38C48.5805 562.53 48.5405 561.69 49.3905 561.16L49.3705 561.18C50.6005 559.04 49.3505 557.93 47.6205 557.09C46.4705 556.53 45.0306 556.54 44.2606 555.28C44.2306 555.25 44.2705 555.26 44.2705 555.26Z" fill="#B96C3D"/>
<path d="M339.761 491.32C338.241 490.56 336.941 491.47 335.581 491.9C331.851 493.08 328.941 492.53 325.431 489.99C318.411 484.9 315.461 477.85 313.761 470.07C312.401 463.84 313.361 457.5 314.211 451.2C315.471 441.83 317.141 432.49 315.561 422.93C313.471 410.32 318.001 399.71 326.341 390.51C327.631 389.08 328.221 387.01 330.201 386.21C330.581 385.74 330.991 385.3 331.321 384.81C331.841 384.05 332.961 383.15 331.971 382.31C330.911 381.42 330.291 382.83 329.691 383.44C327.201 385.95 324.711 388.46 322.401 391.13C321.441 392.23 320.581 393.07 319.051 392.77L319.141 392.71C318.801 392.97 318.461 393.24 318.121 393.5C315.791 395.01 313.471 396.52 311.141 398.03C309.441 400.21 307.161 401.94 306.501 404.9C305.311 410.28 304.481 415.7 305.581 421.13C307.511 430.66 309.951 440.18 308.751 449.97C307.661 458.82 309.091 467.35 310.871 475.91C311.391 477.14 311.931 478.36 312.411 479.6C316.641 490.44 325.591 495.48 336.771 493.31C337.231 492.59 337.781 492.85 338.341 493.16C339.111 492.77 339.701 492.25 339.761 491.32Z" fill="#944D23"/>
<path d="M310.851 475.89C309.071 467.33 307.651 458.81 308.731 449.95C309.931 440.15 307.491 430.64 305.561 421.11C304.461 415.68 305.291 410.26 306.481 404.88C307.141 401.92 309.421 400.19 311.121 398.01C301.431 396.08 292.881 407.33 293.301 415.11C293.531 419.44 294.171 423.45 295.881 427.49C299.601 436.26 301.501 445.46 302.361 455.03C303.571 468.56 308.031 481.2 316.151 492.26C319.121 496.3 323.581 498.57 328.371 499.89C332.001 500.89 336.931 497.41 338.331 493.14C337.771 492.83 337.221 492.57 336.761 493.29C333.271 498.4 330.571 499.33 325.941 497.26C314.131 491.98 310.521 481.16 307.381 470C307.201 469.74 307.011 469.47 306.841 469.2C306.841 469.19 307.021 469.08 307.111 469.01C307.201 469.34 307.281 469.68 307.371 470.01C309.291 471.53 308.651 474.55 310.851 475.89Z" fill="#D6D5D4"/>
<path d="M296.261 13.26C296.551 14.75 295.951 16.11 295.711 17.54C294.781 23.12 296.381 25.7 302.421 28.28C304.961 29.36 307.601 30.22 310.201 31.17C309.951 28.14 311.121 26.02 314.061 24.9C316.991 23.78 319.011 25.42 320.951 27.1C321.951 27.96 322.871 29.08 323.391 30.28C324.441 32.72 326.111 33.58 328.161 31.98C330.201 30.4 330.061 28.08 328.441 26.16C326.791 24.21 324.881 22.5 323.271 20.47C320.861 17.41 320.831 14.51 322.951 11.44C324.981 8.50001 327.751 8.02001 330.981 9.07001C331.441 9.22001 331.941 9.25001 332.421 9.33001C332.891 9.32001 333.351 9.3 333.821 9.29C334.801 9.34 335.781 9.39001 336.761 9.44001C337.491 9.42001 338.221 9.41001 338.961 9.39001C339.221 9.34001 339.481 9.30001 339.741 9.25001C340.941 8.96001 342.141 8.66 343.351 8.37C340.951 4.3 336.561 3.75001 332.661 2.50001C318.141 -2.16999 306.791 4.21 296.261 13.26ZM312.341 11.48C313.021 12.59 313.991 12.65 314.951 12.82C315.921 13 317.251 13.6 316.301 14.53C315.571 15.24 314.021 17.26 313.131 16.01C311.151 13.23 309.001 14.31 306.711 14.83C305.991 14.99 305.181 15.09 304.751 14.35C304.291 13.56 304.511 12.75 305.001 11.96C307.331 8.11001 315.721 5.69 319.781 7.7C320.341 7.98 320.991 8.24001 321.021 8.88001C321.071 9.89001 320.101 9.89 319.461 10.04C317.111 10.55 314.771 10.99 312.341 11.48Z" fill="#583711"/>
<path d="M274.26 12.68C274.96 16.82 271.12 19.76 271.27 23.72C271.57 31.27 266.67 35.82 261.77 40.35C257.23 44.55 255.36 50.32 252.59 55.57C252.23 56.25 252.68 56.7 253.23 57.05C258.52 56.19 263.84 55.94 269.19 56.09C269.78 54.79 270.34 53.48 270.97 52.2C273.77 46.54 277.44 41.78 283.81 39.83C283.73 38.99 283.81 38.11 283.56 37.33C280.89 29.08 282.74 21.67 287.61 14.8C283.32 13.16 279.01 11.55 274.26 12.68Z" fill="#472D0F"/>
<path d="M349.29 75C348.05 74.53 344.92 73.64 343.73 73.24C338.31 71.47 333.03 69.2 327.28 68.51C322.21 67.9 319.65 70.8 321.2 75.71C321.9 77.91 322.66 80.13 323.73 82.17C328.64 91.44 332.47 101.27 338.07 110.17C340.86 114.61 344.86 117.79 349.94 119.44C353.06 118.25 353.94 115.28 352.49 111.14C350.83 106.4 348.11 102.17 346.02 97.64C345.48 96.46 343.94 95.41 344.87 93.75C342.18 91.61 338.93 90.15 338.01 86.21C336.55 79.93 338.15 76.19 344.46 75.46C345.28 75.35 348.5 75.02 349.29 75ZM347.98 112.42C346.7 112.07 346.53 111.51 346.32 110.91C344.89 106.87 342.91 103.2 339.93 100.01C335.91 95.71 332.77 90.82 331.32 84.99C330.74 82.68 330.54 80.43 331.64 78.24C332.03 77.48 332.51 76.64 333.59 77.14C334.37 77.5 334.45 78.2 334.2 79C333.64 80.8 333.86 82.54 334.28 84.38C335.71 90.55 339.65 95.16 343.41 99.95C346.16 103.44 348.48 107.22 347.98 112.42Z" fill="#E8C294"/>
<path d="M311.05 227.49C305.75 225.51 300.36 223.76 295.18 221.5C284.42 216.82 274.39 211 266.92 201.6C263.98 204.54 261.04 207.49 258.11 210.43C262.5 216.88 269.21 220.51 275.47 224.66C277.09 225.74 278.95 226.48 280.53 227.61C286.78 232.08 293.39 232.52 300.58 230.18C303.64 229.19 306.99 228.78 310.3 228.93C310.87 228.62 311.06 228.1 311.05 227.49Z" fill="#4D3E34"/>
<path d="M73.5605 639.63C74.0605 639.41 74.5605 639.2 75.0605 638.98C74.4605 635.59 72.5806 632.96 70.1606 630.62C67.1106 627.66 64.1105 624.64 61.0905 621.64C60.7305 622.08 60.2505 622.16 59.8005 621.91C50.2805 616.61 40.2405 619.01 30.3005 619.93C24.7705 622.23 24.5506 622.41 28.4106 627.29C33.5306 633.77 40.5806 637.07 48.6706 638.36C54.4506 639.28 60.2105 640.06 66.0805 639.86C67.3705 639.82 68.7906 639.4 69.9406 640.44C71.1506 640.16 72.3505 639.9 73.5605 639.63ZM43.7705 621.05C52.3405 620.29 59.0605 624.36 65.4905 629.14C66.3505 629.78 67.0805 630.68 67.6505 631.59C68.4305 632.84 69.1505 634.31 67.7705 635.58C66.5705 636.68 65.1705 636.13 64.0605 635.35C62.2705 634.1 60.5306 632.76 58.9106 631.3C54.5006 627.34 49.5606 624.91 43.4406 625.04C41.3406 625.08 37.7005 626.18 37.5905 623.46C37.5105 621.55 41.5705 621.51 43.7705 621.05ZM46.7805 634.03C41.9005 633.81 38.0505 631.4 34.3705 628.62C33.8805 628.25 33.2706 627.84 33.5706 627.17C33.8606 626.5 34.6305 626.49 35.1205 626.89C38.6705 629.81 43.1605 631.18 46.7805 634.03Z" fill="#B96C3D"/>
<path d="M401.421 288.58C402.301 290.31 404.171 290.21 405.601 290.44C414.371 291.84 421.591 296.15 427.871 302.13C429.691 303.86 432.401 304.75 433.221 307.47C434.571 308.78 436.651 309.25 437.481 311.15C440.091 310.22 441.741 308.13 443.511 306.17C437.121 295.72 428.021 288.79 416.341 285.23C413.821 284.46 411.141 284.15 408.921 282.55C407.631 286.06 404.351 287.11 401.421 288.58Z" fill="#4D3E34"/>
<path d="M169.241 417.17C169.251 419.43 171.151 419.73 172.651 420.42C182.451 424.93 190.131 431.73 195.291 441.27C195.921 442.44 196.671 443.6 196.291 445.04C197.101 446.63 197.221 448.33 197.181 450.07C200.081 447.41 203.391 445.2 205.971 442.19C201.221 430.93 192.321 423.55 182.431 417.11C181.001 416.18 179.451 415.41 180.151 413.26C176.511 414.56 172.881 415.87 169.241 417.17Z" fill="#4D3E34"/>
<path d="M77.3909 552.24C73.9209 550.46 70.4709 552.35 67.0409 552.47C62.5109 552.63 57.8909 553.22 53.7309 555.44C55.9409 558.73 55.5709 561.91 53.6609 565.25C52.4209 567.42 50.9109 569.56 50.7509 572.22C52.3409 573.4 54.2809 573.59 56.0809 574.18C56.1709 573.09 55.5909 571.05 57.5109 571.71C60.5409 572.75 61.0009 570.77 62.0309 568.96C63.0409 567.17 64.3709 565.56 65.4309 563.79C66.2909 562.36 68.4409 561.09 67.9509 559.66C67.4309 558.12 65.1409 559.18 63.6509 558.98C62.6309 558.84 61.6509 558.7 61.3509 557.57C60.9909 556.2 61.9609 555.63 63.0009 555.11C65.6609 553.8 70.5609 554.36 71.8809 556.28C73.9009 559.24 71.4209 561.25 70.1309 563.44C69.7109 564.15 69.0209 564.79 68.3109 565.21C65.7709 566.68 64.0709 568.83 62.9609 571.49C62.1909 573.33 60.9709 574.53 58.8309 574.5C60.8709 575.93 62.8709 574.69 64.8809 574.39C70.6609 569.71 74.8209 563.59 79.2809 557.77C81.3409 555.08 80.4509 553.11 77.3909 552.24Z" fill="#B96C3D"/>
<path d="M56.0807 574.19C54.2807 573.6 52.3307 573.41 50.7507 572.23C45.8607 570.42 45.8707 570.43 47.8507 565.68C48.1707 564.92 48.3507 564.1 48.5907 563.31C46.5007 563.74 46.4807 565.73 45.7807 567.15C45.2707 568.19 45.2607 569.72 43.4807 568.54C42.7907 568.72 42.4307 569.23 42.1907 569.85C44.3907 571.39 44.2907 574.78 41.8707 577.21C41.4907 577.59 40.5007 577.68 40.8607 578.37C43.3607 583.12 38.9007 587.63 40.4607 592.41C41.0907 594.33 39.2507 593.47 38.3507 593.49C38.3207 593.99 38.3007 594.49 38.2707 594.98C41.5107 596.26 40.2507 599.19 40.6707 601.5C42.0907 601.43 41.9807 600.36 42.0507 599.4C42.1107 598.57 42.4907 597.82 43.3907 598.3C46.4307 599.91 50.2107 598.57 53.0507 600.83L53.0607 600.84C53.3707 600.87 53.6807 600.89 53.9807 600.92C54.8607 600.3 54.4607 599.45 54.3907 598.66C52.9407 598.27 51.4907 597.88 50.0407 597.49C48.6007 597.24 47.1707 596.99 45.7307 596.74C44.6507 597.45 43.4807 596.81 43.3607 596.04C43.1507 594.69 43.5007 593.21 43.8107 591.83C43.9207 591.33 44.7007 591.47 45.0307 591.82C46.4007 593.31 48.6607 592.97 50.0807 594.32C50.5607 594.33 51.0407 594.33 51.5207 594.34C52.7007 594.08 53.8807 593.82 55.0607 593.56C55.1207 592.02 56.3307 590.71 55.9207 589.09C55.1907 589.42 54.4707 589.76 53.7407 590.09C51.4807 589.54 48.8307 590.66 46.9607 588.48C44.9907 587.82 45.6307 586.5 46.1407 585.22C46.6807 583.87 47.5907 583.9 48.8207 584.33C51.6107 585.31 54.5407 585.47 57.4707 585.46C58.3407 584.63 58.8907 583.61 59.2207 582.46C58.5907 582.39 57.9707 582.32 57.3407 582.25C55.3607 582.71 53.4607 582.47 51.6307 581.6C49.9407 581.82 48.4707 581.32 47.1707 580.25C46.3807 579.98 45.4507 579.88 44.8207 579.4C42.2107 577.41 44.8807 575.51 45.1307 573.6C45.3107 572.23 46.4707 572.2 47.6807 572.8C51.5907 574.76 55.8307 575.7 60.0707 576.55C61.2007 576.78 61.8407 577.17 61.9407 578.31C62.8707 576.97 65.1207 576.61 64.8507 574.38C62.8407 574.67 60.8407 575.92 58.8007 574.49C58.5907 574.46 58.3907 574.42 58.1807 574.36C57.9207 574.32 57.6707 574.27 57.4107 574.23C56.9807 574.23 56.5307 574.21 56.0807 574.19Z" fill="#7A3F1A"/>
<path d="M350.85 399.26C348.1 400.9 344.7 400.2 341.91 401.7C342.15 402.66 342.39 403.63 342.64 404.59C344.11 409.45 343.95 414.14 341.18 418.56C342.44 420.53 344.55 420.24 346.43 420.56C346.79 416.23 349.47 412.31 348.61 407.73C348.43 406.75 347.87 404.88 349.74 404.83C351.61 404.78 351.27 406.56 351.52 407.86C352.47 412.78 349.03 416.35 347.73 420.58C349.08 421.12 350.21 420.1 351.47 420.03C354.27 413.71 357.3 407.43 355.11 400.2C353.56 400.47 352.33 399.32 350.85 399.26Z" fill="#B96C3D"/>
<path d="M287.63 14.8C282.76 21.68 280.91 29.09 283.58 37.33C283.83 38.11 283.76 39 283.83 39.83C285.98 39.76 287.84 40.55 289.56 41.75C290.13 35.5 289.04 29.13 291.14 22.97C291.95 20.6 293.85 18.54 293.43 15.78C291.66 14.45 289.8 13.73 287.63 14.8Z" fill="#4D3E34"/>
<path d="M351.47 420.01C350.21 420.09 349.08 421.1 347.73 420.57C347.3 420.57 346.86 420.56 346.43 420.55C344.55 420.24 342.43 420.52 341.18 418.55C339.68 417.92 337.05 418.13 338.06 415.37C339.39 411.7 341.1 408.17 342.64 404.58C342.4 403.62 342.16 402.65 341.91 401.69C340.94 401.72 339.95 401.65 339 401.8C335 402.44 332.23 400 331.59 395.96C330.66 390.04 332.54 384.76 334.55 379.44C331.79 379.42 329.79 380.96 328.04 382.81C324.97 386.06 322.03 389.42 319.03 392.74C320.57 393.04 321.42 392.2 322.38 391.1C324.7 388.44 327.19 385.92 329.67 383.41C330.27 382.8 330.9 381.4 331.95 382.28C332.95 383.12 331.83 384.01 331.3 384.78C330.96 385.27 330.55 385.72 330.18 386.18C330.11 389.62 330.04 393.06 329.97 396.49C330.26 397.49 330.55 398.49 330.84 399.49C331.49 399.74 331.6 400.29 331.61 400.89C331.85 401.15 332.09 401.41 332.33 401.67C333.75 402.64 335.29 403.71 336.96 403.64C341.24 403.46 340.51 405.72 339.34 408.15C338.07 410.8 336.25 413.39 335.19 415.85C334.07 418.44 333.92 422.1 332.43 424.64C330.46 427.99 331.69 431.42 330.85 434.69C332.75 434.56 332.14 433.01 332.47 431.94C332.76 430.98 332.93 429.44 334.56 430.32C338.1 432.23 341.94 431.61 345.69 431.82C346.13 431.8 346.57 431.77 347.02 431.75C347.58 431.11 348.01 430.43 347.78 429.52C347.31 429.53 346.83 429.55 346.36 429.56C345.03 430.72 343.45 430.16 341.96 430.17C340.68 430.18 339.31 430.72 338.21 429.57C333.07 428.63 333.07 428.63 334.61 423.98C335.07 422.59 335.58 421.22 336.02 419.82C336.33 418.81 337.08 418.15 337.88 418.84C341.56 421.97 346.23 421.83 350.54 422.91C351.37 422.14 351.74 421.18 351.47 420.01Z" fill="#7A3F1A"/>
<path d="M353.521 170.97C355.541 167.79 357.731 164.74 360.301 161.97C356.051 163.03 351.981 164.62 348.381 167.09C344.461 169.77 343.251 174 342.651 178.47C342.201 181.82 341.691 185.17 341.201 188.52C344.661 183.39 348.101 178.24 351.591 173.13C352.121 172.34 352.871 171.69 353.521 170.97Z" fill="#C78157"/>
<path d="M160.71 122.32C162.24 119.27 163.93 115.32 165.03 112.54C157.64 112.29 150.12 115.14 144.21 119.38C149.54 120.46 155.45 120.79 160.71 122.32Z" fill="#583711"/>
<path d="M160.711 122.32C155.461 120.79 149.551 120.46 144.211 119.38C142.001 120.78 139.641 121.99 137.001 124.87C144.711 123.24 152.321 124.13 158.481 127.46C159.011 125.76 159.931 124.09 160.711 122.32Z" fill="#472D0F"/>
<path d="M350.521 422.94C346.221 421.87 341.551 422 337.861 418.87C337.051 418.18 336.311 418.84 336.001 419.85C335.571 421.25 335.06 422.62 334.59 424.01C333.04 428.67 333.051 428.67 338.191 429.6C338.561 428.19 338.861 426.76 339.311 425.38C339.621 424.44 340.16 423.41 341.4 423.92C344.33 425.13 347.15 424.01 350.01 423.72C350.18 423.46 350.351 423.2 350.521 422.94Z" fill="#944D23"/>
<path d="M61.9707 578.33C61.8707 577.18 61.2307 576.79 60.1007 576.57C55.8507 575.72 51.6207 574.78 47.7107 572.82C46.5107 572.22 45.3407 572.25 45.1607 573.62C44.9107 575.53 42.2407 577.43 44.8507 579.42C45.4807 579.9 46.4107 580 47.2007 580.27C48.1507 579.04 47.7407 576.2 50.1007 576.75C53.8107 577.61 57.7507 577.7 61.1707 579.66C61.8307 579.45 61.9707 578.93 61.9707 578.33Z" fill="#944D23"/>
<path d="M347.011 431.78C346.571 431.8 346.131 431.83 345.681 431.85C344.971 434.16 342.971 434.21 341.261 433.92C337.781 433.33 336.501 434.99 336.271 438.08C336.191 439.16 336.141 440.23 336.081 441.31C337.301 441.29 338.521 441.28 339.741 441.26C339.381 440.49 338.091 440.61 338.061 439.23C339.621 439.61 341.391 437.21 342.711 439.91C343.331 439.91 343.941 439.9 344.561 439.9C345.721 437.3 346.501 434.58 347.011 431.78Z" fill="#B96C3D"/>
<path d="M30.2911 619.93C40.2311 619.01 50.2611 616.61 59.7911 621.91C60.2511 622.16 60.7211 622.08 61.0811 621.64C59.7111 620.56 58.3411 619.48 56.9711 618.39C51.5211 617.13 45.9911 616.71 40.4211 617.04C37.7811 617.2 35.1311 617.5 32.5211 617.9C31.4811 618.07 30.3511 618.51 30.2911 619.93Z" fill="#7A3F1A"/>
<path d="M350.011 423.72C347.151 424.01 344.331 425.12 341.401 423.92C340.161 423.41 339.621 424.44 339.311 425.38C338.861 426.76 338.551 428.19 338.191 429.6C339.291 430.75 340.661 430.2 341.941 430.2C341.561 429.76 340.761 429.05 340.851 428.91C341.831 427.39 343.641 428.07 345.041 427.6C346.361 427.16 346.241 428.67 346.341 429.59C346.811 429.58 347.291 429.56 347.761 429.55C348.891 427.75 349.601 425.8 350.011 423.72Z" fill="#B96C3D"/>
<path d="M329.451 448.72C329.011 450.03 328.171 450.86 326.311 450.7C331.291 453.38 328.381 458.68 330.931 461.88C332.341 460.43 331.271 458.95 331.051 457.44C330.891 456.35 330.391 454.19 331.671 454.33C334.691 454.66 337.481 452.81 340.441 453.8C340.941 453.81 341.441 453.83 341.941 453.84C342.691 452.2 342.881 450.49 342.581 448.72C342.111 448.95 341.631 449.19 341.161 449.42C340.921 451.57 339.341 451.99 337.591 452.18C336.831 452.28 336.061 452.39 335.301 452.49C331.521 454.08 330.791 450.93 329.451 448.72Z" fill="#7A3F1A"/>
<path d="M61.1709 579.65C57.7509 577.69 53.8009 577.6 50.1009 576.74C47.7309 576.19 48.1409 579.03 47.2009 580.26C48.5009 581.33 49.9709 581.83 51.6609 581.61C51.5209 580.34 51.8709 579.41 53.3509 579.56C55.1409 579.74 57.0009 579.91 57.3709 582.26C58.0009 582.33 58.6209 582.4 59.2509 582.47C60.3309 581.84 60.7509 580.74 61.1709 579.65Z" fill="#B96C3D"/>
<path d="M341.17 449.42C341.64 449.19 342.12 448.95 342.59 448.72C343.25 447.07 343.63 445.37 343.44 443.57C342.94 443.56 342.43 443.55 341.93 443.53C341.74 445.26 340.39 445.51 339.07 445.72C334.2 446.48 333.56 447.62 335.31 452.48C336.07 452.38 336.84 452.27 337.6 452.17C336.86 448.93 337.58 448.38 341.17 449.42Z" fill="#B96C3D"/>
<path d="M53.761 590.09C54.491 589.76 55.211 589.42 55.941 589.09C56.941 588.09 57.331 586.82 57.501 585.46C54.561 585.47 51.641 585.31 48.851 584.33C47.621 583.9 46.711 583.87 46.171 585.22C45.661 586.5 45.021 587.82 46.991 588.48C50.891 586.74 53.111 587.27 53.761 590.09Z" fill="#B96C3D"/>
<path d="M341.921 443.54C342.421 443.55 342.931 443.56 343.431 443.58C344.481 442.56 344.071 441.1 344.551 439.91C343.931 439.91 343.321 439.92 342.701 439.92C342.341 441.74 340.891 441.2 339.731 441.27C338.511 441.29 337.291 441.3 336.071 441.32C333.041 441.34 331.701 439.36 330.811 436.85C328.771 438.18 328.711 439.99 329.541 442.02C333.661 442.66 337.881 442.35 341.921 443.54Z" fill="#7A3F1A"/>
<path d="M50.0503 597.5C51.5003 597.89 52.9503 598.28 54.4003 598.67C54.6203 596.97 54.8503 595.27 55.0703 593.57C53.8903 593.83 52.7103 594.09 51.5303 594.35C51.9503 595.82 50.5403 596.44 50.0503 597.5Z" fill="#B96C3D"/>
<path d="M423.801 183.33C423.461 183.59 423.121 183.85 422.781 184.1C423.131 183.84 423.461 183.58 423.801 183.33Z" fill="#C49967"/>
<path d="M318.101 393.49C318.441 393.23 318.781 392.96 319.121 392.7C318.771 392.96 318.441 393.22 318.101 393.49Z" fill="#7A3F1A"/>
<path d="M53.9902 600.93C53.6802 600.9 53.3703 600.88 53.0703 600.85C53.3003 601.08 53.5302 601.32 53.7502 601.55C53.8702 601.35 53.9502 601.15 53.9902 600.93Z" fill="#944D23"/>
<path d="M361.45 242.88C366.74 244.85 371.59 245.16 376.33 245.73C391.78 247.58 407.15 249.71 422.35 253.23C432.71 255.63 441.56 260.69 450.15 266.51C453.33 268.66 453.73 271.12 451.53 274.29C450.35 275.98 448.73 277.4 447.72 279.17C445.95 282.28 447.19 284.14 450.7 284.04C455.19 283.9 460.08 280.03 461.57 275.44C463.08 270.77 461.52 266.52 457.67 263.17C451.54 257.84 444.64 254.98 436.46 254.47C429.88 254.06 423.8 251.05 417.4 249.53C407.91 247.28 398.05 247.58 388.59 245.11C381.63 243.3 374.39 243.23 367.3 242.2C365.68 241.96 363.91 241.77 361.45 242.88Z" fill="#4D3E34"/>
<path d="M357.621 242.05C345.031 239.71 332.601 236.2 319.721 237.07C311.001 237.66 302.351 239.15 293.861 241.37C293.621 241.43 293.371 241.47 293.161 241.58C290.971 242.68 287.931 244.04 288.651 246.55C289.461 249.4 292.601 248.84 295.271 248.29C303.241 246.66 310.801 243.47 318.961 242.52C329.791 241.26 340.581 240.73 351.371 242.5C353.521 242.84 355.571 243.07 357.621 242.05Z" fill="#4D3E34"/>
<path d="M301.271 269.3C305.981 269.3 310.761 269.79 315.391 269.16C319.681 268.57 323.911 268.78 328.161 268.6C336.611 268.23 344.731 266.17 352.801 263.83C353.811 263.54 355.091 263.07 354.971 261.69C354.821 260.01 353.351 260.59 352.371 260.52C346.751 260.12 341.531 262.15 336.311 263.62C326.701 266.33 317.011 267.56 307.061 267.14C303.841 267.01 303.831 267.13 301.271 269.3Z" fill="#4D3E34"/>
<path d="M257.82 246.16C262.08 245.47 266.18 246.38 270.3 247.02C271.01 247.13 271.53 246.8 271.75 246.19C272.07 245.32 271.41 244.9 270.81 244.44C267.34 241.8 261.51 242.37 257.82 246.16Z" fill="#4D3E34"/>
<path d="M421.371 261.52C426.081 264.54 426.341 268.6 426.771 273.08C429.471 270.56 428.921 267.97 428.151 265.51C427.341 262.92 425.791 261 421.371 261.52Z" fill="#4D3E34"/>
<path d="M313.421 228.09C313.131 227.93 312.831 227.78 312.541 227.62C312.831 227.78 313.131 227.93 313.421 228.09Z" fill="#4D3E34"/>
<path d="M327.39 203.79C326.16 205.45 324.99 206.66 324.25 208.1C322.7 211.1 320.26 210.91 317.69 210.13C313.5 208.85 309.51 207.14 305.97 204.46C304.72 203.52 303.19 202.96 301.78 202.23C300.62 201.63 299.34 201.29 298.43 202.41C297.42 203.65 298.55 204.71 299.25 205.63C303.11 210.67 308.61 213.29 314.28 215.63C315.52 216.14 316.79 216.58 318.09 216.9C322.82 218.07 326.46 215.53 326.4 210.73C326.37 208.47 328.76 206.68 327.39 203.79Z" fill="#E8C294"/>
<path d="M365.431 138.02C365.821 130.66 362.351 125.41 359.221 120.03C358.701 119.13 358.031 118.41 356.871 118.78C355.601 119.19 355.981 120.34 355.891 121.27C355.551 124.72 357.631 127.34 359.131 130.06C363.231 137.51 362.081 144.83 358.921 152.12C357.941 154.38 355.461 155.05 353.491 156.22C352.631 156.73 350.981 157.05 351.841 158.48C352.521 159.6 353.901 159.07 354.811 158.44C357.271 156.74 359.971 155.39 360.951 152.07C362.411 147.14 366.531 143.02 365.431 138.02Z" fill="#E8C294"/>
<path d="M316.551 151.18C320.811 155.72 328.971 156.26 332.461 154.48C333.721 153.84 335.441 152.99 334.861 151.31C334.231 149.51 332.591 150.57 331.371 150.91C326.481 152.31 321.571 152.93 316.551 151.18Z" fill="#C78157"/>
<path d="M336.311 181.42C335.491 181.56 335.361 182.05 335.351 182.53C335.341 186.95 333.581 190.69 331.011 194.16C330.601 194.72 330.411 195.48 330.241 196.18C330.101 196.77 330.161 197.48 330.811 197.75C331.681 198.12 332.021 197.52 332.401 196.79C334.551 192.72 336.341 188.53 337.221 183.97C337.471 182.73 337.391 181.9 336.311 181.42Z" fill="#E8C294"/>
<path d="M337.7 129.42C335.63 132.24 335.53 135.07 334.67 137.6C334.56 137.92 334.87 138.62 335.18 138.78C335.84 139.12 336.27 138.54 336.6 138.03C338.17 135.61 338.79 133.02 337.7 129.42Z" fill="#E8C294"/>
<path d="M322.921 145.01C325.111 146.94 327.131 146.49 329.131 145.49C329.471 145.32 329.771 144.76 329.791 144.36C329.821 143.74 329.191 143.7 328.721 143.66C326.781 143.48 324.921 143.73 322.921 145.01Z" fill="#E8C294"/>
<path d="M364.74 119.37C364.32 118.39 363.57 117.9 362.51 117.86C362.91 118.86 363.63 119.39 364.74 119.37Z" fill="#C49967"/>
<path d="M194.29 79.84C207.24 72.55 221.6 71.32 235.31 68.06C248.36 64.95 261.72 63.85 275.19 64.16C279.78 64.27 284.13 65.24 288.44 66.47C291.2 67.26 294.06 68.23 295.73 71.01C296.34 72.03 297.22 73.5 298.51 72.75C300 71.89 299.56 70.06 298.86 68.83C296.93 65.42 293.55 63.82 290 62.85C278.73 59.78 267.51 60.46 256.04 62.45C243.12 64.69 230.18 66.81 217.33 69.44C211.27 70.68 205.3 72.46 199.36 74.24C196.8 75 194.46 76.44 194.29 79.84Z" fill="#FDD8AB"/>
<path d="M172.581 111.71C168.661 114.33 167.211 117.77 165.501 120.95C161.491 128.38 157.801 135.98 153.981 143.5C149.671 151.99 142.361 156.78 134.631 161.22C129.921 163.93 126.591 167.76 126.481 172.14C130.361 165.97 136.451 162.34 142.251 158.61C154.521 150.73 159.391 137.7 166.111 125.94C168.561 121.64 171.071 117.32 172.581 111.71Z" fill="#FDD8AB"/>
<path d="M173.931 108.55C175.391 108.31 175.691 107 176.241 105.98C178.831 101.15 180.901 96.05 183.861 91.4C184.331 90.67 185.211 89.62 184.021 88.87C183.311 88.42 182.681 89.26 182.271 89.84C179.831 93.27 173.961 103.39 173.931 108.55Z" fill="#FDD8AB"/>
<path d="M81.6109 538.89C85.0109 537.53 87.991 535.24 90.411 532.71C97.881 524.93 107.511 519.55 114.521 511.48C119.171 506.13 125.181 503.07 130.521 498.94C136.131 494.59 140.931 489.39 146.451 484.97C154.911 478.21 163.241 471.29 171.611 464.42C175.561 461.18 179.481 457.9 183.391 454.62C184.141 453.99 185.021 453.15 184.261 452.15C183.571 451.23 182.481 451.64 181.571 452.07C177.361 454.07 173.681 456.93 169.841 459.51C154.441 469.89 140.541 482.15 127.161 494.95C122.451 499.45 118.541 504.85 113.511 509.1C103.741 517.35 94.781 526.52 84.671 534.38C83.251 535.48 81.8809 536.64 80.4909 537.77C80.8709 538.15 81.2409 538.52 81.6109 538.89Z" fill="#FDD8AB"/>
<path d="M48.5907 563.31C48.3507 564.1 48.1607 564.92 47.8507 565.68C45.8707 570.42 45.8607 570.42 50.7507 572.23C50.9107 569.57 52.4207 567.43 53.6607 565.26C55.5707 561.92 55.9407 558.74 53.7307 555.45C52.9507 555.37 52.1207 555.01 51.5607 555.94C50.7307 557.64 52.5907 560.49 49.3307 561.15L49.3507 561.13C49.3607 561.96 49.5207 562.84 48.6007 563.35L48.5907 563.31Z" fill="#944D23"/>
<path d="M49.3403 561.14C52.6003 560.48 50.7403 557.63 51.5703 555.93C50.6203 555.91 49.6603 555.9 48.7103 555.88C47.2203 555.67 45.7303 555.45 44.2403 555.24C45.0103 556.5 46.4503 556.49 47.6003 557.05C49.3103 557.9 50.5703 559 49.3403 561.14Z" fill="#7A3F1A"/>
<path d="M442.55 125.77C442.74 126.64 443.01 127.82 443.25 129.01C443.59 130.7 443.16 133.4 445.38 133.34C446.79 133.3 446.85 130.46 446.94 128.89C447.57 117.9 453.01 109.87 461.89 103.85C462.79 103.24 464.04 102.63 463.57 101.35C463.04 99.92 461.54 100.15 460.36 100.3C457.09 100.71 454.32 102.29 452.01 104.53C446.13 110.23 443.65 117.51 442.55 125.77Z" fill="#FDD8AB"/>
<path d="M435.25 147.99C434.65 150.47 432.92 152.23 431.21 153.89C426.04 158.89 421.43 164.46 415.65 168.84C414.99 169.34 413.89 169.88 414.57 171.64C416.71 169.9 418.82 168.38 420.7 166.62C424.09 163.45 427.76 160.68 431.71 158.25C439.25 153.6 443.7 146.67 446.03 138.26C446.33 137.18 446.72 135.73 445.41 135.43C443.84 135.06 444.06 136.88 443.8 137.76C442.79 141.22 441.39 144.36 438.49 146.71C437.49 147.52 436.59 148.22 435.24 148C435.23 148 435.25 147.99 435.25 147.99Z" fill="#FDD8AB"/>
<path d="M366.141 116.49C367.171 112.35 364.551 107.59 361.281 107.05C360.861 106.98 360.391 107.21 359.941 107.3C360.041 107.73 360.001 108.34 360.271 108.57C362.751 110.68 364.351 113.47 366.141 116.49Z" fill="#FDD8AB"/>
<path d="M411.24 173.43C408.58 175.15 405.15 175.6 402.34 178.8C407.01 178.46 409.84 177.05 411.24 173.43Z" fill="#FDD8AB"/>
<path d="M186.981 125.27C192.191 125.52 196.181 122.51 200.341 120.11C208.321 115.51 213.511 108.07 219.091 101.08C220.781 98.96 222.531 97.05 225.051 95.96C220.801 96.18 216.531 96.25 212.291 96.67C209.701 96.92 207.551 98.3 205.671 100.2C198.231 107.67 192.111 116.1 186.981 125.27ZM199.601 112.11C201.181 107.69 205.091 104.93 207.281 100.96C207.531 100.51 208.161 100.37 208.501 100.81C208.761 101.14 208.941 101.81 208.781 102.15C206.811 106.46 204.091 110.09 199.601 112.11Z" fill="#583711"/>
<path d="M272.91 344.27C272.75 343.69 272.78 342.89 272.41 342.6C271.66 342.02 271.1 342.8 270.57 343.27C266.34 347.09 263.7 352.11 260.78 356.84C254.13 367.59 247.68 378.43 240.13 388.63C236.22 393.91 231.72 399.14 230.8 406.13C230.68 407.02 229.67 408.06 230.9 408.72C232.01 409.31 233.07 408.45 233.88 407.78C237.39 404.87 240.1 401.18 242.52 397.43C250.06 385.78 258.4 374.61 264.7 362.21C267.12 357.45 269.14 352.47 271.78 347.79C272.35 346.74 272.53 345.48 272.91 344.27Z" fill="#4D3E34"/>
<path d="M210.641 426.21C211.611 427.49 212.851 428.43 214.601 427.78C219.721 425.86 223.221 422.05 226.161 417.63C226.651 416.9 226.831 415.88 226.041 415.31C225.321 414.79 224.721 415.6 224.221 416.09C222.571 417.71 220.901 419.31 219.321 420.99C217.291 423.15 215.201 425.13 211.981 425.18C211.361 425.19 210.771 425.31 210.641 426.21Z" fill="#4D3E34"/>
<path d="M412.891 326.49C408.671 328.29 405.871 331.91 402.201 334.39C391.251 341.79 383.101 352.17 373.921 361.41C367.421 367.96 361.591 375.26 356.991 383.38C356.751 383.81 356.521 384.24 356.321 384.69C355.851 385.73 355.411 387.08 356.251 387.79C357.481 388.84 358.231 387.27 358.791 386.55C366.221 377.22 375.201 369.14 381.151 358.6C385.511 350.88 392.881 345.94 399.121 339.96C403.751 335.54 408.981 331.72 412.891 326.49Z" fill="#FDD8AB"/>
<path d="M403.271 310.09C404.991 310.94 406.201 310.01 407.401 309.6C412.921 307.69 418.351 308.06 423.841 309.75C425.691 310.32 425.491 311.25 424.711 312.42C423.841 313.73 422.831 314.95 421.901 316.23C421.291 317.08 420.911 318.13 421.791 318.86C422.541 319.47 423.571 318.77 424.051 318.21C425.641 316.32 428.221 314.79 427.851 311.93C427.461 308.86 424.631 307.81 422.211 306.82C417.461 304.86 408.111 306.54 403.271 310.09Z" fill="#FDD8AB"/>
<path d="M393.791 318.11C396.111 317.39 397.461 315.63 399.331 313.38C396.031 313.98 394.841 315.97 393.791 318.11Z" fill="#FDD8AB"/>
<path d="M414.09 325.74C415.72 325.54 416.4 324.87 416.73 323.34C415.43 323.71 414.37 323.9 414.09 325.74Z" fill="#FDD8AB"/>
<path d="M362.95 37.96C361.11 35.03 358.5 32.69 356.9 29.58C354.73 25.37 352.34 21.27 349.98 17.15C349.33 16.01 348.42 14.42 346.94 15.34C345.56 16.2 346.95 17.53 347.41 18.55C354.05 33.45 354.63 32.25 362.95 37.96Z" fill="#FDD8AB"/>
<path d="M338.421 56.56C336.271 54.07 334.331 51.63 334.541 48.15C334.581 47.52 334.371 46.89 333.641 46.77C332.721 46.61 332.421 47.36 332.061 47.99C331.191 49.53 332.071 50.93 332.701 52.11C333.901 54.33 335.641 56.12 338.421 56.56Z" fill="#FDD8AB"/>
<path d="M361.691 52C362.741 48.39 362.701 44.6 364.401 41.19C364.701 40.59 364.391 39.96 363.771 39.67C362.791 39.22 362.461 40.04 362.201 40.68C360.761 44.37 360.881 48.16 361.691 52Z" fill="#FDD8AB"/>
<path d="M350.581 63.37C348.241 60.94 345.701 59.53 341.561 58.19C342.301 60.28 345.791 62.36 350.581 63.37Z" fill="#FDD8AB"/>
<path d="M336.771 9.42999C335.791 9.37999 334.811 9.33 333.831 9.28C334.771 10.01 335.751 10.16 336.771 9.42999Z" fill="#C49967"/>
<path d="M339.751 9.25C339.491 9.3 339.231 9.34 338.971 9.39C339.291 9.69 339.541 9.57 339.751 9.25Z" fill="#C49967"/>
<path d="M326.771 484.7C327.831 488.18 330.301 488.14 332.541 488.37C335.251 488.64 337.351 487.4 338.661 485.14C341.721 479.84 338.531 470.57 332.891 468.15C332.491 467.98 331.851 467.87 331.531 468.07C330.811 468.51 331.221 469.13 331.611 469.6C334.551 473.11 334.311 477.55 335.141 481.68C335.541 483.69 334.671 484.71 332.611 484.7C330.801 484.7 328.981 484.7 326.771 484.7Z" fill="#DC8551"/>
<path d="M341.921 443.54C337.881 442.35 333.651 442.66 329.541 442.02C329.511 444.25 329.481 446.49 329.451 448.72C330.791 450.93 331.521 454.08 335.301 452.49C333.551 447.63 334.191 446.49 339.061 445.73C340.381 445.52 341.741 445.26 341.921 443.54Z" fill="#944D23"/>
<path d="M330.821 436.85C331.721 439.35 333.051 441.34 336.081 441.32C336.141 440.24 336.191 439.17 336.271 438.09C336.511 435 337.781 433.34 341.261 433.93C342.971 434.22 344.971 434.17 345.681 431.86C341.941 431.65 338.101 432.27 334.561 430.36C332.931 429.48 332.761 431.01 332.471 431.98C332.151 433.05 332.751 434.6 330.851 434.73C329.811 435.42 330.591 436.14 330.821 436.85Z" fill="#944D23"/>
<path d="M340.45 453.8C337.49 452.81 334.69 454.66 331.68 454.33C330.39 454.19 330.9 456.34 331.06 457.44C331.28 458.95 332.35 460.43 330.94 461.88C331.79 464.35 333.47 465.63 336.13 465.64C338.07 465.65 339.2 464.99 338.9 462.84C336.99 462.61 335.23 462.2 335.22 459.72C334 457.77 334.25 456.44 336.65 455.67C337.97 455.25 339.18 454.44 340.45 453.8Z" fill="#944D23"/>
<path d="M332.341 401.7C332.101 401.44 331.861 401.18 331.621 400.92C331.051 400.63 330.881 400.11 330.851 399.52C330.561 398.52 330.271 397.52 329.981 396.52C329.791 396.08 329.521 395.66 329.441 395.2C329.271 394.22 329.171 393.04 327.901 393.14C326.441 393.26 326.521 394.6 326.481 395.69C326.321 400.01 327.731 403.69 331.531 405.93C333.201 406.91 334.161 407.92 334.241 409.94C335.661 408.41 335.701 406.91 334.291 405.43C333.271 404.35 332.151 403.38 332.341 401.7Z" fill="#DC8551"/>
<path d="M328.75 424.6C331.22 420.7 332.08 416.55 333.76 412.79C333.88 412.51 333.52 411.92 333.24 411.6C333.14 411.48 332.56 411.65 332.29 411.83C330.71 412.85 327.99 421.87 328.75 424.6Z" fill="#DC8551"/>
<path d="M329.681 466.34C327.511 461.98 326.381 458.1 325.251 453.92C323.061 458.94 324.651 463.83 329.681 466.34Z" fill="#DC8551"/>
<path d="M318.541 475.88C318.571 476 318.581 476.12 318.631 476.23C319.551 478.17 320.231 480.29 322.351 481.33C322.521 481.41 323.181 481.03 323.181 480.87C323.161 478.4 321.041 477.04 320.021 475.09C319.901 474.87 319.381 474.71 319.101 474.76C318.511 474.86 318.471 475.38 318.541 475.88Z" fill="#DC8551"/>
<path d="M335.211 459.72C335.221 462.2 336.981 462.61 338.891 462.84C339.541 462.34 340.471 461.94 340.151 460.89C339.861 459.95 338.991 459.75 338.101 459.73C337.141 459.72 336.171 459.73 335.211 459.72Z" fill="#DC8551"/>
<path d="M73.5608 639.63C72.3608 639.89 71.1508 640.16 69.9508 640.42C55.8608 641.51 42.2408 640.03 29.5908 633.15C28.9208 633.12 28.1908 633.16 28.4408 632.11L28.3408 632.04C27.1608 632.62 26.6508 632.16 26.6308 630.94L26.6408 630.95C19.8708 629.82 17.5108 624.36 15.7808 618.95C14.2008 614.02 13.1208 608.84 13.3108 603.51C13.3808 601.56 13.3408 598.41 11.1408 598.49C9.0508 598.57 9.61083 601.69 9.74083 603.52C10.4508 614.14 13.8008 624.07 18.7608 633.36C21.2008 637.93 26.2508 639.52 31.0808 640.45C42.4108 642.65 53.8408 644.17 65.4008 644.5C67.0708 644.55 68.7408 644.72 70.4008 644.61C73.6108 644.41 73.9008 642.19 73.5608 639.63Z" fill="#FEFEFE"/>
<path d="M26.6308 630.95C26.6508 632.17 27.1608 632.63 28.3408 632.05C27.9308 631.43 27.4108 630.98 26.6308 630.95Z" fill="#D6D5D4"/>
<path d="M28.4408 632.12C28.1908 633.17 28.9208 633.13 29.5908 633.16C29.2008 632.81 28.8208 632.47 28.4408 632.12Z" fill="#D6D5D4"/>
<path d="M220.611 59.84C223.861 55.73 226.201 51.37 228.801 47.17C233.001 40.41 237.361 33.72 244.271 29.37C247.761 27.17 251.261 24.9 255.161 23.4C255.891 23.12 257.111 22.87 256.831 21.8C256.521 20.63 255.201 20.67 254.321 20.94C252.341 21.53 250.261 22.08 248.531 23.15C235.351 31.3 225.821 42.53 220.461 57.16C220.221 57.84 219.741 58.49 220.611 59.84Z" fill="#7A3F1A"/>
<path d="M232.291 47.74C235.811 43.72 239.341 39.7 242.861 35.66C243.191 35.29 243.401 34.72 242.861 34.43C242.511 34.24 241.911 34.26 241.521 34.42C239.431 35.32 238.191 37.16 236.861 38.86C234.811 41.48 232.631 44.03 232.291 47.74Z" fill="#7A3F1A"/>
<path d="M224.65 61.32C227.65 58.03 228.6 54.11 231.4 50.46C228.17 51.68 224.67 57.58 224.65 61.32Z" fill="#7A3F1A"/>
<path d="M42.2006 569.86C42.4406 569.24 42.8005 568.73 43.4905 568.55C44.7805 566.07 46.2206 563.63 45.7006 560.63C45.6006 560.03 45.6106 559.37 44.8806 559.17C44.1406 558.97 43.7905 559.42 43.5305 560.04C40.7105 566.87 37.4805 573.57 36.2205 580.94C36.0405 582 35.6706 583.32 37.1006 584.55C38.4506 579.37 39.3706 574.26 42.2006 569.86Z" fill="#DC8551"/>
<path d="M53.0605 600.84C50.2205 598.58 46.4305 599.92 43.4005 598.31C42.5105 597.84 42.1205 598.59 42.0605 599.41C41.9905 600.38 42.0905 601.44 40.6805 601.51C41.0905 604.88 42.4205 607.76 45.3405 609.65C47.9305 611.32 50.4605 610.54 50.8705 608.07C49.8305 608.15 48.8605 607.94 47.9905 607.33C44.4205 606.94 44.4205 603.8 43.7105 601.42C43.3205 600.1 44.5506 600.26 45.3506 600.71C47.9106 602.16 50.4705 601.59 53.0605 600.84Z" fill="#944D23"/>
<path d="M38.2804 595C38.3104 594.5 38.3304 594 38.3604 593.51C37.5004 593.69 36.3004 592.49 35.7904 593.79C35.0304 595.75 35.1404 597.76 36.3904 599.66C38.6804 598.67 36.7104 596.13 38.2804 595Z" fill="#DC8551"/>
<path d="M47.9909 607.34C48.8609 607.95 49.8309 608.15 50.8709 608.08C51.0409 607.27 52.7609 606.66 51.4809 605.74C50.4809 605.02 49.0609 604.23 47.8509 604.82C46.6509 605.41 48.0809 606.47 47.9909 607.34Z" fill="#DC8551"/>
<path d="M48.6103 563.35C49.5303 562.84 49.3703 561.95 49.3603 561.13C48.5103 561.66 48.5503 562.5 48.6103 563.35Z" fill="#7A3F1A"/>
<path d="M307.391 470C310.531 481.16 314.131 491.99 325.951 497.26C330.581 499.33 333.271 498.4 336.771 493.29C325.581 495.46 316.631 490.41 312.411 479.58C311.931 478.34 311.38 477.12 310.87 475.89C308.67 474.55 309.311 471.52 307.391 470.01V470Z" fill="#FEFEFE"/>
<path d="M307.381 470.01C307.291 469.68 307.211 469.34 307.121 469.01C307.031 469.08 306.851 469.19 306.851 469.2C307.021 469.47 307.201 469.74 307.391 470C307.391 470 307.381 470.01 307.381 470.01Z" fill="#FEFEFE"/>
<path d="M312.34 11.48C314.76 10.99 317.11 10.56 319.43 10.04C320.08 9.89999 321.04 9.89 320.99 8.88C320.96 8.23 320.32 7.97999 319.75 7.69999C315.69 5.68999 307.3 8.11 304.97 11.96C304.49 12.76 304.26 13.56 304.72 14.35C305.15 15.09 305.96 15 306.68 14.83C308.97 14.31 311.12 13.23 313.1 16.01C313.99 17.26 315.55 15.24 316.27 14.53C317.22 13.6 315.89 13 314.92 12.82C313.99 12.65 313.02 12.59 312.34 11.48Z" fill="#7A3F1A"/>
<path d="M347.981 112.42C348.481 107.22 346.161 103.44 343.411 99.94C339.651 95.15 335.711 90.54 334.281 84.37C333.851 82.53 333.641 80.79 334.201 78.99C334.451 78.19 334.371 77.49 333.591 77.13C332.521 76.63 332.031 77.47 331.641 78.23C330.531 80.42 330.741 82.68 331.321 84.98C332.771 90.81 335.911 95.7 339.931 100C342.911 103.19 344.891 106.86 346.321 110.9C346.531 111.51 346.701 112.07 347.981 112.42Z" fill="#FDD8AB"/>
<path d="M43.7708 621.05C41.5708 621.5 37.5208 621.55 37.5908 623.46C37.7008 626.19 41.3408 625.08 43.4408 625.04C49.5608 624.92 54.4908 627.34 58.9108 631.3C60.5308 632.76 62.2708 634.1 64.0608 635.35C65.1708 636.13 66.5708 636.68 67.7708 635.58C69.1508 634.31 68.4308 632.84 67.6508 631.59C67.0808 630.67 66.3508 629.78 65.4908 629.14C59.0608 624.36 52.3308 620.29 43.7708 621.05Z" fill="#DC8551"/>
<path d="M46.7803 634.03C43.1603 631.18 38.6703 629.81 35.1203 626.89C34.6303 626.49 33.8703 626.5 33.5703 627.17C33.2803 627.84 33.8803 628.25 34.3703 628.62C38.0503 631.4 41.9003 633.81 46.7803 634.03Z" fill="#DC8551"/>
<path d="M58.2107 574.38C58.4107 574.44 58.6207 574.48 58.8307 574.51C60.9607 574.55 62.1907 573.35 62.9507 571.51C64.0607 568.84 65.7607 566.7 68.3007 565.23C69.0207 564.81 69.7107 564.17 70.1207 563.46C71.4107 561.26 73.8907 559.26 71.8707 556.3C70.5607 554.37 65.6507 553.81 62.9907 555.13C61.9507 555.64 60.9807 556.22 61.3407 557.59C61.6407 558.72 62.6207 558.87 63.6407 559C65.1407 559.2 67.4207 558.14 67.9407 559.68C68.4307 561.12 66.2807 562.38 65.4207 563.81C64.3607 565.58 63.0407 567.19 62.0207 568.98C61.0007 570.79 60.5307 572.77 57.5007 571.73C55.5807 571.07 56.1607 573.12 56.0707 574.2C56.5207 574.22 56.9707 574.23 57.4207 574.25C57.7507 573.92 58.0107 573.99 58.2107 574.38Z" fill="#DC8551"/>
<path d="M50.0811 594.33C48.6611 592.98 46.4011 593.32 45.0311 591.83C44.7111 591.48 43.9211 591.35 43.8111 591.84C43.5011 593.22 43.1511 594.69 43.3611 596.05C43.4811 596.82 44.6511 597.46 45.7311 596.75C45.7811 595.62 44.5111 593.41 47.4711 594.72C48.3611 595.1 49.3311 595.21 50.0811 594.33Z" fill="#B96C3D"/>
<path d="M57.3604 582.26C56.9904 579.91 55.1304 579.75 53.3404 579.56C51.8604 579.41 51.5104 580.34 51.6504 581.61C53.4804 582.48 55.3804 582.72 57.3604 582.26Z" fill="#DC8551"/>
<path d="M53.7607 590.09C53.1107 587.27 50.8907 586.74 46.9807 588.48C48.8507 590.66 51.5007 589.54 53.7607 590.09Z" fill="#DC8551"/>
<path d="M50.0805 594.33C49.3205 595.21 48.3606 595.11 47.4706 594.71C44.5106 593.4 45.7806 595.62 45.7306 596.74C47.1706 596.99 48.6006 597.24 50.0406 597.49C50.5306 596.44 51.9406 595.81 51.5206 594.34C51.0506 594.34 50.5705 594.33 50.0805 594.33Z" fill="#DC8551"/>
<path d="M58.2109 574.38C58.0109 573.99 57.7609 573.92 57.4409 574.25C57.6909 574.29 57.9509 574.33 58.2109 574.38Z" fill="#B96C3D"/>
<path d="M342.631 404.59C341.091 408.18 339.381 411.71 338.051 415.38C337.041 418.14 339.671 417.94 341.171 418.56C343.941 414.14 344.101 409.45 342.631 404.59Z" fill="#944D23"/>
<path d="M346.431 420.55C346.861 420.56 347.301 420.56 347.731 420.57C349.031 416.34 352.471 412.77 351.521 407.85C351.271 406.55 351.611 404.77 349.741 404.82C347.871 404.87 348.431 406.75 348.611 407.72C349.461 412.3 346.781 416.22 346.431 420.55Z" fill="#DC8551"/>
<path d="M346.351 429.59C346.251 428.67 346.371 427.16 345.051 427.6C343.641 428.07 341.841 427.38 340.861 428.91C340.771 429.05 341.571 429.76 341.951 430.2C343.441 430.19 345.011 430.75 346.351 429.59Z" fill="#DC8551"/>
<path d="M330.851 399.51C330.881 400.1 331.051 400.62 331.621 400.91C331.601 400.32 331.501 399.77 330.851 399.51Z" fill="#B96C3D"/>
<path d="M339.741 441.26C340.901 441.19 342.341 441.73 342.711 439.91C341.391 437.21 339.631 439.61 338.061 439.23C338.091 440.61 339.381 440.49 339.741 441.26Z" fill="#DC8551"/>
<path d="M341.171 449.42C337.581 448.38 336.861 448.93 337.601 452.18C339.351 451.99 340.921 451.57 341.171 449.42Z" fill="#DC8551"/>
<path d="M199.6 112.11C204.09 110.1 206.81 106.46 208.78 102.15C208.94 101.8 208.76 101.14 208.5 100.81C208.16 100.37 207.53 100.51 207.28 100.96C205.09 104.92 201.18 107.69 199.6 112.11Z" fill="#7A3F1A"/>
</svg>
