<svg width="580" height="252" viewBox="0 0 580 252" fill="none" xmlns="http://www.w3.org/2000/svg">
<path d="M242.29 71.3301L223.94 181.87H175.64L192.15 82.1201C205.45 77.4401 215.59 74.0401 218.54 73.5001C218.54 73.5001 231.85 72.0801 242.29 71.3301Z" fill="white"/>
<path d="M253.58 0.0500488C248.55 6.86005 238.88 22.29 237.15 22.76C237.15 22.76 197.41 24.27 173.33 33.68L192.69 0.0500488H253.58Z" fill="white"/>
<path d="M187.79 83.67L134.1 180.45H104.98L93.4199 128.17C93.8699 127.64 94.2899 127 94.6899 126.25C94.6899 126.25 97.3399 122.16 94.6799 117.88C94.6799 117.88 150.84 96.79 187.79 83.67Z" fill="white"/>
<path d="M122.37 66.7701C114.29 72.24 107.24 76.8501 103.24 78.9601C103.24 78.9601 96.7699 78.46 91.8299 82.7C91.8299 82.7 87.5299 80.35 82.4699 78.66L81.8899 76.05H80.4699L80.1499 77.97C76.5399 76.99 72.8099 76.55 70.1699 77.68C70.1699 77.68 63.4899 72.82 58.5999 74.3C58.5999 74.3 46.4799 102.25 51.4699 116.42L50.1699 119.96L47.4499 122.9C47.4499 122.9 34.3199 148.38 50.8799 177.45L55.0799 177.17C55.0799 177.17 60.9099 178.33 61.3899 167.02C61.3899 167.02 62.7899 157.95 66.4999 151.34C66.4999 151.34 67.1899 151.19 67.9399 150.73L62.7199 181.87H14.4199L44.6099 0.0500488H106.04L122.37 66.7701Z" fill="white"/>
<path d="M421.77 0.0500488L414.83 41.86C414.83 41.87 414.82 41.8701 414.82 41.8801C406.76 61.7701 398.38 81.32 394.49 83.76C394.49 83.76 390.88 81.53 385.58 86.73C385.58 86.73 373.15 91.8 367.08 101.69C367.08 101.69 358.55 106.02 356.97 112.06C356.97 112.06 370.25 130.57 386.67 136.52L392.01 144.95C390.4 147.55 388.61 150.05 386.66 152.44C378.4 162.53 367.91 170.32 355.19 175.79C342.46 181.27 328.31 184 312.75 184C297.06 184 283.81 181.27 272.98 175.79C262.15 170.32 254.29 162.53 249.41 152.44C244.52 142.35 243.21 130.38 245.46 116.53L253.24 69.68C264.52 64.8 287.58 46.71 309.33 29.2L295.53 112.27C294.64 117.89 295.08 122.89 296.86 127.27C298.63 131.65 301.5 135.1 305.47 137.62C309.43 140.13 314.23 141.39 319.85 141.39C325.53 141.39 330.79 140.13 335.61 137.62C340.43 135.1 344.44 131.65 347.64 127.27C350.84 122.89 352.88 117.89 353.77 112.27L372.41 0.0500488H421.77V0.0500488Z" fill="white"/>
<path d="M574.24 43.55C568.97 29.59 560.06 18.84 547.51 11.33C534.96 3.81005 519.34 0.0500488 500.64 0.0500488H498.94C447.81 52.35 420.54 100.95 420.54 100.95L420.96 107.35L421.03 112.89L422.17 118.16L421.82 126.39L422.93 132.85L424.27 138.21C428.66 140.29 431.2 147.34 431.2 147.34C438 152.83 444.81 161.69 444.81 161.69C442.93 166.16 438.98 169.29 438.98 169.29C427.19 170.44 415.06 164.09 406.26 157.87L402.27 181.87H473.29C491.76 181.87 508.26 178.38 522.79 171.4C537.32 164.41 549.27 154.32 558.65 141.12C568.03 127.92 574.26 112.03 577.34 93.4501C580.54 74.1501 579.5 57.52 574.24 43.55ZM528.69 88.48C526.56 101.5 523.11 111.75 518.35 119.24C513.58 126.73 507.67 132.05 500.59 135.22C493.52 138.38 485.49 139.97 476.49 139.97H458.56L474.89 41.9601H493.18C502.65 41.9601 510.37 43.27 516.35 45.91C522.33 48.54 526.38 53.22 528.51 59.93C530.64 66.65 530.7 76.17 528.69 88.48Z" fill="white"/>
<path d="M223.22 250.33L230.89 204.15H250.82C254.25 204.15 257.13 204.83 259.48 206.18C261.83 207.53 263.51 209.43 264.53 211.89C265.55 214.34 265.79 217.2 265.25 220.48C264.71 223.82 263.51 226.69 261.65 229.11C259.79 231.52 257.43 233.38 254.57 234.68C251.71 235.98 248.5 236.63 244.95 236.63H233.04L234.66 226.89H244.04C245.54 226.89 246.87 226.63 248.01 226.11C249.15 225.59 250.08 224.85 250.78 223.9C251.49 222.94 251.95 221.81 252.16 220.48C252.37 219.16 252.28 218.03 251.88 217.09C251.48 216.15 250.8 215.43 249.85 214.92C248.89 214.42 247.68 214.17 246.21 214.17H241.79L235.75 250.34H223.22V250.33Z" fill="white"/>
<path d="M267.87 250.33H254.34L277.25 204.15H294.39L301.97 250.33H288.44L283.93 216.87H283.57L267.87 250.33ZM268.42 232.11H293.86L292.24 241.49H266.8L268.42 232.11Z" fill="white"/>
<path d="M303.15 250.33L310.82 204.15H330.75C334.18 204.15 337.07 204.77 339.43 206.02C341.79 207.27 343.49 209.06 344.53 211.41C345.57 213.75 345.82 216.57 345.27 219.84C344.73 223.15 343.54 225.93 341.7 228.19C339.86 230.45 337.52 232.17 334.69 233.33C331.86 234.5 328.68 235.08 325.16 235.08H313.25L314.87 225.34H324.25C325.72 225.34 327.02 225.16 328.13 224.79C329.24 224.42 330.14 223.84 330.84 223.03C331.53 222.23 331.98 221.16 332.19 219.84C332.4 218.52 332.3 217.44 331.87 216.6C331.45 215.77 330.75 215.15 329.77 214.75C328.79 214.35 327.58 214.15 326.14 214.15H321.72L315.68 250.32H303.15V250.33ZM333.73 229.13L341.76 250.33H328.14L320.38 229.13H333.73Z" fill="white"/>
<path d="M342.94 250.33L350.61 204.15H363.15L360.08 222.82H360.71L377.67 204.15H392.28L373.34 224.71L384.98 250.33H370L362.6 233.01L357.46 238.51L355.48 250.33H342.94Z" fill="white"/>
<path d="M394.54 250.33L396.03 241.31L415.65 227.06C416.96 226.11 418.09 225.22 419.04 224.39C420 223.56 420.77 222.69 421.35 221.81C421.93 220.93 422.32 219.94 422.5 218.86C422.7 217.67 422.61 216.65 422.24 215.8C421.87 214.95 421.28 214.3 420.47 213.85C419.66 213.4 418.68 213.17 417.54 213.17C416.38 213.17 415.32 213.4 414.36 213.87C413.4 214.34 412.6 215.02 411.96 215.92C411.32 216.82 410.9 217.92 410.69 219.21H398.78C399.32 215.96 400.52 213.17 402.38 210.82C404.24 208.48 406.6 206.67 409.46 205.41C412.32 204.15 415.54 203.52 419.12 203.52C422.82 203.52 425.93 204.11 428.46 205.29C430.99 206.47 432.82 208.13 433.95 210.26C435.08 212.39 435.41 214.9 434.91 217.77C434.61 219.54 433.94 221.3 432.91 223.05C431.88 224.8 430.23 226.73 427.97 228.86C425.71 230.99 422.58 233.52 418.58 236.45L413.66 240.06L413.62 240.33H431.66L429.99 250.34H394.54V250.33Z" fill="white"/>
<path d="M452.28 251.59C448.07 251.59 444.59 250.62 441.84 248.69C439.09 246.76 437.19 243.98 436.13 240.36C435.08 236.74 434.99 232.39 435.86 227.33C436.73 222.25 438.29 217.93 440.54 214.39C442.79 210.85 445.58 208.14 448.93 206.29C452.27 204.44 456.04 203.52 460.22 203.52C464.4 203.52 467.86 204.44 470.59 206.29C473.33 208.14 475.23 210.83 476.3 214.37C477.37 217.91 477.48 222.23 476.64 227.33C475.8 232.41 474.25 236.76 472.01 240.39C469.76 244.01 466.96 246.79 463.6 248.71C460.23 250.63 456.46 251.59 452.28 251.59ZM453.99 241.4C456.15 241.4 458.1 240.27 459.82 238.01C461.54 235.75 462.82 232.19 463.64 227.33C464.18 224.17 464.31 221.58 464.02 219.56C463.73 217.54 463.12 216.04 462.17 215.07C461.22 214.1 460.03 213.62 458.58 213.62C456.42 213.62 454.45 214.72 452.68 216.92C450.91 219.12 449.63 222.59 448.84 227.33C448.3 230.58 448.18 233.24 448.48 235.31C448.78 237.39 449.41 238.92 450.37 239.91C451.33 240.9 452.55 241.4 453.99 241.4Z" fill="white"/>
<path d="M475.47 250.33L476.96 241.31L496.58 227.06C497.89 226.11 499.02 225.22 499.97 224.39C500.92 223.56 501.69 222.69 502.28 221.81C502.87 220.92 503.25 219.94 503.43 218.86C503.63 217.67 503.54 216.65 503.17 215.8C502.8 214.95 502.21 214.3 501.4 213.85C500.59 213.4 499.61 213.17 498.47 213.17C497.31 213.17 496.25 213.4 495.29 213.87C494.33 214.34 493.53 215.02 492.89 215.92C492.25 216.82 491.83 217.92 491.62 219.21H479.71C480.25 215.96 481.45 213.17 483.31 210.82C485.17 208.48 487.53 206.67 490.39 205.41C493.25 204.15 496.47 203.52 500.05 203.52C503.75 203.52 506.86 204.11 509.38 205.29C511.91 206.47 513.74 208.13 514.87 210.26C516 212.39 516.32 214.9 515.83 217.77C515.53 219.54 514.86 221.3 513.83 223.05C512.8 224.79 511.15 226.73 508.89 228.86C506.63 230.99 503.5 233.52 499.5 236.45L494.58 240.06L494.53 240.33H512.57L510.9 250.34H475.47V250.33Z" fill="white"/>
<path d="M531.85 250.96C528.09 250.96 524.87 250.33 522.18 249.08C519.49 247.83 517.51 246.09 516.24 243.88C514.97 241.67 514.58 239.13 515.08 236.26H527.53C527.36 237.15 527.48 237.94 527.88 238.64C528.28 239.34 528.89 239.88 529.72 240.27C530.55 240.66 531.5 240.86 532.58 240.86C533.87 240.86 535.04 240.6 536.09 240.07C537.13 239.54 537.99 238.86 538.66 238.02C539.33 237.18 539.74 236.29 539.89 235.36C540.06 234.4 539.9 233.61 539.42 233C538.94 232.39 538.22 231.94 537.28 231.65C536.34 231.36 535.22 231.21 533.94 231.21H528.98L530.42 222.55H534.84C536.12 222.55 537.29 222.32 538.36 221.85C539.43 221.38 540.31 220.74 541.02 219.92C541.73 219.1 542.16 218.17 542.33 217.13C542.46 216.33 542.4 215.64 542.14 215.04C541.88 214.45 541.42 213.98 540.76 213.65C540.11 213.32 539.25 213.15 538.18 213.15C537.02 213.15 535.91 213.35 534.84 213.76C533.77 214.17 532.88 214.73 532.16 215.45C531.44 216.17 531.01 217 530.87 217.93H518.96C519.43 215.1 520.59 212.61 522.46 210.44C524.32 208.27 526.67 206.58 529.51 205.34C532.34 204.11 535.44 203.49 538.81 203.49C542.33 203.49 545.32 204.14 547.78 205.43C550.24 206.72 552.06 208.44 553.21 210.57C554.37 212.7 554.74 215.03 554.31 217.56C553.86 220.28 552.63 222.34 550.63 223.74C548.63 225.14 546.13 225.96 543.12 226.22V226.58C546.4 226.96 548.93 228.16 550.72 230.19C552.51 232.22 553.16 234.71 552.68 237.68C552.27 240.21 551.11 242.47 549.18 244.47C547.26 246.47 544.79 248.05 541.79 249.21C538.81 250.38 535.49 250.96 531.85 250.96Z" fill="white"/>
<path d="M220.75 213.23H6.96997L8.41997 204.15H222.26L220.75 213.23Z" fill="#A54C5A"/>
<path d="M218.01 231.79H57.0701L58.1601 222.71H219.17L218.01 231.79Z" fill="#E99440"/>
<path d="M214.51 250.35H0.73999L2.25998 241.27H216.07L214.51 250.35Z" fill="#85BE9B"/>
</svg>
