<svg width="141" height="76" viewBox="0 0 141 76" fill="none" xmlns="http://www.w3.org/2000/svg">
<path d="M4 4H137V17.9952C137 17.9964 136.999 17.9978 136.998 17.9995C136.991 18.0165 136.964 18.0715 136.89 18.1516C136.727 18.3274 136.429 18.5217 136.054 18.6174C127.403 20.8197 121 28.6571 121 38C121 47.3429 127.403 55.1803 136.054 57.3826C136.429 57.4783 136.727 57.6726 136.89 57.8484C136.964 57.9286 136.991 57.9835 136.998 58.0006C136.999 58.0022 137 58.0036 137 58.0048V71.5H4L4 58.0048C4.00044 58.0036 4.001 58.0022 4.00171 58.0005C4.00894 57.9835 4.03614 57.9286 4.11042 57.8484C4.27342 57.6726 4.57061 57.4783 4.94636 57.3826C13.5974 55.1803 20 47.3429 20 38C20 28.6571 13.5974 20.8197 4.94637 18.6174C4.57061 18.5217 4.27342 18.3274 4.11042 18.1516C4.03614 18.0714 4.00894 18.0165 4.00171 17.9994C4.001 17.9978 4.00044 17.9964 4 17.9952L4 4Z" stroke="white" stroke-width="8"/>
<line x1="91.5" y1="71.5" x2="91.5" y2="7.5" stroke="white" stroke-width="7" stroke-linecap="round" stroke-dasharray="12 12"/>
</svg>
