<?xml version="1.0" standalone="no"?>
<!DOCTYPE svg PUBLIC "-//W3C//DTD SVG 20010904//EN"
 "http://www.w3.org/TR/2001/REC-SVG-20010904/DTD/svg10.dtd">
<svg version="1.0" xmlns="http://www.w3.org/2000/svg"
 width="2048.000000pt" height="2048.000000pt" viewBox="0 0 2048.000000 2048.000000"
 preserveAspectRatio="xMidYMid meet">
<metadata>
Created by potrace 1.14, written by Peter Selinger 2001-2017
</metadata>
<g transform="translate(0.000000,2048.000000) scale(0.100000,-0.100000)"
fill="#000000" stroke="none">
<path d="M0 10240 l0 -10240 10240 0 10240 0 0 10240 0 10240 -10240 0 -10240
0 0 -10240z m9094 7788 c17 -28 39 -107 105 -386 10 -45 22 -90 26 -100 4 -9
17 -64 30 -122 23 -106 48 -210 79 -330 64 -248 93 -372 107 -445 6 -27 14
-62 20 -77 11 -28 36 -129 73 -298 28 -123 49 -210 75 -300 27 -96 51 -194 71
-290 18 -86 39 -173 70 -290 27 -98 48 -184 75 -300 40 -176 86 -365 110 -445
26 -88 47 -218 41 -250 -6 -29 -34 -50 -281 -214 -269 -178 -588 -381 -652
-414 -18 -9 -45 -23 -60 -31 -16 -8 -75 -20 -131 -25 -193 -20 -329 -64 -451
-146 -37 -25 -76 -45 -86 -45 -10 0 -64 22 -120 49 -55 27 -160 72 -234 101
-143 57 -159 70 -182 153 -5 21 -17 41 -25 44 -26 10 -60 -13 -70 -48 -12 -42
-43 -48 -134 -24 -100 26 -242 31 -335 11 l-80 -18 -96 55 c-183 104 -357 152
-483 133 -43 -7 -48 -11 -70 -54 -30 -60 -82 -195 -96 -249 -6 -23 -15 -45
-20 -48 -6 -3 -10 -13 -10 -21 0 -9 -11 -43 -24 -77 -77 -200 -207 -688 -227
-849 -6 -51 -17 -120 -25 -153 -9 -36 -18 -151 -23 -290 -9 -240 -2 -339 33
-470 22 -81 21 -97 -15 -198 -28 -75 -43 -100 -112 -180 -71 -82 -137 -190
-137 -224 0 -7 -11 -41 -24 -75 -13 -35 -36 -103 -50 -153 -15 -49 -34 -112
-42 -140 -8 -27 -21 -99 -29 -160 -8 -60 -21 -136 -29 -167 -21 -81 -31 -518
-17 -715 18 -251 47 -410 121 -654 11 -36 20 -73 20 -82 0 -28 55 -179 100
-274 23 -48 52 -112 66 -140 13 -29 35 -77 49 -106 14 -30 25 -57 25 -61 0 -5
15 -33 33 -63 l32 -55 144 7 c202 10 255 35 324 155 45 80 75 183 87 301 6 62
13 116 16 120 3 5 12 50 20 101 19 122 51 232 144 503 20 58 70 165 100 213
16 27 26 33 48 30 25 -3 27 -7 26 -43 -1 -50 -42 -343 -49 -354 -3 -5 -14 -67
-25 -137 -20 -130 -26 -165 -60 -349 -11 -55 -26 -156 -35 -225 -8 -69 -20
-138 -25 -154 -6 -16 -15 -70 -21 -120 -5 -50 -15 -105 -20 -122 -5 -17 -14
-57 -19 -89 -5 -31 -15 -63 -21 -71 -17 -20 -2596 -21 -2623 -1 -18 13 -18 18
-2 103 9 49 22 136 30 194 18 130 41 263 61 355 8 39 20 108 25 155 6 47 15
99 20 115 5 17 19 98 30 180 11 83 27 186 34 230 27 148 55 309 72 400 9 50
24 149 34 220 21 148 64 404 78 461 6 22 13 68 17 104 3 36 12 90 20 120 7 30
19 100 25 155 6 55 19 143 30 195 10 52 21 120 25 150 4 30 13 80 20 110 8 30
17 82 20 115 4 33 15 98 25 145 10 47 21 117 24 155 3 39 15 117 26 175 30
159 50 273 69 401 10 64 21 121 24 126 3 5 13 70 22 144 9 74 23 163 30 199 8
36 19 103 25 148 6 46 15 94 19 105 5 12 14 63 20 112 7 50 18 119 26 155 8
36 19 108 25 160 6 52 17 124 25 160 7 36 19 103 25 150 6 47 17 108 25 135 7
28 16 79 20 115 3 36 12 90 20 120 7 30 19 100 25 155 6 55 19 143 30 195 10
52 21 120 25 150 4 30 13 80 20 110 7 30 16 80 19 110 4 30 15 100 26 155 11
55 26 150 34 210 20 147 43 286 61 365 8 36 19 103 25 150 6 47 16 102 21 122
5 21 18 105 29 188 11 83 22 155 25 160 3 5 12 57 20 117 9 59 20 122 25 138
5 17 14 71 20 120 7 50 18 115 25 145 7 30 18 102 25 160 6 58 18 132 25 165
7 33 18 96 24 140 6 44 18 109 25 145 19 85 41 221 66 400 21 156 45 267 62
287 8 10 342 13 1674 13 l1664 0 14 -22z m8059 10 c14 -12 14 -17 -6 -55 -12
-23 -44 -73 -70 -110 -45 -63 -72 -103 -178 -258 -22 -33 -85 -125 -139 -205
-178 -261 -324 -464 -382 -531 -70 -82 -80 -84 -328 -99 -266 -15 -504 -32
-510 -35 -3 -2 -62 -9 -130 -15 -338 -30 -975 -118 -1240 -170 -52 -11 -124
-24 -160 -30 -261 -43 -840 -194 -1050 -273 -36 -14 -80 -28 -97 -32 -31 -6
-33 -5 -33 23 0 19 23 69 63 135 67 114 132 225 187 323 19 34 55 96 80 139
25 43 61 106 80 140 19 34 54 95 78 136 24 41 47 81 51 89 5 8 40 69 79 135
73 126 119 207 216 377 32 57 78 135 101 173 23 39 46 80 49 92 4 12 19 32 33
43 26 20 34 20 1657 20 1290 0 1636 -3 1649 -12z m-592 -3932 c9 -18 6 -46
-10 -122 -11 -55 -23 -130 -27 -169 -3 -38 -14 -113 -25 -165 -11 -52 -23
-124 -28 -160 -4 -36 -15 -103 -24 -150 -38 -195 -49 -262 -67 -403 -10 -81
-21 -151 -25 -156 -3 -5 -12 -58 -20 -117 -9 -60 -22 -133 -29 -164 -8 -30
-17 -86 -21 -123 -4 -37 -11 -82 -16 -100 -5 -18 -18 -99 -29 -180 -11 -81
-24 -164 -29 -185 -5 -20 -15 -73 -21 -117 -6 -44 -17 -111 -25 -150 -21 -102
-42 -231 -65 -394 -11 -79 -27 -178 -35 -220 -17 -85 -38 -202 -65 -366 -10
-60 -23 -139 -29 -175 -6 -36 -18 -110 -26 -165 -25 -174 -46 -297 -66 -387
-10 -48 -19 -98 -19 -113 0 -14 -9 -70 -19 -123 -11 -53 -25 -140 -31 -192 -6
-52 -17 -124 -25 -160 -7 -36 -19 -103 -25 -150 -6 -47 -15 -98 -20 -115 -5
-16 -16 -79 -25 -138 -8 -60 -17 -112 -19 -116 -3 -4 -14 -77 -26 -161 -11
-84 -24 -170 -30 -189 -5 -20 -14 -74 -20 -121 -11 -79 -28 -164 -51 -252
l-10 -38 -1302 0 c-739 0 -1308 4 -1316 9 -15 10 -15 14 18 263 11 81 22 152
25 157 3 5 10 42 16 82 5 41 19 124 30 184 42 235 61 344 75 455 9 63 22 144
30 180 8 36 15 78 15 93 0 16 9 70 19 120 25 118 48 253 66 392 14 104 34 223
70 415 9 47 22 129 30 184 8 54 19 115 24 135 5 20 17 95 25 166 9 72 20 146
26 165 5 19 15 73 21 120 6 47 17 110 24 140 8 30 17 82 20 115 4 33 14 90 22
127 8 37 23 129 33 205 24 173 46 312 70 428 24 120 47 260 70 433 11 79 22
147 25 152 3 5 12 60 21 122 8 62 19 127 24 143 5 17 16 75 24 130 8 55 22
141 31 190 8 50 18 105 21 123 7 43 36 60 188 111 67 22 186 63 266 91 169 60
568 193 655 220 233 70 341 100 366 100 15 0 79 7 141 15 62 8 174 19 248 25
74 5 203 17 285 26 198 20 456 41 528 43 52 1 59 -1 68 -23z m-3006 -685 c3
-5 1 -12 -5 -16 -5 -3 -10 -13 -10 -22 0 -13 -28 -65 -113 -213 -11 -19 -34
-62 -52 -95 -18 -33 -108 -195 -200 -360 -92 -165 -190 -343 -217 -395 -28
-52 -56 -102 -63 -110 -7 -8 -34 -55 -60 -105 -60 -113 -85 -159 -115 -210
-13 -22 -31 -56 -41 -75 -9 -19 -41 -76 -69 -125 -29 -50 -69 -121 -90 -160
-20 -38 -101 -184 -179 -323 -77 -139 -141 -256 -141 -259 0 -3 -8 -17 -19
-31 -17 -25 -85 -148 -119 -217 -8 -16 -23 -41 -32 -55 -10 -14 -43 -74 -75
-135 -32 -60 -62 -116 -68 -123 -12 -16 -43 -69 -59 -102 -11 -22 -116 -212
-138 -250 -5 -8 -77 -139 -160 -290 -83 -151 -155 -282 -161 -290 -5 -8 -15
-26 -21 -40 -7 -14 -20 -36 -29 -50 -9 -14 -42 -74 -74 -135 -32 -60 -63 -117
-70 -125 -7 -8 -25 -40 -41 -70 -15 -30 -55 -104 -89 -163 -33 -60 -80 -147
-105 -193 -25 -46 -51 -89 -58 -96 -6 -6 -12 -16 -12 -21 0 -15 -214 -391
-230 -404 -11 -10 -198 -12 -796 -13 -780 0 -781 0 -800 21 -18 20 -32 71 -69
259 -9 47 -23 114 -32 150 -8 36 -21 98 -29 138 -7 40 -16 78 -20 84 -5 7 -16
51 -25 98 -32 163 -73 352 -109 505 -39 167 -53 231 -71 325 -12 58 -29 139
-39 180 -58 241 -82 346 -115 510 -31 153 -77 358 -111 492 -20 82 -18 97 22
164 69 115 86 169 86 274 0 74 -4 107 -21 149 -12 29 -19 62 -16 72 6 19 44
39 120 65 22 7 74 26 115 42 41 16 120 46 175 66 55 20 118 44 140 52 22 8
137 51 255 95 118 44 226 84 240 90 14 6 54 22 90 35 64 22 97 35 295 108 55
20 129 48 165 61 36 13 94 35 130 48 89 34 244 91 505 187 121 44 236 87 255
94 51 21 254 96 330 122 36 12 94 34 130 47 72 27 317 117 635 233 116 42 239
88 275 101 36 14 90 33 120 43 30 10 93 33 140 50 84 31 152 56 500 180 96 34
220 80 275 100 99 38 159 49 170 31z m-7931 -5856 c406 -63 674 -265 788 -595
91 -265 47 -687 -102 -976 -79 -154 -212 -317 -345 -423 -164 -131 -381 -226
-629 -278 -111 -23 -150 -25 -469 -30 -398 -6 -358 4 -376 -103 -4 -30 -16
-95 -25 -145 -41 -218 -56 -306 -66 -390 -13 -113 -54 -313 -67 -326 -7 -7
-675 -15 -841 -10 -36 1 -45 40 -26 124 8 40 21 115 29 167 7 52 18 113 24
135 5 22 15 83 21 135 6 52 19 142 30 200 10 58 27 146 36 195 9 50 22 135 30
189 8 55 19 116 24 135 6 20 17 95 26 166 8 72 20 148 26 170 9 38 18 88 68
393 11 68 22 127 25 131 2 5 11 64 20 132 14 118 33 231 75 454 10 55 22 125
25 155 4 30 13 80 20 110 12 48 35 212 35 247 0 7 10 21 22 33 22 20 31 20
771 20 626 0 766 -3 851 -15z m2881 -10 c14 -13 25 -30 25 -37 0 -32 22 -191
39 -283 22 -117 36 -199 61 -350 43 -263 50 -308 96 -605 8 -52 21 -126 29
-165 19 -91 41 -227 66 -400 10 -77 26 -171 33 -210 8 -38 17 -97 21 -130 3
-33 13 -82 20 -110 8 -27 17 -79 20 -115 4 -36 15 -103 25 -150 10 -47 21
-119 25 -160 4 -41 15 -118 25 -170 11 -52 24 -129 29 -170 6 -41 15 -91 21
-110 13 -46 13 -63 -3 -83 -11 -16 -48 -18 -462 -18 -441 0 -450 0 -471 20
-24 24 -29 44 -44 186 -6 55 -17 134 -25 175 -7 41 -17 102 -20 135 -4 33 -11
67 -16 76 -20 38 -50 40 -556 37 -468 -3 -492 -4 -512 -22 -20 -18 -49 -75
-153 -296 -38 -79 -53 -112 -107 -231 -39 -85 -4 -79 -487 -80 -236 0 -441 0
-456 1 -60 1 -51 29 107 348 81 163 159 320 173 347 15 28 46 91 70 140 24 50
50 104 59 120 55 107 135 267 396 795 689 1391 749 1510 770 1525 18 13 102
15 600 15 l578 0 24 -25z m2845 5 c153 -25 228 -48 346 -105 119 -59 218 -138
285 -227 80 -106 107 -160 141 -278 29 -99 31 -115 30 -270 0 -91 -5 -185 -10
-210 -57 -260 -71 -302 -148 -441 -108 -194 -267 -351 -468 -464 -37 -21 -72
-48 -78 -61 -11 -24 4 -73 64 -211 10 -23 18 -47 18 -53 0 -6 34 -96 75 -200
41 -104 75 -192 75 -197 0 -5 20 -61 45 -124 25 -63 56 -143 69 -179 13 -36
36 -97 51 -137 25 -64 26 -75 14 -93 -14 -21 -19 -21 -466 -21 -249 0 -457 2
-463 6 -17 11 -55 93 -93 205 -20 58 -51 141 -68 185 -17 44 -37 99 -44 121
-7 23 -20 55 -28 70 -8 16 -20 51 -26 79 -7 27 -16 54 -20 60 -5 5 -16 35 -26
65 -10 30 -21 60 -25 65 -5 6 -13 29 -19 52 -23 84 -60 153 -88 164 -35 14
-258 8 -273 -7 -6 -6 -15 -39 -20 -75 -5 -35 -16 -95 -25 -134 -19 -89 -41
-223 -65 -400 -11 -77 -24 -160 -30 -185 -6 -25 -17 -88 -24 -140 -21 -143 19
-131 -472 -131 -490 0 -448 -13 -428 138 8 54 18 111 23 128 5 16 15 71 21
120 6 50 16 108 22 130 5 22 18 101 29 175 25 188 47 320 70 422 10 48 19 98
19 113 0 14 9 70 20 123 11 53 24 138 30 187 11 94 38 252 70 415 10 52 22
122 25 155 4 33 13 85 20 115 7 30 21 113 30 184 9 70 22 156 29 190 8 33 17
88 21 121 3 33 12 85 20 115 7 30 16 78 19 105 5 41 33 202 52 302 11 56 -30
53 792 53 713 0 764 -1 882 -20z m2039 -8 c12 -29 -3 -180 -34 -342 -8 -41
-26 -142 -40 -225 -14 -82 -34 -199 -45 -260 -11 -60 -25 -153 -31 -205 -6
-52 -17 -123 -25 -158 -14 -59 -12 -102 4 -102 19 1 55 32 113 95 35 39 93
102 129 140 36 39 99 109 140 155 41 46 129 143 195 215 66 72 136 149 155
171 138 156 458 503 480 522 l28 22 489 -2 488 -3 3 -27 c2 -17 -5 -34 -21
-50 -28 -27 -140 -149 -252 -273 -44 -48 -107 -118 -141 -154 -33 -36 -152
-165 -264 -286 -111 -121 -232 -252 -269 -291 -36 -39 -104 -113 -151 -164
-47 -52 -106 -116 -133 -144 -60 -64 -65 -83 -37 -143 12 -27 35 -75 51 -109
16 -33 29 -63 29 -67 0 -4 29 -66 64 -139 35 -73 67 -144 71 -158 4 -14 15
-41 25 -60 33 -64 112 -235 125 -270 7 -19 26 -62 43 -95 16 -33 46 -98 66
-145 37 -84 46 -104 126 -273 22 -47 40 -89 40 -93 0 -8 36 -87 102 -220 34
-69 38 -85 29 -103 -7 -11 -22 -21 -34 -22 -12 0 -238 0 -501 0 -471 0 -480 0
-508 21 -15 11 -28 26 -28 33 0 7 -14 39 -30 72 -16 33 -30 66 -30 74 0 8 -12
39 -26 70 -64 137 -114 249 -114 256 0 10 -97 234 -120 277 -11 20 -20 43 -20
49 0 29 -153 349 -167 349 -8 0 -67 -55 -132 -122 -209 -218 -218 -229 -231
-295 -6 -32 -15 -71 -20 -88 -5 -16 -14 -77 -20 -135 -7 -58 -18 -132 -25
-165 -7 -33 -19 -98 -25 -144 -14 -100 -45 -230 -59 -244 -7 -7 -718 -13 -843
-7 -4 0 -15 11 -23 24 -14 22 -15 30 -1 83 8 32 17 83 21 113 3 30 14 100 25
155 45 244 61 338 75 454 9 69 18 128 21 132 2 4 11 54 19 111 9 57 22 132 30
168 17 82 40 216 64 390 10 74 26 169 34 210 8 41 18 104 22 140 4 36 12 76
17 90 5 13 16 72 24 130 8 58 19 121 24 140 5 19 16 94 25 165 9 72 20 146 26
166 5 20 16 85 24 144 9 59 18 111 20 115 3 5 14 68 25 140 11 73 29 152 39
176 l20 44 419 0 420 0 11 -28z m-1874 -3748 c150 -39 248 -148 248 -280 0
-68 -36 -173 -81 -234 -42 -57 -152 -160 -252 -235 -116 -88 -164 -135 -150
-149 7 -7 80 -12 186 -13 118 -1 180 -6 190 -14 18 -15 17 -46 -1 -133 -24
-115 15 -106 -460 -106 -334 0 -415 3 -430 14 -18 13 -18 19 -7 102 7 55 19
98 30 113 16 22 216 172 378 284 103 70 212 165 240 206 30 47 41 110 25 148
-23 57 -110 79 -184 48 -36 -15 -70 -50 -99 -104 l-17 -31 -124 0 c-135 0
-147 4 -147 56 0 58 85 191 150 235 163 110 321 139 505 93z m1025 -1 c111
-31 190 -99 244 -213 l31 -65 -1 -170 c-1 -161 -3 -175 -31 -260 -46 -135 -99
-230 -175 -311 -114 -120 -245 -176 -412 -175 -149 1 -227 31 -316 121 -82 83
-104 147 -108 318 -2 73 1 151 7 175 38 160 51 200 85 264 139 265 407 390
676 316z m1015 1 c77 -20 131 -51 182 -107 50 -54 68 -104 66 -187 -2 -112
-83 -251 -206 -352 -29 -23 -63 -52 -75 -65 -13 -12 -51 -41 -85 -65 -81 -57
-130 -109 -117 -122 9 -9 134 -15 341 -16 8 0 23 -6 33 -13 17 -12 17 -17 1
-103 -10 -49 -24 -99 -32 -111 l-13 -23 -413 0 c-333 0 -417 3 -432 14 -17 12
-18 19 -6 102 7 49 19 99 27 111 12 19 205 166 347 263 111 76 222 167 260
212 44 53 59 116 38 167 -17 39 -76 65 -135 59 -60 -7 -90 -28 -132 -94 l-35
-54 -125 0 -124 0 -11 27 c-24 63 47 194 141 264 147 107 319 139 505 93z
m965 -1 c107 -30 192 -99 232 -191 31 -69 22 -174 -20 -239 -32 -49 -42 -58
-125 -103 l-48 -27 48 -37 c99 -75 129 -143 113 -256 -31 -221 -361 -380 -653
-314 -88 20 -171 61 -214 106 -60 62 -101 185 -75 225 14 22 63 33 151 33 129
0 148 -6 171 -50 36 -71 147 -87 224 -33 71 50 89 128 40 174 -22 21 -37 24
-112 28 -48 1 -93 8 -99 13 -27 22 -9 172 23 195 10 7 35 13 55 13 77 0 138
20 179 59 107 102 29 202 -125 160 -26 -7 -55 -27 -83 -57 l-44 -47 -110 -4
c-123 -4 -158 6 -158 46 0 74 111 208 216 261 137 69 276 84 414 45z m-4707
-576 c0 -37 -4 -74 -7 -82 -5 -13 -299 -15 -2335 -15 -1675 0 -2332 3 -2337
11 -8 14 44 118 71 141 19 16 158 17 2315 15 l2295 -2 -2 -68z m-65 -401 c23
-14 7 -131 -22 -155 -9 -8 -897 -11 -3253 -11 -1783 0 -3247 2 -3255 5 -12 5
-12 18 -4 83 l11 77 3190 5 c3617 6 3317 6 3333 -4z"/>
<path d="M4791 6847 c-20 -24 -40 -95 -51 -179 -6 -46 -17 -112 -25 -148 -8
-36 -19 -108 -25 -160 -6 -52 -20 -139 -31 -192 -23 -117 -25 -181 -4 -198 11
-9 65 -11 218 -8 185 4 208 7 275 31 204 72 314 198 355 406 18 91 19 111 8
165 -31 154 -111 236 -268 277 -96 24 -433 29 -452 6z"/>
<path d="M7722 6611 c-18 -24 -32 -49 -32 -54 0 -6 -34 -79 -75 -164 -41 -85
-75 -157 -75 -159 0 -3 -31 -69 -69 -147 -37 -78 -72 -153 -76 -167 -4 -14
-37 -86 -72 -160 -48 -99 -63 -138 -55 -150 8 -13 51 -15 298 -18 159 -1 299
0 311 3 31 7 36 33 19 116 -8 41 -18 103 -21 139 -4 36 -15 117 -25 180 -10
63 -24 171 -30 239 -6 68 -18 157 -26 198 -8 41 -14 87 -14 101 -1 15 -7 40
-14 57 l-12 30 -32 -44z"/>
<path d="M10473 6840 c-13 -11 -23 -25 -23 -30 0 -25 -22 -169 -30 -195 -5
-16 -17 -88 -25 -160 -9 -71 -23 -155 -30 -185 -8 -30 -17 -82 -20 -115 -10
-91 -17 -88 253 -83 213 5 231 7 301 31 181 65 275 176 301 355 25 168 -15
274 -127 336 -89 51 -134 58 -363 63 -208 4 -216 4 -237 -17z"/>
<path d="M12290 3549 c-61 -25 -120 -112 -161 -234 -19 -59 -23 -92 -23 -206
-1 -131 0 -137 26 -177 65 -97 194 -73 267 49 22 38 54 122 73 194 6 22 11 94
12 160 1 126 -7 158 -52 198 -23 21 -107 31 -142 16z"/>
</g>
</svg>
