<svg width="596" height="842" viewBox="0 0 596 842" fill="none" xmlns="http://www.w3.org/2000/svg">
<path d="M537.228 488.53C531.728 503.32 526.358 518.21 517.618 531.53C515.518 534.73 513.028 537.7 509.858 539.77C506.138 542.19 501.698 541.91 498.748 538.9C491.618 531.63 482.168 529.86 473.138 527.2C462.698 524.13 452.028 523.47 441.138 524.97C432.338 526.18 423.688 524.08 415.118 522.16C406.848 520.32 399.298 516.85 392.358 511.99C383.388 523.51 372.588 533.15 361.498 542.46C357.618 545.72 353.388 548.57 349.308 551.56C348.588 552.09 347.868 552.57 347.588 553.45C344.238 564.16 335.998 570.47 327.108 576.16C322.828 578.9 318.508 581.6 313.078 581C300.338 579.58 289.038 575.36 280.138 565.49C274.698 559.46 270.238 552.68 264.718 546.73C260.558 542.24 255.008 540.03 249.948 536.98C243.808 533.27 236.628 531.79 230.678 527.67C220.838 520.84 211.818 513.19 204.988 503.21C203.048 500.38 200.068 498.49 198.288 495.41C190.168 505.46 181.588 514.77 172.688 523.81C169.248 527.3 165.278 529.36 160.498 529.95C158.338 530.22 156.368 529.85 154.388 528.61C145.288 522.89 138.188 514.9 130.378 507.71C120.218 498.34 111.728 487.51 103.408 476.55C101.608 474.18 99.0078 474.4 97.0078 473.03C97.0478 472.42 97.3478 472.17 97.7378 472.06C98.0278 471.96 98.3678 471.94 98.6878 471.88C102.408 471.74 104.668 473.98 106.618 476.72C107.128 477.21 107.628 477.73 108.108 478.25C108.798 478.96 109.448 479.7 110.108 480.44C113.168 483.93 115.948 487.68 118.938 491.25C118.958 491.28 118.978 491.31 118.988 491.34C119.458 491.9 119.938 492.46 120.418 493.01C120.528 493.14 120.648 493.27 120.748 493.4C127.728 500.44 134.818 507.37 141.848 514.36C142.078 514.54 142.288 514.71 142.518 514.91H142.528C143.738 515.89 144.938 516.89 146.058 518C146.298 518.2 146.528 518.44 146.758 518.68C148.838 520.88 151.058 522.91 153.528 524.65C157.968 527.77 162.538 527.7 167.028 524.54C168.868 523.25 170.168 521.34 172.168 520.27C173.048 520.03 173.728 519.58 173.918 518.6C176.048 515.45 178.908 512.96 181.378 510.11C185.198 505.72 189.208 501.52 193.128 497.22C195.028 495.13 196.228 493.31 194.028 490.79C193.718 490.42 193.698 489.89 193.678 489.39C193.688 489.21 193.698 489.01 193.728 488.84C193.768 488.6 193.838 488.38 193.958 488.18C194.088 487.96 194.268 487.77 194.548 487.64C194.578 487.62 194.608 487.6 194.648 487.59C194.688 487.59 194.748 487.59 194.788 487.6C196.398 487.74 196.898 489.19 197.668 490.24C198.348 491.16 199.058 492.02 199.848 492.83C199.898 492.92 199.958 492.99 200.018 493.07C200.058 493.16 200.118 493.23 200.178 493.31C201.198 494.71 202.548 495.83 203.628 497.17C204.688 498.48 205.318 498.02 205.868 496.75C206.358 495.61 206.488 494.32 207.168 493.24C207.488 492.33 207.748 491.41 207.748 490.49C207.748 489.8 207.608 489.11 207.258 488.41C205.968 486.61 205.798 484.42 205.168 482.4C203.128 475.76 199.298 470.12 195.358 464.54C194.738 463.66 194.088 462.54 192.848 462.56C192.668 462.56 192.458 462.58 192.248 462.65C192.208 462.66 192.148 462.67 192.098 462.69C186.708 463.88 182.658 466.79 179.428 471.36C175.148 477.42 171.038 483.55 167.578 490.11C165.608 493.83 163.008 497.11 160.478 500.45C159.828 501.31 159.098 502.1 157.958 502.32C157.898 502.33 157.828 502.33 157.768 502.33C157.608 502.33 157.448 502.32 157.298 502.28C156.978 502.2 156.698 502.05 156.418 501.87C156.328 501.81 156.238 501.74 156.148 501.67C155.978 501.55 155.808 501.41 155.628 501.28C149.098 496.24 143.208 490.37 135.958 486.28C129.178 482.46 123.008 477.74 116.638 473.32C114.538 471.87 112.698 470.16 110.818 468.47C108.688 466.55 108.138 464.27 108.768 461.6C109.298 459.32 109.848 457.05 110.508 454.8C110.888 453.79 110.848 452.7 111.108 451.66C111.508 446.4 112.538 441.19 112.548 435.9V435.88C112.628 435.56 112.658 435.22 112.728 434.91C112.858 434.43 113.098 434.01 113.808 433.9C115.178 436.78 114.808 439.91 114.408 442.81C113.588 448.81 113.278 454.9 111.228 460.72C109.928 464.43 111.168 466.71 114.658 469.1C122.358 474.36 129.958 479.74 138.268 484.08C145.078 487.64 150.548 493 156.048 498.23C158.058 500.14 158.658 499.35 159.708 497.5C165.018 488.01 169.968 478.3 176.638 469.62C180.448 464.67 184.598 460.58 191.248 460.09C191.948 460.04 192.858 459.93 193.148 458.69C193.678 456.38 195.538 454.97 197.408 453.73C200.278 451.82 201.018 447.11 198.728 444.48C198.018 443.67 197.208 442.96 196.448 442.21C193.608 439.4 191.298 436.22 186.158 438.44C180.818 440.74 175.378 438.68 170.588 436.02C166.258 433.62 161.828 431.45 157.448 429.14C147.308 423.81 140.898 411.63 142.378 400.21C142.578 398.62 143.048 397.41 140.488 397.31C138.888 397.25 137.338 395.8 137.308 393.68C137.188 393.14 136.918 392.57 137.568 392.15C137.748 392.12 137.918 392.13 138.048 392.23C138.058 392.22 138.068 392.24 138.068 392.24C138.088 392.24 138.098 392.25 138.108 392.26C139.894 393.9 141.384 393.68 142.578 391.6C142.628 391.52 142.708 391.47 142.808 391.43C142.868 391.4 142.948 391.38 143.028 391.35C143.048 391.35 143.078 391.34 143.108 391.34C143.388 391.33 143.648 391.39 143.858 391.52C143.878 391.53 143.908 391.55 143.948 391.57C144.078 391.67 144.188 391.8 144.278 391.96C144.308 392.1 144.328 392.23 144.358 392.36C144.398 392.52 144.418 392.68 144.448 392.84C145.018 396.29 144.488 399.77 144.678 403.24C144.768 404.87 144.518 406.53 144.898 408.14C144.938 408.23 144.998 408.32 145.038 408.41C145.138 408.59 145.238 408.78 145.348 408.95C146.338 411.8 147.648 414.51 148.968 417.22C152.068 423.55 157.708 426.68 163.828 429.18C168.778 431.2 173.248 434.23 178.308 436C178.538 436.06 178.758 436.12 178.988 436.17C178.998 436.17 179.018 436.18 179.038 436.18C179.078 436.19 179.128 436.2 179.168 436.21C181.798 436.82 184.438 436.94 187.048 436.25C187.058 436.25 187.068 436.25 187.078 436.24C187.108 436.23 187.128 436.22 187.158 436.22C187.198 436.21 187.248 436.2 187.278 436.19H187.288C187.448 436.14 187.608 436.09 187.758 436.04C187.868 436.01 187.958 435.98 188.068 435.93C188.148 435.91 188.208 435.89 188.288 435.85C188.298 435.85 188.318 435.84 188.328 435.84C189.178 435.49 190.058 435.42 190.948 435.49H191.088C191.088 435.49 191.148 435.52 191.188 435.53C191.238 435.55 191.298 435.57 191.348 435.61C191.358 435.61 191.358 435.62 191.358 435.62H191.368C196.128 437.72 199.708 441.11 202.038 445.81V445.89C202.038 445.89 202.048 445.89 202.038 445.9C202.048 446.01 202.058 446.13 202.058 446.23C202.118 447.31 202.108 448.37 202.098 449.43V449.91C201.378 452.94 202.228 455.44 204.178 457.91C206.318 460.62 207.848 463.82 210.348 466.3C210.908 466.85 211.228 467.57 211.188 468.4C211.178 468.5 211.168 468.59 211.148 468.69C211.118 468.84 211.088 468.99 211.018 469.13C210.878 469.58 210.618 469.98 210.218 470.3H210.208C210.208 470.3 210.148 470.3 210.108 470.29C207.808 469.84 206.718 467.83 205.568 466.21C203.748 463.69 201.938 461.14 200.308 458.46C199.718 457.49 199.288 455.74 197.548 457C196.038 458.09 195.698 459.51 197.028 461C199.998 464.3 202.018 468.23 204.308 471.98C207.128 476.59 208.938 481.66 210.258 486.88C211.388 491.43 210.848 495.81 208.428 499.86C207.688 501.11 208.048 502.02 208.698 503.1C210.238 505.64 212.308 507.7 214.398 509.76C221.578 516.82 228.998 523.54 238.118 528.19C240.648 529.48 242.798 529.74 245.308 528.65C253.498 525.1 261.058 520.5 268.318 515.31C274.608 510.79 280.638 506.01 285.268 499.72C287.478 496.7 289.548 493.55 287.638 489.52C287.538 489.35 287.438 489.15 287.358 488.97C287.318 488.85 287.268 488.73 287.248 488.62C287.238 488.58 287.228 488.53 287.228 488.49C287.188 488.09 287.088 487.9 286.908 487.88C286.888 487.87 286.868 487.87 286.848 487.87C286.718 487.88 286.558 487.97 286.368 488.11C285.848 487.99 285.548 487.74 285.378 487.41C285.298 487.27 285.238 487.1 285.208 486.93C285.128 486.66 285.108 486.38 285.078 486.09C286.288 477.69 284.388 470.34 278.208 464.19C275.328 461.33 271.638 460.53 268.068 459.35C261.078 457.02 255.108 453.21 250.438 447.48C249.868 446.77 249.178 446.11 249.148 445.11C249.138 445.07 249.138 445.02 249.138 444.97V444.94C249.418 444.1 250.038 443.91 250.798 443.9H250.958C251.068 443.93 251.158 443.96 251.268 444.01C253.518 444.86 254.878 446.88 256.588 448.4C261.268 452.55 267.048 454.4 272.738 456.29C278.298 458.14 282.998 461.11 285.508 466.25C287.878 471.06 292.078 473.21 296.128 475.81C297.208 476.49 298.598 476.79 298.928 478.26C298.928 478.29 298.938 478.32 298.938 478.37C298.948 478.4 298.958 478.43 298.958 478.47C298.908 478.79 298.768 479.04 298.528 479.21C298.468 479.27 298.378 479.32 298.288 479.35C298.248 479.38 298.198 479.4 298.158 479.43C294.728 479.38 292.378 476.89 289.188 475.4C289.578 478.71 289.358 481.86 289.468 485.01C289.498 485.81 289.708 486.55 290.128 487.22C292.138 490.55 294.098 493.93 296.098 497.27C298.988 502.11 303.758 502.89 308.668 503.39C310.548 503.57 311.278 501.92 312.108 500.63C315.828 494.8 319.338 488.81 323.538 483.31C325.698 480.47 327.488 477.29 330.378 475.04C331.428 474.24 332.008 473.09 332.688 472.01C332.698 471.13 333.198 470.61 333.968 470.3C334.808 469.71 335.438 468.96 335.818 467.99C336.548 465.93 337.718 464.22 339.698 463.16C344.218 458.02 347.798 452.2 351.718 446.63C352.958 444.88 354.308 443.22 355.558 441.47C358.948 436.7 363.838 434.84 369.408 434.51C381.888 433.77 394.108 431.61 406.018 427.74C408.248 427.02 410.498 425.76 412.978 427.42C413.648 427.87 414.648 427.24 415.488 426.97C424.608 424.08 434.068 422.44 443.118 419.3C447.748 417.7 451.968 415.32 455.838 412.39C460.228 409.06 461.818 403.86 463.988 399.17C468.878 388.56 471.448 377.37 471.728 365.66C471.808 362.55 472.078 359.41 473.468 356.55C474.578 354.28 475.938 353.5 478.818 354.27C487.498 356.61 489.368 363.76 490.888 370.88C493.628 383.67 494.898 396.67 494.438 409.77C494.218 416.25 493.238 422.7 490.278 428.66C487.938 433.39 484.678 434.94 479.518 433.64C476.898 432.97 474.208 432.43 471.708 431.4C467.798 429.81 463.868 430.08 460.128 431.29C454.968 432.97 449.978 435.11 445.568 438.48C441.948 441.26 438.008 443.63 433.888 445.64C430.348 447.37 427.058 449.15 424.368 452.35C421.948 455.21 417.828 456.06 414.258 457.26C404.448 460.58 394.348 462.45 383.998 462.99C383.128 463.03 382.248 462.88 381.378 462.8C375.648 462.24 374.378 462.84 373.428 468.43C372.138 476.07 370.648 483.68 369.038 491.27C369.008 491.44 369.138 491.64 369.268 492.09C373.458 489.8 377.678 487.65 381.728 485.23C384.688 483.47 387.458 483.13 390.828 484.21C406.798 489.31 422.638 494.92 439.008 498.62C452.348 501.64 464.908 507.16 478.168 510.35C481.358 511.12 484.478 512.3 487.708 512.83C490.168 513.24 492.838 512.81 494.848 511.17C506.818 501.45 518.808 491.73 526.428 477.89C527.798 475.42 530.258 474.62 532.618 473.91C534.658 473.3 537.588 476.77 537.908 479.89C538.208 482.83 538.218 485.84 537.198 488.58L537.228 488.53Z" fill="#383938"/>
<path d="M122.159 388.84C119.379 387.78 117.329 385.63 114.939 384C108.459 379.55 101.259 377.13 93.5189 376.47C76.5789 375.04 64.2289 363.64 61.7689 346.92C61.3689 344.23 60.9889 341.54 60.6689 338.84C60.5489 337.79 60.4389 336.37 61.7089 336.13C63.0589 335.87 62.9589 337.34 63.1289 338.21C64.3389 344.61 67.8389 349.28 73.4689 352.5C76.5789 354.28 79.7889 355.27 83.8189 355.06C81.0889 350.63 77.5489 347.41 73.8489 344.51C64.8689 337.44 60.1889 328.09 58.2689 317.07C56.7989 308.63 56.7889 300.22 58.2489 291.78C58.4489 290.62 58.7789 289.59 59.7389 287.88C60.4789 291.99 62.2889 294.71 66.0989 296.03C64.7989 290.24 63.9289 284.53 64.1789 278.73C64.4189 272.99 64.6389 267.24 66.2189 260.8C68.0789 265.56 69.5489 269.61 71.2289 273.56C75.0889 282.6 80.4189 290.28 90.4789 293.28C92.1389 293.77 93.8489 294.14 95.5589 294.41C106.199 296.11 111.189 305.95 112.299 313.67C112.869 317.67 112.279 321.65 112.789 325.61C113.649 332.26 115.559 338.31 121.639 342.24C123.149 343.22 124.769 344.24 125.799 345.85C125.019 346.72 124.019 346.64 122.999 346.52C117.859 344.03 113.549 340.71 111.709 334.98C110.099 329.95 109.079 324.97 109.409 319.52C109.869 311.74 107.729 304.64 100.869 299.78C99.2089 298.6 97.3789 298.02 95.4689 297.7C92.0789 297.13 88.7389 296.24 85.6489 294.88C81.6189 293.1 78.2089 290.3 75.4289 286.81C71.4889 281.86 68.8389 276.25 67.0789 270.71C67.4389 272.17 66.6589 274.05 66.6689 275.97C66.6889 282.22 66.9689 288.44 68.6189 294.52C68.9889 295.86 69.2189 297.29 67.9989 298.33C66.7189 299.43 65.4189 298.66 64.1889 298.08C63.0389 297.54 61.9389 296.92 60.9989 296.06C60.4489 295.6 60.2389 295.76 60.1989 296.45C59.8289 303.74 60.0889 310.96 61.3689 318.19C63.3289 329.29 69.4389 337.6 77.8989 344.51C79.7889 346.06 81.5789 347.71 83.1589 349.56C84.5389 351.18 85.9489 352.85 85.8789 355.21C85.6489 356.77 84.5389 357.15 83.2089 357.21C81.5989 357.28 79.9789 357.25 78.3689 357.23C73.6789 357.02 70.7889 353.62 67.4389 351.04C66.5989 350.39 65.8889 349.57 65.1489 348.8C64.6489 348.26 64.1489 347.71 63.9889 346.95C64.0789 347.74 64.5589 348.42 64.7689 349.18C67.1089 356.81 70.6289 363.67 77.4889 368.23C81.8989 371.16 86.6589 372.88 92.1089 373.39C102.209 374.35 111.809 377.14 119.649 384.15C120.009 385.96 122.889 386.42 122.149 388.82L122.159 388.84Z" fill="#383938"/>
<path d="M122.778 345.9C123.788 345.89 124.798 345.88 125.808 345.87C130.798 350.06 131.678 355.9 132.148 361.86C132.478 365.97 133.318 369.78 137.088 372.21C139.338 373.66 141.548 374.3 144.018 372.37C145.978 370.84 148.148 371.56 150.598 374.19C152.208 371.2 154.968 369.62 157.778 368.04C164.058 364.5 170.638 362.34 177.968 362.19C184.468 362.05 190.248 363.48 195.368 367.52C200.488 371.56 205.608 375.59 210.788 379.55C220.158 386.73 224.048 397.06 227.128 407.84C227.768 410.07 228.048 412.4 228.498 414.69C229.898 421.82 228.668 425.01 222.308 428.74C219.848 430.18 219.758 431.08 221.738 432.88C223.598 434.57 224.898 436.85 227.088 438.24C228.938 439.41 230.318 439.36 231.458 437.2C232.918 434.44 237.028 432.65 240.078 433.21C240.668 433.72 241.378 433.06 241.988 433.38C244.518 434.55 245.588 437.14 247.408 439C248.218 439.83 248.888 440.81 249.728 441.63C250.358 442.48 251.518 443.04 251.248 444.38C250.538 444.41 249.778 444.33 249.388 445.15C246.798 444.25 245.308 442.04 243.558 440.17C242.498 439.04 241.448 437.91 240.378 436.8C239.448 435.84 238.428 435.72 237.208 436.27C234.188 437.63 233.968 438.35 235.868 441.15C236.558 442.17 237.558 443.14 236.618 444.53C235.488 445.1 234.698 444.32 233.828 443.84C232.198 442.14 230.448 441.31 227.858 441.25C224.738 441.17 222.788 438.42 220.888 436.09C218.648 433.503 215.922 432.987 212.708 434.54C210.348 435.67 207.938 436.67 205.428 437.42C203.058 437.65 200.688 437.69 198.318 437.41C196.248 436.83 194.238 436.06 192.248 435.23C190.508 434.14 187.968 434.29 187.068 431.89C187.538 430.8 188.508 430.82 189.468 430.81C191.218 431.08 192.908 431.71 194.448 432.48C199.708 435.11 204.618 433.92 209.508 431.57C213.818 429.5 218.268 427.71 222.438 425.35C223.928 424.47 225.428 423.6 226.108 421.86C226.558 420.45 226.688 419.06 225.878 417.72C224.988 415.74 224.698 413.6 224.228 411.52C222.758 405.1 220.178 399.12 217.218 393.28C215.248 389.39 212.518 386.06 209.218 383.3C204.178 379.08 199.708 373.96 192.958 372.23C191.338 371.41 189.578 371.29 187.808 371.28C187.028 371.17 186.258 371.03 185.898 370.19C185.938 368.41 187.178 367.98 188.618 367.8C189.208 367.84 189.678 368.19 190.218 368.39C190.418 368.46 190.798 368.64 190.768 368.22C190.748 367.99 190.358 367.85 190.118 367.69C184.488 364.34 178.328 365.1 172.378 365.84C166.718 366.54 161.628 369.29 156.718 372.19C154.558 373.46 153.168 375.51 151.428 377.21C149.768 378.1 150.028 380.4 148.438 381.34C147.228 381.49 146.948 380.67 146.758 379.74C146.668 378.88 146.778 378.05 147.008 377.21C147.198 376.52 147.838 375.71 146.948 375.17C146.038 374.62 145.348 375.31 144.728 375.92C144.528 376.12 144.328 376.32 144.108 376.5C142.818 377.32 142.138 375.37 140.918 375.81C138.538 376.18 136.508 375.28 134.568 374.06C130.608 371.24 129.468 366.97 129.178 362.54C128.928 358.59 128.218 354.82 126.878 351.13C126.798 349.39 126.328 347.95 124.268 347.7C123.448 347.37 122.568 347.08 122.788 345.89L122.778 345.9Z" fill="#393837"/>
<path d="M391.07 407.65C386.17 401.91 380.93 396.62 372.18 398.6C373.05 396.75 374.44 395.89 375.89 394.88C378.17 393.3 381.14 393.3 383.12 391.36C384.3 390.21 386.29 389.12 385.22 387.04C384.23 385.13 382.1 385.49 380.48 385.85C377.39 386.53 374.36 387.48 371.39 388.66C367.98 390.03 364.9 391.7 363.14 395.13C363.33 395.35 363.57 395.5 363.85 395.57H363.86C363.92 395.58 363.98 395.58 364.04 395.58C365.39 395.6 366.14 394.55 367.06 393.81C371.61 390.17 377.11 389.18 383.09 387.69C381.94 389.87 380.38 390.36 378.86 390.94C374.32 392.69 370.46 395.21 368.66 400.01C368.65 400.04 368.63 400.09 368.62 400.12C368.63 400.26 368.65 400.4 368.7 400.52C368.78 400.78 368.91 400.99 369.11 401.17C369.17 401.22 369.24 401.28 369.31 401.32C369.41 401.37 369.5 401.43 369.62 401.47C372.51 401.21 375.32 400.26 378.25 400.47C378.49 400.48 378.71 400.51 378.93 400.57C379.61 400.71 380.23 401.01 380.84 401.34C380.86 401.36 380.88 401.37 380.92 401.38C381.01 401.42 381.1 401.48 381.19 401.53C381.95 401.97 382.67 402.44 383.36 402.96C383.39 402.99 383.42 403.01 383.46 403.04C384.7 403.96 385.83 405.01 386.88 406.12C387.39 406.64 387.87 407.16 388.34 407.7C388.53 407.9 388.73 408.12 388.91 408.33C388.95 408.39 388.99 408.46 389.01 408.52C389.06 408.63 389.07 408.76 389.05 408.87C389.03 408.95 388.94 409.06 388.9 409.06C387.95 409.02 387.31 408.35 386.75 407.78C384.13 405.09 380.49 404.45 377.27 402.96C377.23 402.94 377.17 402.92 377.13 402.9C377.01 402.91 376.9 402.92 376.8 402.95C376.37 403.05 376.04 403.26 375.91 403.77C375.9 403.78 375.89 403.8 375.89 403.82C375.89 403.83 375.9 403.85 375.9 403.86C376.84 407.99 375.88 410.19 372.09 412.74C370.86 413.57 369.2 413.94 368.8 415.71C368.8 415.71 368.803 415.717 368.81 415.73C368.81 415.78 368.82 415.83 368.85 415.87C368.91 416.14 369.08 416.34 369.31 416.49C369.36 416.52 369.41 416.55 369.47 416.58C369.49 416.6 369.52 416.61 369.56 416.62C375.27 415.7 378.22 419.49 381.09 423.42C378.41 421.91 375.97 419.97 372.95 419.14C372.83 419.12 372.7 419.11 372.58 419.1H372.57C371.7 419 370.83 419.01 369.97 419.12C369.74 419.15 369.53 419.2 369.31 419.27C369.25 419.28 369.19 419.3 369.13 419.32C368.21 419.7 367.41 420.24 366.83 421.06C366.77 421.16 366.69 421.25 366.63 421.36C366.61 421.39 366.59 421.42 366.55 421.46C366.53 421.49 366.51 421.54 366.47 421.58C366.28 421.88 366.08 422.17 365.88 422.47C365.71 422.74 365.53 423 365.32 423.24C365.2 423.41 365.08 423.56 364.94 423.71C364.8 423.88 364.65 424.05 364.49 424.22C363.11 426.39 360.97 427.87 359.35 429.82C359.13 430.1 358.9 430.34 358.63 430.54C358.07 431 357.42 431.31 356.76 431.63C356.73 431.65 356.7 431.66 356.66 431.67C356.65 431.68 356.64 431.69 356.63 431.69C356.17 431.95 355.69 432.16 355.2 432.35C354.87 432.48 354.52 432.59 354.18 432.68C354.14 432.69 354.09 432.7 354.05 432.72C353.87 432.77 353.68 432.85 353.51 432.94C353.49 432.95 353.46 432.96 353.43 432.97C351.7 434.07 349.34 434.56 349.18 437.13C349.17 437.18 349.16 437.25 349.17 437.32C349.16 437.37 349.16 437.44 349.16 437.5C349.59 437.7 349.99 437.65 350.35 437.37C351.84 436.6 352.65 435 354.62 434.65C358.71 433.93 361.74 431.32 364.24 428.1C365.9 425.96 367.43 423.71 369.15 421.63C370.24 420.32 371.42 419.94 373.18 421.11C375.08 422.38 377.2 423.36 379.02 424.8C380.27 425.79 381.7 425.99 383.16 425.56C384.73 425.11 385.61 424.24 384.05 422.75C383.15 421.89 382.16 421.13 381.2 420.31C381.39 420.12 381.59 419.92 381.78 419.73C382.66 420.07 383.34 420.89 384.36 420.92C385.3 420.95 386.14 420.95 386.1 419.64C385.98 415.94 385.95 412.22 382.72 409.55C381.84 408.82 381.05 407.97 380.06 407.02C381.5 406.73 382.46 406.75 383.43 407.72C384.67 408.95 386.16 409.9 387.54 410.99C389.14 412.25 390.96 411.65 392.11 410.7C393.5 409.56 391.68 408.35 391.05 407.61L391.07 407.65ZM376.48 412.42C378.68 413.87 380.81 415.71 380.76 419.16C378.34 417.3 376.55 414.91 373.27 414.27C374.66 413.7 375.28 411.64 376.48 412.42V412.42Z" fill="#3D3836"/>
<path d="M98.7408 472.54C98.1308 472.56 97.4708 472.43 97.0108 473.01C93.7508 471.81 91.0208 469.75 88.8908 467.12C84.6808 461.92 79.1808 459.07 72.9108 457.28C70.8008 456.68 68.7608 455.76 66.7908 454.8C65.8508 454.34 65.0008 453.41 65.4608 452.18C65.8308 451.19 66.7008 450.85 67.8008 450.8C69.7808 450.71 71.6008 451.21 73.4608 451.78C75.7508 452.48 78.0908 453.03 80.4108 453.63C81.2008 453.84 82.1008 453.9 82.5208 453.13C82.9508 452.34 82.0008 452 81.5608 451.61C78.2408 448.62 74.8608 445.68 71.5208 442.7C70.5008 441.79 69.7508 440.73 69.2808 439.38C68.9208 438.35 68.7208 437.64 69.6208 436.8C70.5508 435.93 71.3208 436.26 72.2408 436.74C76.5508 438.98 80.2408 442.13 84.1408 444.97C84.5408 445.18 84.9508 445.78 85.3508 444.97C82.8908 440.65 79.0008 437.39 76.5408 433.06C75.7308 431.64 74.6908 430.33 74.6308 428.59C74.5508 426.41 75.3808 425.88 77.4508 426.73C81.5708 428.42 83.4708 432.36 86.2708 435.38C87.5707 436.78 88.3308 438.63 89.9608 439.76C90.5108 440.52 91.4308 439.98 92.1008 440.34C93.1108 441.93 94.4008 444.1 92.7808 445.28C91.3908 446.29 89.9208 444.03 89.0408 442.82C86.4408 439.28 83.7108 435.85 81.0308 432.38C80.0608 431.12 79.1008 429.78 76.7808 429.08C78.5208 432.95 80.7708 435.72 83.0308 438.46C85.0208 440.87 87.0508 443.24 88.6808 445.92C89.1308 446.66 89.8208 447.48 89.3008 448.34C88.6608 449.39 87.5508 448.84 86.6208 448.74C84.9008 448.54 83.5408 447.69 82.3008 446.49C79.1608 443.44 75.4708 441.19 71.6308 439.09C72.5008 441.27 74.2208 442.68 75.9208 444.06C78.4208 446.09 80.9108 448.13 83.3208 450.26C84.3108 451.13 85.2108 452.07 84.7308 453.52C84.2308 455.03 82.9208 455.5 81.4908 455.59C78.7908 455.76 76.3208 454.73 73.8108 453.96C72.1008 453.44 70.4408 452.6 67.8608 452.96C74.0808 456.5 81.1207 456.73 86.0208 461.45C86.7008 462.13 87.3608 462.83 88.0608 463.49C90.9408 466.58 94.0008 469.44 97.8708 471.28C98.3708 471.52 98.9908 471.76 98.7508 472.55L98.7408 472.54Z" fill="#3F3835"/>
<path d="M363.137 395.13C363.417 395.17 363.697 395.21 363.977 395.24C364.427 397.11 363.187 398.37 362.257 399.69C360.627 402 358.877 404.21 357.567 406.75C351.987 417.62 344.287 426.56 334.077 433.46C324.377 440.02 315.097 447.17 306.347 454.98C305.187 456.02 303.987 457.03 302.537 457.67C302.097 457.78 301.667 457.75 301.257 457.55C301.157 457.44 301.057 457.33 300.957 457.22C305.197 452.21 310.707 448.64 315.637 444.42C323.237 437.92 331.767 432.65 339.587 426.45C345.517 421.74 349.987 415.69 353.677 409.24C356.517 404.28 359.647 399.61 363.127 395.12L363.137 395.13Z" fill="#3C3836"/>
<path d="M241.78 433.84C241.14 433.82 240.44 433.94 240.07 433.2C245.6 429.06 251.18 426.52 258.43 429.49C270.3 434.35 280.21 442.09 290.22 449.76C293.23 452.07 296.19 454.44 299.15 456.83C299.74 457.3 300.27 457.57 300.98 457.23L301.11 457.37C301.75 458.26 301.72 459.1 300.91 459.87C299.37 460.65 298.38 459.6 297.27 458.82C289.08 453.05 281.75 446.15 273.37 440.63C271.42 439.35 269.49 438.03 267.56 436.73C266.11 435.92 264.68 435.06 263.22 434.26C262.61 433.95 262 433.65 261.4 433.32C255.68 430.12 249.94 429.2 244.16 433.19C243.45 433.68 242.54 433.5 241.79 433.86L241.78 433.84Z" fill="#3C3836"/>
<path d="M350.358 437.39C345.188 444.33 339.688 450.99 333.968 457.47C327.398 464.93 320.418 471.99 312.728 478.33C308.098 482.27 303.268 482.18 298.298 479.29C298.168 479.23 298.028 479.14 297.898 479.06C298.178 478.79 298.458 478.51 298.738 478.23C298.798 478.22 298.868 478.21 298.928 478.2C300.338 477.96 301.688 478.44 303.038 478.74C305.918 479.37 308.308 478.62 310.618 476.78C320.188 469.16 328.458 460.26 336.298 450.93C339.678 446.91 342.988 442.82 346.418 438.84C347.098 438.07 347.748 437.1 349.038 437.32H349.168C349.568 437.34 349.968 437.35 350.348 437.37L350.358 437.39Z" fill="#3C3836"/>
<path d="M91.6301 440.29C90.5501 441.73 90.3601 440.43 89.9701 439.75C89.1201 435.03 86.5301 431.01 84.8201 426.64C84.2101 425.07 82.3801 423.04 84.6901 421.83C86.7701 420.74 88.1901 422.8 89.3201 424.37C93.2801 429.86 96.3301 435.88 99.4101 441.89C99.6901 442.4 99.4301 442.68 98.9801 442.88C97.1601 442.75 96.7201 441.17 96.0501 439.95C93.6601 435.59 91.2901 431.21 88.6101 427.02C88.0101 426.07 87.4401 425.07 86.1401 424.12C87.5701 428.24 89.5301 431.62 90.8201 435.28C91.3901 436.89 92.3601 438.47 91.6301 440.31V440.29Z" fill="#403B37"/>
<path d="M141.48 375.38C142.84 374.37 142.7 376.82 143.81 376.39C144.74 377.42 143.98 378.39 143.63 379.31C142.79 381.55 142 383.8 141.15 386.03C140.24 388.15 140.62 390.92 138.08 392.23C137.5 392.54 137.43 393.1 137.36 393.66C136.65 393.3 137.09 391.7 135.67 392.11C131.52 391.05 127.16 390.92 123.12 389.37C122.71 389.37 122.32 389.33 122.16 388.85C122.01 386.88 119.28 386.65 119.27 384.58C120.94 384.11 121.98 385.36 123.17 386.09C126.48 388.11 130.05 389.07 133.93 389.12C135.93 389.15 136.98 388.38 137.37 386.42C137.93 383.56 138.94 380.83 139.88 378.07C140.22 377.06 140.54 376.03 141.48 375.37V375.38Z" fill="#3C3936"/>
<path d="M98.6585 442.66C98.9085 442.4 99.1485 442.14 99.3985 441.88C100.939 443.56 101.789 445.83 103.799 447.1C104.869 447.77 105.829 447.99 106.199 446.29C106.789 443.59 107.419 440.89 108.139 438.22C108.649 436.35 109.589 434.67 111.149 433.43C112.189 432.61 113.189 432.23 113.839 433.87C113.269 434.42 113.429 435.17 113.269 435.84C111.579 435.73 110.889 436.84 110.339 438.18C109.509 440.18 109.259 442.32 108.819 444.42C108.329 446.74 107.529 448.94 106.009 450.77C104.979 452.01 103.769 452.6 103.049 450.46C102.549 448.99 101.209 448.21 100.419 447.01C99.5585 445.7 97.9985 444.61 98.6585 442.67V442.66Z" fill="#403A37"/>
<path d="M123.109 389.37C127.359 389.97 131.829 389.57 135.659 392.11C131.159 392.62 126.989 391.67 123.109 389.37Z" fill="#383938"/>
<path d="M85.3606 444.96C85.9706 445.28 86.3306 445.75 86.2806 446.81C85.4606 446.1 84.8006 445.53 84.1406 444.95C84.5506 444.95 84.9506 444.95 85.3606 444.95V444.96Z" fill="#E7D9D9"/>
<path d="M301.62 505.38C304 505.82 306.38 506.26 309.01 506.75C306.54 510.9 304.05 514.93 301.71 519.06C299.16 523.54 296.63 528.04 295.06 532.99C294.82 533.76 294.01 534.74 295.35 535.16C296.39 535.48 296.53 534.33 296.85 533.71C309.62 508.83 324.98 485.67 342.61 463.97C347.58 457.86 351.98 451.27 356.4 444.73C359.94 439.49 364.94 437.15 370.93 436.82C383.91 436.11 396.59 433.98 408.88 429.71C410.57 430.03 409.94 431.26 409.73 432.16C409.08 434.97 407.64 437.36 405.76 439.56C399.61 446.72 391.77 451.01 382.75 453.34C379.91 454.07 377.04 454.76 374.13 455.04C370.15 455.42 367.77 457.57 366.32 461.15C363.1 469.05 361.18 477.34 358.73 485.47C354.35 499.97 349.79 514.39 343.58 528.25C341.27 533.41 339.89 538.96 337.13 543.95C332.79 551.82 327.1 558.32 319.04 562.59C315.72 564.34 312.4 564.88 308.62 564.5C302.55 563.89 296.63 562.93 290.98 560.58C282.28 556.96 279.16 550.71 281.51 541.52C282.93 535.96 285.49 530.94 288.78 526.27C293.17 520.04 297.5 513.77 300.51 506.71C300.74 506.17 301.05 505.67 301.61 505.39L301.62 505.38Z" fill="#A5A4A4"/>
<path d="M301.62 505.38C299.19 513.26 294.19 519.69 289.66 526.37C285.46 532.57 281.92 538.97 281.65 546.72C281.47 552.03 283.66 555.95 288.29 558.45C293.59 561.31 299.37 562.46 305.26 563.47C318.57 565.77 326.29 557.87 333.33 548.59C336.12 544.91 338.18 540.78 339.68 536.44C343.72 524.74 349.39 513.66 352.93 501.77C356.52 489.74 360.16 477.72 363.78 465.69C363.89 465.32 364.08 464.97 364.17 464.59C365.78 457.87 369.59 454.28 376.92 453.61C384.92 452.89 392.54 450.09 398.91 444.92C403.28 441.37 407.72 437.71 409.12 431.77C409.3 431.01 409.78 430.3 408.89 429.69C410.46 428.58 410.92 429.19 411.33 430.9C412.41 435.44 413.65 439.95 416.33 443.91C418.04 446.44 420.12 448.54 423.12 450.22C416.29 453.71 409.36 455.74 402.29 457.47C393.75 459.56 385.14 460.65 376.36 460.29C374.88 460.23 374.55 461.34 374.05 462.15C371.41 466.48 370.68 471.45 369.71 476.29C366.49 492.25 362.01 507.81 356.29 523.06C352.17 534.07 346.63 544.49 343.22 555.79C341.6 561.16 337.23 564.86 333.05 568.4C330.23 570.79 327.14 572.85 324.18 575.08C319.97 578.25 315.16 578.5 310.22 577.88C304.49 577.16 299.02 575.53 293.82 572.97C291.26 571.71 288.94 570.21 286.81 568.29C279.95 562.12 274.51 554.74 268.78 547.6C268.41 547.14 268.06 546.67 267.67 546.24C264.08 542.32 264.14 542.41 268.42 539.39C277.56 532.93 285.52 525.27 292.22 516.26C294.78 512.82 297.48 509.49 299.22 505.53C299.93 503.93 300.75 504.46 301.62 505.35V505.38Z" fill="#7D7D7E"/>
<path d="M98.6602 442.66C99.5802 444.73 100.77 446.58 102.54 448.09C103.41 448.83 105.03 449.6 103.18 451.58C105.78 451.09 106.23 449.38 106.91 447.99C108.27 445.18 108.42 442.03 109.25 439.07C109.62 437.74 110.24 436.57 110.98 435.45C111.96 433.96 112.74 434.37 113.28 435.84C113.56 441.32 112.61 446.69 111.65 452.05C110.89 452.98 111.7 454.18 111.12 455.14C110.57 457.29 109.98 459.42 109.49 461.58C108.94 463.97 109.28 466.01 111.25 467.89C115.02 471.48 119.48 474.1 123.56 477.26C128.67 481.21 134.33 484.33 139.79 487.75C145.73 491.49 150.6 496.59 156.26 500.69C157.01 502.38 155.62 503.41 155.03 504.66C155.06 504.82 154.59 504.89 154.88 505.07C155.2 505.27 154.69 505.13 155.01 504.87C155.78 503.57 156.6 502.36 158.15 501.93C163.01 496.92 166.45 490.94 169.74 484.87C173.15 478.59 177.38 472.89 181.84 467.34C184.41 464.14 188.08 462.86 191.97 462.09C192.78 462.3 193.34 462.85 193.73 463.54C197.28 469.91 201.28 476.07 202.86 483.36C203.37 485.68 203.5 488.01 203.22 490.33C202.97 492.39 202.01 493.84 199.53 493.13C197.38 491.87 196.77 489.31 194.96 487.76C194.25 487.86 194.03 485.87 193.02 487.32C187.99 491.14 184.2 496.17 180.03 500.79C175.08 506.28 169.68 511.16 163.43 515.06C156.18 519.58 148.96 518.71 142.87 512.67C133.71 503.59 124.63 494.44 115.49 485.34C112.58 482.51 109.52 479.83 106.39 477.25C104.31 474.93 102.37 472.38 98.7502 472.56C94.3702 470.48 90.6002 467.64 87.5802 463.82C87.2502 462.95 86.6502 462.36 85.7902 462.03C82.2602 458.74 77.6302 457.78 73.3202 456.17C71.6002 455.53 69.8802 454.89 68.2002 454.16C67.5402 453.87 66.5602 453.54 66.8202 452.57C67.0502 451.72 67.9802 452.11 68.6102 452.05C70.8202 451.83 72.7302 452.94 74.7602 453.53C76.9002 454.15 79.0002 454.93 81.2302 455.11C82.5902 455.22 83.7702 454.8 84.3702 453.5C85.0002 452.14 83.7402 451.6 83.0002 450.96C79.7002 448.08 76.3302 445.27 73.0102 442.42C72.4202 441.91 71.8502 441.36 71.3802 440.74C70.7502 439.9 69.9002 438.74 70.7202 437.92C71.4202 437.23 72.5602 438.2 73.2402 438.74C76.7402 441.51 80.7802 443.58 83.8502 446.89C85.1902 448.33 87.0702 447.97 89.2202 448.86C88.3202 445.99 86.6402 444.17 85.1602 442.29C82.2702 438.63 79.0902 435.19 76.8502 431.06C76.3802 430.2 75.1902 429.08 76.2202 428.26C77.2902 427.41 78.4902 428.54 79.1802 429.36C82.0102 432.7 84.8502 436.05 87.3802 439.61C88.8902 441.75 90.5102 443.69 92.7102 445.51C93.1602 443.49 92.3302 441.92 91.6302 440.33C90.3902 434.29 86.7802 429.1 84.9802 423.05C86.8002 423.17 87.4502 424.17 88.1902 425.21C91.4702 429.85 94.0802 434.87 96.7802 439.84C97.3202 440.84 98.0302 441.74 98.6702 442.69L98.6602 442.66Z" fill="#EFC08C"/>
<path d="M236.67 444.34C236.57 442.41 234.97 441.33 234.05 439.87C233.3 438.69 233.07 438.05 234.44 437.07C238.31 434.33 239.01 434.15 242.16 437.6C244.51 440.17 246.88 442.71 249.37 445.14C253.98 450.99 259.74 455.38 266.65 458.11C268.13 458.7 269.73 459.33 271.33 459.56C278.75 460.62 285.85 471.1 285.88 477.54C285.89 480.33 286.78 483.12 285.74 485.9C285.3 488.8 283.39 491.11 282.54 493.85C278.26 497.97 273.07 499.02 267.41 498.11C265.1 497.74 263.42 496.21 261.92 494.44C261.34 493.76 260.81 492.32 259.45 493.52C259.1 494.08 259.14 494.7 259.4 495.2C261.46 499.19 260.59 503.03 258.46 506.55C255.91 510.77 252.55 514.24 247.51 515.55C246.4 515.81 245.29 516.06 244.19 516.38C243.07 516.56 241.99 516.88 240.95 517.35C232.86 515.88 226.69 511.38 221.72 505.04C216.81 498.77 214.88 491.31 213.5 483.7C212.74 479.52 215.32 477.17 219.53 477.9C223.47 478.59 227.36 479.5 231.29 480.21C234.97 480.87 238.47 480.47 241.52 478.05C242.38 477.49 242.74 476.59 243.08 475.68C245.01 472.5 247.3 469.48 247.48 465.54C247.48 464.51 247.72 463.44 247.06 462.5C246.9 462.28 246.77 462.04 246.66 461.79C245.04 456.65 241.97 452.31 239.03 447.91C238.23 446.72 237.05 445.78 236.66 444.32L236.67 444.34Z" fill="#F28D22"/>
<path d="M242.389 478.34C239.169 481.34 235.319 481.77 231.229 481C227.129 480.23 223.049 479.31 218.949 478.52C215.989 477.95 213.639 479.8 214.109 482.65C216.109 494.92 220.229 506.03 231.549 512.99C234.569 514.85 237.989 515.73 241.209 517.09C241.389 516.89 241.619 516.81 241.889 516.86C242.259 516.97 242.599 517.15 242.949 517.3C244.189 517.65 245.419 517.77 246.589 517.07C246.809 516.91 247.039 516.79 247.269 516.67C251.209 515.81 254.049 513.09 257.139 510.82C257.889 510.49 258.169 509.83 258.339 509.09C259.099 507.1 260.259 505.28 260.739 503.18C260.849 502.93 260.979 502.7 261.129 502.47C261.859 500.93 261.769 499.37 261.219 497.81C261.059 497.6 260.929 497.38 260.799 497.15C260.409 495.63 259.219 494.49 258.779 492.99C259.589 491.03 260.909 491.74 261.629 492.78C263.469 495.47 265.659 497.51 269.039 497.7C273.499 497.94 277.629 496.83 281.319 494.26C281.639 494.04 281.959 493.84 282.279 493.63C283.469 491.81 284.129 489.56 286.379 488.6C286.969 488.42 287.499 488.55 287.979 488.93C290.659 492.2 288.899 495.32 287.249 498.08C284.429 502.79 280.619 506.82 276.349 510.2C269.669 515.49 262.799 520.59 255.189 524.53C251.239 526.58 247.429 528.94 243.049 530.11C241.699 530.47 240.649 530.31 239.459 529.71C229.209 524.62 220.709 517.27 212.839 509.1C212.299 508.54 211.619 508.11 211.149 507.51C209.909 505.91 208.809 504.2 207.529 502.64C205.559 500.24 208.489 499.29 208.979 497.64C210.219 493.51 210.459 489.45 209.219 485.3C206.599 476.5 202.189 468.65 196.509 461.49C194.699 459.2 195.609 456 198.349 455.32C199.409 455.06 199.659 455.98 200.049 456.56C201.789 459.12 203.549 461.68 205.139 464.33C206.489 466.59 208.489 468.25 210.119 470.25C212.279 470.51 213.539 472.37 215.389 473.21C218.489 474.62 221.749 475.59 224.899 476.88C225.949 477.8 227.239 477.6 228.479 477.62C229.209 477.62 229.929 477.71 230.609 477.99C232.689 479.21 234.859 478.96 237.059 478.39C237.299 478.22 237.549 478.08 237.809 477.96C239.359 477.7 240.729 476.44 242.449 477.09C242.709 477.52 242.729 477.93 242.379 478.32L242.389 478.34Z" fill="#B46E2B"/>
<path d="M359.668 521.79C362.548 513.43 365.558 505.11 367.688 496.51C368.018 495.17 368.968 494.7 370.038 494.17C373.968 492.22 378.058 490.5 381.728 488.15C385.638 485.64 389.368 485.94 393.358 487.45C406.098 492.28 419.088 496.33 432.268 499.76C437.058 501.01 441.918 502 446.758 503.06C448.708 503.49 450.008 504.06 448.728 506.46C447.088 509.55 446.918 512.99 446.918 516.42C441.688 516.96 436.588 515.92 431.718 514.36C418.628 510.17 405.508 506.05 393.168 499.85C389.298 497.9 388.128 498.13 385.168 501.21C378.318 508.33 370.578 514.41 362.978 520.66C362.088 521.39 361.178 522.63 359.668 521.79V521.79Z" fill="#A5A4A4"/>
<path d="M359.668 521.79C362.448 520.56 364.668 518.53 366.928 516.58C373.468 510.92 380.258 505.54 386.148 499.15C388.198 496.92 390.608 497.73 392.868 498.85C397.148 500.95 401.398 503.14 405.908 504.71C415.348 508.02 424.638 511.81 434.358 514.26C438.468 515.3 442.728 515.72 446.928 516.42C447.318 518.02 447.718 519.63 448.118 521.23C447.308 522.05 446.168 521.05 445.328 521.73C429.938 523.06 415.328 520 401.298 513.85C398.358 512.56 395.598 510.87 392.718 509.41C391.578 508.83 390.118 507.87 390.528 510.54C390.588 510.9 390.148 511.41 389.838 511.75C377.928 524.69 365.328 536.88 350.958 547.12C350.738 547.28 350.448 547.34 349.238 547.83C353.338 538.86 356.368 530.27 359.668 521.79V521.79Z" fill="#7D7D7E"/>
<path d="M148.421 381.06C149.391 379.76 148.761 377.52 150.871 376.9C151.761 378.79 151.181 380.87 151.661 382.84C151.961 384.05 152.061 385.32 152.391 386.53C153.921 392.25 157.391 394.71 163.271 394.23C164.311 394.15 165.381 393.74 166.351 394.48C166.721 394.96 166.911 395.52 166.871 396.1C166.521 401.8 167.631 407.23 169.911 412.44C170.111 412.89 170.091 413.38 169.911 413.85C168.461 415.46 166.121 413.92 164.621 415.33C162.551 418.73 162.991 422.82 165.871 426.27C167.561 428.3 169.521 430.01 172.051 430.94C172.781 431.3 173.581 431.37 174.361 431.48C174.631 431.52 174.891 431.58 175.151 431.64C176.041 431.96 177.021 431.89 177.921 432.22C178.001 432.27 178.161 432.34 178.151 432.36C177.571 433.88 178.921 434.77 179.331 435.97C179.201 436.23 179.001 436.41 178.721 436.49C178.431 436.51 178.161 436.44 177.911 436.3C170.101 433.57 162.761 429.74 155.651 425.64C149.601 422.15 146.671 415.93 145.061 409.2C144.241 408.18 144.511 406.97 144.491 405.83C144.371 400.78 144.701 395.72 144.301 390.67C144.681 387.04 145.791 383.72 148.421 381.05V381.06Z" fill="#B09771"/>
<path d="M115.748 484.83C122.198 491.21 128.658 497.58 135.108 503.96C137.888 506.71 140.628 509.49 143.418 512.22C149.488 518.13 156.408 518.68 163.628 514.13C172.258 508.69 178.748 501.03 185.538 493.65C187.878 491.11 189.798 488.09 193.148 486.64C194.318 487.34 193.738 488.7 194.268 489.64C194.278 489.74 194.268 489.85 194.308 489.93C196.498 494.31 196.578 494.38 193.198 498.11C186.948 505.02 180.598 511.85 174.298 518.71C174.008 519.67 173.398 520.29 172.428 520.56C169.958 522.55 168.068 525.22 165.058 526.61C159.028 529.38 154.388 526.75 150.058 522.89C148.688 521.67 147.468 520.27 146.188 518.95C145.318 516.82 143.508 515.73 141.588 514.76C135.588 509.37 129.858 503.68 124.258 497.87C122.948 496.51 121.328 495.42 120.418 493.68C119.348 491.35 117.418 489.62 116.108 487.45C115.598 486.59 114.888 485.87 115.728 484.86L115.748 484.83Z" fill="#B98D5F"/>
<path d="M206.001 436.6C209.231 435.14 212.551 433.84 215.661 432.15C217.661 431.07 218.781 431.55 219.701 433.32C220.141 434.16 220.561 434.98 221.311 435.59C220.631 437.68 218.911 438.91 217.221 439.98C213.661 442.24 212.821 445.48 213.411 449.34C214.931 459.37 222.421 467.11 232.411 469C237.641 469.99 241.921 467.28 243.271 462.13C243.511 461.22 243.341 460.14 244.311 459.51C246.651 461.77 246.811 464.78 246.261 467.54C245.201 472.82 242.151 476.48 236.421 477.21C234.981 477.48 233.531 477.49 232.081 477.23C230.491 476.79 228.851 476.49 227.231 476.36C222.021 475.96 217.681 473.37 213.221 471.08C212.071 470.49 211.101 469.71 210.781 468.36C208.421 464.83 205.701 461.56 203.401 457.96C201.861 455.55 199.981 453.48 201.421 450.39C201.541 450.18 201.671 449.96 201.791 449.75C202.041 448.53 202.021 447.3 201.801 446.08C201.681 445.87 201.541 445.66 201.391 445.47C198.921 441.5 195.581 438.44 191.541 436.11C191.251 436 191.141 435.81 191.221 435.51C191.501 434.98 192.001 434.77 192.531 434.59C194.311 435.28 196.091 435.96 197.871 436.65C200.591 437.28 203.301 437.38 206.011 436.59L206.001 436.6Z" fill="#B88E5E"/>
<path d="M349.049 437.34C344.509 441.5 340.989 446.55 337.029 451.21C328.999 460.64 320.589 469.66 310.989 477.53C306.989 480.81 302.929 479.74 298.749 478.24C295.569 476.24 292.409 474.2 289.189 472.27C287.959 471.53 287.139 470.59 286.519 469.3C283.529 463.14 279.029 458.81 272.219 456.87C264.179 454.57 256.919 450.75 251.239 444.39C250.629 443.63 250.019 442.87 249.399 442.12C249.159 441.08 249.949 440.91 250.629 440.65C258.559 445.88 268.169 447.58 276.089 452.88C280.919 456.12 285.429 459.62 288.619 464.57C291.309 468.75 295.129 471.49 299.679 473.35C302.329 474.43 304.649 474.32 307.049 472.45C314.909 466.34 322.629 460.03 329.659 453C334.749 447.91 339.849 442.77 344.239 437.01C347.889 432.22 352.979 429.28 358.169 426.53C359.609 425.77 360.759 424.41 362.539 424.33C363.519 425.7 362.349 426.47 361.619 427.25C360.039 428.94 358.209 430.33 356.139 431.42C355.229 431.9 354.139 432.2 353.699 433.31C352.039 434.52 350.179 435.51 349.049 437.34V437.34Z" fill="#B98D5F"/>
<path d="M481.738 383.88C481.698 377.69 481.658 371.5 481.608 365.31C480.778 363.2 480.868 361.05 481.398 358.89C481.858 358.39 482.368 358.47 482.898 358.74C484.358 359.32 485.118 360.58 485.658 361.9C488.038 367.65 489.388 373.66 489.908 379.87C490.718 380.83 490.258 382.05 490.538 383.11C490.748 383.62 490.638 384.22 490.968 384.69C491.008 386.18 491.048 387.67 491.078 389.16C492.188 391.63 491.248 394.27 491.688 396.79C491.788 397.09 491.928 397.38 492.098 397.66C492.108 402.28 492.128 406.89 492.138 411.51C491.958 411.74 491.808 411.99 491.698 412.26C491.288 413.97 492.128 415.83 491.058 417.46C491.028 418.39 490.988 419.32 490.958 420.25C490.588 421.06 490.658 422.06 489.938 422.73C489.878 425.05 488.798 427 487.688 428.94C487.208 429.79 486.668 430.83 485.598 430.71C484.718 430.61 484.408 429.53 484.008 428.76C482.538 425.96 482.788 422.91 482.748 419.91C481.758 416.27 482.328 412.55 482.248 408.87C482.148 404.88 482.228 400.88 482.228 396.89C482.178 392.83 482.328 388.77 482.158 384.71C482.058 384.42 481.918 384.15 481.748 383.91L481.738 383.88Z" fill="#F28E21"/>
<path d="M417.73 428.64C425.41 426.7 433.07 424.68 440.78 422.85C447.49 421.26 452.89 417.43 458.07 413.19C459.28 412.2 460.04 410.74 461.69 412.83C462.33 413.64 463.98 413.66 465.17 414.04C465.87 415.59 464.62 416.6 463.96 417.64C462.98 419.21 461.86 420.73 461.13 422.4C459.48 426.2 456.34 428.13 452.79 429.68C448.96 431.36 445.08 432.94 441.22 434.57C436.77 436.45 431.99 437.13 427.21 436.84C422.76 436.57 419.93 433.5 417.61 429.99C417.33 429.56 417.39 429.06 417.74 428.64H417.73Z" fill="#EFC08C"/>
<path d="M479.801 403.4C480.001 410.91 480.331 418.41 480.951 425.9C481.111 427.85 481.941 429.54 482.691 431.5C480.151 431.31 477.791 431.34 475.481 430.49C472.571 429.41 469.631 428.33 466.451 428.35C464.021 428.37 463.641 426.86 463.821 424.93C464.001 423 465.101 421.52 466.181 420C468.601 416.58 467.871 413.53 464.151 411.71C461.971 410.64 461.911 408.92 462.691 407.13C463.541 405.2 464.731 403.42 465.771 401.58C467.301 401.06 468.541 402.1 469.921 402.37C472.951 402.95 475.991 403 479.051 402.85C479.361 402.96 479.611 403.14 479.801 403.41V403.4Z" fill="white"/>
<path d="M514.351 515.43C510.161 520.68 506.361 526.15 505.341 533C505.101 534.63 505.051 536.3 505.091 537.95C505.131 539.43 504.581 539.64 503.361 539.11C501.291 538.2 499.391 537.02 497.751 535.49C495.701 533.57 493.651 531.74 491.071 530.46C488.871 529.37 489.061 526.7 491.181 524.94C495.951 520.98 496.031 520.95 493.711 514.95C493.241 513.73 493.821 513.65 494.491 513.33C497.041 512.1 499.251 510.39 501.341 508.5C504.301 509.35 506.401 511.72 509.181 512.94C510.921 513.7 513.101 513.64 514.341 515.43H514.351Z" fill="white"/>
<path d="M295.778 501.86C297.338 502.87 297.158 504.04 296.378 505.55C293.908 510.37 290.458 514.48 287.028 518.58C280.368 526.53 272.718 533.44 264.308 539.52C262.758 540.64 261.818 540.87 260.018 539.84C255.148 537.07 250.058 534.69 245.148 532.2C259.398 526.26 272.428 518.46 283.348 507.42C286.088 504.65 288.448 501.53 290.118 497.94C290.438 497.25 290.298 495.88 291.588 496.13C292.518 496.31 292.768 497.3 292.858 498.21C293.678 499.62 292.708 500.63 292.048 501.67C288.618 507.08 284.098 511.51 279.388 515.8C274.828 519.96 269.818 523.51 264.718 526.95C264.318 527.22 263.928 527.52 263.558 527.85C262.398 528.89 261.488 530.13 262.268 531.69C263.118 533.39 264.628 532.58 265.898 532.23C268.178 531.59 270.258 530.47 272.078 528.97C281.238 521.42 289.668 513.22 295.208 502.5C295.348 502.24 295.548 502.03 295.798 501.86H295.778Z" fill="#B98D5F"/>
<path d="M417.728 428.64C420.778 434.23 425.118 436.84 430.858 436.17C439.948 435.1 447.858 430.95 455.958 427.17C458.248 426.1 459.118 424.17 460.228 422.24C461.818 419.48 463.508 416.77 465.158 414.04C466.408 415.63 465.408 417.03 464.558 418.21C462.498 421.07 460.868 423.96 462.098 427.65C462.368 428.45 462.098 428.94 461.228 429.11C451.588 431 443.978 436.93 435.848 441.84C432.438 443.9 428.818 445.61 425.348 447.56C423.948 448.35 423.068 447.44 422.238 446.75C417.258 442.62 415.228 436.87 413.698 430.87C413.458 429.92 413.988 429.41 414.888 429.22C415.828 429.02 416.778 428.83 417.718 428.64H417.728Z" fill="#B98D5F"/>
<path d="M452.9 505.36C456.22 505.24 459.05 506.96 462.05 507.93C470.15 510.56 478.25 513.15 486.65 514.61C488.02 514.85 488.88 516.25 490.37 515.83C492 517.17 492.2 518.59 490.7 520.01C487.46 523.09 483.89 524.99 479.08 523.96C472.01 522.45 465.5 519.69 459.34 516.03C456.43 514.3 454.09 511.96 452.94 508.66C452.56 507.58 451.96 506.47 452.9 505.35V505.36Z" fill="#EFC08D"/>
<path d="M522.518 506.49C526.948 498 532.158 489.89 534.798 480.52C535.038 480.57 535.288 480.62 535.528 480.67V485.4C535.368 485.6 535.218 485.81 535.108 486.04C534.828 487.01 535.268 488.14 534.468 489C531.488 497.87 527.888 506.49 524.068 515.03C520.808 522.3 517.058 529.26 511.568 535.16C510.478 536.33 509.408 537.46 507.508 538.37C507.258 532.57 509.028 527.67 511.718 523.07C513.268 520.42 515.128 517.94 516.858 515.39C518.218 512.08 520.188 509.18 522.538 506.5L522.518 506.49Z" fill="#F28E23"/>
<path d="M295.779 501.86C295.899 502.89 295.489 503.78 294.979 504.61C288.329 515.31 279.989 524.42 269.499 531.48C268.259 532.32 266.869 532.74 265.469 533.13C264.109 533.51 262.539 534.28 261.609 532.49C260.709 530.76 260.899 529.02 262.539 527.78C265.409 525.62 268.399 523.61 271.279 521.45C278.999 515.63 286.209 509.29 291.579 501.11C292.169 500.21 292.839 499.37 292.849 498.22C293.829 499.43 294.809 500.65 295.789 501.86H295.779Z" fill="#EFC08C"/>
<path d="M452.9 505.36C453.56 511.74 458.12 514.92 463.19 517.41C468.41 519.98 473.82 522.06 479.6 523.28C484.34 524.27 487.4 521.86 490.49 519.22C491.47 518.39 491.38 516.93 490.36 515.83C491.81 514.75 492.05 516.17 492.33 516.93C492.86 518.34 493.74 519.99 492.33 521.28C490.13 523.29 487.31 524.69 487.29 528.35C487.29 529.18 486 528.73 485.28 528.51C478.7 526.43 471.92 525.14 465.24 523.42C463.89 523.07 462.57 522.92 461.2 522.94C458.35 522.34 455.47 522.65 452.62 522.74C450.86 522.79 450.24 522.09 449.99 520.61C449.81 515.54 449.47 510.45 451.75 505.67C452.06 505.03 452.03 505.01 452.91 505.37L452.9 505.36Z" fill="#B88D5F"/>
<path d="M199.519 493.11C201.959 492.83 202.529 491.38 202.589 489.06C202.779 481.91 199.619 475.9 196.439 469.89C195.039 467.23 193.449 464.67 191.949 462.07C193.079 461.27 193.869 461.35 194.819 462.59C200.659 470.14 205.539 478.13 207.339 487.69C207.389 487.95 207.629 488.18 207.789 488.42C208.229 490.16 208.299 491.89 207.749 493.61C206.909 495.11 206.979 496.96 205.879 498.35C205.419 498.93 204.879 499.95 204.179 498.89C202.809 496.81 200.489 495.51 199.529 493.12L199.519 493.11Z" fill="#B98D5F"/>
<path d="M236.467 476.62C241.557 475.57 244.487 472.38 245.517 467.39C246.087 464.66 245.197 462.12 244.177 459.63C242.157 457.6 241.157 454.9 239.567 452.57C237.977 450.24 236.557 447.78 234.717 445.62C234.157 444.96 233.527 444.27 234.027 443.27C234.967 443.46 235.537 444.56 236.647 444.34C240.637 447.57 242.557 452.26 245.157 456.46C246.147 458.07 247.177 459.76 247.127 461.8C247.877 462.72 247.517 463.87 247.767 464.9C247.887 465.14 248.027 465.37 248.177 465.58C247.917 469.64 245.967 472.95 243.537 476.05C243.207 476.48 242.937 476.99 242.327 477.1C240.767 477.43 239.487 478.71 237.747 478.43C235.767 479.44 233.667 478.83 231.617 478.91C231.277 478.84 230.957 478.71 230.657 478.52L228.397 478.35C228.197 478.2 227.987 478.06 227.767 477.94C227.027 477.7 226.237 477.88 225.487 477.7C225.247 477.6 225.017 477.47 224.807 477.32C219.507 475.81 214.187 474.33 210.117 470.25C210.327 469.62 210.547 468.99 210.757 468.36C216.467 472.7 222.907 475.2 230.007 476.04C230.677 476.12 231.377 476.04 231.927 476.56C233.427 477.23 234.937 477.07 236.447 476.61L236.467 476.62Z" fill="#3C3838"/>
<path d="M516.82 494.75C520.68 489.43 525.42 484.73 528.3 478.72C529.06 477.12 530.6 476.58 532 476.28C532.93 476.08 534.83 475.96 533.84 478.39C531.04 485.29 527.93 492.03 524.3 498.53C521.38 498.11 519.01 496.61 516.82 494.75V494.75Z" fill="#FEFEFE"/>
<path d="M472.551 380.85C474.001 374.38 473.731 367.74 474.581 361.22C474.851 359.2 474.881 356.13 477.191 356.15C478.971 356.17 478.411 359.29 478.641 361.02C479.561 368.06 479.431 375.15 479.281 382.24C476.301 383.57 474.091 383.12 472.551 380.85V380.85Z" fill="#FEFEFE"/>
<path d="M514.35 515.43C509.41 514.26 505.08 511.94 501.34 508.5C502.61 507.45 503.88 506.4 505.15 505.35C505.59 504.99 506.08 505.07 506.5 505.32C509.58 507.14 512.81 508.67 515.96 510.36C516.47 510.63 516.91 511.02 517.1 511.62C517.16 512.78 516.83 513.71 515.6 514.08C515.18 514.53 514.77 514.98 514.35 515.43V515.43Z" fill="#F28E27"/>
<path d="M467.09 398.09C467.68 396.67 468.27 395.25 468.86 393.83C471.83 392.93 474.81 394.09 477.79 393.74C478.47 393.79 479.14 393.88 479.74 394.26C480.05 394.5 480.12 394.79 479.96 395.14C479.92 396.5 479.88 397.86 479.84 399.22C476.84 400.88 473.76 399.86 470.7 399.53C469.37 399.39 467.85 399.7 467.11 398.09H467.09Z" fill="#FDFCF7"/>
<path d="M508.5 502.49C509.51 501.52 510.51 500.55 511.52 499.58C515.2 500.41 518.7 501.56 521.08 504.79C520.91 506.61 520.48 508.29 518.66 509.2C514.81 507.67 510.85 506.3 508.5 502.49V502.49Z" fill="#F39127"/>
<path d="M467.087 398.09C468.257 398.35 469.427 398.61 470.597 398.86C472.627 399.87 474.797 399.5 476.927 399.54C479.997 399.6 480.337 400.13 479.277 403.26C474.577 404.3 470.067 403.76 465.777 401.56C466.217 400.4 466.657 399.25 467.097 398.09H467.087Z" fill="#F28F29"/>
<path d="M508.5 502.49C511.53 505.24 515.31 506.8 518.74 508.92C519.11 510.55 518.68 511.66 516.84 511.87C512.95 509.7 509.05 507.52 505.16 505.35C506.27 504.39 507.38 503.44 508.5 502.49Z" fill="#FDFAF7"/>
<path d="M138.081 392.23C139.411 390.27 139.791 387.96 140.461 385.75C142.631 383.31 143.461 383.4 144.611 386.18C144.441 388.14 144.281 390.1 142.821 391.64C142.561 393.02 143.321 395.21 141.151 395.26C139.721 395.29 138.001 394.36 138.081 392.23V392.23Z" fill="#AD455A"/>
<path d="M516.818 494.75C519.588 495.46 521.898 497.08 524.298 498.53C523.698 499.65 523.098 500.78 522.498 501.9C519.088 501.49 515.828 500.75 513.598 497.78C514.578 496.67 515.508 495.51 516.818 494.75V494.75Z" fill="#F28E29"/>
<path d="M470.469 389.73C470.559 388.29 470.989 386.96 471.689 385.71C474.509 384.87 477.099 385.71 479.679 386.74C479.769 387.99 479.849 389.23 479.939 390.48C480.099 390.82 480.029 391.11 479.729 391.34C478.809 391.87 477.819 391.8 476.819 391.68C474.719 390.99 472.159 391.78 470.469 389.74V389.73Z" fill="#FCFBF8"/>
<path d="M470.469 389.73C472.659 390.16 474.839 390.58 477.029 391.01C477.809 391.76 479.519 390.78 479.789 392.53C479.989 393.83 479.009 394.12 478.199 394.6C475.029 395.08 471.939 394.5 468.859 393.84C469.399 392.47 469.929 391.1 470.469 389.74V389.73Z" fill="#F1912E"/>
<path d="M479.677 386.74C476.947 386.92 474.328 386.26 471.688 385.71C471.977 384.09 472.257 382.46 472.547 380.84C474.557 382.42 476.977 382.04 479.277 382.23C479.407 383.73 479.547 385.23 479.677 386.74Z" fill="#F2912E"/>
<path d="M115.747 484.83C116.327 487.2 118.087 488.88 119.417 490.79C120.067 491.73 120.537 492.54 120.427 493.66C116.617 490.35 114.097 485.94 110.737 482.25C109.247 480.61 107.817 478.91 106.367 477.23C110.037 479.09 112.987 481.85 115.747 484.84V484.83Z" fill="#B38D65"/>
<path d="M513.6 497.79C516.32 499.7 519.6 500.39 522.5 501.91C522.17 502.69 521.84 503.46 521.52 504.24C521.28 504.41 521.22 504.81 520.84 504.82C518.15 502.33 514.5 501.55 511.52 499.59C512.21 498.99 512.91 498.4 513.6 497.8V497.79Z" fill="#FBF6ED"/>
<path d="M520.838 504.81C521.068 504.62 521.288 504.43 521.518 504.23C521.458 505.16 521.578 506.01 522.518 506.49C521.168 509.8 519.188 512.71 516.838 515.38C516.428 514.94 516.008 514.51 515.598 514.07C516.008 513.34 516.418 512.6 516.838 511.87C517.978 511.21 518.408 510.1 518.738 508.92C519.438 507.55 520.138 506.18 520.838 504.81V504.81Z" fill="#403A36"/>
<path d="M142.811 391.64C143.181 389.9 143.561 388.16 143.931 386.42C144.461 384.62 144.711 382.73 145.501 381C145.891 380.15 146.101 379.13 147.381 379.27C147.441 380.03 147.271 380.93 148.411 381.06C147.431 384.05 145.381 386.64 145.061 389.89C144.781 390.14 144.691 390.49 144.541 390.81C144.421 391.16 144.211 391.45 143.881 391.63C143.521 391.63 143.161 391.63 142.801 391.63L142.811 391.64Z" fill="#433734"/>
<path d="M482.188 418.54C481.398 417.86 481.668 416.92 481.658 416.08C481.648 408.51 481.658 400.94 481.658 393.37C482.038 393.19 482.308 393.29 482.458 393.68C482.528 394.74 482.478 395.79 482.488 396.85C482.488 403.14 482.498 409.43 482.478 415.72C482.478 416.66 482.768 417.66 482.178 418.54H482.188Z" fill="#5F320F"/>
<path d="M482.188 418.54C482.227 411.13 482.268 403.72 482.318 396.31C482.478 396.04 482.637 396.05 482.777 396.31C482.777 404.17 482.757 412.02 482.747 419.88C482.557 419.43 482.377 418.98 482.188 418.53V418.54Z" fill="#C7976B"/>
<path d="M286.418 488.94C284.808 490.3 284.238 492.57 282.298 493.64C282.168 490.49 284.538 488.46 285.748 485.91C285.838 486.71 285.658 487.68 286.898 487.77C287.348 488.41 286.748 488.61 286.418 488.93V488.94Z" fill="#47392D"/>
<path d="M144.46 390.47C144.67 390.28 144.87 390.08 145.08 389.89C145.08 396.33 145.08 402.77 145.08 409.21L144.88 409.18H144.67C143.76 408.18 144.23 406.96 144.24 405.86C144.32 400.73 143.89 395.59 144.47 390.47H144.46Z" fill="#A29684"/>
<path d="M144.459 390.47C144.519 396.71 144.589 402.95 144.649 409.19C143.429 408.47 143.919 407.27 143.909 406.27C143.859 401.39 143.889 396.51 143.889 391.63C143.899 391.16 143.989 390.72 144.459 390.47V390.47Z" fill="#443825"/>
<path d="M479.27 403.26C479.82 400.36 478.49 399.63 475.76 399.78C474.06 399.87 472.04 400.64 470.59 398.87C473.66 399.05 476.72 399.67 479.82 399.23C479.88 399.44 479.93 399.65 479.99 399.87C480.28 401.02 480.19 402.18 480.05 403.33L479.8 403.4C479.62 403.37 479.44 403.33 479.27 403.27V403.26Z" fill="#CE996B"/>
<path d="M449.979 520.59C450.539 521.95 451.419 522.41 452.999 522.41C455.719 522.41 458.529 521.81 461.189 522.92C458.189 522.93 455.189 522.86 452.199 522.99C450.349 523.07 449.749 522.29 449.969 520.59H449.979Z" fill="#4A3520"/>
<path d="M177.908 436.31C178.098 436.27 178.288 436.23 178.488 436.19C181.118 435.9 183.758 436.09 186.388 435.92C186.528 435.89 186.678 435.86 186.818 435.83C187.108 435.77 187.398 435.76 187.698 435.78C187.998 435.83 188.248 435.97 188.458 436.19C188.348 436.8 188.088 437.31 187.388 437.31C184.518 437.32 181.648 437.33 178.778 437.29C178.238 437.29 178.008 436.8 177.898 436.3L177.908 436.31Z" fill="#443828"/>
<path d="M158.14 501.91C157.14 503.09 156.13 504.26 155.13 505.44C154.55 505.56 154.25 505.38 154.41 504.74C154.37 503.09 156.59 502.46 156.24 500.67C156.85 501.12 157.18 501.98 158.13 501.91H158.14Z" fill="#473A31"/>
<path d="M141.609 514.73C144.179 514.99 146.009 516.07 146.209 518.92C144.679 517.52 143.139 516.12 141.609 514.73Z" fill="#B08C68"/>
<path d="M482.128 393.4C481.978 393.4 481.818 393.38 481.668 393.37C481.688 390.21 481.718 387.04 481.738 383.88C481.888 383.95 482.038 384.02 482.198 384.07C482.638 387.18 482.818 390.29 482.138 393.4H482.128Z" fill="#7B4011"/>
<path d="M491.63 397.43C490.37 394.74 491.25 391.91 491.08 389.15C491.23 389.22 491.38 389.28 491.54 389.32C492.17 392.01 491.97 394.72 491.63 397.42V397.43Z" fill="#CE976A"/>
<path d="M491.629 397.43C491.599 394.73 491.569 392.03 491.539 389.33C492.909 392.02 491.919 394.88 492.099 397.65C491.939 397.58 491.779 397.51 491.629 397.43V397.43Z" fill="#64330D"/>
<path d="M481.607 358.8C481.607 360.97 481.607 363.14 481.607 365.31C481.427 365.07 481.247 364.83 481.077 364.59C480.437 362.99 480.917 361.32 480.777 359.69C480.807 359.15 480.897 358.68 481.617 358.8H481.607Z" fill="#D4975D"/>
<path d="M207.75 493.6C207.76 491.87 207.78 490.14 207.79 488.41C208.85 490.15 208.72 491.88 207.75 493.6Z" fill="#463721"/>
<path d="M481.61 358.8C481.4 359.04 481.19 359.28 480.99 359.52C480.76 359.63 480.6 359.55 480.52 359.32C480.67 358.65 480.02 357.62 481 357.38C481.9 357.15 482.44 358.04 482.91 358.74C482.48 358.76 482.05 358.78 481.62 358.8H481.61Z" fill="#DC8731"/>
<path d="M491.729 411.62C491.869 411.6 492.009 411.56 492.139 411.5C491.879 413.44 492.979 415.54 491.449 417.32C491.379 415.41 490.909 413.48 491.719 411.62H491.729Z" fill="#61340F"/>
<path d="M491.728 411.62C491.638 413.52 491.548 415.42 491.458 417.32C491.328 417.36 491.187 417.41 491.047 417.45C491.287 415.51 490.258 413.42 491.728 411.62Z" fill="#D3965F"/>
<path d="M480.509 359.32C480.669 359.38 480.829 359.44 480.979 359.52C481.009 361.21 481.039 362.9 481.069 364.59C479.869 362.94 480.669 361.08 480.509 359.32Z" fill="#5F330F"/>
<path d="M194.288 489.62C193.558 488.75 193.298 487.71 193.168 486.62C194.648 485.58 194.428 487.25 194.948 487.74C194.218 488.19 194.358 488.94 194.288 489.62Z" fill="#4B3A2A"/>
<path d="M490.971 384.69C490.781 384.25 490.591 383.81 490.401 383.37C489.961 382.25 490.081 381.11 490.321 379.97C491.681 381.39 490.781 383.11 490.971 384.69V384.69Z" fill="#603410"/>
<path d="M479.758 390.98C479.798 390.8 479.848 390.63 479.938 390.47C480.758 392.02 480.778 393.58 479.948 395.14C479.848 395 479.788 394.84 479.768 394.66C479.478 393.43 479.488 392.2 479.768 390.98H479.758Z" fill="#573112"/>
<path d="M201.391 445.48C201.561 445.52 201.731 445.55 201.901 445.57C202.461 447.13 202.391 448.69 201.951 450.25C201.781 450.3 201.601 450.35 201.431 450.4C201.431 448.76 201.411 447.12 201.401 445.48H201.391Z" fill="#4F3520"/>
<path d="M489.94 422.71C489.74 421.67 490.46 421 490.96 420.24C490.54 421.03 492.15 422.66 489.94 422.71Z" fill="#66360D"/>
<path d="M188.457 436.19C188.227 436.18 188.007 436.16 187.777 436.15C187.817 434.97 188.797 434.98 189.567 434.73C190.317 434.71 190.957 434.93 191.387 435.59C191.427 435.77 191.477 435.95 191.537 436.12C190.507 436.14 189.487 436.16 188.457 436.18V436.19Z" fill="#473827"/>
<path d="M445.32 521.73C446.12 520.83 447.17 521.33 448.11 521.23C447.53 523.34 446.19 521.2 445.32 521.73Z" fill="#8F8F90"/>
<path d="M535.109 485.48C535.249 485.46 535.389 485.43 535.519 485.4C535.379 486.57 536.139 487.9 534.889 488.87C534.689 487.72 534.369 486.56 535.099 485.48H535.109Z" fill="#68370E"/>
<path d="M480.048 403.32C480.028 402.17 480.008 401.01 479.988 399.86C480.738 401 480.658 402.16 480.048 403.32Z" fill="#61330F"/>
<path d="M535.109 485.48C535.039 486.61 534.969 487.74 534.899 488.88C534.749 488.92 534.609 488.97 534.459 489.01C534.599 487.82 533.829 486.46 535.109 485.49V485.48Z" fill="#CA9365"/>
<path d="M490.331 379.97C490.361 381.1 490.381 382.24 490.411 383.37C489.421 382.32 489.981 381.05 489.921 379.86C490.061 379.9 490.201 379.93 490.341 379.97H490.331Z" fill="#BC916C"/>
<path d="M111.12 455.13C111.28 454.1 110.49 452.9 111.65 452.04C111.52 453.08 112.04 454.22 111.12 455.13Z" fill="#DDC1AA"/>
<path d="M172.449 520.54C173.069 519.92 173.689 519.31 174.319 518.69C174.559 520.17 173.929 520.78 172.449 520.54Z" fill="#453625"/>
<path d="M286.418 488.94C286.578 488.55 286.738 488.16 286.898 487.78C288.048 487.42 287.658 488.53 287.998 488.94C287.468 488.94 286.948 488.94 286.418 488.94V488.94Z" fill="#937259"/>
<path d="M122.778 345.9C123.158 346.52 123.708 346.92 124.398 347.13C126.098 347.73 126.838 349.16 127.428 350.7C129.818 355.4 129.608 360.61 130.408 365.63C130.918 368.83 132.308 371.59 135.068 373.5C135.738 375.39 134.088 375.35 133.148 375.56C128.938 376.48 124.558 376.48 120.868 374.32C115.158 370.96 109.218 367.97 103.858 364.04C101.388 362.23 99.1884 360.1 97.5484 357.58C94.5584 352.99 90.2784 350.18 85.6484 347.51C70.2584 338.65 61.6784 325.39 60.3484 307.51C60.0984 304.2 60.0584 300.91 60.0784 297.6C60.0784 296.76 59.6384 295.49 61.2484 295.44C62.4784 296.22 63.6784 297.06 64.9484 297.75C65.7684 298.19 66.6784 298.85 67.6584 298.09C68.6084 297.35 68.3484 296.3 68.0784 295.39C66.2484 289.37 65.8284 283.18 65.9784 276.95C66.0384 274.25 66.3284 271.56 66.5284 268.65C67.8084 269.63 67.8684 270.97 68.2684 272.09C71.4284 280.92 76.1784 288.66 84.4084 293.53C87.3084 295.25 90.8284 296.24 94.2784 296.6C103.668 297.57 108.978 306.49 109.968 313.88C110.608 318.64 109.608 323.37 110.488 328.13C111.948 335.97 115.648 342.07 122.778 345.9V345.9Z" fill="#F6CF96"/>
<path d="M61.2476 295.44C60.0276 297.63 60.5376 300.04 60.7176 302.28C61.5876 313.49 62.9276 324.64 70.6676 333.66C75.0476 338.76 79.5076 343.94 85.8376 346.7C92.0076 349.4 96.1376 354.2 100.038 359.32C102.208 362.17 105.028 364.28 108.058 365.98C111.968 368.17 115.798 370.48 119.608 372.84C124.178 375.66 129.168 375.78 134.268 374.57C134.848 374.43 135.008 374.02 135.068 373.5C137.028 374.74 139.128 375.46 141.478 375.38C140.198 379.65 138.858 383.9 137.678 388.19C137.338 389.45 136.828 389.86 135.528 389.94C130.688 390.23 126.288 389.04 122.248 386.41C121.268 385.77 120.268 385.19 119.268 384.58C110.978 377.9 101.308 374.9 90.8576 374.06C83.5776 373.48 77.6276 370.18 72.6376 365.12C68.1876 360.61 65.3676 355.11 64.1076 348.87C64.0276 347.78 64.5876 347.9 65.2676 348.26C68.0176 350.48 70.7276 352.75 73.5476 354.88C74.6676 355.73 75.9076 356.55 77.4476 356.52C79.5176 357.01 81.6276 356.61 83.7076 356.77C85.5476 356.91 85.8776 356.03 85.3276 354.5C83.8076 350.51 80.5576 347.97 77.5476 345.23C73.7276 341.76 69.7876 338.41 66.8376 334.11C62.9076 328.38 61.2276 321.84 60.0576 315.13C58.9476 308.78 59.1976 302.38 59.4976 295.98C59.5276 295.42 59.0376 294.46 60.0276 294.35C60.3876 294.31 60.8476 295.06 61.2576 295.45L61.2476 295.44Z" fill="#B09771"/>
<path d="M85.3292 354.49C86.4692 356.38 85.8592 357.27 83.7492 357.06C81.6492 356.85 79.4692 357.6 77.4492 356.52C79.3692 356.5 81.2992 356.4 83.2192 356.48C84.7092 356.54 85.3692 355.95 85.3292 354.5V354.49Z" fill="#433725"/>
<path d="M65.2791 348.26C64.7891 348.26 64.3691 348.4 64.1191 348.87C63.3491 348.12 63.4591 347.24 63.7991 346.07C64.3691 346.91 64.8191 347.59 65.2791 348.26Z" fill="#9D8D7C"/>
<path d="M226.567 422.08C226.247 424.11 224.647 424.88 223.047 425.65C218.647 426.45 214.457 428.14 209.947 428.54C198.687 429.54 188.427 427.26 180.687 418.53C176.027 413.27 171.937 407.29 172.487 399.73C172.997 392.75 175.107 386.32 181.357 382.11C182.177 381.56 182.927 380.95 183.187 379.93C183.987 378.37 184.617 376.7 185.647 375.29C187.477 372.78 189.547 370.6 193.147 371.66C196.577 372.33 199.487 373.96 202.087 376.27C204.127 378.08 206.237 379.8 208.347 381.53C218.397 389.78 222.317 401.31 225.367 413.3C225.717 414.69 226.097 416.08 226.467 417.47C227.117 418.99 226.967 420.53 226.557 422.08H226.567Z" fill="#EFC08C"/>
<path d="M234.048 443.27C237.178 447.65 240.358 452 242.928 456.75C243.428 457.67 244.118 458.51 244.198 459.62C244.828 466.34 238.258 471.43 231.908 469.62C225.848 467.89 220.178 465.35 216.618 459.82C214.568 456.64 213.138 453.05 212.608 449.28C212.048 445.34 212.738 441.77 216.598 439.44C218.318 438.4 219.758 436.88 221.318 435.58C222.828 436.78 223.788 438.51 225.468 439.57C226.898 440.47 228.178 441.26 230.008 440.5C232.628 439.4 232.478 442.66 234.068 443.27H234.048Z" fill="#EFC08C"/>
<path d="M166.058 394.5C164.158 394.85 162.298 395.36 160.308 395.05C155.538 394.3 152.558 391.66 151.618 386.91C150.968 383.61 149.938 380.33 150.868 376.9C160.488 366.12 172.618 362.94 186.498 365.3C188.088 365.57 189.648 366.23 190.918 367.36C190.908 369.05 189.928 368.52 189.038 368.18C187.938 368.53 186.778 368.76 186.028 369.76C184.888 372.4 183.268 374.79 181.798 377.24C180.928 378.69 179.148 378.63 177.718 379.1C176.578 379.35 175.698 380.05 174.838 380.78C174.168 381.31 173.568 381.92 172.968 382.53C172.348 383.13 171.728 383.73 171.158 384.38C170.638 384.95 170.258 385.62 169.858 386.29C168.768 388 168.118 389.89 167.498 391.8C167.178 392.78 167.128 393.9 166.078 394.49L166.058 394.5Z" fill="#F6CF96"/>
<path d="M183.85 379.92C183.99 381.63 182.62 382.22 181.52 382.98C174.2 388.05 171.28 399.99 174.91 408.08C179.9 419.2 188.01 426 200.19 427.65C206.15 428.46 212 427.83 217.78 426.17C219.48 425.68 221.17 424.48 223.06 425.65C217.7 429.01 211.89 431.48 206.06 433.82C200.69 435.98 195.6 434.28 190.71 431.82C190.38 431.65 189.98 431.6 189.62 431.49C187.45 431.22 185.48 430.42 183.67 429.19C182 428.18 181.21 429.99 179.98 430.37C178.47 431.1 176.89 431.19 175.27 430.85C174.3 430.58 173.35 430.21 172.39 429.9C169.73 428.75 167.5 427.06 165.85 424.65C165.34 423.78 164.88 422.87 164.52 421.92C164.34 421.34 164.26 420.74 164.24 420.13C164.24 419.2 164.2 418.27 164.47 417.37C164.99 415.97 166.15 415.65 167.48 415.48C170.48 415.09 170.62 414.8 169.82 411.76C168.78 407.81 167.7 403.85 167.58 399.74C167.41 393.29 168.77 387.36 173.77 382.78C174.2 382.38 174.64 382.01 175.19 381.78C177.98 380.74 180.92 380.33 183.85 379.9V379.92Z" fill="#B98E5E"/>
<path d="M191.388 435.59C190.818 435.4 190.238 435.22 189.668 435.03C188.908 435.5 187.708 435.05 187.288 436.2C184.548 436.61 181.798 436.7 179.058 436.15C178.838 434.21 176.778 435.6 176.018 434.38C175.858 433.15 178.698 434.6 177.818 432.64C177.688 432.38 177.718 432.14 177.878 431.91C178.838 431.22 180.028 430.99 180.988 430.31C181.778 429.92 182.198 428.89 183.258 428.97C184.648 429.93 186.268 430.59 187.278 432.04C189.018 432.89 190.758 433.75 192.508 434.6C192.128 434.93 191.758 435.26 191.378 435.59H191.388Z" fill="#B19771"/>
<path d="M147.389 379.27C145.429 381.27 145.739 384.35 143.929 386.42C143.389 382.99 141.789 385.07 140.449 385.75C141.569 382.63 142.689 379.51 143.799 376.38C143.959 375.58 144.369 374.92 145.019 374.46C145.989 373.78 147.079 373.76 147.989 374.46C148.909 375.16 148.489 376 147.909 376.75C147.329 377.5 147.389 378.39 147.369 379.26L147.389 379.27Z" fill="#A64258"/>
<path d="M183.848 379.92C181.518 382.12 178.308 381.23 175.648 382.27C176.018 379.85 178.148 379.78 179.838 379.11C181.828 378.86 182.288 377.18 183.008 375.73C184.118 373.51 185.008 371.06 187.928 370.55C189.778 370.44 191.588 370.51 193.158 371.67C189.588 371.74 187.308 373.75 185.648 376.67C185.038 377.75 184.448 378.84 183.848 379.93V379.92Z" fill="#B78E62"/>
<path d="M187.93 370.55C185.27 372.1 184.06 374.74 183.04 377.42C182.49 378.87 181.65 379.53 180.24 379.73C179.41 378.99 178.07 379.73 177.32 378.74C180.57 378.19 182.19 375.96 183.33 373.1C183.86 371.78 184.7 370.54 186.02 369.78C186.43 370.59 187.2 370.51 187.92 370.56L187.93 370.55Z" fill="#443A2F"/>
<path d="M250.597 440.95C250.197 441.34 249.797 441.72 249.397 442.11C246.387 439.79 244.867 436.09 241.777 433.85C242.167 433.1 242.927 432.97 243.627 432.75C246.717 434.83 248.477 438.04 250.597 440.95Z" fill="#AE8962"/>
<path d="M187.299 432.04C185.559 431.6 184.339 430.41 183.129 429.19C183.209 428.81 183.429 428.58 183.809 428.49C185.739 429.49 187.679 430.5 189.609 431.5C188.819 431.58 187.919 431.23 187.299 432.04V432.04Z" fill="#473B30"/>
<path d="M205.999 436.6C203.299 437.87 200.579 437.77 197.859 436.66C200.569 436.64 203.289 436.62 205.999 436.6Z" fill="#A9907B"/>
<path d="M127.428 350.7C126.418 349.51 125.408 348.32 124.398 347.13C126.788 347.14 127.588 348.52 127.428 350.7Z" fill="#443A29"/>
<path d="M189.03 368.19C189.77 368.17 190.53 368.21 190.91 367.37C191.7 367.68 193.01 368.3 192.34 368.97C191.34 369.96 189.89 369.56 189.02 368.2L189.03 368.19Z" fill="#E1CAB2"/>
<path d="M226.57 422.08C226.54 420.54 226.51 419.01 226.48 417.47C227.55 418.99 227.42 420.53 226.57 422.08Z" fill="#48351D"/>
<path d="M250.599 440.95C247.709 438.7 245.829 435.59 243.629 432.75C245.469 431.9 247.309 431.06 249.139 430.19C251.129 429.24 252.909 429 255.159 430.06C257.909 431.36 260.979 432 263.519 433.8C264.389 435.48 265.849 436.13 267.669 436.17C273.219 439.48 278.499 443.16 283.469 447.32C288.569 451.58 293.949 455.51 299.229 459.55C299.489 459.75 299.989 459.65 300.369 459.69C300.969 459.92 301.549 459.92 301.429 459.1C301.299 458.24 301.489 457.67 302.279 457.33C313.169 447.78 324.639 438.92 336.479 430.63C345.859 424.06 352.309 415.37 357.419 405.45C359.289 401.83 362.709 399.24 363.959 395.25C368.529 390.82 374.349 389.06 380.269 387.46C381.529 387.12 383.079 386.45 383.649 387.74C384.109 388.79 382.749 389.87 381.679 390.54C379.639 391.81 377.299 392.4 375.139 393.42C372.159 394.83 371.189 397.81 369.009 399.78C368.439 400.95 368.089 402.24 367.019 403.11C366.059 404.1 364.699 404.67 364.059 405.99C365.029 410.62 362.269 412.54 358.479 413.74C357.739 413.97 357.009 414.26 356.559 414.93C356.999 415.27 356.989 414.63 357.249 414.61C362.999 412.34 367.749 408.56 372.449 404.68C373.589 404.13 374.579 402.88 376.059 403.91C377.829 405.76 377.529 407.61 376.259 409.64C374.489 412.48 371.459 413.69 368.979 415.61C367.499 417.98 366.019 420.35 364.769 422.86C364.219 423.62 363.889 424.67 362.639 424.54C360.489 425.87 358.449 427.4 356.179 428.48C350.169 431.33 345.909 436.07 341.729 441.01C334.349 449.72 326.269 457.75 317.389 464.95C314.059 467.65 310.589 470.18 307.419 473.05C304.919 475.31 302.349 475.33 299.579 474.13C295.239 472.26 291.279 469.91 288.579 465.77C282.429 456.33 273.079 451.21 262.929 447.32C258.559 445.65 254.149 444.14 250.569 440.96L250.599 440.95Z" fill="#EFC38D"/>
<path d="M363.777 405.67C363.857 403.84 365.797 403.82 366.627 402.73C367.777 402.39 368.377 400.98 369.767 401.09C372.517 399.76 375.457 399.61 378.437 399.79C381.667 401.99 385.327 403.63 387.607 407.07C387.997 407.67 388.847 407.95 389.667 407.97C390.477 408.56 390.447 409.34 389.897 409.98C389.327 410.64 388.587 410.31 388.127 409.77C385.237 406.44 380.887 405.57 377.357 403.32C377.157 403.16 376.947 403.02 376.727 402.9C375.827 402.79 374.957 402.81 374.207 403.42C373.557 404.12 372.747 404.56 371.857 404.88C370.927 404.9 369.907 404.31 369.637 406.09C369.357 407.96 367.347 408.61 365.987 409.66C365.287 410.2 364.697 409.73 364.367 409.02C363.877 407.96 363.527 406.86 363.797 405.67H363.777Z" fill="#B88D60"/>
<path d="M369.059 419.79C368.429 420.36 367.799 420.93 367.179 421.49C366.889 421.69 366.649 421.65 366.449 421.36C366.009 418.69 367.599 417.33 369.709 416.3C372.089 415.45 374.239 415.64 376.329 417.3C378.839 419.29 380.849 421.69 383.429 424.62C378.889 424.21 376.599 420.78 373.199 419.75C372.899 419.53 372.539 419.42 372.189 419.29C371.109 419.24 369.969 418.82 369.049 419.8L369.059 419.79Z" fill="#B68D62"/>
<path d="M383.809 415.07C384.189 416.42 384.569 417.78 385.059 419.51C383.139 419.21 382.269 418.35 381.849 416.84C381.429 415.3 380.629 413.75 379.339 413.01C376.909 411.61 377.189 410.15 378.789 408.28C379.399 408.76 380.079 409.29 380.749 409.81C381.139 411.93 383.149 413.11 383.809 415.07V415.07Z" fill="#B68D62"/>
<path d="M362.679 424.52C363.229 423.91 363.779 423.3 364.319 422.69C364.599 422.47 364.859 422.48 365.119 422.73C365.479 423.33 365.349 423.89 364.969 424.42C363.819 426.97 361.469 428.43 359.629 430.35C358.799 430.96 357.859 431.38 356.919 431.79C356.119 432.22 355.289 432.61 354.579 433.19C354.289 433.23 353.999 433.28 353.709 433.32C352.579 431.43 354.549 431.48 355.299 431.08C358.289 429.46 361.129 427.75 362.689 424.54L362.679 424.52Z" fill="#463A2F"/>
<path d="M389.66 407.97C388.82 409.15 387.83 408.24 387.49 407.75C385.35 404.59 381.9 403.06 379.09 400.73C378.81 400.49 378.65 400.11 378.43 399.79C381.95 400.5 384.49 402.81 387.02 405.11C387.97 405.98 388.78 407.01 389.66 407.97V407.97Z" fill="#E4BE90"/>
<path d="M364.9 422.7C364.71 422.7 364.52 422.7 364.32 422.68C365.44 420.02 366.38 417.24 369.01 415.58C369.24 415.82 369.47 416.05 369.71 416.29C368.38 417.85 366.77 419.24 366.6 421.49C366.35 422.34 365.76 422.71 364.9 422.7V422.7Z" fill="#493A2F"/>
<path d="M383.807 415.07C382.567 413.74 381.287 412.44 380.087 411.07C379.347 410.23 379.887 409.9 380.747 409.8C382.707 411.01 384.037 412.58 383.807 415.06V415.07Z" fill="#DDB78C"/>
<path d="M377.239 402.81C377.269 402.98 377.299 403.16 377.349 403.33C376.929 403.52 376.509 403.71 376.089 403.9C374.669 403.71 373.879 405 372.679 405.33C372.279 405.2 372.029 404.93 371.949 404.51C372.559 403.97 373.159 403.42 373.769 402.88C374.919 402.23 376.079 402.34 377.239 402.81Z" fill="#483823"/>
<path d="M369.769 401.09C368.599 401.4 368.189 403.18 366.629 402.73C367.409 401.73 367.839 400.44 369.029 399.76C369.059 400.32 369.209 400.82 369.769 401.09V401.09Z" fill="#463626"/>
<path d="M364.898 422.7C365.468 422.3 366.038 421.9 366.598 421.49C366.788 421.49 366.988 421.49 367.178 421.49C366.528 422.53 366.208 423.82 364.968 424.41C364.948 423.84 364.918 423.27 364.898 422.7V422.7Z" fill="#96816B"/>
<path d="M369.059 419.79C369.859 417.68 371.259 418.62 372.569 419.1C371.709 419.95 370.469 419.04 369.569 419.74C369.399 419.76 369.229 419.78 369.059 419.79Z" fill="#A68F74"/>
<path d="M356.759 431.61C357.689 431.12 358.499 430.37 359.629 430.34C359.069 431.55 357.929 431.88 356.789 432.22C356.609 432.09 356.549 431.96 356.599 431.82C356.649 431.68 356.699 431.61 356.759 431.61V431.61Z" fill="#A88B71"/>
<path d="M369.578 419.74C370.408 418.71 371.608 419.43 372.578 419.1C372.788 419.31 372.998 419.53 373.208 419.74C371.998 419.74 370.788 419.74 369.578 419.74Z" fill="#4F351B"/>
<path d="M356.758 431.61C356.768 431.82 356.778 432.02 356.788 432.23C356.178 432.84 355.378 433.01 354.578 433.18C354.978 432.2 355.908 431.96 356.758 431.61Z" fill="#A08865"/>
<path d="M85.7773 462.01C87.1373 461.84 87.7573 462.42 87.5673 463.8C86.9673 463.2 86.3773 462.61 85.7773 462.01Z" fill="#DEC6A1"/>
<path d="M302.287 457.33C300.737 458.6 302.677 459.39 302.797 460.54C301.687 460.94 301.017 460.34 300.367 459.69C301.287 459.12 300.927 458.16 301.087 457.37C301.487 457.36 301.877 457.35 302.277 457.34L302.287 457.33Z" fill="#4B3524"/>
<path d="M267.67 436.16C265.63 437.46 263.8 436.42 263.52 433.79C265.05 434.32 266.4 435.16 267.67 436.16Z" fill="#E7C297"/>
<path d="M95.0889 453.78C95.0889 453.29 95.0089 452.79 95.1089 452.32C95.3289 451.27 95.1389 449.49 96.6689 449.81C97.8489 450.06 96.5389 451.28 96.4789 452.08C96.1389 456.89 97.6789 461.18 100.069 465.26C100.389 465.8 101.719 466.33 100.589 467.07C99.8689 467.54 99.5589 466.45 99.1789 465.94C96.4789 462.34 95.5089 458.15 95.0889 453.78Z" fill="#4A3829"/>
<path d="M154.409 504.74C154.649 504.97 154.889 505.21 155.129 505.44C155.009 505.78 154.939 506.15 154.759 506.45C154.629 506.66 154.339 506.77 154.069 506.97C153.769 506.11 153.589 505.35 154.409 504.74V504.74Z" fill="#543619"/>
<path d="M258.788 493C260.288 493.93 261.127 495.26 261.217 497.04C262.007 499.08 262.007 501.12 261.217 503.16C261.287 505.59 259.717 507.39 258.767 509.43C258.337 510.01 258.238 510.81 257.538 511.19C254.408 513.77 251.558 516.84 247.128 517.14C245.348 517.99 243.567 517.88 241.787 517.11C241.587 517.11 241.388 517.11 241.188 517.1C241.418 515 243.078 516.2 244.068 515.86C245.008 515.33 246.377 516.12 247.077 514.87C252.907 513.66 259.037 506.97 259.897 500.32C260.107 498.73 259.318 497.32 258.788 495.88C258.438 494.93 257.568 493.97 258.788 493Z" fill="#3F3835"/>
<path d="M248.2 465.59C248.06 465.53 247.92 465.49 247.78 465.45C247.12 464.33 247.28 463.18 247.68 462.02C248.75 463.08 248.12 464.38 248.2 465.58V465.59Z" fill="#D09569"/>
<path d="M247.68 462.02C247.71 463.16 247.75 464.31 247.78 465.45C246.54 464.41 247.3 463.03 247.15 461.81C247.33 461.87 247.51 461.94 247.68 462.02Z" fill="#65320E"/>
<path d="M247.088 514.86C246.558 516.62 245.138 515.7 244.078 515.85C245.078 515.52 246.088 515.19 247.088 514.86Z" fill="#6F3B0F"/>
<path d="M242.35 477.11C242.75 476.76 243.16 476.41 243.56 476.06C243.51 477 243.19 477.79 242.38 478.34C242.37 477.93 242.36 477.52 242.34 477.11H242.35Z" fill="#C47023"/>
<path d="M230.68 478.53C230.85 478.47 231.03 478.43 231.21 478.41C233.32 479.14 235.55 478.29 237.67 478.89C235.29 479.77 232.92 480.45 230.68 478.52V478.53Z" fill="#97704B"/>
<path d="M237.667 478.9C235.507 478.76 233.287 479.57 231.207 478.42C233.397 478.42 235.587 478.43 237.767 478.44C237.727 478.59 237.697 478.75 237.667 478.9V478.9Z" fill="#573515"/>
<path d="M261.739 497.16C262.679 499.11 262.649 501.06 261.749 503.01C261.279 501.06 261.299 499.11 261.739 497.16Z" fill="#987458"/>
<path d="M261.74 497.16C261.74 499.11 261.74 501.06 261.75 503.02C261.57 503.06 261.4 503.1 261.23 503.16C261.23 501.12 261.23 499.08 261.23 497.04C261.4 497.09 261.57 497.13 261.75 497.16H261.74Z" fill="#563316"/>
<path d="M241.809 517.11C243.589 517.11 245.369 517.13 247.149 517.14C247.099 517.3 247.079 517.46 247.069 517.63C245.529 518.22 243.969 518.09 242.409 517.71C242.209 517.51 242.009 517.31 241.819 517.11H241.809Z" fill="#5B3515"/>
<path d="M242.398 517.71C243.948 517.68 245.508 517.66 247.058 517.63C245.518 518.66 243.968 518.52 242.398 517.71Z" fill="#9B7555"/>
<path d="M228.29 477.85C228.32 478.02 228.36 478.2 228.41 478.37C227.2 478.06 225.55 479.3 224.82 477.34C225 477.29 225.18 477.26 225.36 477.25C226.23 477.96 227.43 477.11 228.29 477.86V477.85Z" fill="#9A724C"/>
<path d="M257.551 511.19C257.691 510.41 258.061 509.8 258.781 509.43C258.831 510.34 258.841 511.22 257.551 511.19Z" fill="#976C43"/>
<path d="M177.32 378.73C178.32 378.99 179.72 378.06 180.24 379.72C178.44 380.08 176.92 380.95 175.65 382.26C169.72 386.56 168.25 392.73 168.33 399.59C168.39 404.38 170.11 408.86 170.85 413.52C171.26 416.07 170.14 416.09 168.53 416.25C167.23 416.38 165.72 415.82 164.93 417.45C164.65 418.41 164.38 419.37 164.93 420.34C164.99 420.87 165.04 421.39 165.1 421.92C165.39 422.81 165.34 423.85 166.28 424.43C168.27 426.22 169.97 428.37 172.65 429.25C173.19 430.32 174.34 429.85 175.15 430.26C176.89 430.49 178.57 430.14 180.24 429.71C181.24 429.45 181.52 429.94 181.43 430.83C180.38 431.45 179.4 432.22 178.08 432.13C177.03 432.48 175.99 432.51 174.95 432.1H174.67L174.4 432.04C173.7 431.48 172.79 431.82 172.03 431.51C166.19 430.24 161.44 422.45 162.58 417.64C162.82 416.62 163.35 415.91 163.86 415.11C164.03 414.91 164.24 414.76 164.49 414.66C166.01 414.5 167.55 414.63 169.06 414.38C169.28 414.26 169.47 414.1 169.62 413.9C166.79 407.73 165.53 401.28 166.08 394.5C166.99 391.47 167.34 388.22 169.54 385.7C170.35 385.38 170.46 384.55 170.85 383.92C171.4 383.34 171.95 382.76 172.5 382.19C173.44 381.97 173.99 381.3 174.4 380.49C175.25 379.69 175.87 378.49 177.35 378.73H177.32Z" fill="#3B3838"/>
<path d="M179.068 436.15C181.808 436.16 184.558 436.18 187.298 436.19C184.358 437.2 181.418 437.1 178.488 436.18C178.688 436.17 178.878 436.16 179.078 436.15H179.068Z" fill="#A29580"/>
<path d="M169.6 413.9C169.63 414.09 169.66 414.28 169.69 414.48C168 415.25 166.12 414.37 164.43 415.08C164.23 415.08 164.04 415.1 163.84 415.11C164.12 413.36 165.51 414.01 166.51 413.92C167.53 413.83 168.57 413.9 169.6 413.9Z" fill="#A9967E"/>
<path d="M172 431.52C172.95 430.99 173.72 431.23 174.37 432.05C173.53 432.1 172.67 432.26 172 431.52Z" fill="#3D3A39"/>
<path d="M174.91 432.1C175.95 432.11 177 432.12 178.04 432.13C177.97 432.3 177.89 432.46 177.82 432.63C176.84 432.49 175.76 432.92 174.91 432.1Z" fill="#3D3A39"/>
<path d="M236.468 476.62C236.558 476.64 236.678 476.62 236.748 476.68C236.868 476.77 236.968 476.9 237.078 477.01C235.348 477.42 233.608 477.3 231.868 477.06C231.838 477.06 231.788 476.9 231.798 476.83C231.818 476.74 231.888 476.67 231.938 476.59C233.448 476.61 234.958 476.62 236.458 476.64L236.468 476.62Z" fill="#463524"/>
<path d="M201.941 450.26C201.921 448.7 201.911 447.14 201.891 445.58C202.901 447.13 202.821 448.69 201.941 450.26Z" fill="#AB907B"/>
<path d="M482.129 393.4C482.149 390.29 482.169 387.18 482.189 384.07C483.399 384.43 482.739 385.44 482.759 386.08C482.849 389.49 482.789 392.91 482.779 396.33C482.619 396.33 482.469 396.33 482.319 396.33C482.259 395.36 482.199 394.39 482.139 393.42L482.129 393.4Z" fill="#D59860"/>
<path d="M228.289 477.85C227.299 477.69 226.189 478.16 225.359 477.24C226.349 477.38 227.489 476.8 228.289 477.85Z" fill="#5B3815"/>
<path d="M479.76 390.98C479.76 392.21 479.76 393.44 479.76 394.66C479.24 394.64 478.71 394.62 478.19 394.59C480.53 392.5 478.58 391.81 477.02 391C477.93 391 478.84 390.98 479.76 390.97V390.98Z" fill="#C19369"/>
<path d="M187.289 436.21C187.479 434.59 188.729 435.13 189.669 435.04C189.039 435.41 188.409 435.78 187.779 436.15C187.619 436.17 187.449 436.19 187.289 436.21Z" fill="#A29580"/>
<path d="M174.38 380.49C174.52 381.92 173.81 382.4 172.48 382.19C172.97 381.46 173.56 380.84 174.38 380.49Z" fill="#463724"/>
<path d="M170.83 383.92C170.89 384.88 170.85 385.76 169.52 385.7C169.75 384.96 170.09 384.29 170.83 383.92Z" fill="#51402A"/>
<path d="M181.397 430.84C180.997 430.47 180.607 430.09 180.207 429.72C181.287 428.97 181.927 426.94 183.797 428.5C183.567 428.73 183.347 428.97 183.117 429.2C182.357 429.55 182.497 430.85 181.387 430.85L181.397 430.84Z" fill="#3D3A39"/>
<path d="M164.907 420.34C163.407 419.38 164.457 418.42 164.907 417.45C164.907 418.41 164.907 419.37 164.907 420.34Z" fill="#3D3A39"/>
<path d="M166.259 424.43C164.469 424.25 165.129 422.92 165.079 421.92C165.469 422.76 165.869 423.59 166.259 424.43Z" fill="#3D3A39"/>
<path d="M175.117 430.26C174.177 430.19 172.957 430.81 172.617 429.25C173.447 429.59 174.277 429.93 175.117 430.26Z" fill="#3D3A39"/>
<path d="M371.95 404.5C372.19 404.77 372.44 405.05 372.68 405.32C368.05 409.36 363.27 413.15 357.33 415.15C356.72 415.55 356.13 415.6 355.57 415.06C356.73 412.93 359.15 412.25 360.99 411.79C363.62 411.14 363.57 410.06 363.3 408.01C363.22 407.42 361.59 405.95 363.79 405.67C364.26 406.9 364.74 408.13 365.26 409.49C366.4 408.6 367.47 407.81 368.48 406.95C368.83 406.65 369.14 406.2 369.25 405.76C369.77 403.65 369.74 403.65 371.96 404.5H371.95Z" fill="#423A2F"/>
<path d="M355.569 415.06C356.159 415.09 356.749 415.12 357.329 415.15C357.239 416.16 356.549 416.39 355.749 416.19C355.049 416.02 355.489 415.47 355.569 415.06Z" fill="#E3C1A3"/>
<path d="M377.24 402.81C376.08 402.83 374.93 402.85 373.77 402.88C374.91 401.82 376.07 401.89 377.24 402.81Z" fill="#A48F7E"/>
<path d="M164.43 415.08C166.07 413.86 167.96 414.89 169.69 414.48C168.03 415.46 166.23 415.32 164.43 415.08Z" fill="#3D3A39"/>
</svg>
