<svg width="596" height="842" viewBox="0 0 596 842" fill="none" xmlns="http://www.w3.org/2000/svg">
<path d="M393.252 351.47C385.752 362.74 378.192 373.99 369.732 384.55C365.422 389.94 362.542 395.56 362.702 402.53C362.742 404.36 362.292 406.55 361.172 407.34C356.792 410.44 357.922 414.74 357.922 418.89C357.922 433.48 358.542 448.1 356.862 462.62C355.652 473.09 353.642 483.48 351.652 493.83C350.992 497.25 350.972 500.33 352.372 503.47C359.992 520.59 364.432 538.37 362.602 557.24C361.702 566.5 361.172 575.79 359.732 585.02C359.092 589.12 360.322 593.56 360.962 597.81C362.062 605.13 362.292 612.55 363.492 619.87C364.092 623.55 365.632 624.49 368.982 624.75C381.402 625.72 393.832 626.84 405.662 631.21C408.172 632.14 410.662 633.16 413.082 634.29C422.332 638.62 426.902 645.77 426.662 656.15C426.432 665.79 426.522 675.42 424.552 684.93C423.342 690.77 420.012 694.59 414.642 697.2C405.682 701.55 396.132 703.51 386.402 704.51C368.392 706.36 350.352 706.35 332.402 703.63C323.032 702.21 313.882 699.98 305.112 696.2C302.202 694.94 300.632 693.16 299.972 690.17C297.852 680.49 295.912 670.79 296.022 660.14C287.992 665.72 279.362 668.88 270.192 670.13C259.852 671.55 249.422 672.54 238.952 672.14C219.822 671.42 200.852 669.53 182.452 663.82C182.002 663.68 181.492 663.69 181.072 663.5C169.962 658.66 170.892 660.83 169.392 647.75C168.412 639.22 168.352 630.78 169.242 622.2C169.952 615.33 172.992 610.7 178.952 607.66C188.542 602.77 198.882 600.66 209.462 599.98C215.902 599.56 222.362 598.01 228.862 599.51C230.612 599.91 230.732 598.37 231.472 597.41C235.372 592.32 236.862 585.88 240.802 580.82C242.212 580.5 242.392 581.56 242.682 582.5C242.772 583.22 242.702 583.92 242.502 584.61C240.472 589.2 238.012 593.59 235.892 598.14C235.252 599.51 234.122 601.03 235.692 602.42C236.972 603.55 238.602 603.42 240.172 602.97C241.682 602.54 242.892 601.37 244.512 601.21C245.472 601.21 246.212 601.65 246.792 602.39C247.572 603.97 246.592 606.33 248.922 607.25C254.002 607.84 258.852 609.26 263.612 611.03C265.552 611.75 267.422 612.6 269.092 613.83C276.102 618.97 275.682 625.82 268.082 629.99C263.132 632.71 257.652 634.04 252.152 634.26C239.042 634.77 225.882 635.38 213.022 631.66C208.562 630.37 204.332 628.65 200.482 626.1C197.062 623.83 195.032 620.81 196.172 616.44C198.162 611.5 202.562 609.82 207.152 608.45C209.102 607.87 211.082 607.33 213.112 607.1C218.622 606.18 224.112 605.08 230.782 605.52C222.612 602.36 215.302 605.05 208.062 605.03C205.702 605.34 203.382 605.84 201.062 606.37C195.102 607.21 189.362 608.93 183.852 611.29C180.192 612.86 176.302 615.07 176.162 619.43C176.032 623.49 179.992 625.35 183.122 627.06C187.552 629.48 192.382 631.01 197.242 632.38C200.232 633.28 203.282 633.96 206.322 634.66C208.672 634.71 210.912 635.54 213.252 635.67C225.312 637.37 237.452 637.72 249.602 637.57C251.732 637.52 253.862 637.38 255.952 636.9C257.752 636.62 259.582 636.75 261.382 636.56C265.532 635.78 269.752 635.34 273.852 634.26C278.592 632.97 283.232 631.43 287.492 628.92C293.042 625.65 293.392 620.91 287.922 617.47C277.002 610.61 265.042 606.95 252.042 607.15C251.092 607.16 250.152 607.32 249.282 606.79C248.392 605.79 248.332 604.63 248.602 603.4C249.102 601.79 250.582 600.97 251.532 599.72C252.482 598.6 253.562 597.58 254.082 596.15C254.472 595.2 254.872 594.24 255.402 593.36C255.622 593.02 255.872 592.7 256.142 592.4C257.042 591.53 257.432 590.45 257.422 589.21C257.492 588.8 257.652 588.42 257.882 588.08C259.092 586.97 260.172 585.77 260.762 584.21C261.082 583.45 261.112 582.77 260.222 582.35C259.852 582.15 259.562 581.88 259.332 581.53C258.972 580.71 258.992 579.88 259.262 579.04C260.042 577.49 261.082 576.11 262.122 574.73C263.442 573.3 264.852 571.97 266.172 570.54C268.912 567.71 271.892 565.12 274.072 561.76C278.902 554.29 278.762 552.19 272.772 545.6C271.772 544.74 272.222 543.14 271.102 542.33C269.652 539.72 269.182 536.89 269.072 533.96C269.272 532.32 268.682 530.1 270.792 529.56C272.312 529.17 272.992 530.98 273.812 532.08C275.262 538.22 278.612 543.28 282.332 548.31C288.572 556.73 287.122 567.56 278.602 573.46C269.932 579.46 265.552 588.33 260.662 597C259.082 599.8 261.002 600.18 263.022 600.65C269.972 602.24 276.962 603.72 283.532 606.65C287.172 608.27 290.692 610.07 293.752 612.65C297.982 616.22 300.392 620.6 300.172 626.32C300.012 630.6 300.192 634.88 300.112 639.17C300.082 640.78 300.572 642.58 299.232 643.74C306.702 632.85 318.502 629.43 330.682 626.82C338.092 625.23 339.402 623.42 338.792 615.81C338.402 610.91 337.612 606.06 337.432 601.14C337.332 598.45 336.862 595.8 335.542 593.35C334.472 591.37 334.052 589.18 333.852 586.95C331.832 564.52 328.782 542.23 325.162 520.01C324.852 518.13 324.602 516.21 323.882 514.46C318.072 500.36 316.732 485.24 314.052 470.47C311.472 456.24 308.762 442.11 304.072 428.41C303.632 427.14 302.722 425.86 303.482 424.56C296.282 441.77 284.382 455.94 271.582 469.36C267.462 473.68 265.312 477.72 266.792 483.68C267.712 487.36 268.392 491.12 269.402 494.79C271.892 503.8 272.172 512.92 271.172 522.13C270.052 525.67 268.532 523.83 267.032 522.44C266.632 522.25 266.272 522.02 265.922 521.76C265.082 520.97 264.072 520.28 264.432 518.87C267.022 515.46 266.322 511.67 265.672 507.91C264.162 499.16 261.982 490.56 260.222 481.86C259.022 475.89 261.152 471.73 264.982 467.8C272.962 459.6 279.782 450.47 286.742 441.42C292.022 434.56 294.952 426.41 299.772 419.34C300.752 417.91 300.272 416.29 300.072 414.72C299.862 413.04 299.242 410.88 301.472 410.27C303.622 409.68 304.412 411.7 305.042 413.32C307.442 419.53 309.772 425.76 311.812 432.11C316.972 448.18 319.002 464.89 322.132 481.39C324.072 491.59 325.812 501.83 329.532 511.75C333.072 521.19 334.052 531.48 335.282 541.56C337.022 555.87 339.172 570.13 340.362 584.51C340.862 590.53 342.132 591.23 348.482 590.05C354.852 587.96 355.562 587.15 355.522 580.62C355.462 569.98 357.712 559.51 357.512 548.84C357.302 537.94 356.092 527.13 351.652 517.24C346.682 506.18 345.782 495.27 348.172 483.5C352.482 462.28 352.552 440.69 352.802 418.58C346.072 421.76 339.152 421.58 332.262 421.3C327.272 421.09 322.742 417.06 321.902 412.37C321.272 408.86 322.802 406.43 326.312 406.64C332.982 407.03 336.192 402.76 339.262 398.04C339.512 396.83 338.672 395.83 338.572 394.67C338.722 394.21 339.012 393.87 339.442 393.64C340.612 393.19 341.782 393.2 342.962 393.59C343.432 393.78 343.802 394.08 344.092 394.49C344.912 396.11 344.812 397.79 344.432 399.49C344.182 400.4 343.762 401.24 343.272 402.04C341.032 405.11 337.832 407.22 335.302 410.02C334.022 410.92 332.742 411.84 331.212 412.29C330.352 412.5 329.472 412.54 328.582 412.46C327.812 412.42 327.142 412.02 326.412 411.83C326.552 412.12 326.752 412.35 327.032 412.53C327.782 413.11 328.662 413.41 329.522 413.76C330.622 414.25 331.622 414.89 332.692 415.44C334.412 416.14 335.992 416.28 337.152 414.47C337.422 414.13 337.742 413.83 338.092 413.57C339.412 412.74 340.812 412.26 342.392 412.59C343.932 413.05 343.792 414.13 343.412 415.29C344.592 416.65 345.132 415.29 345.832 414.72C346.922 413.3 347.662 411.5 349.712 411.12C350.502 411.15 351.112 411.77 351.912 411.78C353.582 411.25 354.472 409.84 355.522 408.61C358.032 406.16 358.392 402.83 359.212 399.68C360.892 397.23 360.282 394.42 360.462 391.74C360.532 390.29 360.892 388.92 361.832 387.78C366.742 381.82 370.492 374.96 375.712 369.25C380.422 364.09 383.952 358.11 387.952 352.46C388.952 351.04 389.762 349.45 391.782 349.28C392.852 349.65 393.072 350.55 393.192 351.51L393.252 351.47Z" fill="#383938"/>
<path d="M400.793 325.61C397.333 317.37 394.503 308.94 392.053 300.35C387.513 284.51 382.923 268.64 375.703 253.79C373.063 248.38 370.753 241.72 362.713 241.68C362.313 241.67 361.743 241.36 361.573 241.03C358.923 235.75 353.803 235.37 348.893 234.2C346.743 233.7 344.673 232.12 342.973 230.58C341.533 229.27 343.543 227.74 343.553 226.29C343.573 223.3 343.733 220.34 343.273 217.32C342.393 211.43 341.873 205.43 342.793 199.54C343.393 195.75 343.663 192.2 342.973 188.35C342.293 184.5 340.563 181.04 341.403 176.53C344.193 161.44 340.993 147.71 322.933 140.55C320.613 139.63 318.313 140.07 315.903 138.84C306.213 133.86 296.543 135.95 288.293 142.91C288.643 143.86 289.343 144.34 290.283 144.49C290.373 144.5 290.463 144.51 290.563 144.52H290.603C292.393 144.41 293.843 143.36 295.473 142.82C300.013 141.3 304.583 139.88 309.463 140.74C309.563 140.75 309.663 140.77 309.763 140.79C310.173 140.9 310.563 141 310.963 141.13C311.613 141.34 312.253 141.6 312.853 141.95C314.483 142.91 316.063 143.96 317.243 145.46C319.183 147.92 320.843 147.45 322.383 145.06C323.613 143.87 324.423 144.69 325.223 145.64C326.573 147.81 328.523 149.31 330.623 150.7C336.073 154.31 336.743 160.58 338.973 165.97C339.793 168.26 339.903 170.55 338.993 172.84C338.343 174.21 337.773 175.61 337.273 177.05C337.263 177.08 337.253 177.1 337.253 177.14C337.203 177.28 337.153 177.41 337.123 177.55C336.523 179.39 335.893 181.2 333.923 182.12C332.383 182.9 330.833 182.72 329.293 182.12C326.963 181.64 325.453 179.68 323.363 178.76H323.353C323.283 178.72 323.193 178.69 323.103 178.65C322.983 178.65 322.863 178.66 322.763 178.67C321.863 178.78 321.373 179.28 321.113 180C321.043 180.18 320.983 180.37 320.953 180.58C320.923 180.71 320.903 180.84 320.893 180.98C321.103 183.08 322.173 184.33 323.533 185.27C323.883 185.52 324.263 185.74 324.643 185.97C325.533 186.46 326.463 186.9 327.343 187.41C328.853 187.93 330.413 188.09 331.993 188.19C336.473 188.46 336.873 188.93 336.253 193.29C336.113 194.22 335.883 195.14 335.853 196.09C335.893 196.8 335.883 197.55 335.983 198.25C335.993 198.44 336.023 198.62 336.053 198.81C336.273 199.87 336.823 200.74 338.253 201.03C340.563 201.5 337.843 201.85 338.353 202.16C338.323 202.22 338.303 202.28 338.283 202.34C338.063 202.84 337.953 203.36 337.953 203.87C337.953 204.38 338.053 204.89 338.233 205.4C338.323 205.59 338.413 205.77 338.513 205.96C338.513 205.96 338.513 205.97 338.523 205.96C338.553 206.03 338.593 206.11 338.643 206.18C338.943 206.67 339.263 207.16 339.403 207.72C339.453 207.9 339.473 208.08 339.493 208.29C339.503 208.36 339.513 208.44 339.513 208.51C339.703 210.89 337.983 212.84 337.993 215.18C337.993 215.42 338.023 215.65 338.083 215.88C338.113 216.07 338.173 216.27 338.233 216.46C338.523 217.28 338.993 218.04 339.293 218.87C339.363 219.05 339.433 219.23 339.473 219.43C339.483 219.5 339.493 219.57 339.503 219.64C340.183 223.67 338.313 226.62 335.203 229.32C335.563 228.04 336.003 227.04 336.123 225.97C336.133 225.4 336.193 224.85 336.313 224.31C336.453 223.59 336.673 222.9 336.953 222.21C337.113 221.81 337.293 221.42 337.493 221.03C337.543 220.76 337.553 220.51 337.533 220.24C337.533 220.12 337.523 219.99 337.493 219.87C337.493 219.87 337.483 219.86 337.493 219.86C337.493 219.81 337.473 219.75 337.463 219.7C337.193 219.06 336.743 218.67 336.193 218.46C336.003 218.37 335.793 218.32 335.573 218.28C335.473 218.26 335.363 218.24 335.253 218.23C334.633 218.2 334.023 218.27 333.443 218.51C333.353 218.54 333.273 218.57 333.183 218.62C333.163 218.63 333.143 218.64 333.133 218.66C332.583 219 332.183 219.45 331.933 220.04C331.913 220.07 331.893 220.1 331.883 220.14C331.883 220.15 331.873 220.16 331.873 220.17C331.933 222.15 331.013 223.88 330.533 225.72C330.503 225.87 330.473 226.02 330.433 226.17C330.413 226.28 330.393 226.39 330.373 226.5C330.303 226.85 330.243 227.21 330.203 227.56C330.173 227.8 330.153 228.03 330.143 228.28C330.043 229.45 330.083 230.63 330.083 231.82C329.683 232.06 330.343 234.05 329.313 232.71C328.093 231.14 328.713 229.14 329.683 227.41C329.713 227.36 329.743 227.3 329.783 227.25C329.823 227.18 329.873 227.1 329.913 227.03C330.023 226.74 330.103 226.45 330.163 226.15C330.193 226.01 330.213 225.88 330.233 225.74C330.233 225.73 330.223 225.72 330.223 225.71C329.733 223.59 331.163 221.46 330.433 219.35C330.423 219.3 330.403 219.24 330.383 219.2C330.323 219.02 330.233 218.85 330.123 218.68C329.673 218.42 329.213 218.28 328.743 218.25C328.743 218.25 328.743 218.26 328.733 218.25C328.423 218.23 328.113 218.25 327.803 218.31C327.683 218.32 327.553 218.35 327.443 218.38C325.283 219.5 323.903 221.27 323.183 223.58V223.65C323.183 223.74 323.183 223.81 323.203 223.9C323.263 224.69 323.743 225.36 324.023 226.07C324.113 226.26 324.173 226.44 324.213 226.65C324.233 226.85 324.253 227.07 324.273 227.27C324.293 227.49 324.313 227.72 324.333 227.94C324.353 229.62 324.373 231.29 324.293 232.97C324.283 233.18 324.273 233.38 324.263 233.57V233.59C324.253 233.76 324.243 233.94 324.233 234.11C324.223 234.14 324.223 234.18 324.213 234.22C323.743 236.94 321.783 239.45 323.103 242.42C323.393 242.72 323.653 242.9 323.893 243.01H323.903C323.903 243.01 323.973 243.05 324.023 243.05C324.883 243.32 325.523 242.56 326.203 242.02C326.443 241.84 326.673 241.68 326.923 241.59H326.933C329.623 243.69 332.173 245.88 332.453 249.55C332.473 249.7 332.473 249.86 332.473 250.03C332.483 250.08 332.483 250.14 332.483 250.19C332.763 251.5 333.563 252.13 334.833 252.11C334.893 252.11 334.973 252.11 335.043 252.1C335.193 252.07 335.333 252.03 335.463 251.97C336.493 251.61 336.953 250.7 337.303 249.68C337.313 249.63 337.323 249.57 337.343 249.52C337.373 249.39 337.413 249.26 337.453 249.13C337.583 248.74 337.723 248.35 337.733 247.93C337.923 248.38 337.623 248.75 337.523 249.15C337.503 249.24 337.493 249.32 337.493 249.41C337.483 249.45 337.473 249.48 337.463 249.53C337.113 250.77 336.593 251.95 336.053 253.11C336.013 253.2 335.963 253.29 335.923 253.38C335.793 253.66 335.653 253.92 335.493 254.17C335.023 254.93 334.453 255.63 334.093 256.45C334.073 256.5 334.043 256.56 334.003 256.61C333.913 256.81 333.813 257.01 333.693 257.2C333.583 257.4 333.453 257.6 333.323 257.78C333.183 257.97 333.023 258.15 332.863 258.34C332.703 258.51 332.533 258.68 332.353 258.84C331.783 259.43 330.993 259.71 330.273 260.08C330.093 260.18 329.933 260.27 329.773 260.37H329.763C329.343 260.65 328.973 260.99 328.723 261.49C328.153 263.9 327.983 266.19 330.573 267.65C330.703 267.22 330.773 267.63 330.583 267.67C330.493 267.7 330.373 267.65 330.153 267.43C321.633 268.8 312.943 269.61 304.043 268.33C290.903 266.43 280.343 261.03 273.913 248.96C271.973 245.34 270.903 241.88 275.553 239.32C276.293 238.91 276.683 238.1 276.893 237.24C276.913 237.13 276.933 237.04 276.953 236.93C276.953 236.88 276.943 236.83 276.943 236.78C276.893 235.54 277.003 234.18 275.073 234.27C272.623 234.9 271.193 238.19 268.613 237.64C263.663 236.59 260.673 239.5 257.323 242.09C255.223 243.71 254.773 246.4 253.063 248.2C243.863 257.87 242.653 269.56 245.423 281.73C248.113 293.5 252.333 304.9 254.733 316.76C255.623 321.15 256.983 325.44 255.233 330.16C249.823 344.82 244.943 359.68 239.503 374.34C236.083 383.61 235.883 392.26 241.353 400.93C243.763 404.76 246.243 408.6 248.063 412.85C249.063 415.18 248.703 416.74 247.733 418.83C240.643 433.91 232.633 448.52 226.283 463.99C223.203 471.46 222.643 478.18 225.523 485.38C231.583 500.53 233.713 517.38 244.793 530.37C245.093 530.63 245.423 530.68 245.753 530.52C245.793 530.52 245.853 530.49 245.893 530.47L246.003 530.36C246.173 530.19 246.333 530 246.503 529.82C246.683 529.62 246.873 529.43 247.093 529.27C247.443 529 247.853 528.83 248.383 528.85C252.903 528.67 257.603 529.21 261.253 525.58C261.323 525.29 261.423 525.04 261.543 524.82C262.473 522.99 264.533 522.96 266.253 522.39C266.323 522.32 266.413 522.24 266.503 522.18C266.533 522.15 266.563 522.12 266.603 522.09C266.653 522.05 266.703 522 266.753 521.96C266.593 520.73 266.013 519.93 264.663 519.88C264.613 519.85 264.563 519.82 264.513 519.79H264.503C262.063 518.44 260.083 520.16 257.983 520.91C244.103 525.93 244.393 524.38 240.553 513.03C237.453 503.88 235.123 494.4 231.363 485.52C227.483 476.36 228.373 468.25 232.803 459.59C245.813 434.19 258.643 408.68 270.333 382.62C271.403 380.22 272.943 379.71 275.243 380.15C279.133 380.89 283.103 380.95 287.053 381.3C295.893 382.07 304.753 382.64 313.563 383.58C314.043 383.63 314.513 383.68 314.993 383.72H315.023C322.283 384.33 329.343 383.69 336.043 382.76C337.483 382.56 338.923 382.34 340.333 382.13C340.173 382.19 339.543 382.45 338.973 382.86C338.773 383.05 338.563 383.23 338.353 383.43C338.213 383.56 338.073 383.69 337.923 383.82C334.883 386.53 331.663 389.08 330.863 393.49C330.873 393.52 330.883 393.55 330.903 393.59C330.943 393.73 331.003 393.85 331.073 393.96C331.333 394.42 331.723 394.69 332.203 394.83C332.373 394.88 332.573 394.92 332.783 394.93C332.873 394.94 332.953 394.94 333.043 394.94C337.933 392.86 340.463 387.81 345.073 385.38C345.563 385.18 346.033 384.96 346.513 384.73C346.513 384.73 346.513 384.74 346.523 384.73C347.933 384.08 349.263 383.33 350.513 382.49C350.533 382.48 350.543 382.47 350.553 382.46C353.593 380.43 356.163 377.88 358.243 374.74C358.263 374.73 358.263 374.72 358.263 374.71C358.813 373.89 359.323 373.03 359.793 372.12C360.553 370.68 361.313 369.24 362.083 367.8C362.093 367.79 362.103 367.78 362.103 367.77C365.393 361.6 368.723 355.44 371.813 349.15C371.953 348.85 372.103 348.56 372.253 348.27C372.523 347.81 372.803 347.36 373.103 346.91C373.353 346.52 373.603 346.14 373.863 345.75C375.533 342.17 377.843 338.94 379.573 335.4C379.623 335.27 379.683 335.15 379.733 335.03C380.093 334.13 380.393 333.22 380.183 332.23C380.183 332.2 380.183 332.17 380.173 332.13C377.783 326.88 374.213 322.25 371.983 316.91C371.883 316.73 371.793 316.55 371.673 316.36C371.493 316.01 371.273 315.68 371.053 315.33C370.203 314.02 369.253 312.78 368.593 311.38H368.583C368.473 311.12 368.373 310.89 368.273 310.63C368.183 310.38 368.113 310.16 368.033 309.91C363.233 299.73 358.773 289.4 355.503 278.62C354.223 274.39 352.773 270.09 354.133 265.58C355.863 259.79 358.113 254.23 361.003 248.91C362.393 246.34 364.053 245.79 366.233 247.3C366.383 247.42 366.553 247.54 366.713 247.67C366.723 247.68 366.733 247.7 366.733 247.71C370.943 254.04 374.063 260.94 376.873 267.98C380.823 277.86 383.413 288.16 386.483 298.32C389.423 308.01 392.233 317.76 396.723 326.91C397.403 328.29 397.913 329.82 399.813 329.67C399.863 329.68 399.923 329.67 399.983 329.66H400.023C401.633 328.55 401.713 327.16 400.803 325.56L400.793 325.61ZM375.343 335.26C367.443 346.61 361.973 359.38 354.463 371.84C354.113 365.99 353.863 360.78 353.453 355.57C352.693 345.81 349.853 336.44 347.913 326.91C346.603 320.54 346.343 314.65 350.173 308.78C352.923 304.59 353.963 299.5 354.283 294.41C354.853 293.89 355.203 293.28 355.063 292.46C360.243 306.2 367.593 318.82 375.023 331.4C375.733 332.6 376.423 333.71 375.343 335.25V335.26ZM263.393 386.46C258.803 383.85 258.493 380.47 261.233 376.18C262.723 373.85 263.633 371.15 264.803 368.61C265.143 367.83 265.473 367.05 265.823 366.26C266.023 366.27 266.223 366.28 266.423 366.29V369.52C267.963 376.97 267.583 379.16 263.393 386.46Z" fill="#383938"/>
<path d="M276.102 237.32C276.022 236.21 276.222 235 275.022 234.29C279.462 230.31 285.212 228.02 289.292 223.41C285.402 219.56 282.022 215.66 280.562 210.15C279.962 207.88 276.342 206.99 275.042 204.33C272.872 199.88 270.692 195.62 273.442 190.57C274.472 188.68 272.742 187.06 271.932 185.49C268.312 178.47 265.562 171.24 268.502 163.37C270.572 157.85 272.362 151.95 277.912 148.56C278.742 149.21 278.872 150.11 278.792 151.08C278.452 152.92 276.882 154.06 276.162 155.69C275.652 156.65 275.182 157.63 274.772 158.64C274.192 160.09 273.582 161.52 272.582 162.75C270.692 166.33 271.602 170.07 271.972 173.77C272.122 174.19 272.232 174.62 272.352 175.04C273.162 177.7 273.382 180.57 275.292 182.82C277.482 185.38 279.982 187.32 283.592 187.18C284.212 187.49 284.682 187.95 284.982 188.58C285.582 192.44 281.402 190.82 280.272 192.72C279.862 193.21 279.402 193.62 278.822 193.88C277.862 194.24 276.822 193.86 275.862 194.17C274.962 195.36 275.382 196.42 276.142 197.45C276.432 197.78 276.672 198.14 276.912 198.5C278.142 200.92 279.492 203.22 282.052 204.52C282.892 204.95 283.882 205.7 283.932 206.57C284.402 214.12 290.752 218.47 293.642 224.69C293.842 225.38 293.812 226.05 293.502 226.7C291.452 228.41 289.022 229.58 286.992 231.33C283.412 233.45 280.702 237.15 276.062 237.34L276.102 237.32Z" fill="#3B3838"/>
<path d="M244.732 530.39C245.022 530.39 245.313 530.39 245.603 530.39C246.503 530.31 247.293 530.6 248.033 531.08C248.933 531.74 249.692 532.55 250.292 533.49C252.122 538.14 255.042 542.33 256.242 547.25C255.762 551.33 258.203 548.11 259.223 548.43C260.803 548.16 262.383 548.21 263.953 548.49C265.993 549.07 266.653 547.6 267.513 546.24C268.583 544.55 269.533 542.6 272.043 542.71C273.283 542.86 272.213 544.46 273.293 544.71C271.403 551.79 269.083 553.75 262.483 553.55C258.463 553.43 255.803 554.92 254.893 559.04C254.553 560.58 253.953 562.05 253.243 563.47C252.293 565.22 251.363 566.97 250.503 568.77C250.033 569.72 249.552 570.68 249.092 571.64C248.102 573.27 247.763 575.13 247.193 576.92C246.643 578.08 245.862 579.1 245.262 580.24C244.402 581.46 243.863 583.1 241.883 582.91C241.803 582.08 241.652 581.28 240.812 580.84C243.263 575.3 245.842 569.81 248.152 564.21C251.592 555.86 251.512 547.48 247.952 539.13C246.742 536.28 245.813 533.32 244.753 530.41L244.732 530.39Z" fill="#393938"/>
<path d="M399.812 329.39C400.542 328.23 400.852 326.97 400.782 325.61C404.302 329.04 405.252 332.76 402.762 337.34C400.022 342.37 397.442 347.45 393.252 351.48C392.332 351 392.162 350.13 392.042 349.22C391.112 347.06 392.782 345.7 393.712 344.19C396.582 339.59 399.732 335.13 399.812 329.39V329.39Z" fill="#3F3B39"/>
<path d="M219.67 585.65C215.65 582.06 214.85 577.53 214.16 572.98C214.03 572.15 214.36 571.4 215.3 571.21C216.63 570.95 217.51 571.79 217.86 572.83C219.18 576.8 220.63 580.78 219.67 585.65V585.65Z" fill="#3B3B3B"/>
<path d="M288.284 142.89C289.034 143.25 289.784 143.61 290.534 143.97C290.804 147.72 288.434 150.48 286.924 153.56C286.514 154.4 286.024 155.43 284.954 155.35C283.714 155.26 283.124 154.24 282.794 153.11C282.564 152.35 282.444 151.57 282.304 150.8C282.204 149.28 279.994 148.53 280.784 146.68C283.384 145.61 286.524 145.63 288.284 142.9V142.89Z" fill="#3F3B39"/>
<path d="M390.073 597.87C390.813 602.22 389.813 605.83 388.813 609.43C388.533 610.45 388.023 611.59 386.523 611.25C385.213 610.96 385.413 609.84 385.433 608.98C385.513 604.84 386.733 601.16 390.073 597.87Z" fill="#3D3D3D"/>
<path d="M406.882 603.72C403.542 607.09 400.232 610.49 396.832 613.81C396.142 614.48 395.012 614.72 394.322 613.81C393.692 612.98 394.022 611.99 394.822 611.32C398.392 608.33 401.482 604.7 405.772 602.65C406.142 603.01 406.512 603.37 406.882 603.72V603.72Z" fill="#3B3A3A"/>
<path d="M201.613 581.27C204.113 581.27 210.913 586.17 210.973 587.95C211.013 589.1 210.413 589.51 209.193 588.75C206.123 586.86 203.573 584.51 201.613 581.26V581.27Z" fill="#3D3D3D"/>
<path d="M206.331 593.65C202.891 594.14 199.761 593.68 197.311 591.13C197.201 591.01 197.631 590.06 197.781 590.07C201.041 590.21 203.891 591.41 206.331 593.65V593.65Z" fill="#464545"/>
<path d="M280.784 146.67C281.704 147.74 282.614 148.82 283.534 149.89C281.954 151.29 280.224 152.2 278.024 151.68C277.994 150.63 277.964 149.59 277.934 148.54C278.484 147.31 279.374 146.58 280.784 146.66V146.67Z" fill="#43362E"/>
<path d="M338.91 383.79C336.49 387.06 333.14 389.58 331.22 393.26C330.72 395.65 328.94 397.41 328.12 399.63C327.62 400.98 327.25 402.57 328.57 403.59C330.06 404.74 331.22 403.48 332.27 402.54C333.92 401.06 335.42 399.42 337.01 397.88C337.81 397.14 338.57 396.35 339.62 395.96C340.06 395.79 340.44 395.88 340.76 396.24C340.28 402.41 333.25 408.35 327.25 407.66C323.3 407.2 322.09 408.76 323.32 412.68C324.83 417.47 328.08 419.96 333.03 420C340.11 420.05 347.26 420.49 354.12 416.4C354.08 436.93 354.08 456.8 350.68 476.51C349.48 483.48 348.7 490.53 347.6 497.52C346.71 503.18 349.91 508.26 351.9 513.35C358.13 529.27 360.16 545.56 358.16 562.58C357.43 568.79 356.62 575.1 356.89 581.47C357.19 588.46 355.56 590.07 348.42 591.27C345.1 587.61 345.35 582.73 344.31 578.37C340.8 563.7 340.17 548.57 337.76 533.71C335.5 519.8 333.97 505.76 332.41 491.79C330.85 477.83 328.49 464.19 324.29 450.88C319.48 435.62 314.44 420.4 306.78 406.24C305.53 403.93 304.66 400.92 301.24 401.16C298.04 401.38 297.14 404.16 295.89 406.58C285.74 426.24 273.46 444.47 258.95 461.18C256.36 464.17 254.05 467.43 251.07 470.07C248.31 472.52 247.88 475.27 249.2 478.63C252.37 486.69 254.07 495.02 253.54 503.73C253.4 506.1 253.59 508.67 250.51 509.47C247.55 510.24 244.79 510.15 242.91 507.27C235.49 495.9 231.74 483.57 233.19 469.89C233.34 468.45 234.05 467.18 234.72 465.92C245.52 445.81 255.73 425.39 267.4 405.75C271.39 399.05 276.09 392.88 280.73 386.67C283.22 383.34 286.65 382.48 290.83 382.78C303.93 383.73 317.05 384.23 330.18 383.12C333.11 382.87 336.12 382.04 338.91 383.79V383.79Z" fill="#626262"/>
<path d="M338.913 383.79C325.353 384.26 311.793 385.15 298.213 384.74C295.533 384.66 292.893 384.75 290.223 384.01C286.633 383.02 283.703 384.63 281.503 387.49C273.683 397.65 266.943 408.51 260.883 419.81C252.433 435.55 243.953 451.26 235.463 466.97C233.023 471.47 233.693 476.47 234.393 480.95C235.813 490.14 238.453 499.04 244.083 506.88C246.283 509.94 248.563 508.41 250.733 508.26C252.963 508.1 252.153 505.82 252.253 504.37C252.953 495.03 250.913 486.14 247.453 477.55C246.193 474.44 246.943 472.41 249.203 470.01C261.003 457.47 271.813 444.16 280.953 429.48C286.293 420.9 292.023 412.57 295.873 403.17C297.003 400.41 299.463 399.56 301.933 399.25C304.283 398.96 305.503 401.09 306.473 402.86C312.873 414.55 317.513 426.97 321.873 439.54C325.713 450.59 328.763 461.83 331.453 473.19C333.173 480.46 332.913 487.89 333.973 495.22C337.083 516.7 340.063 538.2 342.493 559.76C343.693 570.46 346.413 580.78 348.403 591.28C341.353 593.2 339.663 592.5 339.103 585.36C338.163 573.42 336.403 561.59 335.063 549.7C333.673 537.34 332.803 524.61 328.693 513.04C324.053 499.98 321.563 486.59 319.293 473.2C316.913 459.19 314.493 445.26 310.293 431.69C308.293 425.21 305.813 418.88 303.533 412.48C303.203 411.57 302.703 410.52 301.563 410.97C300.493 411.39 300.643 412.65 301.003 413.46C302.643 417.07 300.703 419.5 299.193 422.74C292.303 437.58 281.983 449.92 271.863 462.45C270.573 464.05 269.203 465.66 267.593 466.9C261.313 471.74 260.153 477.91 262.043 485.28C263.953 492.75 265.373 500.34 267.143 507.84C267.763 510.48 267.313 513.16 268.003 515.83C268.593 518.08 265.103 517.97 264.593 519.91C258.793 521.29 253.653 524.68 247.423 525.04C244.893 525.19 244.053 524.49 243.133 522.67C241.423 519.27 239.753 515.87 238.743 512.17C235.903 501.8 232.373 491.66 228.513 481.63C226.043 475.22 226.763 469 229.803 462.94C237.763 447.06 246.043 431.34 253.493 415.23C258.803 403.74 265.423 392.86 269.513 380.81C270.243 378.66 271.333 378.36 273.783 378.64C285.473 379.99 297.243 380.6 308.933 381.98C320.953 383.4 332.793 382.93 344.643 380.15C342.903 381.79 341.183 383.26 338.883 383.81L338.913 383.79Z" fill="#515151"/>
<path d="M300.852 654.55C310.622 666.05 324.062 668.38 337.092 671.11C348.242 673.45 359.712 673.95 371.062 673.08C387.122 671.84 403.202 670.22 417.282 661.17C418.862 660.15 420.302 658.92 422.462 657.3C422.142 663.46 422.172 669.17 421.412 674.76C420.982 677.91 420.552 681.04 420.742 684.18C420.972 687.9 419.212 689.98 416.172 691.71C407.592 696.6 398.012 698.1 388.552 699.62C379.232 701.12 369.722 702.18 360.272 701.61C343.142 700.59 325.932 699.76 309.682 693.17C306.292 691.8 304.242 689.81 303.582 686.09C301.772 675.86 300.612 665.6 300.862 654.54L300.852 654.55Z" fill="#6E6E6E"/>
<path d="M172.471 626.14C187.251 637.98 204.531 640.99 222.231 642.78C240.591 644.64 258.821 644.32 276.841 639.89C283.181 638.33 289.081 635.81 294.681 631.57C296.071 639.97 293.791 647.72 294.051 655.53C294.111 657.17 292.431 657.73 291.311 658.57C284.601 663.57 276.631 665.18 268.701 666.34C260.601 667.52 252.361 668.26 244.181 668.22C234.251 668.17 224.291 667.48 214.421 666.38C203.781 665.19 193.321 662.87 182.921 660.14C176.271 658.39 172.681 654.86 172.521 648.12C172.351 640.9 172.481 633.68 172.481 626.14H172.471Z" fill="#6E6E6E"/>
<path d="M399.811 329.39C401.241 332.35 400.661 335.02 398.941 337.71C396.531 341.48 394.331 345.38 392.041 349.22C389.171 350.92 388.391 354.2 386.611 356.69C378.681 367.81 370.141 378.46 361.931 389.36C361.601 389.8 361.701 390.58 361.601 391.2C360.331 393.98 361.501 397.2 360.011 399.94C359.741 403.57 359.481 407.21 356.031 409.52C355.531 409.98 354.931 410.08 354.281 410.02C353.121 409.62 352.141 408.86 351.011 408.37C350.501 408.09 350.061 407.72 349.681 407.29C349.081 406.48 348.181 406.41 347.271 406.34C346.881 406.27 346.521 406.14 346.171 405.95C345.341 405.32 344.401 404.93 343.461 404.51C342.371 403.84 341.781 403.02 342.641 401.77C342.991 401.16 343.341 400.55 343.691 399.95C344.191 398.06 344.851 396.16 343.311 394.4C343.091 394.4 342.891 394.35 342.681 394.28C341.401 393.03 340.061 393.5 338.701 394.12L338.651 394.09C337.071 396.83 334.901 399.08 332.711 401.3C331.691 402.34 330.291 403.12 328.921 402.16C327.361 401.06 328.471 399.63 328.941 398.38C329.711 396.35 331.341 395.18 333.241 394.3C337.071 391.17 339.841 386.79 344.541 384.68C351.161 383.24 355.991 379.5 358.941 373.41C361.941 367.23 366.071 361.85 370.321 356.51C375.001 350.63 378.261 343.9 381.121 337.01C383.701 330.81 382.401 324.86 378.781 319.38C373.871 311.95 369.721 304.13 366.351 295.88C360.981 282.72 359.921 269.14 362.551 255.29C363.151 252.14 363.341 248.3 367.301 246.83C373.831 255.33 377.321 265.32 380.691 275.26C384.851 287.54 388.331 300.06 392.181 312.45C394.031 318.4 396.441 324.12 399.811 329.4V329.39Z" fill="#EFC08C"/>
<path d="M197.093 633.28C189.833 631.63 182.753 629.49 177.193 624.21C173.433 620.64 173.403 618.22 177.113 614.61C183.693 608.2 192.263 606.74 200.873 605.47C201.123 605.87 201.183 606.29 201.023 606.74C198.093 609.37 193.933 610.19 191.373 613.39C190.103 614.97 188.423 616.31 189.183 619.09C191.093 617.87 192.463 616.03 194.513 615.4C195.373 615.13 196.893 613.65 197.143 616.11C196.153 621.2 198.963 624 203.013 626.26C210.183 630.27 218.013 632.2 226.023 632.72C238.723 633.55 251.543 634.72 263.973 630.41C268.253 628.93 272.883 627.12 272.993 621.93C273.093 616.85 268.733 614.37 264.523 612.81C258.973 610.76 253.223 609.25 247.563 607.52C247.993 606.82 248.633 606.54 249.443 606.6C254.773 604.54 259.953 606.04 265.173 607.2C273.363 609.02 281.273 611.51 288.403 616.09C295.193 620.45 294.983 626.39 287.873 630.17C283.553 632.46 279.113 634.47 274.193 635.14C273.713 633.56 273.653 633.47 274.493 632.85C277.063 630.98 279.413 628.93 280.823 626.05C270.463 635.02 257.623 635.75 244.833 636.65C246.643 637.47 249.513 635.56 250.313 638.86C237.603 639.26 224.943 638.8 212.353 636.93C212.083 636.5 212.123 636.1 212.463 635.73C215.283 634.24 218.283 635.07 221.673 635.06C216.073 634.37 210.893 633.96 205.773 632.92C200.603 631.87 195.823 630.11 191.593 627.01C192.583 629.84 196.843 629.79 197.123 633.29L197.093 633.28Z" fill="#6D6D6D"/>
<path d="M318.93 644.65C318.09 650.78 322.62 652.99 326.91 655C334.58 658.6 342.96 660.03 351.25 660.47C365.58 661.23 380.07 662.15 394 657.15C398.31 655.6 403.27 654.17 403.49 648.56C403.7 643.06 398.75 641.53 394.77 639.79C388.21 636.93 381.21 635.67 374.1 635.06C372.7 634.94 371.27 634.76 369.93 634.38C368.22 633.89 367.22 632.66 367.59 630.8C367.94 629.05 369.49 629.34 370.68 629.41C386.38 630.39 401.87 632.21 415.36 641.39C421.94 645.87 422.01 652.09 415.49 656.68C407.94 661.99 399.3 664.38 390.27 665.59C390.08 664.21 390.99 663.88 392.06 663.62C373.97 669.05 355.89 666.37 337.83 663.51C329.91 662.25 321.83 661.49 314.67 657.26C312.02 655.7 310 653.82 310.46 650.52C310.97 646.87 313.39 644.66 316.69 643.42C317.63 643.07 319.01 642.74 318.94 644.64L318.93 644.65Z" fill="#6E6D6E"/>
<path d="M239.123 628.4C228.673 628.94 218.563 627.64 208.873 623.87C206.093 622.79 202.043 622.21 202.063 618.47C202.083 614.72 206.323 614.25 208.913 613.71C227.453 609.82 245.783 610.09 263.473 617.89C265.133 618.62 267.313 619.13 267.403 621.51C267.513 624.3 264.903 624.58 263.183 625.31C255.453 628.64 247.243 628.74 239.113 628.4H239.123Z" fill="#585858"/>
<path d="M252.352 563.57C253.012 561.18 253.542 558.73 254.372 556.4C256.022 551.74 260.232 551.56 263.772 552.49C267.472 553.46 268.982 552.02 270.072 549.22C270.782 547.39 272.142 546.15 273.302 544.71C279.882 550.48 280.282 552.95 275.932 560.83C273.622 565.01 270.562 568.54 266.692 571.36C262.142 568.35 257.392 565.71 252.372 563.57H252.352Z" fill="#FEFEFE"/>
<path d="M377.731 656.05C375.201 656.32 373.531 655.62 372.871 652.82C372.031 649.31 370.811 645.9 369.711 642.46C368.941 640.06 369.651 638.53 372.291 638.98C380.311 640.34 388.531 640.98 395.881 645.01C397.431 645.86 399.031 646.63 398.781 648.83C398.561 650.75 397.001 651.33 395.551 651.91C389.821 654.21 383.771 655.15 377.731 656.05V656.05Z" fill="#585858"/>
<path d="M318.933 644.65C315.043 644.47 312.683 646.62 311.573 650.03C310.613 652.97 312.463 654.59 314.903 656.02C321.943 660.12 329.833 660.8 337.593 662.15C347.533 663.88 357.533 665.27 367.603 665.48C376.123 665.66 384.583 664.53 392.853 662.31C393.933 662.02 394.943 661.63 396.173 661.97C394.783 664.31 391.843 663.85 390.253 665.59C383.783 668 376.893 667.37 370.233 668.37C365.833 667.28 361.273 668.52 356.863 667.48C343.163 666.3 329.413 665.38 316.563 659.73C314.663 658.9 312.853 657.95 311.123 656.83C304.943 651.42 305.013 646.3 311.263 641.18C316.673 636.75 323.233 635.04 329.753 633.33C331.833 632.78 333.933 633.29 334.183 636.16C328.603 638.09 322.343 638.82 318.923 644.65H318.933Z" fill="#585858"/>
<path d="M342.781 643.87C342.531 641.11 342.821 638.27 341.191 635.74C339.991 633.88 341.631 632.52 342.421 631.1C343.421 629.31 344.291 631.19 344.971 631.52C347.081 632.53 347.771 631.65 348.231 629.75C348.931 626.9 350.541 625.45 353.761 624.97C357.141 624.47 358.181 626.95 360.221 627.97C367.421 631.59 364.741 638.6 367.301 643.62C363.801 645.58 360.791 642.71 357.501 642.62C355.041 640.93 352.561 641.07 350.071 642.56C347.621 642.86 345.551 645.33 342.781 643.85V643.87Z" fill="#FEFEFE"/>
<path d="M359.083 609.32C359.583 612.82 360.083 616.31 360.593 619.81C355.103 619.89 349.693 620.52 344.343 621.77C342.813 618.1 344.173 614.21 343.473 610.48C343.283 610.01 343.053 609.57 342.793 609.14C342.813 607.35 342.823 605.56 342.843 603.76C347.933 602.37 352.683 599.54 358.233 600.03C358.983 603.08 357.433 606.35 359.103 609.32H359.083Z" fill="#EFC08C"/>
<path d="M244.581 601.74C241.721 603.4 239.261 606.14 235.301 604.07C233.361 603.05 232.621 602.07 233.631 600.12C236.311 594.94 239.031 589.77 241.741 584.6C246.661 584.93 251.661 585.05 254.891 589.72C255.021 590.95 254.641 592.07 254.181 593.18C253.611 594.42 252.651 595.39 251.841 596.46C249.751 598.67 247.961 601.3 244.581 601.74Z" fill="#FEFFFD"/>
<path d="M249.311 533.27C248.681 532.63 248.051 531.99 247.421 531.35C246.771 530.17 245.391 529.13 246.701 527.57C251.641 527.76 256.581 527.96 260.951 525.01C262.091 522.58 264.881 523.19 266.651 521.94L266.691 522C266.911 522 267.131 522.03 267.351 522.06C270.291 525.67 269.201 530.26 270.301 534.31C270.221 537.25 271.321 539.94 272.031 542.71C270.001 544.05 268.611 545.91 267.781 548.18C267.181 549.8 266.621 551.37 264.601 549.49C262.751 548.57 260.881 548.74 259.001 549.38C256.641 550.93 254.561 551.93 255.261 547.47C256.511 546.28 258.111 545.98 259.681 546.13C263.521 546.5 265.231 543.89 266.271 541.07C267.481 537.79 266.491 534.47 264.611 531.6C263.481 529.87 261.791 530.87 260.291 531.31C256.701 532.36 253.281 534.35 249.311 533.26V533.27Z" fill="#C09464"/>
<path d="M340.691 649.11C341.411 653.34 340.221 654.88 335.601 653.39C332.141 652.27 328.721 651.17 325.591 649.37C322.151 647.4 322.071 645.79 325.381 643.5C329.081 640.94 333.581 640.53 337.801 639.45C338.851 639.18 340.011 639.52 339.831 641.18C339.541 643.88 341.351 646.34 340.691 649.12V649.11Z" fill="#575858"/>
<path d="M250.282 638.85C247.642 636.73 244.152 639.07 241.082 637.13C243.722 634.7 246.722 635.33 249.562 635.08C259.112 634.23 268.652 633.26 276.852 627.55C278.632 626.31 280.232 624.8 281.942 623.38C282.502 626.58 280.292 630.33 276.492 633C275.642 633.59 273.932 633.33 274.162 635.13C270.262 637.15 265.802 636.67 261.732 637.91C259.842 637.25 257.952 637.17 256.072 637.97C254.272 639.1 252.282 639 250.282 638.86V638.85Z" fill="#585858"/>
<path d="M197.133 616.1C194.013 615.44 192.553 617.94 190.693 619.58C190.093 620.11 190.323 621.68 189.003 621.33C187.783 621 187.643 619.79 187.553 618.64C187.153 614.01 190.923 612.13 193.693 609.86C195.673 608.24 198.183 607 200.883 606.54C202.923 604.66 205.743 605.17 208.073 604.18C210.613 604.59 214.913 602.81 213.303 608.38C207.213 609.48 201.163 610.66 197.143 616.1H197.133Z" fill="#585858"/>
<path d="M334.191 636.16C332.991 634.86 331.761 633.69 329.751 634.23C322.881 636.08 316.201 638.35 310.701 643.09C306.321 646.87 306.541 651.07 311.261 656.07C311.481 656.91 311.331 657.37 310.341 656.98C309.021 655.86 307.571 654.86 306.411 653.59C302.971 649.84 303.041 646.94 306.431 643.2C312.431 636.59 320.841 634.97 328.771 632.37C330.411 631.83 332.161 631.33 333.851 631.38C335.161 631.42 337.301 628.95 337.881 632.33C338.401 635.34 336.971 636.37 334.191 636.15V636.16Z" fill="#6D6D6D"/>
<path d="M357.873 599.94C353.043 601.94 348.303 604.31 342.833 603.76C343.693 601.27 340.063 598.99 342.073 596.8C343.733 594.98 346.583 596.47 348.853 595.84C351.893 594.99 355.003 594.4 357.793 591.58C357.653 594.81 359.253 597.19 358.673 599.92C358.423 600.35 358.163 600.36 357.883 599.95L357.873 599.94Z" fill="#C19464"/>
<path d="M197.09 633.28C194.01 630.64 189.57 629.22 188.59 622.93C199.35 633.43 212.8 632.08 225.06 635.05C220.87 636.69 216.53 635.74 212.3 636.08C210.1 636.08 207.91 634.85 205.69 635.99C202.94 634.71 199.7 635 197.08 633.29L197.09 633.28Z" fill="#585858"/>
<path d="M342.783 643.87C345.503 643.8 347.493 641.33 350.313 641.6C352.523 640.96 354.733 640.46 356.943 641.6C360.613 641.18 363.733 643.53 367.303 643.64C367.373 643.98 367.453 644.33 367.523 644.67C368.113 646.13 368.103 647.43 366.503 648.27C361.623 649.18 356.823 647.49 351.923 647.88C349.213 648.1 346.543 650.15 343.713 648.34C343.403 646.85 343.093 645.37 342.773 643.88L342.783 643.87Z" fill="#F0BD24"/>
<path d="M343.723 648.33C351.183 645.62 358.743 646.32 366.323 647.71C367.033 647.98 367.963 647.67 368.473 648.5C369.693 649.89 369.593 651.73 370.113 653.35C368.603 654.51 367.083 653.81 365.613 653.29C360.893 651.6 356.063 651.26 351.143 652C349.153 652.37 347.093 652.45 345.213 653.36C344.763 653.48 344.333 653.42 343.923 653.18C343.533 651.58 342.393 650.01 343.713 648.33H343.723Z" fill="#FCFBF0"/>
<path d="M252.353 563.57C258.313 563.99 262.993 566.76 266.673 571.36C265.803 572.99 264.383 574.09 262.923 575.15C258.653 572.53 254.213 570.24 249.613 568.25C250.523 566.69 251.443 565.13 252.353 563.57V563.57Z" fill="#EEBE21"/>
<path d="M350.191 651.01C355.821 649.1 361.211 650.49 366.581 652.2C367.761 652.58 368.941 652.96 370.111 653.34C370.281 653.58 370.341 653.84 370.281 654.13C369.241 656.08 367.411 656.54 365.451 656.48C361.181 656.36 356.931 656.04 352.661 655.94C349.231 655.86 348.851 653.74 350.191 651.01V651.01Z" fill="#EBBB28"/>
<path d="M213.283 608.39C213.423 604.01 210.233 604.7 207.543 604.62C207.213 604.43 207.103 604.25 207.213 604.07C207.323 603.89 207.443 603.8 207.553 603.8C213.523 603.59 219.433 602.6 225.443 602.56C228.623 602.54 230.363 603.31 231.403 606.48C225.243 606.54 219.233 607.26 213.273 608.38L213.283 608.39Z" fill="#6D6D6D"/>
<path d="M249.611 568.25C255.121 568.48 259.511 570.87 262.921 575.16C261.971 576.58 261.401 578.3 259.761 579.19C255.961 576.57 250.621 576.24 248.281 571.45C248.381 570.25 248.741 569.15 249.601 568.26L249.611 568.25Z" fill="#FCFBF5"/>
<path d="M254.05 590.42C252.81 587.42 249.73 587.5 247.34 586.48C245.53 585.7 243.32 586.09 241.73 584.6C241.78 584.03 241.83 583.47 241.88 582.9C242.74 581.93 243.61 580.95 244.47 579.98C249.13 578.63 252.35 581.57 255.81 583.8C256.21 584.15 256.51 584.56 256.73 585.04C257.12 587.47 257.48 589.89 254.06 590.42H254.05Z" fill="#EEBD23"/>
<path d="M310.34 656.99C310.65 656.69 310.95 656.38 311.26 656.08C318.8 660.93 327.3 663.32 335.98 664.42C342.93 665.3 349.86 666.85 356.95 666.54C355.79 669.05 353.84 667.78 352.11 667.53C338.46 667.41 325.33 664.95 313.02 658.84C312.06 658.36 311.23 657.62 310.34 657V656.99Z" fill="#6A6A6A"/>
<path d="M333.24 394.29C332.11 395.79 330.91 397.24 329.9 398.81C329.38 399.63 328.35 400.78 329.38 401.62C330.48 402.51 331.4 401.35 332.11 400.52C334.11 398.19 335.69 395.43 338.65 394.08C339.35 394.8 340.06 395.52 340.76 396.24C340.46 396.2 340.16 396.19 339.86 396.19C339.17 396.77 338.03 396.9 337.96 398.1C335.92 400.27 333.9 402.46 331.83 404.61C330.73 405.75 329.36 406 327.95 405.31C326.63 404.67 326.47 403.39 326.49 402.08C326.53 398.32 328.68 395.69 331.22 393.27C331.64 394.1 332.41 394.26 333.23 394.3L333.24 394.29Z" fill="#3E3A37"/>
<path d="M248.292 571.44C251.742 574.58 256.972 575.08 259.772 579.18C259.772 580.04 259.772 580.9 259.772 581.76C259.532 582.81 258.792 583.24 257.792 583.34C257.332 583.31 256.902 583.19 256.492 582.99C253.792 579.97 249.742 579.12 246.562 576.87C246.372 574.82 246.732 572.94 248.302 571.45L248.292 571.44Z" fill="#EFBC21"/>
<path d="M344.591 621.73C349.591 618.27 355.021 618.48 360.591 619.81C357.871 621.87 354.551 621.41 351.501 621.73C348.431 622.05 346.271 622.1 346.341 626.3C346.401 629.83 344.651 626.33 343.741 626.47C342.651 625.08 343.321 623.52 343.281 622.02C343.621 621.52 344.061 621.42 344.581 621.72L344.591 621.73Z" fill="#B9916B"/>
<path d="M350.193 651.01C349.953 653.93 351.003 655.65 354.213 655.08C359.543 654.14 365.153 658.14 370.283 654.13C372.003 656.82 369.433 656.57 368.293 656.64C364.563 656.87 360.813 656.8 357.063 656.84C354.063 655.76 350.813 657.37 347.853 655.94C347.403 655.64 346.943 655.34 346.493 655.05C345.883 654.26 344.633 654.12 344.383 652.96C345.873 650.97 348.133 651.28 350.193 651V651.01Z" fill="#EBB42D"/>
<path d="M344.69 403.82C346.07 403.65 346.85 404.05 346.37 405.62C346.33 406.82 345.53 407.59 344.79 408.4C342.55 410.44 339.91 412 337.89 414.3L337.96 414.23C336.45 415.8 334.53 416.25 332.45 416.26C331.41 415.72 330.36 415.18 329.32 414.64C329.72 413.03 331.38 413.34 332.36 412.61C333.27 412.08 334.07 411.4 334.93 410.79C338.25 408.57 340.77 405.21 344.69 403.83V403.82Z" fill="#463A31"/>
<path d="M350.211 406.45C350.641 406.87 351.071 407.29 351.501 407.71C352.291 409.32 352.111 410.57 350.201 411.16C348.401 412.07 347.871 414.1 346.481 415.38C344.891 416.53 343.291 418.01 341.801 415.25C342.461 414.69 344.031 414.51 342.711 413.1C342.531 412.37 342.931 411.9 343.431 411.46C346.281 410.6 347.011 406.85 350.201 406.44L350.211 406.45Z" fill="#E4BE96"/>
<path d="M270.313 534.31C268.483 530.43 268.003 526.22 267.363 522.06C268.683 520.52 268.893 525.46 270.453 522.59C271.313 525.82 272.173 529.05 273.033 532.28C272.273 531.62 271.503 530.95 270.313 529.91V534.31V534.31Z" fill="#3F3936"/>
<path d="M344.691 403.82C341.671 406.64 338.701 409.53 335.171 411.74C334.481 410.98 334.471 410.18 335.021 409.35C336.801 406.06 340.091 404.28 342.641 401.76C342.711 403.07 343.381 403.77 344.701 403.82H344.691Z" fill="#E6BE96"/>
<path d="M257.923 582.86C258.533 582.49 259.153 582.12 259.763 581.76C260.163 581.79 260.573 581.82 260.973 581.85C261.443 582.4 261.513 583.01 261.263 583.67C260.313 585.33 259.893 587.36 258.023 588.38C258.023 588.72 258.023 589.06 258.023 589.4C257.893 590.91 257.103 592.09 256.113 593.18L256.023 593.29C255.083 593.96 254.173 594.07 253.323 593.15C252.873 592.05 253.773 591.32 254.053 590.42C255.633 588.88 256.083 586.94 256.063 584.83C256.063 583.59 257.153 583.38 257.923 582.86Z" fill="#463C2B"/>
<path d="M343.681 412.32C343.361 412.58 343.041 412.85 342.721 413.11C340.891 412.6 339.741 414.87 337.891 414.29C338.451 410.41 342.321 409.73 344.521 407.44C345.131 407.91 345.321 408.56 345.321 409.29C345.231 410.54 344.181 411.28 343.681 412.31V412.32Z" fill="#E4B990"/>
<path d="M244.58 601.74C246.77 599.73 248.95 597.73 251.14 595.72C252.1 596.32 252.26 597.26 252.24 598.28C252.18 598.76 252.02 599.2 251.77 599.62C250.87 600.99 249.47 601.88 248.43 603.11C247.73 603.35 247.09 603.28 246.55 602.72C245.89 602.39 245.23 602.06 244.57 601.73L244.58 601.74Z" fill="#524B34"/>
<path d="M352.113 667.53C353.723 667.2 355.603 668.14 356.953 666.54C361.183 668.61 366.023 666.27 370.243 668.39C364.203 668 358.083 669.47 352.113 667.54V667.53Z" fill="#646464"/>
<path d="M246.562 602.73C247.282 602.68 248.002 602.64 248.712 602.59C249.032 602.35 249.262 602.41 249.392 602.8C249.392 604.06 249.412 605.33 249.422 606.59C249.022 607.36 248.312 607.49 247.542 607.51C243.702 606.63 247.002 604.29 246.562 602.72V602.73Z" fill="#3C392D"/>
<path d="M343.751 621.74C343.751 623.32 343.751 624.89 343.751 626.47C341.491 620.8 343.181 614.91 342.791 609.14C343.051 609.25 343.311 609.35 343.571 609.45C344.521 613.54 344.241 617.64 343.761 621.75L343.751 621.74Z" fill="#52361E"/>
<path d="M251.323 599.03C251.263 597.93 251.203 596.83 251.143 595.73C250.823 593.99 252.893 594.27 253.313 593.16C254.213 593.21 255.113 593.25 256.013 593.3C255.703 594.24 255.393 595.17 255.083 596.11C253.663 596.88 253.413 599.15 251.313 599.04L251.323 599.03Z" fill="#513F15"/>
<path d="M333.444 413.37C332.414 414.91 330.564 413.76 329.324 414.63C328.254 414.47 327.054 414.64 326.444 413.42C325.804 411.44 327.754 412.2 328.394 411.57C329.344 411.57 330.294 411.57 331.244 411.56C332.044 412.08 333.074 412.34 333.444 413.38V413.37Z" fill="#DDC4AE"/>
<path d="M332.461 416.26C334.241 415.43 335.661 413.63 337.971 414.23C337.481 418.56 334.851 417.08 332.461 416.26Z" fill="#E3C39E"/>
<path d="M360.012 399.93C360.232 396.96 359.572 393.83 361.602 391.19C361.282 394.14 363.082 397.47 360.012 399.93Z" fill="#4F3B26"/>
<path d="M350.203 411.17C350.633 410.02 351.073 408.87 351.503 407.72C352.903 407.5 353.673 408.19 354.033 409.47C354.143 411.53 352.533 412.31 351.203 413.31C350.393 412.82 350.293 412 350.203 411.17Z" fill="#4B3C2C"/>
<path d="M333.442 413.37C332.252 413.32 331.352 412.91 331.242 411.55C332.552 410.91 333.242 409.2 335.012 409.34C335.062 410.14 335.112 410.94 335.162 411.73C334.582 412.27 334.012 412.82 333.432 413.36L333.442 413.37Z" fill="#EDC18B"/>
<path d="M347.863 655.96C350.933 656.31 354.113 655.46 357.073 656.86C353.983 656.88 350.893 656.91 347.803 656.92C347.713 656.92 347.513 656.72 347.533 656.66C347.603 656.41 347.743 656.19 347.853 655.96H347.863Z" fill="#503D15"/>
<path d="M207.563 603.8C207.553 604.07 207.543 604.35 207.553 604.62C205.323 605.26 203.093 605.9 200.863 606.54C200.863 606.18 200.863 605.82 200.863 605.46C202.903 604.12 205.383 604.59 207.563 603.79V603.8Z" fill="#626262"/>
<path d="M357.873 599.94C358.133 599.91 358.403 599.9 358.663 599.91C358.803 603.04 358.943 606.18 359.083 609.31C356.623 606.45 358.493 603.03 357.873 599.94V599.94Z" fill="#E4C1A8"/>
<path d="M251.323 599.03C252.723 598.24 252.853 595.81 255.093 596.1C255.043 597.99 253.803 599.03 252.363 599.93C251.953 600.25 251.563 600.22 251.203 599.85C251.263 599.58 251.303 599.3 251.313 599.02L251.323 599.03Z" fill="#DEB55E"/>
<path d="M351.203 413.31C352.143 412.03 353.093 410.75 354.033 409.47C354.703 409.48 355.363 409.5 356.033 409.51C354.643 411.06 353.883 413.4 351.203 413.31V413.31Z" fill="#D9BB9D"/>
<path d="M258.022 588.38C258.942 586.79 259.862 585.2 260.782 583.61C261.372 583.7 261.452 584.25 261.712 584.64C260.912 586.31 260.812 588.68 258.012 588.38H258.022Z" fill="#DCB969"/>
<path d="M278.051 565.8C277.751 567.04 276.971 568.88 275.851 567.99C274.351 566.8 276.751 565.87 277.181 564.7C278.031 564.63 278.571 564.8 278.051 565.81V565.8Z" fill="#C1A54B"/>
<path d="M205.691 635.98C207.921 634.31 210.111 635.08 212.301 636.07C212.301 636.35 212.301 636.63 212.321 636.91C210.111 636.6 207.901 636.29 205.691 635.97V635.98Z" fill="#626262"/>
<path d="M256.113 593.18C256.163 591.63 256.823 590.38 258.023 589.4C259.333 591.64 258.293 592.7 256.113 593.18Z" fill="#AC9656"/>
<path d="M251.213 599.85C251.603 599.88 251.983 599.9 252.373 599.93C252.493 602.03 250.403 601.86 249.403 602.8C249.193 602.68 248.963 602.61 248.723 602.59C249.323 601.47 249.253 599.73 251.223 599.85H251.213Z" fill="#D2B255"/>
<path d="M341.813 415.26C343.313 417.42 344.923 415.57 346.493 415.39C345.713 418.13 343.553 417.09 341.903 416.89C340.823 416.75 341.074 415.86 341.824 415.27L341.813 415.26Z" fill="#453624"/>
<path d="M328.393 411.57C327.743 412.19 327.093 412.8 326.443 413.42C325.093 412.55 325.343 411.35 325.743 410.02C326.643 410.6 327.193 411.69 328.393 411.57V411.57Z" fill="#D5BB98"/>
<path d="M343.301 394.39C345.391 396.1 344.921 397.99 343.681 399.94C343.551 398.09 343.431 396.24 343.301 394.39Z" fill="#E0C4AD"/>
<path d="M344.382 652.97C345.522 653.23 346.462 653.69 346.492 655.06C345.182 655.04 343.532 655.5 343.932 653.17C344.032 652.99 344.182 652.92 344.382 652.97Z" fill="#E0B822"/>
<path d="M261.723 584.64C261.413 584.3 261.103 583.96 260.793 583.61C260.853 583.02 260.913 582.43 260.983 581.84C261.533 581.73 262.453 581.37 262.563 581.54C263.383 582.8 262.463 583.71 261.733 584.63L261.723 584.64Z" fill="#DBBA6D"/>
<path d="M256.07 637.96C257.94 636.53 259.83 636.53 261.73 637.91C259.84 637.93 257.96 637.95 256.07 637.96Z" fill="#636363"/>
<path d="M338.691 394.11C340.101 392.01 341.441 391.69 342.671 394.27C341.341 394.22 340.021 394.16 338.691 394.11Z" fill="#433527"/>
<path d="M368.47 648.49C367.75 648.23 367.04 647.96 366.32 647.7C367.55 647.01 367.38 645.77 367.52 644.65C368.86 645.68 368.2 647.2 368.47 648.49V648.49Z" fill="#C5B57D"/>
<path d="M278.054 565.8C277.764 565.43 277.474 565.06 277.184 564.69C277.584 563.89 278.114 562.34 278.864 562.92C280.014 563.81 278.764 564.92 278.054 565.8Z" fill="#C1AA4F"/>
<path d="M350.202 356.34C350.482 360.98 349.892 365.66 350.902 370.28C351.622 373.56 348.992 374.31 346.792 375.31C345.302 376.53 343.442 375.95 341.782 376.36C341.392 376.55 341.032 376.78 340.692 377.04C338.842 377.1 336.992 377.16 335.132 377.22C323.922 378.37 312.712 378.78 301.492 377.28C299.492 377.19 297.492 377.1 295.492 377.01C295.042 376.81 294.592 376.6 294.142 376.38C292.052 375.67 289.392 377.14 287.732 374.73C284.532 359.5 286.202 344.31 288.072 329.11C288.582 324.92 290.332 321.61 294.092 319.51C297.182 317.88 300.542 316.88 303.752 315.54C306.692 314.31 309.452 314.01 312.472 315.28C315.112 316.38 317.962 316.82 320.832 316.86C321.782 316.57 323.252 317.61 323.532 315.75C323.222 315.56 322.922 315.38 322.592 315.24C320.932 314.63 319.212 314.21 317.722 313.22C317.022 312.8 316.322 312.4 315.572 312.07C313.592 311.32 311.732 310.37 310.052 309.07C308.662 307.65 307.482 308.46 306.302 309.42C303.582 311.57 300.052 311.32 297.042 312.64C285.592 316.71 276.652 311.36 274.792 299.33C276.122 294.25 275.392 289.07 275.612 283.93C275.322 288.06 276.052 292.24 275.122 296.35C272.342 295.64 272.762 293.24 272.772 291.36C272.832 282.22 272.682 273.1 270.852 264.09C271.542 262.2 269.752 258.72 274.012 259.1C279.112 264.15 284.732 268.45 291.372 271.31C300.602 275.89 310.532 276.29 320.502 275.73C324.862 275.49 326.782 276.78 327.242 281.24C327.672 285.46 329.672 289.43 329.902 293.74C329.932 294.77 329.202 296.06 330.852 296.57C332.112 297.35 333.112 298.37 333.892 299.62C336.062 302.5 337.472 306.36 342.172 305.91C342.652 305.87 343.122 305.91 343.592 306C345.432 306.77 345.382 308.08 344.612 309.59C342.832 313.52 342.382 317.64 342.772 321.89C343.782 323.59 342.422 325.67 343.652 327.34C345.712 334.59 347.282 341.95 348.512 349.39C349.182 350.8 349.302 352.34 349.542 353.86C349.882 354.66 349.702 355.6 350.202 356.36V356.34Z" fill="#F1BC00"/>
<path d="M278.873 193.34C279.173 193.02 279.473 192.7 279.773 192.39C285.263 191.37 289.743 188.67 293.273 184.36C295.433 183.47 297.263 184.63 299.163 185.32C304.733 187.34 310.223 187.84 315.533 184.6C317.623 183.32 319.693 183.31 321.793 184.47C323.593 185.46 325.563 185.98 327.453 186.75C328.243 186.83 329.023 186.92 329.813 187C335.42 187.52 337.8 190.593 336.953 196.22C334.903 202.26 332.473 208.17 330.993 214.41C330.523 216.4 329.413 218.19 327.343 219.08C326.053 220.56 324.763 222.03 323.483 223.51C318.063 231.04 306.633 234.1 298.223 230.29C296.393 228.65 294.483 227.08 293.203 224.93C289.643 219.48 283.513 215.48 283.563 207.97C283.563 206.5 282.473 205.57 281.313 205.23C277.703 204.19 276.853 201.24 276.023 198.2C275.343 197.42 275.153 196.53 275.493 195.54C275.993 193.85 277.863 194.26 278.873 193.36V193.34Z" fill="#EFC08C"/>
<path d="M278.023 151.69C279.773 150.84 281.533 150.01 283.533 149.9C284.013 151.59 282.823 153.75 284.853 154.92C286.753 151.26 288.643 147.62 290.533 143.98C296.723 140.66 303.033 138 310.283 140.12C311.033 141.25 312.463 140.07 313.273 141C316.043 142.17 318.093 144.17 319.573 146.72C321.593 146.45 320.173 143.96 321.823 143.59C323.263 143.3 324.613 143.32 325.563 144.71C327.463 146.4 329.193 148.33 331.293 149.72C337.143 153.59 337.933 160.04 339.973 165.88C340.453 168.38 340.593 170.88 339.883 173.37C339.303 174.72 338.713 176.07 338.133 177.42C333.243 178.36 330.573 175.25 328.283 171.78C326.083 168.45 325.283 164.54 324.513 160.68C324.143 158.82 323.823 156.98 322.713 155.39C321.963 154.88 321.823 153 320.273 154.35C319.353 160.73 317.353 166.57 312.733 171.29C306.713 177.45 301.503 178.17 294.233 173.61C292.903 172.78 291.553 171.96 290.323 170.98C289.123 170.7 288.543 168.18 286.773 170.04C285.563 172.98 284.003 175.63 281.493 177.67C276.643 181.6 273.653 180.69 271.763 174.62C270.933 170.92 271.383 167.19 271.423 163.48C271.553 162.95 271.763 162.46 272.053 162C272.733 160.72 273.413 159.43 274.083 158.15C275.553 157.73 276.353 156.97 275.443 155.38C275.843 153.83 276.583 152.52 278.023 151.69V151.69Z" fill="#F6CF96"/>
<path d="M276.102 237.32C279.562 235.02 283.012 232.73 286.472 230.43C288.162 229.52 289.142 230.7 290.042 231.76C292.522 234.66 295.712 236.66 298.652 239C304.092 243.33 309.232 242.91 314.632 239.24C316.462 238 318.162 236.63 319.812 235.17C321.142 234 322.592 233.09 324.512 233.64C324.952 233.85 325.252 234.19 325.442 234.63C324.652 237.32 322.832 239.81 323.822 242.86C325.962 245.31 326.692 248.51 328.272 251.25C328.562 252.33 328.592 253.45 328.752 254.56C328.522 256.75 332.212 258.51 329.472 260.98C328.442 263.45 329.892 265.55 330.662 268.07C318.362 271.84 306.192 270.86 294.192 267.41C283.442 264.31 275.882 257.33 271.502 246.96C269.972 243.33 269.832 240.32 274.352 238.82C275.022 238.6 275.522 237.83 276.102 237.32V237.32Z" fill="#EFC08C"/>
<path d="M276.044 300.08C279.184 309.97 285.804 316.88 296.844 311.36C297.434 311.57 297.834 312.02 298.254 312.43C299.504 313.54 301.004 312.67 302.354 312.95C302.784 313.14 303.094 313.44 303.284 313.87C303.794 315.98 302.494 316.69 300.794 317.03C298.584 317.47 296.824 318.71 295.124 320.09C288.044 323.87 289.444 331.1 288.544 337.16C286.674 349.79 287.234 362.5 288.574 375.18C288.834 375.68 288.744 376.11 288.324 376.47C287.124 376.61 285.914 376.97 284.794 376.16C281.424 375.19 277.954 375.19 274.514 375.26C271.494 375.32 270.614 374.04 270.244 371.1C269.384 364.36 272.694 358.17 272.314 351.55C272.244 350.3 272.314 349.04 272.334 347.78C272.574 347.44 272.814 347.1 273.054 346.75C273.854 342.92 272.174 338.86 274.094 335.14C274.544 331.66 273.284 328.02 275.074 324.66C275.894 319.33 276.084 314.01 274.934 308.69C273.004 303.15 268.774 298.53 268.414 292.37C266.524 287.48 267.994 282.37 267.414 277.4C267.264 276.63 267.034 275.9 266.604 275.23C265.614 267.43 263.034 260.11 259.434 253.18C257.354 249.18 256.784 245.92 261.874 243.97C268.634 247.93 269.274 255.29 271.684 261.66C271.954 262.37 271.644 263.24 272.224 263.9C274.554 273.54 274.294 283.36 274.214 293.17C274.214 294.28 274.134 295.41 275.104 296.24C276.144 297.34 275.014 298.97 276.044 300.07V300.08Z" fill="#AF8C1F"/>
<path d="M258.572 395.95C256.342 400.62 254.112 405.29 251.812 410.12C247.832 404.54 244.142 398.85 241.772 392.4C240.312 388.52 240.392 384.63 241.712 380.73C242.312 373.11 245.712 366.32 248.102 359.24C251.652 348.73 255.632 338.37 259.032 327.82C260.182 324.24 258.752 320.39 257.952 316.75C255.252 304.37 252.512 291.99 248.412 279.98C247.412 278.07 248.522 275.88 247.612 273.96C247.592 273.18 247.582 272.4 247.562 271.61C248.902 268.88 246.872 265.68 248.742 263.02C249.632 260.78 250.522 258.53 251.412 256.29C254.502 256.36 254.682 258.94 255.132 260.97C255.922 264.52 256.582 268.11 257.202 271.7C259.452 284.82 262.082 297.84 265.812 310.63C266.892 314.32 267.322 318.08 266.542 321.9C266.502 323.06 264.492 323.81 265.842 325.29C267.752 332.38 267.252 339.39 265.292 346.37C263.052 354.35 259.212 361.69 256.232 369.37C254.472 373.92 252.212 378.39 252.662 383.52C253.182 387.68 257.542 389.49 258.672 393.28C258.702 394.18 258.262 395.07 258.562 395.98L258.572 395.95Z" fill="#EFC08D"/>
<path d="M354.281 294.42C354.671 293.82 354.401 292.96 355.061 292.47C355.201 293.28 354.851 293.89 354.281 294.42Z" fill="white"/>
<path d="M367.311 246.82C362.501 254.06 362.481 262.27 362.501 270.49C362.531 287.46 369.151 302.29 378.281 315.98C384.301 325.01 385.051 333.35 379.961 343.03C375.571 351.37 370.161 358.89 364.421 366.23C360.821 370.84 359.661 376.97 354.851 380.83C351.761 383.31 348.681 385.23 344.551 384.67C355.411 380.5 359.211 370.33 364.341 361.32C366.731 357.13 368.891 352.8 371.161 348.54C372.211 347.76 372.621 346.59 373.021 345.42C374.441 341.74 376.631 338.48 378.781 335.21C379.471 334.42 380.601 333.79 379.771 332.45C376.351 327.71 373.151 322.85 371.151 317.3C371.361 314.21 369.801 312.12 367.361 310.52C360.821 298.11 355.411 285.22 352.421 271.49C351.041 265.11 355.101 259.69 357.111 253.96C357.781 252.05 359.001 250.34 359.861 248.49C362.041 243.81 363.021 243.57 367.321 246.83L367.311 246.82Z" fill="#C49464"/>
<path d="M251.433 384.73C250.803 376.43 254.803 369.43 257.893 362.22C262.323 351.86 266.753 341.55 265.633 329.87C265.473 328.15 265.783 326.37 264.613 324.86C265.003 324.18 265.803 323.68 265.573 322.73C266.483 314.62 263.803 307.04 261.583 299.52C257.993 287.37 256.983 274.76 254.183 262.49C253.673 260.24 253.763 257.71 251.433 256.26C252.033 255.29 252.633 254.32 253.233 253.35C254.233 252.63 255.253 252.55 256.303 253.22C259.203 259.99 261.733 266.87 262.793 274.21C264.803 279.68 263.043 285.39 263.833 290.93C264.213 291.05 264.443 291.3 264.553 291.67C264.133 298.18 268.683 302.92 270.613 308.59C270.913 309.09 271.113 309.63 271.223 310.21C270.993 314.78 272.223 319.44 270.443 323.93C270.863 342.35 266.153 359.6 258.503 376.18C257.983 377.31 257.523 378.52 256.243 379.08C254.743 380.05 253.753 381.3 253.703 383.2C253.663 384.66 253.193 385.68 251.453 384.73H251.433Z" fill="#C49364"/>
<path d="M350.173 246.54C350.213 245.59 350.153 244.63 350.312 243.7C350.522 242.44 349.503 240.58 351.533 240.12C352.863 239.81 354.572 239.46 355.592 240.59C356.742 241.85 357.252 243.32 356.402 245.32C354.332 250.21 351.913 254.93 350.013 259.92C347.353 266.9 348.003 273.83 348.473 280.89C349.363 282.04 348.223 283.66 349.353 284.76C351.283 288.43 349.912 292.35 350.212 296.14C349.902 296.49 349.543 296.59 349.103 296.42C347.663 295.74 347.952 294.03 347.062 293.02C346.713 292.89 346.402 292.7 346.112 292.49C345.832 292.22 345.592 291.94 345.372 291.63C344.702 290.66 343.833 289.84 343.233 288.82C342.843 288.07 343.173 287.2 342.812 286.45C345.023 281.5 344.443 275.98 343.983 271.12C343.253 263.44 347.673 257.5 348.562 250.54C350.413 249.74 349.472 247.81 350.182 246.55L350.173 246.54Z" fill="#EFBA0D"/>
<path d="M333.243 299.98C332.313 299.02 331.373 298.06 330.443 297.1C329.753 296.68 329.313 296.11 329.383 295.25C328.093 289.91 326.553 284.62 325.643 279.21C325.253 276.92 324.533 277.02 322.703 277.07C312.923 277.36 303.073 277.9 293.943 273.24C292.993 272.76 291.803 272.5 291.383 271.29C300.603 274.24 310.243 273.24 319.673 274.21C321.793 272.7 324.253 273.68 326.513 273.25C327.173 273.06 327.843 272.89 328.383 272.43C329.823 276.1 331.633 279.68 331.393 283.8C332.733 285.21 334.093 286.6 334.553 288.59C334.683 289.68 334.403 290.74 334.363 291.81C333.913 294.26 335.023 296.48 335.373 298.82C334.953 299.75 334.333 300.31 333.233 299.95L333.243 299.98Z" fill="#AD8B22"/>
<path d="M322.82 154.3C325.35 155.09 325.01 157.46 325.53 159.32C326.42 162.5 327.09 165.74 328.1 168.88C329.66 173.73 333.47 176.1 338.12 177.4C337.57 179.73 337.22 182.19 334.42 183.04C332.67 183.52 330.92 183.64 329.18 182.99C326.44 182.95 324.73 181.37 323.47 179.14C321.55 177.91 319.63 176.68 320.03 173.92C321.45 169.55 322.74 165.16 322.39 160.48C322.44 158.83 322.37 157.19 322.23 155.54C322.27 155.05 322.47 154.64 322.82 154.3V154.3Z" fill="#B09771"/>
<path d="M327.45 186.73C320.9 184.38 314.84 186.01 308.52 188.21C305.31 189.33 301.48 187.58 298.12 186.28C296.53 185.67 295.09 184.56 293.23 184.92C292.14 184.09 291.83 182.94 291.9 181.64C293.08 179.5 294.94 180.13 296.41 180.91C303.52 184.67 309.96 184.14 315.81 178.41C316.49 177.75 317.44 177.48 318.44 177.6C320.4 178.09 321.05 179.68 321.59 181.36C322.32 184.47 325.89 184.5 327.44 186.74L327.45 186.73Z" fill="#C39363"/>
<path d="M327.332 219.05C329.382 215.35 331.362 211.59 331.602 207.27C331.852 202.8 335.542 200.07 336.952 196.2C337.182 197.64 336.402 199.38 338.152 200.36C340.042 199.71 338.742 197.84 340.032 196.87C340.372 198.67 342.202 200.67 338.892 201.97C337.402 203.69 337.812 205.81 337.672 207.82C337.562 208.24 337.372 208.61 337.112 208.95C335.822 209.79 335.132 211.03 334.772 212.49C333.322 214.41 334.222 216.9 333.232 218.93C332.832 219.32 332.442 219.72 332.042 220.11C331.282 220.24 330.762 219.94 330.492 219.21C329.442 219.16 328.382 219.11 327.332 219.06V219.05Z" fill="#3F3A37"/>
<path d="M347.22 243.78C345.47 247.64 345.83 252.38 342.03 255.58C342.99 248.61 339.56 241.78 342.03 234.81C344.27 235.08 345.59 237.1 347.48 238.15C348.01 240.06 348.43 241.96 347.21 243.78H347.22Z" fill="#E2C49F"/>
<path d="M298.011 229.43C308.341 235.32 315.421 227.31 323.471 223.48C324.161 224.24 324.861 224.99 325.551 225.75C324.871 226.36 324.411 227.17 323.731 227.78C319.081 231.53 314.001 234.41 308.051 235.55C306.311 235.6 304.561 235.61 302.811 235.55C299.831 235.33 297.811 233.99 297.371 230.84C297.401 230.29 297.611 229.82 298.001 229.43H298.011Z" fill="#403B33"/>
<path d="M272.221 263.91C268.511 257.4 267.361 249.57 261.871 243.98C263.131 243.37 264.391 242.75 265.991 241.97C267.701 248.24 270.671 253.76 274.021 259.09C271.071 259.81 272.711 262.26 272.221 263.9V263.91Z" fill="#E7B71D"/>
<path d="M251.434 384.73C253.464 384.46 253.244 382.89 253.214 381.53C253.164 379.35 254.424 378.92 256.234 379.09C254.004 382.15 254.004 384.27 258.064 386.01C260.744 387.16 261.824 389.91 260.714 393.01C259.984 394.23 259.014 393.83 258.044 393.39C255.994 390.38 252.944 388.15 251.434 384.73V384.73Z" fill="#C19265"/>
<path d="M336.88 221.03C337.03 220.83 337.12 220.6 337.14 220.35C337.97 218.82 339.19 218.51 340.73 219.23C341.69 223.94 339.18 227.23 336.23 230.39C335.61 231.05 335.27 232.23 334.16 231.68C332.77 230.99 333.41 229.96 333.97 228.94C334.48 228 334.75 226.94 335.13 225.93C335.86 224.35 335.9 222.52 336.88 221.03V221.03Z" fill="#A99371"/>
<path d="M333.233 218.93C332.033 216.55 332.123 214.33 334.063 212.35C335.403 212.27 335.913 211.2 336.543 210.27C337.753 209.18 338.483 207.33 340.593 207.63C341.423 210.47 339.413 212.64 338.813 215.14C338.103 217.08 336.863 218.47 334.793 218.99C334.273 218.97 333.753 218.95 333.233 218.93V218.93Z" fill="#AE956E"/>
<path d="M326.572 240.07C327.692 239.36 328.752 239.42 329.182 240.76C329.912 243.01 330.882 244.82 333.222 245.93C335.132 246.83 333.622 248.28 333.132 249.47C332.622 250.07 331.952 250.32 331.172 250.3C330.672 250.25 330.212 250.09 329.772 249.84C326.822 247.2 325.322 244.09 326.562 240.07H326.572Z" fill="#AA9474"/>
<path d="M344.61 309.59C344.59 308.17 344.59 306.75 342.62 306.66C341.94 305.05 343.18 303.74 343.32 302.26C343.55 300.43 344.06 298.75 345.74 297.68C346.3 297.27 346.9 296.95 347.59 296.84C348.73 297 349.05 297.79 349.11 298.79C349.04 299.25 348.86 299.66 348.58 300.04C348.34 303.67 346.66 306.71 344.6 309.58L344.61 309.59Z" fill="#EBB81D"/>
<path d="M326.57 240.07C327.23 243.47 327.89 246.87 330.41 249.51C330.1 251.12 329.67 252.54 327.53 251.47C325.49 248.95 324.33 246.05 323.82 242.87C324.73 241.94 325.65 241 326.56 240.07H326.57Z" fill="#3F3B35"/>
<path d="M334.052 288.67C332.802 287.25 331.422 285.91 331.402 283.82C332.822 283.95 333.152 282.38 334.232 281.99C334.822 284.13 335.892 285.88 338.112 286.68C339.702 287.01 341.342 288.33 342.812 286.44C343.702 286.89 343.572 287.79 343.742 288.55C343.462 289.45 342.792 289.84 341.912 289.96C340.952 289.94 339.982 289.83 339.052 290.24C337.962 290.68 337.072 291.49 335.922 291.82C335.492 291.84 335.112 291.71 334.772 291.45C333.872 290.69 335.052 289.39 334.032 288.66L334.052 288.67Z" fill="#403A31"/>
<path d="M301.48 377.27C312.69 377.25 323.9 377.23 335.12 377.21C333.69 378.41 331.87 377.81 330.27 378.26C321.09 378.61 311.91 378.92 302.74 378.1C302.32 377.82 301.9 377.54 301.48 377.26V377.27Z" fill="#C6B26D"/>
<path d="M338.011 237.04C337.701 239.78 335.561 241.1 333.771 242.48C333.291 242.85 331.601 241.13 332.041 240.31C333.101 238.31 334.051 235.93 336.641 235.31C338.231 234.93 337.731 236.35 338.011 237.04Z" fill="#E6C89A"/>
<path d="M302.742 378.1C311.922 378.15 321.092 378.2 330.272 378.26C321.092 379.47 311.912 379.72 302.742 378.1Z" fill="#513C14"/>
<path d="M331.183 232.65C331.003 233.79 331.923 235.55 330.213 235.86C328.643 236.14 328.413 234.35 328.053 233.24C327.333 231 326.443 228.62 329.263 227.03C332.203 228.12 329.863 231.01 331.183 232.65V232.65Z" fill="#9F8E6F"/>
<path d="M329.481 260.99C330.801 258.45 327.251 257.51 327.621 255.28C328.441 254.47 328.711 252.94 330.341 253.16C331.561 254.04 331.941 255.5 332.761 256.66C333.171 257.38 333.571 258.11 333.201 258.98C332.961 261.5 331.011 260.87 329.481 260.98V260.99Z" fill="#3F3930"/>
<path d="M367.352 310.52C371.642 310.98 373.322 313.98 371.142 317.3C369.752 315.11 367.422 313.45 367.352 310.52Z" fill="#BC936B"/>
<path d="M331.261 249.69C331.881 249.61 332.511 249.54 333.131 249.46C333.181 250.7 333.761 251.43 335.061 251.45C335.811 252.29 335.911 253.57 336.931 254.23C336.411 255.31 334.881 255.75 335.021 257.25C334.021 257.58 333.281 257.13 332.621 256.45C331.761 255.38 330.891 254.32 330.581 252.93C330.151 251.71 330.331 250.62 331.251 249.68L331.261 249.69Z" fill="#41392E"/>
<path d="M330.492 219.2C331.012 219.5 331.522 219.8 332.042 220.1C334.282 222.33 332.392 223.98 331.242 225.73C330.602 226.31 329.992 226.32 329.402 225.66C328.482 223.29 328.922 221.15 330.492 219.2Z" fill="#AA9574"/>
<path d="M263.732 291.34C263.702 291.49 263.692 291.66 263.642 291.8C263.472 292.26 262.842 292.53 262.832 292.06C262.712 288.78 262.742 285.49 262.742 282.21C262.742 279.55 262.772 276.89 262.782 274.23C263.022 274.3 263.272 274.34 263.522 274.36C264.702 280.01 264.282 285.67 263.732 291.34V291.34Z" fill="#AE9881"/>
<path d="M270.402 309.37C270.432 309.11 270.502 308.85 270.592 308.6C271.072 308.94 271.962 309.27 271.972 309.62C272.112 314.58 272.142 319.55 272.182 324.51C272.182 324.56 271.852 324.68 271.832 324.66C271.612 324.32 271.412 323.96 271.212 323.61C270.102 318.91 271.622 314.06 270.412 309.36L270.402 309.37Z" fill="#4A3724"/>
<path d="M263.733 291.34C263.663 285.68 263.593 280.02 263.523 274.36C265.923 280.01 264.123 285.92 264.543 291.69C264.273 291.58 264.003 291.46 263.733 291.34V291.34Z" fill="#4D3722"/>
<path d="M274.944 308.69C277.364 313.9 275.644 319.35 275.844 324.69C275.844 324.75 275.614 324.87 275.494 324.86C275.354 324.85 275.214 324.72 275.074 324.65C275.024 319.33 274.984 314 274.934 308.68L274.944 308.69Z" fill="#A08C57"/>
<path d="M267.52 276.22C269.53 281.51 267.97 287 268.42 292.37C268.12 292.05 267.81 291.73 267.51 291.41C266.76 286.35 266.71 281.28 267.52 276.22V276.22Z" fill="#9F895B"/>
<path d="M334.793 218.99C336.133 217.71 337.473 216.43 338.813 215.15C338.663 216.88 340.983 217.46 340.733 219.24C339.533 219.61 338.343 219.99 337.143 220.36C336.673 219.36 335.773 219.11 334.793 218.99Z" fill="#43392E"/>
<path d="M267.521 276.22C267.521 281.28 267.521 286.35 267.511 291.41C265.401 286.12 267.031 280.62 266.611 275.24C266.921 275.57 267.221 275.89 267.521 276.22V276.22Z" fill="#4C3B16"/>
<path d="M321.602 181.35C320.692 180.3 319.782 179.25 318.872 178.2C318.392 176.49 318.472 175.02 320.532 174.43C320.692 176.51 322.922 177.31 323.472 179.15C322.082 179.24 321.732 180.21 321.602 181.36V181.35Z" fill="#463D34"/>
<path d="M270.402 309.37C272.432 314.02 270.792 318.88 271.202 323.62C270.942 323.74 270.682 323.85 270.412 323.94C270.412 319.08 270.412 314.23 270.402 309.37Z" fill="#AB9681"/>
<path d="M274.091 335.14C274.041 339.27 273.991 343.39 273.931 347.52C273.931 347.58 273.701 347.7 273.591 347.69C273.451 347.68 273.321 347.56 273.181 347.49C272.541 343.41 272.331 339.33 273.331 335.27C273.591 335.25 273.851 335.21 274.101 335.13L274.091 335.14Z" fill="#9B8C5A"/>
<path d="M266.652 521.93C265.282 523.95 263.092 524.43 260.952 525C260.672 519.93 264.462 522.41 266.652 521.93Z" fill="#3F3936"/>
<path d="M273.331 335.28C273.281 339.35 273.231 343.43 273.181 347.5C272.891 347.59 272.611 347.68 272.331 347.79C272.711 343.63 271.121 339.3 273.331 335.29V335.28Z" fill="#473B18"/>
<path d="M241.712 380.72C241.732 384.61 241.751 388.5 241.771 392.39C241.561 392.33 241.341 392.3 241.121 392.29C239.771 388.54 240.171 384.76 240.941 380.97C241.201 380.9 241.462 380.82 241.712 380.72Z" fill="#D3BCA2"/>
<path d="M240.944 380.97C241.004 384.74 241.064 388.52 241.124 392.29C239.064 388.55 239.374 384.77 240.944 380.97Z" fill="#4D361B"/>
<path d="M336.94 254.24C334.54 254.51 334.1 253.46 335.07 251.46C335.6 250.8 336.13 250.13 336.65 249.47C337.13 248.97 337.56 249.01 337.94 249.58C337.61 251.13 337.27 252.69 336.94 254.24Z" fill="#D7BF9D"/>
<path d="M337.942 249.58C337.512 249.54 337.082 249.5 336.652 249.47C337.482 247.88 336.192 245.79 338.182 243.95C338.992 246.11 339.112 247.83 337.942 249.58V249.58Z" fill="#F0CE9E"/>
<path d="M284.793 376.16C286.013 376.09 287.243 376.03 288.463 375.96C290.673 375.68 292.883 375.34 295.063 376.15C295.213 376.43 295.363 376.71 295.493 376.99C291.923 376.82 288.243 378.02 284.803 376.15L284.793 376.16Z" fill="#513D14"/>
<path d="M340.591 207.63C339.391 208.6 338.181 209.56 336.981 210.53C336.461 209.89 336.411 209.24 336.941 208.58C337.031 208.37 337.071 208.14 337.061 207.91C337.491 207.06 337.691 206 338.911 205.87C340.301 205.66 340.821 206.29 340.591 207.63V207.63Z" fill="#D9BF97"/>
<path d="M338.901 205.87C338.281 206.55 337.661 207.23 337.051 207.91C336.431 205.55 336.161 203.3 338.891 201.97C338.891 203.27 338.891 204.57 338.901 205.87V205.87Z" fill="#43372A"/>
<path d="M335.043 262.74C336.203 260.85 337.363 258.96 338.533 257.07C338.873 257.31 339.203 257.55 339.543 257.78C338.383 259.68 338.483 262.48 335.263 262.9L335.053 262.73L335.043 262.74Z" fill="#A4927C"/>
<path d="M328.381 272.45C328.071 272.77 327.751 273.08 327.441 273.4C324.931 274.12 322.411 274.02 319.891 273.47C322.511 271.4 325.551 272.82 328.381 272.45Z" fill="#4E3F16"/>
<path d="M248.75 263.01C248.08 265.84 249.04 268.89 247.57 271.6C248.05 268.75 246.25 265.58 248.75 263.01Z" fill="#4B351C"/>
<path d="M323.572 226.63C323.982 225.76 324.732 225.67 325.562 225.75C325.562 226.06 325.542 226.37 325.522 226.67C324.092 228.81 326.292 231.63 324.182 233.64C321.442 231.52 322.452 229.08 323.572 226.63Z" fill="#AE9984"/>
<path d="M329.413 225.66C330.023 225.68 330.643 225.71 331.253 225.73C331.233 228.04 331.213 230.34 331.193 232.65C329.453 231.15 331.163 228.47 329.273 227.02C329.323 226.57 329.363 226.11 329.413 225.66V225.66Z" fill="#463827"/>
<path d="M334.242 274.13C335.212 275.5 336.262 276.83 336.362 278.98C334.192 278.4 333.962 276.63 333.332 275.2C333.612 274.82 333.662 274.25 334.242 274.13V274.13Z" fill="#988B70"/>
<path d="M338.11 286.68C335.11 286.14 334.64 285.58 334.23 281.99C335.52 283.55 336.82 285.12 338.11 286.68Z" fill="#A79785"/>
<path d="M339.871 173.35C339.901 170.85 339.931 168.36 339.961 165.86C341.221 168.37 341.351 170.87 339.871 173.35Z" fill="#453719"/>
<path d="M319.892 273.47C322.412 273.45 324.922 273.42 327.442 273.4C325.022 275.24 322.262 273.95 319.672 274.23C319.762 273.98 319.832 273.73 319.892 273.47V273.47Z" fill="#9C8C5F"/>
<path d="M324.57 233.36C324.92 231.14 323.68 228.68 325.51 226.67C325.49 229.32 325.46 231.98 325.44 234.63C325.17 234.56 324.92 234.43 324.69 234.26C324.32 234.1 324.18 233.92 324.26 233.7C324.35 233.47 324.46 233.35 324.57 233.35V233.36Z" fill="#533722"/>
<path d="M335.262 262.91C335.182 263.93 335.672 265.27 334.242 265.64C333.212 265.91 332.932 264.82 332.832 264.13C332.552 262.2 334.212 263.07 335.042 262.74L335.252 262.91H335.262Z" fill="#E6CB93"/>
<path d="M336.881 221.03C337.201 222.99 336.341 224.52 335.131 225.92C335.061 224.06 334.701 222.09 336.881 221.03Z" fill="#3F3A37"/>
<path d="M340.723 278.19C341.253 279.73 340.963 280.95 339.403 282.09C338.653 280.12 339.643 279.12 340.723 278.19Z" fill="#B29B7A"/>
<path d="M256.293 253.24C255.273 253.28 254.243 253.33 253.223 253.37C253.743 252.37 253.803 250.74 255.333 250.93C256.323 251.05 256.053 252.41 256.293 253.23V253.24Z" fill="#AF907B"/>
<path d="M350.171 246.54C349.471 247.8 352.141 250.44 348.551 250.53C349.091 249.2 349.631 247.87 350.171 246.54Z" fill="#CAB26A"/>
<path d="M343.651 327.33C341.921 325.75 342.911 323.72 342.761 321.88C344.081 323.53 343.561 325.48 343.651 327.33Z" fill="#C6AB7B"/>
<path d="M247.611 273.95C248.861 275.83 248.371 277.93 248.411 279.97C246.711 278.15 247.771 275.97 247.611 273.95Z" fill="#493721"/>
<path d="M246.702 527.56C246.942 528.82 247.182 530.08 247.422 531.34C246.662 531.32 245.982 531.13 245.602 530.39C245.652 529.32 245.412 528.14 246.702 527.56V527.56Z" fill="#43352D"/>
<path d="M347.223 243.78C347.313 241.9 347.403 240.02 347.493 238.15C348.763 240.09 349.113 241.99 347.223 243.78Z" fill="#463325"/>
<path d="M333.223 256.17C333.823 256.54 334.433 256.9 335.033 257.27C334.773 258.22 334.243 258.88 333.203 258.99C332.853 258.41 332.493 257.83 332.143 257.25C331.873 256.25 332.293 255.96 333.223 256.17V256.17Z" fill="#D8C3A5"/>
<path d="M340.453 268.17C340.943 269.36 341.263 270.89 340.013 271.08C338.293 271.34 339.163 270.02 339.553 269.28C339.753 268.89 340.113 268.59 340.453 268.18V268.17Z" fill="#C9B38C"/>
<path d="M379.752 332.45C380.772 331.79 380.682 332.64 380.712 333.2C380.782 334.54 380.102 335.21 378.762 335.21C379.092 334.29 379.422 333.37 379.752 332.45Z" fill="#B69479"/>
<path d="M340.684 377.04C340.764 376.8 340.824 376.56 340.864 376.31C342.694 375.3 344.564 375.53 346.434 376.16C344.744 377.92 342.624 376.87 340.684 377.04Z" fill="#614811"/>
<path d="M348.582 300.04C348.422 299.76 348.372 299.46 348.412 299.14C349.292 298.44 348.332 297.04 349.442 296.44C349.702 296.34 349.952 296.24 350.202 296.13C349.562 297.39 351.932 299.91 348.572 300.04H348.582Z" fill="#604912"/>
<path d="M346.432 376.16C344.572 376.21 342.712 376.26 340.852 376.31C342.552 374.3 344.792 375.56 346.782 375.31C346.702 375.61 346.582 375.89 346.422 376.16H346.432Z" fill="#DABC6C"/>
<path d="M350.201 356.34C349.891 355.65 349.581 354.95 349.271 354.26C348.771 352.97 348.561 351.7 349.421 350.47C350.981 352.25 350.111 354.36 350.201 356.34V356.34Z" fill="#5D4211"/>
<path d="M334.242 274.13C333.942 274.49 333.632 274.84 333.332 275.2C333.332 273.97 333.332 272.74 333.332 271.37C334.712 272.05 333.892 273.27 334.242 274.12V274.13Z" fill="#9F937F"/>
<path d="M329.191 182.99C330.931 183.01 332.681 183.03 334.421 183.04C332.661 184.28 330.921 184.37 329.191 182.99Z" fill="#A69486"/>
<path d="M258.043 393.39C258.933 393.26 259.823 393.14 260.713 393.01C259.993 393.99 259.283 394.97 258.573 395.95C257.943 395.19 257.903 394.31 258.053 393.39H258.043Z" fill="#503519"/>
<path d="M349.353 284.75C347.293 283.86 348.803 282.16 348.473 280.88C349.763 281.94 349.253 283.42 349.353 284.75Z" fill="#D2B367"/>
<path d="M373.012 345.42C373.162 346.92 373.322 348.42 371.152 348.54C371.332 347.24 371.972 346.21 373.012 345.42Z" fill="#B09071"/>
<path d="M355.06 292.47C355.2 293.28 354.85 293.89 354.28 294.42C354.22 293.05 354.15 291.67 354.09 290.18C355.56 290.66 354.95 291.69 355.06 292.47V292.47Z" fill="#9C9797"/>
<path d="M325.552 144.7C324.302 144.33 323.062 143.96 321.812 143.58C323.433 142.69 324.912 142.27 325.552 144.7Z" fill="#3E3C3A"/>
<path d="M313.271 140.99C312.071 140.99 310.681 141.37 309.711 140.88C308.731 140.39 309.921 140.29 310.281 140.1C311.331 140.23 312.591 139.62 313.271 140.98V140.99Z" fill="#E8CBB1"/>
<path d="M349.422 350.47C349.372 351.73 349.322 353 349.272 354.26C347.832 352.82 348.522 351.04 348.512 349.38C348.812 349.74 349.122 350.11 349.422 350.47V350.47Z" fill="#C9B075"/>
<path d="M324.573 233.36C324.683 233.65 324.723 233.96 324.693 234.27C322.083 233.92 320.783 235.93 319.183 237.37C312.383 243.45 305.823 245.18 300.593 241.72C296.183 238.8 291.383 236.23 288.443 231.52C287.963 230.76 287.263 230.56 286.473 230.43C288.763 229.34 289.933 226.2 293.143 226.84C295.053 227.73 296.563 229.1 297.863 230.73C298.933 232.59 299.813 234.7 302.573 234.38C302.883 234.63 303.203 234.85 303.543 235.05C304.903 235.4 306.263 235.41 307.613 235.03C307.953 234.83 308.283 234.62 308.623 234.41C314.183 232.93 318.953 229.93 323.563 226.62C324.083 228.84 322.753 231.33 324.563 233.36H324.573Z" fill="#C39363"/>
<path d="M320.531 174.43C319.981 175.69 319.421 176.95 318.871 178.2C315.841 178.44 314.941 181.6 312.541 182.79C307.161 185.45 302.011 185.23 296.751 182.39C295.571 181.75 294.031 179.61 292.401 182.02C291.311 187.17 289.401 188.84 284.771 188.7C284.401 188.36 284.031 188.02 283.661 187.68C283.611 185 286.151 184.27 287.531 182.71C289.621 180.36 290.121 178.19 288.171 175.54C286.681 173.51 285.171 171.37 286.371 168.6C287.098 167.26 288.391 167.61 290.251 169.65C291.781 172.15 294.351 173.53 296.471 175.38C305.761 183.53 312.841 179.64 317.781 169.15C319.391 165.72 319.681 161.9 319.311 158.01C319.141 156.23 318.911 154.23 319.791 152.45C322.471 150.34 322.271 152.93 322.811 154.31C322.761 154.67 322.711 155.04 322.661 155.4C323.161 156.92 322.051 158.74 323.521 160.08C324.071 165.19 323.341 170.03 320.521 174.43H320.531Z" fill="#3C3936"/>
<path d="M286.392 168.6C286.532 170.53 287.392 172.17 288.392 173.77C291.842 179.28 291.682 180.45 286.862 184.97C285.852 185.92 284.742 186.78 283.682 187.68C278.592 188.16 274.082 185.23 272.492 180.25C271.982 178.65 271.772 176.95 271.422 175.29C271.772 174.92 272.032 174.95 272.212 175.45C273.202 177.18 273.862 179.5 276.512 179.01C280.182 178.34 282.452 175.63 284.322 172.72C285.132 171.47 285.182 169.73 286.382 168.6H286.392Z" fill="#B09771"/>
<path d="M284.782 188.7C288.782 188.14 290.512 184.99 292.412 182.02C293.392 182.79 293.142 183.9 293.232 184.92C290.692 190.92 285.682 192.47 279.772 192.38C279.222 191.07 279.492 190.46 281.082 190.48C282.532 190.5 284.322 190.87 284.792 188.7H284.782Z" fill="#C09464"/>
<path d="M297.861 230.73C295.521 230.37 293.771 229.28 293.141 226.84C293.161 226.2 293.171 225.55 293.191 224.91C295.061 226.14 297.431 226.83 298.011 229.44C297.961 229.87 297.911 230.31 297.861 230.74V230.73Z" fill="#493A32"/>
<path d="M272.042 162C272.142 162.27 272.192 162.54 272.212 162.82C270.812 166.57 272.822 170.63 271.132 174.35C270.362 170.15 268.822 165.9 272.042 162V162Z" fill="#4F3A23"/>
<path d="M275.443 155.38C276.673 156.2 278.703 156.9 277.713 158.74C276.403 161.16 275.503 157.29 274.083 158.16C274.053 157 274.753 156.19 275.443 155.39V155.38Z" fill="#F2CCA0"/>
<path d="M271.133 174.35C271.683 170.52 270.233 166.51 272.213 162.82C272.213 167.03 272.213 171.23 272.213 175.44C271.943 175.39 271.683 175.34 271.423 175.28C271.323 174.97 271.233 174.66 271.133 174.34V174.35Z" fill="#E1CEAE"/>
<path d="M278.873 193.34C278.473 194.72 277.093 194.59 276.143 195.11C275.373 194.8 275.103 194.11 274.843 193.42C274.783 193.03 274.903 192.71 275.213 192.47C276.433 192.76 277.653 193.05 278.873 193.34V193.34Z" fill="#AD9079"/>
<path d="M275.211 192.47C275.211 192.81 275.211 193.14 275.221 193.48C275.791 195 275.651 196.53 275.331 198.07C273.491 196.24 273.661 194.37 275.211 192.47Z" fill="#473622"/>
<path d="M275.333 198.06C275.293 196.53 275.263 195 275.223 193.47C275.973 193.77 276.083 194.42 276.133 195.1C276.093 196.12 276.053 197.14 276.013 198.16C275.783 198.1 275.563 198.07 275.323 198.05L275.333 198.06Z" fill="#CDBBA9"/>
<path d="M249.312 533.27C253.802 531.89 258.512 531.23 262.742 529.02C263.772 528.48 264.483 528.99 265.193 529.74C268.963 533.68 268.372 543.78 263.932 546.66C261.352 548.33 258.153 547 255.273 547.47C253.803 542.52 250.503 538.34 249.312 533.27V533.27Z" fill="#EEC38D"/>
<path d="M246.553 576.86C250.953 577.22 254.593 578.95 257.113 582.71C256.593 583.44 255.823 583.86 255.153 584.41C251.833 582.34 248.353 580.69 244.473 579.97C244.833 578.71 245.233 577.47 246.553 576.85V576.86Z" fill="#FCFAEB"/>
<path d="M259 549.37C260.89 548.02 262.76 547.95 264.6 549.48C262.73 549.44 260.87 549.4 259 549.37Z" fill="#B99982"/>
<path d="M337.972 398.1C336.572 395.44 338.902 396.49 339.872 396.19C339.242 396.83 338.612 397.46 337.972 398.1Z" fill="#3E3846"/>
<path d="M399.84 685.51C399.78 681.89 399.56 678.25 400.76 674.72C401.08 673.78 401.37 672.7 402.42 672.72C403.71 672.75 403.49 674 403.59 674.91C404.21 680.94 402.52 686.83 402.54 692.82C402.54 693.61 402.03 694.47 401.13 694.39C400.27 694.31 399.88 693.45 399.86 692.62C399.82 690.25 399.84 687.88 399.84 685.5V685.51Z" fill="#585858"/>
<path d="M358.803 685.05C358.803 687.58 358.833 690.11 358.783 692.64C358.773 693.47 358.353 694.3 357.493 694.38C357.103 694.41 356.303 693.68 356.253 693.23C355.653 687.96 353.923 682.7 355.933 677.36C356.263 676.49 356.203 675.28 357.463 675.37C359.013 675.49 358.823 676.86 358.843 677.92C358.883 680.29 358.853 682.67 358.853 685.04C358.833 685.04 358.813 685.04 358.793 685.04L358.803 685.05Z" fill="#5A5959"/>
<path d="M324.272 670.07C324.652 677.23 326.552 683.41 325.022 690.06C321.282 685.69 320.662 674.89 324.272 670.07Z" fill="#5A5959"/>
<path d="M340.921 693.74C337.241 687.53 337.851 681.83 338.101 676.21C338.131 675.44 338.711 674.7 339.611 674.65C340.371 674.61 340.711 675.22 340.711 675.89C340.671 681.45 342.851 686.98 340.921 693.74V693.74Z" fill="#585858"/>
<path d="M313.483 687.83C310.603 682.9 309.063 671.96 310.403 667.05C313.393 674.32 312.863 681.18 313.483 687.83Z" fill="#585858"/>
<path d="M383.833 692.4C382.463 687.17 382.013 682.02 383.793 676.89C384.053 676.15 384.513 675.47 385.473 675.56C386.303 675.64 386.553 676.45 386.393 676.94C384.743 681.97 386.443 687.48 383.843 692.4H383.833Z" fill="#585858"/>
<path d="M411.462 690.74C407.582 684.62 411.042 679.63 410.392 674.72C410.302 674.04 410.862 673.54 411.562 673.48C412.542 673.4 412.952 674.06 413.042 674.92C413.582 679.95 412.462 684.76 411.462 690.74V690.74Z" fill="#5A5959"/>
<path d="M371.233 691.41C370.253 686.73 369.343 682.06 372.133 677.56C373.563 682.26 373.493 686.89 371.233 691.41Z" fill="#585858"/>
<path d="M183.973 655.12C181.033 651.97 181.553 648.37 180.933 645.17C180.633 643.65 180.873 642.02 180.813 640.45C180.753 639.05 179.123 636.99 181.593 636.61C183.273 636.35 183.453 638.79 183.483 639.9C183.593 644.77 185.903 649.61 183.983 655.14L183.973 655.12Z" fill="#5A5959"/>
<path d="M276.673 659.98C274.613 654.12 274.273 648.2 276.603 641.43C278.713 646.02 278.773 654.45 276.673 659.98Z" fill="#585858"/>
<path d="M194.213 650.96C194.213 650.06 194.162 649.42 194.222 648.79C194.342 647.62 193.842 645.83 195.702 645.9C197.502 645.97 196.942 647.75 197.062 648.92C197.392 652.04 197.722 655.16 197.972 658.29C198.042 659.19 198.062 660.39 196.692 660.31C195.872 660.26 195.302 659.44 195.292 658.62C195.252 655.93 193.722 653.44 194.202 650.96H194.213Z" fill="#5A5959"/>
<path d="M260.974 653.24C260.174 655.53 262.134 659.77 259.444 659.78C256.644 659.8 258.064 655.6 258.104 653.35C258.144 651.19 256.344 647.22 259.584 647.16C262.114 647.11 260.154 651.15 260.974 653.23V653.24Z" fill="#585858"/>
<path d="M286.553 654.41C286.553 650.65 286.543 646.89 286.553 643.12C286.553 642.14 286.753 641.06 287.993 641.1C289.233 641.14 289.343 642.24 289.353 643.21C289.403 647.08 289.743 650.99 286.543 654.41H286.553Z" fill="#585858"/>
<path d="M212.182 661.62C209.232 657.65 210.752 653.68 210.502 649.96C210.452 649.26 211.062 648.72 211.712 648.94C212.222 649.11 212.902 649.73 212.932 650.2C213.182 653.83 213.962 657.53 212.182 661.62Z" fill="#5A5959"/>
<path d="M238.771 650.06C240.251 654.28 239.901 658.55 239.221 662.84C237.121 658.69 238.381 654.33 238.771 650.06Z" fill="#585858"/>
<path d="M223.613 650.32C224.893 650.99 225.103 651.03 225.123 651.12C225.893 653.73 227.353 656.27 226.053 659.09C225.963 659.28 225.053 659.39 224.893 659.21C222.553 656.65 224.213 653.76 223.613 650.32Z" fill="#5B5A5A"/>
<path d="M343.681 412.32C343.281 411.16 344.201 410.45 344.611 409.56C345.531 408.23 345.761 406.38 347.561 405.73C348.721 404.97 349.871 404.21 350.211 406.45C347.901 408.26 347.051 411.7 343.681 412.31V412.32Z" fill="#4C3F2F"/>
<path d="M347.561 405.73C346.561 407 346.121 408.69 344.611 409.56C344.581 408.85 344.551 408.15 344.531 407.44C345.141 406.83 345.761 406.22 346.371 405.61C346.771 405.65 347.171 405.69 347.561 405.72V405.73Z" fill="#D3BB9D"/>
<path d="M405.131 645.94C408.051 647.3 409.871 648.58 410.011 651.2C410.021 651.41 409.181 651.94 409.031 651.85C407.131 650.65 406.221 648.75 405.121 645.94H405.131Z" fill="#5A5959"/>
<path d="M356.95 641.59C354.74 641.59 352.53 641.59 350.32 641.59C352.53 639.94 354.74 638.62 356.95 641.59Z" fill="#FBF8E3"/>
<path d="M343.753 621.74C343.693 617.64 343.622 613.54 343.562 609.44C345.812 613.38 344.002 617.65 344.592 621.73L344.173 621.79L343.753 621.75V621.74Z" fill="#DEC4AC"/>
<path d="M255.152 584.42C255.222 583.19 256.012 582.77 257.112 582.72C257.382 582.76 257.652 582.81 257.922 582.87C257.612 583.82 256.932 584.42 256.062 584.84C255.762 584.7 255.452 584.57 255.152 584.43V584.42Z" fill="#FBFDFC"/>
<path d="M295.133 320.09C295.973 317.57 298.083 316.58 300.383 316.27C302.283 316.01 302.783 315.11 302.713 313.47C303.113 312.87 303.713 312.74 304.373 312.75C305.653 312.97 306.923 313.14 307.823 311.87C308.843 310.94 309.723 311.2 310.493 312.17C310.363 313.78 311.443 313.38 312.383 313.23C313.903 313.15 315.423 313.26 316.883 312.77C317.253 312.61 317.633 312.47 318.033 312.35C319.903 313.03 321.783 313.71 323.653 314.38C324.773 315.86 323.633 316.55 322.643 317.3C322.323 317.54 322.013 317.8 321.733 318.09C320.313 318.06 318.613 318.53 317.503 317.92C309.493 313.51 302.363 317.17 295.133 320.08V320.09Z" fill="#B38D1D"/>
<path d="M304.622 313.37C303.982 313.4 303.342 313.43 302.702 313.46C302.342 313.48 301.972 313.49 301.612 313.51C300.092 313.91 298.572 314.07 297.072 313.4C296.992 312.72 296.912 312.04 296.832 311.36C300.072 310.36 303.322 309.35 306.562 308.35C307.822 307.55 309.082 307.59 310.342 308.35C312.252 309.36 314.162 310.38 316.072 311.39C315.942 314.02 313.872 313.02 312.492 313.3C311.672 313.28 310.922 313.08 310.272 312.55C309.632 312.56 309.182 311.09 308.382 312.3C307.352 313.43 306.052 313.63 304.622 313.37Z" fill="#3E3932"/>
<path d="M335.05 291.44C335.3 291.44 335.55 291.44 335.8 291.44C336.51 295.73 339.75 298.21 342.65 300.92C343.34 301.44 343.77 302.18 344.28 302.86C343.72 304.13 343.17 305.39 342.61 306.66C342.32 306.69 342.04 306.76 341.77 306.87C339.92 307.63 339.16 306.31 338.6 305.03C337.65 302.87 335.65 301.4 334.91 299.13C333.02 296.84 332.8 294.21 333.28 291.42C333.87 290.88 334.46 290.88 335.05 291.42V291.44Z" fill="#453F34"/>
<path d="M334.913 299.14C337.333 300.39 339.133 302.21 339.673 304.93C339.933 306.22 340.563 306.77 341.763 306.87C336.453 307.63 335.143 303.43 333.223 299.98C333.783 299.7 334.343 299.42 334.903 299.14H334.913Z" fill="#BA930B"/>
<path d="M276.042 300.08C274.782 299.03 275.182 297.58 275.102 296.25C275.102 291.86 275.102 287.47 275.102 283.08C275.412 283.08 275.732 283.08 276.042 283.07V300.09V300.08Z" fill="#EFBB25"/>
<path d="M310.35 308.35C309.09 308.35 307.83 308.35 306.57 308.35C307.83 305.66 309.09 305.74 310.35 308.35Z" fill="#D3B658"/>
<path d="M312.052 312.49C313.422 312.23 315.042 312.86 316.082 311.38C316.852 311.45 317.662 311.46 318.032 312.34C317.922 312.62 317.872 312.91 317.882 313.2C316.222 314.37 314.382 313.59 312.622 313.72C312.072 313.47 311.882 313.06 312.052 312.48V312.49Z" fill="#4F3A15"/>
<path d="M295.061 376.16C292.861 376.1 290.661 376.03 288.461 375.97C288.481 375.71 288.511 375.45 288.571 375.19C290.721 375.6 293.121 374.36 295.061 376.16V376.16Z" fill="#D4BA75"/>
<path d="M321.73 318.1C321.76 317.82 321.78 317.54 321.77 317.26C323.1 316.67 324.32 315.98 324.52 314.33C326.01 317.66 325.9 317.81 321.73 318.1Z" fill="#E8BA31"/>
<path d="M329.382 295.25C329.732 295.87 330.092 296.48 330.442 297.1C329.572 297.07 328.422 297.47 328.012 296.48C327.572 295.39 328.712 295.45 329.382 295.25Z" fill="#EBBB27"/>
<path d="M324.523 314.33C324.903 316.52 323.813 317.34 321.773 317.26C322.213 316.18 323.793 315.85 323.653 314.39C323.943 314.34 324.233 314.32 324.523 314.34V314.33Z" fill="#B98E0D"/>
<path d="M319.802 152.45C320.102 156.04 320.882 159.68 320.572 163.22C320.082 168.98 317.722 173.95 313.252 178.03C310.512 180.54 307.572 181.79 304.292 180.92C298.082 179.26 293.072 175.73 290.262 169.65C290.802 169.96 291.372 170.22 291.872 170.57C303.502 178.78 315.192 173.85 317.982 159.62C318.452 157.21 318.232 154.59 319.792 152.45H319.802Z" fill="#AD936E"/>
<path d="M331.261 249.69C331.261 250.9 331.271 252.11 331.281 253.31C331.011 253.79 330.711 253.84 330.361 253.39C329.341 253.86 329.031 255.37 327.621 255.27C327.591 254 327.561 252.73 327.531 251.46C329.011 251.57 329.361 250.03 330.411 249.5C330.701 249.53 330.981 249.59 331.261 249.69Z" fill="#39373B"/>
<path d="M297.082 313.4C298.592 313.44 300.112 313.47 301.622 313.51C300.072 314.67 298.562 314.76 297.082 313.4Z" fill="#938269"/>
<path d="M265.563 322.74C266.213 322.98 267.363 322.83 267.193 323.84C266.943 325.32 265.463 324.48 264.603 324.87C262.973 323.28 264.833 323.26 265.563 322.74Z" fill="#523515"/>
<path d="M344.291 302.86C343.491 302.78 342.871 302.43 342.571 301.65C341.521 300.05 341.141 298.27 341.141 296.39C341.351 294.69 343.241 294.09 343.651 292.51C344.311 291.52 344.931 290.44 346.361 291.46C346.561 291.65 346.671 291.88 346.681 292.16C347.771 294.16 347.661 296.14 346.561 298.1C344.881 299.24 344.531 301.02 344.291 302.85V302.86Z" fill="#3B3A3B"/>
<path d="M346.36 291.46C345.11 291.52 344.59 292.25 344.54 293.42C341.22 293.8 340.89 292.12 341.86 289.54C342.49 289.21 343.11 288.88 343.74 288.55C344.91 289.26 345.89 290.12 346.36 291.46Z" fill="#403C28"/>
<path d="M349.453 296.44C349.303 297.41 349.613 298.57 348.423 299.14C348.143 298.49 347.863 297.83 347.573 297.18C346.573 295.61 346.843 294 347.403 292.38C349.443 293.05 348.093 295.43 349.453 296.44Z" fill="#DFBA60"/>
<path d="M347.402 292.38C347.462 293.98 347.513 295.58 347.573 297.18C347.233 297.49 346.903 297.8 346.562 298.11C346.602 296.13 346.642 294.15 346.682 292.17C346.932 292.23 347.172 292.3 347.402 292.38V292.38Z" fill="#5E4210"/>
<path d="M335.051 291.44C334.461 291.44 333.871 291.44 333.281 291.44C333.541 290.52 333.791 289.6 334.041 288.68C336.031 289 334.591 290.57 335.051 291.45V291.44Z" fill="#443B1B"/>
<path d="M323.53 160.07C320.3 159.05 322.14 157.1 322.67 155.39C324.2 156.72 323.54 158.46 323.53 160.07Z" fill="#3C3743"/>
<path d="M336.933 208.58C336.943 209.23 336.963 209.88 336.973 210.53C336.883 212.54 336.813 214.59 334.063 212.35C334.063 210.36 333.953 208.29 336.933 208.58V208.58Z" fill="#A9957A"/>
<path d="M308.632 234.42C308.562 234.7 308.492 234.97 308.422 235.25C306.522 236.01 304.632 236.08 302.752 235.2C302.712 234.92 302.662 234.65 302.582 234.38C304.602 234.39 306.612 234.4 308.632 234.41V234.42Z" fill="#48361F"/>
<path d="M341.581 296.1C342.591 297.83 342.821 299.7 342.571 301.65C339.451 298.82 334.191 297.41 335.811 291.44C336.531 290.33 337.411 289.48 338.861 289.52C341.061 291.18 341.271 293.66 341.591 296.1H341.581Z" fill="#AD9571"/>
<path d="M341.582 296.1C339.782 294.28 339.462 291.84 338.852 289.52C339.862 288.58 340.882 288.14 341.872 289.55C342.432 291.07 342.132 293.19 344.552 293.43C345.102 296.03 342.012 294.59 341.582 296.1V296.1Z" fill="#E6C698"/>
<path d="M330.36 253.39C330.67 253.34 330.97 253.31 331.28 253.31C331.93 254.26 332.58 255.21 333.23 256.16C332.87 256.52 332.51 256.88 332.15 257.24C331.17 256.13 330.33 254.97 330.36 253.39V253.39Z" fill="#A6937C"/>
<path d="M302.75 235.2C304.64 235.22 306.53 235.23 308.42 235.25C306.52 236.73 304.63 236.8 302.75 235.2Z" fill="#AB9A83"/>
<path d="M304.621 313.37C305.721 312.47 307.041 312.37 308.381 312.3C307.821 315.1 306.341 314.65 304.621 313.37Z" fill="#AB8924"/>
<path d="M312.251 313.33C314.131 313.29 316.001 313.25 317.881 313.22C316.321 315.22 314.131 313.94 312.261 314.29C312.011 314.08 311.921 313.87 312.011 313.66C312.091 313.45 312.181 313.34 312.261 313.34L312.251 313.33Z" fill="#9E8A5C"/>
<path d="M312.25 313.33C312.25 313.65 312.25 313.97 312.25 314.28C311.26 314.07 309.28 315 310.27 312.54C310.86 312.52 311.45 312.5 312.04 312.49C312.11 312.77 312.18 313.05 312.24 313.33H312.25Z" fill="#AB8924"/>
</svg>
