<svg width="596" height="842" viewBox="0 0 596 842" fill="none" xmlns="http://www.w3.org/2000/svg">
<path d="M500.58 694.88C495.58 700.67 489.08 703.11 481.7 703.97C471.67 705.15 462.23 702.14 452.63 700.05C440.89 697.51 429.18 694.49 416.97 697.9C413.89 698.76 410.34 698.29 407.04 698.03C399.46 697.43 392.76 690.71 393.58 683.24C395.04 669.74 391.45 657.21 388 644.55C382.94 625.97 376.39 607.99 365.69 591.75C357.59 579.41 354.99 565.67 356.07 551.14C356.16 549.87 356.07 548.9 355.42 547.91C357.98 547.01 358.93 547.78 359.3 549.05C359.6 550.02 359.58 551.27 359.73 552.3C360.01 554.24 359.88 556.2 359.82 558.16C359.78 560.12 359.78 562.08 360.34 564C360.45 564.41 360.6 564.82 360.77 565.23C360.79 565.25 360.79 565.29 360.81 565.32C364.3 579.6 373.02 591.33 379.56 604.16C386.95 618.63 391.57 634.26 395.56 650C396.44 653.55 396.79 656.93 402.04 655.92C404.54 655.42 406.73 657.58 408.99 658.7C411.04 659.69 413.49 659.65 413.36 656.98C413.1 652.01 414.85 648.37 418.64 645.4C418.81 645.27 418.88 645.03 418.9 644.8C418.9 644.67 418.9 644.54 418.88 644.41C418.84 643.98 418.69 643.53 418.64 643.12C415.02 624.13 411.34 605.18 410.57 585.82C410.53 585.24 410.53 584.68 410.53 584.1C410.59 581.24 411.09 578.35 410.01 575.59C409.88 575.22 409.71 574.88 409.51 574.51C409.17 573.95 408.91 573.33 408.71 572.7C407.85 561.93 405.63 551.28 405.78 540.42C405.8 539.52 405.84 538.61 405.89 537.71C405.91 537.41 405.93 537.13 405.95 536.83C406.01 535.3 406.04 533.77 405.73 532.26C405.64 531.68 405.49 531.1 405.28 530.52V530.5C404.94 530.03 404.66 529.53 404.42 529.01C403.34 521.78 397.62 517.06 394.62 510.86C394.58 510.36 394.51 509.89 394.4 509.42C394.16 508.34 393.75 507.4 392.79 506.77H392.77C392.45 506.58 392.08 506.4 391.63 506.3C381.38 495.9 372.53 484.27 362.91 473.31C362.76 473.14 362.59 472.99 362.44 472.84C362.03 472.45 361.62 472.09 361.23 471.78C357.44 468.64 354 468.51 348.98 471.33C341.06 475.77 335.46 482.76 329.47 489.35C328.29 490.66 327.75 492.88 325.38 492.77H325.25C322.92 489.6 324.37 486.91 326.56 484.57C328.48 482.5 329.92 480.41 329.12 477.44C329.12 477.42 329.14 477.42 329.14 477.4C329.2 477.27 329.27 477.14 329.38 477.01C333.66 469.09 340.71 464.28 348.82 461.18C352.55 459.76 349.94 459.07 349.16 458.08C349.1 458.02 349.05 457.97 349.03 457.91C349.01 457.87 348.97 457.85 348.94 457.8C334.64 439.78 318.24 423.56 304.28 405.26C302.34 402.7 300.12 400.93 297.02 403.84C281.75 418.09 262.4 423.8 243.06 429.48C237.46 431.14 231.71 432.41 226.09 434.09C225.81 434.13 225.51 434.18 225.23 434.24C224.69 434.33 224.15 434.43 223.59 434.54C219.5 435.32 215.43 436.24 211.25 436.52C211.16 436.52 211.06 436.5 210.97 436.5C210.8 436.48 210.65 436.48 210.5 436.44C209.42 436.31 208.43 435.94 207.7 435C208.88 427.83 204.97 421.84 202.55 415.73C197.19 402.16 190.97 388.94 183.84 376.2C179.62 368.69 175.18 368.06 168.6 373.96C154.04 387.03 137.92 397.9 120.97 407.55C111.88 412.72 106.01 411.25 99.9801 402.79C93.6301 393.85 91.4501 384.27 93.7601 373.05C98.8001 348.31 106.29 324.34 115.21 300.81C118.31 292.56 122.32 284.66 125.89 276.59C126.88 276.22 127.57 276.57 128.13 277.19C128.19 277.28 128.28 277.36 128.35 277.45C128.35 277.45 128.37 277.47 128.35 277.47C128.44 277.56 128.48 277.62 128.54 277.71C128.56 277.75 128.56 277.77 128.58 277.82C128.62 277.91 128.64 277.99 128.67 278.1C128.8 278.47 128.84 278.85 128.82 279.26C128.73 279.78 128.54 280.27 128.28 280.72C127.81 281.3 127.53 281.93 127.38 282.59C127.1 283.69 127.14 284.87 127.06 286.01C126.84 286.89 126.61 287.78 126.35 288.66V288.68C123.9 297.38 120.08 305.6 117.24 314.15C112.89 327.31 108.67 340.48 105.1 353.86C103.01 361.57 101.18 369.36 99.6101 377.22C97.8401 386.22 101.61 393.61 106.35 400.71C107.23 401.53 107.96 402.2 108.65 402.73C111.38 404.82 113.11 404.6 117.67 402.11C118.27 401.81 118.92 401.44 119.63 401.03C137.78 390.09 154.47 377.24 170.25 363.13C171.86 361.69 173.57 360.46 173.65 357.96C173.95 348.14 173.28 338.43 170.31 328.98C169.64 326.89 168.18 325.25 167.14 323.38C166.82 323.06 166.58 322.71 166.43 322.32C166.32 322.08 166.24 321.82 166.19 321.57C165.8 320.06 166.08 318.34 165.39 316.92C165.35 316.81 165.28 316.7 165.22 316.62C165.13 316.47 165.05 316.34 164.94 316.21C166.94 308.2 172.89 303.81 179.88 300.92C184.1 299.2 181.75 292.15 179 287.19C178.78 286.82 182.04 285.86 182.04 285.86C182.13 285.75 183.44 284.98 183.55 284.88C183.59 284.86 183.81 282.55 183.85 282.53C184.93 281.99 187.1 290.54 188.18 290.82C188.46 290.86 188.76 290.97 189.04 291.1C189.13 291.12 189.21 291.16 189.3 291.21C191.91 293.06 192.72 295.77 192.98 298.77C193.07 299.22 193.11 299.67 193.11 300.13C193.13 300.43 193.15 300.73 193.13 301.01V301.03C193.11 303.38 192.66 305.77 193.13 308.05C193.24 308.65 193.41 309.23 193.69 309.79C193.93 310.33 194.25 310.85 194.66 311.34C204.74 318.4 211.58 317.41 218.99 307.44C225.79 298.31 228.12 287.85 227.34 276.07C222.9 277.28 218.55 279.26 214.59 275.79C212.72 274.18 211.47 272.26 212.78 269.63C212.82 269.57 212.87 269.52 212.91 269.48C213.02 269.31 213.15 269.18 213.28 269.03C213.73 268.6 214.29 268.3 214.98 268.19C219.26 274.09 222.28 274.18 230.91 268.47C234.14 266.34 237.31 264.08 240.56 261.95C241.51 261.3 242.63 260.44 243.68 260.46C260.43 260.55 271.43 247.76 285.43 241.71C299.66 235.59 313.34 228.25 327.42 221.79C348.35 212.17 367.97 200.19 387.28 187.81C395.1 182.79 401.64 175.8 408.83 169.79C419.17 161.18 430.1 153.47 442.57 148.17C443.37 148.77 443.6 149.59 443.58 150.54V150.58C443.54 150.86 443.47 151.1 443.39 151.33C442.94 152.56 441.84 153.29 440.74 154.04C427.73 163.02 414.58 171.85 402.78 182.44C379.25 203.56 351.25 217.17 323.11 230.78C303.11 240.47 282.61 249.28 263.57 260.9C261.74 262.02 259.87 263.1 258.25 264.52C257.88 264.89 257.52 265.25 257.26 265.66C256.92 266.18 256.74 266.78 256.83 267.53C257.05 268.99 257.26 270.46 257.54 271.9C259.26 281.05 262.41 289.64 268.61 296.92C273.78 302.97 276.94 303.16 282.69 297.57C291.09 289.43 300 281.92 308.94 274.42C311.16 272.57 313.42 270.63 316.28 269.73C317.79 269.36 319.14 268.76 319.85 267.25C326.96 258.49 336.58 252.72 345.17 245.72C359.4 234.14 372.32 221.09 386.43 209.37C392.2 204.59 396.98 198.17 405.03 196.69C405.2 196.65 405.37 196.6 405.55 196.54C405.85 196.48 406.13 196.39 406.43 196.3C411.02 194.99 415.06 192.86 418.53 189.22C422.88 184.66 429.17 182.91 434.57 179.92C439.18 177.38 443.55 174.64 447.08 170.7L447.14 170.64C447.29 170.6 447.44 170.55 447.59 170.53C449.27 170.14 450.65 170.85 451.87 172.04C447.8 179.71 439.79 182.66 433.33 187.41C423.66 194.52 413.69 200.89 402.24 205.39C395.16 208.17 389.45 214.82 383.61 220.25C367.09 235.52 349.33 249.25 332.11 263.64C316.89 276.37 301.3 288.73 286.53 302.01C284.1 304.23 285.45 306.85 285.71 309.14C287.11 321.11 289.78 332.83 293.48 344.34C297.66 357.28 301.75 370.59 301.66 384.11C301.57 396.88 309.78 403.64 316.73 411.59C338.48 436.37 360.61 460.81 382.36 485.57C389.04 493.17 395.3 501.2 401.24 509.38C407.7 518.27 409.68 528.8 410.97 539.48C413.06 556.88 414.97 574.3 417.32 591.67C419.69 609 422.66 626.27 425.07 643.61C425.82 648.97 429.44 651.84 433.21 654.46C449.14 665.53 466.78 672.98 485.47 678.04C491.18 679.59 496.3 682.07 500.33 686.65C502.91 689.56 502.94 692.03 500.5 694.85L500.58 694.88Z" fill="#383938"/>
<path d="M330.029 477.32C331.169 479.62 332.459 481.52 329.209 483.72C326.439 485.6 324.489 488.7 325.339 492.59C326.289 495.73 324.229 498.2 323.399 500.91C320.859 509.19 321.279 511.28 328.249 516.33C331.459 518.65 334.299 521.21 336.649 524.36C337.779 525.61 339.389 526.42 340.119 528.05C340.309 528.63 340.359 529.23 340.289 529.84C339.529 532.24 338.029 532.5 336.039 531.29C333.679 529.27 331.409 527.13 328.939 525.25C325.049 522.28 322.129 517.89 316.269 517.87C313.879 517.86 311.959 515.43 310.209 513.57C301.499 504.33 292.789 495.08 284.059 485.86C279.249 480.78 272.669 483.55 266.989 482.38C264.199 481.8 263.639 486.14 262.439 488.37C257.139 498.28 251.169 508.26 242.209 514.6C232.619 521.38 226.689 530.98 218.659 538.84C217.189 540.28 215.439 541.3 217.099 544.13C224.379 556.61 225.919 570.84 229.099 584.59C232.759 600.42 234.309 616.69 239.509 632.22C241.649 638.62 245.459 643.96 248.599 649.71C255.949 663.18 248.519 676.64 234.719 678.8C222.269 680.76 211.049 685.37 200.609 692.67C187.099 702.12 171.679 703.34 155.859 700.19C150.159 699.05 146.939 694.87 145.729 689.31C144.529 683.77 147.919 680.89 152.079 678.05C166.179 668.44 182.059 661.75 195.659 651.33C206.389 643.11 206.519 643.09 201.319 631.16C187.669 599.9 174.159 568.6 161.309 536.99C154.499 520.23 156.369 505.74 166.469 491.66C176.679 477.41 187.149 463.34 197.499 449.2C200.769 450.18 198.529 452.82 199.139 454.61C197.119 460.24 192.829 464.41 189.649 469.3C187.859 472.04 185.759 474.6 184.339 477.66C187.039 479.34 189.829 479.52 192.419 480.22C207.359 484.24 219.569 492.91 231.239 502.59C239.499 509.45 239.559 509.37 245.789 500.65C249.199 495.88 251.889 490.62 255.599 486.05C257.669 483.49 257.289 481.47 254.449 479.82C253.439 479.23 252.489 478.5 251.819 477.52C250.009 474.89 250.919 473.01 254.119 472.79C255.099 472.72 256.079 472.92 257.009 473.23C264.879 475.87 273.149 476.04 281.279 477.02C284.639 477.42 287.219 478.64 289.269 481.26C295.059 488.65 301.719 495.29 307.789 502.44C310.349 505.45 311.719 504.89 312.969 501.5C314.109 498.38 315.409 495.31 317.239 492.51C320.459 486.99 323.439 481.28 328.469 477.06C329.049 476.88 329.569 476.98 330.039 477.35L330.029 477.32Z" fill="#383938"/>
<path d="M132.63 261.24C134.5 257.94 136.03 255.43 130.68 253.09C124.48 250.38 121.99 243.12 124.22 236.68C125.54 232.87 125.04 229.78 123.48 226.23C117.96 213.69 121.3 206.26 134.2 201.37C138.48 199.75 140.33 196.26 141.02 191.95C143 179.56 144.71 177.82 156.6 175.31C158.62 174.89 160.89 174.46 162.05 172.31C165.78 165.36 172.21 164.38 179.1 164.74C184.77 165.04 190.25 165.1 195.78 163.07C200.23 161.43 203.99 163.09 206.81 167.27C211.06 173.57 212.24 180.64 211.79 187.83C211.6 190.81 212.41 192.54 214.03 194.51C224.93 207.73 232.62 222.7 238.04 238.88C238.4 239.96 238.36 241.17 238.5 242.33C239.11 244.18 239.93 246.86 237.79 247.37C234.32 248.19 235.1 243.79 233.23 242.35C230.31 237.71 228.68 232.46 226.35 227.54C221.99 218.34 216.52 209.85 210.57 201.62C208.66 198.97 206.45 196.95 202.89 197.1C201.23 197.17 199.97 197.64 199.07 199.23C194.364 207.563 187.1 211.137 177.28 209.95C175.52 208.05 175.15 206.17 177.33 204.31C177.83 204.02 178.35 203.61 178.9 203.62C185.72 203.72 190.48 201.61 191.6 193.84C192.02 190.91 195.25 189.58 198.42 189.38C200.53 189.24 202.69 189.5 204.66 188.5C205.91 187.42 206.28 185.98 206.37 184.43C206.37 182.11 206.91 179.72 205.34 177.64C205 177.19 204.72 176.72 204.44 176.24C200.36 168.76 200.33 168.76 192.2 170.65C187.96 171.64 183.62 171.42 179.36 171.14C174.02 170.79 169.79 172.28 166.7 176.72C165.42 177.86 163.98 178.78 162.51 179.65C162.01 179.9 161.48 180.08 160.94 180.21C160.15 180.38 159.35 180.44 158.55 180.46C156.61 180.6 154.56 180.08 152.78 181.35C152.4 181.7 152.02 182.02 151.64 182.35C149.23 184.26 148.4 187.04 147.54 189.8C146.53 191.45 145.9 193.22 145.91 195.19C145.05 199.35 144.53 203.7 140.09 205.91C137.49 206.6 134.76 206.87 132.43 208.44C128.1 211.35 125.71 215.99 128.07 220.45C131.8 227.49 132.15 234.3 129.69 241.56C131.07 248.24 132.77 249.74 137.96 248.86C139.19 247.79 140.36 246.63 142.05 246.27C142.91 246.15 143.73 246.28 144.5 246.71C144.93 247.09 145.27 247.54 145.53 248.05C146.04 249.38 146.47 250.72 145.9 252.16C142.58 255.79 139.74 259.97 134.91 261.92C134.03 262.05 133.23 261.9 132.61 261.2L132.63 261.24Z" fill="#393838"/>
<path d="M233.909 241.33C237.359 241.63 235.159 245.27 237.059 246.6C239.329 245.8 238.089 243.77 238.519 242.35C240.869 247.34 239.269 251.2 234.949 254.11C229.179 257.99 223.419 261.88 217.139 264.92C215.819 265.56 214.119 266.08 215.029 268.21C214.589 268.65 214.149 269.1 213.709 269.54C211.619 269.43 209.409 269.12 207.519 270.07C203.899 271.89 200.589 271.75 197.499 269C195.399 271.09 197.399 274.85 194.059 275.95C193.479 275.99 192.939 275.88 192.429 275.61C189.449 268.88 186.409 262.21 182.719 255.79C178.959 249.25 174.939 248.04 169.239 253.27C165.839 256.39 162.209 258.78 157.599 259.48C155.219 259.1 154.209 257.39 153.569 255.32C155.539 251.79 159.609 251.79 162.589 249.96C163.229 249.65 163.919 249.4 164.519 249.02C164.779 248.86 165.499 249.07 165.219 248.38C165.199 248.33 164.559 248.5 164.179 248.53C162.419 248.64 160.639 248.59 159.209 249.88C158.739 250.2 158.239 250.46 157.709 250.67C153.729 251.26 149.959 254.33 145.719 251.7C145.349 250.54 144.979 249.38 144.609 248.23C147.339 247.36 149.929 245.88 152.689 246.13C150.019 245.08 147.549 247.65 144.719 247.25C143.879 247.23 143.039 247.21 142.199 247.2C141.809 246.65 141.739 246.06 141.979 245.44C145.309 239.7 150.949 240.46 155.949 241.25C160.979 242.05 163.219 241.72 165.419 236.05C167.349 231.07 169.019 226.5 168.759 221.22C168.819 218.38 168.709 215.55 168.889 212.71C169.359 208.89 171.629 206.36 174.779 204.46C175.749 204.18 176.649 204.27 177.419 205.01C176.269 206.49 177.339 207.98 177.419 209.46C174.149 215.89 176.479 222.73 176.049 229.36C175.879 231.96 175.569 234.27 174.009 236.41C172.759 238.13 169.699 239.28 171.349 242.13C172.839 244.69 175.519 243.34 177.739 243.38C179.489 243.34 181.239 243.29 182.969 243.64C183.529 243.78 184.059 244.01 184.559 244.31C187.479 247.58 188.169 252.01 190.539 255.63C194.809 262.17 201.549 264.74 209.009 261.84C217.409 258.57 224.779 253.3 232.739 249.18C235.039 247.39 232.989 245.35 233.049 243.44C233.019 242.6 233.189 241.84 233.939 241.33H233.909Z" fill="#393838"/>
<path d="M454.299 139.93C456.459 137.95 459.499 136.46 461.339 138.96C463.319 141.63 463.699 145.34 461.729 148.81C458.519 154.46 456.009 160.56 450.679 164.75C448.839 166.2 451.539 166.29 451.519 167.22C449.699 169.85 446.449 167.85 444.319 169.46C439.759 172.81 434.159 174.26 429.569 177.57C428.259 178.09 426.939 178.53 425.499 178.32C424.979 178.06 424.609 177.67 424.379 177.14C424.709 171.33 428.539 167.83 432.679 164.52C434.069 163.69 435.379 162.72 436.839 162C437.359 161.82 437.889 161.73 438.439 161.72C443.139 164.82 444.989 159.11 448.519 158.39C450.939 157.89 449.009 155.82 449.129 154.47C449.189 153.93 449.379 153.45 449.719 153.03C451.789 152.4 453.169 151.08 453.749 148.96C454.029 148.52 454.409 148.18 454.869 147.93C457.459 147.23 458.879 146.08 456.609 143.48C455.649 142.42 453.409 142.19 454.279 139.94L454.299 139.93Z" fill="#3A3938"/>
<path d="M198.63 453.86C196.18 452.79 199.62 450.33 197.52 449.18C200.88 444.42 203.45 439.09 207.75 435C208.99 435.02 210.23 435.04 211.47 435.06C209.12 442.64 205.8 449.57 198.63 453.86V453.86Z" fill="#41393E"/>
<path d="M336.049 531.28C337.909 531.42 339.409 531.06 339.519 528.78C346.259 531.47 350.379 537.03 354.579 542.52C354.689 543.8 354.519 544.98 353.369 545.79C347.219 541.39 341.509 536.49 336.039 531.28H336.049Z" fill="#3F3936"/>
<path d="M454.299 139.93C454.839 141.78 457.219 141.19 458.019 142.71C457.859 143.61 457.319 144.24 456.549 144.69C453.519 145.68 451.229 147.89 448.569 149.5C446.829 150.55 445.239 152.47 442.799 151.07C442.739 150.11 442.689 149.15 442.629 148.18C446.409 145.27 450.009 142.1 454.309 139.92L454.299 139.93Z" fill="#453B38"/>
<path d="M353.381 545.79C353.441 544.43 353.501 543.08 353.561 541.72C356.321 541.18 358.331 542.72 359.121 544.88C361.711 551.92 362.591 559.17 360.441 566.56C357.951 566.17 358.221 564.26 358.211 562.51C358.191 559 358.211 555.49 358.191 551.98C358.191 550.01 358.411 547.87 355.431 547.91C354.741 547.21 354.061 546.5 353.371 545.8L353.381 545.79Z" fill="#45372F"/>
<path d="M132.63 261.24C133.41 261.25 134.18 261.27 134.96 261.28C136.11 265.89 131.51 268.02 130.5 271.7C129.17 273.51 130.01 276.21 128.04 277.76C127.33 277.37 126.63 276.97 125.92 276.58C125.57 270.33 128.83 265.67 132.62 261.24H132.63Z" fill="#413B38"/>
<path d="M444.172 168.66C445.079 167.887 447.532 167.407 451.532 167.22C452.612 168.76 452.182 170.42 451.942 172.07C450.382 172.21 448.972 171.84 447.722 170.89C446.252 170.6 445.132 169.75 444.172 168.66Z" fill="#41362D"/>
<path d="M294.711 374.3C295.011 379.35 297.141 384.06 297.281 389.2C297.391 393.31 296.071 396.13 292.981 398.77C282.861 407.39 271.041 412.77 258.801 417.45C250.261 420.71 241.491 423.19 232.651 425.47C228.221 423.74 226.491 419.56 224.421 415.89C213.821 397.11 207.291 376.93 204.081 355.63C203.171 349.62 202.511 343.61 202.921 337.52C203.291 332.06 205.031 327.84 210.911 325.91C216.141 324.19 220.701 321.04 224.511 316.96C233.711 307.56 236.771 295.7 238.161 283.12C239.031 275.22 241.981 268.61 250.191 265.72C252.431 268.21 250.761 271.36 251.601 274.09C251.841 274.61 252.131 275.09 252.481 275.55C252.361 280.89 255.111 285.54 256.101 290.61C258.311 297.28 259.011 304.36 261.591 310.93C262.631 315.77 264.671 320.06 268.491 323.36C270.011 324.68 270.741 326.46 271.251 328.35C271.321 330.78 272.231 332.96 273.771 334.73C282.651 344.85 287.711 357.04 292.621 369.31C294.701 370.39 293.841 372.7 294.711 374.29V374.3Z" fill="#73C098"/>
<path d="M226.769 432.84C236.829 428.5 247.809 427.3 258.059 423.44C272.209 418.12 286.259 412.85 297.009 401.61C300.099 398.38 302.149 400.28 304.099 402.79C313.439 414.82 323.639 426.11 333.619 437.59C339.249 444.06 345.289 450.2 350.099 457.35C343.969 462.47 335.889 464.46 329.959 469.95C327.969 471.8 325.759 473.4 324.239 475.71C323.599 476.67 322.919 477.6 322.219 478.52C320.439 480.86 318.919 483.36 317.409 485.87C314.609 490.55 312.639 491.13 307.879 488.34C302.559 485.23 298.329 480.78 295.039 475.69C291.089 469.57 286.689 467.22 278.979 468.89C271.039 470.61 262.619 470.07 254.659 467.35C249.529 465.6 245.679 466.54 241.579 470.64C234.889 477.34 226.759 482.05 216.999 483.26C212.079 483.87 207.719 482.93 203.799 479.83C200.389 477.13 198.639 473.71 200.229 469.55C205.219 456.48 211.389 444.13 222.699 435.16C223.949 434.17 225.379 433.58 226.749 432.82L226.769 432.84Z" fill="#C881A9"/>
<path d="M407.411 539.81C407.151 551.08 410.301 562.09 409.951 573.36C412.081 576.67 410.431 580.44 411.241 583.91C411.461 584.47 411.761 584.98 412.151 585.43C412.991 605.19 417.131 624.49 420.231 643.94C415.081 647.4 412.361 647.34 408.671 642.84C390.791 621.04 378.801 596.52 376.851 568.1C375.801 552.77 369.641 541.42 356.701 533.23C345.281 526.01 339.401 515.02 337.281 501.87C336.931 499.69 337.111 497.57 337.881 495.53C341.611 485.64 348.051 478.07 357.451 473.14C359.521 472.06 361.691 470.93 364.041 472.59C369.851 479.31 375.681 486.01 381.461 492.76C385.081 496.99 388.641 501.27 392.231 505.53C394.381 506.39 394.661 508.64 395.771 510.27C398.091 513.76 400.251 517.37 402.801 520.69C404.701 523.16 405.521 525.74 405.291 528.76C407.181 531.42 405.911 534.53 406.521 537.37C406.781 538.2 407.041 539.03 407.421 539.82L407.411 539.81Z" fill="#D1936E"/>
<path d="M442.791 151.08C445.761 149.28 449.101 147.88 451.571 145.55C453.321 143.9 454.881 143.99 456.761 144.02C457.651 146.4 456.111 147.51 454.391 148.53L454.421 148.5C453.491 150.71 451.801 152.17 449.731 153.25H449.751C447.061 157.89 442.821 160.61 438.051 162.69C437.711 162.69 437.361 162.7 437.021 162.75C435.781 163.53 434.151 163.77 433.451 165.31C429.611 168.87 425.651 172.34 424.881 177.97C419.421 185.25 410.711 187.65 403.451 192.25C390.351 198.88 380.041 209.16 369.431 218.91C354.011 233.07 336.951 245.2 321.001 258.68C311.451 266.74 301.781 274.68 290.891 280.97C288.521 282.34 286.131 283.67 283.671 284.87C273.461 289.85 265.421 287.45 260.261 277.27C258.141 273.09 255.131 268.8 257.051 263.54C272.011 253.7 288.311 246.4 304.191 238.27C324.001 228.13 344.831 220.06 363.781 208.05C371.891 202.91 380.601 198.3 388.491 192.87C395.411 188.1 401.521 181.85 408.051 176.31C419.011 167.02 430.951 159.15 442.781 151.09L442.791 151.08Z" fill="#D1936E"/>
<path d="M129.43 270.73C131.28 267.58 133.12 264.43 134.97 261.28C139.14 258.76 141.21 253.87 145.71 251.71C150.22 252.17 154.13 249.02 158.65 249.54C160.79 248.46 162.96 247.28 163.57 251.08C160.34 252.52 157.1 253.96 153.87 255.4C153.89 257.67 152.28 258.25 150.5 258.7C148.77 259.13 147.12 259.67 146.82 262.28C150.64 262.57 154.44 261.97 158.21 262.3C159.99 262.64 161.68 263.07 161.51 265.45C159.64 268.3 156.47 267.63 153.79 268.28C151.01 268.96 148.21 269.59 145.78 271.21C143.91 273.01 144.84 273.62 146.88 273.75C151.79 274.1 156.78 272.98 161.6 274.65C163.06 275.72 162.36 276.8 161.61 277.88C159.69 279.4 157.3 279.94 155.13 280.95C150.02 281.47 145.48 283.62 141.02 285.96C139 286.95 138.81 289 138.22 290.81C134.98 302.99 136.15 315.61 134.49 327.95C134.21 330.06 134.54 332.24 133.78 334.3C131.01 336.99 132.17 340.45 131.99 343.66C131.85 346.97 131.26 350.14 129.19 352.86C127.67 354.96 123.64 356.03 126.35 359.86C127.86 364.27 124.18 367.7 123.82 372C126.35 371.22 126.54 368.62 128.23 367.46C129.92 366.15 131.34 364.63 132.17 362.62C136.06 355.76 138 348.14 140.78 340.84C142.96 336.71 145.94 333.32 149.92 330.84C152.81 328.64 155.81 326.58 158.96 324.78C160.49 323.9 162.05 322.19 164.07 323.97C167.21 331.99 167.31 340.02 163.47 347.78C153.92 367.06 137.96 380.19 120.32 391.42C112.36 396.48 105.67 391.57 104.13 381.77C101.18 363.06 106.69 345.86 111.98 328.48C116.01 315.22 121.67 302.54 125.65 289.27C126.05 287.94 126.4 286.67 126.36 285.29C126.22 283.35 126.72 281.6 127.98 280.09C128.15 279.75 128.2 279.4 128.15 279.03C129.67 276.44 127.64 273.3 129.43 270.75V270.73Z" fill="#D1926D"/>
<path d="M364.029 472.59C352.999 473.63 339.789 488.34 338.759 498.28C337.889 506.74 341.739 514.52 346.669 521.54C349.969 526.24 354.029 529.95 358.939 532.98C371.719 540.88 377.659 552.55 378.289 567.55C379.009 584.53 384.469 600.31 392.319 615.29C396.749 623.74 401.639 631.83 407.639 639.39C411.379 644.1 414.649 646.18 420.239 643.95C421.289 645.55 422.219 646.84 419.289 647.73C415.609 648.84 413.929 651.27 415.389 655.37C416.149 657.51 415.229 659.93 413.619 661.14C411.699 662.58 409.459 661.22 407.749 659.88C404.259 657.16 400.729 655.56 396.269 658.88C392.279 642.05 387.239 625.84 380.769 610.08C377.639 602.46 373.059 595.69 368.929 588.68C364.819 581.7 361.879 574.47 360.449 566.56C360.379 560.75 359.179 555.04 359.309 549.18C359.389 545.65 356.699 543.29 353.569 541.72C348.889 537.41 344.209 533.09 339.529 528.78C339.499 528.44 339.459 528.1 339.429 527.77C338.639 526.4 337.749 525.19 335.899 525.43C332.839 520.33 327.379 517.77 323.299 513.72C319.919 510.37 319.659 507.25 321.079 503.39C322.419 499.76 323.929 496.19 325.359 492.59C332.039 483.73 339.099 475.22 348.929 469.65C355.409 465.98 359.429 466.93 364.049 472.58L364.029 472.59Z" fill="#B06E46"/>
<path d="M226.771 432.84C216.921 441.9 208.581 452.06 203.661 464.7C202.141 468.6 199.011 472.6 202.511 476.69C206.111 480.91 210.931 482.81 216.651 481.92C226.891 480.33 235.401 475.42 242.241 467.89C245.221 464.62 247.961 463.92 252.011 465.16C262.811 468.48 273.781 469.32 284.821 466.37C289.201 465.2 291.281 468.23 293.361 471C298.031 477.24 302.541 483.59 309.491 487.65C312.411 489.36 314.371 489.28 315.901 485.82C317.301 482.65 318.881 479.47 321.801 477.28C322.981 477.05 324.111 476.19 325.381 477C325.741 477.39 325.961 477.85 326.051 478.37C324.371 483.59 319.321 486.97 318.291 492.54C316.711 496.29 314.801 499.94 313.631 503.81C312.021 509.15 310.041 507.53 307.531 504.62C302.311 498.58 296.231 493.1 292.001 486.45C287.321 479.09 280.671 477.81 273.281 477.48C267.381 477.22 261.701 476.31 256.161 474.32C254.741 473.81 252.921 472.97 252.021 474.78C251.241 476.34 252.981 477.11 254.021 477.89C260.141 482.45 260.301 482.55 255.761 488.4C251.101 494.4 247.541 501.12 242.691 507.04C239.561 510.86 238.001 510.26 234.951 507.49C230.491 503.45 225.681 499.77 220.891 496.11C209.281 487.24 196.241 481.55 181.121 479.25C187.181 470.45 192.911 462.15 198.631 453.84C203.981 448.3 207.151 441.28 211.471 435.04C216.571 434.3 221.671 433.56 226.771 432.82V432.84Z" fill="#93667F"/>
<path d="M225.569 317.66C221.679 323.23 215.769 325.85 209.759 328.12C207.069 329.14 205.809 330.52 205.179 333.37C202.929 343.58 204.869 353.62 206.949 363.4C211.679 385.6 218.729 407 232.639 425.48C227.359 426.76 221.989 427.76 216.819 429.4C212.989 430.62 212.259 428.85 211.399 425.78C205.589 405 196.369 385.68 185.249 367.28C183.129 363.78 181.599 360.52 182.069 356.45C180.589 351.45 182.729 345.94 179.899 341.13C178.099 333.23 177.279 324.95 170.729 319C166.709 315.35 171.549 313.91 172.689 311.55C173.489 310.17 174.959 309.94 176.289 309.47C179.449 308.02 182.079 305.47 185.669 304.91C188.549 305.88 186.289 309.15 188.189 310.56C194.389 324.36 204.959 327.49 217.669 319.31C218.639 318.68 219.679 318.16 220.689 317.59C222.319 316.74 223.949 316.13 225.549 317.65L225.569 317.66Z" fill="#5D8E75"/>
<path d="M126.898 284.8C125.888 295.23 121.558 304.67 117.948 314.31C111.858 330.56 106.408 347.04 104.878 364.39C104.268 371.27 105.298 378.39 106.358 385.28C107.268 391.22 113.818 393.97 119.008 390.54C135.838 379.4 151.368 366.93 161.358 348.73C165.878 340.5 164.788 332.23 163.248 323.74C164.258 321.3 165.858 320.93 167.988 322.39C173.838 329.19 173.758 337.77 175.068 345.94C176.638 355.7 174.128 362.69 165.618 369.45C150.878 381.16 136.208 392.79 119.878 402.19C115.168 403.59 110.468 405.97 105.748 402.22C95.7783 391.41 96.8983 379.06 100.308 366.12C106.608 342.22 113.308 318.46 122.668 295.52C124.048 292.15 124.808 288.52 125.848 285.01C126.068 284.33 126.418 284.22 126.898 284.79V284.8Z" fill="#B06E47"/>
<path d="M257.062 263.53C257.482 269.14 259.712 274.2 262.692 278.74C267.962 286.79 274.062 288.02 282.842 283.75C298.812 275.99 311.842 264.1 325.612 253.27C337.252 244.12 348.662 234.69 359.992 225.17C368.642 217.9 377.122 210.42 385.462 202.79C390.712 197.99 396.902 194.69 402.822 190.95C403.852 191.92 402.762 193.98 405.132 194.51C406.812 194.89 407.142 196.64 405.192 197.8C394.332 201.98 387.042 210.9 378.642 218.22C362.552 232.22 347.242 247.11 329.602 259.29C326.192 261.65 324.092 265.7 320.562 268.15C319.752 269.53 318.192 269.81 316.962 270.58C305.952 277.66 296.552 286.69 287.092 295.61C275.832 306.24 271.292 305.71 263.282 292.13C258.782 284.5 256.682 276.02 255.192 267.38C254.892 265.63 255.442 264.33 257.052 263.53H257.062Z" fill="#B06E46"/>
<path d="M193.962 275.43C196.392 272.98 194.342 269.79 195.312 267.09C195.672 267.01 196.122 266.77 196.342 266.9C200.002 269.06 203.502 270.95 208.012 268.6C209.522 267.82 212.152 267.22 213.712 269.53C213.592 274.75 217.632 277.81 222.672 276.17C224.652 275.53 226.512 274.51 228.842 273.48C229.892 288.27 227.552 301.56 216.992 312.02C209.162 319.77 203.752 319.66 194.082 312.84C193.572 312.51 193.202 312.07 192.952 311.52C192.292 307.78 189.892 304.68 189.312 300.94C189.072 300.42 183.312 288.18 183.592 284.89C184.032 282.15 186.512 281.19 188.212 279.55C189.952 277.92 191.702 276.31 193.972 275.43H193.962Z" fill="#B06E46"/>
<path d="M420.191 688.54C415.711 688.59 411.231 688.74 406.751 688.65C399.101 688.51 396.801 686.25 397.411 678.76C397.741 674.71 398.481 670.79 397.061 666.77C396.481 665.13 396.841 663.1 398.451 662.01C400.391 660.7 402.411 661.22 404.421 662.31C414.151 667.57 418.261 665.42 419.251 654.6C419.371 653.26 419.041 651.67 420.811 651.26C422.461 650.88 424.131 650.43 425.591 652.17C427.701 654.68 430.091 656.95 432.361 659.33C430.921 664.7 425.481 667.99 424.881 673.8C423.251 678.1 423.141 682.59 423.201 687.1C422.571 688.35 421.101 687.85 420.191 688.53V688.54Z" fill="#FEFEFE"/>
<path d="M458.048 673.52C467.428 677.34 477.018 680.48 486.798 683.13C489.918 683.97 492.868 685.47 495.468 687.51C495.178 692.23 491.018 692.85 487.908 694.44C485.848 695.49 483.508 696.02 481.128 696.05C478.878 696.12 476.628 696.09 474.388 696.13C465.958 695.41 457.628 694.21 449.828 690.64C448.218 684.78 452.008 676.87 458.048 673.51V673.52Z" fill="#FEFEFE"/>
<path d="M260.848 311.8C257.138 305.22 255.858 298.09 256.088 290.63C258.938 294.96 261.448 299.48 265.358 303.08C268.748 306.2 272.058 308.99 277.038 308.32C279.928 307.93 280.538 309.43 280.778 312.01C281.338 317.9 282.038 323.8 284.008 329.44C285.838 331.06 283.898 333.58 285.398 335.28C284.868 337.14 286.848 338.84 285.448 341.5C281.468 336.07 277.638 330.96 272.678 326.93C267.288 323.02 263.488 317.86 260.858 311.8H260.848Z" fill="#5D8E74"/>
<path d="M405.201 197.81C405.871 196.59 405.811 195.58 404.291 195.14C401.821 194.42 402.521 192.63 402.821 190.96C410.511 187.2 417.681 182.56 424.881 177.97L425.401 177.79C427.061 179.35 427.581 176.93 428.771 176.83C433.311 172.99 438.931 171.2 444.171 168.66C445.891 168.55 447.491 168.64 447.721 170.89C444.581 178.31 436.861 179.85 430.961 183.57C425.961 186.73 420.391 188.63 416.291 193.53C413.881 196.41 409.391 197.61 405.191 197.81H405.201Z" fill="#B06E47"/>
<path d="M225.571 317.66C223.951 317.64 222.331 317.62 220.711 317.6C230.951 307.5 234.121 294.6 234.811 280.9C235.351 270.1 237.511 267.02 248.191 264.12C249.121 263.87 250.111 263.84 251.081 263.71C251.521 263.94 251.721 264.31 251.701 264.81C251.421 265.49 250.941 265.95 250.211 266.11C240.461 271.73 239.741 281.53 238.451 291.17C237.081 301.36 233.251 310.48 225.581 317.67L225.571 317.66Z" fill="#5C8E76"/>
<path d="M323.09 474.99C330.2 466.21 339.74 461.16 350.1 457.36C350.85 457.96 351.64 458.52 352.34 459.19C352.89 459.72 353.31 460.37 354.04 461.28C343.41 463 336.39 469.67 330.04 477.32C329.71 477.36 329.38 477.39 329.04 477.4C327.79 478.11 326.55 478.33 325.34 477.32C324.6 476.53 323.74 475.86 323.09 474.99Z" fill="#956580"/>
<path d="M458.052 673.52C454.162 678.35 450.662 683.38 449.772 689.74C449.572 689.94 449.372 690.15 449.172 690.35C448.372 690.74 447.532 690.81 446.662 690.7C444.642 689.93 441.822 690.47 441.172 687.41C442.402 683.3 443.712 679.21 446.012 675.56C447.422 673.32 448.632 670.61 452.092 671.02C454.412 671.05 456.182 672.39 458.042 673.51L458.052 673.52Z" fill="#77C09C"/>
<path d="M449.778 689.74C457.888 692.02 466.088 693.9 474.498 694.72C476.818 695.36 479.138 695.34 481.468 694.72C486.878 693.74 491.768 691.77 495.478 687.49C496.708 687.88 497.518 688.69 497.888 689.92C496.958 691.2 496.008 692.45 494.578 693.24C492.378 694.83 490.128 696.33 487.428 696.96C485.128 698.33 482.428 697.9 479.978 698.61C477.978 699.2 475.948 699.29 473.888 699.02C472.728 698.83 471.758 698.14 470.638 697.83C468.738 697.2 466.788 696.87 464.788 696.82C463.288 696.9 461.858 696.53 460.438 696.12C456.688 695.14 452.488 695.64 449.288 692.79C448.988 691.83 449.068 690.94 449.808 690.19L449.778 689.71V689.74Z" fill="#3B3E3A"/>
<path d="M423.81 673C424.62 667.17 428.48 663.25 432.35 659.34C434.15 660.09 435.94 660.86 436.87 662.77C435.66 668.63 431.48 672.81 428.49 677.67C423.78 678.66 423.33 678.21 423.81 673Z" fill="#79BF9B"/>
<path d="M428.311 676.9C429.801 671.36 433.671 667.27 436.871 662.77C438.031 663.24 439.191 663.71 440.351 664.19C442.131 667.49 438.781 668.62 437.621 670.69C435.231 673.08 434.761 676.24 434.181 679.36C433.891 680.31 433.821 681.28 433.731 682.25C433.421 685.58 432.101 688.18 428.261 687.29C424.021 686.31 425.261 683.01 425.971 680.2C426.311 678.85 427.301 677.84 428.311 676.91V676.9Z" fill="#F4FAF7"/>
<path d="M452.099 671.03C447.429 673.6 446.049 678.39 444.219 682.85C443.499 684.6 443.669 686.78 441.519 687.72C440.589 688.55 439.549 688.48 438.459 688.13C437.969 687.85 437.609 687.45 437.399 686.93C437.269 686.39 437.239 685.84 437.299 685.28C438.359 680.99 439.849 676.86 442.039 673C443.669 671.25 444.229 668.18 447.559 668.55C449.379 668.82 450.959 669.53 452.109 671.04L452.099 671.03Z" fill="#F5FAF8"/>
<path d="M167.988 322.38C167.468 322.32 166.958 322.32 166.458 322.34C165.378 322.43 164.388 322.79 163.488 323.55C163.398 323.61 163.338 323.68 163.248 323.74C159.008 326.43 154.768 329.12 150.518 331.81C149.718 331.94 149.208 331.81 148.988 331.42C148.988 331.42 148.968 331.42 148.988 331.4C148.818 331.1 148.818 330.65 149.008 330.04C153.788 324.81 159.948 321.21 165.248 316.63C165.378 316.54 165.488 316.46 165.588 316.35C166.388 318.35 167.178 320.38 167.978 322.38H167.988Z" fill="#3A3B39"/>
<path d="M260.852 311.8C264.792 316.84 268.732 321.89 272.672 326.93C272.192 327.41 271.722 327.89 271.242 328.36C266.932 323.37 261.032 319.38 260.852 311.8Z" fill="#2F4636"/>
<path d="M449.66 692.46C453.29 693.5 456.92 694.55 460.55 695.59C460.37 696.28 459.67 696.36 459.2 696.71C453.57 696.68 448.27 694.71 442.75 694C441.81 692.98 441.75 691.9 442.54 690.76C443.32 690.22 444.17 690.1 445.09 690.26C446.51 691.2 448.67 690.61 449.65 692.46H449.66Z" fill="#7FB097"/>
<path d="M447.55 668.54C445.97 670.21 444.39 671.88 442.8 673.54C440.95 671.99 438.46 671.48 436.68 669.8C437.45 667.63 440.43 666.9 440.35 664.17C442.75 665.62 445.15 667.08 447.55 668.53V668.54Z" fill="#7EBC9E"/>
<path d="M442.749 691.15C442.749 692.1 442.749 693.05 442.759 694C438.169 692.44 433.109 694.44 428.629 692.13C429.909 688.01 433.759 690.23 436.229 689.02C436.829 688.89 437.429 688.85 438.039 688.87C439.839 689.14 441.629 689.46 442.749 691.14V691.15Z" fill="#72B693"/>
<path d="M438.031 689.85C437.601 689.96 437.181 690.06 436.751 690.17C432.501 689.72 428.131 692.11 423.951 689.67C422.961 688.41 421.511 688.71 420.191 688.54C420.641 687.47 421.691 687.51 422.581 687.27C427.771 687.01 432.951 685.38 438.141 687.27L438.031 687.52C438.721 688.3 438.771 689.08 438.021 689.85H438.031Z" fill="#2E473B"/>
<path d="M105.75 402.22C110.46 403.67 115.17 401.69 119.88 402.19C112.86 406.96 111 406.96 105.75 402.22Z" fill="#AF6C46"/>
<path d="M412.211 692.18C415.471 690.93 418.891 690.92 422.311 690.87C423.821 690.72 425.721 689.3 426.341 692.09C423.481 693.95 420.241 693.2 417.151 693.45C415.161 694.35 413.141 695.41 412.211 692.18V692.18Z" fill="#72B693"/>
<path d="M179.908 341.14C183.298 341.99 181.918 344.76 182.038 346.78C182.228 349.99 182.078 353.23 182.068 356.45C180.108 351.52 180.748 346.22 179.898 341.13L179.908 341.14Z" fill="#6B857A"/>
<path d="M412.211 692.18C413.521 693.92 415.471 693.13 417.151 693.45C417.011 693.73 416.931 694.02 416.891 694.33C414.631 695.69 412.281 695.19 409.931 694.67C408.211 694.06 406.231 694.06 404.441 692.18H412.211Z" fill="#81A595"/>
<path d="M473.299 698.02C475.639 698.07 477.979 698.12 480.319 698.18C480.709 698.39 480.849 698.61 480.729 698.83C480.609 699.06 480.479 699.17 480.349 699.17C477.179 700.39 473.999 701.22 470.709 699.59C470.559 697.39 471.639 697.23 473.299 698.02V698.02Z" fill="#71B494"/>
<path d="M426.331 692.08C425.281 690.72 423.711 691.07 422.301 690.86C422.851 690.46 423.391 690.06 423.941 689.66C428.211 689.83 432.471 689.99 436.741 690.16C434.371 692.21 430.891 689.65 428.621 692.12C427.861 692.11 427.091 692.09 426.331 692.08Z" fill="#91B0A0"/>
<path d="M487.36 695.84C490.21 695.67 492.04 693.45 494.43 692.34C495.12 693.09 495.08 693.84 494.43 694.6C492.37 696.36 490.16 697.81 487.37 698.11C486.63 697.36 486.71 696.6 487.36 695.84Z" fill="#76B399"/>
<path d="M487.36 695.84C487.36 696.6 487.36 697.35 487.37 698.11C485.26 700.01 482.72 699.04 480.35 699.17C480.33 698.84 480.32 698.51 480.32 698.18C482.67 697.4 485.01 696.62 487.36 695.84V695.84Z" fill="#89A697"/>
<path d="M251.05 265.03C251.06 264.59 251.07 264.15 251.08 263.7C254.17 267.34 251.87 271.62 252.47 275.56C252.16 275.47 251.84 275.4 251.52 275.35C250.09 271.97 250.94 268.48 251.05 265.03V265.03Z" fill="#254536"/>
<path d="M473.3 698.02C472.16 698.08 471.2 698.45 470.71 699.59C469.22 699.04 467.38 699.64 466.17 698.2C465.73 697.62 465.77 697.07 466.29 696.56C467.83 696.23 469.37 696.05 470.88 696.72C471.69 697.15 472.49 697.59 473.3 698.02Z" fill="#88AA98"/>
<path d="M411.299 585.21C408.289 581.55 410.519 577.3 409.949 573.36C410.239 573.49 410.539 573.59 410.859 573.65C412.319 577.45 411.529 581.34 411.299 585.2V585.21Z" fill="#C09881"/>
<path d="M411.299 585.21C411.149 581.36 411.009 577.51 410.859 573.66C413.629 577.33 411.649 581.52 412.149 585.44C411.869 585.34 411.589 585.27 411.299 585.22V585.21Z" fill="#54331F"/>
<path d="M407.409 539.81C407.049 539.32 406.689 538.83 406.339 538.34C405.389 535.25 405.589 532.15 406.199 529.04C408.809 532.38 407.029 536.22 407.409 539.81Z" fill="#533526"/>
<path d="M466.241 696.97C466.221 697.38 466.191 697.79 466.171 698.2C463.731 698.29 461.451 697.57 459.211 696.71C459.661 696.34 460.111 695.97 460.561 695.59C462.041 695.63 463.511 695.67 464.991 695.72C465.431 696.11 466.171 696.21 466.251 696.97H466.241Z" fill="#7AB694"/>
<path d="M395.759 510.26C393.609 509.41 393.149 507.28 392.219 505.52C396.059 505.11 395.859 507.72 395.759 510.26Z" fill="#4B3528"/>
<path d="M406.202 529.04C406.252 532.14 406.292 535.24 406.342 538.34C404.052 535.36 405.602 531.95 405.282 528.75C405.582 528.85 405.892 528.95 406.202 529.04V529.04Z" fill="#B29586"/>
<path d="M129.429 270.73C129.009 273.49 130.049 276.48 128.149 279.01C128.119 278.59 128.089 278.18 128.049 277.76C128.609 275.44 126.959 272.68 129.429 270.73Z" fill="#51321B"/>
<path d="M126.9 284.8C126.55 284.85 126.2 284.92 125.85 285.02C125.97 283.13 124.8 280.67 127.96 280.08C127.6 281.66 127.25 283.23 126.89 284.81L126.9 284.8Z" fill="#413B38"/>
<path d="M494.441 694.6C494.441 693.85 494.441 693.1 494.441 692.34C495.591 691.54 496.741 690.74 497.891 689.94C498.021 692.44 496.151 693.45 494.451 694.6H494.441Z" fill="#8BB6A4"/>
<path d="M188.2 310.56C185.93 309.31 187.23 306.48 185.68 304.91C189.78 305.34 187.21 308.74 188.2 310.56Z" fill="#6D897A"/>
<path d="M409.922 694.66C412.242 694.55 414.562 694.43 416.882 694.32C414.662 696.48 412.322 696.15 409.922 694.66Z" fill="#204235"/>
<path d="M316.969 270.58C317.769 269.18 318.969 268.37 320.569 268.15C320.589 270.77 318.809 270.72 316.969 270.58Z" fill="#51372B"/>
<path d="M176.311 309.48C175.111 310.18 173.911 310.87 172.711 311.57C172.931 309.18 173.981 308.23 176.311 309.48Z" fill="#3A3B39"/>
<path d="M285.402 335.27C283.602 333.64 284.482 331.38 284.012 329.43C286.372 330.93 285.062 333.29 285.402 335.27Z" fill="#264234"/>
<path d="M294.711 374.3C294.011 372.64 293.321 370.98 292.621 369.32C295.801 369.94 294.551 372.42 294.711 374.3Z" fill="#284231"/>
<path d="M209.162 636.9C201.332 619.2 193.362 601.55 185.712 583.77C178.272 566.45 171.562 548.8 163.782 531.64C158.512 520.02 161.022 509.61 166.692 499.46C168.992 495.34 171.012 490.8 174.942 487.74C182.122 486.46 186.972 490.41 190.732 495.55C194.992 501.37 198.392 507.78 201.222 514.48C203.922 520.88 203.762 527.25 200.372 533.11C197.122 538.73 197.822 543.8 200.412 549.23C209.022 567.28 215.582 586.05 220.222 605.51C221.862 612.41 222.682 619.33 222.432 626.41C222.132 634.72 220.972 635.97 212.562 636.38C211.412 636.44 210.212 636.15 209.162 636.89V636.9Z" fill="#D1936E"/>
<path d="M209.16 636.9C210.46 635.23 212.46 635.65 214.07 635.63C219.89 635.57 220.68 632.04 220.93 627.26C221.7 612.29 217.05 598.38 212.65 584.49C208.65 571.87 203.92 559.48 197.98 547.58C195.63 542.88 195.31 538.18 198.59 533.23C203.38 526 201.94 518.34 198.21 511.09C195.63 506.07 192.8 501.14 189.73 496.4C186.32 491.12 180.67 489.25 174.93 487.73C176.08 484.49 178.39 483.95 181.46 484.71C198.62 488.93 213.68 497.03 226.79 508.86C227.9 509.86 229.38 510.45 230.58 511.37C232.29 512.68 233.48 514.91 232 516.43C225.28 523.3 221.14 532.24 213.87 538.61C213.19 539.2 212.41 539.22 211.6 539.04C210.98 539.02 210.37 538.06 209.83 538.82C209.62 539.12 210.36 539.7 210.74 540.12C212.09 541.15 211.95 542.87 212.65 544.2C215.47 551.46 219.17 558.45 219.72 566.43C221.72 568.44 220.03 571.46 221.69 573.57C221.82 575.1 221.95 576.64 222.08 578.17C224.05 580.18 222.38 583.2 224.05 585.3C225.48 594.36 228.65 603.1 229.09 612.34C230.43 614.1 228.77 616.46 230.27 618.19C231.83 623.13 233.3 628.1 234.98 633C235.61 634.84 235.13 635.87 233.56 636.8C232.57 637.39 231.74 638.26 230.87 639.04C224.21 644.99 224.05 645.16 217.88 639.17C215.18 636.55 212.18 637.21 209.17 636.9H209.16Z" fill="#B06E46"/>
<path d="M175.862 693.2C171.572 693.25 167.252 692.97 163.012 693.42C157.802 693.96 154.252 690.81 150.622 688.24C147.232 685.84 150.682 684.13 152.332 683.1C162.192 676.97 172.182 671.05 182.122 665.06C185.112 663.86 187.512 665.28 189.422 667.21C193.992 671.84 197.462 677.09 197.122 684.02C191.482 690.42 184.152 692.92 175.862 693.21V693.2Z" fill="#FEFEFF"/>
<path d="M205.672 648.68C206.762 645.54 210.842 644.91 211.612 641.18C211.952 639.53 214.052 640.92 214.892 641.84C223.732 651.49 227.472 650.51 235.992 639.84C236.232 639.54 236.532 639.3 237.022 638.82C239.182 643.19 241.302 647.48 243.932 651.53C246.912 656.12 245.102 659.96 241.172 663.09C239.372 664.53 237.542 665.92 235.722 667.33C231.272 671.65 225.632 671.6 220.012 671.59C218.012 670.25 217.562 668.05 217.302 665.96C216.612 660.42 213.862 656.07 209.952 652.32C208.782 650.81 206.792 650.26 205.682 648.68H205.672Z" fill="#FEFEFE"/>
<path d="M196.451 684.11C194.291 675.79 191.811 667.71 182.121 665.06C184.541 663.61 186.951 662.16 189.371 660.71C195.481 661.04 197.801 665.76 200.121 670.27C201.541 673.03 202.431 676.05 203.611 678.95C203.441 682 200.791 682.89 198.861 684.41C198.011 684.7 197.201 684.69 196.461 684.11H196.451Z" fill="#79C09D"/>
<path d="M194.99 657.96C196.17 656.04 197.86 654.68 199.8 653.61C208.25 656.84 211.63 663.78 213.24 672.01C213.24 672.6 213.11 673.15 212.86 673.68C210.91 675.15 209.55 677.88 206.37 676.82C203.91 670.87 201.61 664.83 195.93 660.96C195.02 660.34 194.21 659.3 194.99 657.96V657.96Z" fill="#79BF9B"/>
<path d="M194.991 657.96C198.451 661.69 203.101 664.36 204.981 669.49C205.841 671.82 207.211 674 206.691 676.65C206.421 678.63 205.391 679.69 203.291 679.47C201.181 678.88 201.191 677 200.671 675.37C198.691 669.12 195.341 663.9 189.371 660.73C191.121 659.55 192.761 658.16 194.991 657.98V657.96Z" fill="#FBFDFB"/>
<path d="M212.819 672.56C210.349 664.96 206.209 658.5 199.809 653.6C200.919 652.7 202.029 651.81 203.139 650.91C205.519 650.3 207.209 651.64 208.919 652.95C213.839 658.41 217.279 664.39 215.419 672.15C214.639 672.85 213.779 672.98 212.829 672.56H212.819Z" fill="#F9FCFA"/>
<path d="M229.052 675.48C219.112 677.28 209.792 680.49 201.712 686.86C199.852 688.33 197.922 690.31 195.052 689.81C194.362 687.22 196.332 686.34 197.962 685.23C203.812 681.55 208.612 676.31 215.162 673.65C216.842 673.13 218.542 672.72 220.252 672.34C222.122 672.17 223.972 671.7 225.872 671.94C227.632 672.49 230.152 672.37 229.052 675.48Z" fill="#7EB69A"/>
<path d="M219.738 673.65C218.508 675.06 216.808 674.42 215.308 674.68C214.038 675.14 212.758 675.61 212.648 673.49C212.798 673.2 212.848 672.89 212.808 672.57C213.508 672.41 214.208 672.25 214.908 672.09C216.168 670.27 217.708 669.55 219.758 670.87C225.078 669.7 230.388 668.52 235.708 667.35C236.308 667.45 236.908 667.54 237.518 667.64C237.578 672.58 233.388 672.17 230.418 673.03C229.058 673.43 227.448 672.68 225.928 672.79C223.878 673.18 221.598 671.91 219.738 673.65V673.65Z" fill="#3B3F39"/>
<path d="M198.539 686.22C197.289 687.33 195.489 687.9 195.049 689.81C194.629 689.81 194.219 689.83 193.799 689.84C190.629 692.51 186.859 693.76 182.869 694.49C180.959 694.58 178.999 694.93 177.429 693.38C176.909 693.32 176.389 693.26 175.859 693.2C183.089 691 190.269 688.68 196.449 684.11C197.109 683.97 197.779 683.82 198.439 683.68C199.259 684.5 199.169 685.35 198.539 686.22Z" fill="#3C3C3A"/>
<path d="M225.92 672.35C230.4 672.27 234.65 671.65 237.52 667.63C239.04 667.29 240.55 666.94 242.06 666.6C242.62 666.81 243.26 666.9 243.4 667.65C240.06 672.91 234.4 673.93 229.04 675.49C228.8 673.17 227.01 673.45 225.45 673.36C225.1 672.79 225.26 672.46 225.92 672.36V672.35Z" fill="#79B598"/>
<path d="M183.381 693.39C186.851 692.2 190.331 691.02 193.801 689.83C190.921 694.63 180.711 697.79 177.551 694.85C179.091 692.75 181.691 694.91 183.371 693.39H183.381Z" fill="#80B098"/>
<path d="M325.338 477.32C326.568 477.35 327.808 477.37 329.038 477.4C325.458 482.45 321.868 487.5 318.278 492.55C317.738 486.13 324.118 482.92 325.338 477.32V477.32Z" fill="#8F677C"/>
<path d="M161.902 697.04C158.332 697.04 154.862 696.7 151.922 694.14C156.172 694.14 160.092 696.41 164.362 695.91C164.412 698.17 163.012 697.28 161.902 697.04Z" fill="#83AF9C"/>
<path d="M211.71 538.21C212.43 538.34 213.16 538.48 213.88 538.61C215.74 540.97 214.61 542.68 212.65 544.2C211.85 543.07 211.04 541.95 210.24 540.82C209.5 539.26 209.55 538.15 211.7 538.21H211.71Z" fill="#3E3B39"/>
<path d="M207.869 653.59C206.289 652.7 204.709 651.8 203.129 650.91C203.979 650.17 204.819 649.42 205.669 648.68C207.759 648.48 209.479 649.11 210.629 650.96C210.079 652.22 209.189 653.13 207.869 653.6V653.59Z" fill="#81BEA0"/>
<path d="M161.898 697.04C162.718 696.66 163.538 696.29 164.358 695.91C166.348 695.89 168.338 695.87 170.328 695.84C170.528 698.75 167.648 696.58 166.898 697.92C165.168 697.98 163.398 698.28 161.908 697.04H161.898Z" fill="#679A85"/>
<path d="M166.891 697.92C168.031 697.23 169.181 696.53 170.321 695.84C171.061 695.84 172.011 695.53 172.271 696.53C172.521 697.49 171.761 697.9 170.951 697.93C169.601 697.99 168.241 697.93 166.891 697.92Z" fill="#6EA38A"/>
<path d="M224.052 585.3C220.292 583.78 222.722 580.55 222.082 578.17C222.402 578.24 222.732 578.3 223.062 578.33C224.672 580.07 222.942 582.51 224.312 584.3C224.282 584.65 224.192 584.98 224.042 585.3H224.052Z" fill="#9E735D"/>
<path d="M221.689 573.57C218.009 572.03 220.289 568.84 219.719 566.44C220.049 566.52 220.379 566.57 220.719 566.6C222.319 568.33 220.599 570.76 221.959 572.55C221.919 572.91 221.839 573.25 221.689 573.57Z" fill="#9C7558"/>
<path d="M335.891 525.43C339.141 523.08 339.371 525.29 339.421 527.77C338.241 526.99 337.071 526.21 335.891 525.43Z" fill="#966D5A"/>
<path d="M243.41 667.64C242.96 667.29 242.51 666.94 242.07 666.59C243.01 665.8 243.96 665.02 245.01 664.14C245.8 666.26 244.32 666.8 243.41 667.64Z" fill="#8CB4A2"/>
<path d="M183.38 693.39C181.79 695.27 179.47 694.25 177.56 694.85C177.52 694.36 177.47 693.87 177.43 693.38C179.41 693.38 181.4 693.38 183.38 693.39Z" fill="#174837"/>
<path d="M230.27 618.19C228.27 616.56 229.34 614.32 229.09 612.34C230.87 614.01 230 616.21 230.27 618.19Z" fill="#957763"/>
<path d="M224.309 584.3C222.509 582.6 223.379 580.34 223.059 578.33C225.249 579.95 224.069 582.28 224.309 584.3Z" fill="#573421"/>
<path d="M221.959 572.54C220.159 570.85 221.039 568.6 220.719 566.59C222.919 568.2 221.709 570.52 221.959 572.54Z" fill="#57361A"/>
<path d="M233.911 241.33C233.861 242.12 233.821 242.91 233.771 243.7C234.621 245.73 234.661 247.76 233.841 249.8C226.101 254.72 217.992 258.99 209.962 263.4C204.132 266.6 198.252 264.08 193.572 262.56C190.022 261.41 188.271 254.53 185.891 250.1C185.091 248.62 184.832 246.86 184.322 245.22C182.792 242.7 180.501 243.8 178.401 243.97C177.971 244.21 177.552 244.46 177.132 244.72C175.432 244.79 173.631 245.24 172.041 244.85C168.701 244.03 167.181 239.8 169.731 238.35C177.441 233.98 174.572 227.05 174.162 220.99C173.862 216.52 173.371 212.49 177.401 209.45C180.051 209.55 182.501 208.43 185.391 209.17C190.841 210.57 195.791 206.8 197.011 201.26C197.461 199.22 196.002 195.8 199.522 195.71C202.962 195.62 206.922 194.15 209.742 197.95C217.022 207.75 223.762 217.87 228.772 229.04C230.592 233.09 232.191 237.23 233.901 241.32L233.911 241.33Z" fill="#D1936E"/>
<path d="M177.401 205.01C176.621 205 175.851 204.99 175.071 204.98C173.241 206.13 171.311 206.64 169.181 205.98C167.131 203.04 163.521 204.45 160.921 203.04C160.361 202.52 160.021 201.86 159.761 201.16C159.371 199.51 157.901 199.18 156.621 198.6C156.171 198.31 155.821 197.94 155.581 197.46C155.291 196.68 155.241 195.89 155.351 195.07C155.791 193.2 156.271 191.35 157.951 190.14C160.751 189.23 161.071 187.4 159.821 184.99C159.421 182.9 159.371 180.88 160.971 179.19C161.351 179.15 161.731 179.11 162.111 179.09C163.221 178.22 164.781 177.99 165.581 176.67C167.821 171.5 171.501 169.29 177.361 169.54C183.631 169.8 189.961 170.55 196.201 167.77C200.491 165.86 204.151 169.8 205.581 176.77C208.241 180.89 205.701 185.43 206.651 189.69C204.761 191.73 202.281 190.96 200.111 190.8C194.371 190.39 191.891 193.45 191.571 198.58C191.261 203.52 189.401 205.59 184.191 204.43C182.081 203.96 179.681 204.79 177.411 205.03L177.401 205.01Z" fill="#80501E"/>
<path d="M160.971 200.24C160.971 201 160.971 201.76 160.971 202.52C160.821 203.97 159.821 204.86 158.841 205.77C156.271 207.5 154.941 209.57 156.941 212.59C157.031 213.48 156.811 214.25 156.161 214.89C154.001 216.08 152.001 217.48 149.991 218.91C147.851 220.43 145.461 221.21 143.981 217.87C144.001 217.48 144.121 217.11 144.411 216.86C144.771 216.56 144.751 216.61 144.251 216.97C143.881 217.22 143.511 217.36 143.091 217.42C140.961 217.13 138.961 217.5 137.011 218.3C132.251 218.93 132.421 215.61 132.801 212.66C133.321 208.6 135.901 206.08 139.841 204.97C143.511 202.4 143.851 198.32 144.611 194.44C146.181 193.22 145.601 191 146.851 189.62C146.721 185.92 147.741 182.88 151.551 181.44C152.841 180.31 154.301 180.19 155.881 180.7C157.711 181.83 159.251 183.17 159.281 185.57C158.921 187.31 157.331 188.08 156.301 189.29C155.101 190.88 154.861 192.89 154.011 194.63C153.501 196.6 155.531 196.81 156.271 197.91C157.421 199.53 159.801 198.68 160.971 200.26V200.24Z" fill="#804E1F"/>
<path d="M139.839 204.97C136.829 207.59 133.879 210.18 133.929 214.73C133.969 217.77 135.369 217.79 137.519 216.73C137.809 217.01 138.139 217.42 137.999 217.69C135.509 222.68 137.829 225.81 142.019 228.26C143.819 230.53 143.639 233.27 143.819 235.91C145.439 239.64 145.319 243.09 142.179 246.04C142.179 246.43 142.179 246.81 142.179 247.2C141.019 247.99 139.869 248.79 138.709 249.58C136.169 251.45 134.939 249.53 133.429 247.91C131.709 246.07 129.599 244.6 128.139 242.5C130.849 234.49 129.429 227.26 126.179 219.38C123.189 212.14 130.299 205.55 139.849 204.96L139.839 204.97Z" fill="#654529"/>
<path d="M128.129 242.51C132.919 242.98 134.329 248.5 138.709 249.59C135.209 254.42 132.859 249.81 130.649 248.22C129.119 247.12 128.219 244.76 128.129 242.51Z" fill="#5F452E"/>
<path d="M144.702 247.26C148.092 244.27 151.702 244.22 155.492 246.49C151.712 246.25 148.642 250.29 144.582 248.24C144.582 247.91 144.612 247.58 144.692 247.26H144.702Z" fill="#B4876B"/>
<path d="M158.61 186.11C157.83 184.56 157.05 183.01 156.27 181.46C156.55 180.81 157.05 180.36 157.64 180.01C158 179.74 158.34 179.44 158.66 179.12C159.43 179.14 160.21 179.16 160.98 179.18C160.98 181.49 160.98 183.8 160.98 186.11C160.19 186.76 159.4 186.76 158.61 186.11V186.11Z" fill="#7A4F26"/>
<path d="M206.661 189.67C204.381 185.52 206.121 181.05 205.591 176.75C205.961 176.77 206.321 176.78 206.691 176.78C208.341 179.34 206.321 182.44 207.911 185.01C207.491 186.56 207.071 188.11 206.651 189.66L206.661 189.67Z" fill="#6D4F3C"/>
<path d="M146.85 189.62C145.78 191.08 149.25 194.64 144.61 194.44C144.34 192.36 144.79 190.62 146.85 189.62Z" fill="#6A5239"/>
<path d="M207.921 185.02C205.711 182.54 207.241 179.51 206.701 176.79C209.071 179.24 207.471 182.28 207.921 185.02Z" fill="#4D3325"/>
<path d="M158.571 180.24C158.111 181.22 157.231 181.42 156.271 181.46C154.701 181.46 153.121 181.44 151.551 181.43C151.581 181.06 151.601 180.69 151.611 180.31C153.921 179.33 156.251 179.43 158.581 180.23L158.571 180.24Z" fill="#6B513C"/>
<path d="M158.572 180.24C156.252 180.27 153.922 180.29 151.602 180.32C153.652 178.12 156.302 179.49 158.652 179.13C158.622 179.5 158.592 179.87 158.572 180.25V180.24Z" fill="#4C3320"/>
<path d="M165.591 176.67C165.621 179.18 163.851 179.12 162.121 179.09C162.811 177.61 163.971 176.81 165.591 176.67Z" fill="#664F35"/>
<path d="M157.572 258.92C161.702 256.3 166.262 254.74 169.752 250.63C173.822 245.82 181.062 248.19 183.462 254.26C185.462 259.32 189.792 263.12 191.102 268.53C191.642 270.77 192.942 272.85 192.462 275.3C191.472 276.72 190.212 277.88 188.892 278.98C180.932 286.03 170.592 287.22 161.002 290.21C157.792 291.21 155.952 288.9 154.552 286.4C153.272 284.12 152.872 281.96 155.802 280.56C158.252 279.38 161.112 279.26 163.422 277.67C164.222 277.12 165.332 276.64 165.152 275.54C164.932 274.21 163.682 273.86 162.502 273.67C159.982 273.26 157.452 274.61 154.952 273.73C153.562 273.24 151.572 273.03 151.732 271C151.852 269.5 153.402 268.94 154.732 268.57C158.472 267.53 162.492 267.41 165.842 265.14C166.302 264.78 166.842 264.5 167.212 264.06C168.152 262.96 170.172 262.09 169.042 260.31C168.162 258.91 166.542 260.11 165.252 260.19C164.672 260.23 164.102 260.36 163.512 260.42C161.402 260.42 159.222 260.71 157.572 258.93V258.92Z" fill="#878787"/>
<path d="M142.19 246.04C142.74 242.9 144.87 239.76 142.19 236.62C144.56 233.6 145.76 230.41 143.6 226.75C142.86 225.61 141.81 224.62 141.87 223.11C146.17 220.11 151.35 218.85 155.75 216.05C157.31 215.11 157.71 218.65 159.44 216.96C159.52 214.73 159.3 212.54 159.61 210.35C160.92 206.21 162.61 202.65 168.04 204.94C170.39 204.95 172.74 204.96 175.09 204.97C173.96 207.61 170.46 208.63 170.36 211.97C169.99 212.33 169.68 212.73 169.43 213.19C169.05 215.52 169.05 217.85 169.43 220.18C169.68 220.63 169.98 221.04 170.35 221.4C170.19 226.65 171.77 232.38 166.29 236.17C166.15 236.27 165.99 236.51 166.01 236.66C167.37 247.25 160.58 243 155.56 242.59C150.81 242.2 145.81 241.7 142.19 246.03V246.04Z" fill="#634429"/>
<path d="M157.568 258.92C159.888 258.98 162.208 259.04 164.528 259.1C165.688 259.74 166.518 260.49 165.498 261.89C163.128 264.66 159.748 262.17 157.108 263.51C154.408 263.57 151.698 263.74 149.008 263.65C147.268 263.59 144.558 266.21 144.118 263.69C143.758 261.59 145.638 258.71 148.588 257.66C150.378 257.02 152.758 257.66 153.868 255.41C155.108 256.58 156.338 257.76 157.578 258.93L157.568 258.92Z" fill="#3E3A38"/>
<path d="M163.568 251.08C162.398 249.07 160.398 249.7 158.648 249.54C158.688 249.3 158.708 249.05 158.708 248.8C160.238 246.58 162.918 248.77 164.628 247.25C165.538 247.46 167.298 246.6 167.158 248.13C166.998 249.84 165.338 250.77 163.568 251.08V251.08Z" fill="#B8917D"/>
<path d="M189.09 277.59C189.82 276.25 191 275.57 192.46 275.3C192.96 275.34 193.46 275.39 193.96 275.43C192.66 277.31 191.25 279.08 189.18 280.2C188.39 279.35 188.49 278.48 189.09 277.59V277.59Z" fill="#483731"/>
<path d="M169.19 212C169.58 212 169.96 211.98 170.35 211.97C170.35 215.11 170.35 218.26 170.35 221.4C169.96 221.38 169.58 221.37 169.19 221.36C168.28 218.24 168.26 215.12 169.19 212Z" fill="#463629"/>
<path d="M177.43 243.75C180.18 242.11 182.85 240.86 184.31 245.23C183.98 245.1 183.66 244.98 183.33 244.84C181.55 243.45 179.23 245 177.43 243.74V243.75Z" fill="#BD9681"/>
<path d="M233.832 249.81C233.812 247.78 233.792 245.74 233.762 243.71C234.302 245.74 237.352 247.74 233.832 249.81Z" fill="#C09D81"/>
<path d="M164.631 247.25C163.041 249.22 160.571 247.85 158.711 248.8C160.111 246.11 162.611 247.59 164.631 247.25Z" fill="#503122"/>
<path d="M177.429 243.75C179.399 244.11 181.699 242.66 183.329 244.85C181.259 244.81 179.189 244.78 177.129 244.74C177.239 244.41 177.339 244.09 177.429 243.75V243.75Z" fill="#59321E"/>
<path d="M438.059 162.68C441.959 159.53 445.859 156.38 449.759 153.22C450.479 156.02 456.009 160.46 447.369 160.13C446.669 160.1 445.719 161.21 445.239 162C443.109 165.57 440.709 165.14 438.059 162.68Z" fill="#423833"/>
<path d="M454.389 148.52C455.179 147.02 455.969 145.52 456.759 144.01C457.179 143.58 457.599 143.15 458.009 142.71C459.339 144.33 460.439 146.02 458.979 148.12C457.639 150.05 455.929 148.48 454.379 148.52H454.389Z" fill="#423833"/>
<path d="M449.73 153.24C450.08 150.47 452.89 150.11 454.42 148.49C454.59 151.78 454.49 154.8 449.73 153.24Z" fill="#423833"/>
<path d="M428.779 176.82C428.219 177.76 427.749 178.77 427.069 179.61C426.409 180.43 425.349 180.44 424.689 179.72C424.479 179.49 425.149 178.46 425.419 177.79C426.539 177.47 427.669 177.15 428.789 176.83L428.779 176.82Z" fill="#513127"/>
<path d="M433.46 165.3C433.37 162.66 435.15 162.63 437.03 162.74C436.27 164.19 434.98 164.9 433.46 165.3Z" fill="#BE907A"/>
<path d="M251.05 265.03C251.21 268.47 251.37 271.91 251.52 275.35C248.87 272.58 250.77 269.16 250.2 266.09C250.48 265.74 250.76 265.38 251.05 265.03Z" fill="#8CB39D"/>
<path d="M323.091 474.99C324.601 475.04 325.301 475.86 325.341 477.32C324.161 476.93 322.961 478.7 321.801 477.28C322.231 476.51 322.661 475.75 323.091 474.98V474.99Z" fill="#8F677C"/>
<path d="M150.532 331.81C146.872 334.14 144.482 337.6 142.112 341.09C140.842 342.64 139.812 344.28 138.922 346V346.02C136.442 350.84 135.072 356.16 132.962 361.14C132.832 361.53 132.662 361.89 132.492 362.28C132.402 362.47 132.302 362.65 132.212 362.84C132.102 363.06 131.992 363.29 131.892 363.51C131.142 365.12 130.402 366.74 129.262 368.14C126.702 370.01 126.592 376.49 122.482 374.19C119.252 372.36 123.862 368.61 124.462 365.6C124.832 363.71 125.452 361.85 125.972 360C125.882 359.61 125.822 359.25 125.802 358.9C125.692 357.54 126.082 356.34 126.662 355.2C127.052 354.4 127.562 353.63 128.082 352.87C129.482 349.92 130.432 346.86 130.472 343.57C131.742 340.92 130.322 337.63 132.432 335.19C133.332 322.68 134.222 310.17 135.102 297.66C135.292 294.75 135.882 291.98 137.232 289.39C137.732 289.02 138.242 288.85 138.782 288.87C139.022 288.87 139.252 288.91 139.512 289.02C139.552 289.02 139.622 289.04 139.662 289.08C139.702 289.08 139.772 289.1 139.812 289.12C139.832 289.12 139.832 289.14 139.852 289.14C140.282 289.61 140.352 290.07 140.072 290.54C140.012 290.63 139.962 290.69 139.902 290.78C138.092 307.17 140.052 323.72 137.512 340.97C137.492 341.12 137.472 341.27 137.452 341.42C137.562 341.31 137.692 341.2 137.772 341.08C141.842 336.97 144.272 332.23 149.032 330.03C149.272 330.31 149.502 330.59 149.742 330.85C149.742 330.87 149.762 330.89 149.762 330.89C150.022 331.19 150.282 331.49 150.542 331.79L150.532 331.81Z" fill="#3A3938"/>
<path d="M189.182 280.2C187.592 281.66 185.992 283.13 184.402 284.59C184.182 284.98 183.902 285.28 183.582 285.47C183.262 285.71 182.892 285.84 182.462 285.86C182.352 285.88 182.202 285.88 182.072 285.88C176.882 289.95 170.212 290.27 164.352 292.68C160.392 294.32 156.172 293.63 153.502 288.76C150.142 282.6 146.592 282.58 141.832 288.05C141.162 288.83 140.652 289.71 140.062 290.55C140.002 290.64 139.952 290.7 139.892 290.79C139.872 290.36 139.832 289.91 139.802 289.45C139.712 289.36 139.652 289.26 139.612 289.17C139.572 289.11 139.522 289.06 139.502 289.02C139.282 288.7 139.132 288.37 139.072 288.07C138.772 287.04 139.072 286 139.822 284.95C144.602 282.5 149.142 279.33 154.962 280C155.862 279.59 156.212 279.81 156.272 280.34C156.292 280.36 156.292 280.38 156.292 280.43C156.292 280.62 156.272 280.86 156.232 281.14C152.612 283.55 155.932 285.38 156.812 287.34C157.632 289.15 158.832 289.84 161.012 288.95C170.382 285.2 180.882 284.21 189.092 277.58C189.092 277.95 189.112 278.33 189.132 278.7V278.76C189.152 279.23 189.152 279.71 189.172 280.18L189.182 280.2Z" fill="#3B3A3B"/>
<path d="M156.239 281.14C155.819 280.76 155.389 280.39 154.969 280.01C156.419 277.83 158.809 277.86 161.009 277.44C161.799 277.04 162.819 276.94 163.109 275.88C162.699 275.97 162.359 275.83 162.099 275.46C156.249 275.41 150.389 275.37 144.539 275.32C143.399 273.75 143.499 272.17 144.489 270.58C149.199 266.34 155.339 266.93 160.949 265.74C161.659 264.99 162.309 264.11 163.549 264.32C164.849 264.56 166.129 264.83 166.949 266.03C162.879 269.88 156.959 268.41 151.969 271.01C154.469 272.68 156.559 273.29 159.129 272.25C160.959 271.51 162.919 271.65 164.769 272.66C165.959 273.31 167.499 273.65 167.679 275.2C167.899 277.04 166.469 278.03 165.039 278.65C162.219 279.86 159.489 281.49 156.219 281.14H156.239Z" fill="#3B3939"/>
<path d="M131.561 362.18C134.071 354.64 134.801 346.22 142.121 341.09C139.131 348.59 137.931 356.83 132.831 363.46C131.711 363.73 131.131 363.46 131.551 362.18H131.561Z" fill="#AE6E4A"/>
<path d="M128.081 352.86C128.171 355.47 127.231 357.78 125.961 359.99C122.341 357.05 122.581 356.23 128.081 352.86Z" fill="#C59376"/>
<path d="M163.369 265C162.569 265.25 161.759 265.49 160.959 265.74C160.679 263.27 158.679 263.76 157.109 263.51C159.949 262.71 162.789 261.9 165.629 261.1C168.379 260.42 168.739 261.58 167.379 263.6C166.479 264.94 164.889 265.06 163.369 265.01V265Z" fill="#C0947D"/>
<path d="M132.429 335.18C131.879 338 132.139 341.01 130.469 343.57C130.459 341.08 130.409 338.59 130.449 336.1C130.479 334.59 131.459 334.84 132.429 335.17V335.18Z" fill="#C19881"/>
<path d="M131.56 362.18C131.98 362.61 132.41 363.03 132.84 363.46C132.61 365.75 131.2 367.15 129.27 368.14C129.59 365.98 130.15 363.92 131.57 362.18H131.56Z" fill="#A46C4A"/>
<path d="M139.83 284.96C139.83 286.46 139.82 287.96 139.81 289.46C138.95 289.44 138.09 289.42 137.23 289.39C137.58 287.61 137.31 285.46 139.83 284.95V284.96Z" fill="#4A3426"/>
<path d="M144.499 270.58C144.509 272.16 144.529 273.74 144.549 275.32C140.749 273.78 142.069 272.18 144.499 270.58Z" fill="#47332B"/>
<path d="M162.1 275.46C163.03 275.58 163.96 275.69 164.88 275.81C163.9 277.09 162.7 277.86 161 277.45C161.36 276.79 161.73 276.13 162.09 275.46H162.1Z" fill="#BC9073"/>
<path d="M201.691 311.84C204.301 310.33 206.911 310.22 210.701 311.76C206.981 313.43 204.341 313.08 201.691 311.84Z" fill="#A7714F"/>
<path d="M438.14 687.27C432.95 687.27 427.77 687.27 422.58 687.27C420.69 682.31 421.7 677.61 423.81 673C423.89 675.94 424.25 678.55 428.31 676.9C427.82 678.97 427.38 681.05 426.82 683.1C426.33 684.89 426.41 686.18 428.73 686.23C430.36 686.27 431.84 686.33 432.08 684.09C432.31 682.02 431.68 679.76 433.3 677.96C435.38 680.45 434.82 684.43 438 686.29C438.08 686.61 438.12 686.93 438.14 687.26V687.27Z" fill="#81BE9E"/>
<path d="M481.458 694.73C479.138 696.21 476.808 696.22 474.488 694.73C476.808 694.73 479.128 694.73 481.458 694.73Z" fill="#36453D"/>
<path d="M438.031 689.85C438.031 689.07 438.031 688.29 438.041 687.52C439.201 687.59 440.361 687.66 441.531 687.73C443.121 689.52 445.951 687.9 447.471 689.9C447.391 692.19 445.981 691.5 444.711 691.14C444.061 691.14 443.411 691.16 442.761 691.17C441.191 690.74 439.611 690.3 438.041 689.87L438.031 689.85Z" fill="#3A3B39"/>
<path d="M444.699 691.12C445.749 691.01 446.809 690.9 447.459 689.88C448.239 689.99 449.019 690.11 449.809 690.22C449.759 690.97 449.719 691.71 449.669 692.46C448.049 691.88 446.059 692.7 444.709 691.12H444.699Z" fill="#1E4632"/>
<path d="M466.24 696.97C465.82 696.55 465.4 696.14 464.98 695.72C466.96 695.94 469.15 694.98 470.88 696.72C469.33 696.8 467.79 696.88 466.24 696.97Z" fill="#36453D"/>
<path d="M438.001 686.29C430.621 686.79 434.291 681.06 433.301 677.96C433.181 674.72 434.121 671.93 436.691 669.81C439.271 670.17 443.021 668.61 442.811 673.55C441.211 677.8 439.611 682.05 438.001 686.3V686.29Z" fill="#77C19B"/>
<path d="M211.712 538.21C210.602 538.73 210.302 539.71 210.252 540.82C207.442 540.39 206.662 537.4 207.612 536.31C209.602 534.01 210.432 537.21 211.712 538.21Z" fill="#4A3728"/>
<path d="M207.871 653.59C207.951 651.84 208.971 651.06 210.631 650.95C217.211 655.96 218.591 663.36 219.771 670.85C218.151 671.26 216.531 671.67 214.921 672.07C215.111 664.94 212.551 658.86 207.881 653.58L207.871 653.59Z" fill="#7CC09F"/>
<path d="M198.541 686.22C198.511 685.37 198.481 684.53 198.441 683.68C200.061 682.27 201.671 680.87 203.291 679.46C204.421 678.52 205.561 677.58 206.691 676.64C208.901 676 210.001 673.26 212.661 673.48C213.271 674.48 214.301 674.56 215.321 674.67C209.731 678.52 204.141 682.37 198.551 686.22H198.541Z" fill="#304036"/>
<path d="M225.918 672.35C225.768 672.69 225.608 673.02 225.448 673.35C223.548 673.45 221.638 673.55 219.738 673.65C221.368 671.19 223.808 672.55 225.918 672.35Z" fill="#214736"/>
<path d="M179.761 187.38C176.971 188.6 177.251 191.54 176.271 193.75C175.781 194.85 175.381 196.28 174.131 196.17C172.181 196 172.751 194.16 172.701 192.92C172.431 186.53 178.491 181.85 184.471 183.78C185.411 184.98 184.951 185.93 183.941 186.78C182.591 187.32 181.231 187.74 179.751 187.38H179.761Z" fill="#473B32"/>
<path d="M168.03 204.94C164.01 204.9 161.5 206.68 160.93 210.8C160.43 211.48 160.13 212.45 158.97 212.2C156.87 210.68 157.21 208.59 157.62 206.48C157.84 205.92 158.14 205.41 158.51 204.94C159.33 204.13 160.15 203.33 160.97 202.52C162.82 202.4 164.68 202.34 166.52 202.16C169.32 201.88 168.55 203.46 168.03 204.94V204.94Z" fill="#3D3937"/>
<path d="M152.711 194.4C154.241 192.73 153.201 190.03 155.071 188.49C157.201 187.85 159.501 186.93 158.641 190.84C157.861 192.43 157.081 194.03 156.301 195.62C155.451 196.73 154.471 197.77 152.991 196.88C152.071 196.33 152.081 195.32 152.711 194.41V194.4Z" fill="#403832"/>
<path d="M179.762 187.38L183.232 186.22C185.782 187.16 184.892 184.69 185.602 183.81C187.482 183.82 189.302 183.96 188.972 186.59C188.742 188.44 187.252 188.56 185.862 188.47C183.802 188.33 181.512 189.26 179.762 187.38Z" fill="#745030"/>
<path d="M158.629 190.83C158.509 188.42 156.749 188.5 155.059 188.48C156.239 187.69 157.419 186.9 158.609 186.11C159.399 186.11 160.189 186.11 160.979 186.11C165.719 190.43 160.529 189.8 158.629 190.82V190.83Z" fill="#493A28"/>
<path d="M160.97 200.24C159.13 200.02 156.66 201.04 156.27 197.89C158.12 198.11 160.58 197.09 160.97 200.24Z" fill="#7D5025"/>
<path d="M152.71 194.4C153.06 197.31 154.75 196.25 156.29 195.61C156.29 196.37 156.28 197.13 156.27 197.9C154.33 197.49 150.39 199.13 152.71 194.4Z" fill="#7D5025"/>
<path d="M185.608 183.81C185.958 184.78 186.768 185.8 185.518 186.69C184.628 187.32 183.848 187.11 183.238 186.22C184.208 185.7 184.438 184.79 184.488 183.79C184.868 183.81 185.238 183.82 185.618 183.82L185.608 183.81Z" fill="#543318"/>
<path d="M142.182 223.71C143.292 224.17 144.102 224.92 144.532 226.06C145.172 229.57 143.552 229.68 141.002 228.42C133.802 225.44 133.402 224.11 137.522 216.72C139.422 215.43 141.312 215.24 143.202 216.73C144.432 219.29 139.942 221 142.172 223.7L142.182 223.71Z" fill="#3C3836"/>
<path d="M142.179 223.71C135.949 220.41 143.139 219.1 143.209 216.74C143.649 216.72 144.089 216.7 144.529 216.68C145.779 220.56 147.769 219.17 149.659 217.31C151.509 215.48 153.339 213.78 156.229 214.32C156.889 215.09 156.999 215.87 156.299 216.68C152.089 220.02 147.179 221.96 142.179 223.71V223.71Z" fill="#7B4F24"/>
<path d="M156.301 216.68C156.281 215.89 156.251 215.11 156.231 214.32C156.231 213.54 156.241 212.76 156.251 211.98C155.661 209.46 155.471 207.1 158.591 206.05C158.921 208.04 157.841 210.32 159.781 211.98C161.261 214.14 159.441 216.85 160.951 219.01C160.661 221.17 159.671 221.77 158.141 220.02C157.321 219.09 156.901 217.8 156.301 216.68V216.68Z" fill="#46372D"/>
<path d="M158.589 206.05C156.749 207.61 157.759 210.29 156.249 211.98C152.969 208.98 153.199 208.27 158.509 204.94C158.559 205.31 158.589 205.68 158.589 206.05V206.05Z" fill="#7D5025"/>
<path d="M151.269 200.36C152.899 200.27 153.839 200.99 153.799 202.67C153.779 203.41 153.509 204.6 152.689 204.23C151.569 203.72 150.519 202.71 149.879 201.65C149.489 201 150.439 200.43 151.279 200.36H151.269Z" fill="#7D5025"/>
<path d="M144.532 216.68C144.822 215.34 143.832 213.65 145.572 212.75C145.752 212.66 146.542 213.24 146.632 213.61C147.092 215.37 146.452 216.49 144.532 216.68Z" fill="#7B4F24"/>
<path d="M141 228.42C142.71 228.43 144.42 228.45 144.53 226.06C147.45 230.83 146.71 234.16 142.19 236.61C142.08 233.84 142.63 230.97 141 228.41V228.42Z" fill="#42372F"/>
<path d="M163.371 265C164.731 263.98 166.651 263.73 167.541 262.04C166.901 261.72 166.271 261.41 165.631 261.09C165.261 260.42 164.901 259.76 164.531 259.09C166.801 258.69 169.731 256.04 171.181 258.94C172.901 262.39 169.401 264.22 166.971 266.02C165.701 265.92 164.321 266.23 163.371 265V265Z" fill="#3E3735"/>
<path d="M151.24 239.08C149.54 240.71 148.05 240.39 146.69 239.05C146.47 238.84 146.67 237.72 146.86 237.66C148.56 237.16 150.04 237.5 151.23 239.08H151.24Z" fill="#41392D"/>
<path d="M157.511 236.64C155.941 234.42 155.891 232.91 157.431 231.03C158.961 232.77 158.971 234.29 157.511 236.64Z" fill="#3D3733"/>
<path d="M169.189 212C169.189 215.12 169.189 218.24 169.189 221.36C167.379 218.24 167.369 215.12 169.189 212Z" fill="#59473A"/>
<path d="M160.962 219.02C158.852 216.96 160.182 214.33 159.792 211.99C160.172 211.6 160.562 211.2 160.942 210.81C160.942 213.55 160.962 216.29 160.962 219.02V219.02Z" fill="#4C423D"/>
</svg>
