<svg width="596" height="842" viewBox="0 0 596 842" fill="none" xmlns="http://www.w3.org/2000/svg">
<path d="M549.379 303.65C547.029 300.82 544.939 303.86 543.229 305.36C485.509 356.13 427.819 406.95 370.129 457.75C367.489 460.08 364.889 464.03 362.109 464.17C359.239 464.32 357.119 459.75 354.539 457.38C354.059 456.94 353.669 456.39 353.149 456C349.329 453.2 348.549 449.19 348.609 444.82C348.409 444.59 348.159 444.45 347.859 444.39C347.819 444.39 347.769 444.38 347.719 444.37C347.649 444.37 347.569 444.39 347.509 444.41C347.159 444.5 346.939 444.7 346.739 444.97C346.379 445.5 346.209 446.25 345.779 446.7C345.529 446.96 345.199 447.12 344.689 447.09C342.269 447.82 342.379 449.78 342.249 451.76C342.139 453.42 341.099 455.06 339.389 454.77C337.799 454.5 338.589 452.62 338.559 451.42C338.539 450.73 338.779 450.06 338.939 449.39C338.949 449.31 338.969 449.24 338.989 449.16C339.189 448.12 339.239 447.09 338.909 446.08C338.869 445.95 338.819 445.81 338.759 445.68C338.719 445.62 338.679 445.55 338.639 445.49C338.589 445.41 338.529 445.33 338.459 445.26C338.109 444.83 337.639 444.56 337.039 444.51C336.989 444.51 336.929 444.5 336.869 444.5C336.859 444.5 336.839 444.51 336.829 444.52C334.489 445.63 335.299 447.98 334.779 449.8C334.039 452.35 333.029 452.35 331.749 450.14C331.579 449.89 331.389 449.65 331.179 449.42C331.029 449.25 330.879 449.09 330.709 448.94C330.469 448.72 330.209 448.51 329.919 448.33C329.889 448.31 329.859 448.29 329.829 448.27C329.769 448.25 329.709 448.22 329.649 448.18C328.779 447.78 328.029 447.12 327.069 446.9C327.029 446.9 326.979 446.88 326.939 446.87C326.919 446.87 326.899 446.88 326.879 446.89C326.139 447.15 325.759 447.53 325.609 447.98C325.559 448.12 325.529 448.28 325.529 448.44C325.529 448.94 325.709 449.5 325.989 450.08C328.909 453.7 332.049 457.36 336.269 459.16C338.859 460.26 339.749 461.5 339.679 463.64C339.679 463.83 339.659 464.03 339.639 464.25C339.639 464.35 339.619 464.45 339.609 464.56C339.769 470.05 337.589 475.33 338.059 480.85C338.319 483.9 336.849 485.87 334.629 487.83C330.649 491.35 326.169 494.36 323.059 498.81C322.799 499.2 322.529 499.6 322.259 499.98C321.319 501.3 320.279 502.5 318.789 503.17C318.439 503.33 318.059 503.47 317.659 503.57C316.399 503.97 315.259 504.6 314.299 505.5C309.089 510.42 303.649 515.09 298.289 519.83C298.049 520.03 297.809 520.23 297.559 520.43C297.369 520.59 297.179 520.75 296.979 520.92C295.919 521.81 294.869 522.72 293.809 523.6C292.439 524.74 291.249 527.14 289.559 526.63C287.549 526.01 288.779 523.41 288.369 521.72C288.219 521.09 288.159 520.43 288.059 519.79C286.239 508.86 284.059 498 281.799 487.16C281.089 483.72 280.989 480.79 283.949 478.31C284.889 477.52 285.959 476.19 285.119 474.89C285.119 474.89 285.119 474.87 285.099 474.87C285.009 474.72 284.909 474.6 284.809 474.5C283.759 473.46 282.359 474.46 281.269 474.91C277.289 476.57 273.169 477.13 268.999 476.33C258.109 474.23 247.119 472.8 236.179 471.04C233.529 470.62 231.229 469.53 229.199 467.77C227.969 466.69 227.569 465.6 228.209 463.99C233.959 449.5 232.129 434.54 230.969 419.6C230.739 416.55 229.709 413.57 229.809 410.48C229.819 409.85 229.889 409.21 230.019 408.57C232.679 409.18 234.929 410.82 237.489 411.74C245.729 414.74 253.639 419.3 262.819 418.28C267.889 417.72 270.939 419.41 272.579 424.18C273.079 425.62 273.959 426.97 274.969 428.17C275.219 428.45 275.479 428.72 275.759 428.97C276.209 429.4 276.699 429.79 277.199 430.14C278.239 430.86 279.369 431.4 280.539 431.66C285.319 432.72 289.029 435.43 292.709 438.38C294.909 440.14 297.529 440.97 300.339 441.04C305.059 441.15 309.779 440.77 314.159 438.99C317.259 437.74 318.729 438.17 319.149 441.6C319.309 442.87 319.939 444.09 321.099 444.87C321.489 444.95 321.899 445.08 322.289 445.16C322.619 445.23 322.949 445.27 323.249 445.22C323.739 445.14 324.179 444.81 324.489 444C324.439 443.84 324.379 443.68 324.319 443.53C324.289 443.46 324.269 443.38 324.239 443.31C323.369 440.95 322.359 438.73 322.429 435.95C322.489 433.62 323.119 431.72 324.139 430.04C324.259 429.83 324.389 429.63 324.519 429.44C325.369 428.18 326.429 427.06 327.619 425.96C327.649 425.93 327.689 425.89 327.729 425.86C327.739 425.78 327.759 425.69 327.769 425.61C327.839 424.93 327.619 424.37 326.959 424C326.959 424 326.939 424 326.929 424C326.839 423.97 326.739 423.94 326.639 423.92C324.739 423.51 322.519 425.53 320.859 423.24C320.829 423.21 320.789 423.17 320.759 423.14C320.739 423.12 320.719 423.1 320.699 423.07C320.699 423.07 320.689 423.07 320.689 423.06C320.399 422.77 320.149 422.44 319.909 422.11C319.589 421.67 319.299 421.2 318.979 420.75C303.739 403.82 288.469 386.91 273.019 370.18C272.869 370 272.709 369.82 272.559 369.64C272.269 369.3 271.979 368.95 271.679 368.61C271.109 367.94 270.519 367.29 269.899 366.68C265.459 362.35 262.189 357.68 264.049 350.91C264.549 349.09 264.629 347.06 264.799 345.11C264.989 342.89 265.149 340.63 263.509 338.79C260.299 335.17 257.429 331.31 254.949 327.16C254.289 326.05 253.229 324.88 251.769 325.52C250.109 326.25 250.399 327.91 250.769 329.29C251.559 332.25 253.539 334.58 255.149 337.1C255.299 337.33 255.469 337.57 255.629 337.81C256.109 338.53 256.419 339.26 255.469 340.06C255.429 340.09 255.389 340.12 255.349 340.15C254.749 340.63 254.119 341.09 253.499 341.55C251.046 343.357 248.752 343.11 246.619 340.81C244.509 338.54 242.449 336.23 240.309 334C240.089 333.76 239.859 333.52 239.619 333.29C239.489 333.15 239.359 333.02 239.219 332.88C236.549 329.53 233.659 326.35 230.659 323.29C228.679 321.28 228.809 320.03 231.089 318.39C238.159 313.31 245.229 308.14 251.699 302.38C259.429 295.5 267.699 293.79 277.299 296.81C277.459 296.83 277.619 296.85 277.779 296.87C278.129 296.92 278.469 296.99 278.799 297.08C282.089 297.92 284.209 300.21 285.749 303.41C288.109 308.32 290.559 313.15 294.079 317.45C298.329 322.65 302.309 323.08 309.029 320.76C315.409 318.56 320.809 314.76 325.779 310.28C328.379 307.94 331.159 305.92 334.369 304.66C334.919 304.44 335.479 304.25 336.049 304.08C336.529 303.93 337.029 303.8 337.539 303.69C346.949 301.78 354.449 305.05 360.309 312.36C364.559 317.67 367.659 323.74 371.319 329.44C372.749 331.68 373.709 334.4 376.369 335.61C376.509 335.67 376.649 335.73 376.799 335.78C376.799 335.78 376.809 335.78 376.819 335.78C377.679 335.88 378.469 335.78 379.079 335.08C377.249 330.19 374.429 325.81 371.469 321.58C366.529 314.49 362.789 306.4 355.249 301.38C353.479 300.2 355.089 299.41 355.759 298.67C369.069 283.96 381.619 268.62 394.429 253.49C409.169 236.07 423.829 218.57 438.499 201.09C439.459 199.94 440.969 198.65 439.239 197.09C437.449 195.48 436.409 197.21 435.449 198.34C431.029 203.48 426.639 208.65 422.279 213.84C398.969 241.61 374.919 268.76 352.309 297.11C351.139 298.57 349.989 299.27 348.029 298.99C341.329 298.02 334.869 298.85 328.949 302.32C327.079 303.42 326.479 302.6 325.829 301.05C323.859 296.34 322.739 291.47 322.629 286.35C322.589 284.51 322.939 282.35 320.299 281.78C319.519 282.45 318.969 283.26 318.729 284.22C318.679 284.42 318.639 284.62 318.619 284.83C318.619 284.86 318.619 284.89 318.619 284.92C318.989 290.64 319.259 296.38 321.969 301.63C322.869 303.35 323.179 304.85 321.399 306.48C316.499 310.96 310.889 314.11 304.589 316.11C302.819 316.68 301.119 316.6 299.929 315.12C294.099 307.85 286.549 301.18 290.549 290.19C290.849 289.35 290.759 288.39 290.889 287.48C291.769 281.23 291.699 281.48 297.899 282.99C304.369 284.56 310.889 287.41 317.659 284.05C317.739 284.02 317.809 283.99 317.879 283.95C317.999 283.89 318.119 283.82 318.219 283.74C319.159 283.09 319.589 281.95 320.379 281.16C321.539 280.32 322.629 279.36 323.859 278.66C333.619 273.18 337.449 264.19 339.169 253.71C340.109 247.99 341.039 242.3 340.669 236.06C343.519 237.46 346.039 237.86 348.059 236C350.669 233.58 346.019 231.98 347.139 229.41C349.619 231.28 352.099 233.06 354.169 235.36C355.499 236.84 356.949 236.42 358.379 235.48C360.119 234.34 359.369 233.05 358.559 231.79C356.889 229.16 355.139 226.57 353.509 223.91C348.929 216.41 342.089 210.43 341.199 200.56C340.529 193.1 335.129 187.38 329.259 182.85C353.749 168.84 378.009 154.96 402.269 141.07C403.729 140.24 405.779 139.4 404.669 137.33C403.449 135.05 401.729 136.77 400.369 137.54C375.909 151.37 351.409 165.11 327.339 179.6C325.999 180.41 325.109 180.43 323.859 179.83C315.599 175.85 306.939 175.22 298.009 176.86C279.729 180.22 264.449 195.69 261.489 214.02C261.179 215.95 260.339 217.21 258.639 218.29C233.409 234.42 208.189 250.58 183.069 266.89C180.369 268.64 179.089 268.27 177.079 266.03C160.649 247.81 144.089 229.71 127.549 211.59C126.439 210.37 125.149 208.52 123.389 210.14C121.689 211.71 123.279 213.21 124.409 214.46C128.269 218.72 132.159 222.94 136.019 227.18C149.389 241.83 162.749 256.48 176.149 271.16C171.559 274.29 167.119 277.25 162.759 280.34C161.569 281.18 160.479 282.03 158.939 281.92C158.339 282.81 158.669 283.5 159.079 284.17C159.249 284.45 159.439 284.73 159.579 285.01C159.679 285.22 159.759 285.44 159.789 285.66C161.899 290.5 161.129 295.27 159.339 299.97C157.129 305.79 156.949 311.07 162.819 315C163.339 315.35 163.729 315.91 164.219 316.34C164.599 316.68 164.969 317.03 165.339 317.38C165.809 317.82 166.269 318.26 166.719 318.71C166.969 318.95 167.209 319.2 167.449 319.44H167.459C167.929 319.92 168.389 320.39 168.849 320.87C169.069 321.09 169.289 321.32 169.509 321.55C177.619 329.15 184.409 337.89 191.129 346.69C192.169 348.04 193.249 349.35 194.609 350.37C196.359 351.7 197.979 351.88 198.959 349.47C199.619 347.85 200.929 346.75 201.969 345.43C206.199 340.03 211.249 335.48 216.419 331.05C216.489 330.99 216.559 330.93 216.629 330.87C216.719 330.81 216.799 330.74 216.879 330.66C217.569 330.01 217.999 328.94 219.139 329.08C220.609 331.76 219.809 335.45 223.019 336.96C223.079 336.99 223.149 337.02 223.219 337.05C223.329 337.1 223.459 337.14 223.589 337.19C224.319 337.14 224.809 336.83 225.139 336.33C225.229 336.2 225.299 336.05 225.369 335.89C225.419 335.75 225.469 335.6 225.509 335.45C225.919 333.18 224.899 331.08 224.779 328.9C224.739 328.14 223.379 327 225.179 326.5C225.319 326.63 225.449 326.75 225.589 326.89C225.959 327.23 226.319 327.59 226.669 327.96C228.329 329.66 229.879 331.47 231.469 333.24C231.699 333.5 231.939 333.77 232.179 334.03C232.399 334.28 232.629 334.52 232.859 334.77C235.959 338.19 238.969 341.7 242.169 345.03C242.969 345.87 244.289 346.69 243.629 348.29C243.489 348.39 243.349 348.5 243.219 348.62C242.749 349.04 242.299 349.5 241.699 349.49C241.439 349.49 241.139 349.39 240.809 349.16C238.019 347.72 235.559 345.55 232.219 345.35C232.149 345.36 232.069 345.38 231.999 345.4C231.169 345.62 230.639 346.12 230.479 346.95C230.459 347.06 230.439 347.18 230.429 347.3V347.32C230.449 348.15 230.739 348.97 231.379 349.4C234.189 351.26 233.489 352.41 230.919 353.93C223.069 358.59 215.399 363.57 207.849 368.71C203.859 371.43 199.869 374.15 195.679 376.57C193.819 377.65 192.419 377.77 191.089 375.68C186.619 368.61 180.829 362.54 175.859 355.83C170.189 348.18 163.959 340.98 159.329 332.57C156.829 328.02 154.949 323.08 151.369 319.16C151.299 319.13 151.229 319.09 151.149 319.07C151.029 319.02 150.909 318.99 150.789 318.97C150.459 318.9 150.109 318.91 149.749 319C149.419 319.14 149.179 319.32 149.009 319.52C148.929 319.62 148.859 319.72 148.809 319.83C148.539 320.4 148.629 321.11 148.669 321.8C149.039 322.76 149.379 323.73 149.799 324.67C156.669 340.12 168.069 352.44 178.079 365.71C181.439 370.17 186.069 373.61 188.439 378.86C190.619 383.7 191.249 384.06 195.989 381.36C210.239 373.24 223.869 364.12 237.119 354.45C237.809 353.94 238.279 352.78 239.359 353.29C242.479 354.75 244.869 353.05 247.329 351.59C248.139 351.11 248.819 350.7 249.609 351.72C253.259 356.5 258.619 359.7 258.879 367.16C259.239 377.52 261.809 387.76 262.339 398.19C262.639 404.28 257.049 406.99 254.959 411.7C254.849 411.96 253.689 411.99 253.149 411.79C242.779 408.12 232.139 405.03 222.159 400.5C211.169 395.51 200.449 390.45 187.959 391.48C185.479 391.68 183.509 392.47 181.929 394.5C174.989 403.41 172.529 413.74 172.339 424.75C172.009 443.92 170.669 463.03 169.159 482.13C168.699 487.99 167.439 492.13 160.939 493.35C158.069 493.89 155.439 495.6 152.679 496.71C146.869 499.04 141.019 499.71 134.769 498.19C129.109 496.8 123.289 495.88 117.369 496.46C114.209 496.77 110.969 497.35 108.969 499.94C107.459 501.9 106.769 501.14 105.469 499.99C95.5692 491.27 84.5092 484.07 74.0092 476.14C72.9992 475.38 71.7992 473.65 70.4392 475.51C69.3292 477.03 70.6592 478.27 71.6792 479.17C75.2992 482.36 78.8391 485.69 82.7392 488.5C98.8091 500.06 113.709 513.19 130.309 524.06C137.389 528.69 144.159 533.74 152.249 536.57C155.519 537.71 158.689 539.16 161.969 540.5C146.199 561.39 130.529 582.08 114.939 602.82C109.229 610.43 103.699 618.17 98.1291 625.88C97.5191 626.73 96.2992 627.82 97.6392 628.89C98.9192 629.9 99.7691 628.7 100.519 627.82C101.879 626.24 103.219 624.64 104.519 623.01C125.209 597.14 145.359 570.84 165.389 544.46C166.899 542.48 168.199 541.61 170.869 542.28C174.239 543.12 177.739 543.53 181.299 543.55C192.129 543.6 202.959 543.64 213.789 543.98C228.509 544.44 243.239 545.67 257.999 544.51C262.429 544.16 266.909 544.46 271.979 544.46C270.349 545.92 269.279 546.88 268.209 547.83C243.839 569.52 219.449 591.19 195.109 612.92C191.799 615.87 188.759 619.12 185.579 622.21C184.859 622.91 184.359 623.79 184.989 624.6C185.649 625.47 186.609 625.08 187.399 624.49C189.369 623 191.419 621.59 193.309 620.01C222.209 595.77 250.239 570.52 278.649 545.73C279.969 544.58 281.099 543.11 283.399 542.94C283.219 543.8 283.149 544.43 282.959 545.01C279.789 554.53 281.749 563.15 287.459 571.14C288.649 572.81 290.109 573.98 292.229 574.14C294.789 574.33 298.179 573.61 299.589 575.49C300.939 577.29 300.429 580.48 300.769 583.06C300.829 583.57 301.019 584.07 301.109 584.58C304.519 605.34 310.319 625.58 314.589 646.16C315.099 648.6 315.029 650.72 312.789 652.41C309.939 654.57 308.479 657.56 308.229 661.13C307.329 674.02 309.919 682.97 323.699 685.81C326.729 686.43 329.469 687.85 331.159 690.45C334.889 696.2 340.499 698.92 346.739 700.76C355.469 703.34 364.199 706.1 373.449 705.69C377.429 705.51 380.969 703.66 382.359 699.76C383.749 695.86 382.929 692.02 379.759 688.97C375.529 684.9 371.159 681.08 366.219 677.81C357.349 671.94 349.819 664.55 343.679 655.82C341.169 652.26 339.769 648.51 340.079 643.84C340.849 632.12 341.279 620.37 341.369 608.63C341.459 596.38 343.439 584.12 341.549 571.89C341.169 569.41 341.749 568.08 343.929 567.14C347.569 565.57 348.469 562.49 347.549 559.04C345.919 552.87 346.559 546.62 346.149 540.4C345.899 536.49 347.309 535.27 350.979 535C372.149 533.47 393.069 529.28 414.399 529.17C417.429 529.16 419.129 530 421.019 531.94C442.019 553.58 463.039 575.19 484.149 596.73C485.289 597.9 486.869 600.65 488.239 599.36C490.089 597.61 487.379 596 486.149 594.69C470.479 578.07 454.759 561.5 439.039 544.93C434.039 539.66 429.039 534.38 423.609 528.67C426.879 528.37 429.559 528.1 432.239 527.89C449.529 526.55 466.819 525.23 484.119 523.9C485.929 523.76 487.769 523.21 487.659 521.11C487.539 518.91 485.609 518.75 483.809 518.9C479.259 519.27 474.709 519.62 470.159 520.03C454.579 521.42 438.989 522.73 423.429 524.33C420.799 524.6 419.109 524.2 417.279 522.29C401.399 505.69 385.429 489.18 369.469 472.64C365.939 468.98 365.909 468.97 369.799 465.53C428.809 413.45 487.829 361.39 546.819 309.3C548.489 307.83 551.499 306.18 549.449 303.7L549.379 303.65ZM350.949 458.87C353.109 460.72 354.809 463.12 356.909 465.06C358.729 466.75 358.939 467.88 356.839 469.6C352.419 473.19 348.229 477.05 343.949 480.8C343.629 480.66 343.309 480.51 342.989 480.37C343.919 474.16 343.689 467.93 343.829 461.7C343.879 459.29 341.449 455.8 345.269 454.62C348.179 453.72 349.149 457.31 350.969 458.87H350.949ZM184.839 270.84C209.949 254.59 234.999 238.25 260.439 221.68C260.989 224.75 262.229 227.47 259.429 229.86C258.769 230.42 258.769 232.09 258.899 233.21C259.419 237.84 259.749 242.53 260.819 247.05C261.849 251.36 263.539 255.67 269.329 255.41C270.649 255.36 270.609 256.31 270.949 257.15C273.979 264.79 278.299 271.5 285.329 276.06C287.169 277.25 287.639 278.58 287.339 280.59C286.749 284.57 286.249 288.57 285.789 292.57C285.559 294.6 284.909 295.08 282.839 294.23C276.369 291.59 269.569 290.68 262.629 291.23C256.829 291.69 252.809 295.63 248.529 298.96C241.159 304.71 233.789 310.46 226.459 316.28C224.889 317.53 223.969 317.6 222.459 315.93C209.909 301.97 197.249 288.1 184.559 274.26C183.219 272.8 182.829 272.16 184.839 270.85V270.84ZM163.009 284.66C167.939 281.57 172.609 278.73 177.179 275.75C178.649 274.79 179.489 274.82 180.739 276.2C193.579 290.44 206.469 304.64 219.459 318.75C221.229 320.68 220.699 321.65 218.989 323.07C211.469 329.33 204.109 335.78 197.919 343.43C196.529 345.14 195.749 345.88 194.059 343.43C185.319 330.86 175.319 319.39 163.009 310.14C161.939 309.34 161.939 308.59 161.959 307.52C162.019 304.86 162.909 302.4 163.809 299.99C165.789 294.7 165.629 289.61 163.009 284.65V284.66ZM258.039 354.72C253.766 350.493 253.796 346.653 258.129 343.2C258.609 342.82 259.129 342.49 260.089 341.81C259.369 346.36 258.739 350.32 258.039 354.72V354.72ZM263.299 406.03C264.149 408.86 264.699 410.68 265.269 412.56C263.229 413.06 261.339 413.11 259.299 412.7C259.759 410.21 262.069 409.09 263.299 406.02V406.03ZM155.059 532.49C160.279 531.35 162.889 531.64 167.819 533.92C162.509 537.81 159.089 532.87 155.059 532.49ZM194.709 499.42C193.089 498.8 193.919 497.46 194.169 496.42C197.339 483.48 201.129 470.69 203.809 457.63C204.589 453.82 204.429 449.98 204.599 445.69C209.809 449.94 214.419 454.28 219.709 457.76C221.259 458.78 221.089 464.84 219.719 466.69C212.059 477.05 204.429 487.42 196.769 497.77C196.239 498.48 196.049 499.93 194.699 499.42H194.709ZM277.009 538.04C250.059 540.85 223.079 538.84 195.779 538.66C200.499 528.93 198.999 519.18 197.669 509.53C197.099 505.43 197.239 502.34 200.269 498.81C207.899 489.92 214.849 480.45 221.949 471.12C223.549 469.02 224.539 468.85 226.299 470.93C231.059 476.55 237.999 476.74 244.519 477.52C254.709 478.74 264.719 481.36 275.039 481.51C276.219 481.52 276.729 482.04 276.799 483.08C277.879 499.2 282.449 514.83 283.419 530.96C283.669 535.04 281.069 537.61 277.019 538.04H277.009ZM413.169 524.09C395.859 524.72 379.479 527.11 363.029 528.65C358.489 529.08 353.949 529.57 349.419 530.11C346.949 530.4 345.419 530.22 345.049 526.97C344.719 524.02 344.449 520.78 342.239 518.27C341.489 517.41 342.259 516.32 342.499 515.36C344.629 506.86 346.399 498.33 344.639 489.53C344.329 487.96 345.109 487.16 346.149 486.26C351.169 481.89 356.179 477.5 361.129 473.06C362.329 471.98 363.069 471.47 364.489 472.97C380.449 489.83 396.489 506.6 413.159 524.1L413.169 524.09Z" fill="#383938"/>
<path d="M399.53 383.83C399.23 383.41 399.02 382.93 398.76 382.48C392.32 371.41 388.41 359.06 381.54 348.21C381.19 347.65 380.88 347.18 381.26 346.47C383.6 342.07 381.3 338.58 379.01 335.08L376.48 335.14C376.41 335.3 376.35 335.45 376.3 335.6C375.82 337.23 377.09 338.48 377.56 339.89C377.67 340.08 377.78 340.26 377.87 340.44C378.06 340.8 378.2 341.15 378.3 341.48C378.96 343.61 378.03 345.27 375.71 346.7C370.08 350.16 364.62 353.9 359.27 357.81C358.47 358.27 357.62 359.05 357.18 357.45C355.76 351.97 354.8 346.35 352.57 341.06C352.3 340.41 352.01 339.77 351.71 339.14C351.07 337.76 350.42 336.38 349.92 334.95C349.63 334.13 349.38 333.29 349.22 332.41C348.75 330.95 348.18 329.51 347.47 328.16C346.48 326.29 345.32 324.42 342.79 325.11C340.47 325.74 339.6 327.5 339.9 329.85C340.19 330.8 340.56 331.69 341.03 332.53C341.26 332.95 341.52 333.36 341.8 333.76C342.2 334.33 342.65 334.87 343.16 335.37C344.1 336.08 344.39 337.13 344.7 338.18C344.99 339.04 345.38 339.86 345.82 340.66C353.57 354.87 353.87 369.46 348 384.25C346.91 382.04 346.94 379.29 345.38 377.12C345.31 377.08 345.24 377.04 345.17 377C345.05 376.94 344.93 376.88 344.81 376.84C344.11 376.58 343.4 376.6 342.67 376.89C342.6 376.92 342.52 376.95 342.44 376.99C342.38 377.03 342.32 377.08 342.27 377.13C342.02 377.36 341.89 377.66 341.87 378.02C342.47 379.71 342.92 381.42 342.73 383.24C342.75 384.28 342.85 385.3 343.18 386.3C343.29 386.63 343.41 386.96 343.51 387.29C343.75 388.01 343.96 388.74 344.16 389.47C346.13 396.87 346.04 404.54 346.45 412.12C346.63 415.43 344.23 417.17 341.37 418.31C337.72 419.77 333.77 420.12 330.1 421.45C328.73 421.95 326.97 422.12 326.59 423.91C326.56 424.06 326.53 424.22 326.52 424.39C327.09 424.64 327.27 425.14 327.3 425.72C327.39 425.83 327.48 425.91 327.57 425.98C328.27 426.5 329 425.92 329.7 425.77C330.23 425.55 330.78 425.36 331.32 425.17C331.6 425.07 331.88 424.97 332.15 424.86C332.32 424.78 332.5 424.7 332.67 424.62C332.82 424.55 332.97 424.48 333.12 424.4C333.27 424.33 333.43 424.26 333.58 424.18C334.46 423.9 335.36 423.84 336.26 423.83C337.19 423.83 338.12 423.89 339.05 423.85C339.45 423.85 339.86 423.83 340.26 423.79C340.62 423.76 340.99 423.71 341.35 423.64C345.65 422.87 348.61 420.14 351.21 416.89C351.3 416.7 351.4 416.51 351.5 416.32C352.01 415.34 352.59 414.39 353.19 413.47C354.32 411.76 355.57 410.13 356.78 408.48C357.51 407.49 358.22 406.5 358.88 405.46C359.13 405.08 359.37 404.7 359.6 404.31C362.62 399.23 366.71 395.03 371.05 391.08C374.65 387.8 374.71 387.72 372.06 383.72C368.25 377.97 364.25 372.36 361.38 366.04C360.66 364.45 360.34 363.19 361.97 361.96C366.74 358.35 371.61 354.88 376.5 351.42C377.53 350.69 378.38 350.4 379.02 351.46C379.1 351.59 379.17 351.74 379.25 351.91C379.28 351.97 379.31 352.03 379.35 352.1C384.67 362.27 388.81 373.04 394.76 382.91C395.04 383.38 395.3 383.82 395.54 384.24C395.74 384.59 395.93 384.92 396.11 385.24C399.26 390.9 398.46 392.05 392.21 397.08C386.42 401.75 381.08 406.93 375.62 411.97C367.76 419.22 360.89 427.49 352.6 434.3C350.7 435.86 348.68 437.5 347.78 439.97C347.74 440.06 347.71 440.16 347.68 440.25C347.68 440.37 347.66 440.5 347.64 440.62C347.47 441.89 347.1 443.16 347.53 444.42C347.57 444.54 347.61 444.65 347.67 444.77C347.99 444.79 348.31 444.81 348.64 444.83C349.68 440.67 353.6 439.13 356.3 436.5C369.98 423.13 383.23 409.32 397.76 396.79C403.47 391.88 404.62 390.75 399.56 383.83H399.53ZM369.02 387.8C361.43 393.73 356.25 401.63 351.17 410.23C350.3 395.26 354.89 381.7 357.08 367.02C360.26 374.27 363.89 380.36 368.67 385.72C369.16 386.27 370.34 386.77 369.02 387.8Z" fill="#393837"/>
<path d="M144.67 319.76C139.02 319.23 135.4 315.36 131.79 311.66C129.89 309.71 128.62 309.08 126.06 310.93C101.41 328.8 77.0104 347 51.8804 364.19C51.0204 364.78 50.2004 365.42 49.3004 365.93C48.1204 366.6 46.6504 368.2 45.5704 366.79C44.4004 365.26 46.3704 364.38 47.4304 363.57C51.6604 360.32 55.8904 357.06 60.2004 353.93C81.4804 338.49 102.75 323.06 124.12 307.76C126.16 306.3 126.37 305.32 125.35 303.16C122.73 297.61 124.12 294.83 130.19 293.6C131.91 293.25 131.08 291.55 132.25 291.22C132.87 290.77 133.48 290.71 134.09 291.24C135.11 292.89 134.95 294.65 134.58 296.44C134.29 297.28 133.77 297.87 132.85 298.02C132.33 298.03 131.83 297.95 131.38 297.66C130.38 297.03 129.38 296.36 128.27 297.46C127.18 298.54 127.37 299.74 127.86 301.03C129.02 304.12 130.51 306.9 133.86 308.13C134.72 308.93 134.69 310.41 135.98 310.87C138.89 312.39 141.29 314.73 144.34 316.02C144.83 316.41 145.18 316.89 145.37 317.49C145.56 318.38 145.4 319.16 144.68 319.77L144.67 319.76Z" fill="#393938"/>
<path d="M134.039 291.32C133.449 291.29 132.849 291.25 132.259 291.22C132.429 290.39 132.929 289.75 133.749 289.65C138.489 289.08 140.769 283.08 146.209 284.03C146.799 284.13 146.869 283.48 147.119 283.03C149.419 278.93 151.799 278.22 155.749 280.77C156.789 281.44 157.759 281.77 158.889 281.93C159.409 282.94 159.929 283.95 160.449 284.96C155.979 285.02 154.009 288.22 151.409 291.78C154.419 291.78 155.449 290.08 156.689 288.66C157.239 288.03 157.749 286.95 158.829 287.49C159.739 287.94 159.769 289.01 159.709 289.9C159.529 292.43 158.729 294.68 156.549 296.24C155.269 296.42 154.139 296.57 153.419 298.03C152.159 300.6 150.329 302.35 147.009 301.95C144.549 301.66 145.289 304.8 143.729 305.65C142.589 307.07 140.399 306.59 139.309 308.1C138.359 309.63 136.499 310.16 135.459 311.58C133.189 311.33 134.029 309.5 133.749 308.24C135.249 306.03 134.849 303.91 133.619 301.71C132.899 300.42 131.519 299.27 132.289 297.49C132.959 297.47 133.539 297.29 133.849 296.64C136.339 296.97 136.679 299.43 138.039 300.87C138.659 301.53 139.179 302.48 140.239 302.14C141.269 301.81 141.299 300.76 141.389 299.85C141.719 296.34 139.309 293 135.789 292.12C135.149 291.96 134.519 291.82 134.049 291.33L134.039 291.32Z" fill="#3C3836"/>
<path d="M144.672 319.76C144.712 318.89 144.742 318.03 144.782 317.16C145.932 315.83 147.392 316.08 148.852 316.34C149.452 316.52 149.982 316.84 150.432 317.27C150.932 317.91 151.492 318.53 150.912 319.41C150.432 319.41 149.962 319.41 149.482 319.41C148.482 320.74 147.342 318.38 146.342 319.53C145.812 319.8 145.352 320.55 144.672 319.76V319.76Z" fill="#433A2B"/>
<path d="M146.34 319.54C147.26 316.13 148.47 320.4 149.48 319.42C149.19 320.22 148.9 321.01 148.61 321.81C147.7 321.21 147.83 319.56 146.34 319.54V319.54Z" fill="#393938"/>
<path d="M317.619 283.25C318.419 282.43 319.139 281.51 320.309 281.17C320.389 281.39 320.369 281.6 320.229 281.79C319.939 282.82 319.639 283.85 319.349 284.88C318.049 285.1 317.829 284.18 317.609 283.25H317.619Z" fill="#C2B4A3"/>
<path d="M376.481 335.14C377.091 336.67 377.701 338.2 378.301 339.72C378.821 340.7 378.451 341.52 377.731 342.16C374.131 345.39 370.441 348.54 365.831 350.23C362.101 351.6 359.531 350.54 356.501 346.52C353.281 342.24 350.711 337.56 348.451 332.72C347.921 331.54 347.431 330.34 346.871 329.18C346.101 327.59 345.561 325.46 343.261 325.8C340.781 326.17 340.561 328.23 340.701 330.31C344.691 341.4 344.741 353.06 345.651 364.59C345.811 366.67 345.651 368.77 344.921 370.77C344.311 373.09 343.841 375.47 342.281 377.4C342.251 377.66 342.251 377.92 342.291 378.18C343.501 379.56 343.101 381.4 343.681 382.96C343.711 383.96 343.751 384.96 343.781 385.96C344.161 386.52 344.331 387.23 344.281 387.81C343.611 394.61 344.711 401.29 345.481 408C345.821 410.96 344.061 412.52 341.401 413.36C337.451 414.61 333.291 415.19 329.621 417.38C326.811 419.06 324.591 421.53 321.631 422.96C320.021 423.49 319.461 422.07 318.551 421.29C312.271 414.54 305.941 407.84 299.731 401.03C290.621 391.06 281.601 381 272.541 370.99C271.651 369.49 271.371 367.84 271.451 366.14C271.881 357.38 269.411 349.13 267.021 340.88C266.021 337.43 263.691 334.72 261.711 331.82C258.371 326.92 253.961 322.73 252.261 316.3C250.661 318.52 250.851 320.4 250.501 322.13C249.601 326.61 247.021 329.94 243.421 332.52C242.111 333.46 240.631 334.62 238.791 333.49C235.181 329.59 231.541 325.72 227.971 321.78C227.281 321.02 226.841 320.18 228.131 319.2C237.431 312.14 246.601 304.89 255.951 297.89C262.521 292.98 269.821 293.66 277.161 295.88C278.731 296.69 279.661 298.03 280.491 299.55C282.931 304.01 285.141 308.57 287.271 313.17C287.931 314.59 288.601 316 289.391 317.35C294.821 326.66 297.981 326.46 306.761 323.81C315.491 321.18 321.851 314.78 328.631 309.13C331.411 306.81 334.091 304.41 337.381 302.81C347.041 300.29 355.001 304.34 360.691 311.24C366.301 318.04 370.061 326.1 375.011 333.36C375.441 333.99 375.991 334.53 376.491 335.11L376.481 335.14Z" fill="#B2445B"/>
<path d="M229.371 407.16C234.761 409.35 240.281 411.28 245.511 413.8C252.451 417.14 259.731 417.79 267.181 417.23C269.311 417.07 270.261 417.7 271.121 419.38C272.541 422.14 274.091 424.83 275.581 427.55C276.661 430.66 279.311 432.18 281.981 433.46C285.921 435.36 289.331 437.88 292.421 440.94C296.981 445.46 302.801 446.95 308.941 446.81C313.821 446.69 317.561 447.66 320.761 451.87C325.101 457.59 331.011 461.49 338.181 463.13C339.081 463.34 339.921 463.69 340.581 464.38C340.651 471.02 338.451 477.46 338.921 484.16C339.061 486.22 336.771 487.23 335.351 488.54C331.351 492.23 326.781 495.3 323.381 499.62C321.381 500.98 320.001 503.09 317.871 504.3C313.451 506.67 310.381 510.66 306.601 513.8C304.111 515.87 301.721 518.05 299.131 520.01C297.821 521.52 296.651 521.72 296.331 519.4C295.011 509.99 293.571 500.59 292.631 491.13C291.841 483.1 291.631 475.01 290.121 467.07C288.761 459.95 285.171 454.58 278.511 450.88C272.541 447.56 266.391 444.88 260.011 442.61C248.831 438.62 241.571 430.25 235.481 420.62C233.471 417.44 231.011 414.49 229.871 410.81C229.511 409.63 228.451 408.51 229.391 407.15L229.371 407.16Z" fill="#424F6D"/>
<path d="M229.369 407.16C233.279 417.23 239.539 425.85 246.909 433.51C252.599 439.43 260.679 441.56 268.129 444.65C275.609 447.75 283.339 450.67 287.969 458.21C290.589 462.48 291.559 467.18 291.939 471.91C293.209 487.77 295.229 503.54 297.119 519.33C297.389 521.63 298.359 520.09 299.119 520.02C296.149 522.83 293.439 526.02 290.139 528.35C287.089 530.49 287.499 527.02 287.429 525.7C287.109 519.45 285.739 513.4 284.549 507.3C282.959 499.18 281.429 491.04 279.759 482.93C279.429 481.32 280.149 480.46 281.219 479.64C282.769 478.45 283.909 476.96 285.479 474.12C272.869 481.33 261.409 475.23 249.849 474.12C245.629 473.72 241.409 472.93 237.209 472.39C233.029 471.85 229.969 469.91 226.879 467.48C225.749 466.59 225.909 465.89 226.409 464.84C231.769 453.76 231.309 442.06 230.519 430.2C230.219 425.73 229.699 421.27 229.489 416.81C229.349 413.89 228.209 411.25 228.039 408.41C227.979 407.44 227.399 405.92 229.379 407.18L229.369 407.16Z" fill="#3B4459"/>
<path d="M337.322 234.86C337.792 245.67 335.272 255.92 331.362 265.88C330.252 268.71 328.072 270.9 325.672 272.69C321.842 275.54 317.842 278.16 313.922 280.88C311.872 281.8 309.812 281.67 307.742 280.96C304.312 280 300.912 278.89 297.442 278.12C292.492 277.02 288.422 274.52 284.922 270.95C278.542 265.12 275.652 257.72 274.422 249.29C273.732 244.6 274.132 240.56 277.032 236.77C278.332 235.08 279.722 233.99 281.962 234.34C283.642 234.6 285.352 234.63 287.042 234.54C289.992 234.38 292.362 235.4 294.352 237.57C295.582 238.92 296.912 240.18 298.522 241.09C301.962 243.03 305.282 242.71 308.272 240.14C308.862 239.63 309.452 239.1 309.962 238.51C314.112 233.59 319.312 232.17 325.442 233.79C327.802 234.42 330.172 234.58 332.602 234.14C334.222 233.85 335.892 233.72 337.332 234.86H337.322Z" fill="#EDD4AF"/>
<path d="M177.622 414.84C177.482 409.31 179.862 404.41 182.212 399.74C185.012 394.17 190.662 394.88 195.662 395.59C205.102 396.94 213.942 400.28 222.322 404.81C223.522 406.27 223.312 408.1 223.162 409.7C222.722 414.24 222.152 418.78 220.642 423.14C218.102 430.48 212.642 432.85 205.502 429.59C202.412 428.18 199.742 426.01 196.752 424.4C195.412 423.68 194.012 422.4 192.452 423.53C191.082 424.53 191.692 426.17 191.882 427.56C192.702 433.63 191.292 439.54 190.452 445.45C188.632 458.22 187.352 471.13 182.582 483.3C180.882 487.64 179.312 488.46 174.782 487.26C172.842 486.75 172.162 485.74 172.852 483.84C173.702 473.94 174.542 464.04 175.392 454.13C176.312 450.7 175.162 447.15 176.022 443.72C176.402 438.84 175.482 433.89 176.742 429.05C177.962 425.91 176.972 422.65 177.282 419.46C177.432 417.92 176.972 416.33 177.612 414.83L177.622 414.84Z" fill="#EED2AF"/>
<path d="M338.889 205.31C325.299 198.35 312.999 201.65 301.119 208.9C295.629 212.26 290.909 216.46 287.399 221.95C286.309 223.65 284.599 224.88 282.709 225.22C278.379 225.99 273.989 226.61 269.609 226.88C265.119 227.16 263.889 226.02 263.939 221.51C264.049 211.71 267.219 202.98 273.719 195.51C280.509 187.72 288.759 182.37 298.989 180.43C317.069 177.02 335.159 186.49 338.889 205.31V205.31Z" fill="#B2445B"/>
<path d="M379.8 351.5C385.04 361.93 390.27 372.36 395.51 382.79C397.43 388.14 394.88 392.17 390.93 394.94C381.52 401.52 373.48 409.73 364.38 416.64C362.83 417.82 361.39 419.2 360.21 420.73C355.55 426.77 349.99 431.79 343.44 435.7C342.77 436.1 342.17 436.6 341.66 437.2C341.22 437.77 340.77 438.34 340.35 438.92C339.7 439.78 339.2 440.77 338.14 441.24C337.53 441.58 336.93 440.96 336.32 441.21C336.76 441.6 337.34 441.83 337.67 442.36C337.95 443.41 337.46 444.16 336.72 444.82C335.7 446.16 335.93 447.75 335.81 449.27C335.65 451.15 335.07 453.39 333.33 453.69C331.6 453.99 332.01 451.36 331.11 450.24C330.83 449.76 330.68 449.24 330.68 448.68C330.91 447.21 331.48 445.77 331.18 444.47C331.26 444.91 331.16 445.58 331.03 446.25C330.73 447.14 330.46 448.04 329.6 448.58C328.39 448.76 327.22 448.88 327.13 447.14C324.97 445.39 325.27 443.29 326.23 441.08C328.49 439.74 326.73 438 326.69 436.46C324.82 438.52 326.82 441.97 324.05 443.66C319.4 438.87 321.04 429.75 327.28 425.71C328.05 425.52 328.83 425.33 329.6 425.14C331.78 424.59 334 424.23 336.21 423.82C337.92 423.44 339.78 423.82 341.38 422.83C345.3 421.92 347.95 419.15 350.65 416.47C352.71 413.97 354.91 411.62 356.58 408.78C358.29 405.88 360.46 403.28 363.25 401.19C366.6 398.69 369.3 395.44 372.25 392.49C375.98 388.76 376.03 387.51 372.97 383.07C372.15 381.88 371.18 380.82 370.31 379.68C368.22 376.94 367.33 373.85 368.03 370.47C369.53 363.2 373.73 357.4 378.38 351.86C378.73 351.44 379.23 351.29 379.78 351.5H379.8Z" fill="#EDD4AF"/>
<path d="M150.281 317.85C150.011 317.59 149.741 317.33 149.461 317.07C149.071 316.69 148.551 316.56 148.071 316.36C143.701 315.27 144.251 311.86 144.431 308.62C144.691 307.71 145.311 307.05 145.941 306.4C147.861 304.19 151.561 304.19 152.641 300.95C153.351 298.82 154.221 296.8 156.371 295.69C158.121 293.37 159.541 290.96 158.671 287.71C156.801 289.59 155.731 292.25 152.961 293.14C152.011 293.44 151.181 293.8 150.551 292.87C149.991 292.05 150.111 291.11 150.801 290.37C152.751 288.28 154.681 286.17 156.721 284.18C158.231 282.7 159.171 284.8 160.441 284.96C162.811 288.52 162.251 292.39 161.551 296.23C161.271 297.74 160.661 299.21 160.101 300.66C158.171 305.75 157.641 310.47 163.071 313.93C163.911 314.47 164.481 315.42 165.181 316.18C166.031 318.53 167.641 320.1 169.981 320.94C178.341 328.47 185.041 337.43 191.921 346.25C192.321 346.76 192.721 347.28 193.151 347.76C196.221 351.23 196.151 351.06 198.781 347.65C202.281 343.12 206.121 338.85 210.481 335.09C212.351 333.48 214.181 331.83 216.021 330.19C217.831 331.03 218.141 332.8 218.371 334.44C219.441 342.35 217.911 349.42 211.891 355.2C207.371 359.54 202.741 363.73 197.721 367.48C194.181 370.12 193.021 370.03 189.351 367.4C186.361 365.26 183.801 362.7 181.471 359.85C170.961 347.04 161.261 333.63 152.181 319.78C151.671 319.01 151.091 318.31 150.281 317.84V317.85Z" fill="#EDD3B0"/>
<path d="M172.861 483.84C173.121 488.04 176.671 485.78 178.591 486.62C180.611 487.5 180.641 485.24 181.141 484.05C185.601 473.53 186.761 462.25 188.581 451.14C189.631 444.76 190.261 438.31 190.941 431.87C191.141 429.95 191.081 428 190.411 426.08C189.871 424.54 190.091 422.99 191.591 421.89C193.101 420.78 194.361 421.72 195.551 422.41C198.361 424.03 201.121 425.76 203.861 427.5C211.611 432.43 217.321 430.46 219.921 421.69C221.541 416.21 222.361 410.55 222.311 404.81C224.891 405.43 223.561 407.89 224.401 409.37C225.081 410.57 224.311 412.24 225.221 413.51C226.761 415.71 225.061 418.34 226.191 420.6C226.221 423.4 226.251 426.2 226.281 429C227.481 435.62 227.451 442.25 226.301 448.87C226.121 451.79 226.681 454.89 224.171 457.22C222.821 456.93 222.051 456.03 221.601 454.79C212.321 446.61 203.531 437.95 195.521 428.52C194.981 427.88 194.361 427.5 193.491 427.61C191.771 430.2 193.491 431.97 194.961 433.79C196.531 436.07 198.101 438.35 199.681 440.62C200.441 442.13 199.351 443.94 200.471 445.39C202.101 450.37 200.291 455.16 199.441 459.92C197.241 472.3 193.401 484.28 190.251 496.43C189.591 498.99 187.291 499.11 185.601 499.94C183.851 500.79 182.831 499.02 181.931 497.79C179.441 494.35 177.451 490.58 173.171 488.68C171.191 487.8 172.211 485.54 172.851 483.86L172.861 483.84Z" fill="#C5A87F"/>
<path d="M328.061 541.92C328.521 537.87 331.311 536.7 334.841 536.45C335.361 536.41 335.881 536.45 336.401 536.43C342.171 536.15 342.331 536.15 342.121 542.28C341.911 548.36 341.731 554.4 343.191 560.36C343.571 561.92 343.251 562.92 341.671 563.8C338.221 565.74 334.741 566.83 330.681 567.14C323.631 567.67 316.431 567.5 309.631 570.07C304.101 572.16 298.521 570.27 293.041 569.85C289.721 569.6 289.001 565.39 287.511 562.81C283.821 556.42 285.801 549.76 287.401 543.21C287.631 542.28 288.301 541.89 289.131 541.98C293.881 542.48 298.311 540.27 303.011 540.39C299.121 543.95 300.531 547.82 302.321 551.73C303.791 554.95 305.871 557.75 308.111 560.47C309.751 562.46 311.411 562.64 313.541 561.38C319.521 557.86 322.651 552.36 324.511 545.93C325.621 544.53 327.111 543.47 328.061 541.93V541.92Z" fill="#3B4458"/>
<path d="M328.15 658.11C326.65 660.01 324.72 659.9 323.13 657.38C320.67 653.49 317.92 649.8 317.65 644.78C317.38 639.76 316.25 634.79 315.49 629.8C314.67 628.63 315.77 627.04 314.63 625.94C310.83 609.78 307.05 593.62 303.2 577.47C302.69 575.34 303.59 575.05 305.46 574.55C314.18 572.23 323.09 571.52 332.04 570.94C337.74 570.57 337.75 570.51 337.53 576.1C337.32 581.43 337.88 586.79 336.98 592.1C336.32 602.63 336.84 613.18 336.71 623.72C336.67 626.84 336.56 629.94 335.98 633.01C335.98 637.33 335.96 641.66 335.96 645.98C336.25 646.43 336.23 646.95 336.3 647.45C336.74 650.68 336.3 653.23 332.19 653.33C331.22 653.35 330.1 653.6 329.69 654.79L329.72 654.77C328.53 655.57 328.59 656.95 328.17 658.11H328.15Z" fill="#C5A97F"/>
<path d="M317.619 283.25C318.199 283.8 318.779 284.34 319.359 284.88C320.119 291.45 320.439 298.13 324.129 303.95C324.659 304.78 324.669 305.15 323.889 305.8C317.969 310.76 311.739 315.12 304.229 317.4C302.049 318.06 300.709 317.55 299.039 316.08C293.559 311.25 291.509 304.31 287.739 298.44C287.189 297.59 287.279 296.76 287.699 295.86C289.969 290.91 290.119 285.54 290.649 280C295.749 281.31 300.819 282.56 305.859 283.91C309.869 284.99 313.779 284.86 317.619 283.25V283.25Z" fill="#C5A87F"/>
<path d="M298.292 528.59C306.882 520.18 316.562 512.96 324.932 504.32C325.922 503.47 326.952 502.66 328.072 501.97C328.632 500.95 329.402 500.16 330.452 499.63C334.062 497.77 336.372 494.25 340.522 491.73C340.522 496.38 340.952 500.62 340.432 504.74C339.282 513.91 335.422 522.11 330.412 529.79C329.612 531.02 328.732 532.29 327.182 532.37C317.502 532.9 308.042 535.36 298.332 535.62C296.572 533.28 297.012 530.94 298.302 528.58L298.292 528.59Z" fill="#424E6D"/>
<path d="M150.281 317.85C153.391 318.27 154.211 321.18 155.551 323.18C164.081 335.9 173.281 348.12 182.841 360.07C185.291 363.13 188.331 365.61 191.541 367.84C192.491 368.5 193.601 369.21 194.781 368.34C202.211 362.87 209.811 357.47 214.931 349.65C218.911 343.58 218.591 336.85 216.031 330.19C217.121 329.01 218.221 327.82 219.481 326.46C220.821 330.12 220.771 333.79 222.851 336.75C226.121 340 228.651 343.79 230.881 347.79C231.931 349.66 234.261 350.07 235.861 351.91C225.841 358.17 215.931 364.08 206.471 370.7C202.751 373.31 198.821 375.62 195.011 378.1C193.301 379.21 191.961 379.12 190.791 377.28C185.031 368.18 177.971 360.04 171.251 351.67C163.871 342.48 157.931 332.47 152.511 322.08C152.031 321.16 151.451 320.3 150.911 319.41C150.701 318.89 150.491 318.36 150.281 317.84V317.85Z" fill="#C5A87F"/>
<path d="M163.459 496.46C165.499 495.08 168.009 494.69 169.999 493.14C171.659 491.84 173.249 492.56 174.399 494.06C175.819 495.92 177.109 497.87 178.419 499.8C181.549 504.44 184.449 505.33 189.219 502.64C191.269 501.48 192.179 502.07 192.569 503.98C194.359 512.7 195.249 521.49 193.959 530.38C193.759 531.78 193.079 532.72 191.419 532.75C186.919 532.83 182.229 532.59 179.019 529.3C174.809 524.98 169.889 522.66 164.169 521.57C163.529 520.65 163.499 519.6 163.759 518.59C165.289 512.52 164.259 506.56 163.169 500.58C162.919 499.19 162.539 497.78 163.459 496.47V496.46Z" fill="white"/>
<path d="M346 222.33C343.24 221.27 340.51 220.11 337.71 219.18C327.48 215.79 318.72 218.85 310.84 225.52C309.18 228.43 306.63 230.64 304.8 233.46C303.08 236.11 301.1 235.46 298.29 231.7C295.7 229.63 293.18 227.47 290.5 225.53C289.3 224.67 289.31 224.15 290.28 223.23C292.22 221.39 293.64 219.03 295.96 217.57C296.68 216.96 297.74 216.81 298.26 215.93C307.9 208.42 318.42 203.76 330.94 206.61C338.98 208.44 343.16 214.75 346.97 221.35C347.16 222.18 346.82 222.5 346 222.34V222.33Z" fill="#B2445A"/>
<path d="M238.781 333.51C245.331 331.56 248.741 326.99 249.741 320.39C250.061 318.27 249.741 315.06 251.741 314.61C253.311 314.26 253.761 317.61 254.461 319.38C256.761 325.17 261.511 329.24 264.801 334.35C268.941 340.77 269.961 348.01 271.661 355.11C272.911 360.35 272.291 365.71 272.531 371.01C269.601 367.75 266.701 364.47 263.731 361.25C262.801 360.24 262.151 359.22 262.321 357.8C262.791 353.83 263.211 349.86 263.731 345.9C264.131 342.83 263.881 340.07 261.411 337.76C258.561 335.1 256.471 331.82 254.571 328.42C253.961 327.32 253.271 325.5 251.951 326.18C250.501 326.93 251.281 328.73 251.931 329.98C253.241 332.48 254.671 334.93 256.051 337.39C256.281 338.46 256.271 339.53 256.051 340.6C251.671 343.94 247.671 343.607 244.051 339.6C242.251 337.6 240.541 335.54 238.791 333.5L238.781 333.51Z" fill="#863E4C"/>
<path d="M324.922 234.75C319.502 233.06 315.152 234.54 311.242 238.68C305.042 245.26 300.272 245.33 294.192 238.77C291.542 235.91 288.682 235.31 285.162 235.55C282.182 235.76 278.982 234.03 277.062 238.46C275.732 241.54 274.992 244.08 275.322 247.58C276.172 256.45 279.282 264.14 284.912 270.92C279.042 267.26 276.522 261.23 274.032 255.25C272.752 252.17 271.952 248.89 270.942 245.7C269.642 244.41 269.482 242.8 269.652 241.09C269.702 240.57 269.712 241.23 269.662 240.71C269.572 240.95 269.562 241.21 269.462 241.45C269.382 243.55 269.602 245.65 269.112 247.73C268.992 248.23 269.022 248.51 269.102 247.99C269.102 247.92 269.312 247.88 269.432 247.82C269.782 247.83 269.972 248 269.992 248.36C269.962 249.84 270.742 251.85 268.982 252.49C267.062 253.18 266.212 251.15 265.252 249.87C264.062 248.28 263.652 246.42 263.762 244.44C262.502 242.84 263.482 240.9 262.952 239.2C262.692 239.05 262.482 238.86 262.302 238.63C263.002 235.75 260.442 232.07 264.412 229.99C266.202 229.15 267.142 230.14 267.882 231.59C268.522 232.38 269.152 233.19 269.802 233.97C271.062 235.47 272.582 237.12 274.542 236.72C276.472 236.32 275.172 233.97 275.872 232.67C276.052 232.33 276.252 232 276.452 231.66C278.592 230.07 281.192 231.42 283.452 230.59C285.572 230.21 287.772 230.92 289.872 230.16C292.362 231.74 294.852 233.32 297.352 234.9C301.305 236.433 304.798 235.533 307.832 232.2C311.812 227.82 314.422 227.66 318.692 231.53C319.482 231.85 320.262 232.17 321.052 232.49C322.162 233.56 324.992 231.65 324.932 234.74L324.922 234.75Z" fill="#C6A77F"/>
<path d="M357.832 676.58C363.842 680.19 368.912 685.07 374.652 689.05C376.962 690.66 377.132 693.13 376.462 695.34C375.772 697.6 373.432 697.91 371.282 697.82C359.822 697.36 349.422 693.63 339.812 687.51C339.242 686.77 339.432 685.98 339.862 685.33C343.542 679.82 348.662 676.58 355.272 675.78C356.192 675.67 357.072 676 357.832 676.58V676.58Z" fill="white"/>
<path d="M324.948 545.82C323.968 554.03 319.288 559.48 312.168 563.19C310.548 564.04 309.258 563.42 308.328 562.34C303.818 557.06 300.028 551.43 299.148 544.23C298.738 540.91 301.658 541.58 303.008 540.37C309.778 540.3 316.388 538.85 323.098 538.17C324.878 537.99 326.658 537.56 326.488 540.33C325.578 542.05 326.678 544.33 324.958 545.82H324.948Z" fill="#424F6D"/>
<path d="M340.582 464.37C330.722 463.57 323.952 457.64 318.102 450.46C316.592 448.61 315.192 447.81 312.912 447.88C306.922 448.06 300.982 447.87 295.602 444.64C294.372 443.9 293.132 443.23 292.152 442.15C289.062 438.74 285.412 436.15 281.212 434.2C278.422 432.91 275.432 431.47 275.592 427.54C278.042 429.41 280.462 431.18 283.742 431.56C287.252 431.97 289.632 434.69 292.172 436.79C294.832 438.99 297.682 440.19 301.042 440.05C305.812 439.85 310.592 439.61 315.062 437.6C317.462 436.52 319.682 435.58 319.672 439.92C319.672 441.55 320.262 443.52 321.812 444.77C324.502 445.22 325.202 447.65 326.512 449.48C329.172 452.52 332.132 455.25 335.262 457.79C335.662 458.11 336.122 458.66 336.512 458.62C341.262 458.18 340.762 461.38 340.592 464.37H340.582Z" fill="#3C4358"/>
<path d="M286.482 404.89C283.702 408.08 284.792 411.97 285.252 415.36C285.722 418.85 285.692 422.35 285.972 425.82C286.232 429.05 283.262 427.72 282.172 427.07C280.092 425.84 278.242 424.08 276.622 422.25C269.912 414.66 266.482 405.78 267.002 395.59C267.302 389.69 264.982 384.08 265.392 378.2C264.482 377.36 265.422 376.39 265.202 375.4C264.512 372.29 265.172 371.86 268.542 372.69C270.112 373.74 271.462 375 272.422 376.65C273.032 384.13 272.102 391.7 274.022 399.11C274.942 402.66 276.152 406.06 277.822 409.3C278.232 410.09 278.792 411.08 279.812 410.89C280.962 410.67 280.692 409.45 280.792 408.6C281.252 404.46 282.372 400.44 283.062 396.34C283.292 394.97 283.572 393.11 285.342 393.19C286.902 393.26 286.722 395.11 287.082 396.3C287.622 399.22 288.522 402.16 286.482 404.9V404.89Z" fill="#863E4C"/>
<path d="M286.479 404.89C286.379 401.98 287.149 399 285.789 396.2C291.489 396.2 293.339 399.27 291.549 406.15C292.889 405.89 292.559 404.82 292.769 404.13C293.159 402.86 293.439 401.47 295.319 402.39C301.679 407.58 306.429 414.31 312.139 420.13C313.909 421.93 316.149 423.44 317.109 425.97C310.829 429.43 304.349 428.05 297.959 426.53C293.719 425.52 290.539 423.01 288.989 418.71C288.369 416.98 288.949 415.1 288.089 413.44C286.709 410.75 287.909 407.57 286.469 404.89H286.479Z" fill="#B2445A"/>
<path d="M295.329 402.39C291.899 403.24 294.789 406.63 293.039 408.16C289.989 406.24 290.499 406.38 291.219 403.57C291.619 401.99 292.469 398.89 289.529 398.02C288.119 397.6 287.249 396.34 285.799 396.2C285.709 395.33 285.619 394.47 285.539 393.6C285.249 393.57 284.949 393.53 284.659 393.5C283.729 398.62 282.779 403.74 281.879 408.87C281.619 410.33 282.519 412.55 280.649 412.98C278.649 413.44 277.429 411.34 276.689 409.82C274.009 404.31 271.999 398.44 271.829 392.34C271.679 387.14 270.399 381.79 272.429 376.64C279.229 384.1 286.039 391.55 292.849 399.01C293.799 400.05 295.069 400.85 295.329 402.39V402.39Z" fill="#B2445A"/>
<path d="M142.581 518.76C131.331 515.64 121.281 510.42 112.621 501.72C117.551 499.32 122.251 500.23 126.841 500.78C130.801 501.25 134.591 502.81 138.641 502.89C139.161 502.95 138.541 502.85 139.001 503.04C141.171 503.94 144.971 501.37 145.541 505.17C146.241 509.88 147.141 515.03 142.591 518.77L142.581 518.76Z" fill="#FEFEFE"/>
<path d="M337.37 302.84C330.21 309.16 323.13 315.59 315.19 320.94C310.6 324.03 305.46 325.76 300 326.4C295.57 326.92 292.72 324.31 290.44 320.92C286.16 314.55 283.83 307.16 279.89 300.61C278.96 299.06 278.07 297.48 277.16 295.91C281.72 296.03 284.43 298.58 286.35 302.5C288.97 307.84 291.7 313.06 295.56 317.77C298.8 321.72 302.79 321.6 307.48 320.26C315.71 317.92 321.89 312.23 328.28 306.96C330.97 304.74 333.98 303.43 337.37 302.84V302.84Z" fill="#853E4B"/>
<path d="M325.589 676.59C323.619 676.01 321.579 675.61 319.699 674.83C311.139 671.27 310.849 664.77 313.619 657.13C314.079 655.87 314.989 654.23 316.549 654.31C317.949 654.38 318.169 656.15 318.769 657.26C321.329 661.95 323.719 663.17 328.179 661.94C329.029 661.7 330.389 661.27 330.509 660.71C331.759 654.89 336.809 658.83 339.689 657.14C340.919 656.42 341.109 659 342.249 659.58C342.939 661.28 341.859 662.14 340.549 662.43C333.459 663.99 329.859 669.24 326.819 675.13C326.519 675.72 326.149 676.23 325.579 676.59H325.589Z" fill="#FEFEFE"/>
<path d="M288.1 413.44C289.53 414.55 288.85 416.32 289.44 417.74C292.23 424.54 298.04 426.22 304.44 426.69C308.66 427 312.95 427.02 317.13 425.96C319.26 426.8 320.23 427.83 319.78 430.6C319.32 433.38 318.08 433.51 315.84 434C310.02 435.28 304.2 436.87 298.33 435.28C293.98 434.1 290.59 431.36 289.49 426.52C288.51 422.2 287.92 417.87 288.11 413.44H288.1Z" fill="#863E4C"/>
<path d="M321.002 422.81C325.962 418.15 331.362 414.63 338.302 413.1C344.072 411.83 345.432 412.65 343.922 404.49C342.792 398.4 342.332 392.15 343.782 385.97C346.542 389.33 345.972 393.6 346.662 397.45C347.462 401.87 347.492 406.45 347.632 410.97C347.782 415.71 345.662 418.35 341.052 419.63C337.342 420.66 333.612 421.65 329.892 422.65C328.632 422.99 327.372 423.3 326.512 424.4C324.382 424.52 321.872 427.62 320.262 423.61C320.262 423.11 320.722 423.03 321.012 422.81H321.002Z" fill="#863E4C"/>
<path d="M135.389 519.92C145.159 522.61 155.079 524.22 165.209 524.87C168.859 525.11 172.559 526.47 175.159 529.65C177.959 533.07 181.869 534.37 186.109 534.93C187.879 535.16 189.629 535.55 191.369 536.37C187.399 537.22 183.459 538.62 179.459 536.54C177.039 535.28 174.539 534.08 172.369 532.47C167.289 528.71 161.629 527.8 155.469 527.74C148.259 527.67 141.349 525.99 135.379 521.56C134.949 521.01 134.879 520.47 135.389 519.93V519.92Z" fill="#B0445B"/>
<path d="M233.32 334.3C237.11 338.34 240.929 342.36 244.679 346.44C245.569 347.4 245.91 348.51 244.24 349.18C243 348.67 242.199 349.85 241.119 349.98C237.939 349.37 235.649 346.89 232.609 345.99C229.059 343 225.869 339.75 224.679 335.05C224.169 332.18 223.629 329.32 223.179 326.44C223.069 325.74 222.859 324.76 223.779 324.45C224.659 324.15 225.079 324.99 225.509 325.62C227.019 329.5 229.47 332.53 233.32 334.3Z" fill="#863E4C"/>
<path d="M333.462 681.41C332.402 680.57 331.352 679.74 330.292 678.9C329.462 675.67 331.762 673.72 333.622 671.96C336.722 669.03 340.252 666.54 344.642 665.76C345.372 665.68 346.102 666.1 346.832 665.8C348.162 667.3 349.482 668.79 350.812 670.29C346.242 671.82 342.092 674.05 338.282 677.04C336.552 678.39 335.852 680.84 333.462 681.42V681.41Z" fill="#B1465C"/>
<path d="M357.832 676.58C350.632 676.68 345.062 679.91 340.682 685.47C340.202 686.08 339.702 686.67 339.812 687.52C338.512 686.32 337.222 685.12 335.922 683.92C338.652 677.23 346.432 671.82 353.002 672.05C354.442 673.74 356.962 674.29 357.832 676.58V676.58Z" fill="#B0465D"/>
<path d="M154.929 520.77C153.129 520.58 151.219 521.26 149.529 520.12C149.409 519.35 149.269 518.55 149.599 517.83C152.059 512.43 152.239 506.63 152.629 500.86C154.159 500.22 155.689 499.58 157.229 498.94C160.649 505.49 159.539 515.97 154.939 520.76L154.929 520.77Z" fill="#B1465C"/>
<path d="M163.459 496.46C165.399 504.78 166.949 513.11 164.169 521.56C162.879 521.5 161.599 521.43 160.309 521.37C159.769 520.73 159.639 519.94 159.809 519.18C161.169 513.26 160.259 507.4 159.399 501.53C159.229 500.39 159.059 499.22 159.649 498.12C160.869 497.46 161.969 496.51 163.449 496.46H163.459Z" fill="#B2455D"/>
<path d="M325.59 676.59C328.13 669.18 332.18 663.26 340.5 661.61C341.65 661.38 342.4 660.89 342.26 659.58C343.28 661.32 344.29 663.06 345.31 664.79C344.42 666.05 342.87 665.74 341.69 666.31C336.29 667.44 333.31 671.47 330.49 675.68C329.93 676.52 329.69 677.59 328.77 678.19C327.71 677.66 326.65 677.12 325.59 676.59Z" fill="#B1475D"/>
<path d="M159.662 498.13C161.432 505.84 162.652 513.56 160.312 521.38C158.472 521.6 156.662 521.51 154.922 520.78C158.662 513.82 158.342 506.43 157.222 498.95C158.032 498.68 158.842 498.4 159.662 498.13V498.13Z" fill="#FAF6F6"/>
<path d="M318.67 231.54C311.49 229 311.16 229.08 307.23 234.39C303.17 239.87 302.77 239.89 297.34 234.91C298.64 234.13 298.21 232.84 298.29 231.7C299.16 232.24 300.15 232.66 300.88 233.36C302.52 234.94 303.57 234.33 304.43 232.61C305.91 229.66 308.07 227.32 310.84 225.53C310.99 226.58 310.4 227.98 311.97 228.41C313.55 228.84 313.61 227.34 314.35 226.58C314.97 225.95 315.03 222.6 317.16 225.44C317.36 226.81 317.9 227.79 319.42 228.19C320.4 228.45 321.88 228.38 321.84 230.08C320.66 230.29 319.03 229.53 318.68 231.54H318.67Z" fill="#3E3836"/>
<path d="M152.63 500.86C154.34 507.72 152.6 514.03 149.53 520.12C148.52 520.02 147.52 519.92 146.51 519.83C146.02 518.83 146.07 517.77 146.47 516.82C148.42 512.24 147.07 507.37 147.81 502.69C149.18 501.46 151.03 501.49 152.63 500.86V500.86Z" fill="#FEF9F9"/>
<path d="M352.999 672.05C345.639 673.6 340.479 678.33 335.919 683.92C335.099 683.08 334.279 682.25 333.449 681.41C337.759 675.4 342.989 670.82 350.799 670.29C351.529 670.88 352.259 671.46 352.989 672.05H352.999Z" fill="#FEF9F9"/>
<path d="M339.759 438.48C340.059 437.97 340.349 437.46 340.649 436.94C343.559 437.68 344.999 440.12 346.769 442.2C346.779 444.23 347.089 446.34 345.289 447.9C343.749 448.29 342.539 448.91 343.389 450.83C343.849 451.85 343.999 452.84 343.049 453.64C341.639 454.82 340.249 457.52 338.419 456.12C336.389 454.58 337.279 451.72 338.139 449.41C339.799 448.5 337.789 446.23 339.629 445.38C340.989 444.91 342.729 446.52 343.799 444.59C343.919 442.42 342.509 443.54 341.619 443.57C341.099 443.72 340.579 443.72 340.069 443.53C339.749 443.33 339.559 443.05 339.499 442.68C339.409 441.26 339.969 439.88 339.779 438.45L339.759 438.48Z" fill="#C4A880"/>
<path d="M147.809 502.7C150.009 508.61 148.549 514.25 146.509 519.83C145.199 519.47 143.889 519.11 142.579 518.76C145.159 514.53 144.949 509.87 144.709 505.2C144.629 503.59 143.769 503.34 142.369 503.46C141.109 503.57 139.759 503.83 138.629 502.88C141.689 502.82 144.749 502.76 147.809 502.69V502.7Z" fill="#B0485E"/>
<path d="M324.919 234.75C324.329 232.78 322.029 233.77 321.039 232.5C324.399 232.25 327.509 231.6 328.929 227.94C329.369 226.79 330.679 226.72 331.099 227.48C332.689 230.39 335.389 232.29 337.329 234.86C333.199 234.58 329.039 236.63 324.929 234.75H324.919Z" fill="#C5A87E"/>
<path d="M328.76 678.19C330.95 672.04 334.35 667.1 341.25 665.65C342.66 665.49 344.25 664.35 345.26 666.37C338.62 668.57 332.9 671.88 330.28 678.89C329.77 678.66 329.26 678.42 328.75 678.19H328.76Z" fill="#FCF1F3"/>
<path d="M337.729 226.07C337.239 223.73 338.259 223.91 339.789 224.6C341.899 225.54 345.399 231.47 345.029 233.8C344.789 235.28 343.789 234.73 342.979 234.36C340.499 233.23 337.739 228.79 337.729 226.07Z" fill="#7B4F25"/>
<path d="M224.692 335.06C227.332 338.71 229.972 342.36 232.622 346C231.502 346.07 230.942 346.69 230.882 347.79C227.442 344.66 224.782 340.98 222.852 336.75C223.902 336.66 224.642 336.23 224.692 335.06Z" fill="#3D3834"/>
<path d="M326.501 449.48C324.931 447.91 323.371 446.34 321.801 444.77C322.261 443.82 323.951 445.38 324.051 443.68C324.801 441.35 324.901 438.95 325.061 436.53C325.131 435.54 325.271 432.92 327.401 435.4C327.701 437.18 328.061 438.96 327.191 440.69C326.051 442.83 326.341 444.99 327.121 447.15C325.941 447.66 325.941 448.49 326.501 449.47V449.48Z" fill="#3C3A39"/>
<path d="M326.502 680.59C329.532 681.9 332.052 683.93 334.222 686.34C336.582 688.96 339.382 691.01 342.202 693.05C342.562 693.4 342.532 693.71 342.122 693.99C341.162 693.6 340.032 693.42 339.282 692.78C334.602 688.81 330.182 684.5 324.762 681.48C325.112 680.73 325.782 680.63 326.492 680.59H326.502Z" fill="#92485A"/>
<path d="M298.291 528.59C298.301 530.94 298.311 533.28 298.321 535.63C296.821 535.89 295.321 536.23 293.801 536.37C292.841 536.45 291.531 536.92 290.971 535.87C290.351 534.69 291.661 534.06 292.361 533.44C294.271 531.76 296.301 530.2 298.281 528.6L298.291 528.59Z" fill="#3D4356"/>
<path d="M340.64 522.5C340.64 524.55 340.53 525.86 340.66 527.13C341 530.53 338.94 532.06 335.61 530.91C334.16 530.41 334.71 529.76 335.19 528.89C336.45 526.6 338.45 524.97 340.64 522.49V522.5Z" fill="#3E4255"/>
<path d="M335.972 633.01C335.952 620.38 335.912 607.75 335.922 595.12C335.922 594.04 335.432 592.69 336.972 592.1C337.112 592.54 337.262 592.98 337.402 593.41C336.632 602.9 337.302 612.4 337.042 621.89C336.972 624.47 337.482 627.09 336.712 629.64C336.402 630.75 336.802 632.01 335.972 633V633.01Z" fill="#B6A590"/>
<path d="M321.831 230.08C320.811 228.94 319.271 229.08 318.001 228.76C315.301 228.08 315.871 226.94 317.151 225.44C320.611 223.86 322.481 227.12 325.221 227.91C324.681 229.8 322.801 229.2 321.831 230.08Z" fill="#77502C"/>
<path d="M336.711 629.65C336.741 618.58 336.771 607.51 336.811 596.43C336.811 595.4 336.751 594.33 337.411 593.41C337.431 604.53 337.451 615.65 337.461 626.77C337.461 627.78 337.671 628.87 336.711 629.64V629.65Z" fill="#483826"/>
<path d="M326.501 680.59C326.131 681.29 325.441 681.36 324.771 681.48C321.551 681.47 318.701 680.5 316.291 678.31C315.504 677.417 315.534 676.853 316.381 676.62C319.681 678.12 323.441 678.47 326.501 680.59V680.59Z" fill="#A1445C"/>
<path d="M233.32 334.3C228.62 333.55 225.15 329.68 225.51 325.62C228.35 328.3 230.97 331.18 233.32 334.3Z" fill="#A6455C"/>
<path d="M268.551 372.69C266.481 372.69 264.121 372.83 266.211 375.67C267.511 377.43 264.581 377.07 265.391 378.21C263.501 375.11 263.951 371.64 263.621 367.87C266.021 369.04 267.151 371.01 268.551 372.69V372.69Z" fill="#7B404C"/>
<path d="M374.251 701.71C367.581 702.27 361.041 701.63 354.711 699.37C354.551 698.64 354.711 698.23 355.571 698.53C361.501 699.51 367.291 701.58 373.441 700.9C374.271 700.6 374.431 700.98 374.251 701.7V701.71Z" fill="#8E4C5E"/>
<path d="M329.67 654.8C329.56 653.12 331.12 652.8 332.01 652.75C336.89 652.46 335.75 648.88 335.95 645.99C337.37 648.19 336.32 650.82 337.25 653.17C337.81 654.58 336.52 654.79 335.32 654.39C333.38 653.74 331.49 653.84 329.67 654.8Z" fill="#BEA684"/>
<path d="M226.86 429.16C228.3 430.04 227.77 431.48 227.78 432.7C227.83 437.91 227.79 443.12 227.78 448.32C227.78 448.42 227.67 448.6 227.61 448.6C227.39 448.6 227.17 448.54 226.95 448.5C226.4 442.05 226.56 435.6 226.86 429.15V429.16Z" fill="#453926"/>
<path d="M226.859 429.16C226.889 435.61 226.919 442.06 226.949 448.51C226.739 448.62 226.519 448.73 226.309 448.85C226.309 442.23 226.299 435.6 226.289 428.98C226.469 429.06 226.659 429.12 226.859 429.16Z" fill="#B4A894"/>
<path d="M339.761 438.48C341.331 440.05 340.531 441.63 339.761 443.2C339.851 444.44 339.321 445.28 338.161 445.73C337.681 445.43 337.191 445.13 336.711 444.83C336.951 444.09 337.191 443.35 337.431 442.61C338.211 442.27 338.461 441.7 338.231 440.89C338.741 440.09 339.251 439.28 339.761 438.48V438.48Z" fill="#C6A97F"/>
<path d="M355.569 698.54C355.279 698.82 354.999 699.1 354.709 699.38C351.989 698.34 349.279 697.31 346.559 696.27C349.929 695.87 352.879 696.76 355.569 698.54Z" fill="#874758"/>
<path d="M345.289 447.9C346.409 445.94 345.919 443.76 346.169 441.67C346.459 440.49 347.029 439.69 348.429 440.03C348.459 441.66 348.589 443.3 347.659 444.77C346.509 445.54 347.939 448.26 345.299 447.9H345.289Z" fill="#3E372C"/>
<path d="M323.391 224.63C324.121 222.16 326.261 222.56 328.081 222.32C328.911 223.42 330.901 222.66 331.371 224.36C331.221 224.8 330.921 225.02 330.451 225C328.101 224.81 325.711 225.42 323.391 224.63V224.63Z" fill="#684D35"/>
<path d="M194.98 433.78C191.3 431.49 190.83 429.53 193.51 427.6C194 429.66 194.49 431.72 194.98 433.78Z" fill="#BAA484"/>
<path d="M177.62 414.84C177.64 418.55 177.68 422.25 177.66 425.96C177.66 427.06 178.01 428.31 176.75 429.06C177.12 424.32 176.27 419.51 177.62 414.84Z" fill="#E0D3BF"/>
<path d="M289.862 230.18C287.842 231.61 285.442 230.71 283.282 231.27C280.992 231.13 278.672 231.6 276.402 230.96C280.792 229.11 285.382 230.53 289.862 230.18Z" fill="#433825"/>
<path d="M324.949 545.82C324.869 543.82 325.199 541.94 326.479 540.33C326.569 541.28 326.109 542.8 328.049 541.91C327.639 543.71 327.319 545.58 324.939 545.82H324.949Z" fill="#363E48"/>
<path d="M269.99 248.38C269.77 248.3 269.55 248.21 269.33 248.12C268.6 245.8 268.89 243.46 269.18 241.12C269.39 240.82 269.68 239.83 269.94 240.57C270.53 242.2 270.64 244 270.94 245.72C269.93 246.36 270.15 247.44 269.99 248.38Z" fill="#4D3B27"/>
<path d="M169.98 320.94C166.72 321.02 165.18 319.38 165.18 316.18C166.78 317.77 168.38 319.36 169.98 320.94Z" fill="#E9D4BA"/>
<path d="M317.852 504.3C319.442 502.44 320.692 500.19 323.362 499.62C322.082 501.84 320.772 504.02 317.852 504.3Z" fill="#37393F"/>
<path d="M338.159 445.72C338.689 444.88 339.229 444.04 339.759 443.19L339.849 443.24C340.439 444.02 340.489 444.79 339.809 445.55C339.609 446.23 338.959 446.83 339.539 447.64C341.149 449.87 339.229 449.32 338.129 449.41C338.129 448.18 338.149 446.95 338.159 445.71V445.72Z" fill="#BDAA90"/>
<path d="M135.392 519.92C135.392 520.46 135.392 521.01 135.382 521.55C133.722 520.62 131.722 520.2 130.602 518.44C130.892 518.13 131.202 518.09 131.532 518.36C133.012 518.4 134.372 518.75 135.392 519.91V519.92Z" fill="#94505E"/>
<path d="M331.199 224.61C331.199 224.35 331.199 224.09 331.199 223.84C331.329 223.72 331.469 223.59 331.599 223.46C332.349 223.1 333.019 223.28 333.629 223.77C334.539 224.72 334.659 225.92 334.829 227.11C333.219 227.38 332.909 225.94 332.009 225.39C331.739 225.13 331.279 225.07 331.209 224.61H331.199Z" fill="#7F4B2E"/>
<path d="M176.029 443.73C175.819 447.2 176.849 450.74 175.399 454.14C175.429 450.66 174.879 447.15 176.029 443.73Z" fill="#DED0C2"/>
<path d="M331.201 224.61C331.471 224.87 331.731 225.13 332.001 225.39C329.141 225.02 326.141 226.28 323.391 224.64C325.991 224.64 328.601 224.62 331.201 224.61Z" fill="#4D331E"/>
<path d="M287.951 227.99C286.161 228.8 284.801 228.58 283.051 228.34C284.601 226.94 285.891 226.51 287.951 227.99Z" fill="#715030"/>
<path d="M271.619 231.74C270.999 231 269.299 230.93 270.109 229.31C271.679 228.77 273.229 228.68 274.779 229.38C274.279 229.9 273.789 230.43 273.289 230.95C272.639 231.03 272.239 231.62 271.619 231.75V231.74Z" fill="#6A523E"/>
<path d="M256.039 340.61C254.529 339.54 254.559 338.47 256.039 337.4C257.809 338.47 257.939 339.54 256.039 340.61Z" fill="#78454F"/>
<path d="M342.129 694C342.159 693.69 342.179 693.38 342.209 693.06C343.159 693.56 344.109 694.07 345.519 694.81C343.679 695.54 342.599 695.8 342.129 693.99V694Z" fill="#895260"/>
<path d="M276.401 230.95C278.701 230.95 281.011 230.62 283.281 231.26C281.041 232.13 278.721 231.45 276.441 231.68C276.371 231.44 276.351 231.2 276.391 230.95H276.401Z" fill="#B8AB97"/>
<path d="M329.59 448.59C329.68 447.77 329.5 446.86 330.34 446.28C332.34 446.48 331.49 447.69 331.21 448.71C331.18 449.22 331.14 449.73 331.11 450.24C330.6 449.69 330.1 449.14 329.59 448.59Z" fill="#3C3A39"/>
<path d="M226.2 420.59C224.88 418.36 225.7 415.84 225.23 413.5C227.26 415.63 225.81 418.23 226.2 420.59Z" fill="#483826"/>
<path d="M307.742 280.95C309.802 280.92 311.862 280.9 313.922 280.87C311.882 282.36 309.822 282.24 307.742 280.95Z" fill="#443727"/>
<path d="M345.272 666.37C344.102 665.21 342.592 665.94 341.262 665.65C342.462 664.68 343.972 665.15 345.302 664.79C345.812 665.12 346.322 665.46 346.832 665.79C346.522 666.56 345.902 666.48 345.272 666.37Z" fill="#FBE1EB"/>
<path d="M262.948 238.95C264.848 240.55 263.418 242.64 263.748 244.46C263.528 244.37 263.308 244.28 263.088 244.19C262.338 242.46 262.578 240.7 262.948 238.94V238.95Z" fill="#BAAA92"/>
<path d="M271.621 231.74C271.821 230.72 272.001 229.66 273.291 230.94C273.171 231.61 273.471 232.54 272.661 232.83C271.831 233.13 271.801 232.27 271.621 231.73V231.74Z" fill="#7E4B21"/>
<path d="M316.381 676.62C315.441 677.13 316.261 677.74 316.291 678.31C314.881 677.92 313.661 676.89 314.421 675.62C315.051 674.57 315.811 676.02 316.381 676.62Z" fill="#96415A"/>
<path d="M331.2 223.83C330 223.66 328.35 224.42 328.09 222.32C329.12 222.32 330.16 222.32 331.19 222.32C331.67 222.82 331.67 223.33 331.2 223.84V223.83Z" fill="#804C19"/>
<path d="M328.07 501.97C327.37 503.21 326.51 504.25 324.93 504.32C325.48 502.88 325.92 501.28 328.07 501.97Z" fill="#37393F"/>
<path d="M200.489 445.38C198.429 444.09 200.199 442.16 199.699 440.61C200.909 442.04 200.299 443.78 200.489 445.38Z" fill="#BAA491"/>
<path d="M262.951 238.95C263.001 240.7 263.051 242.45 263.091 244.2C261.501 242.54 262.571 240.5 262.291 238.66C262.511 238.76 262.721 238.86 262.941 238.96L262.951 238.95Z" fill="#443928"/>
<path d="M374.251 701.71C373.981 701.44 373.711 701.18 373.441 700.91C374.121 700.1 374.991 700.01 375.891 700.39C376.061 700.46 376.111 701.27 376.081 701.28C375.481 701.47 374.871 701.58 374.251 701.71Z" fill="#7C3F50"/>
<path d="M267.88 231.61C266.37 231.84 266.14 229.3 264.41 230.01C266.54 228.42 267.56 229.26 267.88 231.61Z" fill="#B4A485"/>
<path d="M314.629 625.94C316.519 626.87 315.059 628.54 315.489 629.8C314.469 628.68 314.839 627.25 314.629 625.94Z" fill="#BAAA91"/>
<path d="M330.452 499.63C329.912 500.67 329.132 501.46 328.072 501.97C327.892 500.21 328.692 499.43 330.452 499.63Z" fill="#37393F"/>
<path d="M274.791 229.37C273.231 229.35 271.671 229.33 270.121 229.3C271.691 228.15 273.251 228.08 274.791 229.37Z" fill="#4C3222"/>
<path d="M221.621 454.77C222.481 455.58 223.331 456.39 224.191 457.2C222.271 457.52 221.321 456.8 221.621 454.77Z" fill="#413628"/>
<path d="M331.19 223.84C331.19 223.33 331.19 222.83 331.18 222.32C332.33 222.24 333.42 222.27 333.63 223.77C332.82 223.79 332.01 223.81 331.2 223.83L331.19 223.84Z" fill="#684D35"/>
<path d="M241.129 349.99C242.029 349.18 242.799 347.88 244.249 349.19C243.249 349.59 242.419 350.71 241.129 349.99Z" fill="#8D4F5B"/>
<path d="M346 222.33C346.32 222 346.64 221.67 346.97 221.35C347.53 221.95 348.91 222.49 348.01 223.38C347.09 224.3 346.59 222.89 346 222.33V222.33Z" fill="#A0475F"/>
<path d="M328.15 658.11C328.24 656.8 327.38 655.05 329.7 654.77C329.18 655.88 328.67 656.99 328.15 658.11Z" fill="#BEA684"/>
<path d="M131.529 518.36C131.219 518.38 130.909 518.41 130.599 518.43C130.049 518.19 129.489 517.98 128.959 517.7C128.899 517.67 128.979 517.14 129.019 517.14C130.089 517.04 130.849 517.62 131.529 518.36V518.36Z" fill="#794F58"/>
<path d="M321.001 422.81C320.751 423.08 320.501 423.35 320.251 423.61C319.261 423.15 318.681 422.4 318.551 421.31C319.371 421.81 320.181 422.31 321.001 422.8V422.81Z" fill="#9C4958"/>
<path d="M298.261 215.93C298.261 217.56 297.131 217.59 295.961 217.57C296.411 216.58 297.161 216.01 298.261 215.93Z" fill="#8C4B56"/>
<path d="M348.422 440.03C347.672 440.58 346.912 441.12 346.162 441.67C343.882 440.6 341.852 439.26 340.652 436.94C344.832 432.69 350.552 430.44 354.542 425.84C365.042 413.75 377.582 403.92 390.332 394.36C394.142 391.5 395.752 387.53 395.512 382.79C396.222 383.86 396.942 384.92 397.652 385.99C399.832 389.31 399.522 392.32 396.382 394.83C388.012 401.51 380.212 408.81 372.562 416.28C364.492 424.17 356.472 432.11 348.432 440.03H348.422Z" fill="#C6A97F"/>
<path d="M379.802 351.5C375.592 356.92 371.252 362.23 369.362 369.06C368.222 373.18 368.832 376.73 371.712 379.88C371.972 380.17 372.262 380.43 372.512 380.73C377.892 387.15 377.742 388.38 371.912 394.31C365.952 400.38 358.912 405.45 354.612 413.09C353.782 414.57 352.762 416.28 350.652 416.47C356.652 406.51 362.612 396.48 371.982 389.22C373.802 387.81 373.212 387.27 372.332 385.93C367.952 379.32 363.572 372.71 359.962 365.61C358.962 363.65 359.162 362.8 360.852 361.61C366.772 357.39 372.592 353.04 378.482 348.72C379.172 349.58 379.712 350.43 379.802 351.5Z" fill="#C5A97F"/>
<path d="M343.781 371.18C345.451 363.14 343.711 355.17 343.091 347.21C342.651 341.55 341.511 335.95 340.691 330.32C341.701 331.91 342.711 333.5 343.731 335.09C344.521 335.7 344.671 336.73 345.281 337.46C349.841 344.85 351.961 353.04 353.251 361.52C354.111 367.18 352.261 372.48 350.891 377.78C350.101 380.84 350.411 384.24 347.991 387.78C346.851 383.92 345.421 380.88 345.251 377.42C343.461 375.65 345.081 373.08 343.781 371.19V371.18Z" fill="#863E4C"/>
<path d="M348.449 332.73C351.009 336.57 353.579 340.4 356.139 344.25C360.509 350.82 363.029 351.62 369.379 347.43C372.619 345.29 376.269 343.38 378.309 339.73C380.509 343.52 380.059 345.04 376.539 347.29C370.779 350.98 365.109 354.82 359.409 358.6C358.379 359.13 357.339 359.38 356.329 358.56C354.749 350.96 352.899 343.45 349.479 336.42C348.909 335.25 348.259 334.11 348.459 332.73H348.449Z" fill="#863E4C"/>
<path d="M343.779 371.18C346.879 372.64 344.609 375.37 345.249 377.41C344.259 377.41 343.259 377.41 342.269 377.41C341.979 375.14 343.409 373.29 343.779 371.18Z" fill="#4C373A"/>
<path d="M341.379 422.85C340.139 424.31 338.459 424.45 336.719 424.43C335.129 424.98 333.549 425.03 331.969 424.4C332.239 424.13 332.519 423.85 332.789 423.58C334.809 422.65 337.079 423.88 339.089 422.86C339.849 422.86 340.619 422.86 341.379 422.86V422.85Z" fill="#B1A28E"/>
<path d="M331.972 424.39C333.552 424.4 335.142 424.41 336.722 424.42C334.482 425.93 331.982 424.98 329.602 425.16C330.182 424.27 331.112 424.43 331.972 424.39Z" fill="#C4A681"/>
<path d="M339.089 422.85C337.139 424.37 334.889 423.31 332.789 423.57C334.749 422.09 336.999 423.16 339.089 422.85Z" fill="#4A3925"/>
<path d="M343.679 382.98C342.659 381.55 342.629 379.83 342.289 378.2C344.329 379.34 343.639 381.27 343.679 382.98Z" fill="#4C373A"/>
<path d="M356.32 358.56C357.35 358.57 358.38 358.58 359.4 358.6C358.37 359.14 357.31 361.37 356.32 358.56Z" fill="#673E49"/>
<path d="M345.281 337.46C344.291 336.98 343.721 336.22 343.731 335.09C345.331 335.17 345.321 336.31 345.281 337.46Z" fill="#57343B"/>
<path d="M132.28 297.47C133.36 299.59 134.37 301.76 135.55 303.83C136.89 306.17 136.02 307.45 133.74 308.22C130.38 307.88 125.49 301.7 126.27 298.62C126.61 297.26 127.37 296.25 128.97 295.66C131.1 294.87 131.29 296.72 132.28 297.48V297.47Z" fill="#E9D1B1"/>
<path d="M134.042 291.32C139.562 291.08 143.602 295.94 142.362 301.4C142.142 302.37 141.912 303.5 140.682 303.75C139.552 303.98 138.612 303.4 137.992 302.55C136.552 300.62 135.222 298.6 133.852 296.62C133.912 294.85 133.982 293.09 134.042 291.32Z" fill="#EBD3AE"/>
<path d="M144.822 308.51C145.442 311.43 145.042 314.85 148.662 316.28C147.072 316.9 145.472 316.83 143.872 316.33C140.262 316.16 138.512 312.7 135.442 311.56C135.212 310.94 134.392 310.38 135.662 309.79C136.782 309.27 138.102 308.87 138.742 307.6C139.892 306.06 141.002 305.81 142.052 307.68C142.022 309.16 142.642 308.33 143.132 307.95C143.862 307.65 144.742 306.91 144.822 308.52V308.51Z" fill="#C4A881"/>
<path d="M143.871 316.34C145.471 316.32 147.061 316.3 148.661 316.29C148.931 316.55 149.201 316.81 149.471 317.08C147.911 317.11 146.341 317.14 144.781 317.17C144.481 316.9 144.181 316.62 143.881 316.35L143.871 316.34Z" fill="#ACA695"/>
<path d="M147.98 290.78C147.25 292.98 148.15 294.43 149.55 295.47C150.66 296.29 150.7 297.15 149.99 297.97C149.34 298.71 148.33 299.53 147.27 298.64C144.2 296.05 142.48 292.49 141.21 288.85C140.64 287.21 142.72 286.5 144.22 285.97C145.96 285.35 147.08 286.11 147.61 287.6C147.99 288.66 147.89 289.89 147.98 290.78V290.78Z" fill="#EAD2B1"/>
<path d="M156.38 295.68C155.36 297.62 154.34 299.55 153.32 301.49C151.29 303.83 148.16 304.45 145.81 306.31C145.16 306.92 144.46 307.52 143.53 307.08C142.69 306.69 142.68 305.98 143.18 305.25C144.1 303.71 144.8 302.09 144.93 300.25C149.53 301.82 150.62 301.46 152.66 297.04C153.57 295.06 154.78 295.17 156.37 295.69L156.38 295.68Z" fill="#C0A782"/>
<path d="M149.452 284.48C149.352 282.77 149.972 281.71 151.862 281.76C152.992 281.79 154.302 282.18 153.992 283.38C153.572 285 152.142 286.41 150.632 286.86C149.622 287.16 149.502 285.5 149.452 284.48V284.48Z" fill="#E8D3B6"/>
<path d="M143.182 305.25C143.882 308.36 144.852 305.33 145.682 305.36C146.252 305.79 146.372 306.41 146.402 307.07C145.872 307.55 145.352 308.03 144.822 308.51C144.282 307.58 143.702 308.41 143.142 308.48C142.572 308.92 142.072 308.85 141.642 308.28C141.132 306.07 139.882 307.08 138.742 307.61C139.022 304.58 142.242 307.05 143.172 305.25H143.182Z" fill="#B6A28C"/>
<path d="M331.21 448.71C331.18 447.81 331.31 446.85 330.34 446.28C330.68 444.61 329.76 442.68 332.01 440.52C331.88 443.79 332.7 446.28 331.21 448.71Z" fill="#463A28"/>
<path d="M338.229 440.88C338.659 441.78 338.579 442.44 337.419 442.6C336.819 442.38 336.119 442.3 335.649 441.91C334.759 441.17 333.559 439.93 334.499 439.02C336.069 437.5 335.829 440.19 336.789 440.43C337.269 440.55 337.739 440.73 338.219 440.88H338.229Z" fill="#44382F"/>
<path d="M334.002 436.31C331.892 437.44 330.682 437.05 329.832 435.51C329.532 434.96 329.502 433.96 330.172 433.93C331.812 433.85 332.372 435.52 334.002 436.32V436.31Z" fill="#483F36"/>
<path d="M327.991 430.98C326.751 432.87 325.531 432.33 324.421 431.19C323.941 430.7 323.921 429.65 324.431 429.47C325.991 428.93 326.601 430.8 327.991 430.98V430.98Z" fill="#4A3E3A"/>
<path d="M327.191 440.69C327.261 438.93 327.331 437.16 327.401 435.4C328.541 437.13 328.071 439 327.831 440.84C327.831 440.88 327.601 440.93 327.501 440.91C327.391 440.88 327.291 440.77 327.191 440.69V440.69Z" fill="#E5D5C0"/>
<path d="M146.401 307.07C145.571 306.75 145.531 306.09 145.681 305.36C148.231 304.07 150.771 302.78 153.321 301.49C153.621 303.84 151.351 303.77 150.201 304.7C149.051 305.63 147.681 306.29 146.401 307.07V307.07Z" fill="#483932"/>
<path d="M332.719 617.62C332.529 625.26 333.539 632.99 331.159 640.48C330.689 641.96 330.229 643.48 329.459 644.8C328.539 646.38 326.879 647 325.089 646.77C323.359 646.55 323.489 644.97 323.229 643.73C319.759 626.59 315.549 609.58 313.319 592.21C312.859 588.66 312.709 584.97 314.179 581.42C315.609 577.99 318.229 576.05 321.589 575.05C323.779 574.39 325.579 575.08 326.919 577.17C330.399 582.63 330.939 588.9 331.879 595.02C333.029 602.5 332.809 610.06 332.699 617.61L332.719 617.62Z" fill="#EDD4AF"/>
<path d="M269.181 241.11C269.231 243.44 269.281 245.78 269.331 248.11C267.881 245.81 268.301 243.46 269.181 241.11Z" fill="#B9A997"/>
<path d="M339.809 445.56C339.819 444.79 339.839 444.02 339.849 443.25C340.349 443.25 340.849 443.26 341.349 443.27C342.569 443.39 343.659 443.8 344.439 444.81C343.449 448.5 341.549 446.51 339.809 445.56Z" fill="#483E34"/>
<path d="M344.442 444.81C343.222 444.68 341.792 444.96 341.352 443.27C342.042 441.67 342.792 441.82 344.252 442.67C345.772 443.56 345.302 444.01 344.442 444.81V444.81Z" fill="#C6A97F"/>
<path d="M141.642 308.28C142.142 308.35 142.642 308.41 143.142 308.48C143.392 310.02 142.382 310.05 141.322 309.98C140.862 309.95 140.252 309.97 140.282 309.26C140.322 308.42 141.112 308.51 141.632 308.28H141.642Z" fill="#383A3C"/>
</svg>
