<svg width="596" height="842" viewBox="0 0 596 842" fill="none" xmlns="http://www.w3.org/2000/svg">
<path d="M323.76 402.71C327.21 407.64 327.54 413.55 328.93 419.14C331.21 428.28 336.63 436.05 340.07 444.67C344.85 456.63 346.49 469.31 346.96 482.01C347.54 497.57 347.42 513.17 346.94 528.74C346.73 535.54 346.69 542.38 346.04 549.15C345.69 552.8 345.38 556.93 341.29 558.99C340.55 558.43 340.24 557.64 340.09 556.76C342.4 549.19 341.09 541.21 342.62 533.55C342.78 533.03 342.98 532.52 343.17 532.01C344.38 528.37 343.65 524.64 343.71 520.95C343.41 517.13 341.04 516.13 337.65 516.47C334.34 516.8 332.84 518.64 332.83 521.95C332.81 525.19 333.14 528.39 333.44 531.61C333.85 536.04 334.81 540.67 331.36 544.53C329.51 544.94 328.83 543.8 328.37 542.33C327.82 538.71 328.15 535.06 328.09 531.43C328.11 526.78 329.33 521.63 323.17 519.52C322.79 519.28 322.47 518.97 322.22 518.6C317.14 517.82 312.08 517.7 307.04 518.87C306.63 519.16 306.19 519.38 305.73 519.56C297.44 521.17 289.1 522.61 281.24 525.85C279.83 526.35 279.87 528.15 278.62 528.79C270.8 519.44 267.17 507.96 263.83 496.7C260.18 484.39 254.31 473.56 247.13 463.13C239.65 452.27 235.28 440.05 232.75 427.16C232.06 423.62 232.14 420.03 232.56 416.49C232.86 413.96 232.34 411.71 231.32 409.48C231.84 408.73 232.61 408.5 233.46 408.43C236.36 408.84 239.26 409.28 242.19 408.78C247.5 408.14 252.59 406.14 258 406.12C259.31 406.34 260.73 406.39 261.24 407.99C260.6 410.33 258.49 410.54 256.65 411.03C251.77 412.32 246.84 413.29 241.79 413.79C236.36 414.33 235.74 415.43 236.28 420.66C237.93 436.73 243.46 451.32 252.84 464.45C259.88 474.31 265.89 484.58 268.43 496.71C269.96 504.03 273.7 510.69 276.38 517.67C277.69 521.07 279.18 521.44 282.01 519.82C282.98 519.26 284.11 518.94 285.18 518.55C297.7 514.63 310.4 512.11 323.59 513.89C327.09 514.36 327.39 512.47 327.16 509.86C326.21 499.01 325.13 488.16 322.74 477.52C320.34 466.84 318.7 456.12 319.28 445.14C319.58 439.41 318.29 433.82 317.97 428.14C317.9 426.85 317.77 425.37 319.27 424.79C320.84 424.19 321.59 425.46 322.33 426.54C324.03 431.49 325.24 436.59 324.99 441.83C324.38 454.47 326.3 466.81 329.17 479.04C331.34 488.26 332.67 497.58 332.82 507.04C332.87 510.32 333.94 511.11 337.19 510.74C344.25 509.94 344.45 509.93 343.19 503.17C342.2 493.99 343.09 484.74 341.93 475.52C340.27 462.27 338.51 449.1 331.66 437.33C326.6 428.64 324.32 419.04 321.7 409.53C320.3 404.58 316.36 405.07 312.58 405.31C303.02 405.92 293.43 406.11 283.87 406.82C282.26 406.73 280.65 406.74 279.03 406.78C278.47 406.83 277.92 406.82 277.37 406.78C275.72 405.95 270.99 407.93 273.87 402.96C275.71 402 277.7 402.1 279.68 402.13C283.78 401.91 287.93 402.78 291.98 401.5C292.51 401.28 293.04 401.09 293.57 400.89C301.63 399.35 309.74 400.22 317.84 400.25C319.66 401.41 323.05 398.89 323.74 402.73L323.76 402.71Z" fill="#383938"/>
<path d="M260.24 262.74C280.24 251.27 299.57 238.68 319.25 226.68C332.2 218.78 345.19 210.95 358.23 203.21C360.87 201.64 363.83 199.26 366.65 203.16C368.82 204.74 370.07 207.04 371.37 209.27C386.69 235.46 402.5 261.36 417.76 287.59C420.01 291.45 423.07 294.51 426.13 297.65C429.41 301.02 432.99 304.09 435.99 307.73C439.03 310.88 438.11 313.1 434.63 315.29C422.25 323.08 410.21 331.43 397.26 338.31C396.1 338.93 395.32 339.43 395.48 341.48C395.85 346.17 389.41 352.04 384.22 352.58C383.65 352.01 383.72 351.39 384.04 350.73C384.89 349.54 386.94 349.11 386.46 347.09C386.11 345.66 385.06 345.61 383.89 346.08C382.91 346.63 382.09 347.47 380.92 347.67C379.91 347.81 378.96 347.67 378.16 346.98C377.75 346.29 377.72 345.59 378.03 344.86C381.46 341.76 385.81 340.47 389.99 338.85C390.65 339.52 391.09 340.3 391.17 341.25C391.25 341.82 391.28 342.41 391.39 342.96C391.63 343.58 392.01 343.51 392.45 343.13C393.29 340.91 391.5 340.19 390.25 339.16C389.3 337.51 390.79 337.08 391.68 336.88C395.07 336.14 397.71 333.98 400.65 332.39C410.8 326.63 420.41 320 430.38 313.97C433.05 312.36 433.12 310.76 430.91 308.65C428.1 305.97 425.44 303.12 422.39 300.7C420.24 298.54 417.92 298.39 415.33 299.95C403.47 307.04 391.74 314.35 379.7 321.13C378.22 321.96 376.94 322.61 378.35 324.82C380.62 328.35 378.48 330.56 375.22 331.25C371.06 332.12 367.41 333.45 364.92 337.08C363.21 336.13 364.03 333.86 362.63 332.75C362.2 332.65 361.79 332.56 361.36 332.51C359.22 332.28 357.02 332.7 354.97 331.75C354.26 331.31 353.81 330.7 353.69 329.86C354.08 328.65 355.09 328.31 356.17 328.06C361.5 327.66 366.85 328.09 372.15 327.79C372.65 327.63 373.04 327.4 372.64 326.76C371.93 326.34 371.16 326.14 370.46 325.77C370.09 325.57 369.74 325.34 369.4 325.1C368.02 324.33 366.51 324.62 365.04 324.61C363.82 324.64 362.6 324.71 361.38 324.68C356.32 324.89 351.47 323.75 346.68 322.34C344.7 321.76 342.65 321.05 341.82 318.79C341.79 317.89 342.21 317.28 343 316.9C348.81 317.06 354.26 319.46 360.08 319.67C364.51 319.83 369.02 321.56 373.25 318.81C385.59 311.26 398.13 304.02 410.57 296.63C415.11 293.93 415.37 293.47 412.77 289.14C397.03 262.92 381.4 236.63 365.74 210.36C362.81 205.44 362.69 205.48 357.94 208.46C327.36 227.67 296.28 246.07 265.5 264.97C263.3 265.86 261.48 268.66 258.64 266.33C258.28 264.74 257.7 263.04 260.24 262.74V262.74Z" fill="#393838"/>
<path d="M436 307.73C427.84 301.76 420.67 294.93 415.46 286.1C400.08 259.99 384.54 233.97 369.09 207.91C368.19 206.38 367.46 204.75 366.66 203.16C375.19 207.81 382.83 213.7 387.68 222.15C403.45 249.61 418.22 277.64 434.9 304.58C435.47 305.5 435.65 306.67 436.01 307.73H436Z" fill="#898688"/>
<path d="M314 681C312.42 683.15 310.1 682.92 307.84 682.92C295.7 682.94 283.6 681.09 270.48 682.24C278.71 686.72 285.83 691.5 294.28 693.77C296.41 694.35 299.6 694.5 300.07 697.26C300.6 700.39 298.38 702.7 295.95 704.46C292.16 707.19 287.78 708.27 283.2 708.29C271.9 708.34 260.81 708.35 249.85 703.84C241.5 700.4 232.03 700.21 222.89 699.52C216.92 699.07 211.59 696.25 209.65 690.48C207.59 684.35 210.61 678.93 214.65 674.11C218.02 670.08 223.41 667.88 225.2 662.43C227.12 662.57 226.85 664.13 227.11 665.35C227.13 666.4 226.95 667.41 226.43 668.33C222.88 671.86 218.89 674.99 215.9 679.05C212.05 684.28 212.77 686.58 218.76 688.77C223.82 690.62 229.04 691.56 234.46 691.47C237.34 691.42 240.32 691.06 242.98 692.72C243.4 693.02 243.71 693.41 243.92 693.88C243.04 697.98 239.8 695.08 237.83 695.95C230.62 695.81 223.27 696.56 216.52 693.03C217.55 694.15 219.01 694.52 220.34 695.04C221.84 695.62 223.41 696.03 224.9 696.66C228.44 697.74 232.05 697.04 235.63 697.16C240.48 697.1 245.11 698.38 249.78 699.45C253.53 700.68 257.19 702.15 260.92 703.45C261.58 703.73 262.14 704.16 262.66 704.62C266.34 705.72 270.11 705.31 273.85 705.4C276.87 705.54 279.91 705.11 282.89 705.66C277.46 704.68 271.9 706.36 266.53 704.69C265.24 703.4 262.22 703.73 262.79 700.7C265.46 699.28 268.17 700.37 270.84 700.66C277.81 701.42 284.76 701.63 291.68 700.21C292.7 700 294.24 700.08 294.19 698.52C294.15 697.41 292.9 697.18 291.99 696.91C283.34 694.32 275.77 689.52 267.92 685.28C266.6 684.61 265.16 684.23 263.78 683.72C263.28 683.49 262.89 683.16 262.57 682.71C262.17 681.94 262.07 681.13 262.19 680.28C262.38 679.39 262.78 678.66 263.64 678.24C269.14 676.99 274.73 677.92 280.26 677.63C282.83 677.7 285.42 677.55 287.98 677.85C289.39 678.07 290.68 678.66 292.04 679.07C296.76 680.19 301.56 679.37 306.32 679.59C308.91 679.87 311.74 678.86 313.99 681H314Z" fill="#383938"/>
<path d="M233.892 409.31C233.032 409.37 232.182 409.42 231.322 409.48C225.502 393.93 218.172 379 212.102 363.6C205.432 346.66 194.202 332.82 182.792 319.61C171.592 306.65 167.342 292.15 165.752 276.33C164.892 267.79 168.152 259.57 172.532 252.01C176.842 244.57 182.222 237.97 187.812 231.5C188.772 231.35 189.782 231.83 190.702 231.25C191.102 231.37 191.472 231.53 191.822 231.73C193.182 232.49 194.702 232.21 196.152 232.35C198.562 232.72 200.592 233.91 202.562 235.24C203.022 236.4 202.432 237.14 201.572 237.77C198.472 238.54 195.752 237.03 192.892 236.35C190.212 235.16 188.052 236.16 186.442 238.25C178.992 247.92 171.482 257.58 170.042 270.33C169.822 270.99 169.512 271.61 169.202 272.22C168.282 275.27 168.152 278.32 169.312 281.35C169.572 281.72 169.792 282.12 169.972 282.53C171.812 291.53 174.152 300.36 178.952 308.48C181.242 306.14 182.392 302.48 186.362 302.26C187.102 302.42 187.632 302.85 188.022 303.48C188.412 304.48 187.992 305.3 187.462 306.1C186.382 307.47 184.972 308.56 184.052 310.08C183.622 310.8 183.222 311.53 182.982 312.34C182.372 315.57 185.382 315.8 186.982 317.2C187.392 317.75 187.522 318.36 187.392 319.02C186.002 321.35 189.482 320.67 189.382 322.2C190.522 324.21 192.352 325.68 193.592 327.61C194.492 329.03 195.702 330.22 196.622 331.63C197.912 333.64 199.862 335.08 201.242 337.01C204.352 341.13 207.442 345.26 210.092 349.7C214.122 357.67 219.112 364.95 225.262 371.47C226.502 372.79 230.052 374.92 225.322 376.67C222.712 375.95 221.072 374.02 219.982 372.57C221.952 374.74 223.232 378.16 225.002 381.31C226.302 390.65 233.712 397.73 234.612 407.21C234.612 408 234.452 408.72 233.872 409.31H233.892Z" fill="#373A37"/>
<path d="M384.213 350.74C384.213 351.35 384.213 351.96 384.223 352.57C381.813 355.25 378.443 356.57 375.643 358.7C374.033 359.93 371.803 360.13 370.563 359.39C366.583 357 363.883 359.44 360.823 361.13C353.233 365.33 345.223 368.9 338.093 373.77C331.923 377.98 326.053 377.68 319.613 375.71C318.703 375.43 317.743 375.32 316.803 375.14C314.803 376.02 313.023 374.21 311.043 374.67C305.693 374.05 300.533 372.48 295.273 371.47C292.253 370.89 290.143 368.82 289.413 366.12C286.433 355.16 279.363 352.59 268.673 353.78C260.043 354.74 251.153 354.66 242.373 354.07C240.673 354.01 238.973 354 237.283 354.14C232.243 353.73 227.063 355.19 222.153 353.03C221.443 352.22 221.443 351.37 221.963 350.47C224.503 348.72 227.413 349.62 230.153 349.3C243.793 349.1 257.423 349.04 271.053 349.32C275.253 349.05 279.543 350.21 283.663 348.51C284.163 348.2 284.693 347.97 285.243 347.8C294.523 346.71 303.783 345.27 313.163 345.35C315.253 345.37 317.373 345.19 319.333 346.21C320.183 346.76 320.323 347.55 320.113 348.46C319.063 350.18 317.183 349.49 315.713 349.98C315.233 350.06 314.733 350.11 314.243 350.13C306.833 350.41 299.453 351.17 292.063 351.85C288.893 352.14 288.653 353.1 289.843 355.77C294.063 365.24 294.153 365.28 302.623 359.73C307.353 356.63 311.843 353.17 316.623 350.13C317.313 349.84 318.043 349.79 318.783 349.77C319.783 349.77 320.793 349.59 321.763 350C322.463 350.37 322.953 350.88 322.853 351.74C316.243 357.53 308.693 362 300.893 367.39C306.523 369.34 312.003 369.81 317.103 371.52C325.103 374.21 332.203 373.5 339.683 368.91C348.233 363.67 357.103 358.81 366.193 354.44C368.163 353.49 369.513 351.98 370.703 350.15C372.493 347.41 374.843 345.28 378.333 344.92C378.343 345.58 378.363 346.24 378.373 346.9C379.273 347.97 378.703 349.35 379.163 350.51C379.243 351.77 380.023 351.71 380.923 351.41C382.233 352.07 382.333 349.51 383.713 350.36C383.873 350.49 384.033 350.62 384.183 350.75L384.213 350.74Z" fill="#383938"/>
<path d="M260.241 262.74C258.701 263.82 259.301 265.43 259.231 266.87C258.241 271.17 254.071 271.87 251.111 273.84C246.611 276.85 246.521 276.68 249.001 281.57C254.371 292.12 260.501 302.28 265.611 312.95C267.581 317.06 271.061 317.79 274.831 318C283.241 318.45 291.611 319.32 300.071 319.23C305.981 319.17 311.921 319.64 317.831 320.33C317.911 322.89 315.861 323.47 314.121 324.34C305.611 325.2 297.101 325.04 288.591 324.45C287.781 324.26 287.021 323.95 286.281 323.57C282.841 322.02 279.281 322.73 275.741 323.08C275.201 323.14 274.671 323.12 274.141 323.05C264.601 322.56 255.281 320.73 246.001 318.59C241.441 317.54 236.801 316.93 232.111 316.76C230.691 316.52 229.541 315.86 228.841 314.55C226.971 310.03 224.301 305.8 223.871 300.76C223.871 299.68 224.061 298.67 224.841 297.85C226.941 297.52 227.611 299.12 228.311 300.54C229.381 302.7 230.501 304.87 231.191 307.17C232.331 310.97 234.631 312.57 238.681 312.35C243.211 312.11 247.571 313.54 251.961 314.55C253.561 315.16 255.261 315.23 256.931 315.46C258.031 315.53 259.321 316.47 260.171 315.56C261.321 314.33 260.031 313.1 259.451 312.06C253.711 301.67 247.681 291.45 242.311 280.85C241.431 279.11 240.281 277.48 240.751 275.36C242.511 271.41 246.371 269.8 249.691 267.75C251.981 266.34 254.401 265.05 256.751 263.78C255.521 261.54 253.781 259.48 255.161 256.71C255.881 256.35 256.561 256.36 257.191 256.92C258.931 258.48 258.891 260.96 260.211 262.74H260.241Z" fill="#383938"/>
<path d="M225.813 142.58C226.063 143.33 226.093 144.32 226.613 144.79C229.923 147.83 228.823 150.54 225.943 152.89C224.643 153.95 223.683 154.31 225.313 156.03C236.903 168.25 239.263 183.68 239.453 199.52C239.523 205.05 238.653 211.28 232.113 214.03C230.563 214.77 229.653 214.32 229.403 212.6C236.333 205.51 236.063 196.96 234.563 188.03C232.893 178.17 230.893 168.49 223.823 160.82C220.303 157 218.753 156.76 214.653 159.72C212.133 161.54 209.593 162.58 206.523 162.2C204.233 161.92 202.643 162.71 202.353 165.14C201.863 169.14 199.263 171.53 195.993 173.21C192.523 175 190.713 177.88 189.713 181.46C189.083 183.22 188.873 185.12 188.003 186.8C186.953 188.56 185.953 190.37 183.983 191.31C183.603 191.51 183.213 191.69 182.823 191.87C181.653 192.64 180.983 194.47 179.053 193.65C178.303 192.97 178.203 192.1 178.273 191.16C178.343 190.71 178.473 190.28 178.653 189.86C179.783 186.69 184.453 185.46 183.443 181.11C184.543 177.75 186.943 174.9 187.163 171.19C187.233 169.91 188.243 169.11 189.433 169.01C195.513 168.5 197.863 165.09 197.233 159.25C198.463 157.59 200.393 157.24 202.163 156.57C203.303 156.24 204.453 156.13 205.623 156.41C206.053 156.53 206.453 156.71 206.833 156.92C208.043 157.83 209.023 157.65 209.743 156.28C211.453 151.87 216.003 151.66 219.383 149.72C220.233 149.71 221.073 149.96 221.923 149.92C224.103 149.41 222.743 148.25 222.393 147.27C221.783 145.82 221.863 144.19 221.143 142.77C220.603 141.45 219.563 140.33 219.563 138.79C219.953 136.99 221.173 137.13 222.503 137.53C223.003 137.98 223.503 138.43 224.003 138.88C224.693 140.06 224.973 141.44 225.813 142.54V142.58Z" fill="#3B3837"/>
<path d="M341.122 556.61C341.182 557.4 341.242 558.18 341.292 558.97C339.902 562.9 336.782 565.55 334.062 568.41C318.262 585 302.222 601.37 286.512 618.05C278.832 626.2 272.612 635.42 269.502 646.4C268.092 651.4 269.752 654.94 274.252 657.71C280.292 661.43 286.752 664.18 293.362 666.66C294.202 667.81 293.452 668.4 292.552 668.93C291.622 669.26 290.682 669.23 289.742 669C288.072 668.39 286.482 667.59 284.782 667.06C283.982 666.75 283.212 666.37 282.442 665.99C280.982 665.16 279.402 664.62 277.842 664.01C277.262 663.74 276.732 663.39 276.212 663.02C274.632 661.9 272.822 661.19 271.142 660.24C268.202 658.57 266.852 655.61 265.182 652.91C264.532 651.87 264.142 650.77 264.242 649.53C267.342 636.96 273.652 626.17 282.442 616.76C284.662 614.39 286.502 611.7 288.642 609.27C298.592 599.19 308.992 589.54 318.472 578.99C324.902 573.6 329.862 566.83 335.632 560.81C337.262 559.11 338.312 556.71 341.142 556.61H341.122Z" fill="#3A3937"/>
<path d="M222.501 137.57C221.171 137.68 220.171 138.17 220.101 139.7C216.641 143.66 210.461 144.7 204.201 142.39C202.371 139.76 199.431 139.96 196.741 139.54C190.471 137.82 186.681 142.07 182.981 145.73C180.861 147.83 178.921 149.86 176.111 150.92C173.061 152.07 170.711 153.91 170.131 157.37C169.461 159.14 169.721 161.1 169.061 162.87C167.691 165.23 166.111 167.47 164.551 169.71C162.721 172.35 160.131 174.7 163.671 177.96C164.531 178.76 163.961 180.14 163.531 181.17C162.151 184.47 162.721 187.45 164.841 190.23C165.671 192.7 163.891 196.81 168.891 196.65C169.531 196.86 170.061 197.23 170.541 197.69C171.271 198.49 172.141 199.12 173.051 199.7C173.401 200 173.661 200.37 173.821 200.8C173.991 201.51 173.921 202.19 173.591 202.84C172.871 203.7 172.041 203.85 171.091 203.24C162.211 201.53 162.921 201.31 160.101 192.44C158.501 187.4 159.071 182.35 157.771 177.39C156.791 173.65 157.781 169.7 161.601 166.82C163.811 165.16 165.751 162.8 165.501 159.12C165.021 152.19 170.401 149.29 175.541 146.55C176.361 146.11 177.801 146.19 177.951 145.22C178.801 139.71 184.421 138.91 187.421 135.52C188.891 133.86 191.881 133.06 193.751 133.96C197.841 135.95 202.601 134.94 206.691 137.97C208.651 139.42 213.301 139.1 216.671 137.74C218.551 136.98 220.501 135.75 222.491 137.56L222.501 137.57Z" fill="#3B3938"/>
<path d="M225.852 661.39C231.242 644.4 234.512 626.88 238.722 609.59C242.822 592.74 250.152 577.52 263.002 565.41C264.182 566.24 264.462 567.47 264.482 568.8C258.892 575.76 253.722 582.97 249.642 590.99C243.422 603.25 241.562 616.65 238.782 629.83C238.272 631.88 237.752 633.94 237.182 635.98C237.052 636.65 236.922 637.33 236.752 637.99C236.662 638.43 236.542 638.87 236.402 639.3C235.762 641.45 235.252 643.64 234.812 645.85C234.732 646.31 234.612 646.75 234.482 647.19C233.572 650.58 232.482 653.91 231.602 657.31C231.152 658.46 230.472 659.45 229.612 660.34C228.502 661.22 227.542 662.68 225.832 661.38L225.852 661.39Z" fill="#3B3939"/>
<path d="M171.113 203.23C171.993 203.16 172.813 202.99 173.263 202.1C176.293 201.53 176.943 203.82 177.803 205.86C178.233 207.05 178.303 208.43 179.313 209.35C180.983 210.87 182.793 210.88 184.543 209.52C186.403 208.07 185.903 206.56 184.573 204.99C181.723 201.63 178.103 198.6 179.163 193.4C181.233 193.57 180.703 191.01 182.153 190.53C183.333 191.87 183.183 193.71 183.953 195.21C184.973 197.96 186.753 199.96 189.613 200.86C192.023 201.62 193.003 203.22 192.553 205.71C192.013 208.18 193.063 210.43 193.433 212.78C194.443 219.28 195.373 225.84 190.663 231.52C189.703 233.22 188.763 232.55 187.833 231.49C191.073 225.8 190.003 219.7 189.763 212.85C185.053 217.4 180.883 213.88 176.653 213.05C174.103 212.55 173.343 210.04 173.833 208.12C174.553 205.25 172.913 204.36 171.123 203.24L171.113 203.23Z" fill="#3E3937"/>
<path d="M257.222 256.92C256.492 256.94 255.772 256.97 255.042 256.99C253.932 257.16 253.132 256.55 252.632 255.72C247.512 247.17 239.072 244.4 230.032 242.64C229.652 242.34 229.392 241.95 229.252 241.49C229.172 241.02 229.172 240.54 229.222 240.06C229.792 237.99 229.442 235.78 230.102 233.72C230.642 232.63 231.072 231.41 232.652 231.54C232.712 232.51 232.882 233.49 232.802 234.45C232.462 238.42 234.062 240.14 238.142 241.21C246.722 243.46 253.762 248.17 257.222 256.92V256.92Z" fill="#393838"/>
<path d="M232.642 231.54C232.072 232.18 231.492 232.83 230.922 233.47C229.882 232.97 229.342 232.07 228.992 231.03C228.352 228.68 228.552 226.27 228.522 223.87C228.432 217.61 228.272 217.44 222.052 217.22C219.612 217.12 217.152 217.41 214.752 216.78C213.642 216.4 212.712 215.8 212.152 214.73C212.012 214.11 212.222 213.64 212.762 213.31C218.452 212.79 224.022 210.49 229.872 212.12C229.982 213.5 230.912 213.93 232.112 214.02C230.942 219.89 233.112 225.67 232.652 231.52L232.642 231.54Z" fill="#3D3C39"/>
<path d="M312.912 374.15C314.452 373.51 315.492 374.89 316.812 375.13C319.182 383.49 321.492 391.87 324.012 400.19C324.342 401.26 324.492 401.92 323.752 402.7C322.522 400.34 320.102 402.91 318.652 401.46C318.432 400.78 318.812 400.3 319.182 399.82C320.242 398.13 319.182 396.64 318.742 395.09C316.772 389.28 315.012 383.41 312.822 377.68C312.612 376.5 312.192 375.3 312.912 374.14V374.15Z" fill="#363E38"/>
<path d="M292.203 668.34C292.973 668.05 293.293 667.45 293.353 666.67C300.713 669.83 308.333 671.98 316.393 672.14C319.143 672.2 319.483 673.33 318.903 675.79C318.433 677.78 317.883 679.42 315.953 680.33C315.163 679.97 314.583 679.34 313.903 678.84C312.633 677.97 310.803 678.36 309.743 677.02C309.653 676.55 309.743 676.13 310.043 675.76C310.583 675.39 311.153 675.11 311.833 675.26C311.483 674.9 311.043 675.12 310.653 675.08C305.633 674.47 300.633 673.78 295.993 671.61C294.453 670.89 292.413 670.66 292.203 668.35V668.34Z" fill="#3B3B3B"/>
<path d="M263.87 568.61C262.89 567.73 263.13 566.52 263 565.41C268.26 557.73 276.11 552.46 281.79 545.17C283.23 544.88 283.51 546.02 283.98 546.94C284.05 547.36 284.02 547.76 283.88 548.16C283.41 548.84 282.79 549.39 282.3 550.05C281.05 551.76 279.52 553.2 278.08 554.74C274.12 558.88 269.72 562.59 266.24 567.19C265.66 567.96 264.93 568.59 263.87 568.62V568.61Z" fill="#443C37"/>
<path d="M283.321 547.1C282.811 546.46 282.291 545.81 281.781 545.17C280.731 539.71 279.671 534.24 278.621 528.78C278.901 527.38 278.181 525.7 279.791 524.68C283.841 528.6 283.451 534.07 284.811 538.95C284.631 541.73 285.941 544.78 283.331 547.11L283.321 547.1Z" fill="#41372C"/>
<path d="M314.863 678.04C315.753 678.55 315.853 679.44 315.963 680.33C315.513 681.16 314.693 680.89 314.003 681C311.363 680.98 308.713 680.97 306.073 680.95C305.783 680.52 305.783 680.1 306.103 679.69C308.153 678.3 310.663 679.08 312.833 678.26C313.503 678.09 314.183 678.05 314.863 678.03V678.04Z" fill="#244235"/>
<path d="M225.851 661.39C227.421 661.63 227.881 660.01 229.011 659.51C229.341 659.85 229.551 660.26 229.641 660.73C229.651 662.75 228.851 664.36 227.231 665.56C226.761 665.74 226.341 665.65 225.971 665.33C225.931 664.31 226.141 663.22 225.201 662.44C225.021 661.85 225.321 661.55 225.851 661.4V661.39Z" fill="#473C32"/>
<path d="M225.81 142.58C224.26 141.83 223.9 140.48 224 138.92C225.44 139.73 225.85 141.04 225.81 142.58Z" fill="#3B3938"/>
<path d="M321.661 426.96C320.781 426.68 320.731 424.96 319.471 425.52C318.521 425.94 319.021 426.9 319.151 427.67C320.361 434.71 321.151 441.78 320.711 448.94C320.041 459.6 322.671 469.85 324.751 480.14C326.961 491.1 327.681 502.24 329.201 513.29C329.561 515.93 327.911 516.13 326.281 515.79C311.961 512.79 298.311 516.47 284.621 519.83C282.141 519.77 281.981 517.64 281.581 516.05C276.701 496.79 269.531 478.26 263.681 459.31C260.931 450.39 259.321 441.3 258.061 432.12C256.791 422.83 259.231 419.1 267.851 415.51C275.041 412.52 282.671 411.82 290.271 411.27C300.311 410.55 310.371 410.08 320.371 408.83C321.181 408.73 321.991 408.92 322.731 409.29C325.801 424.83 335.121 438 339.371 453.07C343.531 467.82 344.461 482.97 344.201 498.23C344.171 499.85 344.221 501.48 344.231 503.1C344.931 504.13 344.691 505.31 344.631 506.42C344.561 507.64 345.331 509.5 343.851 509.91C342.061 510.4 340.891 508.76 340.271 507.23C338.191 502.08 337.271 496.6 335.981 491.23C331.531 472.71 329.361 453.77 325.541 435.13C324.911 432.07 324.281 429.05 321.661 426.95V426.96Z" fill="#626262"/>
<path d="M329.34 530.5C329.36 534.27 329.37 538.05 329.39 541.82C329.91 547.99 327.32 552.89 323.91 557.91C315.82 569.79 306.72 580.69 296.77 591.09C283.28 605.19 270.29 619.88 262.36 638.14C261.85 639.16 261.41 640.21 261.07 641.3C260.62 642.61 260.26 643.94 259.78 645.24C257.59 650.53 255.29 655.78 254.15 661.43C253.53 663.1 253.67 664.98 252.73 666.56C252.05 667.47 251.13 668.02 250.05 668.31C246.75 668.71 243.45 668.9 240.16 668.2C236.23 666.79 235.32 663.39 234.68 659.82C234.62 659.03 234.7 658.25 234.86 657.47C239.78 629.94 250.05 604.37 263.39 579.95C268.23 571.09 275.45 564.25 283.27 558.04C287.2 554.92 290.04 551.12 291.89 546.45C296.38 535.1 304.68 527.87 316.27 524.28C317.67 523.85 319.09 523.52 320.57 523.42C326.92 523.01 328.66 524.4 329.33 530.48L329.34 530.5Z" fill="#EDCAA1"/>
<path d="M322.713 409.29C315.113 411.92 307.093 411.54 299.273 412.11C290.573 412.74 281.863 412.97 273.373 415.17C270.733 415.86 268.103 416.77 265.623 417.91C259.923 420.54 258.253 424.51 259.223 432.06C261.263 447.86 265.963 462.97 271.093 477.97C275.283 490.2 279.513 502.41 282.633 514.97C283.053 516.67 283.263 518.49 284.603 519.83C280.023 522.03 276.713 520.937 274.673 516.55C270.573 507.73 267.173 498.67 264.963 489.16C263.323 482.07 259.263 476.15 255.163 470.31C246.273 457.62 238.623 444.38 236.163 428.76C235.863 426.85 235.863 424.89 235.513 422.99C233.743 413.26 234.113 412.99 244.183 412.22C249.963 411.78 255.623 410.34 261.093 408.32C261.303 408.3 261.513 408.27 261.723 408.24C263.183 408.16 264.643 408.17 266.043 407.67C267.203 407.03 268.813 408.07 269.763 406.64C270.293 405.88 271.053 405.76 271.893 405.87C273.253 406.49 274.663 406.57 276.113 406.27C276.683 406.06 277.283 405.91 277.743 405.46C278.113 405.49 278.483 405.52 278.853 405.55C280.403 406.19 281.953 406.23 283.493 405.52C293.453 404.36 303.523 404.99 313.493 403.63C320.273 402.7 321.613 403.7 322.713 409.32V409.29Z" fill="#515151"/>
<path d="M312.912 374.15C313.202 375.15 313.482 376.16 313.772 377.16C313.382 377.46 312.952 377.92 312.512 377.85C301.412 375.98 289.452 376.13 281.802 365.73C279.222 362.23 276.322 361.39 272.122 362.06C263.572 363.43 254.952 363.16 246.352 362.08C238.622 361.11 237.592 362.24 239.582 369.78C241.942 378.7 245.812 386.75 252.392 393.56C255.722 397.01 259.052 397.68 263.302 396.97C278.602 394.4 294.032 393.88 309.512 394.3C313.092 394.4 316.692 394.48 319.862 396.52C320.322 397.87 320.502 399.21 319.742 400.52C319.372 400.83 319.012 401.15 318.642 401.46C310.152 401.69 301.632 400.84 293.172 402.14C289.052 402.82 284.882 402.19 280.752 402.67C280.312 402.87 279.892 403.11 279.502 403.4C277.592 403.47 275.692 403.54 273.782 403.6C268.972 406.78 263.362 406.57 257.982 407.28C252.782 408.18 247.582 409.08 242.392 409.99C239.522 409.23 235.822 411.16 233.882 407.38C231.922 398.08 224.782 390.72 223.992 380.99C223.072 378.383 223.412 376.743 225.012 376.07C229.232 374.86 225.592 373.37 224.902 372.68C219.062 366.81 214.252 360.22 210.442 352.9C209.932 351.91 209.592 350.83 209.172 349.79C209.562 348.72 210.362 348.25 211.462 348.22C214.812 350.04 219.162 349.28 222.032 352.33C227.262 352.48 232.502 352.63 237.732 352.79C239.312 353.37 240.892 353.36 242.462 352.79C253.452 352.74 264.572 353.7 275.382 352.29C283.032 351.29 285.842 354.24 287.842 360.28C288.092 361.04 288.642 361.71 288.882 362.47C290.672 368.29 294.792 370.68 300.672 371.32C304.792 371.77 308.812 373.16 312.882 374.13L312.912 374.15Z" fill="#5D8E75"/>
<path d="M235.722 659.46C236.382 662.39 237.042 665.32 239.632 667.28C240.522 670.36 238.342 669.83 236.672 669.73C234.162 669.59 233.742 666.41 231.232 666.01C227.652 665.45 229.902 662.3 229.042 660.49C229.022 660.16 229.012 659.83 228.992 659.5C229.492 658.81 229.992 658.12 230.492 657.42C233.342 654.38 232.712 650.28 233.732 646.68C233.692 646.36 233.752 646.06 233.882 645.77C233.602 644.58 238.072 646.3 235.322 643.28C234.572 642.46 235.372 640.26 235.602 638.71C235.562 638.43 235.632 638.18 235.802 637.95C236.402 636.86 238.862 637.98 238.442 635.7C238.272 633.83 238.672 631.9 237.732 630.14C240.502 608.84 246.282 588.7 260.442 571.84C261.452 570.64 262.712 569.67 263.862 568.59C267.762 563.01 272.692 558.4 277.772 553.93C279.442 552.58 281.842 551.83 281.822 549.07C281.822 548.06 282.562 548.04 283.282 547.99C284.892 544.85 284.042 541.61 283.712 538.38C282.402 533.8 281.092 529.22 279.782 524.64C288.362 522.03 296.832 518.92 305.962 518.68C311.572 517.23 317.182 517.25 322.792 518.66C329.032 519.21 329.942 520.84 329.332 530.47C327.722 525.01 324.192 523.26 317.892 525.07C307.082 528.18 298.332 534.15 294.102 544.89C291.292 552.01 286.792 557.5 280.862 561.88C270.282 569.69 264.022 580.64 258.382 592.03C250.432 608.07 244.082 624.76 239.462 642.07C238.092 647.19 236.982 652.37 235.742 657.53C234.592 658.15 235.422 658.8 235.722 659.44V659.46Z" fill="#C39C69"/>
<path d="M289.532 609.94C285.932 615.44 280.822 619.67 277.012 625.04C271.652 632.61 267.972 640.89 264.982 649.56C264.002 650.79 263.142 652.2 261.622 652.81C259.122 653.81 257.482 653.51 258.222 650.2C258.802 648.76 259.252 647.25 260.162 645.95C260.412 645.61 260.682 645.28 260.962 644.96C261.922 643.98 261.912 642.71 261.962 641.47C262.002 640.56 262.132 639.67 262.432 638.81C269.072 622.74 280.412 609.98 291.832 597.3C303.762 584.05 316.482 571.49 325.622 555.91C327.862 552.09 328.592 547.65 331.342 544.16C333.682 536.32 331.342 528.46 331.382 520.61C331.402 517.05 333.082 515.65 336.032 515.12C339.182 514.56 342.522 514.01 344.662 517.28C345.202 518.1 344.962 519.43 345.092 520.53C344.322 521.53 345.002 522.91 344.232 523.91C343.792 524.12 343.322 524.22 342.832 524.25C340.002 524.09 339.222 525.5 339.382 528.17C339.692 533.19 339.842 538.23 339.122 543.25C337.032 557.74 328.162 568.28 318.702 578.48C309.632 587.61 300.622 596.8 292.102 606.46C291.152 607.54 289.982 608.46 289.552 609.92L289.532 609.94Z" fill="#C39C6A"/>
<path d="M321.66 426.96C324.76 426.47 325.67 428.59 326.11 430.94C328.27 442.68 330.41 454.44 332.43 466.2C334.73 479.58 337.55 492.85 341.08 505.97C341.46 507.39 341.83 508.81 343.69 509.23C344.7 507.23 343.88 505.11 344.21 503.11C346.6 510.14 345.55 511.93 338.82 511.88C336.49 511.86 334.37 512.4 332.48 513.19C329.4 484.36 322.85 455.99 321.67 426.97L321.66 426.96Z" fill="#515151"/>
<path d="M331.332 544.17C331.472 547.54 330.002 550.58 328.392 553.2C321.362 564.64 313.952 575.8 304.462 585.52C292.122 598.15 280.032 611.07 270.502 626.07C267.832 630.28 265.602 634.77 263.172 639.13C262.312 639.11 261.712 638.66 261.262 637.98C267.422 622.66 278.102 610.47 288.602 598.1C296.822 588.43 306.622 580.19 314.082 569.87C318.242 564.11 322.212 558.21 326.232 552.35C328.402 549.19 327.772 545.17 329.392 541.83C329.492 543.06 329.872 544.06 331.332 544.17Z" fill="#3F3833"/>
<path d="M317.792 578.37C323.202 571.17 329.502 564.65 333.692 556.51C338.412 547.34 338.832 537.61 338.102 527.71C337.762 523.07 338.462 522.27 343.212 523.59C344.902 526.74 344.262 529.96 343.522 533.18C343.272 541.04 344.222 549.03 341.122 556.61C335.092 563.18 329.072 569.78 323.002 576.32C321.832 577.58 321.002 579.39 318.882 579.4C317.932 579.68 317.592 579.31 317.802 578.37H317.792Z" fill="#EECAA0"/>
<path d="M258 407.3C263.03 405.03 268.49 404.66 273.8 403.62C273.76 407.17 276.53 404.61 277.74 405.44C277.39 405.78 277.03 406.12 276.68 406.46C275.1 407.13 273.52 407.12 271.95 406.46C271.13 406.4 270.39 406.56 269.9 407.3C268.84 408.33 267.49 407.65 266.3 407.91C264.7 408.84 263.04 409.21 261.25 408.53L261.11 408.31C260.33 407.17 259.1 407.46 258 407.31V407.3Z" fill="#334139"/>
<path d="M306.16 517.99C311.52 515.52 317.11 517.22 322.61 517.07C322.66 517.07 322.76 517.33 322.74 517.46C322.72 517.61 322.59 517.74 322.5 517.88C317.06 518.6 311.61 518.38 306.16 518V517.99Z" fill="#473420"/>
<path d="M306.163 517.99C311.613 517.95 317.063 517.91 322.503 517.87C322.593 518.15 322.693 518.42 322.803 518.69C317.193 518.69 311.583 518.7 305.973 518.71C306.063 518.47 306.123 518.23 306.163 517.99Z" fill="#AA9983"/>
<path d="M279.711 402.55C284.151 400.62 288.671 401.38 293.191 402.15C292.941 402.32 292.671 402.44 292.371 402.52C288.151 403.25 283.931 403.21 279.711 402.55Z" fill="#708678"/>
<path d="M279.71 402.55C283.93 402.54 288.15 402.53 292.37 402.52C288.21 404.58 283.79 403 279.52 403.41C279.6 403.13 279.67 402.84 279.71 402.55Z" fill="#2B4133"/>
<path d="M233.893 407.4C236.233 409.89 239.673 408.82 242.403 410.01C239.523 410.25 236.603 411.07 233.883 409.31C233.883 408.67 233.883 408.04 233.883 407.4H233.893Z" fill="#6D8779"/>
<path d="M344.063 523.7C344.343 522.63 344.063 521.38 345.083 520.54C344.743 524.5 346.153 528.59 344.193 532.43C343.323 529.53 343.573 526.62 344.063 523.7Z" fill="#4B3521"/>
<path d="M344.061 523.7C344.101 526.61 344.151 529.52 344.191 532.43C343.971 532.68 343.741 532.93 343.521 533.18C343.421 529.98 343.321 526.79 343.211 523.59C343.501 523.59 343.781 523.62 344.061 523.7Z" fill="#E1CBB9"/>
<path d="M283.502 405.49C281.962 406.85 280.412 406.9 278.852 405.52C280.402 405.51 281.952 405.5 283.502 405.49Z" fill="#687771"/>
<path d="M265.112 263.85C296.672 244.49 328.262 225.17 359.762 205.71C362.572 203.98 363.702 204.46 365.312 207.18C381.792 234.97 398.402 262.69 415.022 290.4C416.372 292.64 417.002 294.19 414.112 295.86C400.772 303.56 387.532 311.43 374.252 319.24C367.162 320.23 360.132 320.83 353.202 318.12C348.902 316.44 348.502 315.82 351.252 311.93C353.542 308.68 355.172 305.19 356.122 301.37C356.642 299.27 356.912 297.1 354.972 295.52C353.062 293.96 351.002 294.45 349.032 295.49C343.992 298.15 339.302 301.37 334.672 304.68C329.232 308.58 323.692 312.23 317.042 313.83C314.322 314.48 311.932 314.22 309.712 312.42C294.052 299.65 279.332 285.94 267.092 269.77C265.842 268.13 263.542 266.55 265.112 263.85V263.85Z" fill="#878587"/>
<path d="M287.762 323.27C296.802 323.24 305.852 323.21 314.892 323.18C318.952 321.15 322.892 318.69 325.992 315.53C331.192 310.24 337.842 307.19 343.612 302.82C345.252 301.58 347.062 300.21 349.322 301.74C350.622 304.14 349.302 305.98 348.042 307.84C346.552 309.53 344.842 311.06 342.992 312.25C339.902 314.24 340.162 316.35 342.042 318.87C348.112 322.38 354.852 323.07 361.652 323.51C362.382 324.92 361.832 326.15 361.122 327.36C360.782 327.67 360.402 327.9 359.972 328.05C358.792 328.44 357.472 327.82 356.352 328.54C356.162 328.84 355.882 329.02 355.532 329.07C354.792 329.09 354.102 329.17 354.022 330.13C354.592 333.26 352.492 335.21 350.822 337.36C350.342 337.9 349.832 338.41 349.322 338.91C348.412 339.81 347.442 340.65 346.332 341.3C342.292 343.74 338.062 342.52 333.972 341.71C328.552 340.63 323.162 339.29 317.872 337.66C313.682 336.37 309.592 336.25 305.402 337.59C284.922 344.15 263.752 346.22 242.402 347.32C234.622 347.72 226.912 349.11 219.112 349.39C215.392 349.99 212.432 348.44 210.132 345.76C204.592 339.29 199.092 332.79 193.852 326.07C191.702 321.39 187.242 318.17 185.602 313.16C190.182 306.73 196.942 303.83 204.212 301.84C205.622 301.45 207.142 301.68 208.502 302.26C215.022 305.03 220.722 308.84 224.462 315.06C225.562 316.63 227.032 315.64 228.372 315.61C229.652 315.66 230.902 316.38 232.192 315.69C241.532 315.02 250.202 318.69 259.262 319.9C264.512 320.6 269.722 321.51 274.952 322.33C279.192 323.01 283.602 321.43 287.762 323.27V323.27Z" fill="#EDCAA1"/>
<path d="M265.11 263.85C267.4 269.89 271.89 274.46 276.09 279.03C286.72 290.59 297.94 301.57 310.24 311.39C311.96 312.76 313.55 313.35 315.97 312.84C323.04 311.36 328.66 307.34 334.4 303.37C339.05 300.16 343.88 297.2 348.69 294.23C351.06 292.77 353.68 292.38 355.98 294.25C358.31 296.14 358.2 298.83 357.48 301.43C356.27 305.83 354.65 310.07 351.52 313.53C350.02 315.19 349.87 315.97 352.48 316.65C357.45 317.93 362.17 320.07 367.57 318.57C369.66 317.99 372.1 318.17 374.24 319.24C370.66 324.23 365.62 321.34 361.42 321.13C355.27 320.82 349.08 319.69 343.21 317.47C340.23 316.62 340.07 315.17 342.28 313.17C344.28 311.36 346.87 310.17 348.18 307.63C348.74 306.39 349.61 305.33 350.25 304.14C350.94 302.36 352.64 300.1 351.12 298.76C349.35 297.21 347.81 299.78 346.32 300.75C338.07 306.11 330.04 311.79 322.45 318.07C321.11 319.18 319.79 320.53 317.77 320.27C306.63 322.06 295.49 320.24 284.38 319.92C279.67 319.78 274.7 320.15 269.92 318.65C267.9 318.02 266.5 317.48 265.49 315.54C259.12 303.31 252.74 291.08 246.11 278.99C244.74 276.5 245.53 275.65 247.46 274.47C251.45 272.04 255.82 270.18 259.23 266.85C261.52 266.49 263.09 264.74 265.11 263.84V263.85Z" fill="#6B696A"/>
<path d="M378.36 344.92C367.8 356.86 352.98 362.23 339.8 370.18C333.02 374.27 326.6 375.89 318.86 373.29C312.35 371.1 305.48 369.98 297.5 368.08C306.81 362.51 314.03 356.05 322.64 351.61C323.13 350.59 323.98 350.19 325.07 350.2C328.45 350.42 331.84 350.76 335.19 349.89C336.36 349.61 337.55 349.51 338.74 349.49C339.42 349.46 340.1 349.47 340.77 349.45C342.35 349.45 343.67 348.79 344.84 347.78C346.62 346.04 348.62 344.76 351.19 344.5C352.5 344.36 353.85 343.82 354.61 342.8C356.99 339.58 360.57 338.51 364 337.11C364.23 337.1 364.46 337.08 364.69 337.07C365.79 332.37 368.92 330.64 373.55 330.51C375.3 330.46 377.62 330.07 378.23 327.72C378.88 325.17 376.29 324.7 374.83 323.06C378.97 319.62 383.83 317.51 388.3 314.81C397.03 309.55 405.81 304.36 414.46 298.96C417.83 296.86 420.66 296.43 423.21 299.97C416.45 303.63 412.14 309.92 407.22 315.43C401.38 321.98 395.12 328.09 389.04 334.42C393.07 334.37 396.64 330.21 400.93 333.24C397.98 336.42 393.58 336.87 390.08 339.01C386.95 342.54 382.3 343.04 378.35 344.94L378.36 344.92Z" fill="#6B696A"/>
<path d="M400.94 333.23C395.8 332.42 391.52 335.96 385.93 336.4C386.78 335.28 387.18 334.61 387.72 334.08C397.06 324.91 406.02 315.41 414.47 305.41C416.74 302.73 419.28 300.13 423.21 299.97C426.62 303.18 430.02 306.4 433.45 309.59C434.84 310.88 435.6 312.21 433.5 313.43C422.52 319.83 412.32 327.53 400.92 333.24L400.94 333.23Z" fill="#888686"/>
<path d="M349.042 307.72C348.732 311.43 345.152 312.13 342.952 313.93C340.762 315.72 342.162 316.38 343.212 317.48C342.822 317.95 342.422 318.41 342.032 318.88C337.562 316.27 337.442 315.42 341.222 312.22C343.082 310.65 345.052 309.19 346.972 307.68C347.672 307.16 348.362 307.12 349.032 307.72H349.042Z" fill="#3E3B38"/>
<path d="M354.94 331.07C357.53 331.11 360.12 331.14 362.71 331.18C363.96 332.52 363.67 334.17 363.6 335.77C363.52 336.32 363.31 336.82 362.97 337.27C362.54 337.63 362.05 337.87 361.51 338.01C359.86 338.37 358.26 338.35 356.77 337.41C355.7 335.43 353.71 333.72 354.93 331.08L354.94 331.07Z" fill="#C49B68"/>
<path d="M360.691 327.23C361.011 325.99 361.321 324.75 361.641 323.51C362.921 323.49 364.201 323.46 365.471 323.44C365.891 323.64 366.081 323.98 366.061 324.44C367.651 324.63 369.391 323.91 370.801 325.21C371.821 325.34 372.981 325.07 373.631 326.22C369.571 329.84 365.121 328.38 360.691 327.23V327.23Z" fill="#BE9D69"/>
<path d="M383.5 344.91C385.87 342.96 387.36 344.27 388.01 346.5C388.91 349.61 387.27 350.92 384.22 350.74L384.2 350.72C381.71 349.05 382.07 347.05 383.51 344.91H383.5Z" fill="#CDB492"/>
<path d="M354.943 331.07C355.313 333.14 357.643 334.58 356.873 337.02C354.603 338.78 352.323 338.78 350.043 337.02C351.363 334.72 352.683 332.43 354.003 330.13C354.313 330.44 354.633 330.75 354.943 331.06V331.07Z" fill="#C19B6E"/>
<path d="M355.52 329.08C355.68 328.82 355.84 328.56 355.99 328.3C357.33 327.31 358.86 327.95 360.3 327.77C365.01 328.22 369.8 326.87 374.46 328.4C368.2 330.19 361.83 328.86 355.52 329.08V329.08Z" fill="#51351F"/>
<path d="M374.453 328.4C369.563 328.33 364.673 328.27 359.773 328.2C359.463 327.98 359.363 327.77 359.483 327.57C359.593 327.37 359.703 327.27 359.813 327.27C360.103 327.25 360.403 327.24 360.693 327.23C365.003 326.89 369.443 328.22 373.633 326.22C375.223 326.44 376.193 326.9 374.453 328.39V328.4Z" fill="#B69D83"/>
<path d="M383.501 344.91C383.181 346.91 382.891 348.91 384.191 350.72C382.951 350.17 382.591 352.48 381.261 351.62C380.711 351.11 380.421 350.47 380.311 349.74C380.221 348.76 380.311 347.81 380.961 347C381.811 346.31 382.651 345.61 383.501 344.92V344.91Z" fill="#493A25"/>
<path d="M380.96 346.99C381.04 347.92 381.12 348.85 381.21 349.78C380.45 350.51 379.72 351.3 378.5 350.76C377.17 349.51 378.34 348.19 378.41 346.9C379.26 346.93 380.12 346.96 380.97 346.99H380.96Z" fill="#BB9973"/>
<path d="M390.18 342.16C390.15 341.11 390.12 340.05 390.09 339C394.56 339.52 394.99 340.45 392.78 344.79C392.33 344.37 392.14 343.81 391.98 343.25C391.7 342.36 390.92 342.31 390.19 342.17L390.18 342.16Z" fill="#4A3625"/>
<path d="M390.18 342.16C391.2 341.82 390.99 339.67 392.48 340.33C393.38 340.73 393.04 342 392.93 342.94C392.16 343.68 391.43 344.49 390.19 343.91C390.19 343.33 390.19 342.75 390.18 342.16V342.16Z" fill="#B29A83"/>
<path d="M362.6 336.98C362.66 336.71 362.71 336.43 362.75 336.15C364.02 334.68 362.31 332.5 363.94 331.12C365.29 332.96 364.43 335.08 364.69 337.06V337.05C363.97 337.57 363.27 337.66 362.59 336.98H362.6Z" fill="#463822"/>
<path d="M390.191 343.91C391.101 343.59 392.011 343.26 392.931 342.94C392.881 343.56 392.831 344.18 392.781 344.79C391.541 345.61 390.131 346.94 390.201 343.91H390.191Z" fill="#DCC3A5"/>
<path d="M370.8 325.22C369.12 324.89 367.12 326.34 365.75 324.3C367.35 323.67 368.94 323.53 370.51 324.38C370.61 324.66 370.7 324.94 370.79 325.21L370.8 325.22Z" fill="#B29C81"/>
<path d="M363.953 331.12C363.313 332.74 364.453 334.78 362.763 336.15C362.753 334.49 362.743 332.84 362.723 331.18C363.133 331.16 363.543 331.14 363.953 331.12V331.12Z" fill="#AB9C84"/>
<path d="M370.52 324.38C368.93 324.35 367.34 324.33 365.76 324.3C365.66 324.02 365.57 323.73 365.48 323.45C367.2 323.58 369.1 322.66 370.52 324.38V324.38Z" fill="#513A1D"/>
<path d="M242.46 693.45C236.83 691.59 230.83 693.69 225.18 691.75C223.23 691.08 221.09 690.94 219.12 690.31C210.75 687.65 209.64 684.02 215.49 677.3C218.54 673.8 221.59 670.14 225.96 668.06C229.12 666.19 231.06 668.39 233.08 670.23C238.2 674.86 241.59 675.11 247.2 671.25C249.14 670.25 251.07 669.4 252.71 671.73C252.95 672.76 252.55 673.63 251.9 674.37C247.87 678.91 245.29 684.14 244.21 690.13C243.98 691.39 243.56 692.62 242.46 693.45V693.45Z" fill="white"/>
<path d="M268.08 684.08C276.79 688.53 285.05 693.93 294.66 696.44C295.93 696.77 297.54 697.07 297.05 698.76C296.67 700.07 295.66 701.24 293.95 701.48C283.61 702.92 273.31 703.07 263.08 700.7C262.55 700.89 262.1 700.77 261.73 700.34C261.02 693.82 264.5 688.93 268.07 684.08H268.08Z" fill="#FEFEFE"/>
<path d="M242.463 693.45C243.193 685.14 246.353 677.97 252.473 672.2C255.033 673.42 256.523 675.53 257.423 678.13C252.453 682.51 250.113 688.43 247.933 694.44C247.613 694.8 247.213 695.03 246.733 695.1C245.483 695.12 244.473 694.56 243.533 693.81C243.173 693.69 242.813 693.58 242.453 693.46L242.463 693.45Z" fill="#75C19C"/>
<path d="M257.26 677.88C254.84 676.68 253.32 674.72 252.47 672.2C250.77 670.12 249.13 671.36 247.49 672.29C246.62 671.54 246.56 670.6 246.83 669.57C247.42 667.86 249.22 668.1 250.41 667.35C251.04 666.96 251.66 666.57 252.28 666.19C253.53 665.35 252.31 663.72 253.37 662.82C254.15 662.19 254.94 661.73 255.76 662.75C256.693 668.983 260.51 672.443 267.21 673.13C267.86 673.2 267.04 673.16 267.69 673.22C269.33 673.8 271.04 673.81 272.75 673.82C273.74 673.8 274.74 673.8 275.73 673.82C277.25 673.82 278.77 673.82 280.28 674.01C280.8 674.07 281.31 674.19 281.81 674.35C282.94 674.94 284.51 675 284.73 676.7C283.38 678.73 281.28 677.77 279.48 678.03C275.21 678.02 270.94 678.06 266.68 678C265.33 678.26 264.22 677.11 262.9 677.38C263.24 677.85 263.33 678.33 263.12 678.85C263.1 679.55 263.08 680.26 263.06 680.96C260.95 682.34 259.7 680.47 258.17 679.67C257.63 679.19 257.25 678.63 257.25 677.87L257.26 677.88Z" fill="#373B37"/>
<path d="M224.04 697.64C219.94 696.04 215.38 695.25 211.66 689.9C220.66 694.45 229 695.13 237.5 694.72C240.13 695.71 242.81 696.11 245.6 695.56C248.02 695.97 250.32 696.59 251.76 698.82C251.76 699.96 251.86 701.18 250.07 700.66C245.31 700.23 240.79 698.29 235.94 698.47C232.04 697.3 227.95 698.77 224.05 697.63L224.04 697.64Z" fill="#76BA97"/>
<path d="M258.342 678.9C259.922 679.59 261.502 680.28 263.082 680.96C263.142 681.52 263.202 682.07 263.262 682.63C263.092 684.4 261.492 685.46 261.042 687.1C260.702 687.89 260.252 688.61 259.722 689.29C258.222 690.89 257.452 692.83 257.082 694.97C256.732 696.1 256.282 697.17 255.312 697.93C254.602 698.26 253.872 698.29 253.122 698.09C251.842 697.6 250.912 696.76 250.462 695.44C249.662 688.08 252.582 681.94 258.332 678.91L258.342 678.9Z" fill="#77C09C"/>
<path d="M259.19 688.72C259.5 688.21 259.799 687.7 260.109 687.18C260.919 685.32 262.339 684.04 264.019 682.99C265.579 682.58 266.83 683.33 268.09 684.08C267.26 688.94 263.27 692.54 262.7 697.51C262.59 698.46 262.37 699.41 262.2 700.35C259.92 701.36 258.4 700.46 257.32 698.41C256.68 694.93 257.4 691.72 259.2 688.72H259.19Z" fill="#7AC09D"/>
<path d="M247.461 669.52C247.461 670.44 247.481 671.37 247.491 672.29C242.971 676.37 237.601 676.34 233.171 672.11C231.091 670.13 229.331 667.7 225.961 668.07C225.961 667.16 225.961 666.24 225.961 665.33C226.331 665.32 226.691 665.3 227.061 665.29C229.661 664.38 231.391 666.18 232.891 667.6C237.001 671.5 241.191 673.06 246.201 669.3C246.591 669 247.101 669.11 247.461 669.52V669.52Z" fill="#3D3A38"/>
<path d="M265.201 676.94C270.031 676.98 274.851 677.02 279.681 677.05C280.061 677.43 280.611 677.57 280.981 677.97C281.091 678.34 281.001 678.64 280.671 678.86C274.831 678.86 268.981 678.85 263.141 678.84C262.721 678.26 262.291 677.69 261.871 677.11C262.941 676.3 264.071 676.46 265.211 676.93L265.201 676.94Z" fill="#76BB99"/>
<path d="M262.381 705.18C261.971 704.89 261.571 704.61 261.161 704.32C261.051 703.3 261.701 702.96 262.521 702.76C263.931 703.34 265.721 702.22 266.931 703.71C273.301 705.22 279.781 703.95 286.191 704.47C286.331 704.48 286.551 704.61 286.561 704.71C286.591 704.96 286.521 705.23 286.491 705.49C282.311 706.29 278.101 705.66 273.901 705.86C270.071 705.47 266.141 706.67 262.381 705.18V705.18Z" fill="#8BAD9E"/>
<path d="M266.933 703.72C265.333 703.62 263.723 703.53 262.123 703.43C258.443 702.58 254.363 702.56 252.043 698.77C252.233 697.98 252.773 697.51 253.473 697.19C254.083 697.27 254.703 697.36 255.313 697.44C256.093 697.01 256.753 697.38 257.403 697.77C257.673 698.02 257.943 698.28 258.213 698.54C259.193 699.9 260.813 699.86 262.193 700.35C262.503 700.43 262.803 700.55 263.093 700.7C263.133 703.29 266.473 701.67 266.933 703.72V703.72Z" fill="#2E4236"/>
<path d="M252.12 698.67C255.1 701 258.95 701.5 262.12 703.43C261.8 703.73 261.47 704.03 261.15 704.33C257.19 703.92 253.69 702.1 250.07 700.68C250.91 700.34 251.3 699.68 251.36 698.8C251.56 698.41 251.81 698.37 252.12 698.68V698.67Z" fill="#7FB398"/>
<path d="M245.5 696.46C242.71 696.44 239.77 697.1 237.5 694.71C239.41 693.71 241.86 696.3 243.54 693.79C244.64 693.58 245.68 693.56 246.38 694.67C246.4 695.42 246.02 695.97 245.5 696.46Z" fill="#2C4A3B"/>
<path d="M306.07 680.18C306.07 680.44 306.07 680.69 306.07 680.95C301.2 680.5 296.22 681.93 291.43 680.13C291.8 679.62 292.28 679.25 292.87 679.03C297.32 678.82 301.88 677.4 306.08 680.19L306.07 680.18Z" fill="#1A4530"/>
<path d="M273.83 705.57C278.05 705.54 282.27 705.52 286.49 705.49C282.38 707.41 278.04 705.87 273.83 706.36C273.51 706.19 273.41 706.01 273.51 705.83C273.61 705.65 273.72 705.56 273.82 705.56L273.83 705.57Z" fill="#214536"/>
<path d="M273.83 705.57C273.83 705.83 273.83 706.1 273.83 706.36C270.02 706.34 266.21 706.32 262.41 706.28C262.32 706.28 262.13 706.07 262.15 705.98C262.19 705.71 262.3 705.44 262.39 705.17C266.21 705.3 270.02 705.43 273.84 705.56L273.83 705.57Z" fill="#204233"/>
<path d="M224.043 697.64C228.003 697.93 232.093 696.5 235.933 698.48C231.973 698.16 227.893 699.52 224.043 697.64V697.64Z" fill="#1F4534"/>
<path d="M280.672 678.87C280.672 678.58 280.672 678.29 280.672 678C283.162 677.72 285.602 676.45 288.172 677.57C288.692 677.98 288.812 678.48 288.512 679.07C285.902 679 283.282 678.94 280.672 678.87Z" fill="#8EB39F"/>
<path d="M288.511 679.07C288.491 678.77 288.461 678.46 288.441 678.16C289.361 676.95 290.561 676.98 291.851 677.36C292.331 677.58 292.661 677.94 292.841 678.43C292.931 678.95 292.801 679.42 292.451 679.82C292.111 679.92 291.771 680.02 291.431 680.12C290.461 679.77 289.491 679.41 288.521 679.06L288.511 679.07Z" fill="#748F83"/>
<path d="M264.019 682.99C262.719 684.39 261.409 685.78 260.109 687.18C260.099 684.93 261.419 683.6 263.259 682.63C263.519 682.74 263.769 682.86 264.019 682.99V682.99Z" fill="#D3E8DB"/>
<path d="M229.911 242.45C237.441 241.33 243.321 245.16 248.841 249.31C251.391 251.23 253.001 254.39 255.041 256.99C258.031 265.08 257.821 264.68 250.101 268.88C247.121 270.5 243.501 272.1 241.661 275.51C239.491 279.04 240.531 282.34 242.401 285.56C246.791 293.15 250.691 301.01 255.161 308.56C255.971 309.93 257.381 311.51 256.421 313.02C255.241 314.88 253.151 313.75 251.491 313.44C240.904 311.46 233.387 305.62 228.941 295.92C226.011 289.56 224.291 282.76 221.571 276.33C220.931 274.88 220.331 273.39 219.381 272.1C218.971 271.56 218.591 271 218.231 270.42C215.701 265.42 212.341 261.21 206.891 258.86C214.501 263.83 217.491 271.23 218.131 279.81C218.321 282.3 219.171 285.04 216.581 286.98C215.031 287.63 213.401 287.65 211.781 287.59C203.921 287.29 196.311 288.57 188.761 290.71C182.171 292.57 179.811 291.01 176.991 284.86C173.481 277.21 175.851 269.89 177.601 262.53C179.851 253.1 184.751 244.86 189.711 236.67C190.431 235.48 191.211 234.49 192.791 235.38C195.701 236.05 198.621 236.72 201.531 237.39C203.501 236.97 205.371 237.45 207.221 238.08C214.581 240.59 222.231 241.59 229.911 242.47V242.45Z" fill="#73C098"/>
<path d="M192.793 235.37C188.093 241.98 183.713 248.73 180.933 256.47C178.673 262.76 177.213 269.21 176.413 275.75C175.833 280.52 178.003 285 180.673 288.88C182.273 291.21 185.243 290.53 187.443 289.73C197.093 286.25 207.053 285.88 217.123 286.23C217.663 285.89 218.133 285.96 218.553 286.44C219.293 287.75 219.233 289.03 218.423 290.29C216.263 292.1 213.393 290.87 211.083 292.04C202.263 293.91 194.563 298.36 186.813 302.68C182.783 304.04 181.143 307.7 178.903 311.5C174.113 301.92 169.883 292.8 169.263 282.45C167.733 278.43 168.003 274.42 169.233 270.39C169.353 258.93 176.213 250.5 182.173 241.68C183.433 239.81 184.953 238.11 186.433 236.39C188.243 234.29 190.333 233.59 192.803 235.35L192.793 235.37Z" fill="#5D8E75"/>
<path d="M222.43 216C227.363 215.873 229.836 218.233 229.85 223.08C229.85 225.81 229.91 228.54 229.95 231.28C231.16 240.46 230.99 240.66 221.71 240.71C215.49 240.51 209.44 239.47 203.79 236.7C201.53 231.41 197.03 232.47 192.77 232.81C192.04 232.96 191.33 233.06 190.81 232.34C190.81 232.06 190.74 231.78 190.63 231.52C193.08 224.06 193.92 216.61 190.96 209.03C190.51 207.89 190.02 206.17 191.62 205.11C195.54 204.09 195.36 207.71 196.71 209.6C198.26 214.59 201.59 216.94 206.86 216.59C208.62 216.47 210.4 216.54 212.17 216.56C215.27 217.17 218.45 216.59 221.56 217.11C222.2 217.22 222.58 217.11 221.93 217.05C221.85 217.05 221.79 216.78 221.72 216.64C221.77 216.22 222.01 216.02 222.42 216.01L222.43 216Z" fill="#C39A69"/>
<path d="M223.82 316.55C220.38 309.81 214.37 306.1 207.79 303.17C205.63 302.21 203.41 303.14 201.19 303.89C195.36 305.85 190.61 309.46 185.97 313.3C183.63 313.94 184.35 312.06 184.07 311.01C184.52 308.99 186.16 307.59 186.84 305.69C187.23 305.1 187.62 304.5 188.01 303.91C196.36 295.68 206.41 291.94 218.04 293.05C222.39 293.47 223.79 297.33 224.93 300.99C225.79 305.4 227.91 309.33 229.73 313.37C229.33 315.2 227.65 315.4 226.33 316.07C225.54 316.5 224.67 316.49 223.81 316.55H223.82Z" fill="#C39A69"/>
<path d="M224.943 300.98C219.243 291.46 213.713 292.64 201.553 296.7C196.773 298.3 192.513 301.45 188.013 303.9C187.613 303.5 187.203 303.09 186.793 302.69C192.323 297.13 199.183 294.07 206.653 292.17C207.893 291.85 209.113 291.45 210.343 291.09C212.793 289.87 215.583 291.46 218.013 290.16C218.023 288.92 218.033 287.68 218.043 286.44C217.433 282.29 217.453 278.09 217.203 273.92C217.113 272.4 216.883 270.49 219.383 270.45C219.663 270.82 219.943 271.19 220.223 271.56C220.643 272.53 220.683 273.59 220.983 274.59C221.923 278.32 220.743 282.23 221.963 285.94C222.263 286.35 222.523 286.78 222.743 287.23C223.473 290.75 227.313 293.58 225.073 297.75C225.023 298.83 224.973 299.91 224.933 301L224.943 300.98Z" fill="#393938"/>
<path d="M204.451 235.47C204.741 236.01 205.031 237.01 205.311 237.01C210.631 236.94 215.501 239.76 220.841 239.42C221.221 239.59 221.491 239.87 221.661 240.23C224.341 240.99 227.351 239.27 229.861 241.3C229.871 241.68 229.891 242.07 229.901 242.45C224.211 244.41 218.781 242.26 213.381 241.13C209.361 240.28 205.201 239.5 201.531 237.38C201.851 236.78 202.181 236.19 202.501 235.59C203.111 234.93 203.751 234.84 204.441 235.48L204.451 235.47Z" fill="#373C38"/>
<path d="M184.84 310.82C185.16 311.67 184.57 312.95 185.98 313.29C189 317.18 192.6 320.65 194.54 325.31C194.05 325.88 193.41 326.05 192.69 325.99C191.16 325.41 190.13 324.3 189.42 322.86C189.2 321.27 187.35 320.86 186.89 319.44C186.86 318.74 186.84 318.05 186.81 317.35C183.7 316.69 182.54 314.41 182 311.6C182.35 310.91 182.7 310.22 183.05 309.53C184.16 309.25 184.55 309.96 184.84 310.81V310.82Z" fill="#3E3A31"/>
<path d="M211.352 348.75C210.632 349.1 209.912 349.45 209.192 349.8C206.292 345.56 203.392 341.32 200.492 337.08C200.702 336.99 200.912 336.89 201.122 336.8C205.852 339.66 209.132 343.75 211.352 348.76V348.75Z" fill="#658676"/>
<path d="M204.452 235.47C203.802 235.51 203.162 235.54 202.512 235.58C199.762 236.42 198.322 233.06 195.712 233.45C194.962 232.47 193.412 233.54 192.762 232.31C199.462 230.36 201.862 231.01 204.462 235.47H204.452Z" fill="#BF9C75"/>
<path d="M225.03 376.08C222.2 377.2 224.54 379.4 224.01 381C222.09 377.75 220.17 374.5 218.25 371.25C218.46 371.06 218.66 370.88 218.87 370.69C220.93 372.49 222.98 374.28 225.04 376.08H225.03Z" fill="#678476"/>
<path d="M182.001 311.61C183.801 313.36 184.281 316.22 186.811 317.36C183.521 316.85 180.521 316.11 182.001 311.61Z" fill="#8F937E"/>
<path d="M169.223 270.4C169.223 274.42 169.243 278.44 169.253 282.45C168.973 282.38 168.683 282.33 168.393 282.31C167.463 278.76 167.693 275.19 168.233 271.62C168.563 271.21 168.893 270.81 169.223 270.4Z" fill="#6E837A"/>
<path d="M168.231 271.62C168.281 275.18 168.341 278.75 168.391 282.31C166.611 278.77 166.881 275.2 168.231 271.62Z" fill="#2A3F36"/>
<path d="M184.841 310.82C184.241 310.39 183.651 309.96 183.051 309.54C184.021 307.96 185.271 306.66 186.851 305.68C187.281 307.83 186.381 309.45 184.841 310.82V310.82Z" fill="#BE9C77"/>
<path d="M189.682 322.33C190.372 323.69 191.522 324.57 192.812 325.3C193.732 326.04 194.702 326.76 194.022 328.17C193.652 328.54 193.262 328.56 192.862 328.23C191.732 326.14 189.172 325.06 188.742 322.46C189.012 322.11 189.332 322.08 189.692 322.33H189.682Z" fill="#758B7B"/>
<path d="M200.493 337.08C198.543 335.79 196.863 334.25 195.863 332.08C196.063 331.33 196.483 330.86 197.323 330.94C198.763 332.77 201.883 333.69 200.603 336.99L200.493 337.08Z" fill="#6A7A70"/>
<path d="M189.683 322.33C189.363 322.36 189.053 322.4 188.733 322.46C188.073 321.48 186.263 321.21 186.893 319.45C187.813 320.42 189.983 320.18 189.683 322.33Z" fill="#98AB93"/>
<path d="M196.642 331.19C196.382 331.48 196.122 331.78 195.862 332.07C194.862 330.78 193.852 329.5 192.852 328.21C193.222 328.2 193.602 328.18 193.972 328.17C195.842 328.31 196.922 329.15 196.652 331.19H196.642Z" fill="#6F807A"/>
<path d="M192.75 232.31C193.79 232.54 194.96 232.43 195.7 233.45C194.05 233.19 192.09 234.23 190.82 232.33C191.46 232.33 192.11 232.32 192.75 232.31V232.31Z" fill="#3E3937"/>
<path d="M218.101 348.61C225.781 347.69 233.431 346.31 241.131 345.94C263.541 344.87 285.721 342.64 307.171 335.56C310.311 334.53 313.511 334.97 316.751 335.83C324.411 337.87 331.981 340.23 339.921 341.25C342.841 341.63 344.851 339.98 347.371 339.91C349.561 338.55 351.861 338.34 354.271 339.2C355.741 342.79 353.941 344.76 349.371 344.61C347.481 344.55 345.161 343.16 344.261 346.24C342.631 348.51 339.731 347.53 337.711 348.81C337.031 349.19 336.331 349.49 335.571 349.64C332.131 350.27 328.691 350.23 325.241 349.72C323.191 349.19 321.191 348.53 319.711 346.88C307.941 345.85 296.371 348.62 284.661 348.8C280.831 350.79 276.651 349.03 272.721 349.91C272.361 350.15 271.981 350.38 271.601 350.6C257.721 350.61 243.841 350.62 229.951 350.64C229.571 350.34 229.161 350.09 228.711 349.9C225.551 349.32 222.341 350.19 219.171 349.58C218.691 349.38 218.321 349.05 218.051 348.6L218.101 348.61Z" fill="#C39C69"/>
<path d="M316.982 350.8C310.802 356.58 303.072 360.22 296.532 365.5C295.382 366.43 294.452 366.11 293.692 364.97C293.512 364.7 293.382 364.4 293.202 364.13C290.652 360.2 286.492 355.54 287.602 351.82C288.432 349.05 295.432 350.63 299.652 349.85C304.302 349 309.132 349.15 313.892 348.86C314.682 349.88 316.342 349.52 316.982 350.79V350.8Z" fill="#6B696A"/>
<path d="M218.103 348.61C218.363 348.78 218.653 348.85 218.973 348.81C219.423 349.08 219.933 349.24 220.403 349.47C221.053 349.75 221.713 350.02 222.053 350.72C222.053 351.27 222.053 351.81 222.053 352.35C218.543 350.97 214.293 351.79 211.343 348.75C207.563 345.01 204.963 340.19 200.593 336.99C200.253 334.39 197.903 333.16 196.633 331.19C195.743 330.18 194.843 329.18 193.953 328.17C193.563 327.21 193.183 326.25 192.793 325.28C193.373 325.28 193.953 325.29 194.523 325.3C199.583 331.4 204.653 337.49 209.703 343.6C211.913 346.27 214.423 348.4 218.093 348.6L218.103 348.61Z" fill="#373D34"/>
<path d="M324.812 348.7C328.572 348.7 332.332 348.68 336.092 348.67C337.812 348.24 339.912 347.19 339.282 350.62C337.932 350.7 336.572 350.77 335.222 350.85C331.732 351.39 328.232 351.46 324.752 350.82C324.052 351.09 323.352 351.36 322.662 351.62C322.342 351.32 322.032 351.02 321.712 350.72C321.112 347.52 323.062 348.25 324.822 348.71L324.812 348.7Z" fill="#3C3B38"/>
<path d="M374.481 350.74C376.621 350.88 376.531 352.18 376.341 353.23C375.891 355.64 373.801 356.82 372.081 358.16C371.081 358.94 369.761 357.45 369.981 357.09C371.361 354.8 373.041 352.7 374.481 350.73V350.74Z" fill="#B99D71"/>
<path d="M272.092 349.83C273.922 347.68 276.362 349.07 278.492 348.82C280.532 348.58 282.622 348.8 284.682 348.82C284.592 349.06 284.542 349.31 284.532 349.57C280.402 350.73 276.242 350.33 272.082 349.83H272.092Z" fill="#B29A81"/>
<path d="M272.091 349.83C276.241 349.74 280.391 349.66 284.541 349.57C280.401 351.93 275.941 350.2 271.641 350.62C271.781 350.35 271.931 350.09 272.091 349.83Z" fill="#4B3619"/>
<path d="M324.81 348.7C323.4 348.8 321.81 348.61 321.7 350.71C320.71 350.71 319.71 350.71 318.72 350.7C318.42 350.45 318.33 350.15 318.44 349.78C318.67 349.15 319.9 349.67 319.76 348.62C319.76 348.05 319.76 347.47 319.75 346.9C321.65 346.9 323.27 347.71 324.82 348.7H324.81Z" fill="#43382E"/>
<path d="M378.49 350.76C379.39 350.43 380.3 350.11 381.2 349.78C381.22 350.39 381.24 351 381.26 351.61C380.16 352.06 380.53 353.82 378.72 354.04C378.13 353.08 378.36 351.91 378.5 350.75L378.49 350.76Z" fill="#E5C89C"/>
<path d="M222.052 350.72C221.282 350.69 220.552 350.56 220.102 349.83C223.352 348.97 226.592 348.78 229.822 349.93C229.852 350.18 229.902 350.42 229.992 350.66C227.342 350.68 224.702 350.7 222.052 350.72V350.72Z" fill="#4C351F"/>
<path d="M319.75 348.62C320.93 350.08 319.28 349.53 318.87 349.86C317.47 350.01 315.76 351.4 315.02 348.9C316.6 348.81 318.17 348.71 319.75 348.62V348.62Z" fill="#AD9987"/>
<path d="M315.021 348.9C316.051 350.24 317.591 349.53 318.871 349.86C318.801 350.14 318.751 350.42 318.721 350.7C318.141 350.73 317.561 350.77 316.981 350.81C315.641 350.66 314.051 350.92 313.891 348.88C314.271 348.88 314.651 348.9 315.021 348.9V348.9Z" fill="#7E6B55"/>
<path d="M242.492 352.81C240.912 354.05 239.332 354.06 237.762 352.81C239.342 352.81 240.922 352.81 242.492 352.81Z" fill="#719478"/>
<path d="M225.092 297.73C225.562 293.83 222.062 291.11 221.992 287.38C220.622 283.39 220.482 279.42 222.072 275.45C224.472 277.9 224.612 281.33 225.822 284.29C228.642 291.18 231.252 298.15 234.082 305.03C234.832 306.85 236.272 308.18 238.322 308.77C244.042 310.42 249.752 312.07 256.202 313.01C251.032 303.78 246.002 294.99 241.182 286.09C239.302 282.61 236.702 278.81 241.662 275.52C243.062 281.46 246.752 286.3 249.452 291.61C253.772 300.11 259.232 308.01 263.022 316.86C260.762 317.96 258.952 317.58 257.192 316.49C255.662 315.39 253.722 316.6 252.172 315.62C246.112 314.95 240.202 312.89 233.992 313.54C231.902 313.76 231.832 311.97 231.272 310.74C229.282 306.37 228.222 301.57 225.082 297.75L225.092 297.73Z" fill="#5D8E75"/>
<path d="M317.783 320.29C326.903 313.32 335.733 305.96 345.533 299.93C347.733 298.58 349.993 294.94 352.263 296.89C354.423 298.75 352.723 302.31 351.013 304.82C349.793 304.26 350.553 302.31 349.013 301.97C347.843 301.52 346.933 301.89 345.893 302.59C338.173 307.8 330.343 312.85 323.433 319.17C321.013 321.38 318.113 322.65 314.883 323.18C315.843 322.22 316.813 321.26 317.773 320.29H317.783Z" fill="#3D3836"/>
<path d="M287.762 323.27C283.232 323.29 278.692 323.31 274.162 323.31C274.082 323.31 274.002 323.1 273.922 322.98C274.262 322.76 274.612 322.54 274.952 322.32C275.262 322.2 275.572 322.09 275.892 321.97C279.432 322.06 283.002 321.44 286.522 322.36C286.942 322.66 287.352 322.97 287.772 323.27H287.762Z" fill="#DFC9B4"/>
<path d="M286.513 322.36C282.973 322.23 279.433 322.1 275.883 321.97C279.453 321.22 283.023 320.67 286.513 322.36Z" fill="#463624"/>
<path d="M225.701 315.44C227.051 314.75 228.391 314.05 229.741 313.36C229.881 314.84 230.741 315.57 232.181 315.69C230.921 316.9 229.391 316.51 227.911 316.42C227.221 315.97 226.151 316.4 225.691 315.44H225.701Z" fill="#4D3D28"/>
<path d="M252.172 315.61C253.872 315.76 255.742 314.89 257.192 316.48C255.492 316.34 253.642 317.09 252.172 315.61Z" fill="#708279"/>
<path d="M195.692 210.03C194.412 208.33 194.492 205.52 191.642 205.11C191.602 203.86 192.702 202.27 190.022 202.15C186.012 201.96 183.762 199.43 182.882 195.6C182.372 193.94 182.182 192.29 182.992 190.67C185.262 190.2 185.932 188.12 187.132 186.57C189.162 185.44 187.772 183.14 188.812 181.68C189.632 177.63 190.452 173.99 195.382 172.35C198.092 171.45 201.002 169.02 201.272 165.34C201.552 161.44 203.122 159.85 207.202 161.07C209.012 161.61 211.032 161.4 212.722 159.99C219.332 154.44 220.542 154.69 226.022 161.39C232.082 168.81 234.212 177.71 235.632 186.76C236.572 192.76 237.902 198.93 235.722 205.01C234.622 208.07 233.632 211.24 229.882 212.14C224.162 213.16 218.442 214.21 212.582 214.03C209.772 216.08 206.552 215.03 203.502 215.22C199.802 215.15 197.942 212.3 195.692 210.03V210.03Z" fill="#EDCAA1"/>
<path d="M169.21 157.05C169.03 152.51 172.55 151.03 175.75 149.7C178.56 148.52 180.63 147.05 182.19 144.31C184.93 139.53 192.21 136.94 196.75 138.68C199.32 139.63 202.66 138.52 204.45 141.56C209.81 142.13 215.18 142.9 220.09 139.7C221.26 140.31 222.11 141.14 222.08 142.58C222.88 143.79 222.37 145.15 222.51 146.43C222.51 146.86 222.45 147.28 222.33 147.69C221.58 148.66 221.13 149.88 220.03 150.58C217.1 153.27 211.82 152.55 210.3 157.29C209.07 159.17 207.75 159.01 206.38 157.46L206.43 157.22C205.12 156.01 203.8 156.04 202.48 157.2C200.92 157.92 199.37 158.63 197.81 159.35C196 163.68 193.14 166.75 188.54 168.44C185.12 169.69 184.75 173.3 183.98 176.45C182.35 183.13 179.11 185.31 172.51 184.36C169.83 182.36 167.92 179.71 166.25 176.85C163.91 172.15 167.05 168.34 168.3 164.21C169.46 161.94 168.23 159.36 169.21 157.07V157.05Z" fill="#C3711D"/>
<path d="M167.312 176.8C168.792 179.2 171.333 180.81 172.273 183.61C176.183 184.27 178.293 186.7 179.053 190.47C179.093 191.45 179.123 192.43 179.163 193.41C180.333 197.48 182.142 201.17 185.302 204.14C186.622 205.38 188.952 206.71 187.142 208.88C185.802 210.5 184.252 212.61 181.532 211.86C179.342 211.26 177.002 210.68 177.112 207.62C177.132 207.13 177.113 206.65 177.103 206.16C176.933 203.44 174.882 201.97 173.172 200.28V200.3C172.562 199.37 171.252 199.18 170.812 198.07C169.892 195.34 171.102 192.54 170.532 189.75C170.302 188.62 170.252 187.63 169.192 186.99C168.832 186.66 168.532 186.3 168.252 185.9C167.572 184.57 166.163 183.92 165.323 182.76C163.383 180.09 164.292 177.43 167.312 176.81V176.8Z" fill="#905D2C"/>
<path d="M179.039 190.46C176.219 189.06 176.399 184.27 172.199 184.4C172.139 184.4 172.009 184.14 172.029 184C172.039 183.86 172.179 183.73 172.269 183.59C180.029 183.67 181.679 182.04 183.079 174.32C183.699 170.92 184.809 167.36 189.249 166.7C193.619 166.06 194.569 161.33 197.819 159.32C199.339 166.66 198.049 168.5 190.249 169.89C189.059 170.1 187.739 170.17 188.069 171.74C188.959 176.06 185.459 178.44 183.929 181.69C183.569 183.02 183.869 184.74 182.219 185.38C179.839 186.3 180.019 188.7 179.069 190.44H179.059L179.039 190.46Z" fill="#915C29"/>
<path d="M179.053 190.45C177.573 185.81 182.133 184.53 183.913 181.7C185.053 183.54 185.463 185.34 183.073 186.47C181.223 187.34 180.463 189.2 179.053 190.45Z" fill="#905D2C"/>
<path d="M223.161 147.4C224.151 147.63 225.121 147.98 224.861 149.23C224.561 150.69 223.471 151.28 222.031 151.27C220.981 150.01 221.041 148.75 222.031 147.49L222.131 147.47C222.451 147.02 222.791 146.97 223.171 147.4H223.161Z" fill="#AB6E34"/>
<path d="M202.48 157.19C203.81 154.49 205.13 154.48 206.43 157.21C205.11 157.21 203.79 157.2 202.48 157.19Z" fill="#A07248"/>
<path d="M222.021 147.5C222.021 148.76 222.021 150.02 222.021 151.28C221.231 151.39 220.481 151.4 220.031 150.58C220.131 149.2 219.931 147.61 222.011 147.5H222.021Z" fill="#C57413"/>
<path d="M188.801 181.67C188.421 183.36 189.971 185.72 187.121 186.56C188.081 185.07 187.211 182.94 188.801 181.67Z" fill="#D6C5B6"/>
<path d="M206.383 157.45C207.723 158.18 209.033 158.15 210.303 157.28C209.103 160 207.793 160 206.383 157.45Z" fill="#53381C"/>
<path d="M182.982 190.66C182.942 192.3 182.912 193.95 182.872 195.59C181.282 194.1 182.122 192.26 182.142 190.53C182.432 190.49 182.712 190.53 182.982 190.65V190.66Z" fill="#D9CBBA"/>
<path d="M223.16 147.4C222.81 147.42 222.47 147.45 222.12 147.47C222.12 145.84 222.1 144.21 222.09 142.58C223.67 143.92 222.76 145.81 223.16 147.4Z" fill="#9C7256"/>
<path d="M267.93 674.31C265.99 674.25 264.05 674.14 262.11 674.13C255.24 674.11 253.95 672.46 255.13 665.31C255.29 664.37 255.15 663.38 255.15 662.41C254.83 655.76 258.12 652.72 265.99 652.4C267.82 654.85 268.89 657.9 271.63 659.65C271.75 664.14 269.65 668.39 270.24 672.96C270.43 674.42 269.28 674.82 267.93 674.3V674.31Z" fill="#FEFEFE"/>
<path d="M292.201 668.34C299.681 672.74 307.961 674.03 317.191 674.3C314.761 676.85 312.141 675.67 309.981 676.24C304.641 678.48 299.161 679.19 293.551 677.52C292.111 677.09 290.691 677.13 289.261 676.99C288.701 676.95 288.181 676.78 287.701 676.49C286.421 673.36 287.381 670.73 289.511 668.36C290.411 668.36 291.301 668.35 292.201 668.34V668.34Z" fill="#FBFCFB"/>
<path d="M317.793 578.37C318.153 578.71 318.513 579.05 318.873 579.4C318.873 580.43 318.403 581.19 317.673 581.92C308.283 591.25 298.913 600.6 289.533 609.94C289.313 607.03 291.873 605.77 293.323 603.99C300.813 594.83 308.873 586.19 317.783 578.37H317.793Z" fill="#E5C8A2"/>
<path d="M267.93 674.31C269.61 673.99 269.09 672.88 269 671.74C268.65 667.47 269.21 663.35 271.63 659.66C273.52 660.22 275.31 660.99 276.85 662.26C275.56 666.49 275.41 671.07 272.94 674.94C271.27 674.71 269.46 675.66 267.93 674.31V674.31Z" fill="#80C3A0"/>
<path d="M265.98 652.4C263.05 652.84 261.35 655.74 257.87 655.83C255.97 655.88 256.72 660.37 255.14 662.41C254.54 662.73 253.93 663.05 253.33 663.37C252.74 662.65 252.84 661.89 253.21 661.12C253.88 655.11 256.47 649.76 258.98 644.39C259.46 644.72 259.75 645.17 259.86 645.74C259.62 647.08 259.92 648.51 259.22 649.77C259.11 650.64 258.59 651.89 258.97 652.28C259.66 653 260.7 652.49 261.42 651.76C262.43 650.74 263.55 649.89 264.98 649.56C265.31 650.51 265.65 651.45 265.98 652.4Z" fill="#403A37"/>
<path d="M280.683 675.03C279.033 675.02 277.383 675 275.723 674.99C273.643 670.58 274.573 666.72 277.873 663.29C279.703 663.38 281.383 663.81 282.623 665.28C283.963 668.92 282.433 671.99 280.683 675.02V675.03Z" fill="#7CBF9E"/>
<path d="M289.511 668.36C289.341 670.99 288.581 673.46 287.621 675.89C286.701 676.99 285.651 676.92 284.541 676.21C283.511 676.06 282.371 676.26 281.621 675.26C282.801 672.25 281.871 668.49 284.851 666.11C286.621 666.42 288.311 666.89 289.511 668.37V668.36Z" fill="#7BBE9D"/>
<path d="M277.87 663.3C275.77 666.94 275.78 670.98 275.72 675C274.79 674.98 273.86 674.96 272.93 674.94C273.8 670.58 273.21 665.77 276.84 662.26C277.18 662.61 277.52 662.96 277.87 663.31V663.3Z" fill="#F5F9F3"/>
<path d="M284.852 666.1C283.392 669.02 285.142 673.06 281.622 675.25C281.302 675.22 280.982 675.15 280.682 675.03C280.312 671.58 282.152 668.57 282.622 665.29C283.452 665.33 284.332 665.2 284.842 666.1H284.852Z" fill="#F0F7F2"/>
<path d="M167.313 176.8C164.353 178.6 164.203 181.05 167.123 182.43C169.393 183.5 169.223 184.86 169.293 186.57C167.433 187.66 166.743 190.21 164.293 190.56C162.623 189.43 161.543 188.05 161.453 185.85C161.303 182.29 162.773 179.17 161.063 174.96C159.383 170.8 165.243 166.77 168.243 162.97C169.043 163.43 168.573 164.52 169.263 165.04C168.553 168.95 164.813 172.35 167.303 176.79L167.313 176.8Z" fill="#935C26"/>
<path d="M164.302 190.56C165.692 188.89 165.772 185.57 169.302 186.57C171.022 188.89 170.642 191.51 169.712 193.81C169.182 195.11 169.512 196.22 169.292 197.38C164.152 197.79 163.202 196.49 164.312 190.56H164.302Z" fill="#8B5D32"/>
<path d="M169.282 197.38C168.612 196.01 166.932 196.58 165.402 195.42C170.762 193.95 169.092 189.92 169.292 186.57C171.192 186.7 173.272 185.68 171.872 189.68C171.082 191.92 171.452 195.38 171.252 198.29C170.912 198.67 170.542 198.7 170.142 198.38C169.852 198.05 169.572 197.71 169.282 197.38V197.38Z" fill="#925C24"/>
<path d="M204.462 141.56C202.222 139.73 199.132 140.17 196.762 138.68C199.562 139.03 203.082 137.43 204.462 141.56Z" fill="#A37C54"/>
<path d="M173.16 200.27C176.2 201.08 177.38 203.13 177.09 206.15C176.05 204.58 175.3 202.73 173.26 202.1C173.23 201.49 173.19 200.88 173.16 200.27V200.27Z" fill="#8B5C2A"/>
<path d="M169.27 165.05C168.46 164.59 168.34 163.8 168.25 162.98C168.78 161.04 167.6 158.82 169.21 157.05C169.23 159.71 169.25 162.38 169.27 165.04V165.05Z" fill="#A5754A"/>
<path d="M170.141 198.38C170.511 198.35 170.881 198.32 171.251 198.29C172.541 198.34 173.191 198.99 173.171 200.3C171.781 200.26 170.341 200.3 170.141 198.38Z" fill="#875F3E"/>
<path d="M237.73 630.16C241.19 631.2 238.98 634.07 239.63 636.02C238.41 637 237.2 637.14 235.98 636.02C236.86 634.16 236.38 631.89 237.73 630.16Z" fill="#BE9B70"/>
<path d="M233.752 646.7C233.302 650.47 235.372 655 230.512 657.44C231.412 653.81 232.052 650.1 233.752 646.7Z" fill="#C29A69"/>
<path d="M235.611 638.73C236.931 640.5 235.471 642.64 236.631 644.74C237.451 646.22 234.881 645.41 233.891 645.78C233.921 643.3 234.531 640.95 235.601 638.72L235.611 638.73Z" fill="#C29A69"/>
<path d="M235.993 636.01C237.213 636.01 238.423 636.01 239.643 636.01C240.023 639.9 237.163 637.46 235.812 637.96C235.872 637.31 235.933 636.65 235.993 636V636.01Z" fill="#C29A69"/>
<path d="M221.172 240.25C221.072 239.97 220.962 239.7 220.852 239.42C221.172 239.4 221.482 239.37 221.802 239.36C227.088 239.253 229.808 236.557 229.962 231.27C230.282 232 230.602 232.73 230.932 233.46C230.302 235.75 231.872 238.36 229.882 240.45C226.972 240.83 224.062 241.23 221.182 240.24L221.172 240.25Z" fill="#B29F8B"/>
<path d="M221.169 240.25C224.069 240.32 226.969 240.39 229.869 240.46C229.869 240.74 229.869 241.02 229.869 241.3C226.949 241.21 224.029 241.13 221.119 241.03C221.059 241.03 220.959 240.79 220.969 240.67C220.979 240.53 221.099 240.39 221.169 240.25V240.25Z" fill="#473420"/>
<path d="M195.691 210.03C198.871 209.7 199.281 213.74 202.051 214.05C202.461 214.19 202.841 214.37 203.211 214.6C205.981 215.24 208.781 214.8 211.571 214.88C211.791 214.87 212.001 214.85 212.221 214.84C213.041 214.91 213.801 215.07 214.251 215.87C214.491 216.06 214.611 216.28 214.611 216.53C214.611 216.8 214.571 216.93 214.511 216.93C213.871 217.49 212.871 217.12 212.281 217.82C210.041 217.82 207.801 217.87 205.571 217.84C200.311 217.77 197.441 215.49 195.701 210.03H195.691Z" fill="#3F3B38"/>
<path d="M202.513 214.95C202.363 214.65 202.203 214.35 202.043 214.05C205.553 214.05 209.063 214.04 212.573 214.03C212.473 214.31 212.353 214.58 212.203 214.84H212.263C209.023 215.79 205.773 215.59 202.513 214.96V214.95Z" fill="#E1CDB8"/>
<path d="M214.252 216.79C214.252 216.48 214.242 216.17 214.242 215.87C216.972 215.91 219.702 215.96 222.442 216C222.312 216.29 222.182 216.57 222.062 216.86C219.452 217.59 216.852 217.69 214.262 216.79H214.252Z" fill="#483824"/>
<path d="M319.731 396.65C310.701 395.26 301.611 395.73 292.531 395.59C280.981 395.41 269.701 397.95 258.251 398.84C256.761 398.96 255.741 399.31 254.421 397.97C247.241 390.68 241.331 382.6 238.951 372.51C235.771 359.04 234.221 359.82 249.091 361.13C257.981 361.91 266.951 362.02 275.751 360.22C278.171 359.73 279.661 360.31 280.671 362.07C285.091 369.77 292.031 373.2 300.491 374.43C304.951 375.08 309.351 376.23 313.771 377.15C316.441 383.07 318.211 389.29 319.821 395.56C320.051 395.82 320.121 396.07 320.021 396.3C319.921 396.53 319.821 396.64 319.741 396.64L319.731 396.65Z" fill="#73C098"/>
<path d="M319.73 396.65C319.76 396.29 319.79 395.93 319.82 395.57C320.68 397.23 322.21 398.91 319.76 400.53C319.76 399.24 319.74 397.95 319.73 396.65Z" fill="#70887D"/>
<path d="M288.492 676.2C295.652 676.87 302.812 676.92 309.982 676.24C309.982 676.51 309.982 676.77 309.982 677.04C309.082 677.69 309.362 679.36 307.852 679.49C302.702 679.17 297.522 680.12 292.412 678.94C292.412 678.67 292.412 678.41 292.392 678.14C291.582 676.51 288.772 678.9 288.502 676.2H288.492Z" fill="#3E413F"/>
<path d="M309.1 678.1C308.02 676.63 309.56 677.3 309.97 677.04C311.61 677.3 313.5 676.39 314.86 678.04C314.51 678.36 314.15 678.67 313.8 678.99C312.28 678.48 310.44 679.61 309.1 678.1V678.1Z" fill="#283F33"/>
<path d="M281.831 549.1C283.121 552.92 280.411 553.41 277.781 553.96C279.131 552.34 280.481 550.72 281.831 549.1Z" fill="#BA9B7A"/>
<path d="M283.711 538.41C284.851 541.67 285.511 544.91 283.281 548.02C283.371 547.72 283.381 547.41 283.321 547.1C283.451 544.2 283.581 541.31 283.711 538.41Z" fill="#B29E8B"/>
<path d="M309.1 678.1C310.63 678.58 312.55 677.02 313.8 678.99C311.41 680.6 308.64 679.78 306.07 680.19C301.53 680.07 296.99 679.95 292.45 679.83C292.44 679.54 292.42 679.24 292.41 678.95C297.98 678.68 303.63 679.96 309.11 678.11L309.1 678.1Z" fill="#8BAE9B"/>
<path d="M247.463 669.52C241.383 674.29 237.943 674.2 232.583 668.68C230.953 667 229.412 665.6 227.062 665.28C227.723 663.69 228.393 662.09 229.053 660.5C229.133 665.15 234.603 665.19 236.173 668.64C236.233 668.76 239.393 670.2 239.633 667.28C243.223 667.3 246.812 667.32 250.402 667.34C249.422 668.06 248.443 668.79 247.463 669.51V669.52Z" fill="#C29A69"/>
<path d="M259.18 645.79C259.11 645.32 259.04 644.86 258.98 644.39C259.03 643.1 259.33 641.89 260.26 640.93C261.39 640.55 262.02 641.16 262.49 642.07C262.74 643.53 262.62 644.87 261.31 645.83L260.99 645.74C260.4 646.34 259.8 646.38 259.18 645.79V645.79Z" fill="#423B37"/>
<path d="M262.211 641.92C261.561 641.59 260.911 641.26 260.251 640.93C259.851 639.69 260.661 638.87 261.261 637.98C262.111 638.02 262.801 638.31 263.171 639.13C263.121 640 263.071 640.87 263.021 641.74C262.851 642.26 262.581 642.34 262.201 641.92H262.211Z" fill="#3A3A3B"/>
<path d="M253.209 661.12C253.249 661.87 253.289 662.62 253.329 663.37C252.849 664.26 254.289 665.86 252.289 666.18C252.469 664.47 251.699 662.59 253.219 661.12H253.209Z" fill="#483723"/>
<path d="M235.722 659.46C235.272 658.85 234.772 658.28 234.372 657.63C234.052 657.1 233.812 656.23 234.512 656.05C235.562 655.78 235.592 656.81 235.742 657.54C235.742 658.18 235.722 658.81 235.722 659.45V659.46Z" fill="#C29A69"/>
<path d="M261.252 408.52L266.072 407.61C266.052 407.83 266.032 408.06 266.012 408.28C264.492 409.79 262.902 409.82 261.242 408.52H261.252Z" fill="#687F74"/>
<path d="M271.953 406.45C273.533 406.45 275.113 406.45 276.683 406.45C275.103 407.78 273.523 407.99 271.953 406.45Z" fill="#798D85"/>
<path d="M266.012 408.28C266.032 408.06 266.052 407.83 266.072 407.61C267.352 407.51 268.622 407.4 269.902 407.3C269.122 409.66 267.302 407.93 266.012 408.28Z" fill="#789087"/>
<path d="M259.18 645.79C259.78 645.77 260.38 645.76 260.99 645.74C260.34 647.06 260.5 648.73 259.22 649.77C259.21 648.44 259.19 647.12 259.18 645.79Z" fill="#4E3A1F"/>
<path d="M262.211 641.92C262.481 641.86 262.761 641.8 263.031 641.74C262.891 643.29 263.791 645.28 261.301 645.83C261.601 644.53 261.911 643.23 262.211 641.92V641.92Z" fill="#B99E7B"/>
<path d="M354.871 339.97C352.381 339.95 349.881 339.94 347.391 339.92C347.451 338.86 348.001 338.19 349.011 337.88C352.771 337.15 356.561 337.65 360.331 337.6C361.331 338.32 360.971 339.15 360.081 339.25C358.331 339.44 356.701 340.48 354.871 339.97Z" fill="#4D3820"/>
<path d="M349.012 301.96C349.282 301.45 349.452 300.63 349.862 300.48C350.522 300.24 350.912 300.88 350.942 301.56C350.992 302.64 350.992 303.72 351.022 304.81C350.362 305.78 349.712 306.75 349.052 307.72C348.362 307.71 347.672 307.69 346.992 307.68C347.872 305.85 349.352 304.23 349.022 301.96H349.012Z" fill="#46352E"/>
<path d="M360.752 338.09C356.842 338.02 352.922 337.95 349.012 337.88C349.362 337.6 349.702 337.31 350.052 337.03C352.332 337.03 354.602 337.03 356.882 337.03C358.502 337.03 360.122 337.03 361.742 337.03C362.042 337.96 361.682 338.29 360.762 338.09H360.752Z" fill="#B29E87"/>
<path d="M225.702 315.44C226.442 315.77 227.182 316.09 227.922 316.42C226.572 316.8 225.262 318.65 223.832 316.55C224.192 315.73 224.882 315.47 225.712 315.44H225.702Z" fill="#4B3D3A"/>
<path d="M359.81 327.28C359.8 327.59 359.79 327.9 359.77 328.2C358.51 328.23 357.24 328.27 355.98 328.3C356.71 325.92 358.61 327.93 359.8 327.27L359.81 327.28Z" fill="#E5CBAF"/>
<path d="M360.75 338.09C361.08 337.74 361.4 337.38 361.73 337.03C362.02 337.04 362.31 337.03 362.6 336.98C363.3 337 364 337.03 364.7 337.05C359.11 339.06 356.09 345.49 349.55 345.89C347.55 346.01 346.86 348.11 345.23 348.81C343.88 349.36 342.42 349.66 341.26 350.62C340.6 350.62 339.93 350.62 339.27 350.62C339.09 348.53 337.45 348.83 336.09 348.67C336.51 348.39 336.93 348.11 337.35 347.83C339.36 346.22 342.62 348.85 344.22 345.82C343.08 344.76 341.05 343.54 344.45 342.97C346.18 342.68 347.94 343.2 349.69 343.45C352.18 343.81 354.46 343.1 354.87 339.98C356.38 337.94 359.21 340.03 360.75 338.1V338.09Z" fill="#403933"/>
<path d="M324.742 350.81C328.232 350.82 331.722 350.83 335.222 350.84C331.722 352.16 328.232 352.33 324.742 350.81Z" fill="#A49184"/>
<path d="M341.27 350.61C342.07 348.87 343.57 348.65 345.24 348.8C344.19 349.99 342.87 350.61 341.27 350.61Z" fill="#3C3B38"/>
<path d="M258.341 678.9C254.261 683.74 250.261 688.61 251.341 695.61C249.641 696.77 248.471 695.95 247.461 694.56C248.561 687.72 250.681 681.49 257.271 677.88C257.631 678.22 257.981 678.56 258.341 678.91V678.9Z" fill="#F2F8F4"/>
<path d="M247.452 694.56C248.742 694.91 250.042 695.26 251.332 695.61C252.042 696.14 252.752 696.66 253.462 697.19C253.012 697.68 252.562 698.17 252.112 698.67C251.852 698.67 251.602 698.71 251.352 698.79C249.402 698.02 247.442 697.24 245.492 696.46C245.782 695.86 246.072 695.27 246.372 694.67C246.732 694.63 247.092 694.59 247.442 694.55L247.452 694.56Z" fill="#3F3E39"/>
<path d="M288.49 676.2C289.39 677.64 291.62 676.41 292.38 678.14C291.07 678.14 289.75 678.15 288.44 678.16C285.85 678.11 283.26 678.06 280.67 678C280.34 677.68 280.01 677.37 279.68 677.05C281.31 676.83 283.12 677.64 284.54 676.2C285.57 676.09 286.59 675.99 287.62 675.88C287.93 675.93 288.22 676.04 288.49 676.19V676.2Z" fill="#294335"/>
<path d="M265.2 676.94C264.09 677 262.98 677.06 261.86 677.12C261.45 676.93 260.28 676.73 261.26 676.27C262.46 675.71 264.01 675.94 265.19 676.94H265.2Z" fill="#80948E"/>
<path d="M258.203 698.54L257.203 698.36C256.033 697.34 256.803 695.84 256.293 694.66C256.343 692.23 256.783 689.99 259.193 688.72C258.853 691.99 257.653 695.18 258.203 698.54V698.54Z" fill="#DDEEE4"/>
<path d="M256.293 694.66C257.633 695.64 257.073 697.08 257.203 698.36C256.573 698.05 255.942 697.75 255.312 697.44C255.643 696.51 255.972 695.59 256.302 694.66H256.293Z" fill="#F7FBF7"/>
<path d="M219.4 270.44C216.85 273.75 218.65 277.57 218.18 281.12C217.95 282.86 218.09 284.66 218.07 286.43C217.76 286.34 217.44 286.27 217.12 286.23C217.43 281.83 216.7 277.49 215.88 273.22C214.76 267.4 210.82 263.41 206.26 259.9C205.33 259.19 203.06 258.5 204.37 256.79C205.7 255.05 206.9 257.12 208.02 257.75C213.23 260.68 217.42 264.59 219.41 270.44H219.4Z" fill="#343D37"/>
<path d="M222.062 275.45C222.032 279.43 222.012 283.4 221.982 287.38C221.702 287.31 221.412 287.25 221.122 287.19C219.692 282.99 221.462 278.55 220.152 274.35C220.182 273.41 220.202 272.48 220.232 271.54C221.352 272.6 221.902 273.93 222.062 275.45V275.45Z" fill="#6E8577"/>
<path d="M218.033 290.15C215.683 292.13 212.903 290.64 210.363 291.09C212.723 289.19 215.493 290.55 218.033 290.15Z" fill="#6E8678"/>
<path d="M214.25 216.79C216.85 216.81 219.45 216.84 222.05 216.86C222.2 216.89 222.37 216.89 222.51 216.95C223.01 217.16 223.16 217.75 222.65 217.77C219.19 217.87 215.73 217.82 212.27 217.83C212.93 217.49 213.59 217.14 214.24 216.8L214.25 216.79Z" fill="#B29E81"/>
<path d="M220.15 274.35C222.13 278.5 220.55 282.93 221.12 287.19C218.89 283.05 220.62 278.62 220.15 274.35Z" fill="#2B4236"/>
<path d="M229.83 349.92C226.59 349.89 223.35 349.85 220.11 349.82C219.73 349.48 219.35 349.14 218.98 348.81C222.59 349.25 226.42 347.55 229.84 349.92H229.83Z" fill="#B39B88"/>
<path d="M344.222 345.82C343.508 347.273 341.218 347.943 337.352 347.83C339.242 345.79 342.262 347.61 344.222 345.82Z" fill="#B59E88"/>
<path d="M202.512 214.95C205.762 214.91 209.012 214.87 212.262 214.83C209.032 216.53 205.772 216.34 202.512 214.95Z" fill="#483824"/>
</svg>
