<svg width="596" height="842" viewBox="0 0 596 842" fill="none" xmlns="http://www.w3.org/2000/svg">
<path d="M417.179 430.26C422.949 426.21 429.879 426.05 435.529 421.61C441.549 416.88 449.159 413.95 455.779 409.7C461.929 405.76 468.329 402.23 474.229 397.92C473.649 397.18 472.839 397.08 472.009 397.04C471.949 397.04 471.889 397.04 471.829 397.04C471.719 397.04 471.599 397.04 471.489 397.05C470.719 397.1 469.969 397.25 469.329 397.7C464.939 400.76 460.159 403.21 455.929 406.49C455.419 407.31 454.659 407.69 453.749 407.8C450.229 408.94 447.719 411.82 444.469 413.32C434.939 417.73 425.769 422.97 415.349 425.27C413.189 425.74 411.479 425.82 409.899 424.71C409.659 424.55 409.439 424.36 409.209 424.13C409.159 424.08 409.109 424.04 409.069 423.99C405.249 421.17 403.099 417.03 400.659 413.12C399.889 411.89 400.289 411.24 401.409 410.47C403.739 408.86 406.209 407.34 407.789 404.86C407.879 404.64 407.979 404.45 408.099 404.27C408.539 403.54 409.149 403.06 409.899 402.77C410.309 402.61 410.739 402.51 411.209 402.45C412.289 402.14 413.139 401.42 414.069 400.82C422.109 395.67 430.659 391.6 439.939 389.29C449.999 386.78 459.969 383.87 470.149 381.86C471.959 381.5 473.899 381.21 475.019 379.4C475.019 379.37 475.019 379.33 475.029 379.3C475.029 379.2 475.059 379.08 475.059 378.98C475.119 378.42 475.089 377.91 474.119 378C469.029 379.99 463.629 380.71 458.369 381.98C447.999 384.47 437.439 386.14 427.469 390.26C418.019 394.17 409.479 399.32 402.089 406.4C399.339 409.03 398.799 408.92 396.579 405.9C394.819 403.51 392.959 401.17 391.449 398.64C387.169 391.48 383.129 384.18 378.819 377.05C377.669 375.15 377.639 374.69 379.939 373.84C397.119 367.53 414.789 362.74 432.069 356.78C436.639 355.2 441.169 353.49 446.099 351C444.229 350.75 443.179 350.92 442.099 351.22C435.459 353.04 428.819 354.86 422.149 356.57C407.169 360.44 392.639 365.73 378.019 370.74C376.419 371.3 375.249 371.6 374.229 369.73C365.989 354.62 355.879 340.98 341.949 329.87C356.449 324.01 371.259 320.12 385.079 312.41C383.399 311.57 382.639 311.97 381.789 312.2C367.829 316.04 354.199 320.84 340.669 325.97C339.449 326.43 338.389 326.95 336.999 326.06C330.129 321.65 322.479 318.87 314.909 315.97C311.349 314.6 307.759 313.14 303.849 312.98C303.219 312.74 302.579 312.67 301.909 312.7C301.909 312.26 302.459 312.26 302.559 311.89C306.369 310.51 310.149 309.03 313.999 307.76C334.689 300.97 355.419 294.25 375.009 284.57C377.209 283.48 379.399 282.36 381.919 281.09C379.829 280.04 378.509 281.12 377.169 281.57C361.369 286.94 346.059 293.57 330.189 298.85C288.729 312.66 247.499 327.24 207.309 344.52C204.539 345.72 201.759 346.49 198.689 346.17C195.229 345.82 191.909 346.76 189.789 349.41C187.649 352.08 184.909 352.89 181.949 353.45C176.049 354.58 170.679 356.48 166.139 360.81C163.599 363.24 159.789 365.2 156.389 365.06C147.239 364.69 139.209 367.61 132.149 372.72C122.469 379.71 113.959 388.08 107.269 398.1C102.149 405.76 96.5393 413.12 92.7893 421.62C90.9993 425.67 90.9793 426.39 91.9493 429.24C96.0793 416.94 104.279 407.49 111.459 397.37C110.849 402 110.019 406.52 110.509 411.13C111.939 411.5 112.279 410.84 112.409 410.03V410.01C112.479 409.64 112.489 409.23 112.549 408.88C112.669 408.17 112.629 407.44 112.689 406.72C112.689 406.72 112.689 406.71 112.689 406.7C112.709 406.47 112.739 406.26 112.789 406.03C112.789 406.03 112.789 406.01 112.789 406C112.869 405.64 113.009 405.28 113.249 404.95C113.259 404.92 113.279 404.9 113.299 404.88C113.879 403.77 113.829 402.52 114.099 401.34C115.459 395.3 117.789 389.85 122.779 385.78C124.899 384.05 127.289 382.67 129.209 380.69C129.449 380.76 129.499 380.66 129.449 380.49C129.429 380.41 129.379 380.31 129.329 380.2C128.979 379.5 128.229 378.44 130.189 379.51C130.309 379.58 130.429 379.64 130.549 379.7C130.869 379.86 131.199 379.99 131.539 380.08H131.549C132.109 380.23 132.649 380.26 133.169 380.07C133.399 379.98 133.609 379.84 133.819 379.66C134.089 379.41 134.339 379.07 134.569 378.62C134.529 378.5 134.499 378.38 134.489 378.27C134.469 378.17 134.459 378.07 134.479 377.99C134.509 377.66 134.719 377.47 135.149 377.45C135.229 377.45 135.309 377.45 135.399 377.45C137.039 377.31 138.429 376.38 139.999 375.98C142.849 375.26 145.959 376.27 146.989 378.22C147.019 378.27 147.049 378.32 147.069 378.38C147.069 378.44 147.079 378.49 147.099 378.54C147.169 379.08 147.409 379.44 147.809 379.63C147.929 379.7 148.069 379.75 148.219 379.77C148.359 379.8 148.509 379.82 148.659 379.82C149.529 379.74 150.119 379.21 150.619 378.56C150.719 378.34 150.859 378.15 151.009 378.01C151.279 377.75 151.619 377.58 151.959 377.4C152.139 377.3 152.329 377.21 152.499 377.09C152.599 377.02 152.679 376.96 152.769 376.88C152.859 376.8 152.949 376.71 153.019 376.61C153.139 376.31 153.179 376.02 153.119 375.73C153.099 375.63 153.069 375.54 153.029 375.44C153.009 375.39 152.979 375.34 152.959 375.29C151.909 374.19 149.929 374.74 149.129 373.15C150.219 372.75 151.299 372.97 152.369 373.3C156.059 373.4 158.869 375.98 162.289 376.84C162.359 376.87 162.439 376.89 162.519 376.91C162.519 376.91 162.579 376.92 162.599 376.93C163.249 376.68 163.609 376.18 163.799 375.54C163.909 375.52 163.979 375.49 164.039 375.44C164.159 375.34 164.139 375.19 164.049 375.02C163.709 374.38 162.449 373.42 164.379 373.55C164.409 373.55 164.439 373.55 164.459 373.55C164.709 373.65 164.939 373.78 165.139 373.92C166.609 374.95 166.789 376.84 167.589 378.31C167.649 378.43 167.709 378.55 167.799 378.66C167.899 378.84 168.029 379.01 168.169 379.17C168.479 379.84 168.989 380.38 169.429 380.96C169.929 381.63 169.929 382.23 169.149 382.7C167.879 383.79 166.019 384.28 165.529 386.18V386.24C165.529 386.36 165.539 386.48 165.569 386.59C165.679 387.12 165.999 387.49 166.459 387.76C166.579 387.83 166.719 387.9 166.869 387.96C166.869 387.96 166.879 387.97 166.889 387.97C168.009 388.65 169.899 388.45 169.859 390.49C169.809 392.4 168.349 392.94 166.919 393.59C163.419 395.17 160.039 397 156.589 398.68C155.719 399.11 154.789 399.95 153.839 399.52C152.059 398.71 151.219 399.55 150.419 400.92C149.619 402.3 148.229 403.06 146.899 403.8C144.609 405.07 142.319 406.33 140.009 407.56C139.619 407.77 139.229 407.98 138.839 408.18C138.539 408.34 138.249 408.5 137.939 408.66C136.819 409.35 135.589 409.92 135.199 411.33C135.189 411.36 135.169 411.4 135.169 411.44C135.169 411.48 135.169 411.51 135.169 411.54C135.229 412.28 135.569 412.67 136.049 412.89C136.219 412.97 136.399 413.02 136.609 413.06C136.819 413.1 137.049 413.13 137.279 413.14C141.609 412.38 144.809 408.56 149.459 408.64C149.949 408.64 150.369 408.05 150.709 407.63C151.839 406.21 153.379 405.39 154.969 404.62C158.509 402.88 161.999 401.06 165.609 399.45C169.339 397.79 169.319 397.73 170.779 401.61C170.919 401.88 171.089 402.15 171.279 402.39C171.299 402.42 171.329 402.44 171.339 402.47V402.5C171.459 402.64 171.559 402.77 171.629 402.94C171.769 403.21 171.869 403.51 171.999 403.79V403.8C172.119 404.08 172.269 404.34 172.509 404.56C172.539 404.59 172.579 404.63 172.619 404.65C172.659 404.68 172.699 404.72 172.739 404.74C173.109 404.87 173.459 404.87 173.799 404.74C173.849 404.73 173.899 404.7 173.939 404.67C173.999 404.65 174.059 404.61 174.119 404.57C174.439 404.18 174.599 403.73 174.659 403.24C174.659 403.19 174.659 403.14 174.659 403.09C174.659 402.99 174.659 402.88 174.659 402.78C174.659 401.39 174.139 400.1 173.649 398.82C172.899 396.84 173.679 395.75 175.469 394.99C177.519 394.11 177.879 395.65 178.419 396.95C179.019 398.41 179.629 399.87 180.049 401.39C180.069 401.44 180.079 401.49 180.099 401.54C180.129 401.63 180.159 401.72 180.189 401.81C180.969 404.09 181.599 406.44 182.689 408.6C183.069 409.34 183.109 410.77 184.469 410.4C184.499 410.4 184.519 410.39 184.539 410.38C184.619 410.35 184.719 410.32 184.809 410.28C185.569 408.82 186.119 407.31 186.459 405.75V405.7C186.489 405.58 186.529 405.49 186.539 405.37C186.699 404.59 186.809 403.81 186.859 403.01V402.96C186.899 402.45 186.909 401.95 186.909 401.43C186.909 401.2 186.909 400.99 186.899 400.76C186.909 398.39 186.179 396.22 185.189 394.11C185.089 393.76 184.819 393.46 184.569 393.16C184.179 392.7 183.839 392.23 184.159 391.59C184.219 391.47 184.299 391.35 184.399 391.22C186.919 389.88 189.579 388.8 192.219 387.68C203.469 382.87 214.839 378.35 226.129 373.62C228.189 372.76 229.469 372.97 230.229 375.16C230.349 375.5 230.499 375.83 230.659 376.15C230.759 376.35 230.859 376.56 230.969 376.76C230.999 376.83 231.039 376.88 231.069 376.95C235.879 386.68 238.999 397.05 242.689 407.21C242.699 407.26 242.719 407.29 242.739 407.34C242.769 407.43 242.809 407.52 242.829 407.61C243.539 409.7 244.159 411.82 244.969 413.87C245.809 416.01 245.109 417.06 243.019 417.81C237.439 419.79 231.959 422.05 226.469 424.26C225.569 424.62 224.539 425.51 223.719 424.92C222.659 424.16 223.499 422.89 223.639 421.85C223.869 420.01 224.589 418.22 224.289 416.33C224.149 415.43 223.809 414.54 222.769 414.44C222.499 414.41 222.279 414.47 222.109 414.58C221.679 414.86 221.519 415.48 221.309 415.95C221.249 416.07 221.209 416.2 221.149 416.33C220.819 417.23 220.689 418.2 220.329 419.09C219.709 420.76 219.489 422.51 219.239 424.26C218.929 426.44 217.769 427.83 215.679 428.58C208.929 430.99 202.249 433.57 195.559 436.12C193.609 436.87 192.709 436.46 192.399 434.37C191.859 430.66 191.429 426.94 190.789 423.25C190.709 422.83 190.639 422.4 190.569 421.97C190.529 421.72 190.489 421.47 190.459 421.21C189.829 416.9 189.589 412.51 187.519 408.51C187.409 408.41 187.279 408.33 187.149 408.27C187.099 408.24 187.049 408.21 186.989 408.2C186.869 408.15 186.749 408.13 186.619 408.13C186.609 408.13 186.589 408.13 186.569 408.13H186.539C185.119 408.65 185.239 410.02 184.929 411.15C184.849 411.45 184.749 411.71 184.579 411.95C184.479 412.11 184.339 412.26 184.169 412.38C184.409 416.51 181.899 417.94 178.329 418.39C177.579 418.49 176.879 418.87 176.129 419.04C172.789 419.82 170.959 421.81 170.339 425.28C169.969 427.39 169.369 429.6 167.539 431.01C167.369 431.15 167.179 431.27 166.979 431.38C166.889 431.44 166.799 431.49 166.709 431.54C157.519 434.13 148.379 437.18 138.599 434.94C138.449 434.94 138.299 434.94 138.159 434.94C138.079 434.94 137.989 434.94 137.909 434.94C137.329 434.92 136.769 434.84 136.219 434.74C136.759 434.84 137.319 434.88 137.889 434.83C137.969 434.83 138.069 434.82 138.149 434.8C138.189 434.8 138.229 434.8 138.269 434.79C141.809 433.43 145.119 431.53 149.099 431.33C152.639 431.15 154.199 427.79 156.489 425.72C157.729 424.59 155.929 422.92 155.819 421.44C155.739 420.32 156.019 419.27 156.079 418.18C156.079 418.15 156.079 418.11 156.079 418.09C156.079 417.97 156.079 417.86 156.059 417.76C156.009 417.2 155.869 416.71 155.459 416.37C155.399 416.32 155.329 416.27 155.249 416.23C155.149 416.17 155.029 416.12 154.899 416.07C151.879 416.57 151.989 418.89 151.969 421.11C151.929 425.61 150.559 427.25 146.159 427.96C144.759 428.19 143.189 428 142.029 428.88C138.979 431.2 135.639 430.89 132.049 430.87C123.959 430.84 118.839 427.02 115.779 419.85C115.369 418.89 114.999 417.9 114.679 416.91C114.599 416.67 114.519 416.44 114.449 416.2C114.449 416.18 114.439 416.16 114.429 416.14C114.089 415.31 114.169 414.41 113.949 413.56C113.949 413.53 113.929 413.49 113.919 413.45C113.909 413.39 113.889 413.34 113.869 413.28C113.049 411.87 112.009 411.28 110.519 412.38C110.699 413.35 110.789 414.33 111.069 415.26C113.599 423.62 116.589 431.59 126.759 433.34C127.289 433.42 127.819 433.65 128.279 433.93C133.739 437.29 139.829 438.67 146.079 438.77C152.559 438.88 158.699 436.48 165.019 435.32C169.629 434.48 172.169 431.65 172.549 427.61C173.029 422.42 176.189 421.15 180.329 420.43C181.399 420.25 182.439 419.93 183.489 419.69C185.849 419.15 186.909 420.14 186.369 422.55C185.469 426.51 183.979 430.27 182.349 433.97C181.569 435.76 180.399 437.47 180.599 439.54C180.829 441.83 179.739 442.82 177.659 443.53C162.649 448.67 147.939 454.59 133.329 460.76C131.429 461.56 130.759 461.43 130.219 459.31C128.099 451.04 124.539 443.4 119.419 436.54C118.449 435.25 117.479 432.36 116.089 433.26C114.169 434.5 115.949 436.82 116.929 438.45C120.719 444.78 124.209 451.24 126.229 458.38C126.959 460.98 128.509 463.83 124.559 465.39C124.019 465.61 123.379 466.27 123.869 466.99C124.179 467.44 124.909 467.51 125.369 467.13C128.779 464.3 128.529 467.72 128.819 469.32C130.509 479.06 131.829 488.86 133.759 498.55C134.449 502.06 133.539 503.92 130.809 505.93C122.589 512 114.559 518.33 106.489 524.61C105.219 525.6 104.059 526.04 102.339 525.82C99.1993 525.41 96.2693 524.2 93.1693 523.72C92.8393 524.06 92.7793 524.44 92.8793 524.84C92.8893 524.92 92.9193 525 92.9493 525.08C92.9493 525.11 92.9693 525.13 92.9793 525.15C98.5993 528.33 105.429 529.52 109.819 525.65C115.139 520.94 121.799 517.87 126.659 512.49C127.049 511.64 127.709 511.14 128.609 510.95C131.019 510.03 132.829 508.24 134.759 506.63C134.789 506.61 134.829 506.6 134.859 506.58C135.079 506.47 135.299 506.39 135.449 506.42C135.629 506.45 135.699 506.64 135.569 507.09C135.529 507.23 135.479 507.37 135.419 507.5C135.419 507.5 135.419 507.503 135.419 507.51C135.339 507.69 135.249 507.87 135.169 508.05C135.059 508.29 134.949 508.53 134.899 508.8C134.579 510.49 135.119 512.09 135.419 513.7C136.709 520.49 136.699 520.52 130.079 522.9C129.449 523.12 128.819 523.31 128.199 523.53C118.009 527.15 107.839 530.79 97.5993 534.25C96.4893 534.62 95.3793 534.99 94.2693 535.36C94.2693 535.36 94.2693 535.36 94.2593 535.36C93.1293 535.74 91.9893 536.12 90.8693 536.51H90.8593C83.4393 539.03 75.9993 541.49 68.1493 542.5C68.0993 542.52 68.0693 542.53 68.0193 542.55C67.8993 542.6 67.7693 542.64 67.6493 542.69C67.3593 542.8 67.0593 542.9 66.7593 543.02C66.6693 543.07 66.5793 543.13 66.4893 543.19C66.3693 543.26 66.2593 543.34 66.1493 543.43C64.9893 544.29 64.0093 545.47 62.3793 545.64C63.4293 544.82 64.3793 543.97 65.5193 543.38C65.5893 543.33 65.6593 543.29 65.7393 543.25C65.8993 543.16 66.0493 543.08 66.2193 543.01C66.6793 542.81 67.1593 542.65 67.6293 542.45C67.7593 542.4 67.8993 542.34 68.0193 542.27C68.1593 542.2 68.2893 542.13 68.4093 542.05C69.9593 541.29 71.5693 540.66 73.1293 539.92C73.1293 539.92 73.1293 539.92 73.1393 539.92C73.4493 539.77 73.7493 539.61 74.0593 539.46C75.2193 538.86 76.3393 538.2 77.2893 537.3C78.1293 536.52 79.4693 535.71 78.6193 534.34C78.6193 534.34 78.6093 534.32 78.5993 534.31C78.5493 534.23 78.4993 534.16 78.4393 534.1C77.7193 533.3 76.5393 533.68 75.5993 534.02C70.7493 535.74 65.7893 537.05 60.8193 538.4C60.5293 538.5 60.2793 538.52 60.0793 538.46C59.8793 538.41 59.7193 538.3 59.5793 538.15C59.4593 538.03 59.3493 537.88 59.2493 537.73C59.1893 537.64 59.1293 537.55 59.0593 537.46C59.0193 537.4 58.9793 537.35 58.9393 537.3C58.4993 536.9 58.0493 536.55 57.4093 536.88C56.3493 538.01 56.3793 539.36 57.1593 540.48C59.0093 543.1 61.5193 540.6 64.0693 541.05C60.6593 543.55 58.2193 546.39 56.1293 549.67C54.8393 551.7 55.9493 552.1 57.2193 552.64C58.1093 553.01 59.1693 553.03 60.1193 552.61C60.7093 552.35 61.3793 551.81 61.3793 553.04C61.3593 556.01 63.3393 555.68 65.2793 555.47C67.7993 555.19 69.8893 553.97 71.5193 552.16C73.8893 549.54 77.3493 550.15 80.1993 549C80.6593 548.81 80.2993 549.67 80.3293 550.05C80.8193 550.71 81.4993 550.78 82.2393 550.65C82.2493 550.65 82.2593 550.65 82.2693 550.65C82.3893 550.6 82.4993 550.56 82.6093 550.51C83.9393 549.87 84.7293 548.65 85.5693 547.51C86.0893 546.8 86.5593 545.92 85.9693 545.06C85.2593 544.05 84.2093 544.33 83.2693 544.67C81.4993 545.31 79.8793 546.28 78.0493 546.76C74.4093 547.69 70.8293 548.71 68.0593 551.56C67.2793 552.35 66.1993 553.1 64.8293 552.76C66.1393 549.9 67.0293 549.14 69.9993 548.26C87.7693 543.02 105.329 537.13 122.799 530.95C123.409 530.71 124.039 530.49 124.659 530.28C124.969 530.18 125.269 530.07 125.579 529.97C126.699 529.59 127.799 529.22 128.909 528.81C127.909 529.27 126.939 529.78 125.969 530.32C125.919 530.35 125.869 530.38 125.819 530.4C125.769 530.43 125.729 530.45 125.679 530.47C121.419 532.67 117.299 535.1 113.439 537.93C110.799 539.87 107.969 541.06 104.719 541.55C101.459 542.03 98.2193 542.82 95.1893 544.15C91.1893 545.89 88.0093 548.6 86.2593 552.72C86.2493 552.75 86.2293 552.78 86.2193 552.8C86.2393 552.87 86.2593 552.92 86.2893 552.98C86.4393 553.42 86.6893 553.71 87.2793 553.51C91.8793 547.59 98.3993 545.34 105.419 544.34C108.769 543.86 111.849 543.14 114.509 541C122.089 534.92 131.139 531.29 139.159 525.79C140.249 529.07 141.199 532.09 142.239 535.07C144.959 542.87 148.199 550.41 153.489 556.89C155.849 559.79 157.809 560.73 160.219 560.11C153.639 554.99 150.469 547.75 147.529 540.43C145.819 536.17 144.719 531.66 143.009 527.39C141.809 524.39 142.659 523.28 145.609 522.28C162.239 516.7 178.829 510.97 195.369 505.11C197.949 504.19 198.699 504.7 199.219 507.23C202.119 521.54 210.999 531.04 223.799 537.27C224.709 537.71 225.579 538.67 226.859 538.03C226.129 536.65 224.699 536.26 223.519 535.57C212.079 528.89 203.469 520.14 201.009 506.43C200.549 503.86 200.939 503.19 203.239 502.31C224.379 494.29 245.979 487.59 267.149 479.67C268.829 479.04 269.389 479.48 270.099 480.95C274.589 490.34 281.369 497.66 290.159 503.24C296.219 507.09 302.419 510.65 309.679 513.77C303.509 515.91 298.069 517.84 292.609 519.71C264.759 529.26 236.189 536.82 209.679 550.01C208.619 550.54 206.319 550.4 206.709 551.66C207.359 553.78 209.329 552.04 210.699 551.95C211.519 551.9 212.309 551.34 213.129 551.02C221.069 547.88 228.919 544.49 236.959 541.64C262.899 532.47 289.409 525.05 315.269 515.62C316.889 515.03 318.549 514.87 320.149 515.12C329.929 516.66 339.819 517.23 349.659 518.2C351.769 518.41 354.059 518.94 357.049 517.34C345.259 515.87 334.419 514.51 322.879 513.06C347.489 503.19 372.309 496.53 396.539 488.1C397.619 487.73 398.729 487.68 399.799 487.99C404.399 489.34 409.129 490.24 413.629 491.98C419.039 494.07 424.499 495.98 430.379 496.58C421.889 492.49 412.819 489.77 404.249 485.62C418.369 480.1 433.119 476.83 446.749 468.87C443.979 468.55 442.129 469.28 440.259 469.8C426.719 473.55 413.599 478.57 400.309 483.04C398.939 483.5 397.679 483.76 396.199 483.28C383.159 479.04 370.069 474.96 357.489 469.43C349.729 466.02 342.189 462.26 336.269 455.7C337.059 455.35 337.639 455.04 338.249 454.84C352.879 450.11 367.509 445.42 382.119 440.66C383.679 440.15 385.109 440.22 386.649 440.54C390.209 441.29 393.679 440.64 396.929 439.24C402.039 437.04 407.059 434.66 412.049 432.18C413.249 431.58 414.059 431.73 415.049 432.34C421.269 436.15 428.149 438.51 434.809 441.3C445.679 445.86 456.799 449.6 468.679 450.49C472.569 450.78 476.319 450.41 479.979 448.72C457.469 447.81 437.489 438.79 417.179 430.2V430.26ZM372.349 376.26C373.319 375.91 374.119 375.8 374.839 376.99C377.879 382.04 381.039 387.02 384.159 392.02C383.999 392.16 383.839 392.31 383.679 392.45C382.119 391.22 380.739 389.63 378.989 388.82C374.449 386.71 372.569 383.05 371.879 378.39C371.759 377.52 371.089 376.72 372.339 376.26H372.349ZM340.909 333.21C344.189 336.47 347.769 339.41 350.779 342.95C358.699 350.04 363.849 359.18 369.369 368.05C369.889 368.89 370.509 369.7 370.849 370.61C371.099 371.3 372.669 371.98 371.039 372.9C369.989 373.49 369.359 373.4 368.589 372.33C365.499 368.07 361.989 364.14 359.859 359.19C357.429 353.54 354.419 348.17 350.229 343.56C345.909 339.92 341.439 336.63 335.509 336.2C334.009 336.09 333.439 334.74 333.329 333.63C333.209 332.45 334.709 332.68 335.439 332.21C337.619 330.82 339.249 331.54 340.929 333.21H340.909ZM333.739 327.97C332.039 329.23 329.253 327.94 325.379 324.1C328.919 325.02 331.279 326.53 333.739 327.97ZM214.659 344.95C240.279 334.17 266.229 324.22 292.629 315.55C298.609 313.58 305.129 315.45 311.089 317.86C310.619 318.11 309.699 317.88 308.969 317.82C305.349 317.49 302.719 317.47 299.579 317.08C291.599 316.07 285.209 320.32 278.639 323.66C274.989 325.51 270.849 326.22 267.549 328.96C265.079 331.01 262.399 332.82 260.629 335.5C255.989 342.52 249.139 345.31 241.159 346.24C237.029 346.72 232.949 347.63 228.819 347.99C223.339 348.47 217.979 347.15 212.249 346.7C212.769 345.28 213.899 345.29 214.669 344.97L214.659 344.95ZM135.139 434.51C134.589 434.35 134.069 434.13 133.549 433.86C134.079 434.11 134.599 434.34 135.139 434.51ZM134.309 480.59C133.509 475.95 132.929 471.25 131.929 466.65C131.539 464.87 131.809 464.1 133.479 463.47C147.259 458.23 160.929 452.71 174.889 447.92C175.639 447.66 176.439 447.29 177.049 447.8C177.269 447.98 176.809 448.96 176.669 449.57C171.739 458.47 167.149 467.54 162.819 476.74C161.069 478.7 159.479 480.83 157.549 482.59C151.139 488.42 145.109 494.69 137.739 500.13C136.559 493.43 135.419 487.03 134.309 480.61V480.59ZM195.619 501.27C183.689 505.39 171.789 509.55 159.869 513.68C159.179 513.92 158.429 513.99 157.629 513.5C161.759 510.71 165.809 507.93 169.379 504.54C173.369 500.79 177.359 497.04 181.349 493.29C185.759 490.01 190.149 486.71 194.169 482.21C195.139 488.29 195.529 494.02 197.129 499.54C197.449 500.64 196.539 500.96 195.619 501.27V501.27ZM265.659 476.39C244.159 483.9 222.699 491.58 201.249 499.26C199.809 499.78 199.439 499.77 199.029 498.01C197.549 491.67 197.469 485.18 196.629 478.77C197.579 477.45 198.529 476.13 199.479 474.81C202.619 470.24 204.529 465.04 206.979 460.12C210.569 454.13 212.229 447.29 216.389 441.4C219.529 436.96 222.819 436.29 227.409 436.22C232.129 436.15 236.649 434.68 241.449 432.89C241.709 435.39 241.609 437.77 242.029 440.09C243.609 448.84 249.219 453 257.909 451.58C259.969 451.24 260.989 451.74 261.599 453.98C263.329 460.32 265.359 466.57 267.309 472.84C267.849 474.58 267.929 475.59 265.659 476.38V476.39ZM270.359 471.5C268.639 465.04 266.699 458.64 264.699 452.27C264.239 450.8 264.449 450.19 265.849 449.62C271.699 447.21 276.729 443.13 282.969 441.45C285.139 440.87 286.409 438.76 287.619 436.92C293.939 427.3 302.909 420.24 311.559 411.94C316.239 426.79 322.009 440.64 331.569 453.1C322.549 456.09 313.939 458.81 305.419 461.8C294.859 465.51 284.349 469.36 273.889 473.32C271.649 474.16 270.959 473.76 270.359 471.5ZM363.549 475.7C372.509 479.62 381.759 482.7 391.239 486.21C384.379 488.4 377.549 490.68 370.659 492.77C352.309 498.36 334.269 504.88 316.279 511.54C314.399 512.24 312.829 512.27 311.019 511.38C297.739 504.83 284.639 498.09 276.179 485.15C271.569 478.11 271.589 478.17 279.229 475.29C296.569 468.73 314.159 462.88 331.769 457.11C332.819 456.77 333.879 455.97 335.009 457.29C342.689 466.24 353.019 471.09 363.539 475.69L363.549 475.7ZM335.499 451.82C333.489 452.5 332.729 451.7 331.769 450.36C323.829 439.46 318.649 427.3 315.039 414.39C314.399 412.1 312.989 410.11 315.729 408.11C318.629 405.99 324.919 406.11 327.489 408.59C331.129 412.1 334.809 415.57 338.489 419.03C340.549 420.97 343.449 420.95 345.869 422.18C355.959 427.35 365.429 433.64 376.469 438.35C362.329 442.97 348.889 447.3 335.499 451.82V451.82Z" fill="#383938"/>
<path d="M474.749 379.23C474.729 378.72 474.609 378.27 474.109 378.02C477.369 375.55 479.299 372.5 478.759 368.18C478.249 364.11 479.969 360.45 481.459 356.85C482.859 353.49 487.579 352.63 493.719 354.35C496.949 355.26 500.099 356.47 503.319 357.44C508.629 359.05 513.759 357.38 518.909 356.41C523.319 355.58 527.669 354.5 532.229 354.8C537.249 355.12 539.849 357.46 539.739 361.49C539.679 363.63 538.259 364.51 536.869 365.56C525.229 374.32 511.999 380.09 498.749 385.81C494.549 387.62 490.359 389.48 486.169 391.31C485.079 391.69 485.109 390.89 485.009 390.22C485.729 387.97 487.909 387.68 489.649 386.89C491.679 385.97 491.999 384.74 491.419 382.67C490.819 380.54 489.699 380.12 487.769 380.56C484.189 381.38 481.009 380.6 478.369 377.96C476.959 377.78 476.369 379.96 474.769 379.21L474.749 379.23Z" fill="#383938"/>
<path d="M58.7984 537.66C58.3284 537.43 57.8684 537.2 57.3984 536.97C59.4284 534.47 62.4084 533.67 65.2684 532.8C70.8384 531.11 76.4784 529.6 82.0584 528.03C80.6684 527.13 79.1684 526.16 77.6584 525.18C78.1284 524.46 78.8684 524.32 79.6484 524.28C81.3984 524.42 82.9284 525.04 84.1784 526.29C84.6784 527.15 84.6984 528.04 84.3584 528.96C83.5884 530.5 82.1384 530.99 80.6184 531.41C73.9284 533.24 67.1384 534.78 60.8184 537.76C60.1384 537.87 59.4484 538.01 58.7984 537.66V537.66Z" fill="#3B3939"/>
<path d="M86.5588 552.87C86.7988 553.1 87.0488 553.34 87.2888 553.57C84.6788 556.06 82.0588 558.54 78.8388 560.26C77.2688 561.1 75.4488 561.97 74.1088 560.26C72.7788 558.57 73.8888 556.73 75.1888 555.62C77.1188 553.96 78.0888 551.46 80.3288 550.13C81.0788 550.16 81.8188 550.19 82.5688 550.22C82.9388 552.14 81.2488 552.83 80.2888 553.92C79.1488 555.21 77.5688 556.13 76.6088 558.63C79.3188 556.91 81.2888 555.39 83.3388 554C84.3088 553.34 85.1688 552.33 86.5688 552.88L86.5588 552.87Z" fill="#403B37"/>
<path d="M79.9883 525.04C79.2083 525.09 78.4383 525.14 77.6583 525.19C75.8783 524.49 75.6183 522.96 76.0383 521.47C76.4583 519.98 77.8983 520.34 79.1083 520.39C84.0183 520.63 88.7083 521.77 93.1783 523.82C93.1783 524.22 93.1783 524.61 93.1783 525.01C92.0283 526 90.8883 525.19 89.7783 524.93C87.0083 524.3 84.3083 523.45 81.4483 523.17C79.6183 522.99 79.8783 523.96 79.9783 525.04H79.9883Z" fill="#3E3A39"/>
<path d="M485.357 389.96C485.377 390.55 485.547 391.07 486.147 391.32C481.947 393.11 478.197 395.71 474.227 397.93C473.287 397.91 472.347 397.89 471.407 397.87C471.287 395.72 473.327 395.73 474.447 394.82C475.267 394.41 476.017 393.87 476.787 393.37C479.687 392.34 481.967 389.76 485.347 389.96H485.357Z" fill="#413732"/>
<path d="M110.518 411.13C112.458 410.6 111.468 408.99 111.728 407.84C111.988 406.68 110.998 405.09 112.898 404.51C114.588 406.1 112.528 408.08 113.488 409.81C114.718 410.03 115.548 408.67 116.798 408.88C117.298 408.98 117.648 409.29 117.878 409.73C117.598 412.24 115.548 412.9 113.678 413.77C112.888 412.73 111.858 412.24 110.538 412.46C110.538 412.02 110.518 411.58 110.508 411.14L110.518 411.13Z" fill="#44372D"/>
<path d="M206.969 460.12C204.519 465.04 202.609 470.24 199.469 474.81C201.239 469.53 203.519 464.53 206.969 460.12Z" fill="white"/>
<path d="M247 406.41C243.34 395.93 239.42 385.54 234.98 375.36C235.6 373.76 237.19 373.67 238.5 373.21C242.92 371.64 242.93 371.67 243.18 367.03C243.2 366.69 243.37 366.41 243.62 366.17C253.5 362.45 263.4 358.8 273.24 354.98C275.72 354.02 277.4 354.23 279.26 356.33C288.9 367.21 296.78 379.2 302.62 392.52C302.58 394.31 301.09 394.55 299.88 394.82C283.23 398.51 266.79 403.06 250.13 406.71C249.09 406.94 247.96 407.3 246.99 406.42L247 406.41Z" fill="#73C098"/>
<path d="M231.75 376.59C236.76 386.33 240.03 396.75 243.44 407.1C241.91 408.95 239.63 408.73 237.63 409.01C233.65 409.56 229.57 410.85 225.87 407.85C224.74 406.94 223.56 407.5 223.48 408.9C223.28 412.46 221.47 415.61 221.07 419.11C221.02 425.67 218.19 429.62 211.44 431.27C205.74 432.66 200.33 435.26 194.81 437.4C193.02 438.09 191.96 438.48 191.77 435.74C191.49 431.72 190.62 427.74 190 423.74C191.29 414.59 197.8 410.12 208.67 409.63C210.64 409.7 212.45 410.33 214.17 411.27C212.55 410.12 211.07 408.75 209.07 408.3C204.59 407.54 200.31 408.32 196.07 409.75C192.78 410.87 191.81 410.17 190.99 406.76C190.05 402.86 190.66 399.11 191.69 395.35C193.19 389.88 197.29 387.16 202.21 385.22C210.74 381.87 219.45 379.07 228.25 376.54C229.42 376.2 230.59 375.8 231.75 376.58V376.59Z" fill="#73C098"/>
<path d="M474.75 379.23C475.84 378.41 476.93 377.6 478.02 376.78C479.51 379.35 481.62 380.73 484.71 380.79C486.13 380.82 488.09 380.89 488.37 382.88C488.64 384.78 486.92 385.47 485.55 386.1C474.6 391.1 464.59 397.75 454.18 403.71C447.29 407.65 439.81 410.39 432.66 413.8C425.71 417.11 418.57 420.05 411.85 423.83C410.8 424.42 409.78 425.19 408.48 424.45C403.91 421.39 401.86 416.42 399.07 412.02C398.52 411.16 398.84 410.8 399.78 410.38C402.7 409.06 405.08 406.97 407.23 404.61C408.28 403.62 409.27 402.55 410.6 401.91C417.03 397.73 423.74 394.1 430.86 391.24C438.52 388.17 446.66 386.81 454.58 384.69C460.06 383.22 465.61 381.96 471.15 380.73C472.48 380.43 473.64 379.93 474.76 379.23H474.75Z" fill="#9C6A4B"/>
<path d="M176.659 449.55C173.359 458.57 168.359 466.78 164.239 475.4C163.949 476.01 163.439 476.45 162.809 476.71C167.139 467.51 171.729 458.44 176.659 449.54V449.55Z" fill="white"/>
<path d="M141.588 499.91C148.728 494.37 155.028 487.92 161.528 481.68C162.468 480.78 162.478 479.47 163.398 478.66C167.748 469.12 172.538 459.81 178.108 450.91C178.858 450.46 179.208 449.76 179.388 448.95C183.578 447.52 188.138 450.72 188.638 455.58C189.218 461.2 188.018 466.52 185.728 471.68C180.178 484.18 171.298 494.02 161.098 502.81C155.588 507.55 150.348 512.65 144.068 516.44C143.078 517.04 142.298 518.2 140.868 517.79C139.188 513.52 139.168 508.93 138.238 504.51C137.948 503.14 138.878 502.29 139.628 501.37C140.008 500.51 140.968 500.45 141.588 499.92V499.91Z" fill="#9C6A4B"/>
<path d="M305.809 391.94C299.579 378.14 291.789 365.34 281.499 354.16C280.389 352.95 280.609 352.53 282.119 351.99C292.239 348.38 302.329 344.68 312.419 341.01C314.169 342.02 314.939 343.73 315.479 345.54C318.549 355.9 319.749 366.4 317.869 377.15C316.929 382.53 314.709 387.21 310.489 390.78C309.159 391.9 307.758 393.17 305.798 391.95L305.809 391.94Z" fill="#73C098"/>
<path d="M318.52 338.39C321.81 337.17 325.11 335.96 328.4 334.72C329.14 334.44 329.96 334.02 330.52 334.74C331.26 335.68 329.97 335.59 329.66 336.01C328.94 337.02 329.96 337.17 330.4 337.32C332.26 337.97 334.13 338.61 336.05 339.06C343.81 340.88 349.36 345.64 353.34 352.28C357.73 359.59 360.8 367.67 367.01 374.21C358.98 376.97 351.63 379.49 344.28 382.02C340.06 380.81 338.1 377.41 336.59 373.76C334.12 367.77 332.06 361.63 329.25 355.78C326.86 350.79 323.98 346.17 320.19 342.11C319.25 341.11 318.13 340.05 318.51 338.39H318.52Z" fill="#C881A9"/>
<path d="M113.681 413.76C115.071 412.47 116.461 411.17 117.841 409.88C117.841 409.3 117.491 409.07 116.961 409.03C115.461 409.58 114.491 411.18 112.711 411.28C111.831 408.95 113.011 406.74 112.901 404.51C113.791 393.54 119.161 385.57 128.951 380.58C129.851 379.53 131.071 379.63 132.251 379.69C133.481 379.75 135.171 379.23 135.541 380.91C135.871 382.42 134.361 383.05 133.271 383.72C132.541 384.17 131.751 384.54 131.021 385C130.231 385.58 129.351 386.05 128.631 386.81C129.201 386.67 129.741 386.57 130.291 386.61C132.081 386.87 132.401 388.18 132.461 389.67C132.491 390.89 132.321 392.08 131.841 393.2C130.721 395.65 129.041 397.74 127.471 399.9C127.031 400.53 126.401 401.03 126.241 401.8C126.981 402.01 126.751 401.29 126.991 401.04C127.071 400.76 127.201 400.51 127.341 400.27C128.831 397.95 131.471 396.49 132.281 393.66C132.831 392.42 133.311 391.15 133.871 389.91C134.011 389.63 134.171 389.37 134.351 389.12C135.071 387.63 134.511 385.96 135.001 384.43C137.331 379.84 138.421 379.33 142.691 380.79C144.061 381.64 144.101 382.89 143.721 384.27C143.361 385.54 142.991 386.81 142.841 388.77C144.221 386.7 144.761 384.88 145.211 383.06C145.711 381.06 146.741 379.71 148.851 379.35C149.291 378.93 149.741 378.5 150.181 378.08C150.901 377.31 151.801 377.35 152.731 377.48C154.921 378.59 153.891 380.43 153.781 382.06C153.741 383.2 153.231 384.35 153.801 385.47C153.971 385.33 154.111 385.18 154.211 384.99C154.741 384.13 154.581 383.16 154.711 382.24C155.551 378.99 157.941 379.75 160.181 380.11C161.361 380.73 160.951 381.59 160.401 382.3C155.581 388.49 152.291 395.68 147.421 401.83C145.961 403.68 144.281 405.22 142.161 406.24C141.401 406.53 140.531 406.66 140.111 407.52C139.611 408.21 138.891 408.64 138.251 409.16C137.371 409.84 136.491 410.51 135.611 411.19C133.151 413.92 129.591 414.69 126.511 416.33C126.211 416.49 125.911 416.62 125.591 416.73C123.501 417.69 121.261 418.05 119.001 418.2C116.841 418.34 114.961 417.69 113.681 415.8C112.791 415.11 113.721 414.44 113.691 413.76H113.681Z" fill="#C3711D"/>
<path d="M164.198 367.62C165.358 365.1 167.328 363.68 169.938 362.68C180.208 358.75 190.438 354.71 200.598 350.52C203.398 349.36 205.798 349.39 208.448 350.8C213.868 353.68 218.528 357.46 222.788 362.37C219.488 364.36 216.448 366.41 212.468 366.1C211.568 366.03 210.598 366.08 209.968 366.73C207.768 369.02 204.568 368.87 201.948 370.12C199.808 371.06 197.148 369.4 195.238 371.47C194.878 371.88 194.538 372.63 194.168 372.65C190.638 372.82 188.178 375.68 184.668 376.2C182.248 376.56 180.538 376.47 178.788 374.84C178.278 374.37 177.398 374.31 176.678 374.06C175.058 373.12 172.788 374.55 171.438 372.63V372.66C169.548 372 167.938 370.71 165.768 370.54C164.388 370.43 163.118 369.48 164.198 367.65V367.62Z" fill="#73C098"/>
<path d="M113.668 415.8C117.678 418.32 121.698 417.36 125.708 415.82C126.638 416.69 127.578 416.01 128.518 415.82C131.568 414.76 134.468 413.32 137.588 412.46C139.918 411.3 142.248 410.12 144.588 408.99C145.628 408.49 146.588 407.6 147.938 408.31C148.558 408.64 149.208 408.35 149.698 407.81C154.788 402.31 162.098 400.76 168.368 397.35C169.608 396.68 170.208 397.19 170.528 398.32C170.858 399.47 171.108 400.64 171.388 401.8C172.278 403.14 172.018 404.67 172.098 406.14C172.038 406.5 171.918 406.84 171.748 407.17C170.098 409.49 167.648 410.32 164.988 410.64C162.208 410.97 159.948 411.89 158.928 414.79C158.208 416.85 156.348 416.33 154.788 416.43C152.628 417.41 152.698 419.33 152.798 421.23C153.058 426.09 151.168 428.55 146.288 428.9C143.968 429.07 142.068 429.7 140.188 430.97C136.268 433.61 131.988 431.73 128.028 431.31C119.048 430.36 115.728 423.52 113.668 415.81V415.8Z" fill="#915D2B"/>
<path d="M369.241 391.18C363.921 402.65 356.951 412.51 344.401 417.09C342.451 417.8 340.961 417.87 339.321 416.35C336.031 413.3 332.361 410.69 329.671 406.98C328.701 405.65 328.711 404.66 329.311 403.43C331.031 399.95 331.821 396.19 332.241 392.4C332.441 390.63 333.151 389.94 334.631 389.43C338.991 387.93 343.331 386.34 347.681 384.79C349.951 385.36 351.721 386.89 353.771 387.89C358.661 390.29 363.911 390.9 369.241 391.17V391.18Z" fill="#93667F"/>
<path d="M376.169 389.88C383.329 394.73 389.279 400.63 393.559 408.28C396.969 414.39 400.529 420.46 405.249 425.72C405.369 427.42 404.049 428.07 402.869 428.47C394.679 431.25 386.599 432.48 379.209 426.26C373.619 421.55 371.279 415.52 372.319 408.39C372.989 403.79 373.159 399.21 373.139 394.6C373.139 392.96 372.999 391.29 373.949 389.81C374.709 389.31 375.449 389.51 376.179 389.88H376.169Z" fill="#9C6A4B"/>
<path d="M374.071 389.94C373.981 396.75 373.651 403.52 373.011 410.33C372.061 420.49 380.491 429.46 390.051 429.71C393.271 429.8 396.441 429.42 399.541 428.74C401.631 428.29 403.851 427.66 405.251 425.72C406.191 426.3 407.501 427.01 407.351 428.03C407.171 429.33 405.581 429.35 404.441 429.7C397.971 431.7 391.481 433.65 385.061 435.79C381.281 437.05 377.951 435.89 374.581 434.46C372.881 433.73 371.161 433.03 369.451 432.31C368.831 431.8 367.971 431.66 367.431 431.02C361.211 427.79 354.991 424.55 348.771 421.33C347.251 420.54 346.091 419.81 348.511 418.59C361.151 412.21 368.851 401.72 373.361 388.59C373.991 388.84 374.401 389.19 374.071 389.94Z" fill="#7B4C30"/>
<path d="M79.9874 525.04C79.5674 524.71 79.1374 524.38 78.7374 524.04C78.2174 523.6 77.7474 523.03 78.1574 522.36C78.6274 521.59 79.3074 522.31 79.8974 522.3C84.5374 522.19 88.7774 523.99 93.1874 525.01C96.2474 526.59 99.7374 526.61 102.957 527.64C104.187 528.03 105.537 527.52 106.417 526.88C113.137 522 120.397 517.82 126.377 511.95C126.767 511.09 127.717 511.01 128.357 510.51C130.547 509.27 132.577 507.83 134.277 505.96C136.427 505.99 134.947 507.77 135.537 508.56C135.437 511.56 136.217 514.48 137.057 517.24C138.027 520.45 136.337 521.45 134.097 522.32C129.907 523.95 125.697 525.51 121.457 526.97C113.597 529.69 105.697 532.33 97.8174 535C91.1374 536.53 84.4574 538.07 77.8474 539.87C76.0774 540.35 74.2574 541.09 72.5674 539.63C74.4674 537.98 77.2074 537.3 78.7574 534.11C72.1474 536.11 66.2174 538.21 60.0774 539.56C59.3574 538.75 59.4574 537.94 60.0774 537.12C67.0574 533.83 74.5474 532.13 81.9574 530.18C82.6674 529.99 83.2674 529.4 83.9274 528.99C84.8274 528.15 84.6374 527.32 83.9274 526.49C82.6174 526 81.3174 525.51 80.0074 525.02L79.9874 525.04Z" fill="#9C694C"/>
<path d="M288.798 326.27C297.058 327.27 303.518 331.6 309.788 337.62C304.208 339.8 298.978 341.94 293.678 343.9C288.938 345.66 284.088 347.14 279.358 348.94C277.648 349.59 276.488 349.31 275.228 348.14C271.868 345.01 267.868 342.95 263.588 341.4C263.158 340.15 263.978 339.28 264.638 338.48C267.188 335.38 268.728 331.49 272.028 328.97C275.438 326.7 279.278 326.25 283.238 326.32C285.088 325.53 286.938 325.36 288.798 326.28V326.27Z" fill="#73C098"/>
<path d="M140.879 517.78C150.359 511.71 158.839 504.31 166.819 496.51C176.439 487.1 184.819 476.57 187.609 462.78C188.119 460.26 188.079 457.71 187.819 455.22C187.429 451.5 184.159 449.22 179.399 448.96C181.959 444.71 183.649 443.92 187.519 444.93C189.109 445.35 189.789 446.08 189.989 447.84C190.969 456.64 192.119 465.41 193.249 474.19C193.359 475.05 193.669 475.87 193.879 476.72C194.379 477.38 194.459 478.04 193.909 478.71C190.839 482.7 186.839 485.77 183.289 489.28C179.329 493.52 174.849 497.22 170.739 501.31C169.729 502.31 168.809 503.43 167.359 503.85C163.729 506.41 160.119 509.01 156.469 511.53C152.349 514.37 148.489 517.62 143.689 519.36C142.079 519.95 140.829 520.09 140.899 517.79L140.879 517.78Z" fill="#7B4C30"/>
<path d="M220.38 349.57C224.94 350.92 229.6 350.05 234.21 350.1C238.11 349.52 242.05 349.77 245.97 349.35C251.49 348.76 256.27 346.53 260.79 343.53C265.61 344.66 269.55 347.32 273.68 350.78C268.63 352.79 264 354.69 259.33 356.47C253.08 358.84 246.71 360.92 240.56 363.52C237.48 364.82 235.73 361.95 233.17 362.04C232.38 361.62 231.47 361.91 230.66 361.59C228.99 361.14 227.13 361.97 225.56 360.83C221.21 356.65 217.01 352.3 211.32 349.42C212.81 348.43 213.98 349.17 215.15 349.31C216.9 349.28 218.66 348.88 220.37 349.57H220.38Z" fill="#73C098"/>
<path d="M293.238 412.49C297.698 411.37 302.148 410.21 306.618 409.15C307.728 408.89 309.288 407.72 309.948 408.92C310.698 410.28 308.838 411.07 307.978 411.91C303.878 415.9 299.738 419.84 295.538 423.71C291.228 427.69 288.138 432.68 284.378 437.1C283.318 438.34 282.248 439.39 280.798 439.8C275.568 441.29 271.048 444.14 266.488 446.96C264.838 447.98 263.198 448.44 262.678 445.64C262.458 444.47 261.908 443.35 261.508 442.21C262.588 440.77 264.048 439.78 265.508 438.79C271.538 434.7 276.348 429.44 280.158 423.26C280.888 422.07 282.108 420.77 281.318 419.34C280.498 417.87 278.928 418.87 277.678 418.92C277.118 418.94 276.578 418.92 276.088 418.62C275.918 418.45 275.858 418.27 275.888 418.08C275.928 417.89 275.968 417.79 276.018 417.79C279.108 416.88 282.198 415.98 285.288 415.07C286.188 414.41 287.138 414.23 287.958 415.1C288.758 415.94 288.518 416.99 288.068 417.89C286.828 420.34 285.748 422.9 283.508 424.67C282.688 425.09 282.078 425.68 282.008 426.67C281.718 428.13 280.588 429.05 280.058 429.77C284.278 425.73 287.528 420.46 290.128 414.73C291.188 414.02 292.468 413.61 293.238 412.48V412.49Z" fill="#7B4C30"/>
<path d="M408.48 424.45C413.05 422.57 417.23 419.92 421.78 417.96C430.96 413.99 440.05 409.81 449.02 405.38C461.73 399.1 473.22 390.58 486.24 384.84C487.05 384.48 487.94 384.06 487.86 382.99C487.77 381.71 486.57 382.05 485.8 381.83C484.33 381.42 482.81 381.15 481.35 380.72C479.39 380.15 478.07 378.97 478.02 376.76C481.28 380.22 485.19 380.61 489.57 379.39C490.87 379.03 491.93 379.82 491.95 381.37C491.95 382.39 492.24 383.32 492.75 384.17C493.54 385.49 492.91 386.15 491.76 386.71C489.61 387.76 487.49 388.86 485.36 389.94C482.5 391.26 479.63 392.59 476.77 393.91C476.12 394.38 475.27 394.55 474.76 395.23C473.89 396.42 472.04 396.35 471.42 397.85C468.37 398.59 466.25 400.91 463.66 402.43C461.13 403.92 458.68 405.55 456.2 407.12C455.68 407.79 454.82 407.95 454.19 408.44C451.88 409.43 449.72 410.62 447.77 412.26C444.53 415.01 440.16 415.66 436.66 417.92C429.55 422.5 421.26 423.93 413.49 426.75C411.24 427.57 409.89 425.77 408.49 424.42L408.48 424.45Z" fill="#7B4C30"/>
<path d="M305.811 391.94C311.191 390.97 313.331 386.64 315.461 382.43C316.861 379.66 317.321 376.51 317.521 373.49C318.291 362.31 317.521 351.3 312.421 341.01C315.491 341.59 316.241 344.39 317.551 346.55C324.751 358.51 328.041 371.73 330.101 385.37C330.331 386.87 329.751 387.41 328.631 387.8C322.111 390.1 315.571 392.33 309.071 394.69C306.181 395.74 306.481 393.33 305.801 391.94H305.811Z" fill="#5D8E75"/>
<path d="M231.749 376.59C220.829 379.51 209.989 382.73 199.679 387.42C193.809 390.1 190.219 397.89 191.469 404.23C192.539 409.68 192.509 409.57 197.909 408.19C201.819 407.19 205.799 406.3 209.839 407.71C208.329 409.27 206.379 408.44 204.699 408.75C206.039 409.53 208.359 408.01 209.159 410.43C199.709 410.46 192.989 414.42 190.009 423.75C189.419 418.64 188.339 413.61 187.229 408.59C185.929 406.38 186.939 403.96 186.589 401.67C186.569 401.34 186.509 401.01 186.409 400.69C185.799 398.47 185.179 396.26 184.569 394.04C184.239 392.91 183.449 391.95 183.359 390.73C197.159 384.94 210.939 379.12 224.749 373.39C229.619 371.37 229.659 371.47 231.759 376.59H231.749Z" fill="#5D8E75"/>
<path d="M181.349 493.29C177.359 497.04 173.369 500.8 169.379 504.54C172.509 499.88 176.599 496.24 181.349 493.29Z" fill="white"/>
<path d="M247 406.41C264.47 402.26 281.94 398.1 299.42 393.98C300.61 393.7 301.81 393.56 302.62 392.52C303.973 394.96 303.387 396.61 300.86 397.47C285.04 402.85 269.34 408.57 253.8 414.72C250.81 415.9 249.67 415.11 248.93 412.37C248.38 410.36 247.65 408.4 247 406.42V406.41Z" fill="#5D8E75"/>
<path d="M86.5612 552.87C83.9712 554.67 81.3812 556.5 78.7712 558.27C77.9012 558.86 76.7813 559.99 75.8913 559.16C74.8913 558.23 76.1713 557.24 76.7613 556.4C78.3913 554.06 81.1213 552.75 82.5713 550.23C83.3213 548.45 86.4312 546.89 85.3512 545.54C84.0812 543.96 82.0313 546.65 80.1913 547.11C78.8113 547.46 77.4713 547.97 76.0813 548.29C73.3513 548.92 71.0013 550.02 68.9713 552.12C67.5813 553.55 65.6012 554.61 63.0312 554C64.2313 550.56 66.1512 548.39 69.7812 547.47C80.6313 544.72 91.0712 540.68 101.741 537.34C108.861 535.11 115.911 532.69 122.991 530.35C124.181 530.21 125.571 529.05 126.331 531.02C121.541 533.89 116.621 536.53 112.191 539.98C109.111 542.38 105.171 542.39 101.541 543.08C95.1413 544.29 90.1613 547.47 86.5713 552.87H86.5612Z" fill="#7B4C31"/>
<path d="M221.068 419.11C220.868 415.36 222.528 411.87 222.518 408.1C222.518 406.54 224.278 404.85 225.688 406.45C229.118 410.33 233.168 408.46 237.018 408.28C239.168 408.18 241.297 407.51 243.427 407.1C244.437 409.89 245.417 412.69 246.467 415.46C246.867 416.51 247.008 417.27 245.658 417.78C237.978 420.71 230.327 423.71 222.617 426.7C221.547 422.58 224.618 418.88 223.268 414.72C221.408 415.87 222.187 417.95 221.057 419.1L221.068 419.11Z" fill="#5D8E75"/>
<path d="M276.021 418.41C276.351 418.4 276.691 418.43 277.001 418.36C278.791 417.93 281.081 416.81 282.241 418.37C283.661 420.28 281.761 422.26 280.681 423.98C275.851 431.7 269.541 437.87 261.501 442.22C260.121 438.49 258.731 434.76 257.351 431.02C256.761 429.47 257.771 428.51 258.721 427.63C263.681 423.06 269.331 419.75 276.021 418.4V418.41Z" fill="#9C694C"/>
<path d="M173.981 404.5C174.011 404.05 174.041 403.6 174.061 403.15C176.091 401.9 178.601 402.21 180.691 401.17C182.341 404.14 182.671 407.65 184.581 410.51C185.181 411.14 185.121 411.79 184.641 412.45C184.541 417.8 184.551 417.87 179.431 419.04C175.081 420.03 171.291 421.15 170.891 426.81C170.761 428.69 169.901 431.37 167.341 432.29C166.351 430.45 167.431 428.71 167.611 426.93C167.731 425.74 167.781 424.56 167.631 423.37C167.721 419.79 167.201 419.04 163.841 418.05C162.701 417.71 161.501 417.54 160.421 416.98C160.131 416.8 159.901 416.57 159.711 416.29C158.921 413.86 160.181 412.56 162.251 411.77C163.581 411.26 165.011 411.09 166.351 410.63C169.611 409.51 172.601 408.01 173.961 404.51L173.981 404.5Z" fill="#7A4C31"/>
<path d="M308.259 405.18C308.049 406.2 306.959 406.22 306.039 406.46C290.959 410.32 276.289 415.51 261.349 419.85C259.469 420.4 257.659 421.29 255.919 422.21C254.389 423.01 253.409 423.15 252.609 421.25C251.749 419.23 252.859 418.84 254.369 418.26C268.429 412.91 282.459 407.48 296.749 402.72C298.729 402.06 300.679 401.3 302.649 400.61C305.609 399.57 308.469 401.77 308.259 405.18V405.18Z" fill="#5D8E75"/>
<path d="M141.55 405.85C146.69 403.03 149.29 397.97 152.24 393.32C154.97 389.01 157.48 384.57 160.75 380.64C163.2 377.24 166.41 376.68 168.7 379.27C169.14 379.73 169.59 380.2 170.03 380.66C170.51 381.52 170.57 382.37 170.05 383.24C168.71 384.14 167.37 385.05 166.03 385.95C165.7 386.46 165.2 387.04 165.75 387.58C166.29 388.11 166.88 387.65 167.4 387.32C168.64 388.06 170.58 387.75 170.8 390C171.06 392.66 169.59 393.5 167.41 394.37C163.84 395.8 160.53 397.86 156.98 399.33C155.68 399.87 154.21 402.73 152.46 399.74C152.45 399.72 151.79 399.92 151.73 400.1C150.44 404.48 145.96 404.83 142.92 406.93C141.57 407.86 140.1 409.1 138.23 409.17C138.68 408.52 139.12 407.87 139.57 407.22C140.05 406.51 140.94 406.39 141.54 405.86L141.55 405.85Z" fill="#905D2B"/>
<path d="M168.078 423.08C169.658 426.3 167.768 429.23 167.338 432.29C158.568 435.03 149.798 437.78 140.398 436.27C139.658 436.15 138.948 435.82 138.218 435.59C137.828 435.15 137.828 434.68 138.158 434.21C141.458 432.65 144.498 430.61 148.498 430.68C150.558 430.72 152.188 429.03 153.808 427.34C155.748 425.32 156.028 423.89 154.908 421.59C154.418 420.6 154.848 419.43 155.488 418.47C155.908 417.97 156.318 417.46 156.968 417.24C157.758 416.99 158.558 417.01 159.358 417.2C160.098 417.39 160.798 417.84 161.548 417.88C164.978 418.06 167.118 419.81 168.078 423.07V423.08Z" fill="#9C694C"/>
<path d="M318.521 338.39C323.231 344.3 328.031 350.16 330.911 357.27C332.891 362.15 335.131 366.94 336.741 371.93C338.141 376.27 340.901 379.3 344.271 382.02C341.111 383.23 337.961 384.45 334.801 385.66C333.141 386.3 332.551 385.77 332.271 383.96C330.761 374.13 329.271 364.27 325.031 355.13C322.861 350.45 320.711 345.69 317.431 341.73C315.471 339.36 316.491 338.96 318.521 338.39V338.39Z" fill="#93667F"/>
<path d="M195.221 466.08C195.681 459.9 193.791 453.91 193.671 447.75C193.631 445.79 194.031 445.54 195.651 445.56C199.721 445.61 203.801 445.68 207.871 445.53C210.081 445.45 210.231 446.26 209.561 448C208.261 451.36 206.421 454.52 205.791 458.13C203.571 463.13 201.681 468.3 198.781 472.96C198.321 473.7 197.261 476.83 195.911 473.31C195.791 471.67 196.021 470.02 195.731 468.38C195.371 467.65 195.811 466.75 195.231 466.07L195.221 466.08Z" fill="#7A4C31"/>
<path d="M289.988 321.11C293.708 319.21 297.598 319.24 301.528 320.23C306.938 321.6 312.578 321.76 317.918 323.6C321.838 324.95 324.868 327.22 327.518 330.82C323.028 332.44 318.748 333.98 314.468 335.52C310.408 333.39 307.138 330.08 303.018 327.97C299.708 326.27 296.428 324.62 292.848 323.58C291.598 323.21 289.898 323.14 289.988 321.12V321.11Z" fill="#C881A9"/>
<path d="M369.24 391.18C362.8 392.91 357.17 390.44 351.63 387.69C350.19 386.97 348.68 386.19 347.68 384.79C353.78 382.63 359.91 380.55 365.97 378.28C368.15 377.46 369.04 378.01 369.59 380.22C370.52 383.94 370.63 387.56 369.24 391.17V391.18Z" fill="#C881A9"/>
<path d="M313.049 405.3C309.859 404.74 310.119 401.58 309.189 399.54C308.479 397.99 310.539 398.05 311.489 397.7C316.939 395.71 322.459 393.89 327.869 391.81C330.359 390.85 330.569 391.95 330.219 393.85C329.699 396.68 328.439 399.23 327.089 401.74C326.699 402.46 326.289 403.01 325.429 403.16C321.349 403.85 317.259 404.57 313.049 405.31V405.3Z" fill="#5D8E75"/>
<path d="M220.379 434.25C220.389 432.28 221.239 431.07 223.189 430.33C230.889 427.42 238.539 424.4 246.179 421.33C247.669 420.73 248.699 420.33 249.489 422.27C250.199 424 250.539 425.2 248.439 426.27C241.269 429.94 233.959 433.08 225.789 433.69C225.289 433.73 224.809 434.09 224.329 434.3C222.999 434.79 221.689 434.87 220.379 434.25Z" fill="#5D8E75"/>
<path d="M258.149 443.58C259.059 444.28 258.719 445.31 258.819 446.22C258.939 447.55 258.269 448.56 257.459 449.51C248.809 449.69 245.319 446.61 244.189 437.84C244.089 437.09 243.799 436.36 243.679 435.61C243.329 433.41 243.319 431.52 246.199 430.85C248.179 430.39 249.819 427.5 251.759 428.68C253.259 429.59 253.729 432.19 254.659 434.04C254.709 434.14 254.719 434.25 254.759 434.35C253.549 436.32 252.209 438.24 251.849 440.59C251.629 442 251.299 443.57 252.559 444.62C253.789 445.65 255.069 444.67 256.289 444.28C256.919 444.08 257.459 443.67 258.139 443.58H258.149Z" fill="#7B4C31"/>
<path d="M211.759 434.84C213.779 434.03 215.789 433.23 217.859 432.4C218.209 437.32 215.419 441.09 210.629 442.24C204.779 443.64 198.889 442.59 192.469 443C193.499 441.05 194.839 440.87 195.979 440.4C201.819 440.18 207.059 438.28 211.759 434.84V434.84Z" fill="#5D8E75"/>
<path d="M178.109 450.91C176.919 455.07 174.359 458.56 172.489 462.39C170.099 467.33 167.409 472.13 164.869 476.99C164.509 477.68 164.229 478.4 163.399 478.66C163.379 477.95 163.519 477.21 162.809 476.72C167.139 467.52 171.729 458.45 176.659 449.55C176.579 450.62 176.659 451.5 178.109 450.91V450.91Z" fill="#3D3936"/>
<path d="M72.5706 539.63C78.5406 539.57 83.9206 536.7 89.7606 536.02C92.4506 535.71 95.1406 535.34 97.8206 535C88.1106 538.65 78.3606 542.13 68.0006 543.51C67.4406 542.87 67.5406 542.23 68.0006 541.6C69.4406 540.75 70.9006 539.98 72.5606 539.63H72.5706Z" fill="#794D31"/>
<path d="M260.791 343.53C257.181 348.43 251.661 349.14 246.281 350.21C242.241 351.01 238.231 350.21 234.211 350.11C238.991 349.11 243.771 348.06 248.571 347.13C251.761 346.51 254.701 345.37 257.171 343.28C258.581 342.09 259.671 342.25 260.791 343.54V343.53Z" fill="#5E8C76"/>
<path d="M243.619 366.17C244.909 371.19 244.459 372.03 239.639 373.7C238.079 374.24 236.539 374.8 234.979 375.36C234.419 374.44 233.809 373.55 233.299 372.6C232.949 371.95 232.219 371.23 232.629 370.53C233.069 369.78 233.989 370.06 234.719 370.28C235.239 370.44 236.019 370.78 236.229 370.31C237.669 367.03 241.259 367.72 243.609 366.18L243.619 366.17Z" fill="#5C8E74"/>
<path d="M180.689 401.17C179.139 404.03 176.399 402.93 174.059 403.15C173.599 401.47 173.219 399.76 172.639 398.13C172.119 396.68 172.219 395.8 173.759 394.96C177.759 392.8 177.759 392.72 179.369 397.14C179.849 398.47 180.259 399.82 180.699 401.17H180.689Z" fill="#9C684C"/>
<path d="M130.268 384.6C131.568 382.98 134.218 383.18 135.158 381.01C133.158 379.24 131.028 380.29 128.948 380.57C128.998 379 127.108 379.72 126.578 378.4C127.988 377.85 129.108 377.86 130.458 378.75C131.698 379.57 133.278 380.11 134.258 378.15C134.888 377.59 135.508 377.98 136.128 378.15C137.768 378.71 139.458 378.36 141.128 378.46C142.238 378.56 143.378 378.62 143.898 379.87C143.928 380.66 143.968 381.45 142.798 381.35C139.258 379.89 136.978 381.25 135.558 384.57C135.348 384.81 135.168 385.07 135.038 385.36C134.638 386.89 135.378 388.6 134.318 390.03C134.348 391.5 133.578 392.68 132.888 393.88C131.958 394.56 131.408 394.09 130.988 393.24C131.488 392.23 131.708 391.16 131.658 390.03C131.808 389.8 131.958 389.57 132.088 389.33C132.248 388.4 132.568 387.43 131.608 386.7C131.328 386.61 131.058 386.51 130.778 386.41C130.048 385.95 129.598 385.41 130.258 384.57L130.268 384.6Z" fill="#3D3935"/>
<path d="M258.15 443.58C256.78 445.85 254.43 446.44 252.31 445.75C250.12 445.04 250.6 442.53 250.94 440.8C251.43 438.29 252 435.61 254.76 434.35C255.89 437.43 257.02 440.5 258.15 443.58V443.58Z" fill="#9B694C"/>
<path d="M276.018 418.41C270.598 420.56 265.368 423.06 260.838 426.79C259.438 427.95 257.788 429.02 257.348 431.02C254.438 426.21 254.458 426.25 259.138 423.84C264.508 421.08 270.198 419.26 276.018 417.79C276.018 418 276.018 418.2 276.018 418.41Z" fill="#794D31"/>
<path d="M289.99 321.11C290.81 322.74 292.56 322.58 293.93 323.12C301.47 326.11 308.86 329.34 314.47 335.52C312.86 336.84 311.78 335.91 310.52 334.79C304.91 329.8 298.93 325.47 291.31 323.96C289.73 323.65 287.94 324.19 286.43 322.75C287.38 321.74 288.77 321.6 289.98 321.1L289.99 321.11Z" fill="#93667F"/>
<path d="M168.708 379.26C165.528 376.62 163.338 379.8 160.758 380.63C159.898 380.64 159.038 380.76 158.198 380.65C156.088 380.37 155.238 381.3 155.368 383.33C155.038 384.25 154.758 385.2 154.168 386V386.02C151.818 385.62 154.208 383.47 152.928 382.67C152.438 381.09 154.348 379.45 152.808 377.9C152.418 377.49 152.418 377.08 152.808 376.68C152.808 376.31 152.808 375.93 152.808 375.56C154.528 374.93 155.238 376.18 156.018 377.29C156.158 377.54 156.288 377.79 156.428 378.04C157.178 378.73 157.958 378.57 158.748 378.12C158.968 377.95 159.208 377.8 159.458 377.66C160.468 377.16 161.548 376.94 162.658 376.82C162.918 376.33 163.168 375.84 163.428 375.34C164.988 375.03 164.148 373.61 164.608 372.79C167.958 373.69 167.558 376.98 168.718 379.27L168.708 379.26Z" fill="#3D3933"/>
<path d="M206.97 460.12C204.52 465.04 202.61 470.24 199.47 474.81C197.28 475.69 195.14 476.46 195.2 472.72C195.37 472.5 195.58 472.42 195.85 472.5C195.85 472.5 195.86 472.51 195.87 472.52C195.89 472.53 195.9 472.55 195.92 472.56C196.18 472.8 196.29 473.15 196.53 473.4C196.64 473.88 196.63 474.71 197.34 473.77C199.17 471.31 200.54 468.53 201.56 465.7C202.57 462.9 203.95 460.42 205.78 458.14C205.78 459.04 206.17 459.7 206.96 460.13L206.97 460.12Z" fill="#3C3936"/>
<path d="M282.689 424.4C284.979 422.87 285.669 420.22 287.089 418.07C288.499 415.93 287.889 414.87 285.289 415.07C286.519 412.49 288.839 414.33 290.569 413.77C290.939 414.21 290.989 414.65 290.589 415.1C288.309 421.97 283.619 427.13 278.539 432.81C277.899 429.4 281.229 428.67 281.339 426.38C281.869 425.77 281.989 424.88 282.699 424.39L282.689 424.4Z" fill="#433732"/>
<path d="M162.648 376.81C161.848 377.81 160.748 378.08 159.538 378.08C158.248 378.8 156.968 378.99 155.698 378.03C155.318 376.52 153.878 376.24 152.798 375.54C150.978 375.59 149.448 374.75 147.898 373.95C147.458 373.72 146.788 373.42 147.438 372.82C147.698 372.58 148.268 372.69 148.698 372.64C149.878 372.27 151.048 372.24 152.218 372.66C156.288 372.53 159.458 374.69 162.628 376.81H162.648Z" fill="#BE7125"/>
<path d="M156.791 417.77C156.361 418.01 155.921 418.25 155.491 418.49C155.421 417.75 155.591 416.93 154.801 416.43C156.941 415.83 158.471 414.74 159.171 412.42C159.761 410.48 161.911 410.11 163.521 409.99C166.451 409.77 168.961 408.78 171.301 407.14C172.341 406.57 171.711 405.11 172.691 404.51C173.121 404.51 173.551 404.51 173.981 404.51C174.391 407.19 172.711 408.7 170.691 409.67C168.331 410.8 165.941 412.04 163.291 412.36C160.761 412.66 159.881 414.06 160.121 416.42C159.311 417.6 157.611 416.62 156.791 417.79V417.77Z" fill="#443831"/>
<path d="M181.348 493.29C177.358 497.04 173.368 500.8 169.378 504.54C168.698 504.3 168.028 504.07 167.348 503.83C172.138 498.41 177.438 493.55 183.268 489.26C183.508 491.02 180.268 491.12 181.348 493.29Z" fill="#3D3937"/>
<path d="M272.031 328.97C269.221 333.12 266.401 337.26 263.591 341.41C259.821 340.01 259.931 340.09 262.271 337.06C264.941 333.61 268.021 330.77 272.021 328.97H272.031Z" fill="#5C8D75"/>
<path d="M143.589 379.89C142.889 379.05 141.899 379.45 141.039 379.27C140.769 379.1 140.489 378.95 140.209 378.81C138.489 378.09 135.809 379.95 134.969 376.87C139.009 375.1 143.069 373.99 147.339 376.26C148.559 376.91 148.829 377.38 147.529 378.15C146.399 379.13 145.749 381.23 143.589 379.9V379.89Z" fill="#BE7122"/>
<path d="M187.609 430.56C187.999 433.2 188.359 435.85 188.809 438.48C189.039 439.81 188.009 439.98 187.249 440.13C186.109 440.35 184.959 441.41 183.819 440.6C182.989 440.01 183.439 438.99 183.779 438.17C184.829 435.59 185.889 433.03 186.949 430.45C187.169 430.48 187.389 430.52 187.609 430.55V430.56Z" fill="#72B494"/>
<path d="M143.589 379.89C145.339 380.28 145.959 378.16 147.529 378.14C147.569 378.99 148.069 379.32 148.859 379.36C147.029 380.52 145.969 382.18 145.659 384.32C145.369 386.32 144.409 388.02 143.319 389.67C143.009 390.13 142.569 390.62 141.989 390.31C141.439 390.01 141.699 389.4 141.719 388.86C141.809 386.33 144.019 384.1 142.809 381.39C143.419 381.08 143.529 380.51 143.599 379.91L143.589 379.89Z" fill="#443B32"/>
<path d="M211.76 434.84C208.47 439.15 200.93 441.81 195.98 440.4C201.24 438.55 206.5 436.69 211.76 434.84Z" fill="#74B796"/>
<path d="M137.588 412.46C134.778 414.45 131.688 415.8 128.308 416.47C127.468 416.62 126.388 417.41 126.258 415.69C129.368 414.19 132.478 412.68 135.598 411.18C135.668 412.53 136.668 412.43 137.588 412.45V412.46Z" fill="#443830"/>
<path d="M230.607 362.71C231.917 363.71 234.687 362.99 234.687 365.18C234.687 366.63 232.177 366.66 230.847 366.92C229.407 367.2 228.237 365.68 228.127 364.22C228.007 362.64 229.617 363.13 230.607 362.71V362.71Z" fill="#B46E2B"/>
<path d="M227.001 368.27C224.451 367.49 221.901 369.92 220.891 366.44C220.501 365.07 221.661 365.03 222.321 364.77C225.071 363.69 225.511 366.02 227.001 368.27Z" fill="#AD6B30"/>
<path d="M193.988 379.31C194.738 382.24 193.988 383.03 189.688 383.71C189.707 382.01 191.617 381.04 191.327 379.3C192.217 379.36 193.108 378.99 193.988 379.3V379.31Z" fill="#865B32"/>
<path d="M164.2 367.62C163.86 369.47 165.22 369.71 166.49 370.01C168.38 370.45 170.22 370.96 171.44 372.64C168.84 372.88 166.69 371.02 163.96 371.14C162.73 371.19 163.53 368.73 163.67 367.4C163.67 367.4 163.87 367.37 163.96 367.4C164.05 367.44 164.12 367.54 164.2 367.62Z" fill="#333E34"/>
<path d="M199.061 372.67C200.551 372.79 202.191 372.39 202.631 374.12C202.801 374.8 201.911 375.65 201.081 375.15C199.721 374.33 197.321 375.61 196.901 373.55C196.641 372.32 198.431 373 199.061 372.66V372.67Z" fill="#B47130"/>
<path d="M126.32 531.02C125.39 529.91 124.1 530.53 122.98 530.35C123.34 530.13 123.67 529.83 124.06 529.69C126.72 528.78 129.39 527.9 132.82 526.75C130.72 529.26 128.33 529.85 126.32 531.01V531.02Z" fill="#6C4D3C"/>
<path d="M184.65 412.45C184.63 411.8 184.61 411.16 184.59 410.51C185.19 407.23 185.8 403.96 186.4 400.68L186.6 400.54C187.14 403.18 187.08 405.83 186.63 408.47C185.02 409.32 187.1 412.01 184.65 412.45V412.45Z" fill="#2F3D35"/>
<path d="M183.188 385.22C183.537 384.8 183.908 384.4 184.238 383.97C184.798 383.24 184.918 381.95 186.268 382.23C186.848 382.35 187.587 382.59 187.427 383.5C187.207 384.74 186.897 385.89 185.337 386C184.397 386.35 183.427 386.79 183.197 385.21L183.188 385.22Z" fill="#875A30"/>
<path d="M66.7008 543.61C65.5508 545.67 63.7208 546.58 60.8008 546.89C61.9708 544.71 63.4208 543.57 65.3108 542.87C65.8608 542.95 66.4108 543.05 66.7008 543.62V543.61Z" fill="#704F3A"/>
<path d="M183.32 379.3C184.15 377.29 185.92 378.11 187.34 378.04C188.19 378 189.34 378.23 189.42 379.18C189.52 380.45 188.42 380.69 187.32 380.62C187.1 380.44 186.87 380.28 186.62 380.14C185.77 379.87 184.86 380.09 184.01 379.85C183.74 379.72 183.51 379.54 183.32 379.31V379.3Z" fill="#B96F23"/>
<path d="M397.231 436.94C395.111 438 393.021 439.17 389.891 438.77C392.241 437.13 394.351 436.57 396.571 436.29C397.271 436.02 397.381 436.35 397.231 436.94V436.94Z" fill="#684E41"/>
<path d="M179.288 380.71C177.858 380.26 177.158 378.93 176.088 378.05C175.538 377.6 175.068 377.06 175.638 376.42C176.248 375.73 176.988 376.39 177.328 376.75C178.028 377.51 179.228 377.87 179.388 379.09C179.718 379.65 179.718 380.19 179.288 380.69V380.71Z" fill="#B06F2E"/>
<path d="M193.881 376.84C192.861 376.69 191.851 376.53 190.051 376.26C192.631 374.9 194.631 375.53 196.521 375.37C197.041 375.98 197.161 376.62 196.721 377.33C195.641 377.97 194.701 377.76 193.891 376.84H193.881Z" fill="#C17022"/>
<path d="M172.7 378.67C171.46 377.57 170.14 376.52 169.98 374.12C171.95 375.59 173.58 376.6 174.11 378.64C173.65 379.03 173.18 379.07 172.7 378.67V378.67Z" fill="#A7713C"/>
<path d="M199.2 376.61C200.86 376.94 200.77 377.9 199.9 378.91C199.32 379.59 198.71 380.87 197.66 380.31C196.62 379.75 197.63 378.81 197.88 378.05C198.29 377.54 197.97 376.36 199.2 376.61V376.61Z" fill="#8F5C2E"/>
<path d="M164.601 372.78C164.431 373.85 166.471 374.29 165.471 375.5C164.881 376.22 164.131 375.16 163.421 375.33C163.371 375.12 163.311 374.91 163.281 374.7C163.171 373.77 161.101 373.89 161.971 372.61C162.711 371.51 163.711 372.77 164.601 372.78V372.78Z" fill="#A96D36"/>
<path d="M179.11 384.41C179.01 385.36 178.2 385.71 177.54 385.71C176.49 385.71 176.22 384.73 176.2 383.88C176.18 383.16 176.78 382.76 177.49 382.73C178.63 382.68 178.76 383.66 179.12 384.4L179.11 384.41Z" fill="#8F5A29"/>
<path d="M179.291 380.71C179.321 380.18 179.361 379.64 179.391 379.11C179.831 379.38 180.391 379.56 180.671 379.95C181.241 380.74 182.731 381.01 182.241 382.43C182.151 382.68 181.721 383.06 181.571 383.01C180.431 382.65 179.461 382.05 179.281 380.71H179.291Z" fill="#B46C2E"/>
<path d="M211.188 371.53C211.158 371.05 211.128 370.56 211.098 370.08C212.168 368.92 213.478 369.33 214.748 369.55C215.678 369.79 216.518 370.12 216.498 371.31C214.778 370.71 213.718 371.98 212.478 372.74C212.778 371.56 211.568 372 211.198 371.54L211.188 371.53Z" fill="#4B3A36"/>
<path d="M203.508 372.15C205.078 371.39 206.638 370.36 208.668 371C207.428 373.78 205.068 371.32 203.508 372.15Z" fill="#A56F40"/>
<path d="M204.838 377.62C204.248 377.41 203.748 377.01 204.008 376.44C204.378 375.63 204.158 374.35 205.408 374.16C206.018 374.07 206.418 374.56 206.148 375.21C205.798 376.06 205.928 377.19 204.838 377.63V377.62Z" fill="#805834"/>
<path d="M134.96 376.86C136.37 379.28 139.25 376.95 140.87 378.69C139.11 379.21 137.35 379.14 135.59 378.74C135.14 378.55 134.7 378.35 134.25 378.16C133.94 377.94 133.33 377.6 133.36 377.51C133.64 376.79 134.25 376.66 134.96 376.86V376.86Z" fill="#A37953"/>
<path d="M135.541 508.56C134.561 507.96 135.371 506.5 134.281 505.96C135.031 504.94 136.011 504.83 136.661 505.83C137.471 507.06 136.161 507.74 135.541 508.55V508.56Z" fill="#44372E"/>
<path d="M138.17 434.21C138.19 434.67 138.21 435.13 138.23 435.59C136.29 435.67 134.69 434.59 132.09 434.04C134.71 433.36 136.4 434.75 138.17 434.21V434.21Z" fill="#85685A"/>
<path d="M257.471 449.51C257.241 448.13 257.771 447.07 258.831 446.22C260.261 448.09 260.011 449.27 257.471 449.51Z" fill="#6D4D3C"/>
<path d="M172.7 378.67C173.17 378.67 173.64 378.65 174.11 378.64C174.7 379.16 175.75 379.4 175.46 380.47C175.39 380.73 174.72 381 174.35 380.97C172.99 380.84 172.68 379.84 172.7 378.67V378.67Z" fill="#A6723A"/>
<path d="M186.62 408.47C186.61 405.83 186.6 403.18 186.59 400.54C187.95 403.13 186.95 405.91 187.21 408.58C187.01 408.53 186.82 408.5 186.62 408.47Z" fill="#6B837B"/>
<path d="M195.23 371.45C195.55 369.38 197.19 370.19 198.34 370.09C199.53 369.98 200.74 370.09 201.94 370.1C199.87 371.38 197.32 370.26 195.23 371.45Z" fill="#89B49E"/>
<path d="M209.82 369.29C211.61 367.68 213.36 367.61 215.07 369.41C214.91 369.5 214.75 369.59 214.6 369.69C213.01 369.54 211.35 370.22 209.82 369.29Z" fill="#9A7353"/>
<path d="M217.41 366.61C218.98 366.73 219.93 367.46 220.19 369.22C218.33 369.06 218.28 367.39 217.41 366.61Z" fill="#A27248"/>
<path d="M199.201 376.61C198.761 377.09 198.321 377.57 197.881 378.05C197.661 377.82 197.451 377.6 197.231 377.37C197.001 377.61 196.781 377.61 196.551 377.37C196.551 376.71 196.531 376.05 196.531 375.38C197.561 375.49 198.901 374.93 199.201 376.62V376.61Z" fill="#503E2E"/>
<path d="M230.87 361.18C231.61 361.53 232.59 361.23 233.16 362.04C230.67 361.85 228.08 362.82 225.68 361.43C227.38 360.83 229.14 361.22 230.87 361.18Z" fill="#1E4830"/>
<path d="M167.411 387.3C166.821 388.39 165.611 389.21 164.811 388.36C163.921 387.42 165.161 386.54 166.041 385.93C166.071 386.81 166.541 387.26 167.411 387.3Z" fill="#503726"/>
<path d="M170.688 385.97C172.028 384.83 173.267 384.24 173.977 386.57C172.777 386.95 171.517 387.66 170.688 385.97Z" fill="#7B5F47"/>
<path d="M171.43 372.6C172.96 373.86 175.15 372.7 176.67 374.03C174.97 373.39 172.51 375.53 171.43 372.6Z" fill="#333E34"/>
<path d="M183.188 385.22C183.688 386.06 184.548 385.94 185.328 386.01C185.078 386.24 184.828 386.47 184.578 386.7C183.258 387.04 181.948 387.24 180.668 386.56C181.168 385.46 182.128 385.26 183.188 385.23V385.22Z" fill="#786048"/>
<path d="M195.871 472.73H195.541H195.211C195.211 470.51 195.221 468.3 195.231 466.08C195.971 466.58 195.841 467.37 195.891 468.1C196.371 469.64 196.391 471.19 195.891 472.73H195.871Z" fill="#4A3329"/>
<path d="M410.589 401.91C409.689 403.08 408.749 404.22 407.219 404.61C407.709 402.92 408.609 401.74 410.589 401.91Z" fill="#4D3529"/>
<path d="M172.691 404.5C172.551 405.55 173.151 406.99 171.301 407.13C171.341 406.92 171.361 406.71 171.371 406.49C172.231 405.03 171.201 403.32 172.001 401.86C173.011 402.53 172.591 403.58 172.701 404.5H172.691Z" fill="#4B3422"/>
<path d="M66.6986 543.61C66.1186 543.58 65.5886 543.45 65.3086 542.86C66.2086 542.44 67.1086 542.01 68.0086 541.59C68.0086 542.23 68.0086 542.87 68.0086 543.5C67.5786 543.53 67.1386 543.57 66.7086 543.6L66.6986 543.61Z" fill="#834D2A"/>
<path d="M193.889 478.69C193.889 478.03 193.869 477.36 193.859 476.7C194.759 477.41 196.479 477.06 196.589 478.79L196.619 478.76C195.709 478.74 194.799 478.71 193.889 478.69Z" fill="#3C3936"/>
<path d="M183.338 390.72C184.538 391.53 184.778 392.69 184.548 394.03C183.628 393.12 182.368 392.33 183.338 390.72Z" fill="#6C8071"/>
<path d="M175.35 390.6C174.37 390.83 172.8 393.35 172.77 389.93C173.75 389.68 174.89 388.84 175.35 390.6Z" fill="#95664D"/>
<path d="M374.069 389.94C373.829 389.49 373.599 389.04 373.359 388.59C373.459 388.14 373.359 387.29 374.159 387.84C374.929 388.38 375.499 389.19 376.159 389.88C375.459 389.9 374.759 389.92 374.059 389.94H374.069Z" fill="#8A6A5B"/>
<path d="M290.59 415.1C290.59 414.66 290.58 414.21 290.57 413.77C291.46 413.34 292.35 412.91 293.24 412.49C292.85 413.86 291.98 414.75 290.59 415.1V415.1Z" fill="#6D4F3F"/>
<path d="M283.969 325.57C285.429 324.61 287.029 325.06 288.579 325.17C288.629 325.17 288.699 325.34 288.699 325.42C288.699 325.52 288.609 325.61 288.559 325.7C287.019 326.08 285.479 326.34 283.969 325.57V325.57Z" fill="#204331"/>
<path d="M283.968 325.57C285.498 325.61 287.028 325.66 288.558 325.7C288.638 325.89 288.718 326.08 288.798 326.27C286.948 326.28 285.088 326.3 283.238 326.31C283.478 326.06 283.728 325.81 283.968 325.57Z" fill="#8EAE9D"/>
<path d="M152.809 376.66C152.809 377.07 152.809 377.48 152.809 377.88C151.939 377.94 151.069 378 150.199 378.07C150.339 376.23 151.779 376.81 152.819 376.66H152.809Z" fill="#51351C"/>
<path d="M230.869 361.18C229.139 361.26 227.409 361.34 225.679 361.43C225.649 361.23 225.609 361.02 225.559 360.83C227.329 360.95 229.149 360.39 230.869 361.19V361.18Z" fill="#8BB49A"/>
<path d="M220.38 349.57C218.64 349.48 216.9 349.4 215.16 349.31C216.94 348.71 218.7 348.37 220.38 349.57Z" fill="#1E4531"/>
<path d="M397.23 436.94C397.01 436.72 396.79 436.51 396.57 436.29C397.48 435.44 398.63 435.23 400.07 435.5C399.12 435.98 398.17 436.46 397.23 436.94Z" fill="#5C483D"/>
<path d="M216.5 371.3C216.04 370.89 215.57 370.47 215.11 370.06C214.87 369.92 214.79 369.77 214.86 369.61C214.93 369.45 215.01 369.38 215.09 369.38L215.07 369.41C215.66 369.32 216.27 368.5 216.81 369.26C217.29 369.93 217.17 370.71 216.5 371.31V371.3Z" fill="#8F6F51"/>
<path d="M215.089 369.38C215.089 369.61 215.099 369.83 215.109 370.06C213.769 370.06 212.439 370.07 211.099 370.08C210.539 370.04 210.009 369.93 209.809 369.29C211.569 369.32 213.329 369.35 215.089 369.38V369.38Z" fill="#563014"/>
<path d="M171.989 401.87C171.769 403.41 172.639 405.1 171.359 406.5C171.369 404.94 171.379 403.37 171.389 401.81C171.589 401.83 171.789 401.85 171.989 401.87Z" fill="#775E4D"/>
<path d="M60.0702 537.13C60.0702 537.94 60.0702 538.75 60.0702 539.57C58.5402 539.68 58.7402 538.63 58.8002 537.67C59.2202 537.49 59.6502 537.31 60.0702 537.13V537.13Z" fill="#926952"/>
<path d="M170.688 385.97C171.618 387.07 172.857 386.49 173.977 386.57C172.727 387.2 171.368 388.49 170.688 385.97Z" fill="#493823"/>
<path d="M187.218 380.06C187.248 380.25 187.278 380.44 187.328 380.63C185.988 380.2 183.978 381.81 183.328 379.31C183.508 379.34 183.678 379.36 183.858 379.37C184.868 380.14 186.238 379.18 187.228 380.06H187.218Z" fill="#573419"/>
<path d="M196.539 377.35C196.769 377.35 196.989 377.35 197.219 377.35C195.939 378.23 194.719 378.72 193.879 376.83C194.769 377 195.659 377.17 196.539 377.35Z" fill="#5A3916"/>
<path d="M193.988 379.31C193.098 379.82 192.208 380.08 191.328 379.31C192.218 378.27 193.108 378.48 193.988 379.31Z" fill="#A17346"/>
<path d="M175.35 390.6C174.68 389.65 173.66 390.02 172.77 389.93C173.6 388.86 174.67 389.1 175.63 389.58C176.02 389.78 175.77 390.33 175.35 390.6V390.6Z" fill="#7F6E66"/>
<path d="M220.379 434.25C221.699 434.27 223.019 434.29 224.339 434.3C223.009 435.3 221.689 435.37 220.379 434.25Z" fill="#254233"/>
<path d="M58.0508 551.49C58.4508 551.07 58.6908 550.7 59.0208 550.51C59.3108 550.34 59.7008 550.52 59.5808 550.93C59.4608 551.31 59.1808 551.66 58.9008 551.97C58.8608 552.01 58.4508 551.73 58.0508 551.5V551.49Z" fill="#61524F"/>
<path d="M180.668 386.55C181.968 386.6 183.278 386.64 184.578 386.69C183.238 387.57 181.928 387.71 180.668 386.55Z" fill="#4E3519"/>
<path d="M170.059 383.23C170.059 382.37 170.049 381.51 170.039 380.65C170.979 381.5 171.799 382.35 170.059 383.23Z" fill="#926842"/>
<path d="M367.43 431.02C368.39 431.01 369.04 431.47 369.45 432.31C368.48 432.34 367.52 432.36 367.43 431.02Z" fill="#493B2C"/>
<path d="M454.18 408.46C454.59 407.63 455.24 407.16 456.19 407.14C456.14 408.52 455.16 408.5 454.18 408.46Z" fill="#48352C"/>
<path d="M141.589 499.91C141.189 500.73 140.499 501.16 139.629 501.35C139.549 499.87 140.549 499.87 141.589 499.91Z" fill="#503A2C"/>
<path d="M128.358 510.51C127.938 511.32 127.268 511.78 126.378 511.95C126.308 510.46 127.318 510.47 128.358 510.51Z" fill="#49362D"/>
<path d="M152.231 372.66C151.061 372.66 149.881 372.65 148.711 372.64C149.891 371.82 151.061 371.79 152.231 372.66Z" fill="#B26B22"/>
<path d="M211.188 371.53C212.228 371.28 213.218 371.08 212.468 372.73C211.618 372.78 211.088 372.49 211.188 371.53Z" fill="#A6672E"/>
<path d="M505.989 380.08C503.149 382.15 499.709 382.95 496.619 384.51C494.569 385.54 494.229 383.74 493.989 382.38C493.209 377.87 492.109 377.1 487.749 377.95C486.279 378.23 484.739 378.71 483.219 378.04C481.319 377.21 479.969 376.39 480.449 373.68C480.979 370.69 480.469 367.54 480.689 364.48C481.049 359.58 482.039 358.88 486.789 358.76C492.799 358.61 497.889 361.49 503.249 363.49C503.829 363.84 504.379 364.24 504.549 364.92C505.769 369.91 507.089 374.89 505.979 380.1L505.989 380.08Z" fill="white"/>
<path d="M518.559 362.21C523.699 359.63 529.189 359.68 534.699 360.23C535.729 360.33 537.369 360.42 537.589 361.9C537.769 363.14 536.509 363.76 535.629 364.32C531.469 366.96 527.559 370.01 523.089 372.15C522.859 372.19 522.529 372.19 522.479 372.05C521.489 368.64 518.859 365.88 518.569 362.2L518.559 362.21Z" fill="#FEFEFE"/>
<path d="M505.988 380.08C505.208 374.52 504.938 368.88 503.258 363.48C504.588 363.49 505.918 363.51 507.248 363.52C510.098 368.31 511.068 373.34 509.188 378.73C508.278 379.55 507.138 379.82 505.988 380.08Z" fill="#78C19B"/>
<path d="M509.83 363.54C510.97 363.53 512.1 363.51 513.24 363.5C516.83 366.8 516.77 371.11 516.52 375.47C514.99 376.11 513.45 376.75 511.92 377.39C511.35 376.97 511.07 376.36 511.06 375.7C511 372.09 510.64 368.54 509.5 365.08C509.33 364.56 509.48 364 509.83 363.54V363.54Z" fill="#7ABF9D"/>
<path d="M509.828 363.54C511.838 367.96 512.128 372.63 511.918 377.39C511.168 378.15 510.178 378.44 509.198 378.74C509.478 373.55 508.488 368.52 507.258 363.53C508.118 363.53 508.968 363.54 509.828 363.55V363.54Z" fill="#FBFDFC"/>
<path d="M518.561 362.21C520.571 365.29 522.331 368.49 523.081 372.15C521.571 372.8 520.061 373.46 518.551 374.11C518.071 373.77 517.691 373.25 517.761 372.73C518.191 369.22 515.701 366.32 515.771 362.9C516.701 362.67 517.631 362.44 518.561 362.21Z" fill="#76C09A"/>
<path d="M515.771 362.9C517.921 366.33 518.8 370.08 518.55 374.11C517.87 374.56 517.191 375.02 516.521 375.47C514.901 373.77 516.1 371.55 515.42 369.59C514.72 367.55 514.24 365.44 513.23 363.5C514.04 363.16 514.82 362.66 515.76 362.89L515.771 362.9Z" fill="#F5FAF8"/>
<path d="M502.628 361.16C501.268 360.65 499.908 360.13 498.548 359.62C498.178 358.7 498.148 357.98 499.468 358.03C504.028 360.4 508.938 359.07 513.688 359.41C514.898 359.31 516.298 358.29 517.148 360.07C516.048 361.19 514.268 360.4 513.158 361.5C509.638 361.73 506.108 362.38 502.628 361.15V361.16Z" fill="#72BF97"/>
<path d="M517.14 360.08C516.15 359.04 514.83 359.66 513.68 359.42C517.01 358.64 520.27 357.46 523.76 357.5C524.91 357.63 526.2 357.11 527.16 358.18C523.82 358.81 520.48 359.45 517.14 360.08V360.08Z" fill="#86B29B"/>
<path d="M527.158 358.17C526.018 357.96 524.718 358.57 523.758 357.49C527.728 356.28 531.698 356.43 535.648 357.58C535.648 358.81 534.928 358.45 534.268 358.19C531.898 358.19 529.528 358.19 527.158 358.18V358.17Z" fill="#73C096"/>
<path d="M499.459 358.03C498.779 358.34 498.599 358.95 498.539 359.62C496.129 358.68 493.719 357.74 491.309 356.8C491.519 355.17 492.519 355.93 493.339 356.13C495.519 356.29 497.569 356.9 499.449 358.03H499.459Z" fill="#7FB699"/>
<path d="M493.348 356.14C492.618 356.19 491.808 356.03 491.318 356.81C489.188 356.67 487.008 357.15 484.918 356.13C487.718 355.48 490.508 354.95 493.348 356.14V356.14Z" fill="#71BE92"/>
<path d="M502.629 361.16C506.119 361.86 509.649 361.29 513.159 361.51C513.039 361.8 512.919 362.36 512.819 362.36C509.619 362.24 506.419 362.08 503.229 361.87C503.019 361.86 502.839 361.41 502.639 361.16H502.629Z" fill="#224331"/>
<path d="M534.268 358.19C534.728 357.99 535.188 357.78 535.648 357.58C536.188 357.66 536.898 358.16 536.638 358.43C535.898 359.19 535.018 358.76 534.258 358.19H534.268Z" fill="#89A595"/>
<path d="M83.9102 526.5C84.6602 526.74 85.2102 527.18 85.1902 528.03C85.1802 528.84 84.6002 529.02 83.9102 529C83.9102 528.17 83.9102 527.33 83.9102 526.5Z" fill="#46382E"/>
<path d="M474.758 395.25C474.818 393.88 475.788 393.9 476.768 393.93C476.368 394.78 475.698 395.22 474.758 395.25Z" fill="#664F40"/>
<path d="M116.959 409.03C117.489 408.51 118.239 407.81 118.799 408.46C119.209 408.93 118.419 409.56 117.829 409.88C117.539 409.6 117.239 409.31 116.949 409.03H116.959Z" fill="#3A3737"/>
<path d="M209.147 410.42C207.567 409.25 205.757 410.01 204.057 409.81C203.287 409.72 202.277 409.8 202.217 408.86C202.157 407.9 203.157 407.83 203.917 407.81C205.887 407.76 207.847 407.73 209.817 407.7C212.597 408.55 214.617 410.37 217.027 413.06C213.627 412.69 211.807 410.24 209.137 410.41L209.147 410.42Z" fill="#363F39"/>
<path d="M131 393.27C131.63 393.48 132.26 393.69 132.9 393.91C132.27 397 129.71 398.58 127.65 400.54C127.02 400.67 126.72 400.48 126.93 399.8C128.29 397.62 129.65 395.45 131.01 393.27H131Z" fill="#47392D"/>
<path d="M130.27 384.6C130.29 385.46 130.72 385.93 131.59 385.95C131.78 387.74 130 386.43 129.57 387.23C128.55 387.02 128.37 388.33 127.27 388.42C127.09 386.14 128.89 385.52 130.27 384.6V384.6Z" fill="#483428"/>
<path d="M140.959 400.54C142.059 400.69 142.379 401.39 142.059 402.33C141.649 403.56 140.509 403.05 139.639 403.19C139.419 403.02 139.309 402.81 139.309 402.53C139.409 402 139.639 401.53 139.929 401.08C140.199 400.76 140.519 400.55 140.949 400.54H140.959Z" fill="#B87533"/>
<path d="M152.921 382.66C154.761 383.25 152.631 385.3 154.161 386.01C153.821 386.56 153.581 387.22 152.641 387.11C152.741 385.63 152.831 384.15 152.931 382.67L152.921 382.66Z" fill="#543F31"/>
<path d="M139.601 402.56C139.571 402.77 139.591 402.98 139.641 403.19C139.221 403.65 138.791 404.11 138.371 404.58C138.031 404.81 137.731 404.78 137.461 404.46C137.761 403.59 138.051 402.72 138.351 401.85C139.091 401.53 139.741 401.36 139.601 402.57V402.56Z" fill="#493826"/>
<path d="M127.568 401.06C127.698 403.28 126.858 403.77 125.008 402.51C125.668 401.7 126.098 400.45 127.568 401.06Z" fill="#B47539"/>
<path d="M129.578 387.24C130.248 386.81 130.928 386.38 131.598 385.96C131.818 385.96 132.038 385.96 132.258 385.97C132.778 387.28 132.788 388.6 132.258 389.91C132.058 389.95 131.868 390 131.678 390.06C131.618 388.64 131.778 387.07 129.588 387.24H129.578Z" fill="#997453"/>
<path d="M134.33 390.05C134.54 388.26 133.54 386.32 134.99 384.69C135.36 386.44 135.5 388.19 134.89 389.92C134.7 389.95 134.51 389.99 134.33 390.05Z" fill="#5B3412"/>
<path d="M134.891 389.92C134.921 388.18 134.961 386.44 134.991 384.69C135.181 384.66 135.381 384.63 135.571 384.59C135.301 386.36 136.281 388.29 134.891 389.92V389.92Z" fill="#A37A55"/>
<path d="M127.568 401.06C126.718 401.54 125.858 402.03 125.008 402.51C125.058 401.2 125.988 400.49 126.918 399.8C127.158 400.05 127.398 400.29 127.638 400.54C127.598 400.71 127.568 400.89 127.558 401.06H127.568Z" fill="#613C18"/>
<path d="M139.6 402.56C139.34 402.04 138.89 401.87 138.35 401.84C138.14 400.89 138.69 400.57 139.5 400.47C140.14 400.35 140.5 400.51 140.24 401.25C140.21 401.78 140.13 402.28 139.6 402.56V402.56Z" fill="#5C3212"/>
<path d="M154.16 385.99C154.19 384.93 154.59 384.05 155.36 383.32C155.47 384.44 155.3 385.43 154.16 385.99Z" fill="#543F31"/>
<path d="M126.261 415.7C126.731 416.52 127.551 416.41 128.311 416.48C127.191 417.28 126.161 417.69 125.711 415.83C125.891 415.78 126.081 415.74 126.261 415.7Z" fill="#5A381D"/>
<path d="M141.548 405.85C141.168 406.7 140.508 407.15 139.578 407.21C139.588 405.82 140.558 405.83 141.548 405.85Z" fill="#BA6F34"/>
<path d="M137.459 404.46C137.759 404.5 138.069 404.54 138.369 404.58C138.159 405.21 138.129 406.28 137.199 405.92C136.549 405.67 136.899 404.88 137.459 404.46Z" fill="#453C31"/>
<path d="M140.24 401.25C139.99 400.99 139.74 400.73 139.5 400.47C139.7 400.12 139.85 399.51 140.11 399.46C140.88 399.31 140.82 400.04 140.96 400.53C140.72 400.77 140.48 401.01 140.24 401.25V401.25Z" fill="#54423A"/>
<path d="M282.689 424.4C282.639 425.34 282.189 426 281.329 426.39C281.309 425.4 281.289 424.42 282.689 424.4Z" fill="#6F5040"/>
<path d="M168.08 423.08C167.21 423.66 165.95 424.38 166.41 422.47C167.06 419.75 165.17 419.53 163.58 419.16C162.11 418.82 160.6 418.73 159.34 417.8C159.57 417.1 160.35 416.98 160.76 416.46C162.43 416.89 164.16 417.17 165.75 417.8C168.16 418.75 169.55 420.34 168.09 423.09L168.08 423.08Z" fill="#413732"/>
<path d="M160.759 416.45C160.729 417.37 160.189 417.74 159.339 417.79C158.489 417.79 157.639 417.77 156.789 417.76C157.199 415.6 158.959 416.72 160.119 416.39C160.329 416.39 160.539 416.41 160.759 416.44V416.45Z" fill="#383938"/>
<path d="M195.869 472.73C195.869 471.19 195.869 469.64 195.869 468.1C197.169 469.74 196.239 471.65 196.519 473.41C196.299 473.18 196.079 472.96 195.859 472.73H195.869Z" fill="#664F45"/>
<path d="M135.59 378.74C137.35 378.72 139.11 378.71 140.87 378.69C140.91 378.89 140.97 379.08 141.03 379.27C139.22 379.1 137.3 379.94 135.59 378.74Z" fill="#5A3712"/>
<path d="M132.258 389.91C132.258 388.6 132.258 387.28 132.258 385.97C133.288 387.29 133.278 388.6 132.258 389.91Z" fill="#543213"/>
<path d="M159.389 378.65C158.089 379.69 156.779 379.71 155.469 378.65C156.769 378.18 158.079 378.18 159.389 378.65Z" fill="#613612"/>
<path d="M159.389 378.65C158.079 378.65 156.779 378.65 155.469 378.65C155.539 378.44 155.619 378.23 155.689 378.02C156.969 378.04 158.249 378.05 159.529 378.07C159.479 378.26 159.429 378.45 159.379 378.65H159.389Z" fill="#A0754F"/>
<path d="M187.218 380.06C186.108 379.79 184.798 380.43 183.848 379.37C184.988 379.5 186.298 378.86 187.218 380.06Z" fill="#997758"/>
</svg>
