<svg width="596" height="842" viewBox="0 0 596 842" fill="none" xmlns="http://www.w3.org/2000/svg">
<path d="M516.121 297.06C514.511 297.14 514.021 295.76 513.251 294.78C508.981 289.26 504.621 283.91 497.671 281.44C492.021 279.43 486.941 276.35 482.561 272.17C479.561 269.32 473.361 269 469.861 271.14C464.961 274.14 462.001 278.57 459.911 283.78C457.901 288.81 456.331 294.07 453.301 298.63C452.021 300.57 450.731 303.55 448.971 303.94C445.051 304.81 442.091 307.6 438.231 308.31C437.931 309.23 438.641 309.46 439.161 309.81C439.301 309.9 439.421 310 439.521 310.13C439.531 310.14 439.541 310.16 439.551 310.17C439.561 310.18 439.571 310.19 439.581 310.2C439.681 310.32 439.781 310.44 439.871 310.58C440.241 311.1 440.591 311.66 441.311 311.69C441.411 311.69 441.521 311.69 441.631 311.67C441.661 311.67 441.711 311.66 441.741 311.65C443.291 310.73 444.091 309.07 445.431 307.94C445.511 307.86 445.611 307.79 445.691 307.72C445.701 307.71 445.711 307.7 445.721 307.7C446.121 307.38 446.541 307.09 446.961 306.79C447.481 306.33 447.981 306.19 448.491 306.23C448.721 306.24 448.951 306.28 449.181 306.36C449.651 306.49 450.111 306.71 450.591 306.88C450.641 306.9 450.711 306.92 450.771 306.95H450.781C451.071 306.95 451.321 306.91 451.571 306.79C451.761 306.66 451.911 306.54 452.061 306.38H452.071C452.291 306.17 452.481 305.95 452.641 305.72C452.981 305.26 453.221 304.73 453.381 304.15C453.431 303.96 453.501 303.79 453.591 303.62C453.661 303.5 453.721 303.38 453.811 303.27C453.841 303.23 453.881 303.17 453.921 303.13C454.001 303.01 454.101 302.91 454.191 302.8C454.271 302.7 454.351 302.61 454.441 302.53C456.581 300.78 456.971 297.99 458.351 295.64C459.671 297.88 461.531 298.49 463.771 298.24C465.531 298.04 467.131 298.21 468.261 299.83C467.611 301.09 466.281 300.3 465.361 300.77C462.411 301.18 459.551 302.1 456.611 302.56C456.301 302.75 456.131 302.93 456.021 303.11C456.001 303.18 455.971 303.23 455.951 303.29C455.811 303.83 456.361 304.32 456.621 304.83C456.701 304.97 456.751 305.1 456.761 305.25C456.751 305.28 456.731 305.32 456.711 305.35C456.641 305.49 456.551 305.64 456.451 305.76C456.361 305.88 456.271 305.99 456.191 306.1C456.011 306.31 455.831 306.52 455.701 306.76C455.171 307.69 454.551 308.57 453.971 309.48C453.331 310.47 452.421 311.29 451.741 312.25C451.721 312.27 451.721 312.28 451.711 312.29C451.451 312.65 451.221 313.05 451.061 313.46C450.921 313.81 450.831 314.2 450.801 314.62V314.73C450.801 314.84 450.811 314.94 450.821 315.05C450.851 315.35 450.921 315.61 451.051 315.87C451.101 315.99 451.171 316.09 451.251 316.18C451.271 316.21 451.291 316.23 451.321 316.27C452.901 316.97 453.081 315.5 453.721 314.75C453.791 314.66 453.851 314.6 453.941 314.53C454.011 314.49 454.081 314.44 454.171 314.41C456.291 312.71 457.331 310.19 458.901 308.08C459.541 307.22 460.041 306.2 460.901 305.57C461.091 305.43 461.301 305.31 461.531 305.21C461.661 305.14 461.821 305.1 461.971 305.06C462.821 305.26 465.001 303.78 464.281 305.84C463.141 309.14 461.591 312.59 457.751 313.92C457.721 313.93 457.701 313.94 457.661 313.95C457.501 314.02 457.321 314.06 457.141 314.1C456.331 314.29 455.471 314.32 454.711 314.74C454.701 314.75 454.691 314.75 454.681 314.76C454.561 314.85 454.451 314.94 454.361 315.01C453.591 315.68 453.531 316.28 454.811 316.77C454.811 316.77 454.818 316.77 454.831 316.77C454.831 316.77 454.841 316.78 454.861 316.79C454.941 316.81 454.981 316.83 455.061 316.86H455.081C455.571 316.99 456.081 317.01 456.601 317H456.611C456.741 317 456.871 316.99 457.011 316.99H457.241C458.451 316.9 459.641 316.68 460.841 316.75C461.061 316.76 461.281 316.78 461.501 316.82C461.711 316.85 461.911 316.89 462.111 316.94C462.801 316.98 463.501 316.96 464.201 316.91C467.191 316.71 467.261 316.81 466.091 319.39C459.271 334.36 453.501 349.79 446.571 364.71C442.211 374.12 438.341 383.75 433.751 393.05C431.101 398.41 427.601 402.91 422.401 406.21C416.021 410.28 409.871 414.73 403.781 419.24C397.611 423.81 391.891 428.97 385.421 433.13C385.241 433.25 385.071 433.38 384.901 433.51C383.781 434.39 382.721 435.4 381.091 436.1C381.071 428.66 377.841 423.58 371.771 419.83C367.971 417.49 365.391 413.84 365.281 408.97C365.261 407.75 364.721 406.61 364.001 405.67C363.041 404.43 363.251 403.63 364.531 402.76C375.851 395.08 387.501 387.96 400.141 382.67C402.641 381.63 404.051 380.16 404.881 377.78C407.441 370.53 411.521 364.22 416.461 358.38C419.621 354.66 422.941 351.08 426.041 347.31C432.841 339.11 437.271 329.44 442.851 320.48C443.311 319.73 443.661 318.93 443.481 318.05C443.461 317.93 443.431 317.82 443.371 317.7C443.371 317.7 443.361 317.69 443.371 317.69C443.371 317.68 443.371 317.66 443.361 317.65C443.041 317.13 442.571 316.88 442.021 316.76C442.021 316.76 442.021 316.77 442.011 316.76C441.991 316.76 441.961 316.75 441.931 316.75C441.921 316.74 441.911 316.74 441.901 316.74C441.861 316.73 441.811 316.73 441.771 316.72H441.741C440.911 316.63 440.121 316.72 439.401 317.21C439.311 317.31 439.241 317.41 439.171 317.51C439.091 317.62 439.041 317.73 438.981 317.85C438.771 318.3 438.691 318.78 438.611 319.27C438.601 319.32 438.591 319.37 438.581 319.42C438.551 319.49 438.531 319.53 438.491 319.58C438.461 319.65 438.421 319.7 438.391 319.77C432.341 330.52 425.921 340.99 417.451 350.11C411.351 356.7 405.581 363.75 402.711 372.37C401.231 376.79 398.821 378.96 394.631 380.7C382.641 385.7 371.681 392.63 361.181 400.26C359.901 401.18 358.701 402.25 356.951 402.29C349.751 402.45 342.711 403.76 335.771 405.64C332.621 406.49 329.391 406.57 325.561 406.95C327.321 405 327.901 403.17 327.671 401.24C327.231 397.6 327.781 394.13 329.001 390.7C329.371 389.67 329.611 388.54 329.461 387.46C328.561 381.1 330.871 375.05 331.131 368.82C331.341 363.86 331.371 358.91 329.291 354.23C329.281 354.22 329.271 354.22 329.261 354.22C329.181 354.18 329.111 354.14 329.041 354.11C328.661 353.96 328.281 353.92 327.891 353.99C327.761 354 327.621 354.04 327.471 354.1C327.441 354.1 327.391 354.12 327.361 354.13C326.661 354.54 326.501 355.15 326.701 355.89C326.811 356.39 326.911 356.9 326.991 357.41C327.101 358.08 327.191 358.74 327.241 359.41C327.241 359.41 327.231 359.43 327.241 359.44C327.531 362.49 327.391 365.56 327.221 368.62V368.72C327.151 369.74 327.101 370.77 327.041 371.8C327.021 371.84 327.001 371.88 326.971 371.92C326.771 372.32 326.601 372.71 326.471 373.13C326.151 374.1 326.061 375.11 326.041 376.08C325.911 380.99 323.661 384.31 319.431 386.95C313.081 390.88 306.691 394.44 299.161 395.32C293.441 395.98 287.801 396.11 282.751 392.58C279.251 390.12 278.821 389.37 280.281 385.39C283.581 376.4 286.671 367.34 289.851 358.31V358.29C289.991 357.87 290.151 357.46 290.291 357.04C290.511 356.44 290.721 355.82 290.941 355.22C292.521 350.29 294.291 345.44 296.131 340.61C298.871 333.43 304.211 329.39 311.261 327.44C328.901 322.54 346.571 317.73 363.611 310.92C367.211 309.48 370.301 311.57 373.521 312.41C374.851 312.75 375.631 314.18 374.961 315.84C374.701 316.48 374.671 317.2 374.731 317.9C374.821 318.35 374.891 318.79 375.041 319.21C375.091 319.42 375.161 319.59 375.261 319.77C375.561 320.42 376.061 320.93 376.981 321.18C369.211 325.1 361.791 329.68 355.261 335.38C348.081 341.65 340.341 346.63 331.241 349.47C330.341 349.76 329.441 350.12 328.991 351.04C328.971 351.08 328.951 351.13 328.921 351.18C328.901 351.27 328.881 351.36 328.881 351.44C328.781 351.99 328.891 352.48 329.281 352.93C329.301 352.94 329.331 352.96 329.361 352.97C330.781 353.8 332.211 353.3 333.611 352.93C342.211 350.58 349.991 346.77 356.321 340.35C358.041 338.6 359.991 337.57 362.541 337.23C365.861 336.79 369.061 335.64 372.351 334.99C372.351 334.88 372.361 334.78 372.341 334.68C372.351 334.65 372.351 334.61 372.341 334.58C372.261 333.24 371.461 332.74 370.511 332.34H370.491C370.331 332.29 370.161 332.22 369.991 332.16C369.481 331.96 368.971 331.78 368.541 331.5C368.441 331.49 368.331 331.49 368.241 331.5C368.191 331.5 368.131 331.5 368.081 331.51C367.411 331.62 366.941 332.12 366.401 332.5C366.391 332.51 366.371 332.52 366.361 332.53C366.271 332.6 366.181 332.65 366.101 332.72C365.641 333.04 365.181 333.36 364.621 333.54C364.601 333.55 364.431 333.52 364.431 333.52C364.431 333.52 364.591 333.39 364.591 333.38C365.061 333.11 365.501 332.74 365.931 332.38C366.031 332.29 366.141 332.2 366.241 332.12C366.261 332.1 366.291 332.08 366.321 332.05C366.891 331.57 367.441 331.06 368.031 330.63C368.381 330.36 368.741 330.13 369.141 329.94C369.261 329.89 369.391 329.83 369.521 329.78C370.371 329.37 370.901 328.27 372.051 328.45C372.101 328.45 372.161 328.47 372.211 328.48C372.251 328.46 372.301 328.44 372.341 328.41C372.531 328.32 372.671 328.18 372.801 328.01C372.801 328.01 372.801 328 372.811 328C373.031 327.36 373.351 326.84 373.871 326.54H373.881C374.081 326.4 374.311 326.32 374.581 326.28C376.341 325.69 377.911 324.47 380.171 324.39C378.731 326.08 377.301 327.29 376.041 328.66C375.231 329.54 374.211 330.35 374.551 331.74C374.561 331.78 374.571 331.84 374.591 331.89C374.591 331.9 374.601 331.92 374.601 331.93C374.961 332.53 375.171 333.21 375.501 333.83C375.551 333.95 375.621 334.06 375.701 334.17C375.801 334.35 375.921 334.51 376.061 334.66C377.561 335.88 379.271 335.59 380.891 335.11C384.471 334.03 388.121 334.19 391.791 334.25C392.791 334.27 393.801 334.36 394.731 334.03C399.541 332.35 404.651 332.12 409.521 330.76C410.661 330.44 411.891 330.34 412.641 329.23C412.671 329.09 412.681 328.96 412.651 328.85C412.661 328.83 412.661 328.81 412.641 328.78C412.611 328.45 412.401 328.19 412.131 327.96C412.041 327.91 411.951 327.85 411.871 327.81C411.791 327.77 411.721 327.73 411.631 327.7C411.481 327.63 411.311 327.58 411.151 327.55C411.051 327.53 410.951 327.51 410.851 327.5C410.821 327.49 410.801 327.49 410.761 327.48C410.111 327.37 409.031 327.43 409.301 326.65C410.101 324.37 409.661 321.57 411.921 319.87C411.941 319.85 411.961 319.83 412.001 319.8C412.091 319.77 412.181 319.72 412.261 319.69C413.191 319.29 414.121 318.87 415.071 319.6C415.121 319.62 415.171 319.67 415.221 319.71C415.231 319.71 415.231 319.72 415.241 319.72C416.471 320.53 416.901 319.75 417.331 319.03C417.341 319.03 417.341 319.02 417.331 319.01C417.451 318.82 417.561 318.66 417.691 318.51C417.741 318.46 417.801 318.39 417.851 318.35C418.151 318.08 418.481 317.88 418.831 317.71C418.961 317.63 419.091 317.58 419.231 317.51C419.331 317.47 419.431 317.41 419.531 317.37C420.531 316.65 421.761 316.46 422.891 316.04C423.001 316.01 423.101 315.96 423.211 315.92C423.511 315.8 423.801 315.66 424.081 315.47C424.611 313.46 423.621 313.29 422.051 313.79C413.911 317.37 405.041 317.87 396.351 320.22C397.511 313.34 397.271 306.8 395.741 300.41C393.961 293.05 391.911 285.78 390.671 278.28C389.901 273.59 388.961 268.78 386.081 264.71C384.421 262.35 382.381 260.88 379.411 261.21C376.511 261.52 375.321 263.52 374.771 266.11C374.211 268.7 373.441 271.26 373.061 273.87C371.641 283.65 370.001 293.38 367.331 302.93C366.441 306.08 365.071 307.56 361.741 308.47C351.641 311.24 341.721 314.65 331.681 317.69C328.961 318.52 326.211 320.25 323.391 319.7C316.561 318.34 309.751 320.1 302.921 319.34C298.011 318.79 293.061 318.26 287.951 318.99C282.141 319.82 276.141 318.87 270.241 319.69C269.691 319.77 269.041 319.66 268.531 319.44C266.181 318.47 263.681 318.29 261.231 318.21C259.451 318.17 258.621 317.64 258.021 316.01C257.061 313.41 255.181 311.73 252.321 311.43C247.601 310.93 242.891 310.33 238.091 310.73C234.601 311 231.791 312.23 229.671 315.02C229.271 315.54 229.091 316.37 228.131 316.08C223.821 314.81 219.341 315.76 214.981 315.09C214.131 315.51 214.091 316.07 214.821 316.6C215.571 317.17 216.371 317.65 217.271 317.92C217.371 317.95 217.481 317.99 217.591 318.01C217.701 318.03 217.811 318.05 217.921 318.08C218.181 318.11 218.451 318.13 218.701 318.15C218.881 318.16 219.041 318.16 219.221 318.16H219.261C220.931 318.07 222.641 318.41 223.601 317.96C220.931 320.18 218.511 323.46 216.331 326.95C216.321 326.96 216.321 326.97 216.311 326.98C216.321 327.09 216.321 327.19 216.321 327.3C216.331 328.39 216.091 329.5 216.661 330.49C216.661 330.5 216.671 330.51 216.681 330.53C216.751 330.64 216.821 330.75 216.911 330.86C219.451 331.74 222.031 331.34 224.591 331.08C227.931 330.74 230.381 333.23 229.761 336.56C229.171 339.79 228.631 343.03 227.921 346.24C224.931 359.84 222.231 373.5 219.321 386.61C217.391 379.05 215.961 370.95 210.791 364.05C201.601 351.78 191.481 340.33 180.921 329.16C183.281 330.39 190.141 331.04 197.611 330.74C198.251 330.59 198.891 330.53 199.531 330.52H199.551C200.131 330.52 200.701 330.55 201.281 330.59C201.291 330.6 201.291 330.59 201.291 330.59C202.001 330.64 202.731 330.7 203.441 330.69C203.711 330.66 203.971 330.62 204.221 330.55C204.251 330.55 204.301 330.54 204.331 330.53C204.521 330.48 204.701 330.41 204.881 330.33H204.891C206.111 329.75 206.961 328.82 206.301 327.49C205.521 325.93 204.441 326.95 203.591 327.54C203.191 327.81 202.811 327.89 202.431 327.85C202.361 327.85 202.291 327.84 202.211 327.83C202.011 327.79 201.811 327.73 201.621 327.65C201.241 327.54 200.841 327.46 200.451 327.42C200.241 327.4 200.021 327.39 199.811 327.38H199.711C198.991 327.35 198.261 327.36 197.541 327.37H196.531C195.631 327.36 194.721 327.38 193.821 327.45C193.801 327.45 193.781 327.46 193.751 327.46C193.541 327.49 193.331 327.53 193.141 327.55C191.981 327.67 190.861 327.54 189.731 327.11C189.631 327.08 189.541 327.04 189.461 327C189.171 326.89 188.891 326.75 188.601 326.59C190.821 323.95 192.151 320.63 195.171 318.8H195.181C195.411 318.66 195.641 318.53 195.891 318.42C195.931 318.39 195.991 318.37 196.031 318.34C196.271 318.12 196.501 317.88 196.671 317.59C196.711 317.5 196.761 317.43 196.791 317.35C196.801 317.34 196.801 317.32 196.811 317.3C197.221 315.92 196.451 315.38 195.271 315.13C192.161 314.14 188.981 314.34 185.801 314.53C185.221 314.57 184.711 314.72 184.101 314.5C179.321 312.88 174.271 311.82 169.431 311.23C164.811 310.67 162.911 308.49 160.781 305.17C158.871 302.21 156.891 299.1 153.711 297.22C145.511 292.37 137.581 296.24 129.621 298.13C128.721 298.35 127.511 299.06 127.251 299.83C125.891 303.76 122.891 303.23 119.851 302.87C119.171 302.79 118.461 302.96 117.761 302.98C113.401 303.16 108.981 303.87 104.711 303.34C98.5209 302.57 92.3209 301.67 86.1009 301.99C82.8909 302.15 79.8609 301.86 76.7409 301.42C71.3109 300.66 66.4609 301.69 63.1509 306.69C61.4409 309.26 59.3409 311.51 56.7609 313.33C55.0109 314.56 55.2409 316.33 57.2409 317.27C59.8409 318.5 62.6109 319.39 65.5309 319.2C71.1909 318.84 76.6409 320.55 82.3109 320.63C87.7409 320.71 93.2809 320.6 98.7009 321.63C98.9909 321.68 99.3009 321.66 99.5909 321.61C103.381 320.93 107.021 322.3 110.791 322.37C113.671 322.42 116.491 323.91 119.541 322.94C120.121 322.75 121.091 322.25 121.691 323.6C123.921 328.58 130.581 332.46 135.691 331.61C140.111 330.86 144.381 331.29 148.701 332.29C150.271 332.66 151.261 333.32 152.151 334.67C160.971 348.05 169.781 361.44 179.671 374.05C184.201 379.84 187.931 385.74 186.381 393.69C185.821 396.61 186.291 399.73 186.291 403.14C184.001 401.44 181.721 400.27 179.261 400.15C174.841 399.93 170.801 398.38 166.631 397.17C159.981 395.25 153.351 394.79 147.011 398.31C143.191 400.44 139.841 403.28 136.251 405.72C127.131 411.93 122.411 428.07 127.911 439.2C129.281 441.97 130.611 444.46 128.331 447.53C127.291 448.96 127.911 451.11 126.741 452.95C119.431 464.36 116.111 476.04 125.221 488.28C128.891 493.22 128.831 498.72 127.191 504.48C125.541 510.28 123.531 516.01 122.841 522.03C121.881 530.31 124.681 537.66 128.721 544.69C129.311 545.72 129.721 547.15 131.261 546.48C132.611 545.89 131.981 544.56 131.701 543.56C130.991 541.07 130.991 538.61 131.811 536.09C134.241 542.34 137.491 548.25 137.871 555.15C138.301 562.7 136.671 569.96 135.051 577.24C134.781 578.5 134.221 580.08 135.791 580.62C137.591 581.25 137.991 579.52 138.561 578.24C139.841 575.34 141.091 572.42 142.551 569.61C149.741 555.82 153.031 541.43 149.181 525.86C153.011 526.94 153.511 526.46 152.861 523.04C151.691 516.9 151.501 510.84 154.061 504.9C155.651 501.2 156.551 497.18 155.451 493.26C153.321 485.66 150.131 478.41 144.931 472.42C142.461 469.58 142.481 466.74 142.581 463.6C142.651 461.77 145.231 460.68 146.731 461.68C148.531 462.88 150.281 463.92 152.711 463.51C154.841 463.15 157.161 463.07 159.251 463.53C163.831 464.53 167.891 463.3 171.891 461.38C173.541 460.59 175.171 460.16 177.031 460.25C179.061 460.35 180.041 460.88 179.741 463.23C178.681 471.91 182.311 478.67 188.671 484.25C193.521 488.51 199.401 490.18 205.591 490.96C216.611 492.33 227.031 495.3 236.011 502.14C238.251 503.85 240.501 505.51 243.381 505.78C245.371 505.97 247.371 505.88 249.361 505.92C256.661 506.06 263.291 507.98 268.641 513.29C270.881 515.51 273.671 516.83 276.681 517.65C284.921 519.91 289.201 518.62 293.721 512.79C295.361 510.67 294.961 508.1 295.691 505.79C296.991 501.65 298.471 497.52 298.341 493.03C298.151 486.3 298.381 486.16 305.231 485.45C305.331 485.44 305.431 485.48 305.531 485.46C319.061 483.38 332.431 480.39 343.771 472.44C354.001 465.27 365.011 459.57 375.811 453.43C382.421 449.68 386.471 444.09 388.061 436.72C388.291 435.68 388.821 435.22 389.541 434.71C402.431 425.52 414.831 415.68 428.021 406.9C430.621 405.17 432.581 402.82 434.111 400.05C438.001 393.02 441.001 385.59 444.441 378.37C453.331 359.66 461.011 340.43 469.001 321.33C470.411 317.96 471.721 314.67 476.071 314.35C476.221 314.13 476.231 313.92 476.111 313.72C476.101 313.7 476.081 313.68 476.071 313.65L475.961 313.53C475.691 313.35 475.421 313.23 475.131 313.16H475.111C474.761 313.08 474.371 313.05 474.001 313.05C474.001 313.05 473.991 313.04 473.991 313.05C473.951 313.04 473.921 313.04 473.881 313.04H473.801C473.691 313.03 473.571 313.02 473.451 313.02C472.581 313.01 471.701 313.23 470.861 312.87C473.101 310.03 475.931 307.76 477.391 304.43C477.411 304.39 477.431 304.33 477.441 304.29C477.561 303.99 477.661 303.7 477.751 303.41C478.021 302.4 478.021 301.46 477.151 300.68C477.071 300.6 476.991 300.54 476.891 300.47H476.881C476.781 300.4 476.681 300.33 476.561 300.26C476.301 300.13 476.021 300.04 475.751 299.97C475.521 299.93 475.291 299.89 475.051 299.88C474.981 299.87 474.921 299.86 474.851 299.86C473.831 299.83 472.741 299.77 472.151 298.85C470.351 296.09 467.581 295.26 464.561 294.68C460.981 294 460.081 292.34 461.391 288.92C462.351 286.42 463.491 283.98 464.631 281.54C467.261 275.92 472.821 274.41 478.111 277.85C478.691 278.22 479.231 278.67 479.801 279.08C481.411 280.24 482.941 281.52 484.621 282.59C484.691 282.62 484.741 282.66 484.811 282.69C485.001 282.78 485.171 282.87 485.371 282.92C485.691 283.05 486.021 283.12 486.371 283.13C486.521 283.12 486.661 283.11 486.791 283.08C486.891 283.06 486.981 283.03 487.061 282.98H487.071C487.341 282.87 487.561 282.66 487.681 282.32C487.711 282.27 487.721 282.2 487.751 282.13C487.781 281.24 487.291 280.58 486.621 280.13C483.401 277.98 480.671 275.08 476.941 273.7C476.631 273.6 476.351 273.5 476.041 273.41H476.031C475.611 273.28 475.201 273.18 474.781 273.11C474.561 273.09 474.331 273.07 474.121 273.03C473.871 273.02 473.631 273.02 473.361 273.03C473.251 273.05 473.141 273.06 473.031 273.07C472.661 273.12 472.661 273 473.031 273.03C473.401 273.05 473.021 272.72 473.261 272.91C473.271 272.92 473.281 272.92 473.291 272.93C473.381 272.9 473.471 272.86 473.551 272.85C474.211 272.65 474.891 272.63 475.581 272.64C475.881 272.63 476.161 272.64 476.451 272.67C477.061 272.72 477.651 272.87 478.231 273.07C478.231 273.07 478.238 273.07 478.251 273.07C478.691 273.22 479.101 273.41 479.511 273.63C480.511 274.12 481.281 274.91 482.101 275.63C485.911 278.91 490.081 281.8 494.851 283.27C499.351 284.65 502.861 287.07 505.941 290.46C507.831 292.52 509.641 294.64 511.471 296.75C512.101 297.47 512.671 298.29 513.561 298.65C513.681 298.7 513.811 298.75 513.961 298.77C514.061 298.8 514.161 298.82 514.261 298.84C515.321 298.69 516.771 298.97 516.201 297.05L516.121 297.06ZM258.301 332.48C264.601 333.28 270.971 333.09 277.281 333.64C280.651 333.94 283.871 334.43 287.381 333.85C289.261 333.54 291.951 334.96 294.521 334.82C287.751 350.67 283.051 367.04 277.831 383.22C276.501 387.32 274.831 391.09 272.551 394.7C269.631 399.34 267.391 404.33 266.531 409.78C266.281 411.42 265.521 411.44 264.361 411.36C258.881 411 253.401 411.15 247.911 411.36C245.041 411.47 242.211 412.37 239.111 411.84C244.201 398.56 245.151 384.45 247.051 370.58C248.641 358.98 250.981 347.53 252.711 335.95C252.931 334.54 256.601 332.24 258.301 332.46V332.48Z" fill="#383938"/>
<path d="M476.62 304.25C476.99 303.07 477.6 301.88 476.6 300.71C476.86 300.31 477.26 300.17 477.7 300.1C479.12 300.1 480.53 299.81 481.96 300.05C482.79 300.22 483.58 300.5 484.39 300.76C485.44 301.14 486.5 301.49 487.52 301.94C488.82 302.46 490.11 303.02 491.43 303.49C496.54 305.56 501.12 308.58 505.72 311.54C507.91 312.95 510.13 314.26 512.5 315.31C515.41 316.59 516.07 316.22 516.82 313.19C517.04 312.65 517.44 312.33 518.01 312.24C519.08 310.03 518.01 308.14 516.98 306.34C516.05 304.72 515.05 303.14 514.4 301.38C514.08 300.36 512.92 299.54 513.64 298.27C514.57 298.1 515.87 298.69 516.11 297.08C516.29 297 516.47 296.92 516.65 296.85C517.22 297.22 517.47 297.86 517.28 298.39C516.66 300.13 518.16 298.86 518.45 299.27C519.38 300.52 518.51 302.22 519.53 303.44C520.56 305.87 521.7 304.53 522.49 303.38C524.07 301.08 525.61 298.76 527.61 296.79C528.24 296.21 528.57 295.41 529.09 294.75C530.36 293.92 531 294.58 531.44 295.73C531.37 298.14 529.31 299.36 528.17 301.13C527.54 302.1 526.72 302.96 526.06 304.02C527.12 304.26 528.15 303.98 529.17 304.06C530.18 303.99 531.27 304.34 532.15 303.5C533.51 301.94 535.08 300.55 536.04 298.67C536.54 297.69 537 296.7 536.52 295.57C536.33 295.19 536.16 294.81 536.04 294.4C535.94 293.8 535.97 293.24 536.48 292.81C539.96 294.5 540.4 295.68 538.94 299.03C537.85 301.54 536.09 303.6 534.23 305.48C532.24 307.49 529.38 306.65 526.88 306.89C526.02 306.97 525.12 306.63 524.23 306.53C521.93 306.27 521.42 307.25 521.37 309.48C521.32 311.57 523.03 313.59 521.06 315.88C517.71 319.79 516.29 319.25 511.96 318.03C510.57 317.64 509.2 316.95 508.01 316.12C503.65 313.11 499.04 312.04 493.9 313.76C488.74 315.49 483.46 314.7 478.23 314.23C477.42 314.16 476.75 314.59 476 314.36C476 314.17 476 313.99 476 313.8C475.97 313.42 476.03 313.05 476.15 312.68C476.22 312.42 476.31 312.18 476.4 311.93C476.88 309.88 477.97 308.14 479.15 306.44C479.45 305.56 480.77 304.74 479.88 303.82C478.84 302.75 477.81 304.75 476.61 304.25H476.62Z" fill="#393838"/>
<path d="M208.331 327.7C208.931 328.06 209.571 328.06 210.211 328.02C210.391 328.01 210.561 328 210.731 327.99C210.991 327.98 211.251 327.98 211.501 328C213.271 328.4 214.691 327.21 216.321 326.94C216.461 326.91 216.611 326.9 216.761 326.89C217.141 328.09 217.261 329.29 216.781 330.49C216.751 330.5 216.701 330.52 216.671 330.53C212.841 332.09 208.901 331.5 204.971 331.06C204.641 331.03 204.381 330.83 204.221 330.54C204.131 330.39 204.071 330.22 204.031 330.03C204.611 329.67 205.291 329.38 205.731 328.9C206.131 328.46 206.151 327.71 205.581 327.32C205.101 326.99 204.671 327.44 204.321 327.78C203.581 328.52 203.021 330.25 201.821 328.21C201.941 328.08 202.061 327.95 202.201 327.81C205.691 324.12 209.751 321.01 212.701 317.37C211.921 317.52 210.571 318 209.151 318.12C208.801 318.16 208.451 318.22 208.111 318.3C207.711 318.38 207.331 318.49 206.971 318.62C204.961 319.29 203.331 320.56 201.961 322.37C200.621 324.16 199.261 325.94 197.521 327.35H197.511C197.171 327.64 196.821 327.9 196.461 328.14C195.421 328.13 194.371 328.12 193.341 328.11C193.221 327.9 193.151 327.7 193.121 327.53C193.011 326.82 193.501 326.27 193.991 325.76C196.021 323.62 197.731 321.2 199.571 318.9C199.701 318.75 199.861 318.59 200.011 318.46C200.141 318.34 200.271 318.24 200.411 318.14C200.731 317.89 201.071 317.67 201.401 317.44C200.991 317.45 200.591 317.49 200.191 317.55C200.031 317.57 199.861 317.6 199.701 317.64C199.541 317.66 199.381 317.69 199.231 317.74C199.031 317.78 198.821 317.83 198.631 317.88C198.561 317.89 198.511 317.91 198.441 317.92C197.791 317.99 197.161 318.01 196.661 317.57C196.581 317.49 196.511 317.42 196.441 317.33C196.661 316.27 195.971 315.67 195.271 315.1C198.231 314.99 201.151 314.81 204.141 315.44C205.871 315.81 207.851 315.25 209.681 314.89C211.491 314.54 213.231 314.71 214.991 315.08C215.251 316.84 216.811 316.91 218.041 317.41C217.901 317.61 217.741 317.81 217.591 318C215.151 321.16 212.201 323.83 209.391 326.64C209.051 326.97 208.561 327.16 208.351 327.7H208.331Z" fill="#3D3935"/>
<path d="M440.109 309.56C440.109 309.56 440.079 309.61 440.069 309.65C440.019 309.74 439.959 309.84 439.919 309.91C439.869 309.95 439.809 310.01 439.739 310.04C439.689 310.09 439.629 310.13 439.579 310.17C438.539 310.88 437.249 311.09 436.179 311.74C436.089 311.77 435.999 311.83 435.929 311.88C435.919 311.88 435.919 311.89 435.909 311.89C433.079 313.04 433.429 316.08 431.909 318.42C433.079 318.5 433.669 317.9 434.299 317.45C434.309 317.44 434.309 317.43 434.319 317.43C434.529 317.3 434.729 317.09 434.929 316.93C435.199 316.71 435.489 316.56 435.859 316.73C435.859 316.74 435.869 316.74 435.869 316.74C435.969 316.78 436.069 316.86 436.179 316.96C436.559 317.61 436.609 318.29 436.429 318.99C436.419 319.07 436.399 319.15 436.379 319.23C436.359 319.26 436.339 319.31 436.309 319.34C435.279 321.03 433.529 321.73 431.819 322.37C430.239 322.96 428.719 323.73 427.149 324.31C423.149 325.78 419.029 326.87 415.249 328.9C414.479 329.31 413.539 329.47 412.699 328.81C412.679 328.79 412.659 328.77 412.629 328.76C412.379 328.5 412.109 328.24 411.859 327.99C411.759 327.89 411.679 327.78 411.619 327.67C411.489 327.44 411.409 327.2 411.389 326.93H411.379C411.379 326.93 411.369 326.91 411.379 326.89C411.369 326.84 411.359 326.77 411.359 326.71C411.379 326.62 411.409 326.55 411.449 326.46C411.669 325.74 411.909 325.03 412.189 324.34L412.219 324.24C412.889 322.53 413.769 320.92 415.069 319.55C415.209 319.41 415.359 319.26 415.509 319.12C416.139 318.54 416.759 317.97 417.389 317.39C417.519 317.79 417.619 318.14 417.699 318.46C418.119 320.13 417.789 321.08 416.139 324.85C416.799 324.9 417.189 324.39 417.699 324.11C417.719 324.1 417.739 324.08 417.769 324.07C417.879 323.99 417.989 323.93 418.089 323.85C419.929 322.48 420.679 320.34 421.719 318.4C422.139 317.61 422.349 316.71 422.889 315.98C422.999 315.84 423.119 315.69 423.259 315.57C424.709 313.74 423.209 313.85 422.039 313.73C427.349 311.68 432.749 309.85 438.229 308.28C438.859 308.7 439.479 309.11 440.099 309.53L440.109 309.56Z" fill="#3D3835"/>
<path d="M518.571 299.44C517.021 299.24 517.711 301.19 516.391 301.59C516.491 299.91 516.571 298.37 516.661 296.82C522.081 294.12 528.151 293.79 533.871 292.16C534.301 292.04 534.821 292.24 535.301 292.3C536.121 292.76 536.221 293.28 535.451 293.89C533.971 294.46 532.941 296.04 531.111 295.87C530.671 295.21 530.381 294.18 529.311 295.19C528.891 295.65 528.351 295.9 527.741 296C524.331 296.21 521.631 298.3 518.571 299.44V299.44Z" fill="#383938"/>
<path d="M535.231 293.47C535.941 293.12 535.391 292.7 535.291 292.31C535.791 292.22 536.251 292.25 536.481 292.81C536.481 293.39 536.481 293.97 536.491 294.56C535.501 294.87 535.191 294.37 535.221 293.48L535.231 293.47Z" fill="#4D3D31"/>
<path d="M234.763 450.83C233.293 441.94 233.013 432.86 230.163 424.19C229.233 421.36 227.443 419.25 225.243 416.9C234.743 416.21 243.713 414.54 252.833 414.24C256.193 414.13 259.573 413.89 262.953 413.76C273.233 413.36 284.763 421.87 286.253 433.91C287.773 446.21 289.393 458.5 291.123 470.78C291.663 474.6 292.513 478.41 293.593 482.12C294.623 485.65 294.633 489.19 294.593 492.77C292.133 495.03 289.113 494.74 286.123 494.68C278.643 494.53 271.963 492 265.453 488.46C258.093 484.45 250.483 480.97 242.133 479.34C238.943 478.72 235.843 478.53 232.643 478.88C224.903 479.71 217.813 477.99 211.413 473.47C207.213 470.5 206.013 465.68 203.913 461.44C202.723 459.04 201.983 456.42 201.053 453.89C197.873 445.3 201.513 436.93 210.843 433.51C214.683 432.11 218.703 431.26 222.713 430.45C225.723 429.84 226.213 430.24 226.703 433.25C227.433 437.65 227.153 442.17 228.933 446.45C230.463 450.15 232.333 453.67 234.063 457.25C234.303 457.74 234.583 458.88 235.343 457.56C236.123 455.23 234.573 453.1 234.763 450.83V450.83Z" fill="#B2445B"/>
<path d="M282.03 396.95C287.15 399.49 292.65 399.59 298.18 399.41C301.45 399.85 304.65 399.31 307.86 398.84C310.24 398.49 312.62 398.27 314.87 399.44C318 401.07 318.75 403.06 317.41 406.33C316.99 407.35 316.55 408.37 315.88 409.23C312.25 413.83 311.66 418.33 316.2 422.72C317.53 425.42 320 426.5 322.71 426.96C327.43 427.76 332.17 428.28 336.97 427.49C340.03 426.98 343.14 427.34 346.22 427.27C348.86 427.18 351.5 427.33 354.14 427.31C354.66 427.31 355.18 427.38 355.68 427.49C358.48 427.86 361.11 427.03 363.87 426.3C361.43 424.7 358.75 424.36 355.95 424.16C346.14 423.44 336.33 424.38 326.53 424.19C325.14 424.16 323.71 424.33 322.4 423.81C320.59 423.09 319.25 422.02 320.35 419.78C321.86 419.78 323.31 419.54 324.54 418.56C325.13 417.86 325.83 417.32 326.73 417.08C334.14 415.11 341.52 413.11 349.28 412.87C354.39 412.71 358.51 414.97 362.73 417.22C363.17 417.45 363.56 417.77 364.05 417.91C367.12 420.41 369.73 423.38 373.08 425.63C377.11 428.33 377.11 433.11 377.78 437.4C377.95 438.47 377.79 439.59 377.78 440.68C366.02 448.84 354.49 457.32 340.18 460.87C335.68 461.99 331.65 461.7 327.34 460.36C313.94 456.19 304.68 447.14 297.29 435.69C293.45 429.74 289.21 424.08 284.16 419.09C281.59 416.55 278.65 414.48 275.45 412.85C273.62 411.92 272.88 410.59 272.86 408.57C272.8 403.05 277.03 397.61 282.02 396.97L282.03 396.95Z" fill="#626262"/>
<path d="M462.25 316.26C464.19 316.04 466.13 315.82 468.42 315.56C465.95 321.38 463.57 326.9 461.28 332.45C453.58 351.05 445.19 369.35 437.16 387.81C433.35 396.57 428.22 403.87 419.75 408.99C408.25 415.94 398.02 424.76 387.25 432.78C386.78 433.13 386.23 433.38 385.72 433.68C385.14 433.81 384.8 433.48 384.5 433.05C376.43 421.1 377.59 409.04 387.46 398.49C392.51 393.09 398.41 389.34 405.43 387.16C409.17 386 411.51 383.15 413.38 379.85C417.21 373.08 420.64 366.1 424.54 359.37C431.22 347.87 438.87 337.04 448.03 327.38C451.3 323.93 454.95 320.78 458.74 317.84C459.8 317.02 461.01 316.65 462.24 316.26H462.25Z" fill="#F2C8B4"/>
<path d="M235.949 457.5C235.719 458.39 236.509 459.83 235.279 460.09C234.129 460.33 233.919 458.84 233.519 458C231.679 454.14 229.719 450.36 228.039 446.41C226.099 441.84 226.649 437.03 225.799 432.38C225.599 431.26 225.439 430.8 224.209 431.06C217.749 432.46 210.999 433.07 205.579 437.38C201.499 440.62 199.919 445.18 200.939 450.14C202.389 457.17 205.319 463.77 209.009 469.91C211.189 473.53 215.069 475.32 218.979 476.55C223.819 478.07 228.699 478.64 233.899 477.96C240.619 477.08 247.029 479.38 253.249 481.79C260.189 484.48 266.499 488.56 273.369 491.34C280.169 494.09 287.339 494.91 294.589 492.78C295.129 498.93 292.909 504.51 290.979 510.15C290.389 510.64 290.219 511.39 289.829 512C286.709 516.49 282.309 515.57 278.009 514.68C274.429 513.94 271.279 512.19 268.699 509.63C264.869 505.82 260.069 504.6 254.939 504.18C253.459 504.06 251.869 503.7 250.529 503.84C244.319 504.52 240.059 501 235.669 497.58C231.479 494.31 226.729 491.91 221.749 490.36C216.869 488.84 211.709 488.19 206.619 487.44C200.079 486.48 193.799 485.08 188.979 480.07C188.239 479.3 187.029 478.47 188.219 477.39C191.749 474.19 191.719 470.04 191.589 465.83C192.679 465.4 192.719 465.36 193.339 466.04C194.309 467.1 195.149 468.32 197.049 469.01C196.289 466.82 194.439 465.83 194.029 464.01C194.029 463.82 194.019 463.63 193.979 463.45C192.109 462.12 192.229 459.92 191.619 458.04C191.619 451.28 191.829 444.5 191.539 437.75C191.249 430.94 190.469 424.16 189.919 417.36C189.869 416.78 189.719 415.97 190.019 415.65C190.629 415.01 191.219 415.79 191.799 416.07C193.119 416.72 194.449 417.34 195.779 417.97C196.349 418.42 197.109 418.56 197.609 419.12C205.849 422.5 214.119 425.78 223.039 426.96C223.709 427.05 224.559 427.27 225.049 426.97C228.609 424.87 228.739 427.48 229.219 429.84C230.219 434.7 229.869 439.7 230.989 444.56C231.579 447.13 232.449 449.45 234.049 451.52C235.729 453.18 235.169 455.55 235.939 457.5H235.949Z" fill="#863E4C"/>
<path d="M290.33 354.99C292.04 347.8 294.67 340.91 298.45 334.63C300.78 330.77 304.91 328.34 309.26 327.15C328.18 321.99 347.03 316.63 365.31 309.44C366.6 308.93 367.52 308.78 368.36 310.04C368.7 310.55 369.26 310.71 369.9 310.8C375.87 311.6 376.16 312.01 375.31 317.97C375.69 320.74 374.07 322.04 371.83 323.15C366.93 325.59 362.07 328.16 357.51 331.2C348.93 336.92 339.43 340.88 330.32 345.58C326.64 347.48 324.57 350.04 323.89 353.9C322.77 360.28 321.08 366.54 319.97 372.92C318.56 380.98 313.82 385.57 305.98 387.29C301.74 388.22 298.64 387.24 296.5 383.5C291.46 374.68 288.3 365.37 290.33 354.98V354.99Z" fill="#F2C8B4"/>
<path d="M133.54 304.24C131.66 303.77 129.78 303.29 127.68 302.76C129.4 300.77 131.09 299.33 133.79 299.36C135.03 299.37 136.39 299.02 137.5 298.45C143.87 295.16 151.24 296.69 155.45 302.47C159.32 307.77 162.79 313.32 166.15 318.95C168.25 322.46 171.63 324.99 174.44 327.94C187.01 341.16 198.9 354.98 210.58 368.98C211.82 370.47 212.26 372.29 212.78 374.11C215.98 385.3 217.18 396.87 219.26 408.27C219.59 410.64 217.76 410.4 216.57 410.13C212.54 409.22 208.72 407.76 206.25 404.12C202.48 398.56 199.8 392.43 197.2 386.28C193.26 376.97 187.47 368.93 180.59 361.61C175.07 355.74 169.08 350.27 164.9 343.26C163.11 340.25 161.14 337.38 158.99 334.63C156.5 331.44 153.56 328.81 149.69 327.39C148.75 327.05 147.89 326.54 146.99 326.1C144.69 324.94 143.8 323.21 144.69 320.69C145.23 319.17 145.45 317.59 145.57 316C145.96 310.65 143.75 307.29 138.69 305.45C137.01 304.84 135.33 304.25 133.51 304.23L133.54 304.24Z" fill="#F2C8B4"/>
<path d="M462.252 316.26C448.002 326.34 437.642 339.85 428.442 354.4C423.162 362.75 418.902 371.65 414.062 380.24C411.822 384.21 408.782 386.87 404.292 388.39C391.962 392.54 383.802 400.99 380.002 413.52C379.032 416.73 379.772 419.89 380.702 422.89C381.882 426.68 383.812 430.19 385.722 433.67C384.202 434.91 382.682 436.15 381.102 437.44C379.942 435.34 380.252 433.17 379.792 431.15C378.882 427.13 376.832 424.12 373.352 421.9C369.712 419.58 366.372 416.88 365.102 412.45C364.312 409.69 364.982 406.43 361.952 404.45C361.152 403.92 362.372 403.36 362.872 403.03C370.132 398.15 377.312 393.13 385.142 389.15C390.612 386.36 395.842 383.04 401.832 381.35C402.842 381.07 403.162 380.15 403.432 379.33C406.902 368.89 413.212 360.23 420.652 352.38C428.332 344.26 433.892 334.77 439.232 325.09C440.522 322.74 442.252 320.64 443.142 318.07C443.892 316.48 445.342 317.21 446.492 317.15C447.952 317.08 449.332 316.44 450.812 316.65C452.812 316.74 454.812 316.85 456.812 316.67C457.092 316.55 457.362 316.41 457.622 316.24C459.172 316.06 460.722 315.83 462.262 316.26H462.252Z" fill="#C8977F"/>
<path d="M282.032 396.95C279.122 398.34 276.692 400.26 274.992 403.07C272.482 407.23 273.332 410.59 277.362 412.96C282.812 416.17 287.052 420.67 291.012 425.58C297.232 433.29 301.592 442.42 309.212 449.04C316.792 455.63 325.212 460.64 335.472 460.91C340.462 461.04 345.252 458.74 349.832 456.73C357.092 453.55 364.232 450.16 370.182 444.65C372.262 442.72 374.992 441.51 377.792 440.68C377.842 442.66 377.662 444.66 378.432 446.58C379.182 448.45 377.622 449.05 376.482 449.72C370.992 452.93 365.442 456.06 359.532 458.41C356.692 459.54 354.152 461.05 351.902 462.98C339.282 473.8 324.202 479.07 308.322 482.61C307.752 482.74 307.182 482.88 306.242 483.1C307.722 479.92 309.202 477.03 309.652 473.68C310.432 467.84 309.272 462.42 306.722 457.29C303.032 449.88 298.082 443.26 293.172 436.64C290.752 433.37 288.652 430.06 287.122 426.18C284.422 419.37 279.062 414.84 272.002 412.8C269.412 412.05 269.002 410.78 269.502 408.66C270.792 403.19 273.602 398.35 276.052 393.37C276.562 392.34 277.112 392.43 277.872 393.16C279.222 394.47 280.632 395.7 282.022 396.97L282.032 396.95Z" fill="#515151"/>
<path d="M133.539 304.24C140.779 302.78 147.479 308.95 146.429 316.13C146.189 317.79 146.009 319.53 145.379 321.05C144.469 323.25 145.339 324.36 147.139 325.38C149.969 326.98 153.139 327.75 155.729 330.06C159.299 333.24 162.089 336.97 164.359 340.99C167.739 346.98 172.219 352.03 177.009 356.76C186.909 366.56 194.899 377.49 199.909 390.58C201.539 394.83 203.849 398.83 206.179 402.79C208.469 406.67 212.189 408.15 216.099 409.37C217.179 409.71 218.759 410.16 219.279 408.26C220.209 412.9 221.149 417.54 222.069 422.18C222.449 424.11 221.039 423.47 220.249 423.29C212.899 421.59 205.579 419.75 198.669 416.62C195.879 415.36 192.929 414.41 190.429 412.55C189.659 411.24 190.679 409.66 189.799 408.38C188.669 403.01 189.509 397.56 189.199 392.16C189.109 390.51 189.589 388.79 188.729 387.21C187.879 385.9 188.739 384.34 188.119 383C186.699 378.22 183.559 374.43 180.719 370.51C172.259 358.85 163.699 347.27 156.159 334.98C154.269 331.9 151.629 330.25 148.379 329.49C144.629 328.62 140.869 327.89 136.899 328.62C132.869 329.36 128.969 328.67 125.779 325.73C124.819 324.28 126.619 324.5 126.929 323.82C129.129 322.85 131.429 323.39 133.679 323.5C137.629 323.69 142.169 319.9 142.549 315.93C143.129 309.87 141.709 307.55 135.989 305.22C135.179 304.89 134.369 304.55 133.559 304.22L133.539 304.24Z" fill="#C89780"/>
<path d="M290.333 354.99C290.053 363.99 291.533 372.61 295.723 380.67C299.023 387.02 301.433 387.76 308.233 385.82C316.353 383.5 318.263 377.21 319.803 370.12C321.263 363.44 322.003 356.6 324.253 350.1C324.963 348.06 326.293 346.71 328.163 345.84C342.353 339.23 355.863 331.39 369.343 323.48C371.773 322.06 374.883 321.52 375.303 317.97C375.623 319.37 376.493 320.42 377.663 321.51C370.163 325.42 362.903 329.64 356.703 335.16C348.603 342.37 339.613 347.69 329.333 350.96C328.063 351.77 328.693 353.63 327.413 354.44C327.043 354.85 327.063 355.28 327.323 355.73C327.423 356.09 327.493 356.46 327.513 356.84C327.563 361.11 327.513 365.38 327.533 369.65C327.533 370.84 327.553 372.04 326.973 373.14C327.173 375.65 326.323 378.05 326.133 380.52C325.973 382.64 324.793 383.96 323.053 385.23C315.823 390.48 308.323 395.05 299.203 396.11C292.553 396.88 286.083 396.79 280.603 392.04C278.863 390.53 278.063 389.04 278.963 386.61C282.843 376.11 286.553 365.54 290.333 355V354.99Z" fill="#C89780"/>
<path d="M140.191 550.18C138.551 543.9 135.561 538.12 133.381 532.04C133.151 531.41 132.931 530.65 132.081 530.56C131.141 530.46 130.551 531.14 130.221 531.83C129.551 533.23 129.041 534.7 128.291 536.6C126.741 533.67 126.181 530.89 125.661 528.1C124.771 526.11 125.121 524.12 125.681 522.13C126.261 516.29 128.491 510.87 129.921 505.25C130.211 504.11 130.721 503.01 130.581 501.79C130.971 501.32 130.841 500.7 131.061 500.18C131.211 497.73 131.241 495.28 131.041 492.83C130.921 492.57 130.771 492.32 130.601 492.09C130.011 488.42 127.701 485.61 125.801 482.61C125.171 481.92 124.561 481.23 124.611 480.21C120.871 470.95 124.661 462.88 128.631 454.85C129.621 452.85 130.281 454.93 131.091 455.17C134.241 460.02 135.261 465.32 135.161 471.08C135.091 475.19 136.791 479.11 138.571 482.77C142.761 491.35 143.131 500.39 142.441 509.62C142.041 515 141.791 520.42 142.461 525.75C143.361 532.97 142.141 540.08 142.061 547.24C142.051 548.43 141.901 549.91 140.191 550.2V550.18Z" fill="#BC6F20"/>
<path d="M136.571 449.05L135.331 447.88C134.241 447.32 133.521 446.42 133.021 445.33C131.961 442.35 130.861 439.38 129.831 436.39C126.241 426 128.501 417 135.991 409.03C139.521 405.27 143.711 402.54 148.201 400.23C153.081 397.72 158.321 398.33 163.771 399.01C162.771 400.27 161.931 401.34 161.091 402.4C160.351 403.26 161.221 404.46 160.481 405.33C159.281 406.74 158.081 408.15 156.881 409.56C154.271 413.42 153.811 417.88 153.621 422.32C153.221 431.67 149.271 439.26 142.711 445.68C141.681 446.48 140.731 447.38 139.781 448.27C138.801 448.91 137.831 449.59 136.571 449.05V449.05Z" fill="#BC6F21"/>
<path d="M249.741 339.58C247.651 352.52 245.521 365.46 243.481 378.41C242.911 382.04 242.351 385.7 242.201 389.36C241.921 395.83 239.981 401.83 237.631 407.75C233.931 408 231.941 405.4 230.071 402.93C228.181 400.43 227.411 397.42 227.311 394.25C226.871 379.94 228.311 365.84 232.141 352.04C234.281 344.35 239.491 339.73 247.311 338.14C248.371 337.92 250.111 337.16 249.741 339.59V339.58Z" fill="#F2C8B4"/>
<path d="M140.191 550.18C141.311 548.75 141.161 547.05 141.351 545.38C142.581 534.85 141.131 524.33 141.331 513.81C141.441 508.17 142.061 502.59 141.501 496.89C141.061 492.43 140.081 488.29 138.271 484.3C135.661 478.55 133.601 472.71 134.121 466.24C134.341 463.56 133.181 461.19 132.111 458.84C131.571 457.65 131.031 456.49 131.091 455.15C133.481 457.3 135.831 459.51 138.301 461.58C139.061 462.22 139.671 462.83 139.481 463.78C138.321 469.54 141.741 473.42 144.841 477.55C148.381 482.26 150.521 487.7 152.121 493.34C153.021 495.76 153.001 498.19 152.131 500.61C152.021 503.65 150.231 506.21 149.711 509.13C149.011 513.04 148.701 516.97 149.751 520.92C149.351 520.92 149.121 520.99 149.021 520.91C148.171 520.21 147.961 518.29 146.501 518.9C145.131 519.47 145.951 520.98 146.071 522.12C146.741 528.31 148.121 534.44 147.891 540.71C147.591 549.06 145.341 556.92 141.721 564.41C141.571 564.73 141.331 565.01 140.881 565.69C140.401 560.2 141.361 555.14 140.171 550.19L140.191 550.18Z" fill="#8C5A2B"/>
<path d="M136.57 449.05C137.56 448.66 138.54 448.26 139.53 447.87C140.54 447.28 141.33 446.48 141.94 445.49C144.92 442.3 147.62 438.92 149.72 435.07C152.56 429.86 152.47 424.04 153.31 418.41C153.79 415.17 154.38 411.98 156.89 409.56C155.26 414.27 153.99 418.87 155.54 424.03C156.35 426.74 158.24 428.37 159.65 430.46C160.48 431.69 160.78 432.33 159.31 433.28C156.12 435.34 156.07 438.72 159.22 440.91C161 442.15 162.96 443.17 164.95 444.04C168.6 445.63 172.2 447.18 174.2 450.99C174.82 452.17 176.32 452.36 177.68 453.07C174.56 456.51 170.2 457.68 166.49 459.88C165.99 460.45 165.24 460.6 164.65 461.03C162.24 461.31 159.89 460.86 157.59 460.31C156.28 460 155.09 459.84 153.83 460.37C151.06 461.54 148.63 460.53 146.82 458.61C143.71 455.29 140.43 452.21 136.69 449.63C136.57 449.55 136.61 449.26 136.57 449.06V449.05Z" fill="#8D5A2A"/>
<path d="M163.36 403.56C163.31 401.96 164.12 401.15 165.69 401.13C172.4 401.04 178.94 401.84 184.95 405.09C185.87 405.59 186.9 406.05 186.83 407.49C186.49 414.97 187.84 422.41 187.36 429.89C185.05 432.11 182.06 431.91 179.22 432.08C174.68 432.35 170.36 431.61 166.36 429.2C161.31 426.17 160.05 421.51 160.6 416.17C160.92 413.02 161.86 409.94 163.13 407.02C163.64 405.85 163.73 404.75 163.36 403.56Z" fill="#F2C8B4"/>
<path d="M249.742 339.58C249.602 339 249.542 338.42 248.652 338.56C241.022 339.79 234.852 344.9 232.932 352.17C229.322 365.79 227.802 379.62 228.152 393.7C228.322 400.52 231.392 405.15 237.632 407.75C237.272 408.57 236.912 409.4 236.552 410.22C235.792 410.83 236.612 411.86 235.942 412.5C232.232 413.1 228.512 413.71 224.802 414.3C224.042 414.42 223.422 414.28 223.262 413.35C222.332 407.68 220.952 402.03 220.632 396.32C220.452 393.1 221.922 389.74 222.842 386.5C226.332 374.17 227.872 361.44 230.532 348.94C231.422 344.77 232.162 340.58 232.972 336.4C233.322 334.61 234.472 334.72 235.912 334.96C240.782 335.78 245.672 336.61 250.962 335.45C250.242 336.95 250.712 338.42 249.742 339.57V339.58Z" fill="#C79980"/>
<path d="M163.359 403.56C164.689 404.73 164.039 406.08 163.699 407.39C163.029 409.97 162.179 412.52 161.659 415.13C159.669 425.18 165.909 429.85 174.219 431.09C178.669 431.76 183.059 431.13 187.359 429.88C188.479 434.79 187.879 439.8 188.169 444.76C188.259 446.34 184.299 447.36 182.239 446.3C181.359 445.85 180.619 445.13 179.739 444.68C178.629 444.1 177.489 443.42 176.339 444.81C175.449 445.89 173.859 445.88 173.029 445.26C169.889 442.91 165.979 442.36 162.669 440.48C161.989 440.09 161.359 439.56 160.799 439C159.429 437.64 158.949 436.22 161.299 435.49C163.409 434.84 163.459 433.59 162.659 431.98C162.039 430.74 161.409 429.49 160.609 428.37C155.489 421.19 155.899 413.52 162.009 407.19C163.129 406.03 162.629 404.64 163.369 403.54L163.359 403.56Z" fill="#C89780"/>
<path d="M307.231 474.18C306.221 476.54 305.451 478.99 304.481 481.37C303.251 484.41 300.641 484.07 298.381 484.58C297.161 484.85 297.621 483.48 297.451 482.87C294.861 473.36 293.631 463.6 292.231 453.88C291.441 448.41 290.791 442.91 290.391 437.31C297.061 446.68 304.791 455.39 307.111 467.16C307.701 469.5 307.541 471.84 307.211 474.19L307.231 474.18Z" fill="#C7997F"/>
<path d="M320.369 419.78C320.339 422.31 321.719 423.41 324.109 423.32C330.249 423.07 336.399 423.18 342.549 422.97C349.099 422.74 355.819 422.66 362.329 424.28C363.099 424.47 363.849 424.76 364.559 425.1C365.149 425.39 366.129 425.52 366.089 426.3C366.039 427.26 365.019 427.38 364.269 427.48C361.419 427.88 358.609 428.94 355.669 428.12C355.169 427.36 354.159 426.977 352.639 426.97C353.189 427.17 354.459 426.5 354.479 428.11C351.679 428.11 348.869 428.1 346.069 428.09C342.539 426.53 338.719 426.83 335.029 426.62C331.369 426.41 327.749 425.82 324.099 425.72C320.899 425.63 318.399 423.72 315.549 422.75C310.919 417.23 310.829 415.5 314.769 409.51C315.369 408.6 315.839 407.61 316.409 406.69C318.969 402.58 316.419 400.16 312.099 399.41C309.419 398.95 306.789 399.84 304.159 400.18C302.019 400.46 300.139 400.06 298.199 399.41C309.279 398.38 318.179 392.64 326.999 386.25C326.339 388.5 325.779 390.79 324.989 393C324.139 395.38 323.559 397.69 324.309 400.24C324.719 401.64 324.149 403.08 323.119 404.03C321.189 405.81 319.899 408.04 318.319 410.07C314.359 415.16 314.699 416.84 320.379 419.77L320.369 419.78Z" fill="#515151"/>
<path d="M474.801 300.48C472.991 300.82 471.701 300.5 470.791 298.55C469.451 295.69 466.421 295.83 463.851 295.36C460.431 294.73 459.191 292.87 460.421 289.54C461.511 286.59 462.741 283.68 464.091 280.85C466.831 275.12 473.171 273.51 478.461 277.17C480.731 278.74 482.891 280.49 485.091 282.16C485.601 283.16 484.961 283.88 484.441 284.59C481.051 289.16 477.661 293.72 476.051 299.3C475.881 299.9 475.411 300.3 474.791 300.48H474.801Z" fill="white"/>
<path d="M364.062 417.91C362.742 419.1 361.732 417.78 360.962 417.23C354.832 412.86 348.092 413.37 341.222 414.46C335.542 415.36 330.102 417.16 324.552 418.56C324.282 416.88 322.942 417.47 321.952 417.35C318.712 416.97 318.022 415.53 319.862 412.93C321.532 410.57 323.182 409.34 326.702 409.89C331.542 410.64 336.442 408.92 341.302 407.93C346.892 406.78 352.562 405.63 358.352 405.97C360.042 406.07 361.492 406.81 361.512 408.51C361.552 411.91 362.912 414.86 364.052 417.91H364.062Z" fill="#515151"/>
<path d="M243.112 313.29C246.082 313.49 249.052 313.59 252.002 313.92C253.632 314.11 254.962 315.03 255.662 316.64C257.352 320.5 258.502 324.44 257.362 328.7C253.482 331.93 248.922 331.64 244.342 331.16C243.642 331.09 243.022 330.75 242.452 330.33C238.492 327.43 237.712 318.1 241.112 314.55C241.682 313.95 242.402 313.65 243.102 313.28L243.112 313.29Z" fill="#F2C8B4"/>
<path d="M389.659 305.27C390.019 308.7 391.309 311.99 391.009 315.52C390.779 318.18 390.319 320.77 387.689 322.04C385.479 323.1 380.06 321.35 378.42 319.52C377.46 318.45 377.649 317.32 377.839 316.17C378.539 311.94 376.959 309.44 372.859 308.44C367.929 307.24 367.839 307.08 369.499 302.44C370.409 301.75 371.199 302.33 371.989 302.7C376.709 304.9 381.619 305.75 386.779 304.86C387.799 304.69 388.749 304.75 389.659 305.27V305.27Z" fill="#FEFEFF"/>
<path d="M243.111 313.29C238.331 318.43 239.021 322.41 241.681 328.27C242.321 329.69 243.461 330.52 244.941 330.48C248.851 330.38 252.921 331.32 256.491 328.81C256.701 328.66 257.071 328.73 257.371 328.69C255.921 331.26 253.231 332.04 250.761 332.77C246.811 333.94 242.751 333.72 238.771 332.52C238.201 332.35 237.621 332.24 237.041 332.1C230.641 330.61 229.021 328.4 229.691 322.01C230.191 317.2 234.581 313.3 239.531 313.26C240.721 313.26 241.911 313.27 243.101 313.28L243.111 313.29Z" fill="#C69880"/>
<path d="M374.623 281.62C374.713 276.68 376.113 271.92 376.643 267.04C376.683 266.66 376.793 266.27 376.963 265.92C377.423 264.97 377.573 263.45 378.623 263.34C379.603 263.23 380.373 264.48 381.043 265.32C384.573 269.71 384.783 275.25 386.163 280.39C386.463 281.51 386.553 282.7 386.743 283.85C383.093 285.78 379.463 284.42 375.853 283.71C374.933 283.53 374.483 282.65 374.623 281.63V281.62Z" fill="#FEFEFE"/>
<path d="M132.431 307.75C132.601 307.75 132.781 307.79 132.941 307.83C133.841 309.22 133.511 310.61 132.961 312.01C129.711 319.55 121.281 321.86 113.761 320.92C112.291 320.74 113.321 320.11 113.781 319.7C116.821 315.98 119.241 311.71 123.431 309.02C124.881 308.88 125.961 307.56 127.511 307.76C129.151 306.94 130.791 306.96 132.431 307.75Z" fill="#8C5A2A"/>
<path d="M188.002 462.33C185.982 459.75 183.052 458.82 180.072 458.09C178.422 457.69 177.512 457.39 178.932 455.51C180.452 453.49 180.032 451.61 177.582 450.48C176.492 449.97 175.592 449.27 174.992 448.22C176.982 446.6 178.792 445.96 180.822 448.13C182.372 449.79 184.602 449.47 186.452 448.94C188.482 448.37 188.542 449.19 188.602 450.73C188.732 453.78 188.042 456.89 189.302 459.85C189.872 460.64 189.872 461.44 189.332 462.24L189.302 462.86C189.352 463.15 189.242 463.48 188.972 463.48C188.262 463.48 188.462 462.61 188.002 462.33V462.33Z" fill="#C6987F"/>
<path d="M513.65 298.25C514.08 299.24 514.5 300.22 514.93 301.21C515.34 301.94 515.42 302.62 514.68 303.2C513.03 303.39 512.52 301.97 511.79 301C509.21 297.6 506.82 294.07 503.6 291.18C502.18 289.91 500.74 288.73 499.04 287.87C496.51 286.77 494.03 285.56 491.34 284.82C489.73 284.37 488.1 283.79 487.45 281.97C484.02 279.12 480.59 276.26 476.58 274.23C475.81 272.74 473.46 274.37 472.93 272.4C473.65 271.62 474.56 271.98 475.42 271.97C476.79 272.56 478.27 272.69 479.7 273.03C482.43 274.3 484.18 276.84 486.78 278.35C490.64 280.61 494.45 282.86 498.87 283.9C500.75 284.34 502.11 285.71 503.47 287.03C507.1 290.56 510.34 294.43 513.64 298.26L513.65 298.25Z" fill="#AF445B"/>
<path d="M389.66 305.27C382.58 306.88 375.85 306.02 369.5 302.44C370.21 301.07 369.82 299.22 371.32 298.19C372.06 297.65 372.87 297.79 373.61 298.07C377.6 299.59 381.74 299.93 385.96 299.79C386.85 299.76 387.76 299.85 388.48 300.51C389.56 301.93 388.84 303.79 389.65 305.27H389.66Z" fill="#B2455B"/>
<path d="M112.521 318.54C109.721 320.06 106.691 319.89 103.661 319.76C101.741 318.65 101.771 318.21 103.881 316.49C107.821 315.02 111.321 312.91 114.161 309.72C115.381 308.35 115.391 307.44 113.761 306.58C114.561 305.67 115.621 305.38 116.781 305.38C118.641 304.42 120.631 304.91 122.571 304.87C122.901 304.92 123.201 305.05 123.461 305.27C123.731 305.74 123.731 306.19 123.381 306.63C122.981 307.03 122.581 307.42 122.181 307.82C119.031 311.46 116.701 315.84 112.521 318.54V318.54Z" fill="#8C5A2B"/>
<path d="M474.801 300.48C476.541 293.42 481.171 287.99 485.091 282.15C485.441 282.33 485.791 282.5 486.141 282.68C487.031 283.25 488.621 282.79 488.781 284.46C485.851 289.75 481.961 294.43 479.021 299.71C478.771 300.15 478.321 300.4 477.861 300.6C477.441 300.63 477.031 300.66 476.611 300.7C476.011 300.63 475.411 300.56 474.811 300.48H474.801Z" fill="#B1465C"/>
<path d="M58.6914 315.61C62.8914 312.01 65.0014 306.22 70.6814 304.17C72.6114 303.27 74.5714 303.48 76.5514 303.96C77.0214 304.41 77.0614 304.9 76.7114 305.44C73.1114 310.06 68.0514 312.68 63.0214 315.32C61.6514 316.04 60.1714 316.11 58.6914 315.61V315.61Z" fill="#BA6E23"/>
<path d="M372.883 291.05C373.163 289.48 373.433 287.91 373.713 286.35C377.413 286.36 381.013 287.87 384.783 287.07C385.633 286.89 386.553 286.75 387.283 287.5C387.493 289.05 387.713 290.61 387.923 292.16C387.403 293.55 386.203 293.63 385.003 293.64C382.543 293.68 380.093 293.74 377.633 293.59C375.913 293.01 373.653 293.42 372.883 291.05V291.05Z" fill="#FEFCFD"/>
<path d="M126.551 321.55C131.511 318.6 135.071 315.18 136.581 310.04C136.891 308.98 137.351 309.15 138.071 309.62C140.361 311.15 140.491 313.38 139.951 315.7C139.311 318.47 135.321 321.49 132.451 321.54C130.661 321.57 128.881 321.54 126.561 321.54L126.551 321.55Z" fill="#8A592C"/>
<path d="M465.861 301.25C462.731 302.23 459.551 302.96 456.261 303.12C455.861 303.4 455.431 303.56 454.941 303.55C454.341 303.39 453.641 303.33 453.851 302.4C456.051 300.16 456.631 297.03 458.351 294.27C459.621 297.07 461.641 298.09 464.661 297.42C466.821 296.94 468.371 298.19 469.441 300.02C469.631 300.96 468.931 300.83 468.391 300.91C467.551 301.04 466.641 300.6 465.871 301.25H465.861Z" fill="#C6977F"/>
<path d="M189.21 465.27C189.26 468.15 189.5 471.06 187.99 473.7C186.84 475.72 185.62 475.8 184.57 473.75C182.85 470.44 182.52 466.75 182.11 463.12C181.95 461.72 182.74 461.7 183.78 462.2C184.76 462.67 185.78 463.05 186.78 463.47C187.55 464.13 188.69 464.28 189.22 465.26L189.21 465.27Z" fill="#843E4B"/>
<path d="M372.881 291.05C374.031 292.39 375.881 292.08 377.261 292.87C380.771 293.66 384.381 292.61 387.891 293.44C387.891 294.27 387.891 295.1 387.891 295.93C383.291 298.68 378.461 299.15 373.421 297.38C372.661 297.11 372.021 296.64 371.801 295.78C372.161 294.2 372.521 292.62 372.881 291.04V291.05Z" fill="#B1465C"/>
<path d="M290.929 320.88C292.609 319.79 294.129 321.65 295.839 320.89C294.389 326.91 285.239 333.77 281.039 331.92C284.019 328.96 284.899 324.5 288.579 322.12C289.499 324.46 287.129 325.49 286.819 326.98C288.079 325.16 290.649 323.81 290.929 320.88V320.88Z" fill="#8A5A2B"/>
<path d="M279.062 330.57C277.862 331.77 272.532 332.19 271.432 331.23C270.862 330.74 271.202 330.44 271.462 330.02C274.532 325.16 279.022 322.41 285.152 320.76C284.072 323.91 282.172 325.88 280.822 328.16C279.902 328.72 279.042 329.33 279.052 330.57H279.062Z" fill="#8D5928"/>
<path d="M86.4208 312.67C87.7908 312.14 88.6108 310.95 89.2808 309.82C91.4608 306.18 94.9308 305.24 98.7608 304.89C97.7008 308.33 94.7108 310.3 92.5808 312.91C90.7308 315.18 88.3508 316.8 85.4508 317.53C84.4908 317.77 83.5408 318.18 82.5908 317.53C82.3908 317.26 82.3708 316.98 82.5408 316.69C82.9908 316.16 83.4408 315.63 83.9008 315.09C84.4908 314.02 85.2508 313.14 86.4208 312.68V312.67Z" fill="#BA6E23"/>
<path d="M87.9909 304.29C89.1809 304.34 91.2009 303.72 89.1109 306.03C87.6109 307.68 86.3809 309.57 85.0309 311.35C84.5609 312.5 83.7709 313.32 82.6009 313.76C81.3809 313.86 80.7409 314.85 79.9709 315.58C77.4309 317.973 74.5109 318.39 71.2109 316.83C71.2909 316.38 71.5409 316.05 71.9009 315.78C77.1909 313.9 81.3809 310.45 85.1409 306.41C85.9609 305.53 86.9009 304.8 87.9909 304.29V304.29Z" fill="#8C592C"/>
<path d="M216.742 326.88C215.242 328.33 213.542 329.18 211.392 328.72C209.222 328.05 210.172 326.97 211.082 326C213.772 323.14 216.722 320.53 219.222 317.48H224.562C221.892 320.68 219.322 323.78 216.742 326.87V326.88Z" fill="#B96D22"/>
<path d="M87.9902 304.29C83.4102 309.33 78.9502 314.52 71.8802 316.19C71.5602 315.8 71.5202 315.4 71.8802 315.01C74.6002 312.72 77.1802 310.32 79.3902 307.47C81.4902 304.76 84.7702 304.41 87.9902 304.29V304.29Z" fill="#B96E23"/>
<path d="M387.281 287.49C382.661 288.3 378.081 288.58 373.711 286.34C374.011 284.76 374.321 283.18 374.621 281.61C374.711 282.94 375.711 283.07 376.721 283.21C380.051 283.67 383.371 284.06 386.741 283.84C386.921 285.06 387.101 286.28 387.281 287.5V287.49Z" fill="#B1475D"/>
<path d="M371.8 295.79C375.97 298.17 380.31 297.93 384.74 296.67C385.78 296.37 386.85 296.18 387.9 295.94C388.18 297.45 388.91 298.91 388.49 300.51C382.58 301.13 376.84 300.51 371.33 298.19C371.26 297.34 370.91 296.44 371.8 295.79Z" fill="#FCFAFB"/>
<path d="M302.362 321.05C303.232 321.2 304.112 321.28 304.962 321.51C305.852 321.75 307.232 321.02 307.562 322.28C307.882 323.52 306.852 324.69 305.972 325.26C302.412 327.54 298.592 329.36 295.612 332.55C294.582 333.65 292.572 332.88 291.002 332.87C290.722 332.26 291.042 331.78 291.362 331.31C293.392 329.61 295.882 328.56 297.852 326.75C299.672 325.09 301.572 323.51 302.362 321.05V321.05Z" fill="#8B5A2C"/>
<path d="M101.25 307.82C102.95 306.96 104.65 306.09 106.61 306C107.37 307.13 106.59 307.92 105.91 308.58C103.83 310.59 102.22 312.96 100.42 315.19C98.8198 317.17 97.0198 319.09 94.0298 318.6C92.0998 318.56 92.0198 317.91 93.3198 316.63C95.2498 314.73 97.3998 312.99 98.2698 310.26C98.8998 308.99 100.03 308.34 101.27 307.82H101.25Z" fill="#B86E24"/>
<path d="M131.119 446.73C133.379 451.57 138.199 453.67 141.659 457.17C142.359 457.88 143.299 458.55 142.869 459.54C142.319 460.8 141.009 460.29 140.249 459.85C136.149 457.49 133.009 454.04 130.229 450.29C129.429 449.21 130.459 448.02 131.119 446.73V446.73Z" fill="#F28C22"/>
<path d="M208.999 317.42C210.569 317.3 212.069 316.46 213.789 317C210.189 321.18 206.599 325.34 201.799 328.21C201.209 328.18 200.619 328.14 200.039 328.1C199.619 327.7 199.569 327.17 199.879 326.77C202.549 323.29 204.739 319.35 208.999 317.42V317.42Z" fill="#B86E27"/>
<path d="M94.0195 318.59C96.1195 318.14 98.0395 317.19 99.2095 315.42C101.42 312.06 104.69 309.56 106.61 305.99C107.93 305.43 109.31 304.43 110.19 306.57C106.74 310.92 103.42 315.38 100.02 319.76C97.9395 319.77 95.9195 319.48 94.0195 318.58V318.59Z" fill="#8C592B"/>
<path d="M58.6914 315.61C62.6714 315.45 65.7314 313.16 68.8614 311.1C71.5514 309.33 74.1014 307.34 76.7114 305.44C76.0414 307.83 74.1714 309.33 72.5914 311.06C70.8814 312.93 68.6314 314.3 67.5314 316.76C67.0314 317.88 65.7214 317.49 64.8614 317.32C62.7814 316.89 60.6114 316.68 58.7014 315.62L58.6914 315.61Z" fill="#8B5A2D"/>
<path d="M113.759 306.58C114.659 306.81 115.939 306.05 116.439 307.14C116.829 307.98 115.829 308.77 115.309 309.39C112.339 312.93 108.929 315.87 104.199 316.78C105.369 312.78 108.139 310.07 111.479 307.85C112.239 307.43 112.999 307.01 113.759 306.59V306.58Z" fill="#B86D26"/>
<path d="M467.062 312.68C467.062 312.86 467.062 313.04 467.052 313.21C466.822 313.42 466.582 313.62 466.352 313.84C465.232 314.25 463.992 315.18 463.402 313.18C464.382 311.7 465.452 310.29 466.122 308.6C467.762 304.43 470.332 301.43 475.522 302.21C474.872 303.31 474.262 304.56 473.052 305.41C471.742 306.46 470.152 307.27 469.762 309.14C468.802 310.27 467.902 311.45 467.052 312.68H467.062Z" fill="#8B5A2C"/>
<path d="M179.679 323.37C180.759 320.74 181.709 318.01 185.049 317.42C185.469 318.82 184.519 319.55 183.649 320.32C182.429 322.11 182.479 322.73 183.869 322.95C185.549 321.06 186.879 318.89 188.779 317.19C189.089 316.91 189.469 316.74 189.859 316.61C190.339 316.63 190.639 316.81 190.479 317.36C189.069 320.2 187.449 322.88 185.289 325.25C184.009 326.66 182.619 327.17 180.809 326.97C180.009 326.88 179.129 326.98 178.709 326.14C178.199 325.13 178.819 324.45 179.599 323.89C179.869 323.93 179.969 323.82 179.889 323.56C179.849 323.43 179.769 323.37 179.679 323.37V323.37Z" fill="#8F5927"/>
<path d="M200.02 319.2C198.27 322.53 195.13 324.82 193.33 328.11C191.17 328.91 189.39 327.4 186.77 327.23C190.38 324.21 191.15 319.31 195.79 317.92C196.24 319.66 194.58 320.25 193.88 321.35C192.98 322.76 191.78 323.97 190.92 325.49C193.56 323.57 195.86 321.4 197.8 318.85C198.33 318.15 198.85 317.39 199.85 317.26C200.65 317.85 200.46 318.52 200.03 319.22L200.02 319.2Z" fill="#8C5A2C"/>
<path d="M82.6606 317.4C86.4406 316.93 89.6006 315.3 92.1206 312.42C94.3206 309.9 96.5506 307.39 98.7606 304.88C99.4106 304.91 100.521 304.74 100.631 305C101.031 305.95 99.6506 305.89 99.4206 306.59C98.9406 307.71 97.9606 308.33 97.0106 308.99C94.6906 312.37 91.2406 314.82 89.1806 318.41C88.6606 319.32 87.8406 319.22 87.1106 319.13C85.1806 318.88 83.2006 318.86 81.3906 318.02C81.6806 317.53 82.1406 317.4 82.6606 317.4V317.4Z" fill="#8C592A"/>
<path d="M476.621 304.25C477.011 303.94 477.451 303.68 477.761 303.32C478.771 302.16 479.901 302.26 480.891 303.16C482.001 304.16 480.821 304.91 480.361 305.7C480.171 306.03 479.891 306.32 479.651 306.63C477.181 307.89 476.381 310.68 474.391 312.37C474.041 312.57 473.631 312.73 473.851 313.28C473.861 313.51 473.781 313.68 473.581 313.79H469.641C471.421 309.97 475.111 307.88 476.611 304.26L476.621 304.25Z" fill="#8B5A2C"/>
<path d="M177.823 315.66C178.763 315.72 179.983 315.11 180.523 316.17C180.933 316.98 179.703 317.37 179.363 318.05C178.563 319.63 177.683 321.19 176.993 322.82C176.143 324.81 175.143 324.53 174.033 323.14C173.083 321.96 171.103 321.06 171.683 319.39C172.213 317.86 173.163 316 175.453 316.14C176.003 317.03 175.493 317.85 175.143 319.45C176.093 317.64 176.863 316.56 177.833 315.66H177.823Z" fill="#885930"/>
<path d="M374.279 325.79C376.529 324.6 378.709 323.22 381.709 323.46C379.829 326.77 376.149 328.31 374.729 331.7C374.529 331.97 374.269 332.16 373.949 332.28C372.589 332.5 371.259 332.66 370.779 330.88C370.739 329.61 371.359 328.74 372.449 328.17C373.029 327.35 373.149 326.18 374.289 325.79H374.279Z" fill="#89592F"/>
<path d="M302.362 321.05C303.552 322.74 302.002 323.6 301.182 324.53C298.492 327.59 295.162 329.83 291.602 331.76C291.052 331.85 290.762 331.7 290.962 331.08C293.302 328.42 295.622 325.76 297.972 323.11C299.132 321.8 300.722 321.35 302.372 321.05H302.362Z" fill="#B96E23"/>
<path d="M461.682 304.28C463.022 304.48 464.592 302.71 465.532 304.08C466.352 305.27 464.892 306.65 464.252 307.8C462.752 310.49 461.692 313.68 458.072 314.43C456.362 314.27 457.142 313.12 457.492 312.51C459.052 309.84 459.932 306.83 461.682 304.26V304.28Z" fill="#B96E23"/>
<path d="M394.371 323.28C393.551 325.99 392.281 327.86 390.921 329.66C389.921 330.98 388.591 331.8 386.861 331.71C385.241 331.62 384.451 330.56 385.661 329.45C388.161 327.15 390.121 323.94 394.371 323.28Z" fill="#895A2D"/>
<path d="M387.781 324.9C386.031 327.12 383.861 328.78 382.421 331.1C381.661 332.32 379.641 331.74 378.171 331.68C377.551 331.66 377.371 331.26 377.551 330.65C378.351 327.98 384.471 324.4 387.791 324.89L387.781 324.9Z" fill="#8B592B"/>
<path d="M111.48 307.84C108.98 310.76 106.33 313.55 104.2 316.77C103.04 317.59 102.1 318.45 103.66 319.75C102.45 319.75 101.23 319.75 100.02 319.76C99.8102 318.29 100.82 317.38 101.67 316.47C104.63 313.27 106.26 308.93 110.19 306.57C110.22 307.4 110.69 307.79 111.48 307.83V307.84Z" fill="#3F3831"/>
<path d="M219.223 317.49C219.333 318.97 218.273 319.78 217.373 320.67C215.433 322.62 213.513 324.59 211.523 326.48C210.713 327.25 210.173 327.89 211.393 328.72C209.953 328.63 207.873 329.44 207.253 328.12C206.633 326.79 208.843 326.27 209.753 325.41C212.543 322.78 214.623 319.41 218.013 317.41C218.413 317.44 218.813 317.46 219.213 317.49H219.223Z" fill="#8A592C"/>
<path d="M226.38 326.43C226.52 327.97 225.4 328.01 224.32 328.35C222.45 328.94 220.59 328.64 218.41 328.76C220.76 326.03 222.94 323.49 225.12 320.95C226.12 320.45 226.63 320.89 226.61 321.87C226.58 323.39 226.91 324.93 226.38 326.43V326.43Z" fill="#89592F"/>
<path d="M271.251 322.16C272.641 321.44 274.091 321.45 276.261 321.82C272.051 324 270.571 328.19 267.211 330.6C266.311 331.17 265.421 331.35 264.571 330.5C264.041 329.32 264.691 328.44 265.291 327.54C266.291 326.41 267.421 325.4 268.461 324.31C269.241 323.4 270.251 322.79 271.251 322.17V322.16Z" fill="#B86E25"/>
<path d="M208.999 317.42C205.619 320.65 202.269 323.91 200.039 328.1C198.839 328.11 197.649 328.13 196.449 328.14C200.129 323.98 202.369 318.13 208.999 317.42Z" fill="#8C592C"/>
<path d="M457.61 316.25C457.55 316.42 457.49 316.6 457.42 316.77C455.22 317.58 452.87 316.61 450.66 317.32C448.15 317.57 445.64 317.83 443.13 318.08C442.87 317.53 442.38 317.4 441.84 317.37C441.67 317.14 441.64 316.89 441.76 316.63C442.86 315.16 443.79 313.55 445.06 312.2C445.75 311.41 445.97 310.17 447.24 309.93C448.8 310.39 448.18 311.67 448.28 312.68C448.15 313.6 447.48 314.26 447.1 315.13C447.61 315.86 448.36 315.29 448.98 315.44C449.89 315.43 450.76 315.52 451.46 316.18C453.18 316.32 452.13 313.66 453.86 313.8C453.41 315.02 454.85 314.43 455.05 315.04C455.11 315.42 453.5 315.9 455.08 316.17C455.9 316.31 456.76 316.23 457.6 316.25H457.61Z" fill="#403937"/>
<path d="M405.371 319.78C406.221 319.67 407.081 319.57 408.211 319.43C407.211 322.51 407.451 325.87 404.841 328.23C402.281 328.34 401.631 327.69 402.031 325.4C402.211 324.35 402.691 323.38 402.791 322.31C402.941 320.75 404.131 320.24 405.371 319.78V319.78Z" fill="#AD6B28"/>
<path d="M112.522 318.54C115.872 315.09 118.172 310.68 122.182 307.82C122.192 308.64 122.662 308.99 123.432 309.03C120.092 312.47 117.672 316.75 113.782 319.71C113.752 318.9 113.252 318.59 112.512 318.54H112.522Z" fill="#403732"/>
<path d="M448.441 316.15H445.961C446.111 314.59 447.381 313.79 447.861 312.59C448.611 310.48 448.611 307.97 450.941 306.68C451.121 306.66 451.291 306.63 451.461 306.58C451.941 305.94 452.481 305.44 453.351 305.89C454.381 307.4 453.491 308.72 452.941 310.08C452.241 311.81 450.761 313.18 450.581 315.15C450.231 316.26 449.041 315.59 448.431 316.15H448.441Z" fill="#8C5A2C"/>
<path d="M199.37 317.41C197.29 321.64 193.72 324.36 189.25 327.38C190.94 323.2 193.71 320.79 195.79 317.91C196 317.71 196.21 317.52 196.41 317.32C197.19 317.32 197.98 317.32 198.76 317.32C199 317.13 199.2 317.15 199.37 317.42V317.41Z" fill="#AD6927"/>
<path d="M455.061 315.03C454.341 314.93 453.191 315.24 453.871 313.79C455.971 311.85 457.131 309.24 458.771 306.97C459.551 305.88 460.171 304.58 461.691 304.28C461.301 307.41 459.671 310.04 458.181 312.71C457.841 313.32 457.231 313.81 458.091 314.44C457.231 315.4 456.071 314.79 455.071 315.02L455.061 315.03Z" fill="#895A2B"/>
<path d="M189.21 465.27C188.13 465.04 187.03 464.82 186.77 463.48C187.49 463.43 188 463.15 188.01 462.33C188.56 462.21 188.51 463.55 189.3 462.86C190.21 463.4 191.27 463.59 192.1 464.39C192.44 464.72 193.72 465.71 194.04 464.01C195.13 465.12 196.27 466.18 197.29 467.35C197.84 467.98 198.64 468.83 197.84 469.65C197.04 470.48 196.15 469.66 195.49 469.2C194.38 468.42 193.37 467.48 192.7 466.23C192.48 465.83 192.2 465.31 191.6 465.82C190.81 465.59 190.59 462.96 189.21 465.26V465.27Z" fill="#3E3737"/>
<path d="M441.9 316.8C441.89 316.99 441.87 317.17 441.84 317.36C441.06 317.39 440.27 317.42 439.49 317.45C438.94 317.83 438.41 318.48 437.7 317.87C437.16 317.41 437.37 316.74 437.72 316.27C438.98 314.55 439.82 312.46 441.85 311.39C442.74 309.72 443.87 308.25 445.45 307.17C446.69 308.88 445.16 310.23 444.85 311.74C444.07 313.55 442.77 315.05 441.9 316.81V316.8Z" fill="#8A5A2B"/>
<path d="M395.791 331.15C394.611 331.76 393.381 331.97 391.781 331.45C393.861 328.81 395.461 326.01 396.861 323.1C397.481 321.82 398.831 321.56 400.021 321.1C400.361 321.54 400.391 322.07 400.101 322.48C398.221 325.15 397.191 328.24 395.791 331.15Z" fill="#8C592C"/>
<path d="M423.272 315.61C422.522 319.25 421.142 322.51 417.942 324.71C417.052 321.88 418.282 319.38 419.162 316.82C420.482 316.26 421.592 314.94 423.272 315.61V315.61Z" fill="#B56D26"/>
<path d="M392.771 304.87C391.171 300.83 390.361 296.63 390.361 292.28C390.021 291.54 389.941 290.94 391.051 290.97C392.411 294.44 392.981 298.09 393.401 301.77C393.821 302.93 393.491 303.95 392.761 304.87H392.771Z" fill="#A6485C"/>
<path d="M394.63 316.21C394.76 319.02 394 321.25 390.48 322.14C394.04 317.14 393.84 311.92 392.87 306.6C393.64 305.98 393.12 304.75 394 304.18C394.95 306.32 394.73 308.56 394.57 310.8C394.51 312.61 394.6 314.41 394.64 316.21H394.63Z" fill="#A24A5B"/>
<path d="M410.771 328.09C408.621 328.38 407.171 328.27 408.691 325.47C409.311 324.32 409.271 322.83 409.661 321.54C410.001 320.42 410.461 319.29 411.881 319.11C413.711 321.41 412.321 323.63 411.691 325.86C411.431 326.62 411.351 327.47 410.761 328.1L410.771 328.09Z" fill="#8C5A2B"/>
<path d="M376.029 334.11C375.919 334.12 375.809 334.14 375.699 334.15C374.599 334.31 373.499 334.46 372.409 334.62C372.389 334.59 372.369 334.55 372.339 334.53C371.289 333.12 369.329 333.03 368.199 331.73C368.149 331.64 368.099 331.55 368.069 331.47C367.919 331.11 367.909 330.82 368.019 330.59C368.219 330.04 368.949 329.76 369.439 329.36C370.149 328.23 370.649 326.55 372.449 328.16C372.419 328.23 372.369 328.3 372.339 328.37C371.969 329.08 371.589 329.8 371.219 330.51C371.079 330.69 370.969 330.91 370.869 331.1C370.669 331.46 370.499 331.79 370.169 331.79C370.529 331.77 370.929 331.83 371.359 331.92C372.239 332.07 373.229 332.27 374.199 331.72C374.319 331.71 374.439 331.7 374.559 331.7C374.629 331.69 374.679 331.69 374.749 331.69C376.339 331.87 375.969 333.1 376.049 334.09L376.029 334.11Z" fill="#44392F"/>
<path d="M260.101 326.63C259.675 322.283 261.445 320.247 265.411 320.52C265.121 322.05 263.471 322.43 262.831 323.63C262.251 324.73 261.641 325.94 260.101 326.63Z" fill="#865831"/>
<path d="M488.541 284.38C487.741 283.81 486.941 283.25 486.141 282.68C486.691 282.65 487.181 282.51 487.461 281.96C490.281 284.26 494.001 284.5 497.111 286.16C497.881 286.57 498.781 286.73 499.381 287.44C499.131 288.07 498.691 288.53 498.091 288.84C497.121 288.96 496.331 288.41 495.461 288.17C494.711 287.92 493.981 287.61 493.251 287.3C492.261 286.87 491.221 286.58 490.271 286.07C489.571 285.64 488.751 285.32 488.561 284.38H488.541Z" fill="#433738"/>
<path d="M450.301 315.03C449.841 313.11 451.441 311.93 452.011 310.39C452.551 308.95 453.501 307.66 453.241 306C453.541 304.41 454.691 304.84 455.711 304.97C456.491 305.35 456.721 305.93 456.321 306.72C455.511 309.8 452.561 311.5 451.401 314.36C451.131 314.75 450.951 315.29 450.291 315.03H450.301Z" fill="#B86E27"/>
<path d="M189.21 317.4C187.62 319.38 186.03 321.37 184.44 323.35C182.83 324.62 182.18 324.09 182.39 322.2C182.48 321.34 182.62 320.45 183.28 319.79C184.31 319.33 184.53 318.26 185.05 317.43C185.23 317.38 185.41 317.35 185.59 317.35C186.81 316.67 188.01 316.48 189.21 317.41V317.4Z" fill="#B76E26"/>
<path d="M405.372 319.78C404.792 320.59 403.522 320.88 403.552 322.16C402.942 323.67 402.232 325.15 401.752 326.71C401.482 327.59 401.142 328.37 399.992 328.2C399.972 327.51 399.702 327.03 398.942 326.97C398.162 324.39 400.232 322.87 401.182 320.93C402.102 318.83 403.972 320.17 405.362 319.78H405.372Z" fill="#443831"/>
<path d="M419.16 316.81C419.68 319.58 418.33 322.07 417.94 324.7C417.26 325.87 416 325.82 414.52 326.34C415.88 323.27 417.6 320.61 417.4 317.41C417.99 317.21 418.57 317.01 419.15 316.81H419.16Z" fill="#885930"/>
<path d="M290.932 320.88C291.622 321.07 292.452 321.27 291.762 322.22C289.932 324.73 287.942 327.11 284.922 329.41C285.902 326.38 287.992 324.61 288.572 322.12C289.062 321.15 289.952 320.92 290.932 320.88V320.88Z" fill="#B56F27"/>
<path d="M401.18 320.92C400.99 323.14 399.44 324.86 398.94 326.96C397.07 327.74 398.63 331.1 395.79 331.14C395.6 327.12 398.5 324.4 400.02 321.09C400.41 321.03 400.8 320.97 401.19 320.91L401.18 320.92Z" fill="#AA6A2B"/>
<path d="M411.339 326.35C411.909 323.96 412.079 321.55 411.889 319.1C413.099 318.88 414.339 317.15 415.519 319.15C414.299 321.74 413.069 324.33 411.849 326.92C411.359 327.02 411.029 326.97 411.329 326.35H411.339Z" fill="#B46D2A"/>
<path d="M441.85 311.39C440.73 313.02 439.61 314.65 438.5 316.29C438.25 316.66 437.56 317.03 438.09 317.49C438.35 317.72 439.02 317.49 439.5 317.45C439.48 318.27 439.46 319.08 439.45 319.89C439.25 319.86 439.07 319.79 438.9 319.69C436.82 319.14 436.41 317.47 436.18 315.66C436.65 313.11 438.69 311.57 440.08 309.61L440.13 309.56C440.88 310.01 440.56 311.47 441.86 311.38L441.85 311.39Z" fill="#443932"/>
<path d="M385 438.14C384.42 440.95 382.82 443.01 381.33 445.33C379.52 441.97 380.46 440.2 385 438.14Z" fill="#4F4E4F"/>
<path d="M399.991 328.2C401.931 326.63 401.711 323.79 403.551 322.16C403.361 323.02 403.331 323.96 402.961 324.74C401.931 326.86 402.641 327.91 404.841 328.23C404.041 330.03 402.071 329.91 400.701 330.25C399.031 330.66 400.111 328.98 400.001 328.2H399.991Z" fill="#80573C"/>
<path d="M317.339 322.11C315.529 322.56 313.729 323.04 311.919 323.46C311.199 323.62 310.069 324.63 309.879 323.12C309.759 322.17 310.169 320.93 311.719 320.98C313.589 321.04 315.459 321.01 317.339 321.01C317.699 321.37 317.709 321.74 317.339 322.11V322.11Z" fill="#845730"/>
<path d="M444.252 311.98C444.072 310.23 445.722 308.94 445.452 307.17C445.862 306.94 446.262 306.71 446.672 306.48C447.312 305.74 448.152 305.32 448.942 306C449.642 306.61 449.052 307.44 448.782 308.14C448.462 308.97 447.972 309.69 447.142 310.11C446.592 310.94 446.052 311.77 445.502 312.59C444.812 312.94 444.212 313.09 444.252 311.97V311.98Z" fill="#B26E2D"/>
<path d="M172.059 314.16C170.669 314.87 170.879 317.71 168.769 316.8C167.699 316.34 166.389 314.37 166.879 313.81C168.369 312.07 170.209 314.35 172.069 314.16H172.059Z" fill="#835934"/>
<path d="M447.142 310.12C447.472 309.33 447.822 308.55 448.132 307.75C448.322 307.26 449.012 306.74 448.532 306.26C447.962 305.69 447.312 306.46 446.672 306.49C448.192 304.26 449.572 305.47 450.942 306.68C449.912 308.65 448.892 310.62 447.862 312.59C447.132 311.91 448.322 310.67 447.132 310.12H447.142Z" fill="#43372F"/>
<path d="M265.88 327.58C265.47 328.38 265.06 329.18 264.65 329.99C264.36 330.43 264.59 331.13 263.93 331.38C263.38 331.42 262.83 331.57 262.34 331.18C261.68 331.13 261.03 331.09 260.23 331.03C260.84 329.64 261.81 328.86 262.84 328.14C263.94 327.9 264.43 326.25 265.88 326.83C266.04 327 266.09 327.17 266.04 327.33C265.99 327.5 265.93 327.58 265.88 327.58V327.58Z" fill="#8D582A"/>
<path d="M455.633 305.38C454.813 305.48 453.883 305.16 453.253 305.99C452.663 306.18 452.063 306.38 451.473 306.57C451.583 305.44 453.053 304.86 452.703 303.54C453.423 302.91 454.403 303.61 455.133 303.05C455.513 303.07 455.893 303.1 456.273 303.12C456.343 304.03 457.073 304.03 457.723 304.29C458.873 304.75 458.473 305.18 457.533 305.41C456.903 305.56 456.273 304.96 455.643 305.38H455.633Z" fill="#43382F"/>
<path d="M326.98 356.14C327.06 355.98 327.18 355.85 327.32 355.73C327.57 356.01 328.05 356.28 328.05 356.56C328.08 361.62 328.05 366.69 328.01 371.75C328.01 371.99 327.68 372.22 327.51 372.45C326.92 368.3 327.42 364.13 327.24 359.97C327.19 358.69 327.51 357.39 326.99 356.14H326.98Z" fill="#493328"/>
<path d="M177.823 315.66C177.463 317.7 175.963 319.06 174.803 321.14C173.843 318.97 175.033 317.61 175.443 316.14C176.123 315.41 176.993 315.61 177.833 315.66H177.823Z" fill="#B06C29"/>
<path d="M326.983 356.14C328.073 360.34 327.303 364.63 327.513 368.87C327.573 370.06 327.513 371.26 327.503 372.45C327.323 372.68 327.143 372.91 326.973 373.14C326.973 367.47 326.983 361.8 326.993 356.14H326.983Z" fill="#B29C8F"/>
<path d="M235.952 457.5C233.642 456.04 235.153 453.37 234.062 451.52C234.293 451.29 234.523 451.06 234.753 450.83C235.753 452.94 237.023 455.01 235.943 457.5H235.952Z" fill="#483735"/>
<path d="M271.253 322.16C270.693 323.2 269.882 323.99 268.862 324.57C267.932 324.67 267.062 325.52 266.052 324.82C265.972 324.72 265.892 324.62 265.812 324.52C267.003 322.29 269.073 322.1 271.253 322.16Z" fill="#855932"/>
<path d="M97.0117 308.99C97.2017 307.58 98.5517 307.32 99.4217 306.59C99.4817 307.83 100.382 307.8 101.262 307.81C100.392 308.78 99.5717 309.82 98.2617 310.25C98.2217 309.46 97.8317 309.01 97.0117 308.98V308.99Z" fill="#423831"/>
<path d="M387.892 293.45C384.352 293.1 380.742 294.15 377.262 292.88C380.812 292.62 384.452 293.61 387.922 292.16C387.922 292.59 387.902 293.02 387.892 293.45V293.45Z" fill="#935462"/>
<path d="M386.769 274.35C385.919 272.85 385.629 271.21 385.539 269.51C385.929 269.13 386.319 269.16 386.719 269.5C387.119 270.89 387.529 272.28 387.929 273.67C387.369 273.59 386.979 273.82 386.779 274.35H386.769Z" fill="#AE445B"/>
<path d="M82.6016 313.76C83.2216 312.77 84.0316 311.96 85.0316 311.35C85.0716 312.23 85.6116 312.6 86.4216 312.67C85.8816 313.79 85.0816 314.63 83.9016 315.08C83.8516 314.26 83.4316 313.8 82.6016 313.75V313.76Z" fill="#423A31"/>
<path d="M125.679 522.13C125.679 524.12 125.669 526.11 125.659 528.1C123.489 526.1 124.419 524.12 125.679 522.13Z" fill="#443B36"/>
<path d="M469.402 308.99C469.902 307.06 470.572 305.31 473.062 305.41C473.012 307.18 470.922 307.49 470.512 309C470.142 309.32 469.772 309.36 469.412 309L469.402 308.99Z" fill="#AF6C28"/>
<path d="M329.36 352.79C329.36 352.79 329.35 352.89 329.35 352.93C329.32 353.36 329.28 353.79 329.25 354.21C329.24 354.31 329.24 354.4 329.23 354.5C328.63 354.48 328.02 354.47 327.41 354.45C327.43 354.34 327.45 354.22 327.46 354.1C327.58 352.85 327.05 351.25 328.99 350.99C329.1 350.98 329.21 350.97 329.33 350.97C329.34 351.57 329.35 352.18 329.36 352.79V352.79Z" fill="#453933"/>
<path d="M386.712 269.5C386.322 269.5 385.932 269.5 385.532 269.51C384.602 268.49 384.092 267.26 383.742 265.94C383.822 265.55 384.062 265.32 384.442 265.24C385.922 266.27 385.892 268.11 386.702 269.5H386.712Z" fill="#A0495E"/>
<path d="M226.379 326.43C225.779 324.65 227.559 322.31 225.109 320.95C225.209 319.86 225.989 319.56 227.159 319.35C226.589 321.75 227.549 324.17 226.379 326.43V326.43Z" fill="#825B37"/>
<path d="M394.63 316.21C393.58 314.42 393.67 312.61 394.56 310.8C395.4 312.59 395.59 314.4 394.63 316.21Z" fill="#AF455A"/>
<path d="M369.44 329.36C369.11 330.19 368.19 330.72 368.21 331.73C367.61 332.12 367.38 333.02 366.47 332.99C365.95 332.72 365.85 332.23 365.82 331.71C366.87 330.68 367.66 329.26 369.44 329.35V329.36Z" fill="#79583D"/>
<path d="M131.212 500.52C131.002 500.94 130.792 501.36 130.582 501.78C130.582 498.55 130.592 495.31 130.602 492.08C130.772 492.13 130.952 492.17 131.132 492.2C131.722 494.97 131.532 497.75 131.212 500.52V500.52Z" fill="#533417"/>
<path d="M191.643 458.03C192.433 459.83 193.213 461.64 194.003 463.44C191.093 462.56 191.653 460.17 191.643 458.03Z" fill="#3E3737"/>
<path d="M469.402 308.99C469.772 308.99 470.143 308.99 470.503 308.99C469.503 310.35 468.653 311.86 467.062 312.67C467.293 311.1 468.193 309.94 469.393 308.98L469.402 308.99Z" fill="#A46B37"/>
<path d="M307.233 474.18C307.203 471.84 307.163 469.49 307.133 467.15C307.263 466.88 307.663 466.31 307.663 466.61C307.593 469.14 308.383 471.73 307.243 474.19L307.233 474.18Z" fill="#483428"/>
<path d="M394 304.18C393.84 305.09 394.43 306.35 392.87 306.6C392.84 306.02 392.8 305.45 392.77 304.87C392.98 303.84 393.2 302.8 393.41 301.77C394.22 302.42 393.95 303.34 394 304.18V304.18Z" fill="#A6485A"/>
<path d="M70.7305 303.74C73.4705 302.53 76.2205 302.65 78.9705 303.67C78.3505 304.03 77.7105 304.29 76.9705 304.07C74.9105 303.6 72.7905 304.2 70.7305 303.73V303.74Z" fill="#523314"/>
<path d="M117.391 304.8C119.851 304.19 122.341 303.12 124.571 305.36C124.181 305.72 123.791 305.77 123.381 305.4C121.441 304.57 119.321 305.64 117.391 304.8Z" fill="#483623"/>
<path d="M265.86 326.96C264.72 327.02 264.17 328.57 262.84 328.14C263.82 326.93 264.34 325.33 265.81 324.52L265.89 324.58C266.49 325.38 266.56 326.17 265.87 326.96H265.86Z" fill="#835B36"/>
<path d="M472.941 272.39C473.811 273.7 475.971 272.42 476.591 274.22C474.841 273.65 473.021 273.69 471.141 273.68C471.421 272.65 472.241 272.61 472.931 272.39H472.941Z" fill="#9D485C"/>
<path d="M188.102 383.01C189.102 384.3 188.462 385.82 188.712 387.22C188.472 388.05 188.942 389 188.102 390.05V383.01V383.01Z" fill="#43362D"/>
<path d="M279.062 330.57C278.752 330.38 278.152 330.07 278.172 330.02C278.672 328.87 279.432 328.04 280.832 328.16C280.332 329.03 280.112 330.1 279.062 330.57V330.57Z" fill="#805A3A"/>
<path d="M365.82 331.72C366.35 331.99 366.45 332.47 366.47 333C365.97 334.03 365.07 334.21 364.06 334.14C363.69 333.75 363.73 333.36 364.06 332.96C364.65 332.55 365.24 332.14 365.83 331.72H365.82Z" fill="#8A582F"/>
<path d="M389.731 288.71C388.771 287.6 389.32 286.29 389.25 285.06C389.41 284.76 389.61 284.75 389.83 285C390.81 286.07 390.22 287.42 390.47 288.62C390.25 288.85 390.001 288.87 389.731 288.7V288.71Z" fill="#A54355"/>
<path d="M389.83 285.01C389.64 285.04 389.45 285.06 389.25 285.07C388.73 283.54 388.46 281.97 388.51 280.34C388.7 280.1 388.91 280.08 389.15 280.26C389.71 281.79 389.96 283.37 389.82 285L389.83 285.01Z" fill="#8A5660"/>
<path d="M203.873 330.03C203.003 330.36 202.153 330.54 201.283 330.58C201.283 330.58 201.283 330.59 201.273 330.58C200.703 330.61 200.123 330.59 199.543 330.51H199.523C198.813 330.42 198.093 330.26 197.383 330.02C199.543 329.38 201.713 329.94 203.883 330.03H203.873Z" fill="#3D3935"/>
<path d="M152.151 500.61C152.151 498.19 152.151 495.76 152.141 493.34C152.321 493.36 152.501 493.37 152.691 493.38C153.221 495.77 153.201 498.16 152.701 500.56C152.521 500.57 152.331 500.59 152.151 500.62V500.61Z" fill="#775C45"/>
<path d="M152.69 500.55C152.69 498.16 152.69 495.77 152.68 493.37C153.69 495.76 153.67 498.15 152.69 500.55Z" fill="#4F341D"/>
<path d="M133.022 445.33C134.292 445.73 134.662 446.94 135.332 447.88C133.342 448.14 132.662 447.2 133.022 445.33Z" fill="#423A30"/>
<path d="M132.961 312.01C132.961 310.62 132.951 309.23 132.941 307.83C135.111 309.21 134.071 310.61 132.961 312.01Z" fill="#7E5835"/>
<path d="M117.391 304.8C119.381 305.08 121.491 304.21 123.381 305.4C121.181 305.4 118.981 305.4 116.781 305.39C116.981 305.19 117.191 305 117.391 304.81V304.8Z" fill="#705A49"/>
<path d="M70.7319 303.74C72.9019 303.72 75.0719 303.7 77.2419 303.67C77.3619 304.17 77.1819 304.37 76.6719 304.24C74.6719 304.22 72.6719 304.19 70.6719 304.17C70.7019 304.02 70.7219 303.88 70.7319 303.73V303.74Z" fill="#957350"/>
<path d="M190.481 317.36C190.251 317.19 190.021 317.02 189.791 316.84C188.421 317.22 187.061 317.18 185.691 316.87C187.211 315.48 189.061 316.19 190.701 316.31C191.781 316.39 190.821 317.03 190.491 317.36H190.481Z" fill="#5A3516"/>
<path d="M126.92 323.84C126.7 324.57 125.65 324.81 125.77 325.75C124.9 325.15 124.03 324.56 123.16 323.96C124.46 323.96 125.7 323.96 126.93 323.84H126.92Z" fill="#B49B91"/>
<path d="M224.793 421.16C225.713 421.93 226.393 422.5 225.733 423.48C225.633 423.63 225.103 423.72 224.983 423.61C224.323 422.99 224.513 422.22 224.793 421.16Z" fill="#68464D"/>
<path d="M466.452 313.23C466.652 313.23 466.852 313.23 467.042 313.22C466.152 316.54 464.032 314.8 462.242 314.39C463.482 313.42 465.422 314.98 466.452 313.23V313.23Z" fill="#4E3423"/>
<path d="M124.611 480.19C125.291 480.85 125.671 481.65 125.791 482.59C123.641 481.59 123.381 481.07 124.611 480.19Z" fill="#46382E"/>
<path d="M389.73 288.71C389.98 288.68 390.22 288.65 390.47 288.63C391.29 289.25 390.92 290.18 391.06 290.97C390.53 291.25 390.41 291.74 390.37 292.28C389.35 291.23 389.97 289.9 389.74 288.71H389.73Z" fill="#88565D"/>
<path d="M127.57 307.22C129.04 306.06 130.71 306.74 132.31 306.72C132.36 306.72 132.45 306.85 132.45 306.93C132.45 307.02 132.39 307.11 132.36 307.2C130.77 307.69 129.17 307.66 127.57 307.22V307.22Z" fill="#4A321F"/>
<path d="M466.452 313.23C465.522 315.33 463.652 314.02 462.242 314.39C462.412 313.78 462.872 313.45 463.402 313.19C464.402 314.34 465.432 313.58 466.452 313.23V313.23Z" fill="#795F4F"/>
<path d="M388.079 275.46C388.879 276.11 388.539 277.02 388.649 277.83C388.439 278.07 388.199 278.1 387.939 277.9C387.579 277.09 387.219 276.28 386.859 275.47C387.259 275.12 387.669 275.12 388.079 275.46V275.46Z" fill="#8E525E"/>
<path d="M479.71 273.02C478.16 273.14 476.63 273.24 475.43 271.96C476.99 271.77 478.41 272.17 479.71 273.02Z" fill="#9D485C"/>
<path d="M450.301 315.03C450.671 314.81 451.041 314.58 451.411 314.36C451.431 314.97 451.441 315.57 451.461 316.18C450.451 316.18 449.441 316.17 448.441 316.16C449.061 315.79 449.681 315.41 450.301 315.04V315.03Z" fill="#533916"/>
<path d="M262.34 331.18C262.91 331.16 263.48 331.14 264.05 331.12C265.05 330.71 266.05 330.7 267.04 331.16C265.48 332.12 263.91 332.06 262.34 331.18Z" fill="#603512"/>
<path d="M384.45 265.24C384.22 265.47 383.98 265.71 383.75 265.94C383.18 265.4 382.75 264.81 382.83 263.93C383.75 263.96 384.33 264.32 384.45 265.24Z" fill="#B64062"/>
<path d="M387.941 277.9C388.181 277.88 388.411 277.85 388.651 277.83C389.401 278.52 389.181 279.41 389.161 280.26C388.951 280.28 388.731 280.31 388.521 280.34C387.751 279.66 388.091 278.73 387.951 277.9H387.941Z" fill="#A54255"/>
<path d="M374.279 325.79C373.709 326.62 373.489 327.71 372.439 328.17C372.379 326.86 372.309 325.54 374.279 325.79Z" fill="#44392F"/>
<path d="M465.859 301.25C466.729 299.93 468.539 301.3 469.429 300.02C470.089 300.66 469.749 301.08 469.049 301.16C467.999 301.28 466.929 301.23 465.859 301.25V301.25Z" fill="#B49E95"/>
<path d="M189.331 462.24C189.321 461.44 189.311 460.65 189.301 459.85C190.911 460.62 190.921 461.42 189.331 462.24Z" fill="#3E3737"/>
<path d="M76.6719 304.24C76.8619 304.05 77.0519 303.86 77.2419 303.67C77.8219 303.67 78.4019 303.67 78.9819 303.67C78.4919 304.6 77.8419 305.34 76.7019 305.44C76.7019 305.04 76.6819 304.64 76.6719 304.24V304.24Z" fill="#8B5A2D"/>
<path d="M127.572 307.22C129.172 307.22 130.762 307.21 132.362 307.2C132.372 307.39 132.402 307.57 132.432 307.75C130.792 307.75 129.152 307.75 127.512 307.76C127.542 307.58 127.562 307.39 127.572 307.21V307.22Z" fill="#745B49"/>
<path d="M71.8795 315.01C71.8795 315.4 71.8795 315.8 71.8795 316.19C71.6595 316.4 71.4295 316.61 71.2095 316.83C70.8295 316.77 70.3795 316.72 70.4895 316.19C70.6395 315.47 71.0395 314.95 71.8795 315.01Z" fill="#906D4C"/>
<path d="M189.779 408.39C191.019 409.63 190.179 411.18 190.409 412.56C189.209 411.32 189.949 409.78 189.779 408.39Z" fill="#B79D91"/>
<path d="M388.08 275.46C387.67 275.46 387.27 275.46 386.86 275.47C386.83 275.1 386.8 274.72 386.77 274.35C386.77 273.47 387.15 273.24 387.92 273.67C387.97 274.27 388.03 274.86 388.08 275.46Z" fill="#B1445D"/>
<path d="M317.34 322.11C317.34 321.74 317.34 321.38 317.34 321.01C317.99 321.12 319.14 320.57 319.18 321.46C319.21 322.4 318.06 322.1 317.35 322.11H317.34Z" fill="#72563D"/>
<path d="M185.692 316.87C187.062 316.87 188.432 316.85 189.792 316.84C189.592 317.03 189.402 317.21 189.202 317.4C187.992 317.38 186.792 317.36 185.582 317.34C185.622 317.18 185.652 317.02 185.682 316.86L185.692 316.87Z" fill="#977050"/>
<path d="M123.383 305.4C123.783 305.39 124.173 305.38 124.573 305.36C124.913 305.44 125.493 305.51 125.333 305.91C124.993 306.76 124.113 306.57 123.383 306.64C123.383 306.23 123.383 305.82 123.383 305.4Z" fill="#7B5B3C"/>
<path d="M290.949 331.08C291.159 331.31 291.379 331.53 291.589 331.76C291.389 332.13 291.189 332.5 290.989 332.87C290.549 332.86 289.979 332.96 289.969 332.3C289.959 331.68 290.489 331.38 290.949 331.08Z" fill="#9F6B41"/>
<path d="M455.633 305.38C456.273 304.71 456.913 304.55 457.523 305.41C457.123 305.84 456.733 306.28 456.333 306.71C456.263 306.18 456.183 305.65 455.633 305.38Z" fill="#8E6B4C"/>
<path d="M267.041 331.16C266.041 331.15 265.051 331.13 264.051 331.12C264.071 330.65 264.171 330.22 264.651 329.99C265.341 330.85 266.331 330.45 267.201 330.6C267.151 330.79 267.091 330.97 267.041 331.16Z" fill="#9F7351"/>
<path d="M473.6 313.78C473.62 313.6 473.65 313.43 473.68 313.25C474.58 312.39 475.53 312.34 476.53 313.07C476.35 313.31 476.18 313.55 476 313.78C475.2 313.78 474.4 313.78 473.59 313.77L473.6 313.78Z" fill="#553416"/>
<path d="M364.051 332.96C364.051 333.35 364.051 333.75 364.051 334.14C363.621 334.27 363.181 334.39 362.751 334.52C362.651 333.56 363.461 333.35 364.041 332.96H364.051Z" fill="#6D5740"/>
<path d="M82.6616 317.4C82.3716 317.89 81.8816 317.96 81.3916 318.02C80.9316 316.84 81.9716 316.95 82.5516 316.67C82.5916 316.91 82.6316 317.15 82.6716 317.39L82.6616 317.4Z" fill="#986F4A"/>
<path d="M164.641 461.02C165.021 460.26 165.591 459.82 166.481 459.87C166.391 461.1 165.521 461.06 164.641 461.02Z" fill="#483729"/>
<path d="M179.682 323.37C180.192 323.42 180.662 323.55 180.772 324.15C180.822 324.45 180.732 324.84 180.372 324.7C180.062 324.58 179.852 324.17 179.602 323.89C179.602 323.71 179.632 323.54 179.682 323.37Z" fill="#935825"/>
<path d="M455.121 303.05C454.431 303.81 453.551 303.63 452.691 303.54C453.081 303.16 453.461 302.77 453.851 302.39C454.111 302.92 454.621 302.98 455.121 303.05V303.05Z" fill="#A08C7E"/>
<path d="M197.619 419.12C196.749 419.15 196.169 418.72 195.789 417.96C196.659 417.93 197.519 417.92 197.619 419.12Z" fill="#53343E"/>
<path d="M235.939 412.5C236.229 411.76 235.269 410.7 236.549 410.22C236.359 410.98 236.989 411.96 235.939 412.5Z" fill="#B69D96"/>
<path d="M411.341 326.35C411.511 326.54 411.681 326.73 411.861 326.92C411.861 327.28 411.871 327.64 411.881 328C411.511 328.03 411.141 328.05 410.781 328.08C410.761 327.43 410.671 326.77 411.351 326.34L411.341 326.35Z" fill="#A5692D"/>
<path d="M160.479 405.33C160.649 404.35 160.089 403.21 161.089 402.4C160.929 403.39 161.539 404.53 160.479 405.33Z" fill="#987356"/>
<path d="M289.839 511.99C289.799 511.11 289.749 510.22 290.989 510.14C291.059 511.04 290.559 511.59 289.839 511.99Z" fill="#764B53"/>
<path d="M517.282 313.26C517.362 317.37 517.092 317.55 513.142 316.35C508.262 314.87 504.632 311.21 500.202 308.94C497.152 307.38 494.152 305.71 491.122 304.09C490.682 303.28 491.022 302.54 491.382 301.85C493.692 297.4 496.422 293.23 499.952 289.63C501.292 289.47 502.212 290.25 503.082 291.07C508.702 296.39 513.032 302.63 516.422 309.57C516.992 310.75 517.192 311.98 517.282 313.26V313.26Z" fill="white"/>
<path d="M499.99 289.98C497.01 294.67 493.31 298.91 491.12 304.1C489.86 303.57 488.61 303.03 487.35 302.5C486.94 301.83 487.11 301.13 487.39 300.51C489.51 295.75 491.58 290.96 495.76 287.53C496.56 287.88 497.37 288.22 498.17 288.57C499.23 288.46 500.16 288.51 499.99 289.99V289.98Z" fill="#B1455B"/>
<path d="M490.461 285.69C491.501 286.05 492.731 285.97 493.441 287.04C493.951 287.91 493.411 288.56 492.951 289.18C490.331 292.64 487.851 296.19 485.981 300.13C485.691 300.74 485.311 301.36 484.461 301.34C483.611 301.09 482.751 300.84 481.901 300.59C481.091 299.42 481.601 298.26 482.101 297.22C484.001 293.31 486.381 289.69 489.171 286.34C489.491 285.95 489.941 285.73 490.451 285.69H490.461Z" fill="#B1465C"/>
<path d="M499.992 289.98C499.382 289.51 498.782 289.04 498.172 288.57C498.202 287.8 498.652 287.47 499.372 287.45C503.572 289.16 506.202 292.67 508.962 295.98C510.852 298.24 512.522 300.69 514.282 303.05C516.702 305.78 518.802 308.66 518.432 312.6C517.932 312.62 517.512 312.77 517.282 313.26C513.872 305.2 509.192 297.99 502.892 291.88C502.042 291.06 501.262 290.14 499.992 289.98Z" fill="#403838"/>
<path d="M490.459 285.69C487.689 289.26 485.069 292.93 482.999 296.96C482.419 298.09 481.859 299.26 481.909 300.59C480.559 300.59 479.209 300.6 477.859 300.61C481.139 295.02 484.419 289.42 488.549 284.39C489.189 284.83 489.829 285.26 490.459 285.7V285.69Z" fill="#FCF9F9"/>
<path d="M535.231 293.47C535.501 294.01 535.901 294.4 536.501 294.55C536.721 294.75 536.941 294.95 537.161 295.15C534.691 297.96 532.781 301.19 530.441 304.1C530.101 304.34 529.721 304.5 529.371 304.73H525.371C526.171 300.88 529.711 299.05 531.101 295.87C532.461 295.05 533.571 293.79 535.231 293.47V293.47Z" fill="#8B592E"/>
<path d="M484.473 301.34C487.073 296.33 490.133 291.61 493.443 287.04C494.343 286.57 494.963 287.48 495.763 287.52C492.553 292.28 489.143 296.93 487.363 302.49C486.293 302.36 485.323 302.01 484.473 301.33V301.34Z" fill="#FDF6F8"/>
<path d="M483.882 312.68C483.152 313.41 482.222 313.27 481.352 313.16C479.552 312.92 478.462 312.34 480.062 310.38C481.052 309.17 481.962 307.84 482.652 306.44C483.892 303.9 485.442 303.31 487.762 305.13C488.172 305.45 488.812 305.49 489.672 305.76C488.302 306.92 488.372 308.81 486.762 309.58C483.452 309.6 483.152 309.91 483.892 312.67L483.882 312.68Z" fill="#89582D"/>
<path d="M528.122 297.04C526.402 299.32 524.283 301.3 523.093 303.98C522.613 305.06 521.512 305.61 520.412 305.59C519.362 305.57 519.252 304.47 519.062 303.62C520.783 299.68 523.582 296.92 527.722 295.59C528.422 295.92 528.562 296.39 528.122 297.03V297.04Z" fill="#B76E26"/>
<path d="M529.92 304.19C532.11 301 533.48 297.16 537.16 295.16C538.58 297.11 536.88 298.48 536.1 299.87C535.23 301.44 533.93 302.78 532.82 304.22C531.85 304.64 530.88 304.69 529.91 304.19H529.92Z" fill="#B46C23"/>
<path d="M527.471 295.81C524.001 297.7 521.651 300.79 519.061 303.62C517.561 302.38 518.061 300.91 518.571 299.44C520.971 296.83 524.111 295.81 527.491 295.31C527.701 295.43 527.771 295.54 527.691 295.65C527.621 295.76 527.551 295.81 527.471 295.81Z" fill="#8A592E"/>
<path d="M487.95 311.99C488.34 310.67 488.89 309.47 490.31 308.95C491.47 309.39 491.71 308.42 492.14 307.75C493.41 307.64 495.11 307.6 494.85 309.23C494.61 310.76 494.07 312.91 491.52 312.54C490.53 312 489.77 312.89 488.87 312.94C488.31 312.87 487.7 312.85 487.94 311.99H487.95Z" fill="#8C592A"/>
<path d="M518.429 312.6C517.819 309.08 515.539 306.29 514.289 303.05C515.019 302.62 514.899 301.89 514.929 301.21C516.839 304.72 519.399 307.96 519.559 312.22C519.579 312.77 519.929 313.48 518.999 313.53C518.829 313.53 518.619 312.93 518.429 312.6Z" fill="#A24A5D"/>
<path d="M473.59 312.59C474.6 311.18 475.67 309.81 476.61 308.36C477.35 307.21 478.2 306.43 479.67 306.62C478.65 308.61 477.62 310.6 476.6 312.6C475.6 313.05 474.6 313.05 473.6 312.6L473.59 312.59Z" fill="#AD6B2A"/>
<path d="M483.88 312.68C482.91 312.54 481.59 312.63 482.51 311.02C483.14 309.93 483.2 308.04 485.26 308.62C485.8 308.77 486.25 309.26 486.75 309.59C485.64 310.48 486.11 312.83 483.88 312.68Z" fill="#AB6828"/>
<path d="M492.15 307.74C492.07 308.85 492.46 310.05 491.79 311.13C490.59 310.7 491.28 309.31 490.32 308.94C490.71 308.21 491.31 307.78 492.15 307.74V307.74Z" fill="#865C34"/>
<path d="M487.952 311.99C488.222 312.48 488.662 312.59 489.172 312.58C489.782 312.18 490.392 312.14 490.982 312.62C490.962 312.79 490.962 312.96 490.962 313.13C489.782 313.72 488.592 313.66 487.402 313.17C487.402 312.7 487.472 312.25 487.952 312V311.99Z" fill="#7E6B59"/>
<path d="M473.59 312.59C474.59 312.59 475.59 312.59 476.59 312.59C476.57 312.75 476.55 312.91 476.53 313.07C475.58 313.13 474.63 313.19 473.68 313.25C473.34 313.07 473.11 312.88 473.59 312.59Z" fill="#95704F"/>
<path d="M487.402 313.16C488.592 313.15 489.772 313.14 490.962 313.13C489.782 314.16 488.602 314.12 487.402 313.16Z" fill="#483623"/>
<path d="M529.923 304.19C530.893 304.19 531.863 304.21 532.833 304.22C531.833 305.36 530.543 304.65 529.383 304.74C529.563 304.56 529.743 304.37 529.923 304.19V304.19Z" fill="#99785F"/>
<path d="M527.473 295.81C527.473 295.64 527.483 295.47 527.493 295.31C528.093 295.27 528.703 295.23 529.303 295.19C529.353 296.09 528.853 296.64 528.113 297.04C528.083 296.53 527.973 296.07 527.473 295.81V295.81Z" fill="#996F4A"/>
<path d="M490.982 312.61C490.382 312.6 489.782 312.58 489.172 312.57C489.932 311.13 490.732 311.7 491.532 312.53C491.352 312.57 491.162 312.6 490.972 312.61H490.982Z" fill="#A36A2C"/>
<path d="M498.372 310.5C498.092 311.31 497.603 311.51 496.812 311.17C497.202 310.59 497.592 310.16 498.372 310.5Z" fill="#71583F"/>
<path d="M199.372 317.41C199.172 317.38 198.962 317.35 198.762 317.31C199.682 316.5 200.742 316.83 201.962 316.89C201.702 318.07 200.852 318.63 200.022 319.2C199.962 318.55 200.162 317.8 199.372 317.41V317.41Z" fill="#7B583B"/>
<path d="M425.769 322.1C424.779 322.48 423.779 322.87 422.199 323.48C424.159 319.47 425.169 315.58 428.689 313.17C429.839 316.84 428.129 319.58 425.769 322.1Z" fill="#8A5A2B"/>
<path d="M434.742 318.03C433.712 318.95 432.512 319.5 430.172 319.91C433.032 317.05 431.532 312.53 435.852 311.35C437.022 312.58 436.442 313.83 435.962 315.13C435.592 316.12 434.592 316.84 434.742 318.03V318.03Z" fill="#8D5D2F"/>
<path d="M425.77 322.1C427.14 319.25 428.64 316.45 428.69 313.17C430.06 312.27 431.49 312.14 430.91 314.24C430.21 316.78 428.85 319.15 427.66 321.53C427.33 322.19 426.48 322.17 425.77 322.09V322.1Z" fill="#B46D2D"/>
<path d="M434.741 318.03C433.671 317.19 434.591 316.42 434.931 315.77C435.691 314.36 436.061 312.93 435.851 311.34C437.031 310.22 438.561 309.95 440.061 309.61C439.921 312.22 437.411 313.42 436.531 315.59C436.791 316.25 436.431 316.54 435.871 316.72C435.491 317.15 435.111 317.59 434.731 318.02L434.741 318.03Z" fill="#B76E27"/>
<path d="M438.891 319.7C438.711 319.72 438.561 319.74 438.401 319.75C437.691 319.77 436.991 319.6 436.331 319.35C436.191 319.31 436.061 319.25 435.911 319.2C435.911 318.39 435.901 317.56 435.891 316.75V316.73C436.011 316.52 436.131 316.31 436.251 316.1C436.351 315.92 436.451 315.76 436.551 315.6C436.571 315.67 436.591 315.74 436.621 315.81C437.031 317.04 437.531 318.21 438.391 319.18C438.461 319.26 438.521 319.33 438.601 319.4C438.701 319.5 438.801 319.6 438.911 319.7H438.891Z" fill="#383938"/>
<path d="M315.531 422.75C315.741 422.07 315.741 420.15 316.761 421.58C318.921 424.58 322.051 424.66 324.971 425.01C330.771 425.7 336.621 425.92 342.451 426.33C343.901 426.43 345.541 426.11 346.051 428.1C340.701 427.73 335.401 428.96 330.071 428.69C326.541 428.51 322.971 428.33 319.621 426.97C317.641 426.17 315.861 425.15 315.531 422.75V422.75Z" fill="#383938"/>
<path d="M354.47 428.12C353.26 426.89 351.59 428 350.27 427.31C351.9 425.93 354.44 425.92 357.61 427.27C357.29 428.32 356.38 428.01 355.66 428.12C355.26 428.12 354.86 428.12 354.47 428.12Z" fill="#3D3D3D"/>
<path d="M450.672 317.32C452.852 316.23 455.192 317.17 457.432 316.77C455.262 318 452.932 317.16 450.672 317.32Z" fill="#B19E96"/>
<path d="M131.213 500.52C131.183 497.75 131.163 494.97 131.133 492.2C132.193 494.96 132.063 497.74 131.213 500.52Z" fill="#9C7551"/>
<path d="M141.941 445.49C141.751 446.9 140.961 447.71 139.531 447.87C140.121 446.86 140.911 446.06 141.941 445.49Z" fill="#9D5C21"/>
<path d="M281.761 323.3C280.161 325.34 278.951 327.76 275.941 329.24C277.441 326.32 279.541 324.75 281.761 323.3Z" fill="#B26E2F"/>
<path d="M183.282 319.79C183.112 320.53 182.982 321.27 182.772 322C182.262 323.78 183.292 323.63 184.442 323.35C184.362 324.19 183.922 324.6 183.062 324.48C182.322 324.38 181.992 323.85 182.102 323.23C182.312 322.03 181.172 320.33 183.292 319.78L183.282 319.79Z" fill="#935825"/>
<path d="M374.189 331.74C372.919 332.88 371.419 332.12 370.019 332.34C369.789 331.22 370.629 330.96 371.209 330.52C371.579 332.44 373.119 331.51 374.189 331.74V331.74Z" fill="#735D4C"/>
<path d="M265.862 326.96C265.862 326.17 265.872 325.38 265.882 324.58C266.872 325.31 267.862 323.33 268.852 324.58C268.082 325.8 267.062 326.78 265.872 327.58C265.872 327.37 265.862 327.16 265.852 326.96H265.862Z" fill="#94581F"/>
<path d="M444.252 311.98C444.522 312.47 444.992 312.59 445.502 312.6C444.062 313.79 443.912 316.09 441.912 316.8C441.702 314.71 443.412 313.55 444.262 311.97L444.252 311.98Z" fill="#AB6E36"/>
</svg>
