<svg width="596" height="842" viewBox="0 0 596 842" fill="none" xmlns="http://www.w3.org/2000/svg">
<path d="M395.751 467.76C394.271 467.27 393.271 466.14 392.291 465.05C389.241 461.62 385.461 459.63 380.981 458.67C376.451 457.7 373.081 454.76 370.371 451.18C368.181 448.28 368.461 444.8 371.391 442.31C374.881 439.33 376.841 435.03 380.611 432.3C381.941 431.33 382.201 429.44 382.201 427.63C382.221 413.04 381.101 398.6 377.791 384.33C376.491 378.71 375.861 372.85 377.701 367.14C378.281 365.34 377.861 364.93 376.111 365.04C356.751 366.26 338.161 362.35 319.831 356.64C318.821 356.33 317.901 355.42 317.101 357.2C311.461 369.8 303.721 381.25 297.261 393.4C294.341 398.9 290.641 403.99 288.261 409.77C286.201 414.78 282.191 416.9 277.221 417.62C271.111 418.49 265.361 420.42 259.781 423.03C253.831 425.82 247.901 428.67 241.811 431.14C227.621 436.9 216.611 446.26 208.841 459.44C206.611 463.22 203.961 466.71 202.691 471.08C201.661 474.64 198.361 476.47 194.991 477.03C191.771 477.57 189.571 475.11 187.871 472.56C183.771 466.42 184.191 459.58 186.331 453.21C188.791 445.88 190.161 438.37 191.941 430.92C192.921 426.81 194.321 422.88 198.231 420.44C202.231 417.94 205.661 418.36 208.791 421.9C209.391 422.58 209.841 423.39 210.471 424.04C213.581 427.26 214.751 427.26 217.971 424.15C222.811 419.48 227.641 414.8 232.491 410.15C237.901 404.97 244.471 401.94 251.721 400.64C260.591 399.05 265.461 393.72 267.971 385.39C270.181 378.05 273.411 370.98 275.141 363.55C276.371 358.23 277.181 352.69 277.521 347.12C277.901 340.9 277.661 334.58 279.431 328.51C281.691 320.7 285.281 313.48 291.961 308.71C299.461 303.36 303.161 296.07 305.581 287.56C308.521 277.22 311.311 266.77 317.161 257.54C318.601 255.27 320.171 253.08 321.831 250.62C314.861 248.73 308.021 246.88 301.281 244.7C299.511 244.13 297.261 245.23 295.241 245.19C288.301 245.05 281.481 243.74 274.641 242.79C267.821 241.83 261.061 240.42 254.281 239.15C252.501 238.82 250.861 239.45 249.271 239.9C244.021 241.37 239.211 240.36 234.591 237.81C231.951 236.35 231.691 234.82 234.071 232.89C237.061 230.46 240.241 228.23 243.461 226.11C245.491 224.77 247.991 224.86 250.011 225.84C257.081 229.26 264.501 229.03 272.011 228.6C280.751 228.11 289.521 227.53 297.931 230.87C298.711 231.18 299.441 231.03 300.231 230.93C309.831 229.71 319.261 231.43 328.731 232.6C333.781 233.23 338.741 234.26 343.711 235.44C346.761 236.16 348.931 233.22 351.641 232.02C349.121 229.51 348.221 226.59 348.661 222.89C346.521 224.15 344.941 226.2 342.271 225.18C338.971 223.93 336.871 220.64 338.531 216.85C339.891 213.74 339.901 210.28 341.661 207.38C343.381 209.48 342.091 212 342.651 214.26C342.481 216.45 341.691 218.62 342.411 220.84C342.711 221.62 342.371 222.77 343.611 222.99C344.621 223.18 344.951 222.38 345.321 221.68C348.401 219.17 349.511 215.01 352.821 212.69C355.341 212.31 355.241 213.82 354.571 215.37C353.531 217.79 353.131 220.38 352.241 222.83C350.531 227.56 354.471 230.82 359.051 231C360.591 231.06 361.411 229.82 362.261 228.75C362.931 227.91 363.051 226.52 364.531 226.48C365.561 226.83 365.731 227.71 365.881 228.62C365.501 231.16 366.981 233.47 366.801 235.99C366.651 236.34 366.391 236.56 366.031 236.67C365.491 236.74 365.011 236.59 364.571 236.29C363.261 235.12 361.901 234.29 359.971 234.9C358.531 235.36 357.051 234.87 355.611 234.53C354.621 234.29 353.621 234.1 352.601 234.45C349.981 235.36 349.641 236.66 351.511 238.73C354.391 241.92 354.321 245.74 351.331 248.97C350.821 249.13 350.331 249.09 349.871 248.82C349.511 248.44 349.351 247.98 349.291 247.47C349.941 242.21 349.701 241.74 345.251 239.66C343.821 239.06 342.341 238.64 340.811 238.36C340.501 238.3 340.191 238.21 339.891 238.12C338.491 237.75 337.101 237.31 335.631 237.25C333.581 237.1 331.631 236.41 329.621 236.07C327.511 235.71 326.301 236.17 326.751 238.71C327.131 240.85 327.041 243.04 326.191 245.08C325.381 247.04 326.221 247.72 328.051 248.06C330.191 248.45 332.361 248.27 334.491 248.57C335.831 248.76 337.201 248.94 338.341 249.81C339.131 251.94 337.531 252.07 336.201 252.2C333.831 252.44 331.441 252.34 329.051 252.29C326.941 252.25 325.381 253 324.111 254.71C321.391 258.38 319.161 262.32 317.401 266.52C313.621 275.52 310.621 284.8 307.531 294.03C307.921 295.27 308.991 294.96 309.821 294.95C318.581 294.88 326.621 297.37 334.151 301.72C334.891 302.15 335.551 302.99 336.601 302.47C340.501 296.5 345.851 291.9 350.981 287.09C351.231 286.86 351.461 286.61 351.701 286.37C360.901 277.17 361.391 275.15 358.111 262.46C357.391 259.67 356.761 257.02 353.841 255.7C353.221 254.39 354.351 253.48 354.601 252.37C354.971 251.38 355.521 250.55 356.611 250.23C357.931 250.48 359.591 249.55 360.471 251.33C361.121 255.28 362.491 259.06 363.301 262.96C363.461 263.27 363.441 264.03 364.061 263.24C364.561 262.3 365.201 261.47 365.851 260.66C366.541 259.62 365.651 259.01 365.191 258.29C364.341 256.43 361.861 255.57 362.011 253.1C362.451 252.4 362.991 252.22 363.691 252.75C365.391 254.41 367.421 255.85 368.701 257.79C370.321 260.24 372.501 260.91 375.081 260.91C389.431 260.86 403.621 262.75 417.851 264.26C422.801 264.79 427.871 264.45 432.701 265.8C437.821 267.23 441.641 270.53 444.041 275.31C444.791 276.79 444.761 277.61 442.571 278.36C436.041 280.6 430.691 278.96 425.031 275.43C420.891 272.85 415.631 273.06 410.751 273.51C401.441 274.37 392.071 273.54 382.761 274.65C379.151 275.08 375.501 275.17 371.861 275.35C369.391 275.47 366.901 275.52 364.601 273.86C364.161 278.77 361.051 281.85 358.291 285.17C353.531 290.9 346.831 294.56 342.221 300.44C341.661 301.15 341.051 301.84 340.541 302.58C339.321 304.36 337.251 306.14 337.191 307.97C337.111 310.36 340.461 310.1 342.111 311.38C345.691 314.15 345.531 316.79 341.141 320.79C343.201 322.49 345.771 323.01 348.171 323.91C360.081 328.37 372.331 332.01 383.551 338.18C384.441 338.67 385.301 339.22 386.171 339.74C386.321 340.79 386.391 341.83 385.471 342.63C384.651 342.99 383.911 342.71 383.201 342.32C376.391 338.62 369.411 335.3 362.141 332.61C360.211 331.24 358.161 331.38 356.061 332.15C352.681 334.27 350.891 337.87 348.191 340.63C347.941 340.82 347.671 340.98 347.391 341.12C344.371 343.33 341.731 345.91 339.581 348.98C338.171 351.11 336.091 352.34 333.791 353.26C332.931 353.57 331.601 353.4 331.971 354.99C332.831 356.37 334.331 356.2 335.601 356.46C342.121 357.79 348.641 359.12 355.171 360.36C355.501 360.48 355.801 360.64 356.091 360.83C357.751 361.72 359.531 361.21 361.261 361.3C366.841 361.06 372.371 361.77 377.891 362.35C381.521 362.73 381.951 363.88 380.731 367.4C380.581 367.75 380.391 368.08 380.181 368.4C379.361 372.75 378.971 377.09 380.511 381.38C381.551 386.81 383.541 392.05 383.721 397.65C383.601 399.74 383.881 401.85 383.491 403.93C383.481 403.99 382.591 404.74 383.701 404.48C384.121 404.49 384.421 404.69 384.621 405.05C385.361 411.88 385.901 418.73 385.811 425.6C385.781 427.92 386.301 429.82 388.371 431.08C388.851 432.41 391.121 433.06 389.921 435.06C389.261 435.38 388.611 435.23 387.961 434.98C383.831 433.41 383.361 433.54 380.361 436.65C378.621 438.46 377.521 440.75 375.801 442.56C374.641 443.79 375.211 444.45 376.471 445.1C379.891 446.86 383.481 448.31 386.671 450.51C387.501 451.12 388.321 451.73 388.621 452.78C388.681 453.84 388.131 454.35 387.121 454.44C382.891 453.16 379.591 450.02 375.441 448.59C374.731 448.34 373.921 447.56 373.271 448.21C372.471 448.99 373.271 449.86 373.661 450.63C374.461 451.79 375.471 452.71 376.681 453.43C379.831 455.9 384.001 455.65 387.391 457.48C388.251 457.92 389.021 458.51 389.881 458.95C392.691 460.93 395.511 462.89 396.871 466.26C396.781 466.99 396.461 467.54 395.721 467.78L395.751 467.76Z" fill="#383938"/>
<path d="M441.452 646.91C411.522 646.39 382.012 643.21 353.752 632.5C345.452 629.36 337.552 625.46 330.522 619.87C326.702 616.83 324.782 613.6 325.212 608.33C329.022 562.52 349.432 526.61 389.832 504.05C440.092 475.98 500.322 495.6 526.502 547.35C536.092 566.31 540.282 586.45 539.652 607.64C539.592 609.81 539.202 612.04 539.582 614.12C540.302 618.05 538.332 620.58 535.812 623.04C527.492 631.18 517.022 635.3 506.212 638.57C490.912 643.2 475.162 645.37 459.222 646.25C453.302 646.58 447.392 647.03 441.442 646.91H441.452Z" fill="#383938"/>
<path d="M169.661 645.58C141.781 644.98 112.401 641.81 84.2613 631.16C75.7513 627.94 67.6413 623.96 60.4913 618.15C56.8813 615.22 55.2013 612.09 55.6113 607.1C59.4213 560.9 80.1013 524.86 120.971 502.33C151.561 485.47 183.501 485.1 214.551 501.93C239.741 515.58 255.621 537.24 264.381 564.26C269.171 579.03 270.111 594.24 270.211 609.7C270.261 617.28 267.111 621.76 261.561 625.68C250.771 633.3 238.461 637.16 225.781 640.02C207.941 644.03 189.831 645.45 169.661 645.59V645.58Z" fill="#383938"/>
<path d="M389.451 434.85C390.701 433.24 387.591 433.34 388.311 431.94C390.121 431.14 390.901 432.6 391.841 433.6C392.681 434.49 393.441 435.47 394.671 435.83C396.481 436.36 395.691 435.06 395.671 434.31C395.401 430.59 395.661 426.88 395.481 423.17C395.461 421.12 395.351 419.07 395.831 417.05C397.841 412.43 396.561 407.57 396.881 402.83C397.341 389.42 397.881 376 399.431 362.66C400.051 357.34 398.571 353.03 394.221 349.75C392.221 348.24 390.261 346.68 388.111 345.38C386.981 344.7 385.601 344.14 385.521 342.48C385.461 341.49 385.701 340.58 386.221 339.73C387.171 340.32 388.121 340.9 389.071 341.49C389.141 342.84 390.181 342.53 390.991 342.59C395.881 346.02 401.091 349.01 403.151 355.29C404.221 358.54 403.581 361.61 403.271 364.71C401.711 380.32 400.971 395.98 399.851 411.61C399.501 416.48 398.881 421.33 398.561 426.21C397.841 437.29 402.641 446.12 410.091 453.82C413.571 457.42 417.121 460.95 420.501 464.64C421.901 466.17 423.681 467.72 422.831 470.26C421.941 472.93 419.671 474.03 417.281 474.01C409.561 473.94 401.881 473.38 395.741 467.75C396.001 467.2 396.271 466.64 396.531 466.09C397.931 465.36 398.901 466.43 399.951 466.97C404.131 469.12 408.601 470.12 413.341 470.34C409.971 467.9 406.221 466.21 402.491 464.48C401.171 463.87 399.661 463.55 398.911 462.07C398.701 461.03 399.191 460.44 400.151 460.16C400.481 460.09 400.821 460.08 401.161 460.1C407.471 462.09 413.181 465.33 418.961 468.62C415.651 463.15 410.001 459.69 406.371 454.48C405.441 453.29 404.611 452.03 403.651 450.87C402.931 449.93 402.321 448.91 401.531 448.03C400.561 446.71 399.701 445.31 398.751 443.98C398.391 443.49 398.061 442.97 397.791 442.43C397.291 441.08 397.161 439.25 394.881 440.26C392.041 439.49 389.711 438.21 389.451 434.85V434.85Z" fill="#393838"/>
<path d="M360.221 251.43C359.241 250.41 357.871 251.29 356.801 250.7C356.951 248.57 358.771 248.08 360.241 247.62C361.961 247.08 362.151 246 362.121 244.59C362.441 244.18 362.881 244 363.381 243.92C363.711 243.89 364.041 243.92 364.371 243.98C364.691 244.08 364.971 244.23 365.231 244.45C365.741 245.09 365.991 245.86 366.411 246.55C368.071 249.55 368.151 249.55 370.831 247.49C376.381 243.22 380.021 237.48 383.301 231.46C384.761 228.77 385.311 226.16 382.341 224.01C382.251 223.51 382.331 223.04 382.601 222.6C383.531 221.75 384.711 221.93 385.821 221.81C388.561 221.51 388.941 220.8 387.591 218.3C385.841 215.08 383.431 212.36 380.791 209.84C379.801 208.9 378.861 207.92 378.121 206.76C377.481 205.54 376.321 205.8 375.261 205.79C371.431 205.6 367.601 205.47 363.771 205.68C362.811 205.44 361.961 205.09 361.981 203.89C362.061 203.53 362.251 203.24 362.551 203.02C363.531 202.56 364.091 201.83 364.311 200.72C364.451 200.03 364.581 199.04 365.771 199.36C366.201 201.96 367.741 202.24 370.151 202.02C379.011 201.22 389.591 209.58 390.961 218.4C391.301 220.58 391.581 223.06 389.151 224.48C388.251 225 388.431 225.75 388.251 226.49C385.621 237.24 379.301 245.32 370.181 251.37C368.491 252.49 366.671 253.01 365.541 250.85C363.971 247.86 362.541 249.38 360.661 250.68C361.891 251.4 363.281 251.43 363.701 252.74C363.121 252.77 362.581 252.89 362.271 253.45C360.731 253.65 360.131 252.88 360.211 251.43H360.221Z" fill="#393938"/>
<path d="M365.76 199.36C364.06 200.22 366.38 203.83 362.93 203.48C363.36 199.01 363.06 198.64 359.2 198.85C357.8 198.89 356.52 199.2 355.46 200.22C354.11 201.51 352.41 202.19 350.64 202.69C346.13 203.95 344.01 207.15 343.31 211.57C343.14 212.66 343.63 214.22 341.77 214.45C341.73 212.09 341.7 209.73 341.66 207.37C344.14 203.61 346.41 199.75 351.41 198.68C353.35 198.27 354.4 195.95 356.43 195.36C360.24 194.25 362.93 195.42 365.77 199.36H365.76Z" fill="#3E3A37"/>
<path d="M390.981 342.6C390.091 343.24 389.161 343.25 388.191 342.83C388.481 342.39 388.771 341.94 389.061 341.5C389.701 341.87 390.341 342.24 390.981 342.6V342.6Z" fill="#383938"/>
<path d="M354.083 255.4C359.553 256.06 357.993 261.06 359.443 264.19C359.803 264.97 359.513 266.04 359.843 266.85C362.703 273.89 359.753 279.23 355.113 284.28C350.513 289.28 344.863 293.18 340.673 298.58C339.433 300.18 338.203 301.78 336.973 303.38C333.343 300.88 330.023 297.82 325.433 297.07C324.253 296.57 323.083 296.05 321.793 295.87C321.463 295.8 321.143 295.69 320.833 295.56C316.403 293.19 316.023 292.26 317.133 287.39C319.943 275.07 325.643 264.42 335.013 255.78C336.603 254.31 339.063 253.02 338.263 250.06C334.113 249.6 329.963 249.07 325.793 248.7C324.113 248.55 323.883 248.01 324.623 246.58C326.133 243.64 326.533 240.55 325.563 237.34C324.993 235.46 325.813 234.95 327.593 234.93C330.593 234.9 333.323 236.31 336.283 236.42C337.393 237.72 339.103 237.05 340.413 237.68C341.773 238.94 343.683 238.29 345.193 239.06C350.003 240.09 351.673 242.59 349.943 247.22C349.823 250.13 348.083 252.3 346.573 254.55C346.483 254.71 346.363 254.87 346.223 255.03C346.403 254.95 346.553 254.81 346.673 254.61C349.373 251.63 350.183 251.72 354.093 255.4H354.083Z" fill="#B2445B"/>
<path d="M307.631 368.43C303.411 377.61 298.211 386.26 293.381 395.12C290.891 399.7 288.111 404.13 285.721 408.75C284.011 412.07 281.621 413.98 277.861 414.39C266.101 415.68 255.971 421.52 245.421 426.17C236.091 430.28 226.821 434.51 219.261 441.61C216.871 440.73 217.661 438.82 218.281 437.46C219.321 435.16 220.321 432.92 220.631 430.39C220.821 428.83 221.951 427.78 223.001 426.73C229.271 420.48 236.421 415.47 244.251 411.38C248.591 409.12 252.871 406.84 257.651 405.46C264.841 403.39 268.991 397.77 272.401 391.53C274.101 388.42 275.111 385 276.751 381.88C280.771 374.22 285.831 367.61 295.051 365.84C298.461 365.19 301.861 365.31 305.211 366.17C306.401 366.48 307.781 366.66 307.631 368.44V368.43Z" fill="#E8B681"/>
<path d="M396.701 416.89C396.591 418.98 396.481 421.07 396.371 423.16C395.881 425.62 396.301 428.12 396.121 430.59C396.041 431.63 396.691 432.9 395.341 433.64C392.811 432.94 390.821 431.16 388.421 430.17C386.711 429.47 386.491 427.65 386.711 426.04C388.461 413.32 385.481 400.91 384.281 388.39C383.581 381.11 384.091 373.84 383.881 366.57C383.831 364.98 383.951 363.38 383.711 361.8C383.371 359.55 382.231 358.15 379.881 357.61C376.111 356.75 372.341 355.88 368.591 354.95C361.321 353.15 354.611 350.15 349.251 344.72C348.071 343.53 346.711 342.26 347.841 340.28C350.241 337.25 352.121 333.78 355.521 331.65C357.821 330.94 360.101 330.5 362.271 332.02C370.031 334.16 376.951 338.17 383.991 341.9C384.471 342.16 385.011 342.3 385.521 342.49C388.721 344.81 392.191 346.72 395.271 349.26C399.631 352.85 401.151 357.31 400.461 362.74C398.761 375.92 398.461 389.2 397.811 402.45C397.571 402.95 397.411 403.48 397.261 404.01C397.071 407.57 397.281 411.13 397.141 414.68C397.021 415.43 396.831 416.16 396.711 416.9L396.701 416.89Z" fill="#E8B681"/>
<path d="M348.743 333.61C343.913 340.45 338.083 346.02 331.023 350.79C325.183 354.73 320.383 353.93 314.893 351.36C311.923 349.96 308.793 348.93 305.933 347.24C297.793 342.42 295.383 328.62 299.073 320.61C299.973 318.66 300.963 316.76 301.923 314.82C300.753 313.89 300.283 315.01 299.733 315.58C290.763 325 293.623 344.86 305.523 350.05C308.333 351.27 311.023 352.77 313.813 354.05C315.103 354.64 315.363 355.14 314.683 356.56C313.203 359.62 312.043 362.82 310.543 366.5C302.173 353.48 290.803 353.72 277.953 359.09C280.823 350.25 280.093 341.65 281.463 333.3C283.103 323.32 287.783 315.17 296.093 309.2C299.263 306.92 302.233 304.39 303.363 300.44C303.723 299.16 304.583 299.37 305.443 299.22C312.913 297.85 319.863 300 326.703 302.53C329.123 303.42 331.683 304.18 333.683 305.98C332.683 307.28 331.383 306.65 330.223 306.43C326.973 305.82 323.703 305.36 320.473 304.66C318.953 304.33 317.453 304.34 316.263 305.42C312.363 308.92 308.503 312.44 305.943 317.16C304.063 320.63 303.983 324.11 305.393 327.69C309.853 338.98 323.593 344.41 333.143 342.54C337.863 341.62 341.633 338.28 345.313 335.19C346.283 334.38 347.033 332.93 348.713 333.63L348.743 333.61Z" fill="#90A7A2"/>
<path d="M348.74 333.61C345.74 335.43 343.32 338 340.47 340.06C335.15 343.92 329.5 344.67 323.37 343.04C315.49 340.95 309.02 336.98 305.15 329.43C301.62 322.55 304.15 316.89 308.55 311.65C315.92 302.91 316.89 302.66 328.03 305.07C329.9 305.47 331.81 305.66 333.7 305.95C334.06 306.17 334.77 306.51 334.74 306.6C333.45 310.4 336.3 311.47 338.76 312.83C342.57 314.94 342.61 315.15 339.45 318.18C337.8 319.77 338.35 320.83 339.96 321.93C342.29 323.52 344.63 325.05 347.31 326C349.85 326.91 352.35 327.89 355.3 329C352.23 329.69 350.61 331.81 348.74 333.59V333.61Z" fill="#C5E4DF"/>
<path d="M347.841 340.27C348.231 343.77 351.051 345.46 353.471 347.14C358.741 350.79 364.541 353.37 370.921 354.54C374.481 355.19 378.051 355.88 381.541 356.83C384.331 357.59 384.781 360.15 384.831 362.56C384.951 368.49 384.961 374.42 384.851 380.34C384.701 388.45 386.591 396.34 387.181 404.37C387.681 411.14 389.001 417.88 387.721 424.71C387.231 427.34 387.361 429.77 390.881 430.24C392.851 430.5 394.001 431.94 395.091 433.42C396.131 433.7 395.971 434.8 396.481 435.45C397.381 436.53 397.571 437.43 395.731 437.08C394.111 436.77 392.501 436.34 391.611 434.58C390.951 433.28 389.871 432.24 388.301 431.94C385.121 431.06 384.761 428.84 384.771 425.84C384.801 418.83 384.351 411.82 384.101 404.82C382.901 402.86 383.831 400.64 383.371 398.59C383.241 398.26 383.071 397.96 382.871 397.67C382.721 392.08 380.321 386.9 379.851 381.37C379.641 380.99 379.501 380.59 379.441 380.17C379.641 375.95 378.711 371.68 379.991 367.51C380.071 366.84 379.891 365.94 380.261 365.52C381.591 364.01 380.801 363.78 379.361 363.57C373.291 362.7 367.191 362.24 361.051 362.17C360.771 361.98 360.481 361.82 360.181 361.68C358.571 361.26 356.771 362.03 355.261 360.93C347.191 360.36 339.481 357.78 331.501 356.65C329.241 356.33 331.201 355.38 331.481 354.72C331.671 353.46 332.781 353.2 333.671 352.71C335.571 351.52 337.631 350.55 339.061 348.72C341.891 346.03 344.641 343.26 347.261 340.36C347.441 340.33 347.631 340.3 347.821 340.27H347.841Z" fill="#BA8754"/>
<path d="M307.632 368.43C303.852 365.53 299.502 366.04 295.312 366.73C286.132 368.24 281.162 374.89 277.462 382.56C274.702 388.29 272.412 394.2 268.352 399.26C265.352 402.99 261.502 405.19 257.172 406.66C247.052 410.1 237.982 415.38 229.652 422C228.852 422.64 228.142 423.41 227.272 423.92C221.622 427.26 220.992 433.51 218.682 438.76C218.322 439.58 218.332 440.81 219.262 441.62C219.002 442.14 218.492 442.83 218.052 442.37C217.212 441.5 216.242 440.48 216.612 439.08C216.842 438.22 217.302 437.4 217.792 436.64C218.672 435.26 219.782 433.39 219.132 432.23C216.402 427.33 220.432 425.13 222.982 422.96C227.062 419.49 230.532 415.42 234.652 411.98C239.752 407.73 245.362 404.82 251.782 403.23C259.322 401.36 266.072 398.09 269.032 390.29C271.242 384.48 272.912 378.45 274.622 372.46C275.552 369.19 277.122 366.13 277.622 362.72C277.712 362.12 278.222 361.21 278.682 361.1C285.892 359.49 293.042 356.16 300.522 360.14C303.302 361.62 305.472 363.76 307.512 366.07C308.152 366.79 308.592 367.6 307.642 368.44L307.632 368.43Z" fill="#BA8754"/>
<path d="M191.191 447.71C192.381 441.82 193.461 435.92 194.791 430.06C195.501 426.93 196.801 423.98 199.821 422.28C201.271 421.46 202.751 420.3 204.501 421.77C206.281 423.26 207.281 425 206.851 427.44C205.911 432.73 203.831 437.66 201.881 442.6C200.001 447.4 200.481 452.24 201.131 457.05C201.661 460.96 201.591 464.77 200.711 468.55C200.011 471.56 197.801 473.69 194.991 474.29C192.491 474.82 191.211 472.29 189.881 470.47C186.611 465.96 187.771 460.83 188.091 455.92C188.221 453.9 188.251 451.56 189.831 449.82C190.541 449.29 190.741 448.42 191.191 447.72V447.71Z" fill="#B2445A"/>
<path d="M313.19 233.53C315.12 233.62 317.07 233.57 318.98 233.84C320.12 234 321.61 234 321.92 235.66C321.71 238.81 319.39 240.18 316.89 240.99C313.86 241.98 310.66 242.42 307.44 242C291.09 239.9 274.56 239.3 258.38 235.69C252.97 234.49 247.23 235.6 241.71 234.59C240.47 234.36 238.85 234.82 238.43 232.94C238.61 232.8 238.82 232.69 238.96 232.53C244.46 226.46 250.6 227.69 256.93 230.94C260.31 232.2 263.79 231.33 267.23 231.46C267.72 231.31 268.22 231.17 268.67 230.9C274.26 230.9 279.85 230.92 285.44 230.92C287.7 231.81 290.2 230.49 292.42 231.67C295.04 232.73 297.65 233.84 300.59 233.54C304.79 232.49 308.99 232.55 313.19 233.51V233.53Z" fill="#E8B681"/>
<path d="M338.262 250.06C340.042 252.14 338.672 253.61 337.192 254.91C330.912 260.43 325.982 266.94 322.342 274.47C319.962 279.4 318.742 284.68 317.402 289.92C316.582 293.12 319.622 293.66 321.252 295.17C318.932 296.06 316.592 296.77 314.652 294.46C313.762 293.4 313.312 294.48 312.722 294.74C310.492 295.69 308.312 295.87 306.172 294.5C310.442 283.84 313.182 272.61 318.392 262.31C320.072 258.99 322.032 255.86 324.272 252.9C325.202 251.67 326.362 251.34 327.822 251.38C330.432 251.46 333.042 251.45 335.652 251.4C336.692 251.38 338.072 251.84 338.252 250.06H338.262Z" fill="#863E4C"/>
<path d="M238.431 232.95C241.411 234.24 244.701 234.2 247.711 234.11C256.231 233.85 264.431 235.61 272.671 237.19C280.491 238.69 288.431 239 296.321 239.68C299.721 239.97 303.071 240.53 306.451 240.84C312.331 241.39 318.171 241.56 321.921 235.66C322.351 236.36 322.781 237.07 323.211 237.77C323.911 239.54 323.731 241.32 323.331 243.11C320.831 247.9 320.821 247.92 315.581 246.39C310.611 244.94 305.661 243.42 300.701 241.93C300.171 242.3 299.571 242.46 298.931 242.48C295.631 242.27 292.261 243.1 289.021 241.86C283.791 241.39 278.571 240.92 273.341 240.44C273.111 240.21 272.841 240.03 272.551 239.89C271.001 239.45 269.241 240.3 267.821 239.1C264.301 238.54 260.761 238.08 257.271 237.4C254.351 236.83 251.511 236.72 248.701 237.81C248.371 238.04 248.001 238.21 247.611 238.31C245.441 238.25 243.201 238.92 241.121 237.76C238.951 237.67 237.111 236.73 234.801 235.43C236.201 234.47 237.321 233.71 238.441 232.95H238.431Z" fill="#BA8754"/>
<path d="M368.371 273.24C364.511 272.09 363.871 269.71 366.371 265.76C371.251 265.62 376.041 266.64 380.911 266.83C387.631 267.08 394.271 265.97 400.991 266.08C411.741 266.26 422.301 267.12 432.131 272.05C435.181 273.58 438.801 273.5 441.751 275.34C442.511 276.01 442.281 276.46 441.411 276.73C437.841 277.82 433.911 278.42 431.021 276.01C424.731 270.77 417.471 270.47 409.951 270.64C409.611 270.64 409.271 270.61 408.931 270.6C403.281 271.23 397.601 270.7 391.941 270.91C390.741 270.95 389.441 270.45 388.331 271.34C384.751 272.63 380.861 271.24 377.291 272.64C374.361 273.5 371.301 272.38 368.371 273.24Z" fill="#B98753"/>
<path d="M441.739 275.34C435.599 275.44 430.379 272.33 424.919 270.23C419.389 268.1 413.689 267.63 407.949 267.2C399.199 266.54 390.469 267.91 381.719 267.77C377.759 267.71 373.789 267.42 369.839 267.05C368.649 266.94 367.519 266.21 366.359 265.77C366.439 263.21 367.909 262.19 370.299 262.24C371.429 262.27 372.569 262.36 373.699 262.43C373.989 262.56 374.259 262.72 374.519 262.9C377.779 263.34 381.139 262.52 384.339 263.65C387.189 263.69 390.039 263.73 392.889 263.77C393.379 264 393.889 264.16 394.409 264.31C396.529 264.69 398.789 263.85 400.829 265C403.499 265.28 406.269 264.56 408.859 265.76C411.079 266.69 413.499 265.58 415.729 266.41C420.389 266.38 425.029 266.45 429.649 267.13C435.019 267.92 438.589 271.3 441.729 275.34H441.739Z" fill="#E7B480"/>
<path d="M364.333 226.75C363.233 229.05 362.193 231.99 359.403 232.02C356.313 232.05 353.153 231.01 351.493 227.75C350.863 226.5 350.433 225.33 351.023 223.9C352.243 220.94 352.343 217.61 354.013 214.77C354.783 213.46 354.083 212.93 352.713 213.09C352.673 212.94 352.633 212.78 352.583 212.63C353.163 211.36 354.363 210.86 355.493 210.27C357.063 209.76 358.023 208.42 359.283 207.49C360.233 206.79 361.123 205.28 362.633 206.66C362.853 208.77 361.593 210.36 360.643 212C359.193 214.5 358.913 217.17 359.143 219.93C359.363 222.5 360.603 223.33 362.773 221.9C366.253 219.58 370.153 219.14 374.063 218.38C377.333 217.75 380.413 218.35 383.483 219.23C384.553 219.54 385.913 219.98 385.743 221.38C385.563 222.89 384.113 222.11 383.223 222.33C382.883 222.41 382.583 222.55 382.333 222.79C378.443 222.1 374.713 221.9 370.743 223.23C368.263 224.06 366.263 225.22 364.323 226.76L364.333 226.75Z" fill="#654529"/>
<path d="M389.453 434.85C390.863 437 392.193 439.25 395.103 439.62C395.203 439.83 395.313 440.11 395.193 440.26C392.263 443.92 389.373 447.61 386.193 451.06C382.293 449.05 378.443 446.93 374.463 445.09C372.903 444.37 373.103 443.88 374.093 443.01C376.083 441.26 377.393 438.98 379.013 436.93C382.773 432.18 384.253 431.93 389.453 434.84V434.85Z" fill="white"/>
<path d="M362.45 244.55C362.8 245.48 363.16 246.42 363.63 247.66C360.97 247.96 358.58 248.71 356.81 250.71C356.01 251.11 355.5 251.72 355.4 252.64C353.03 254.89 351.74 252.8 350.29 251.37C349.85 250.17 350.23 249.29 351.31 248.67C354.31 242.04 353.17 241.24 348.16 236.68C350.59 234.51 353.02 231.99 356.62 233.9C359.29 235.32 362.81 231.74 364.92 235.51C364.88 237.04 364.02 238.29 363.51 239.66C362.89 241.24 363.61 243.1 362.46 244.57L362.45 244.55Z" fill="#BA8754"/>
<path d="M341.761 214.46C342.891 211.13 342.461 207.27 345.561 204.62C346.871 203.5 347.971 202.38 349.771 202.02C351.881 201.59 353.961 200.89 355.421 199.1C356.531 197.73 358.081 198.07 359.541 198.03C360.461 199.77 358.881 200.16 357.951 200.75C355.551 202.27 353.571 204.3 351.331 206.02C350.421 206.72 349.821 207.7 349.341 208.73C348.771 209.94 347.761 211.23 348.441 212.54C349.281 214.15 350.641 212.5 351.771 212.68C352.111 212.73 352.421 212.82 352.681 213.06L352.711 213.1C350.481 216.1 349.141 219.8 345.861 222C344.061 224.38 342.881 223 341.751 221.32C340.261 219.04 341.601 216.76 341.761 214.48V214.46Z" fill="#654529"/>
<path d="M399.24 462.02C403.23 463.92 407.23 465.82 411.22 467.74C412.14 468.18 413.08 468.62 413.91 469.21C414.59 469.69 415.77 470.13 415.3 471.22C414.94 472.06 413.85 471.77 413.13 471.64C407.8 470.65 402.35 469.98 397.79 466.59C397.44 466.33 396.95 466.26 396.53 466.11C394.45 463.65 392.1 461.48 389.63 459.42C389.25 459.04 389.18 458.59 389.31 458.09C389.52 457.62 389.86 457.3 390.34 457.1C391.18 456.96 391.92 457.28 392.66 457.61C394.94 458.95 397.49 459.88 399.23 462.02H399.24Z" fill="#B0445B"/>
<path d="M390.342 457.32C390.112 457.56 389.882 457.79 389.642 458.03C388.942 458.62 388.232 458.49 387.522 458.07C383.642 456.74 379.302 456.68 375.972 453.85C375.362 452.63 374.472 451.71 373.182 451.21C372.312 450.54 371.992 449.59 371.882 448.56C371.812 447.9 371.692 447.12 372.312 446.67C372.952 446.21 373.542 446.71 374.172 446.98C378.622 448.92 382.762 451.41 386.882 453.94C388.182 454.92 390.192 455.17 390.342 457.32V457.32Z" fill="#B0435B"/>
<path d="M366.36 236.28C365.93 233.84 364.33 231.61 365.08 228.97C365.47 226.34 366.69 224.78 369.61 224.43C371.45 224.21 373 222.68 374.94 222.34C377.34 221.92 379.63 221.85 381.59 223.62C381.27 225.17 379.9 225.76 378.73 226.21C374.3 227.93 371.4 231.27 368.78 234.99C368.17 235.86 367.83 237.11 366.43 237.15C366.24 236.97 366.17 236.78 366.21 236.59C366.26 236.39 366.31 236.29 366.36 236.29V236.28Z" fill="#B98654"/>
<path d="M206.832 437.6C207.892 434.27 208.952 430.94 210.042 427.51C210.492 427.77 211.012 428.16 211.602 428.39C217.422 430.64 217.622 431.12 214.782 436.64C214.422 437.35 214.092 438.07 213.742 438.79C211.132 440.16 208.802 439.96 206.842 437.6H206.832Z" fill="#FCFCFD"/>
<path d="M386.191 451.07C388.101 446.43 392.041 443.37 395.101 439.63C397.611 438.63 398.051 440.42 398.531 442.17C396.171 446.38 394.041 450.76 389.901 453.62C389.111 453.72 388.711 453.17 388.281 452.67C387.591 452.14 386.891 451.61 386.201 451.08L386.191 451.07Z" fill="#B0465D"/>
<path d="M306.172 294.5C309.532 295.07 312.612 294.58 315.392 291.5C315.052 297.48 319.112 294.39 321.242 295.17C321.462 295.17 321.682 295.17 321.912 295.18C322.892 296.05 324.262 295.93 325.352 296.54C330.322 296.96 334.072 299.44 336.962 303.39C336.882 303.99 336.772 304.6 335.972 304.04C327.682 298.29 318.522 295.53 308.432 295.87C307.402 295.9 306.292 296 306.172 294.5V294.5Z" fill="#863D4D"/>
<path d="M360.22 251.43C360.7 252.31 361.38 253 362.28 253.45C363.08 255.27 365.42 255.96 365.73 258.15C366.05 259.06 367.27 259.77 366.39 260.96C365.72 261.89 365.06 262.82 364.39 263.75C363.9 264.12 363.42 264.12 362.94 263.75C361.84 260.02 360.72 256.3 359.67 252.56C359.59 252.26 360.02 251.82 360.22 251.44V251.43Z" fill="#833E4C"/>
<path d="M206.832 437.6C208.952 439.06 211.422 438.46 213.732 438.79C213.812 440.47 215.122 441.53 215.782 442.93C212.182 444.57 208.572 444.52 204.952 443.02C204.842 440.96 206.142 439.39 206.832 437.61V437.6Z" fill="#B0485E"/>
<path d="M381.432 224.01C375.812 221.93 367.742 224.37 365.082 228.96C364.972 228.17 365.172 227.28 364.332 226.74C364.422 225.17 365.522 223.95 366.692 223.65C371.762 222.33 376.772 219.12 382.182 222.61C382.422 222.36 382.632 222.39 382.822 222.67C382.802 223.19 382.782 223.71 382.762 224.23C382.272 224.46 381.832 224.39 381.442 224.01H381.432Z" fill="#403931"/>
<path d="M214.542 446.44C214.062 447.1 213.572 447.77 213.092 448.43C209.902 449.78 206.702 450.05 203.512 448.43C203.582 447.53 203.652 446.63 203.712 445.73C206.822 444.02 210.122 444.79 213.362 445.04C214.022 445.09 214.632 445.56 214.542 446.43V446.44Z" fill="#B3425B"/>
<path d="M350.733 251.38C352.243 251.97 353.403 253.85 355.393 252.64C355.663 253.89 354.023 254.25 354.083 255.41C353.453 255.2 352.633 255.18 352.223 254.76C349.943 252.43 348.213 253.46 346.583 255.53C345.903 255.68 345.603 255.44 345.803 254.73C347.183 252.23 348.563 249.73 349.933 247.23C349.943 247.7 349.953 248.18 349.963 248.65C350.783 249.4 349.773 250.67 350.723 251.38H350.733Z" fill="#413737"/>
<path d="M204.952 443.02C208.562 442.99 212.172 442.96 215.782 442.93C215.782 443.4 215.782 443.88 215.782 444.35C215.392 445.17 214.722 445.43 213.862 445.37C210.652 445.14 207.412 445.8 204.232 445.02C204.102 444.22 204.202 443.5 204.952 443.02V443.02Z" fill="#F4DDE0"/>
<path d="M210.422 451.89C209.752 453.01 209.082 454.13 208.402 455.26C206.752 455.5 205.092 455.86 203.622 454.68C203.582 453.98 203.552 453.27 203.512 452.57C202.872 451.17 203.822 450.53 204.862 450.49C206.802 450.42 209.162 449.13 210.422 451.9V451.89Z" fill="#AC465D"/>
<path d="M203.621 454.68C205.211 454.9 206.951 453.92 208.401 455.26C207.171 457.24 205.941 459.22 204.481 461.58C204.161 459 203.891 456.84 203.621 454.68Z" fill="#F9F3F6"/>
<path d="M388.273 452.66C388.753 452.85 389.233 453.04 389.713 453.23C390.363 453.53 390.993 453.84 391.563 454.28C392.403 454.99 393.803 455.15 393.943 456.59C393.613 457.28 393.103 457.77 392.383 458.06C391.703 457.81 391.023 457.57 390.343 457.32C389.213 456.17 387.643 455.47 386.883 453.94C387.703 453.91 388.233 453.55 388.263 452.67L388.273 452.66Z" fill="#443638"/>
<path d="M388.32 271.34C388.99 270.24 390.1 270.57 391.06 270.57C397.01 270.56 402.96 270.59 408.92 270.6C405.4 271.79 401.76 271.02 398.17 271.2C394.89 271.36 391.6 271.3 388.32 271.34Z" fill="#AB8A6C"/>
<path d="M347.282 340.36C345.242 343.83 342.592 346.69 339.082 348.72C341.072 345.2 343.972 342.58 347.282 340.36Z" fill="#47392B"/>
<path d="M202.979 450.38C202.929 450.21 202.919 450.04 202.939 449.86C205.969 447.81 209.239 448.94 212.439 449.14C212.239 449.86 211.769 450.34 211.119 450.68C208.399 450.78 205.669 451.27 202.979 450.39V450.38Z" fill="#F9CFDB"/>
<path d="M380.052 380.79C380.002 380.99 379.942 381.18 379.862 381.37C379.572 381.22 379.032 381.08 379.022 380.91C378.772 376.51 378.022 372.08 379.402 367.72C380.102 370.84 379.522 374 379.732 377.14C379.812 378.36 379.402 379.62 380.052 380.79Z" fill="#50381E"/>
<path d="M204.223 445.01C208.053 444.36 211.993 445.73 215.773 444.34C215.943 445.38 215.283 445.93 214.533 446.43C211.003 444.89 207.303 446.07 203.703 445.73C203.873 445.49 204.053 445.25 204.223 445.01V445.01Z" fill="#9B505E"/>
<path d="M362.912 239.05C363.012 237.55 364.302 236.72 364.902 235.5C365.202 235.81 365.502 236.11 365.802 236.42C366.342 237.49 365.912 238.48 365.592 239.49C364.882 241.1 365.712 243.09 364.352 244.53L363.642 244.55C362.402 242.85 363.232 240.87 362.902 239.05H362.912Z" fill="#533C27"/>
<path d="M380.05 380.79C378.68 376.49 379.66 372.07 379.4 367.72C379.6 367.65 379.8 367.58 380 367.51C380.02 371.94 380.03 376.37 380.05 380.79V380.79Z" fill="#A58B71"/>
<path d="M300.742 233.01C304.822 231.71 308.902 231.73 312.982 233.01C308.902 233.42 304.822 233.4 300.742 233.01Z" fill="#4E371F"/>
<path d="M299.36 241.83C299.81 241.86 300.25 241.89 300.7 241.93C300.56 242.69 300.14 243.21 299.35 243.14C296.16 242.88 292.88 243.94 289.77 242.5C292.92 241.57 296.22 242.77 299.36 241.83V241.83Z" fill="#483622"/>
<path d="M300.742 233.01C304.822 233.01 308.902 233.01 312.982 233.01C313.042 233.19 313.112 233.36 313.182 233.53C308.982 233.54 304.782 233.55 300.582 233.56C300.652 233.38 300.702 233.2 300.742 233.02V233.01Z" fill="#D0B59B"/>
<path d="M267.85 231.48C264.16 232.33 260.46 233.41 256.93 230.94C257.31 230.94 257.7 230.93 258.08 230.92C261.3 231.72 264.62 230.72 267.85 231.48V231.48Z" fill="#D7B69A"/>
<path d="M365.003 239.02C365.273 238.15 365.543 237.28 365.813 236.41C366.003 236.37 366.183 236.32 366.363 236.27C366.383 236.54 366.403 236.81 366.423 237.08C367.283 240.34 367.163 243.52 365.683 246.59C365.063 246.12 364.963 245.44 364.953 244.73C364.543 242.82 364.473 240.91 365.003 239.01V239.02Z" fill="#B78756"/>
<path d="M341.752 221.3C343.012 222.18 344.252 223.22 345.862 221.98C346.002 223.62 345.142 224.04 343.642 224.04C341.552 224.04 341.762 222.63 341.752 221.3Z" fill="#42372D"/>
<path d="M384.342 263.65C380.882 263.62 377.432 263.59 373.972 263.54C373.932 263.54 373.852 263.37 373.852 263.28C373.852 263.18 373.942 263.08 374.002 262.98C376.932 262.5 379.862 262.49 382.782 262.98C383.302 263.2 383.822 263.42 384.342 263.64V263.65Z" fill="#D7B79C"/>
<path d="M212.442 449.14C209.272 449.28 206.042 448.72 202.942 449.86C202.782 449.25 203.002 448.79 203.502 448.44C206.692 448.44 209.892 448.44 213.082 448.44C212.862 448.68 212.652 448.91 212.432 449.15L212.442 449.14Z" fill="#995663"/>
<path d="M299.36 241.83C296.25 243.25 292.96 242.18 289.77 242.5C289.52 242.28 289.27 242.07 289.02 241.85C292.47 241.85 295.91 241.84 299.36 241.83V241.83Z" fill="#9A8671"/>
<path d="M267.85 231.48C264.6 231.17 261.27 232.29 258.09 230.92C261.62 230.92 265.14 230.91 268.67 230.9C268.4 231.09 268.13 231.28 267.86 231.47L267.85 231.48Z" fill="#55351A"/>
<path d="M202.981 450.38C205.691 450.48 208.401 450.58 211.121 450.67C210.891 451.08 210.661 451.48 210.421 451.89C208.021 451.12 205.591 450.02 203.511 452.56C202.751 451.97 202.911 451.16 202.981 450.37V450.38Z" fill="#8F5A63"/>
<path d="M248.022 237.71C248.252 237.71 248.472 237.74 248.692 237.81C246.512 240.31 243.732 238.7 241.212 238.89C241.182 238.89 241.112 238.71 241.122 238.63C241.142 238.53 241.222 238.44 241.282 238.35C243.472 237.53 245.842 238.64 248.012 237.71H248.022Z" fill="#493626"/>
<path d="M382.791 263C379.861 263 376.931 263 374.011 263C373.901 262.82 373.801 262.63 373.711 262.43C376.741 262.59 379.831 261.68 382.791 263Z" fill="#51331B"/>
<path d="M368.371 273.24C371.271 272.03 374.311 272.81 377.291 272.64C374.401 274.05 371.341 272.99 368.371 273.24Z" fill="#523417"/>
<path d="M393.781 264.41C393.481 264.2 393.191 263.98 392.891 263.77C395.611 263.76 398.331 263.75 401.051 263.75C401.101 263.75 401.161 263.9 401.211 263.98C400.971 264.13 400.721 264.29 400.481 264.44C398.241 264.89 396.011 264.92 393.781 264.42V264.41Z" fill="#493724"/>
<path d="M382.882 397.67C383.062 397.74 383.241 397.79 383.431 397.83C384.131 400.07 383.962 402.33 383.532 404.59C383.512 404.7 383.502 404.82 383.472 404.92C383.352 405.25 382.902 405.44 382.892 405.1C382.822 402.63 382.872 400.15 382.892 397.67H382.882Z" fill="#4E341C"/>
<path d="M362.27 332.01C360.06 331.06 357.79 331.41 355.52 331.64C357.84 330.42 360.14 329.76 362.27 332.01Z" fill="#4B3421"/>
<path d="M345.182 239.07C343.582 238.63 341.382 240.25 340.402 237.67C342.132 237.66 343.792 237.91 345.182 239.07Z" fill="#A6495C"/>
<path d="M415.741 266.4C413.451 266.17 411.051 267.15 408.871 265.75C411.161 265.98 413.551 265.17 415.741 266.4Z" fill="#D3B59D"/>
<path d="M393.781 264.41C396.011 264.41 398.251 264.42 400.481 264.43C400.601 264.62 400.711 264.8 400.831 264.99C398.481 264.81 396.031 265.78 393.781 264.41Z" fill="#D1B89C"/>
<path d="M383.531 404.58C383.501 402.33 383.471 400.07 383.441 397.82C385.001 400.02 383.871 402.48 384.121 404.81C383.931 404.73 383.731 404.65 383.541 404.58H383.531Z" fill="#A88A71"/>
<path d="M292.421 231.69C290.101 231.36 287.701 231.83 285.441 230.94C287.761 231.24 290.251 229.96 292.421 231.69Z" fill="#4E371A"/>
<path d="M248.021 237.71C245.891 239.14 243.531 238.11 241.291 238.35C241.231 238.15 241.171 237.96 241.121 237.76C243.421 237.75 245.721 237.73 248.021 237.71V237.71Z" fill="#9C8674"/>
<path d="M373.18 451.2C375.11 451.02 376.08 451.86 375.97 453.84C374.71 453.3 373.88 452.32 373.18 451.2Z" fill="#A24A5D"/>
<path d="M333.692 352.71C332.962 353.38 332.232 354.05 331.502 354.72C331.022 353.387 331.752 352.717 333.692 352.71Z" fill="#473729"/>
<path d="M360.903 361.61C360.933 361.8 360.993 361.99 361.063 362.17C359.203 361.97 357.193 362.94 355.473 361.51C357.293 361.08 359.103 360.93 360.903 361.61V361.61Z" fill="#4E351E"/>
<path d="M360.9 361.61C359.09 361.58 357.28 361.54 355.47 361.51C355.41 361.31 355.34 361.12 355.27 360.92C357.15 361.13 359.18 360.12 360.9 361.61Z" fill="#AB8A6B"/>
<path d="M273.292 239.93C273.292 240.1 273.292 240.27 273.332 240.44C271.542 240.1 269.522 241.28 267.922 239.64C269.722 239.47 271.542 238.99 273.282 239.93H273.292Z" fill="#4E351E"/>
<path d="M273.293 239.93C271.503 239.83 269.712 239.73 267.932 239.64C267.902 239.46 267.863 239.28 267.812 239.11C269.633 239.43 271.683 238.25 273.293 239.94V239.93Z" fill="#A88A6C"/>
<path d="M340.411 237.68C339.021 237.28 337.071 238.76 336.281 236.42C337.711 236.67 339.201 236.72 340.411 237.68Z" fill="#A6495C"/>
<path d="M323.331 243.11C323.291 241.33 323.251 239.55 323.211 237.77C324.421 239.53 324.241 241.31 323.331 243.11Z" fill="#4F321C"/>
<path d="M366.383 260.96C366.163 260.02 365.943 259.09 365.723 258.15C366.373 258.99 368.893 259.38 366.383 260.96Z" fill="#8F4D5B"/>
<path d="M191.192 447.71C191.252 448.74 191.262 449.74 189.832 449.81C189.832 448.82 190.342 448.16 191.192 447.71Z" fill="#954D5E"/>
<path d="M387.531 458.06C388.241 458.05 388.941 458.03 389.651 458.02C389.651 458.48 389.651 458.95 389.651 459.41C388.691 459.36 388.021 458.85 387.541 458.05L387.531 458.06Z" fill="#9E475A"/>
<path d="M350.732 251.38C349.602 250.71 350.082 249.6 349.972 248.65C350.412 248.65 350.862 248.66 351.302 248.67C350.912 249.53 350.432 250.38 350.732 251.38V251.38Z" fill="#4D3821"/>
<path d="M362.941 263.74C363.421 263.74 363.911 263.74 364.391 263.74C364.261 264.4 364.231 265.19 363.351 265.21C363.221 265.21 363.081 264.25 362.941 263.73V263.74Z" fill="#684950"/>
<path d="M332.852 583.24C335.102 572.85 339.432 563.25 344.542 554.03C350.362 543.52 357.542 533.97 366.422 525.79C367.462 525.5 368.222 526.06 368.812 526.75C373.812 532.61 380.632 534.11 387.702 533.63C398.622 532.9 409.452 531.31 419.692 527.01C424.762 524.88 429.512 522.21 434.002 519.04C437.302 516.71 438.822 513.04 441.052 509.91C442.052 509.11 442.192 507.9 442.502 506.78C444.762 503.55 444.232 499.46 445.832 496.03C446.792 495.54 447.712 495.7 448.602 496.22C460.122 497.39 470.852 500.98 481.142 506.25C492.342 511.99 501.722 520 509.772 529.4C521.742 543.38 529.402 559.68 533.292 577.68C534.852 584.9 536.172 592.18 535.992 599.63C535.472 600.98 534.402 601.77 533.262 602.57C523.142 609.69 511.872 614.18 499.902 616.93C486.112 620.11 472.122 621.5 457.962 621.97C449.892 622.24 441.802 622.79 433.752 622.44C413.172 621.54 392.592 620.28 372.852 613.54C358.012 608.47 344.962 600.71 335.302 588C334.212 586.56 332.892 585.23 332.852 583.24V583.24Z" fill="#F28D22"/>
<path d="M332.851 583.24C342.341 597.18 355.431 606.29 371.131 611.97C380.661 615.42 390.511 617.45 400.511 618.8C417.191 621.07 433.961 622.09 450.771 621.45C469.561 620.73 488.351 619.67 506.551 614.18C517.201 610.97 526.971 606.08 535.991 599.63C536.011 604.19 536.011 608.75 536.061 613.3C536.101 616.98 534.601 619.76 531.651 622C521.551 629.68 509.851 633.63 497.761 636.56C484.721 639.72 471.451 641.33 458.051 642.22C449.161 642.81 440.281 642.95 431.431 642.63C418.621 642.16 405.811 641.31 393.171 638.87C391.841 638.61 390.451 638.69 389.081 638.61C388.001 637.88 386.631 638.75 385.551 637.97C378.001 635.67 370.141 634.53 362.681 631.87C361.191 631.34 359.681 630.85 358.181 630.34C357.421 629.57 356.891 628.24 355.411 629.16C348.891 627.5 343.041 624.34 337.371 620.85C335.871 619.92 334.321 618.98 332.831 618.07C328.611 615.49 327.441 611.94 328.081 607.39C329.231 599.25 330.081 591.05 332.861 583.23L332.851 583.24Z" fill="#B26D2B"/>
<path d="M441.66 510.02C438.1 519.45 429.8 523.4 421.51 527.21C410.96 532.06 399.59 533.69 388.16 534.55C379.62 535.19 372.03 532.72 366.41 525.77C382.6 509.98 401.82 500.16 424.14 496.46C425.59 496.22 427.1 496.34 428.58 496.29C434.34 495.37 440.09 495.12 445.84 496.4C446.13 500.35 445.34 504.03 443.03 507.32C442.4 508.14 442.58 509.36 441.66 510.03V510.02Z" fill="#B26D2B"/>
<path d="M445.842 496.4C440.092 496.36 434.342 496.33 428.582 496.29C428.842 496.08 429.102 495.87 429.362 495.66C435.732 495.11 442.112 495.07 448.482 495.69C448.512 495.87 448.552 496.04 448.602 496.21C447.682 496.27 446.762 496.33 445.842 496.39V496.4Z" fill="#987155"/>
<path d="M448.479 495.7C442.109 495.69 435.729 495.68 429.359 495.67C433.489 494.17 437.769 495.2 441.969 495.05C444.119 494.98 446.439 494.26 448.479 495.7Z" fill="#5A3518"/>
<path d="M355.41 629.16C355.52 628.06 356.14 627.54 357.21 627.83C358.56 628.21 358.04 629.43 358.18 630.34C357.1 630.31 356.16 629.95 355.41 629.16V629.16Z" fill="#A66E3B"/>
<path d="M385.551 637.97C386.741 638.09 388.041 637.63 389.071 638.61C387.871 638.52 386.551 639.13 385.551 637.97Z" fill="#523519"/>
<path d="M213.173 505.84C220.763 509.91 227.673 514.88 233.633 521.14C234.373 522.16 235.033 523.26 236.303 523.74C242.313 529.92 247.313 536.83 251.543 544.33C258.193 556.15 262.493 568.81 264.953 582.11C265.183 583.33 265.123 584.6 265.193 585.85C266.363 587.56 265.493 589.54 265.933 591.35C266.063 591.66 266.233 591.96 266.423 592.24C266.423 594.01 266.423 595.78 266.423 597.56C265.033 599.79 262.653 600.39 260.403 601.16C246.333 606 231.843 608.92 217.043 610.17C189.943 612.46 163.143 610.76 136.783 603.79C135.463 603.44 134.153 603.04 132.873 602.58C128.663 601.12 124.393 599.82 120.203 598.27C110.383 594.65 100.933 590.25 91.9728 584.83C90.6128 584.01 89.2028 583.26 88.2528 581.92C87.8128 581.05 87.0828 580.56 86.1528 580.33C80.0228 576.39 75.0928 571.32 71.6728 564.84C71.0928 563.75 70.4428 562.65 70.7728 561.31C77.1328 546.77 86.2828 534.22 97.8328 523.4C111.663 510.44 127.593 501.26 146.133 496.85C147.233 496.59 148.353 496.47 149.473 496.28C150.413 495.73 151.473 495.7 152.513 495.52C152.933 495.37 153.353 495.21 153.773 495.05C155.503 494.99 157.243 494.94 158.973 494.88C164.203 493.68 169.493 494.48 174.753 494.38C175.783 494.6 176.233 495.4 176.503 496.29C179.523 506.27 187.623 508.84 196.593 509.71C201.673 510.2 206.903 510.26 210.963 506.1C211.523 505.53 212.393 505.42 213.193 505.85L213.173 505.84Z" fill="#F28D22"/>
<path d="M88.5709 581.22C95.2709 586.57 103.021 590.03 110.771 593.49C113.861 594.87 116.981 596.22 120.081 597.58C123.951 599.66 128.111 600.9 132.411 601.7C139.591 603.3 146.731 605.08 153.951 606.46C167.701 609.08 181.571 610.04 195.591 610.07C216.181 610.11 236.311 607.51 256.011 601.6C259.571 600.53 263.121 599.35 266.421 597.57C266.441 601.33 266.161 605.13 266.561 608.84C267.311 615.7 263.981 619.85 258.491 623.24C247.281 630.17 234.941 633.88 222.221 636.54C217.461 637.53 212.711 638.81 207.771 638.72C206.301 639.84 204.531 639.06 202.951 639.47C202.651 639.61 202.371 639.78 202.111 639.98C199.891 640.01 197.661 640.04 195.441 640.08C192.141 641.47 188.651 640.27 185.291 640.82C184.931 640.94 184.601 641.12 184.301 641.36C176.901 641.36 169.481 641.64 162.091 641.32C134.541 640.13 107.381 636.69 81.5009 626.38C74.9509 623.77 68.9609 620.2 62.9709 616.49C58.0309 613.44 58.0209 609.17 58.5809 604.63C60.3909 590.15 63.8309 576.09 69.8309 562.72C70.0609 562.21 70.4509 561.78 70.7709 561.32C74.1409 569.09 79.7009 575.01 86.5309 579.83C87.1709 580.37 88.0809 580.49 88.5809 581.22H88.5709Z" fill="#B26D2B"/>
<path d="M213.172 505.84C210.232 506.67 208.812 509.81 205.402 510.32C196.372 511.67 188.002 510.42 180.632 504.94C177.492 502.6 175.842 499.03 175.412 495.03C175.272 494.86 175.202 494.69 175.222 494.5C175.242 494.31 175.272 494.21 175.312 494.21C175.582 494.01 175.842 494.03 176.092 494.25C188.522 495.61 200.372 498.91 211.472 504.76C212.062 505.07 212.602 505.48 213.172 505.84V505.84Z" fill="#B46E2C"/>
<path d="M175.473 494.42C175.473 494.62 175.463 494.83 175.413 495.03C169.923 494.98 164.433 494.94 158.953 494.89C159.233 494.7 159.513 494.52 159.803 494.33C164.003 493.48 168.243 494.19 172.463 493.96C173.463 494.13 174.583 493.55 175.483 494.42H175.473Z" fill="#D19662"/>
<path d="M172.763 494.19C168.443 494.24 164.113 494.28 159.793 494.33C164.043 492.83 168.423 493.95 172.733 493.65C172.963 493.76 173.043 493.87 172.973 494C172.903 494.13 172.833 494.19 172.763 494.19Z" fill="#793D10"/>
<path d="M184.293 641.35C184.353 641.16 184.393 640.97 184.413 640.78C188.013 640.05 191.633 640.27 195.243 640.68C195.353 640.7 195.473 640.7 195.573 640.74C195.903 640.86 196.103 641.32 195.783 641.32C191.953 641.38 188.123 641.35 184.293 641.34V641.35Z" fill="#53361A"/>
<path d="M195.24 640.68C191.63 640.71 188.02 640.74 184.41 640.78C188 639.2 191.76 640.36 195.43 640.08C195.37 640.28 195.31 640.49 195.24 640.69V640.68Z" fill="#9A724E"/>
<path d="M266.413 592.25C266.243 592.19 266.073 592.14 265.903 592.1C265.093 590.15 265.423 588.17 265.763 586.19C267.343 588.06 266.123 590.23 266.413 592.24V592.25Z" fill="#65360D"/>
<path d="M236.303 523.74C234.153 524.16 233.813 522.74 233.633 521.14C234.903 521.61 235.643 522.64 236.303 523.74Z" fill="#DF8A34"/>
<path d="M265.76 586.2C265.81 588.17 265.85 590.14 265.9 592.11C264.37 590.18 265.39 587.95 265.18 585.87C265.38 585.97 265.58 586.08 265.76 586.21V586.2Z" fill="#D2965D"/>
<path d="M202.102 639.98C202.152 639.79 202.182 639.6 202.202 639.41C203.992 638.71 205.812 638.9 207.622 639.29C205.942 640.76 203.942 639.75 202.102 639.98V639.98Z" fill="#563519"/>
<path d="M207.611 639.29C205.801 639.33 203.991 639.37 202.191 639.41C203.891 637.92 205.901 638.93 207.761 638.71C207.701 638.9 207.661 639.09 207.621 639.29H207.611Z" fill="#987150"/>
<path d="M153.751 495.06C153.471 495.26 153.181 495.47 152.901 495.67C151.991 496.13 151.091 496.17 150.191 495.64C151.221 494.52 152.531 495.07 153.751 495.05V495.06Z" fill="#5F3811"/>
<path d="M172.76 494.19C172.76 494.01 172.74 493.83 172.73 493.65C173.87 493.75 175.14 493.14 176.09 494.25C175.88 494.29 175.67 494.35 175.47 494.42C174.57 494.34 173.66 494.26 172.76 494.19Z" fill="#61340F"/>
<path d="M150.191 495.64C151.091 495.64 151.991 495.66 152.901 495.67C151.911 496.77 150.631 496.24 149.461 496.29C149.711 496.08 149.951 495.86 150.201 495.65L150.191 495.64Z" fill="#BE9162"/>
<path d="M406.68 453.74C409.75 456.93 412.85 460.1 415.89 463.32C417.21 464.72 418.45 466.2 419.68 467.69C420.35 468.5 420.99 469.48 419.92 470.35C418.84 471.23 418.46 469.88 417.89 469.41C413.03 465.37 407.01 463.52 401.52 460.68C401.98 457.43 403.85 455.23 406.68 453.75V453.74Z" fill="#FDFDFD"/>
<path d="M393.73 456.66C392.85 456 391.97 455.34 391.09 454.68C393.22 450.51 395.73 446.64 399.5 443.73C400.33 445.09 401.17 446.45 402 447.82C401.26 452.08 398.56 454.98 395.31 457.52C394.54 457.68 394.03 457.36 393.72 456.67L393.73 456.66Z" fill="#AF465D"/>
<path d="M406.682 453.74C404.962 456.05 403.242 458.36 401.522 460.67C401.242 460.68 400.962 460.7 400.682 460.71C399.082 460.07 396.922 460.36 396.262 458.12C398.122 454.79 400.132 451.63 404.092 450.44C404.952 451.54 405.812 452.64 406.672 453.73L406.682 453.74Z" fill="#B0475E"/>
<path d="M399.503 443.73C396.993 447.6 394.093 451.18 391.093 454.68C390.553 454.27 389.843 454.02 389.703 453.23C392.503 450.97 394.073 447.77 396.153 444.95C396.883 443.97 397.293 442.71 398.523 442.16C398.853 442.68 399.173 443.21 399.503 443.73Z" fill="#FBEEF0"/>
<path d="M404.102 450.45C401.332 452.75 398.922 455.41 396.542 458.11C395.742 458.35 395.342 457.96 395.152 457.23C397.862 454.4 400.002 451.16 402.002 447.81C403.162 448.32 403.462 449.52 404.102 450.45V450.45Z" fill="#FBF1F2"/>
<path d="M395.161 457.23C395.621 457.52 396.091 457.81 396.551 458.11C397.931 458.98 399.311 459.85 400.691 460.72C399.871 460.78 399.291 461.1 399.251 462.02C396.791 461 394.471 459.72 392.391 458.05C392.421 457.17 392.841 456.68 393.741 456.66C394.211 456.85 394.691 457.04 395.161 457.23Z" fill="#413838"/>
<path d="M397.211 403.29C397.411 403 397.601 402.72 397.801 402.43C397.821 406.01 397.821 409.58 397.871 413.16C397.891 414.55 397.651 415.82 396.701 416.89C396.651 416.31 396.601 415.73 396.551 415.15C397.441 411.24 396.191 407.2 397.211 403.29Z" fill="#503825"/>
<path d="M396.492 435.45C396.032 434.77 395.562 434.1 395.102 433.42C396.502 431.52 395.502 429.35 395.802 427.33C396.002 425.94 395.352 424.44 396.382 423.16C396.422 427.26 396.452 431.35 396.492 435.45V435.45Z" fill="#E4AE75"/>
<path d="M382.811 222.68C382.601 222.65 382.381 222.63 382.171 222.62C382.871 221.46 384.421 222.48 385.341 221.23C382.761 218.99 379.271 218.61 376.521 219C372.181 219.62 367.551 219.54 363.601 222.54C360.051 225.24 358.311 224.04 358.151 219.65C358.031 216.38 358.461 213.36 360.381 210.58C361.261 209.3 362.111 207.88 362.281 206.24C362.391 205.42 363.191 205.31 363.681 204.88C367.771 204.13 371.861 204.88 375.951 204.88C376.801 205.47 378.051 205.29 378.691 206.29C381.921 210.16 386.001 213.3 388.381 217.92C390.281 221.6 389.731 222.65 385.531 222.66C384.631 222.66 383.721 222.67 382.821 222.68H382.811Z" fill="#804E20"/>
<path d="M365.68 246.6C365.74 243.41 365.48 240.2 366.42 237.09C367.91 235.01 369.38 232.91 370.9 230.85C373.55 227.25 377.65 225.88 381.43 224.02C381.87 224.09 382.31 224.17 382.75 224.24C385.44 224.67 386.16 226.11 385.2 228.64C382.07 236.89 377.11 243.81 370.15 249.24C366.62 251.99 366.53 248.57 365.68 246.6V246.6Z" fill="#E8B681"/>
<path d="M352.683 213.04C352.353 213.11 352.003 213.15 351.683 213.26C350.353 213.7 348.943 215.32 347.683 213.91C346.553 212.64 347.393 210.94 347.993 209.42C349.743 204.99 353.843 202.97 357.233 200.22C358.073 199.54 359.473 199.49 359.543 198.01C361.393 197.4 362.913 197.88 363.953 199.52C364.993 201.15 363.713 202.27 362.933 203.48C362.713 203.48 362.503 203.5 362.283 203.53C360.303 206.31 357.463 208.29 355.433 211.02C354.513 211.69 353.593 212.37 352.673 213.04H352.683Z" fill="#804E1F"/>
<path d="M355.43 211.02C356.47 207.38 359.37 205.45 362.28 203.52C362.3 204.42 362.8 204.84 363.67 204.87C363.21 205.32 362.74 205.77 362.28 206.23C359.64 207.31 358.53 210.59 355.43 211.02Z" fill="#423834"/>
<path d="M362.912 239.05C364.372 240.72 363.342 242.72 363.652 244.55C363.252 244.55 362.852 244.55 362.452 244.55C362.402 242.7 361.742 240.8 362.922 239.05H362.912Z" fill="#393938"/>
<path d="M365.003 239.02C364.983 240.92 364.973 242.83 364.953 244.74C364.753 244.67 364.563 244.6 364.363 244.53C364.583 242.69 363.733 240.74 365.003 239.02Z" fill="#A78C6F"/>
<path d="M378.681 206.28C377.611 206.11 376.671 205.71 375.941 204.87C377.031 204.99 378.501 204.38 378.681 206.28Z" fill="#44372D"/>
<path d="M325.35 296.54C324.02 296.54 322.61 296.78 321.91 295.18C323.25 295.15 324.44 295.47 325.35 296.54Z" fill="#863E4C"/>
<path d="M345.802 254.73C346.062 255 346.322 255.26 346.582 255.53C346.102 256.05 345.712 257.31 344.872 256.48C344.062 255.68 345.282 255.23 345.802 254.73V254.73Z" fill="#4C3137"/>
<path d="M397.21 403.29C396.93 407.24 397.72 411.24 396.55 415.14C396.83 411.19 395.64 407.16 397.21 403.29Z" fill="#D5B59A"/>
<path d="M441.66 510.02C441.76 508.94 442.13 507.99 443.03 507.31C442.9 508.37 443.47 509.8 441.66 510.02Z" fill="#DF8A37"/>
<path d="M132.4 601.7C127.82 601.73 123.55 600.83 120.07 597.58C124.35 598.45 128.32 600.23 132.4 601.7Z" fill="#BC6E1F"/>
<path d="M88.5695 581.22C87.5995 581.17 86.9195 580.71 86.5195 579.83C87.5395 579.8 88.5395 579.79 88.5695 581.22Z" fill="#E38A2F"/>
</svg>
