<svg xmlns="http://www.w3.org/2000/svg" viewBox="0 0 500 500"><g id="freepik--background-simple--inject-5"><path d="M441.9,316.91c0,37.44-5.11,65-14.92,85.38H69.55c-10.08-20.64-15.45-48.74-15.45-87,0-142.69,73.72-274.91,192.09-274.91S441.9,174.22,441.9,316.91Z" style="fill:#92E3A9;opacity:0.7000000000000001"></path><path d="M441.9,316.91c0,37.44-5.11,65-14.92,85.38H69.55c-10.08-20.64-15.45-48.74-15.45-87,0-142.69,73.72-274.91,192.09-274.91S441.9,174.22,441.9,316.91Z" style="fill:#fff;opacity:0.7000000000000001"></path></g><g id="freepik--Clouds--inject-5"><path d="M339.77,134.34h58.48a2.37,2.37,0,0,0,1.69-4.05,7.22,7.22,0,0,0-3.53-1.64,2.34,2.34,0,0,1-1.79-1.91c-.68-4-3.37-14.11-13.45-14.32a15.91,15.91,0,0,0-15,8.74,2.39,2.39,0,0,1-2.92,1.16c-1.89-.68-4.8-.83-7.17,3a2.4,2.4,0,0,1-2.72,1.07,7.29,7.29,0,0,0-8.27,2.41,2.29,2.29,0,0,1-2.09.91,19.86,19.86,0,0,0-3.36-.15C336.55,129.72,336.71,134.34,339.77,134.34Z" style="fill:none;stroke:#263238;stroke-linecap:round;stroke-linejoin:round"></path><path d="M84.78,128.88H175c3.26,0,5-4,2.62-6.24a11.4,11.4,0,0,0-5.44-2.53,3.6,3.6,0,0,1-2.77-2.94c-1-6.26-5.2-21.77-20.75-22.09-13.92-.28-20.54,8.46-23.18,13.48a3.69,3.69,0,0,1-4.51,1.79c-2.91-1-7.4-1.27-11.06,4.66a3.7,3.7,0,0,1-4.19,1.64c-3.26-1-8.74-1.47-12.76,3.72a3.53,3.53,0,0,1-3.23,1.41,30.67,30.67,0,0,0-5.17-.23C79.8,121.77,80.05,128.88,84.78,128.88Z" style="fill:none;stroke:#263238;stroke-linecap:round;stroke-linejoin:round"></path></g><g id="freepik--Trees--inject-5"><path d="M419.6,383.35s17.64-1.27,26.44-18c9.5-18.09-13.67-61-25.51-64.18-13-3.5-33.52,30.78-29.32,57.43C394.09,376.76,411.45,382.88,419.6,383.35Z" style="fill:#92E3A9"></path><path d="M419.6,383.35s17.64-1.27,26.44-18c9.5-18.09-13.67-61-25.51-64.18-13-3.5-33.52,30.78-29.32,57.43C394.09,376.76,411.45,382.88,419.6,383.35Z" style="fill:#fff;opacity:0.30000000000000004"></path><path d="M431.92,352.58l-11.29,12.36c0,.43,0,.85,0,1.28.08,5.52.19,11.23.28,17,0,.37,0,.75,0,1.12.06,4.49.27,14.07.34,18.64a2.51,2.51,0,0,1-2.5,2.55h0a2.51,2.51,0,0,1-2.54-2.58l.44-18.64,0-1.27.06-2.08.07-3.11-14.47-15.74c1.16,0-.92-2.18-1.13-2.39L417,372.06l.63-26.94-9.49-10.33c.82,0-.66-1.54-.81-1.7l10.39,8.18v-.51l.57-23.42,1.56,1.71s.31,18.32.7,41.27l12.28-9.77C432.66,350.74,431,352.59,431.92,352.58Z" style="fill:#fff;stroke:#263238;stroke-linecap:round;stroke-linejoin:round"></path><path d="M87.65,383.24a12.47,12.47,0,0,0,3-.13c5.12-.87,19.88-5.26,35.91-27.6,17.38-24.23-15.61-99.24-34.1-116.49S38,316,42.14,339.87C48,373.07,72.53,382,87.65,383.24Z" style="fill:#92E3A9"></path><path d="M87.65,383.24a12.47,12.47,0,0,0,3-.13c5.12-.87,19.88-5.26,35.91-27.6,17.38-24.23-15.61-99.24-34.1-116.49S38,316,42.14,339.87C48,373.07,72.53,382,87.65,383.24Z" style="fill:#fff;opacity:0.30000000000000004"></path><path d="M121.83,333.86,94.22,361.31l2.6,65.28a4.47,4.47,0,0,1-4.46,4.65h0a4.45,4.45,0,0,1-4.46-4.47c0-13.22.3-54.08.55-100.38l-21.17-20.3c1.61,0-1.27-2.74-1.55-3L88.5,318.92c.18-35.11.35-63.39.35-63.39L90.92,253l1.15,37.55,19.52-14.05c-.29.27-3.17,3-1.56,3L92.27,297.13l1.66,54.1,30.12-21.69C123.65,329.93,119.52,333.86,121.83,333.86Z" style="fill:#fff;stroke:#263238;stroke-linecap:round;stroke-linejoin:round"></path></g><g id="freepik--Character--inject-5"><path d="M258.47,420.61a5,5,0,0,0-3.29,5.35c.25,4.28-4.39,16.05.28,18.65,5.3,2.95,14.36,2.73,15.06.19s-2.16-6.54-1.9-9.68,2.64-13.45-1.17-14.39S258.47,420.61,258.47,420.61Z" style="fill:#fff;stroke:#263238;stroke-linecap:round;stroke-linejoin:round"></path><path d="M257.5,423.26a3.19,3.19,0,0,1,1,2c.3,2.36,1-3.21,5-2.64s2.57,3.66,3.24,3.92c.36.14.44-1,.68-2.14.08-5.51.37-16,1.4-20.47,1.42-6.27,3.14-17.48,2.29-21.31,0,0,7.09-7.82,7.85-34.95l-20.22-.25-.34,27.4s-5.71,7.12-3.64,21.3C256.23,406.32,257.12,417.71,257.5,423.26Z" style="fill:#999;stroke:#263238;stroke-linecap:round;stroke-linejoin:round"></path><path d="M270.37,442.18s-3.9-3.52-7.57-3.4" style="fill:none;stroke:#263238;stroke-linecap:round;stroke-linejoin:round"></path><path d="M285.48,387.93a16.22,16.22,0,0,0-1,12.34c2.16,7.22-1.31,15.49,3.37,18.47s17.5,1.56,13.82-9.27-2.3-17.77-6.62-20.3S285.48,387.93,285.48,387.93Z" style="fill:#fff;stroke:#263238;stroke-linecap:round;stroke-linejoin:round"></path><path d="M307.78,321.71,292,322.88l-9.48,7.27s-.65,12.9,3.51,21.44l2.36,8.29A22.91,22.91,0,0,0,287,370c.37,6.07,1.89,10.81,0,15.95a15.28,15.28,0,0,0-.88,6.22,3.74,3.74,0,0,1,.57,1.17c.81,2.62,2.22-2.68,5.67-2.29s1.76,3.07,2.54,3.11c2-5.95,11.51-34.8,7.58-42.33,0,0,6.4-6.95,8.1-15.44A19.89,19.89,0,0,0,307.78,321.71Z" style="fill:#999;stroke:#263238;stroke-linecap:round;stroke-linejoin:round"></path><path d="M301.74,217s5.89-7.16.66-11.58c0,0-3-13.35-12.22-10.2s-8.12,5.47-8.12,5.47-10.32.35-9.47,5.93,2.79,5.12,2.79,5.12-2.8,1.29-1.77,5.54,5.64,3.9,5.64,3.9Z" style="fill:#263238"></path><path d="M317.61,254.44a71.94,71.94,0,0,1,7.36,4.81s-.38,3.36,5.1,9.33,8,17.28,8,17.28c-2.79,4.9-2.22,5.48-2.44,9.18s-1.29,5.94-.53,8.48,3.24,1.05,3.24,1.05c3.37,0,5.37-6.32,5.37-6.32s1.74-9.6-1.13-22.61a95.72,95.72,0,0,0-7.81-22.25s-5.9-7-8.14-9.12c-2.71-2.51-11.74-9-11.74-9L312.32,253A44.21,44.21,0,0,1,317.61,254.44Z" style="fill:#999;stroke:#263238;stroke-linecap:round;stroke-linejoin:round"></path><path d="M316,255l-.27,1.45a40.89,40.89,0,0,0,3.52-8.92,16.42,16.42,0,0,0-.65-10.37c-.62-1.38-2.37-3.45-3.64-1.74a51,51,0,0,1,1.54,13.07A52.69,52.69,0,0,1,316,255Z" style="fill:#fff;stroke:#263238;stroke-linecap:round;stroke-linejoin:round"></path><path d="M315.29,257.25l.43-.84h0L316,255a52.69,52.69,0,0,0,.5-6.51A51,51,0,0,0,315,235.37a.61.61,0,0,0,0,.06c-.84,1.21.67,4.84.85,6.1a43.34,43.34,0,0,1,.24,8C315.9,251.57,316.23,255.41,315.29,257.25Z" style="fill:#fff;stroke:#263238;stroke-linecap:round;stroke-linejoin:round"></path><path d="M327.32,259.27s3.7,1.11,5.44-3.53" style="fill:none;stroke:#263238;stroke-linecap:round;stroke-linejoin:round"></path><path d="M340.16,291.15a16,16,0,0,0-1.4,4.36c-.37,2.35-1.05,4.82-3.23,3" style="fill:none;stroke:#263238;stroke-linecap:round;stroke-linejoin:round"></path><path d="M261.79,317.09s-5.07,10-5.13,32.73c0,0,7.6,3.24,14.82.19s9.66.35,9.66.35l1.22-7.63s-.69-16.86,13.9-15.55,12.62,14.54,12.62,14.54,7-18.56,1.68-26.49S261.79,317.09,261.79,317.09Z" style="fill:#263238;stroke:#263238;stroke-linecap:round;stroke-linejoin:round"></path><path d="M281.66,327.27c-1,2.62-1.66,6.65-1.06,12.74" style="fill:none;stroke:#7f7f7f;stroke-linecap:round;stroke-linejoin:round"></path><path d="M284.77,322.79a5.34,5.34,0,0,0-1.46,1.41" style="fill:none;stroke:#7f7f7f;stroke-linecap:round;stroke-linejoin:round"></path><path d="M315,235.37a.15.15,0,0,1,0-.06c-24.95-10.27-45.93,2.2-52.67,7,2.77.58,5.58,3,7.24,6.77,3.48,7.93,1.28,12.91-.71,19a24.27,24.27,0,0,0-3.78-16.2c-1.08-1.62-2.62-3.24-4.45-3.56l3.12,24.28-4.62,46.45s1.92,7.66,24.25.3,29.2.37,29.2.37l-2.43-21.61a46,46,0,0,1,.46-13.45l5.17-28.28h0L316,255a52.69,52.69,0,0,0,.5-6.51A51,51,0,0,0,315,235.37Z" style="fill:#fff;stroke:#263238;stroke-linecap:round;stroke-linejoin:round"></path><path d="M284.15,313.92c1.29-3.51,4.46-6.06,7.92-7.48a41.11,41.11,0,0,1,11-2.26,36.64,36.64,0,0,0-16.27-3.32c-1.39,0-3,.09-3.95-.9a3.32,3.32,0,0,1-.17-3.91,10.81,10.81,0,0,1,3-2.89,60.7,60.7,0,0,0,19.22-24.65A64.88,64.88,0,0,1,283,289.38q2.83-7.19,5.68-14.39l-15.39,14.15a1.67,1.67,0,0,1-1.23.6c-.74-.1-1-1.06-1-1.81a52.11,52.11,0,0,1,3.36-19.69,7.57,7.57,0,0,0,.74-3.4,2.35,2.35,0,0,0-2.25-2.24,14.85,14.85,0,0,0,2.18-7.45l-3.25,2.25c0,3.31-1,6.25-2.09,9.43q-.24.71-.48,1.44a.5.5,0,0,1-.58.33.67.67,0,0,1-.15-.06c0,.26-.05.52-.08.78-.66,5.18-2.25,10.18-3.62,15.22q-1.93,7.15-3.27,14.44l-2,19.86a6,6,0,0,0,.28.7c.06.1.13.17.19.27a5.09,5.09,0,0,0,1.44,1.11c2.71,1.44,8.66,2.27,21.66-2,7.65-2.53,13.51-3.3,17.92-3.22l.32-.07A66.4,66.4,0,0,0,284.15,313.92Z" style="fill:#92E3A9;opacity:0.7000000000000001"></path><path d="M305.33,267.82a64.91,64.91,0,0,1-40.73,36.57" style="fill:none;stroke:#263238;stroke-linecap:round;stroke-linejoin:round"></path><path d="M303.32,303.28a53.27,53.27,0,0,0-37.55,4.3" style="fill:none;stroke:#263238;stroke-linecap:round;stroke-linejoin:round"></path><path d="M275.78,250a20.35,20.35,0,0,1-5.41,16.16" style="fill:none;stroke:#263238;stroke-linecap:round;stroke-linejoin:round"></path><path d="M307.48,243.22a26.9,26.9,0,0,1,4.67,16" style="fill:none;stroke:#263238;stroke-linecap:round;stroke-linejoin:round"></path><path d="M281.14,229.66s-.79,13,7.31,13.11c10.33.13,9.9-11.67,9.9-11.67Z" style="fill:#999;stroke:#263238;stroke-linecap:round;stroke-linejoin:round"></path><path d="M280.05,216.21s-.54,11.5,1.27,14.53,6.87,7.44,10.84,7.49,9-5.38,9.28-7.55.21-16.58.21-16.58-.44-11.3-9-11.41S280.06,209.37,280.05,216.21Z" style="fill:#999;stroke:#263238;stroke-linecap:round;stroke-linejoin:round"></path><path d="M301.67,217.35a2.07,2.07,0,0,1,1.74-.26c1.33.45,1.87,2.39,1.2,4.32a3.68,3.68,0,0,1-3,2.75C301.67,221.81,301.67,219.28,301.67,217.35Z" style="fill:#999;stroke:#263238;stroke-linecap:round;stroke-linejoin:round"></path><path d="M288.14,217.32c0,.69-.37,1.25-.82,1.24s-.79-.57-.78-1.26.37-1.26.82-1.25S288.15,216.62,288.14,217.32Z" style="fill:#263238"></path><path d="M295.34,228.32a16.79,16.79,0,0,1-.31,4.08v0c0,.08,0,.16-.06.25a3.31,3.31,0,0,1-.59,1.13l0,0a2.33,2.33,0,0,1-2.22.9,2.4,2.4,0,0,1-1.61-1.47l0,0v0a4.66,4.66,0,0,1-.4-1.56,2,2,0,0,1,0-.34,6,6,0,0,1,.4-2.59Z" style="fill:#263238;stroke:#263238;stroke-linecap:round;stroke-linejoin:round"></path><path d="M290.47,228.72l4.27.13s.55-.18.51-.64a.85.85,0,0,0-.11-.3l0-.06a2.41,2.41,0,0,0-1-.76,6,6,0,0,0-1.74-.16,2.35,2.35,0,0,0-.42.15A3,3,0,0,0,290.47,228.72Z" style="fill:#fff;stroke:#263238;stroke-linecap:round;stroke-linejoin:round"></path><path d="M290.1,231.54s0,0,0,0,0-.2.14-.15,1.71,1.46,2.52,1.52c2.25,0,2-1.3,2-1.27a1,1,0,0,1,.27.68,2,2,0,0,1-.65,1.4l0,0a2.51,2.51,0,0,1-.89.58,2.54,2.54,0,0,1-2.23-.39,2.86,2.86,0,0,1-.72-.79,2,2,0,0,1-.44-1.49Z" style="fill:#fff;stroke:#263238;stroke-linecap:round;stroke-linejoin:round"></path><path d="M297.22,217.23c0,.7-.38,1.26-.82,1.25s-.79-.57-.79-1.27.38-1.25.82-1.25S297.23,216.54,297.22,217.23Z" style="fill:#263238"></path><path d="M294.33,214.58s2.67-2.3,4.72-1.18" style="fill:none;stroke:#263238;stroke-linecap:round;stroke-linejoin:round"></path><path d="M289.91,214.53s-2.6-2.38-4.69-1.31" style="fill:none;stroke:#263238;stroke-linecap:round;stroke-linejoin:round"></path><path d="M270.34,261.76c-1.81,7.07-3.92,17.64-3.92,17.64l8.17-7s3.25-8.7,6.15-11.28c1.11-1,2.16-6.64,3.67-5.95s.53,4.2.53,4.2a16.05,16.05,0,0,1,3.09,1c1,.51,3.44,9.93,2.25,10.76s-2.5-2.39-3.22,1.31-7.17,7-7.17,7-11,15-15.72,17.49-9.82,3.75-11.17-9.41a81,81,0,0,1,1.84-25.42s-2.82-14.41,5.17-18S272.33,254,270.34,261.76Z" style="fill:#999;stroke:#263238;stroke-linecap:round;stroke-linejoin:round"></path><line x1="261.3" y1="284.06" x2="266.92" y2="278.84" style="fill:none;stroke:#263238;stroke-linecap:round;stroke-linejoin:round"></line><line x1="280.36" y1="261.67" x2="285.18" y2="259.4" style="fill:none;stroke:#263238;stroke-linecap:round;stroke-linejoin:round"></line><path d="M257.74,263.2s1.76,2.92,4.66,3.32" style="fill:none;stroke:#263238;stroke-linecap:round;stroke-linejoin:round"></path><path d="M279.4,279.85c.41.27.22.88-.06,1.27a24.31,24.31,0,0,1-1.66,2.1c-.63.7-.95,1-1.54.93s-2.21-1.14-4.65-4.64c-.78-1.12-1.56-4.28-.42-5.45s4.55-3.36,3.66-2.43C273,273.46,274,276.4,279.4,279.85Z" style="fill:#263238;stroke:#263238;stroke-linecap:round;stroke-linejoin:round"></path><path d="M271.87,280.08h0a13.47,13.47,0,0,1-2.44-3.69c-.57-1,.06-1.61.69-2.26l1.29-1.17c1-.83,1.62-.86,1.94,0l.24.54a9.63,9.63,0,0,0,2,2.75l.39.42a1.17,1.17,0,0,1-.21,1.69l-2.26,2.15A1.15,1.15,0,0,1,271.87,280.08Z" style="fill:#fff;stroke:#263238;stroke-linecap:round;stroke-linejoin:round"></path><path d="M270.9,279l-.67.27-.86-1.28.55-.54S270.41,278.23,270.9,279Z" style="fill:#fff;stroke:#263238;stroke-linecap:round;stroke-linejoin:round"></path><path d="M294,214.73s-.15,5.61,1.13,7.88c.73,1.28-.86,2.31-1.59,2.52s-3.46-.87-3.19-2.27" style="fill:none;stroke:#263238;stroke-linecap:round;stroke-linejoin:round;stroke-width:0.75px"></path><polygon points="301.65 214.1 298.09 206.7 294 207.37 286.7 206.07 283.56 209.18 281.94 209.93 280.01 217.21 278.04 211.57 278.89 205.37 286.77 200.62 293.46 198.65 300.1 203.57 302.36 209.05 303.33 211.6 301.65 214.1" style="fill:#263238"></polygon><path d="M280.5,225.83a7.48,7.48,0,0,1,2.5-4.35,5.38,5.38,0,0,1-1.13-3.75,20.56,20.56,0,0,0-.05-4,1.42,1.42,0,0,0-.41-.86c-.53-.44-1.39,0-1.63.64-.43,1.16.14,3.91.12,5.2A35.48,35.48,0,0,0,280.5,225.83Z" style="fill:#263238"></path><path d="M284.11,223.87c.13,1.92.52,2.3,2.16,3.3a6.13,6.13,0,0,0,5.54.38,3.84,3.84,0,0,1,1.58-.5,7.77,7.77,0,0,1,1.82.65,3.09,3.09,0,0,0,3.33-1.56,5.18,5.18,0,0,0,.9-3c-.71,1.67-3.12,1.45-4.54.32.67.53-2.19,1.33-2.46,1.31-1-.07-1.6-.56-2.67-.52C287.31,224.36,285.87,226.11,284.11,223.87Z" style="fill:#263238"></path><path d="M277.59,216.37a2.41,2.41,0,0,1,2.42.85c0,1.28-.07,3.65,0,6.09a.91.91,0,0,1-.22.11c-1.34.42-2.92-.81-3.53-2.76S276.26,216.79,277.59,216.37Z" style="fill:#999;stroke:#263238;stroke-linecap:round;stroke-linejoin:round"></path><path d="M281.32,230.74c1.8,3,6.87,7.44,10.84,7.49,1.82,0,3.85-1.11,5.56-2.55a10.19,10.19,0,0,1-3.29,5.26,6.21,6.21,0,0,1-2.31.5c-3.92-.05-8.9-4.35-10.76-7.37a26.06,26.06,0,0,1-.24-3.76A4.28,4.28,0,0,0,281.32,230.74Z" style="fill:#263238"></path><path d="M236.58,419.3c-1.78.14-2.91,2.22-2.64,4a8,8,0,0,0,2.85,4.43,6.3,6.3,0,0,0,2.93,1.73,2.49,2.49,0,0,0,2.82-1.42,3.47,3.47,0,0,0,5.57-3.48,4,4,0,1,0-5-5.76C245.18,415.44,235.84,414.59,236.58,419.3Z" style="fill:none;stroke:#263238;stroke-linecap:round;stroke-linejoin:round"></path><path d="M321.71,214.49c-1.4-1.38-4.35-1.11-6-.05a4.52,4.52,0,0,0-1.76,5.18,1.7,1.7,0,0,0-1.8.94,1.67,1.67,0,0,0,.52,2,3.22,3.22,0,0,0-1.05,5.73l-2.53.89a2.68,2.68,0,0,0,3,.55,1.47,1.47,0,0,0,2.55,1,1.31,1.31,0,0,0,2.22-.76,3.92,3.92,0,0,0,7-3.37c1.51-.71,2.33-1.35,2.21-3.62s-2.95-3.53-2.91-3.62C323.82,217.86,323.05,215.79,321.71,214.49Z" style="fill:#fff;stroke:#263238;stroke-linecap:round;stroke-linejoin:round"></path><path d="M283.13,263.16c1.72-1.36,3.83-2.1,6.11,0" style="fill:none;stroke:#263238;stroke-linecap:round;stroke-linejoin:round"></path><path d="M284,266.06c1.54-1.33,3.67-2,5.81.11" style="fill:none;stroke:#263238;stroke-linecap:round;stroke-linejoin:round"></path><path d="M284.94,268.9c1.41-1.15,4.28-1.78,5.47.12" style="fill:none;stroke:#263238;stroke-linecap:round;stroke-linejoin:round"></path><path d="M339.93,294.54l-1.3,1.07" style="fill:none;stroke:#263238;stroke-linecap:round;stroke-linejoin:round"></path><path d="M335.18,302.14c1.9-.1,4.12-.78,5-2.47a11.19,11.19,0,0,0,1.19-2.37" style="fill:none;stroke:#263238;stroke-linecap:round;stroke-linejoin:round"></path><path d="M335.31,303.93c3.11-.4,5.8-1.8,6.9-4.73" style="fill:none;stroke:#263238;stroke-linecap:round;stroke-linejoin:round"></path><path d="M288.29,345.73a4.84,4.84,0,0,1,1.84,3.38,19.45,19.45,0,0,0,.72,3.9,3.28,3.28,0,0,0,2.92,2.29" style="fill:none;stroke:#263238;stroke-linecap:round;stroke-linejoin:round"></path><path d="M260.87,375.39a4.5,4.5,0,0,0,2.8,7.12" style="fill:none;stroke:#263238;stroke-linecap:round;stroke-linejoin:round"></path><path d="M260.63,383.69a3.36,3.36,0,0,0,.59,3.14" style="fill:none;stroke:#263238;stroke-linecap:round;stroke-linejoin:round"></path><path d="M302.54,350.9s-1.67,4.25-4.24,4.89" style="fill:none;stroke:#263238;stroke-linecap:round;stroke-linejoin:round"></path><path d="M270.46,378.3s-.77,7.63-5.06,9.38" style="fill:none;stroke:#263238;stroke-linecap:round;stroke-linejoin:round"></path></g></svg>